<svg width="940" height="733" viewBox="0 0 940 733" fill="none" xmlns="http://www.w3.org/2000/svg">
<g opacity="0.92">
<path opacity="0.36" d="M122.733 297.228C122.733 297.228 126.863 307.361 131.883 307.469C136.904 307.577 136.432 298.188 136.432 298.188C136.432 298.188 141.574 308.009 148.281 306.807C154.989 305.605 152.182 296.512 152.182 296.512C152.182 296.512 159.348 305.361 165.057 304.145C170.766 302.93 168.35 290.825 168.35 290.825C168.35 290.825 172.129 301.943 177.865 299.728C183.6 297.512 182.885 283.773 182.885 283.773C182.885 283.773 170.023 291.203 157.27 293.27C144.516 295.337 122.747 297.228 122.747 297.228H122.733Z" fill="#ACBCC4"/>
<path opacity="0.44" d="M183.722 308.698C183.722 308.698 178.499 302.902 173.789 303.808C169.092 304.713 170.523 315.791 170.523 315.791C170.523 315.791 164.031 306.28 160.671 307.55C157.31 308.82 155.394 319.817 155.394 319.817C155.394 319.817 150.576 310.684 146.554 310.59C142.532 310.495 139.306 321.141 139.306 321.141C139.306 321.141 135.473 312.359 131.128 312.265C126.782 312.17 125.284 319.844 125.284 319.844C125.284 319.844 146.554 326.315 156.635 323.856C166.717 321.397 183.708 308.698 183.708 308.698H183.722Z" fill="#ACBCC4"/>
<path d="M106.524 665.329C106.524 665.329 145.245 588.081 141.587 530.975C137.228 462.737 112.058 408.603 99.8303 401.754C87.6164 394.891 52.8776 429.813 50.0434 447.079C47.2092 464.344 79.5188 474.625 86.9011 476.436C94.2835 478.246 95.1877 491.54 80.2746 494.525C65.3749 497.511 22.552 491.324 19.8932 452.091C17.0996 410.859 59.1398 378.76 84.04 360.819C95.4036 352.632 118.131 340.163 118.131 340.163C118.131 340.163 109.696 334.218 102.988 322.37C96.2674 310.536 92.6774 304.902 92.6774 304.902C92.6774 304.902 92.5155 311.522 82.7039 308.009C72.8922 304.497 63.5395 283.151 71.0703 275.924C74.8761 272.262 81.8806 273.505 81.8806 273.505C81.8806 273.505 68.7489 253.2 71.5966 232.355C74.8896 208.24 109.615 191.758 127.794 189.677C145.973 187.583 175.705 184.908 175.705 184.908C175.705 184.908 173.127 189.799 165.651 192.947C158.16 196.094 145.771 197.472 145.771 197.472C145.771 197.472 160.536 201.079 168.822 198.783C177.109 196.486 186.3 190.907 186.3 190.907C186.3 190.907 183.614 200.755 178.593 204.768C173.573 208.78 159.537 209.32 159.537 209.32C159.537 209.32 169.295 212.982 176.623 217.264C183.951 221.547 190.753 234.435 190.753 234.435C190.753 234.435 177.77 230.071 173.694 228.342C169.605 226.599 165.772 225.964 165.772 225.964C165.772 225.964 174.625 241.636 179.349 250.822C185.841 263.454 189.35 283.692 189.35 283.692C189.35 283.692 168.471 293.675 151.898 297.458C135.338 301.241 117.375 298.728 117.375 298.728C117.375 298.728 122.045 317.642 143.45 318.912C164.854 320.182 188.041 303.159 188.041 303.159C188.041 303.159 187.865 311.4 186.893 318.817C185.908 326.221 182.588 327.801 182.588 327.801C182.588 327.801 203.332 323.6 218.866 329.706C234.399 335.812 262.755 366.399 288.789 367.696C314.822 368.992 335.876 358.995 335.876 358.995L362.315 375.95C362.315 375.95 351.518 393.607 308.236 398.66C264.955 403.713 223.211 370.789 223.211 370.789C223.211 370.789 243.212 412.035 251.418 435.785C263.025 469.384 266.223 493.728 266.223 493.728C266.223 493.728 308.952 549.524 316.199 572.382C327.792 608.926 300.544 664.613 300.544 664.613L249.542 663.533C249.542 663.533 277.02 599.888 265.953 578.056C249.137 544.863 218.852 518.37 218.852 518.37L190.227 527.921C190.227 527.921 195.382 586.108 185.733 613.952C177.959 636.392 165.421 665.978 165.421 665.978L106.524 665.316V665.329Z" fill="url(#paint0_linear_114_51)"/>
<path d="M79.1949 475.233C88.1698 474.477 102.759 473.518 111.545 474.815C120.344 476.098 133.368 485.582 132.167 490.702C130.952 495.822 120.115 486.771 116.093 485.947C112.071 485.123 105.823 484.987 105.823 484.987C105.823 484.987 112.382 487.703 114.757 496.957C117.132 506.211 107.402 514.466 103.393 512.912C99.385 511.359 106.916 503.05 106.241 499.727C105.566 496.403 98.3998 487.784 98.3998 487.784C98.3998 487.784 103.015 495.606 102.152 501.483C101.288 507.346 93.1364 516.209 89.0336 513.344C84.6878 510.305 92.4885 506.427 92.2321 501.267C91.9757 496.106 86.9282 491.215 86.9282 491.215C86.9282 491.215 90.2887 493.188 85.0657 498.686C78.2907 505.833 68.7895 500.659 67.1969 497.646C63.1751 490.027 72.177 475.814 79.1679 475.233H79.1949Z" fill="#ACBCC4"/>
<path d="M142.731 272.748C142.878 265.766 137.307 259.986 130.287 259.837C123.267 259.689 117.457 265.229 117.31 272.211C117.163 279.193 122.734 284.973 129.754 285.122C136.773 285.27 142.583 279.73 142.731 272.748Z" fill="#FAFFFF"/>
<path d="M168.881 277.415C175.342 276.78 180.026 270.63 179.344 263.68C178.662 256.73 172.872 251.61 166.411 252.246C159.95 252.881 155.265 259.03 155.947 265.981C156.629 272.931 162.42 278.05 168.881 277.415Z" fill="#FAFFFF"/>
<path d="M116.795 263.724C116.795 263.724 122.922 265.926 130.331 265.737C137.741 265.548 143.099 264.062 143.099 264.062C143.099 264.062 133.463 256.551 127.065 256.713C120.668 256.875 116.795 263.724 116.795 263.724Z" fill="#ACBCC4"/>
<path d="M112.382 262.495C112.382 262.495 122.571 265.278 130.331 265.751C138.092 266.224 148.146 263.616 148.146 263.616" fill="#ACBCC4"/>
<path d="M112.382 262.495C118.455 262.441 124.393 263.319 130.331 263.724C136.202 264.048 142.127 263.427 148.146 263.616C137.106 269.831 123.219 268.642 112.382 262.508V262.495Z" fill="#8D9FA5"/>
<path d="M137.592 277.704C137.656 274.631 135.8 272.099 133.445 272.049C131.09 271.999 129.129 274.45 129.064 277.524C128.999 280.597 130.856 283.129 133.21 283.179C135.565 283.229 137.527 280.777 137.592 277.704Z" fill="#ACBCC4"/>
<path d="M172.447 271.019C172.512 267.945 170.656 265.413 168.301 265.364C165.946 265.314 163.984 267.765 163.92 270.838C163.855 273.912 165.711 276.443 168.066 276.493C170.421 276.543 172.382 274.092 172.447 271.019Z" fill="#ACBCC4"/>
<path d="M151.925 263.738C151.925 263.738 154.692 254.902 160.482 251.593C166.271 248.283 175.071 252.187 175.071 252.187C175.071 252.187 176.758 253.943 169.227 257.794C161.696 261.644 151.912 263.738 151.912 263.738H151.925Z" fill="#ACBCC4"/>
<path d="M154.233 263.211C154.233 263.211 162.304 261.09 167.216 258.604C172.129 256.118 177.149 249.634 177.149 249.634" fill="#ACBCC4"/>
<path d="M154.233 263.211C159.591 259.374 166.231 257.591 171.454 253.511C173.249 252.227 175.084 250.903 177.149 249.647C175.476 254.267 172.412 258.131 167.972 260.495C163.599 262.535 159.051 263.535 154.233 263.211Z" fill="#8D9FA5"/>
<path d="M149.023 251.917C149.023 251.917 167.554 282.989 159.982 289.42C152.398 295.851 144.84 287.38 144.84 287.38" fill="#ACBCC4"/>
<path d="M149.023 251.917C153.639 259.212 169.699 284.462 160.36 291.284C155.461 295.58 147.215 293.203 144.84 287.38C149.941 289.866 154.327 291.473 158.336 288.555C165.34 283.989 152.074 258.199 149.023 251.917Z" fill="#8D9FA5"/>
<path d="M172.412 227.734L152.128 223.411L153.207 221.033C156.298 223.181 159.267 225.411 161.926 228.072C166.636 233.53 169.254 240.366 172.331 246.783C167.648 244.743 158.97 240.893 154.273 238.947C145.38 235.651 137.08 231.098 128.698 226.762C128.685 226.762 130.237 224.64 130.237 224.64L144.948 239.744L145.784 240.609L144.597 240.825C127.065 244.27 108.171 243.541 92.4211 234.246L93.9326 232.787C97.1582 237.137 99.8574 241.811 102.057 246.769C106.7 255.578 104.433 265.737 97.644 272.668C100.127 266.44 102.341 259.469 100.37 253.038C97.779 245.567 93.7167 238.204 90.7476 230.774L93.5817 232.422C101.113 236.462 109.777 238.839 118.266 240.028C126.876 240.987 135.757 240.312 144.408 239.582C144.408 239.582 144.07 240.677 144.057 240.663L128.402 226.545L120.182 219.142L129.94 224.438C137.376 228.329 144.745 232.638 152.532 235.732C154.26 236.407 158.619 238.326 160.36 239.082L170.671 243.743L169.268 245.148C166.015 238.907 163.302 231.828 157.553 227.464C155.704 225.964 153.734 224.546 151.75 223.235L145.231 218.196C150.292 219.966 167.095 225.856 172.412 227.721V227.734Z" fill="#8D9FA5"/>
<path d="M88.9255 489.216C88.9255 489.216 91.7597 496.768 88.8985 502.199C86.0374 507.63 76.1043 505.927 74.9436 501.658C73.7829 497.389 88.9255 489.229 88.9255 489.229V489.216Z" fill="#ACBCC4"/>
<g opacity="0.67">
<path d="M182.561 327.815C182.561 327.815 167.607 340.149 153.369 341.433C139.131 342.716 130.75 340.96 130.75 340.96" fill="#ACBCC4"/>
<path d="M182.561 327.815C176.016 334.543 167.796 339.717 158.633 342.162C149.28 343.959 139.792 343.608 130.736 340.96C139.819 340.987 148.996 340.838 157.85 339.014C166.69 336.772 174.612 332.34 182.548 327.828L182.561 327.815Z" fill="#8D9FA5"/>
</g>
<path d="M71.3132 287.191C71.3132 287.191 73.1217 281.179 76.1583 280.247C79.1949 279.314 86.4693 284.489 86.4693 284.489C86.4693 284.489 82.3125 290.447 84.2694 293.513C86.2264 296.58 90.95 294.662 90.95 294.662" fill="#ACBCC4"/>
<path d="M71.3132 287.191C71.8261 284.07 73.1082 279.639 76.8061 279.071C80.8279 279.071 84.067 281.314 87.2386 283.394L88.2913 284.164C84.7823 288.852 81.7592 295.999 90.95 294.648C88.3857 296.337 83.8241 296.337 82.8659 292.608C82.1911 289.231 83.7431 286.434 85.3761 283.719L85.7 285.569C83.1763 283.935 80.2341 281.922 77.3595 281.246C76.7521 281.138 76.2123 281.192 75.659 281.544C73.6885 282.84 72.5144 285.11 71.3132 287.191Z" fill="#8D9FA5"/>
<path d="M83.7971 299.876C83.7971 299.876 74.8762 293.311 75.308 288.609C75.7399 283.908 78.4931 280.949 78.4931 280.949" fill="#ACBCC4"/>
<path d="M83.797 299.876C80.423 297.904 77.3459 295.364 75.416 291.852C75.0111 290.919 74.5792 289.92 74.6737 288.771C74.9436 285.813 76.3067 282.922 78.4931 280.949C77.4674 282.57 76.7656 284.34 76.3202 286.137C75.9153 287.907 75.6724 289.582 76.6171 291.257C78.3581 294.513 81.2058 297.188 83.797 299.876Z" fill="#8D9FA5"/>
</g>
<g opacity="0.78">
<path d="M315.7 611.277C315.7 611.277 309.289 479.084 297.143 395.431C287.236 327.126 285.05 257.104 280.839 254.767C276.629 252.43 252.525 273.505 224.939 266.305C189.215 256.983 188.702 197.472 190.929 180.815C194.532 153.795 220.161 165.9 217.718 178.018C214.115 195.851 216.058 228.221 231.052 234.584C246.046 240.933 273.889 226.816 280.934 218.953C287.979 211.09 284.132 192.041 280.934 175.965C277.722 159.888 264.509 110.888 272.256 80.2615C279.841 50.2833 324.148 37.9624 346.106 58.146C357.713 68.8187 373.895 143.609 373.895 143.609C373.895 143.609 355.378 155.808 341.747 158.199C320.734 161.888 296.684 158.24 296.684 158.24C296.684 158.24 306.171 178.302 329.655 177.208C357.753 175.897 370.656 164.846 370.656 164.846C370.656 164.846 370.777 172.398 369.684 179.585C368.591 186.759 359.292 193.365 359.292 193.365C359.292 193.365 366.202 199.039 381.925 191.258C399.335 182.639 410.199 166.386 443.561 164.117C476.923 161.847 491.418 191.569 483.725 218.439C478.826 235.556 457.395 229.936 461.268 217.953C465.924 203.579 458.596 190.744 440.363 191.015C427.838 191.204 393.005 216.156 393.153 226.91C393.302 237.65 416.704 289.852 426.799 328.517C436.881 367.182 471.363 612.06 471.363 612.06L423.02 609.169C423.02 609.169 413.37 516.776 405.03 475.693C396.703 434.623 383.855 403.199 372.72 400.024C366.728 398.322 345.553 414.682 351.694 457.346C355.958 486.987 370.048 616.478 370.048 616.478L315.7 611.277Z" fill="url(#paint1_linear_114_51)"/>
<path opacity="0.5" d="M298.803 155.903C298.803 155.903 301.961 165.238 308.628 166.049C314.404 166.751 316.658 156.848 316.658 156.848C316.658 156.848 319.236 168.007 325.592 168.224C331.949 168.44 331.773 156.335 331.773 156.335C331.773 156.335 334.648 167.494 342.192 166.17C349.737 164.846 351.667 151.809 351.667 151.809C351.667 151.809 350.884 160.901 357.834 160.496C364.785 160.091 364.285 145.878 364.285 145.878L298.816 155.889L298.803 155.903Z" fill="#ACBCC4"/>
<path opacity="0.5" d="M272.067 139.367C272.067 139.367 269.84 156.335 267.208 170.331C264.577 184.327 246.91 212.725 246.91 212.725C246.91 212.725 262.755 204.268 268.504 196.959C274.253 189.65 276.629 170.331 276.629 170.331C276.629 170.331 278.262 191.663 274.888 198.54C271.514 205.416 262.714 214.305 262.714 214.305C262.714 214.305 276.953 212.819 284.267 199.12C290.611 187.259 285.995 152.039 285.995 152.039L272.04 139.38L272.067 139.367Z" fill="#ACBCC4"/>
<path opacity="0.5" d="M332.867 59.4564C332.867 59.4564 341.842 53.6472 363.921 66.0627C377.997 73.9795 382.843 92.4608 382.843 92.4608C382.843 92.4608 375.15 85.9491 366.823 79.586C358.496 73.2229 348.9 71.1964 348.9 71.1964C348.9 71.1964 367.255 81.0045 375.582 97.3919C379.509 105.147 389.442 131.166 389.442 131.166C389.442 131.166 374.556 117.022 368.537 107.686C362.517 98.3511 346.417 82.6798 346.417 82.6798C346.417 82.6798 370.453 118.845 377.647 128.167C384.84 137.489 390.319 150.945 396.298 157.929C402.277 164.914 414.153 172.979 414.153 172.979C414.153 172.979 399.416 170.831 394.665 167.373C389.914 163.914 364.825 137.178 364.825 137.178C364.825 137.178 379.307 162.874 385.258 168.089C391.21 173.303 401.319 180.815 401.319 180.815C401.319 180.815 387.188 179.842 374.758 174.708C362.329 169.588 344.797 135.679 344.797 135.679L332.853 59.4429L332.867 59.4564Z" fill="#ACBCC4"/>
<path d="M308.97 140.13C316.251 140.027 322.082 134.803 321.992 128.461C321.902 122.12 315.927 117.063 308.646 117.166C301.364 117.269 295.534 122.493 295.623 128.834C295.713 135.176 301.688 140.233 308.97 140.13Z" fill="#F8FDFD"/>
<path d="M353.902 133.991C360.822 132.322 365.256 126.082 363.805 120.054C362.353 114.027 355.567 110.494 348.647 112.163C341.727 113.832 337.293 120.072 338.745 126.1C340.196 132.128 346.982 135.661 353.902 133.991Z" fill="#F8FDFD"/>
<path d="M315.617 134.345C316.621 131.361 315.586 128.319 313.304 127.549C311.023 126.78 308.359 128.575 307.355 131.558C306.351 134.542 307.386 137.585 309.668 138.354C311.949 139.124 314.613 137.329 315.617 134.345Z" fill="#ACBCC4"/>
<path d="M356.694 129.961C357.698 126.977 356.663 123.935 354.381 123.165C352.1 122.396 349.436 124.191 348.432 127.175C347.427 130.159 348.463 133.201 350.744 133.971C353.026 134.74 355.69 132.945 356.694 129.961Z" fill="#ACBCC4"/>
<path d="M290.111 121.102C290.111 121.102 299.666 123.142 307.346 123.209C323.433 123.358 326.996 119.683 326.996 119.683C326.996 119.683 315.794 113.698 306.914 114.441C298.033 115.184 290.111 121.102 290.111 121.102Z" fill="#ACBCC4"/>
<path d="M335.309 120.426C335.309 120.426 341.788 120.791 351.68 117.63C359.71 115.076 365.014 111.253 365.014 111.253C365.014 111.253 354.987 109.456 349.467 110.145C343.96 110.834 335.309 120.413 335.309 120.413V120.426Z" fill="#ACBCC4"/>
<path d="M331.895 104.957C331.895 104.957 338.197 130.666 340.937 135.665C343.677 140.664 349.926 142.163 347.955 149.594C345.985 157.037 331.787 157.726 325.093 150.553" fill="#ACBCC4"/>
<path d="M331.895 104.957C334.324 110.821 336.254 116.778 338.144 122.736C339.601 126.992 340.33 131.828 342.462 135.719C344.149 138.38 347.037 139.934 348.724 142.893C350.573 146.189 350.155 150.674 347.658 153.511C341.518 159.753 329.385 157.862 325.079 150.566C330.815 154.106 339.844 155.822 345.161 151.215C346.768 149.58 347.294 146.351 346.228 144.217C344.878 141.596 342.017 139.772 340.303 137.138C335.201 127.194 333.19 115.995 331.881 104.957H331.895Z" fill="#8D9FA5"/>
<path d="M323.635 113.496C323.635 113.496 327.414 113.604 329.466 113.32C332.394 112.915 335.539 112.037 335.539 112.037L334.5 126.1C334.5 126.1 332.138 122.128 330.437 122.264C327.846 122.48 327.509 126.897 327.509 126.897L323.635 113.482V113.496Z" fill="#899DA5"/>
<path d="M326.753 113.982C326.753 113.982 315.457 111.915 306.401 112.199C295.429 112.536 286.035 115.752 284.524 116.143C283.012 116.535 276.952 117.576 276.399 118.589C275.846 119.588 277.816 124.776 278.585 125.263C279.638 125.925 283.215 124.79 283.215 124.79C283.215 124.79 286.089 146.892 296.643 148.351C306.549 149.729 319.64 144.703 322.164 141.366C324.688 138.029 327.671 126.384 328.345 123.628C328.683 122.25 326.753 113.995 326.753 113.995V113.982ZM318.925 140.191C316.199 143.784 303.945 146.041 298.006 145.946C288.235 145.811 285.603 124.263 286.332 122.763C287.061 121.264 298.411 118.44 304.808 118.021C312.393 117.521 321.085 118.075 322.583 119.818C324.094 121.547 321.651 136.584 318.925 140.177V140.191Z" fill="#899DA5"/>
<path d="M332.691 123.088C334.945 126.83 339.264 136.287 342.395 139.002C345.526 141.718 359.305 144.068 368.591 140.529C377.876 136.989 376.769 114.968 376.769 114.968C376.769 114.968 380.157 115.13 381.223 114.428C381.965 113.941 382.896 108.429 382.141 107.565C381.398 106.7 375.271 106.93 373.719 106.849C372.181 106.781 362.396 105.606 351.667 107.524C342.813 109.105 331.949 113.455 331.949 113.455C331.949 113.455 331.949 121.899 332.664 123.101L332.691 123.088ZM337.361 118.211C338.467 116.225 346.956 113.928 354.433 112.861C360.722 111.956 372.329 112.361 373.341 113.658C374.353 114.955 376.243 136.354 366.782 138.489C361.033 139.786 348.508 140.11 345.134 137.192C341.76 134.26 336.241 120.196 337.347 118.211H337.361Z" fill="#899DA5"/>
<path d="M462.483 213.252C461.295 221.439 455.951 217.899 449.918 224.803C445.275 230.125 427.96 224.249 429.755 229.207C432.103 235.705 439.269 237.245 444.803 236.516C450.336 235.786 456.868 231.287 456.868 231.287C456.868 231.287 450.431 240.028 447.327 251.174C444.222 262.319 445.383 272.938 450.957 274.492C456.531 276.045 456.167 256.037 458.123 249.809C459.122 246.634 463.009 237.61 463.009 237.61C463.009 237.61 461.943 245.716 465.573 247.945C469.204 250.174 473.023 245.594 473.023 245.594C473.023 245.594 474.656 248.31 479.339 247.648C482.362 247.215 482.646 240.542 482.646 240.542C482.646 240.542 486.074 244.311 490.298 242.946C494.522 241.582 494.455 230.463 491.823 229.193C489.191 227.923 487.963 234.462 487.963 234.462C487.963 234.462 488.368 220.061 484.738 217.17C481.107 214.279 462.496 213.238 462.496 213.238L462.483 213.252Z" fill="#ACBCC4"/>
<path opacity="0.77" d="M278.046 69.7644C278.046 69.7644 264.037 73.5607 254.063 92.2717C241.674 115.536 224.75 127.6 224.75 127.6C224.75 127.6 242.834 125.938 254.036 115.954C265.238 105.971 268.544 94.717 268.544 94.717C268.544 94.717 249.663 129.437 242.281 134.017C234.899 138.597 224.304 142.069 224.304 142.069C224.304 142.069 245.142 143.622 254.643 135.206C264.145 126.789 271.945 111.847 271.945 111.847L278.032 69.7644H278.046Z" fill="url(#paint2_linear_114_51)"/>
<path d="M216.504 183.76C217.071 171.493 223.117 169.75 227.381 162.604C233.212 152.809 242.969 160.604 246.357 155.511C248.881 151.715 241.566 144.122 233.428 146.689C225.29 149.256 218.555 154.538 218.555 154.538C218.555 154.538 214.965 144.379 215.64 128.694C216.315 112.996 219.311 97.5945 215.869 95.7707C209.783 92.5418 207.11 104.268 205.464 115.171C204.438 121.912 205.153 139.975 205.153 139.975C205.153 139.975 199.526 132.909 195.922 134.233C192.319 135.557 191.644 144.136 191.644 144.136C191.644 144.136 186.839 138.745 184.316 142.204C181.792 145.649 183.168 153.106 183.168 153.106C183.168 153.106 178.607 151.634 177.77 157.537C176.92 163.441 179.916 170.736 186.3 173.979C192.683 177.221 203.386 175.897 203.386 175.897C203.386 175.897 215.95 196.013 216.517 183.76H216.504Z" fill="#ACBCC4"/>
<path d="M274.834 130.396C274.834 130.396 262.107 115.414 256.735 126.303C251.35 137.178 261.837 158.47 268.301 158.861C274.766 159.253 279.922 151.904 279.922 151.904L274.847 130.396H274.834Z" fill="#ACBCC4"/>
<path opacity="0.5" d="M329.574 177.37C329.574 177.37 330.95 169.25 334.351 168.778C337.752 168.305 343.394 175.681 343.394 175.681C343.394 175.681 346.228 164.981 351.748 164.049C357.268 163.117 358.901 172.479 358.901 172.479C358.901 172.479 362.585 177.329 343.029 179.748C323.46 182.152 311.435 175.289 311.435 175.289C311.435 175.289 315.376 167.346 320.491 167.481C325.606 167.616 329.574 177.37 329.574 177.37Z" fill="#ACBCC4"/>
<path d="M296.198 103.458C296.198 103.458 324.674 103.66 335.93 102.255C347.186 100.837 356.215 96.0273 356.215 96.0273" fill="#ACBCC4"/>
<path d="M296.198 103.458C304.997 102.499 317.711 102.066 326.658 101.607C336.875 101.404 346.633 99.6615 356.201 96.0273C347.523 101.688 337.05 104.012 326.78 104.309C316.563 104.728 306.36 104.579 296.184 103.471L296.198 103.458Z" fill="#8D9FA5"/>
<path d="M300.017 94.109C300.017 94.109 317.252 94.9871 328.507 92.812C339.763 90.6369 350.668 86.2192 350.668 86.2192" fill="#ACBCC4"/>
<path d="M300.017 94.1089C308.574 93.3523 317.184 93.1227 325.633 91.9203C332.975 90.8935 343.367 88.016 350.668 86.2327C335.336 94.7303 317.198 97.0945 300.017 94.1089Z" fill="#8D9FA5"/>
<path d="M303.432 87.003C303.432 87.003 320.302 86.7463 327.806 84.936C335.309 83.1257 342.449 81.2883 342.449 81.2883" fill="#ACBCC4"/>
<path d="M303.432 87.003C309.937 85.7736 316.496 85.2872 323.001 84.4091C329.547 83.5174 335.822 81.6936 342.449 81.2883C336.281 83.8147 329.938 86.0843 323.352 87.084C316.712 87.8676 310.058 87.9351 303.432 87.003Z" fill="#8D9FA5"/>
<path d="M359.305 193.365C340.087 200.944 318.723 200.039 310.882 197.351L359.305 193.365Z" fill="#ACBCC4"/>
<path d="M359.305 193.365C345.823 200.593 325.228 203.268 310.882 197.351C327.117 199.499 343.475 197.161 359.305 193.365Z" fill="#8D9FA5"/>
<path d="M305.969 150.039C305.969 150.039 297.682 155.227 295.766 160.847C293.849 166.467 296.765 178.113 296.765 178.113" fill="#ACBCC4"/>
<path d="M305.969 150.039C299.126 156.929 295.604 159.726 296.414 169.98C296.508 172.641 296.684 175.343 296.765 178.099C294.524 172.925 293.229 167.426 294.133 161.698C295.563 155.997 300.867 152.214 305.955 150.026L305.969 150.039Z" fill="#8D9FA5"/>
<path d="M258.463 138.07C258.463 138.07 258.53 128.316 264.158 128.356C269.786 128.397 273.471 135.922 273.471 135.922C273.471 135.922 267.06 141.88 270.029 144.906C272.998 147.932 276.764 146.824 276.764 146.824" fill="#ACBCC4"/>
<path d="M258.463 138.07C256.358 123.844 270.272 123.844 274.078 135.638L274.199 136.07L273.929 136.435C272.512 138.435 270.164 140.934 270.218 143.339C270.785 145.635 274.307 147.027 276.764 146.838C273.889 148.121 269.422 147.054 268.396 143.69C267.883 140.245 270.555 137.408 273.012 135.449L272.863 136.246C266.426 128.397 261 126.127 258.463 138.083V138.07Z" fill="#8D9FA5"/>
<path d="M295.132 197.607C295.132 197.607 307.804 207.456 322.798 206.808C337.793 206.173 348.697 201.741 348.697 201.741" fill="#ACBCC4"/>
<path d="M295.132 197.607C303.175 202.025 312.029 205.43 321.206 205.47C330.41 205.362 339.655 203.889 348.684 201.755C340.181 206.01 330.707 207.956 321.192 208.172C311.57 208.05 302.177 203.984 295.132 197.621V197.607Z" fill="#8D9FA5"/>
</g>
<g opacity="0.83">
<path d="M532.406 156.578C532.406 156.578 521.15 174.06 511.811 169.142C494.86 160.226 510.097 136.962 510.097 136.962C510.097 136.962 494.711 147.392 492.228 135.949C489.745 124.506 503.943 112.442 503.943 112.442C503.943 112.442 488.881 108.916 492.741 99.2563C498.774 84.1659 514.335 82.1664 514.335 82.1664C514.335 82.1664 500.245 70.4399 511.851 59.9969C521.893 50.9453 543.5 56.052 543.5 56.052C543.5 56.052 544.404 41.0291 560.977 40.2726C568.98 39.9078 579.723 51.5127 579.723 51.5127C579.723 51.5127 585.594 39.3674 596.755 41.0967C614.394 43.8392 615.191 60.902 615.191 60.902C615.191 60.902 628.822 52.7826 638.579 66.5761C643.424 73.4256 633.734 82.8419 633.734 82.8419C633.734 82.8419 654.464 89.7184 656.974 108.321C658.338 118.454 641.899 115.468 641.899 115.468C641.899 115.468 663.156 132.409 657.987 149.053C655.787 156.132 642.115 150.931 642.115 150.931C642.115 150.931 657.487 187.259 627.85 190.285C615.758 191.515 608.159 165.292 608.159 165.292C608.159 165.292 588.334 149.891 572.624 146.932C556.915 143.96 532.419 156.605 532.419 156.605L532.406 156.578Z" fill="#C7D3D6"/>
<path d="M636.42 222.857C627 216.319 608.902 208.726 608.902 208.726C608.902 208.726 619.833 174.979 619.293 152.525C618.754 130.072 614.84 88.2864 591.856 78.5999C568.872 68.9134 545.281 80.9506 537.035 91.5288C520.124 113.185 526.306 163.104 526.306 163.104C526.306 163.104 539.154 168.818 561.233 169.088C587.294 169.399 598.995 159.794 602.464 164.482C605.932 169.169 592.652 186.638 565.269 188.502C544.674 189.907 533.58 181.058 533.58 181.058C533.58 181.058 537.926 190.947 542.474 196.946C547.387 203.417 556.24 206.848 556.24 206.848C556.24 206.848 539.91 207.834 523.256 218.845C499.084 234.827 489.772 282.368 475.79 302.47C463.158 320.641 407.999 346.701 407.999 346.701L430.848 364.372C430.848 364.372 485.359 331.706 495.737 315.291C506.116 298.877 520.556 252.457 527.507 246.905C528.856 245.824 513.754 273.897 512.837 289.258C511.919 304.591 533.013 311.63 510.772 349.066C491.391 381.705 483.172 404.226 480.122 422.802C459.865 546.011 494.077 649.591 494.077 649.591L531.461 650.185C531.461 650.185 518.329 543.161 524.187 507.63C530.031 472.099 552.947 407.982 562.475 409.981C574.986 412.602 577.739 465.317 581.801 513.155C587.848 584.122 620.387 658.426 620.387 658.426L666.152 658.534C666.152 658.534 631.467 547.916 638.66 458.292C642.534 410.062 617.161 348.201 617.161 348.201C617.161 348.201 657.987 358.05 674.344 333.165C689.203 310.549 661.401 240.217 636.433 222.884L636.42 222.857ZM655.152 315.94C654.842 330.922 616.135 322.505 616.135 322.505C616.135 322.505 627.904 312.17 628.943 293.892C629.901 277.086 625.664 259.644 628.295 259.28C634.301 258.456 655.463 300.957 655.139 315.94H655.152Z" fill="url(#paint3_linear_114_51)"/>
<path opacity="0.3" d="M543.81 211.901C543.81 211.901 540.746 273.546 566.321 277.558C594.204 281.922 615.204 212.563 615.204 212.563L594.812 203.457C594.812 203.457 580.843 209.496 567.968 208.875C561.733 208.577 556.253 206.848 556.253 206.848L543.824 211.914L543.81 211.901Z" fill="url(#paint4_linear_114_51)"/>
<path d="M557.818 137.122C559.583 130.327 555.416 123.362 548.513 121.566C541.609 119.77 534.582 123.822 532.817 130.618C531.053 137.413 535.219 144.378 542.123 146.174C549.027 147.97 556.054 143.918 557.818 137.122Z" fill="#FAFFFF"/>
<path d="M598.085 136.198C599.85 129.403 595.684 122.438 588.78 120.641C581.876 118.845 574.849 122.898 573.085 129.693C571.32 136.488 575.486 143.453 582.39 145.249C589.294 147.046 596.321 142.993 598.085 136.198Z" fill="#FAFFFF"/>
<path d="M546.85 145.161C548.953 144.629 550.026 141.694 549.246 138.605C548.466 135.516 546.129 133.443 544.026 133.975C541.924 134.507 540.851 137.442 541.63 140.531C542.41 143.62 544.747 145.693 546.85 145.161Z" fill="#ACBCC4"/>
<path d="M586.101 144.724C588.204 144.192 589.276 141.257 588.497 138.168C587.717 135.079 585.38 133.006 583.277 133.538C581.174 134.07 580.102 137.005 580.881 140.094C581.661 143.183 583.998 145.256 586.101 144.724Z" fill="#ACBCC4"/>
<path d="M539.491 116.738C539.491 116.738 544.971 115.644 549.546 117.238C554.121 118.832 557.562 128.897 557.562 128.897C557.562 128.897 552.097 131.18 543.931 130.437C534.174 129.545 529.882 127.721 529.882 127.721C529.882 127.721 536.617 116.819 539.491 116.751V116.738Z" fill="#ACBCC4"/>
<path d="M572.381 129.099C572.381 129.099 580.668 129.802 585.175 128.721C589.697 127.64 598.941 125.384 598.941 125.384C598.941 125.384 588.995 116.562 583.988 117.17C578.981 117.778 572.381 129.099 572.381 129.099Z" fill="#ACBCC4"/>
<path d="M530.49 117.778C530.49 117.778 534.349 120.71 542.029 122.871C549.708 125.033 558.615 124.182 558.615 124.182" fill="#ACBCC4"/>
<path d="M530.49 117.778C535.119 119.305 539.734 120.494 544.404 121.453C549.195 122.304 553.824 122.574 558.615 124.168C549.546 128.451 537.076 125.046 530.49 117.765V117.778Z" fill="#8D9FA5"/>
<path opacity="0.5" d="M530.085 159.604C530.085 159.604 531.178 170.21 536.576 171.52C541.975 172.831 543.189 164.468 543.189 164.468C543.189 164.468 545.106 173.898 551.624 174.614C558.143 175.33 556.834 168.17 556.834 168.17C556.834 168.17 559.007 176.451 566.902 175.978C574.797 175.505 574.581 166.616 574.581 166.616C574.581 166.616 576.457 174.33 581.545 174.209C586.633 174.087 588.914 163.698 588.914 163.698C588.914 163.698 590.466 169.413 594.407 169.034C598.348 168.656 599.873 161.442 599.873 161.442L530.085 159.604Z" fill="#ACBCC4"/>
<path opacity="0.5" d="M539.343 185.989C539.343 185.989 541.421 178.018 544.66 177.613C547.899 177.208 551.759 189.65 551.759 189.65C551.759 189.65 553.163 180.707 558.035 180.599C562.894 180.491 565.755 191.312 565.755 191.312C565.755 191.312 566.834 182.044 571.99 180.936C577.145 179.829 583.205 188.596 583.205 188.596C583.205 188.596 581.963 177.41 587.753 174.965C593.152 172.682 597.254 179.032 597.254 179.032C597.254 179.032 579.75 192.96 568.103 194.217C556.456 195.473 539.356 185.976 539.356 185.976L539.343 185.989Z" fill="#ACBCC4"/>
<path d="M567.59 122.439C567.59 122.439 577.118 123.182 587.092 120.021C595.756 117.265 600.844 114.279 600.844 114.279" fill="#ACBCC4"/>
<path d="M567.59 122.439C573.231 120.642 578.657 120.102 584.285 118.832C589.022 117.711 596.053 115.617 600.844 114.266C592.207 121.358 578.576 126.776 567.604 122.426L567.59 122.439Z" fill="#8D9FA5"/>
<path d="M556.739 118.048C556.739 118.048 557.198 127.276 556.712 136.773C556.334 144.095 548.358 156.686 551.003 159.442C560.451 169.291 572.948 161.266 572.908 149.594" fill="#ACBCC4"/>
<path d="M556.739 118.048C558.075 124.195 558.44 130.437 558.372 136.692C558.251 140.204 557.09 143.231 556.064 146.189C554.769 149.823 553.109 153.174 552.407 156.808C552.299 157.416 552.313 158.064 552.394 158.186C552.151 157.943 552.92 158.672 553.406 159.064C561.584 165.67 571.49 159.199 572.908 149.607C575.026 160.591 562.799 170.845 552.906 163.617C551.368 162.414 549.627 161.28 548.844 159.415C548.25 157.119 548.858 155.66 549.384 153.714C550.396 150.607 551.611 147.783 552.704 144.919C553.784 142.096 554.836 139.218 555.079 136.53C555.592 130.423 555.93 124.276 556.753 118.048H556.739Z" fill="#8D9FA5"/>
<path d="M520.853 92.2177C520.853 92.2177 522.716 116.846 540.949 108.808C549.708 104.944 555.349 83.9767 555.349 83.9767C555.349 83.9767 555.511 97.7567 564.553 97.7567C575.202 97.7567 581.842 78.0865 581.842 78.0865C581.842 78.0865 582.476 95.2169 590.655 98.0269C598.833 100.837 603.503 95.6492 603.503 95.6492C603.503 95.6492 601.992 110.645 606.918 116.157C611.844 121.669 623.086 126.181 623.086 126.181C623.086 126.181 621.615 92.2312 600.642 78.8295C579.669 65.4413 564.027 67.6029 554.512 70.8182C544.998 74.0335 520.867 92.2177 520.867 92.2177H520.853Z" fill="#C7D3D6"/>
<g opacity="0.58">
<path d="M564.81 137.962C564.688 130.802 564.58 123.858 564.5 116.698C566.389 123.601 566.483 131.018 564.81 137.962Z" fill="#8D9FA5"/>
</g>
<g opacity="0.8">
<path d="M574.676 146.635C581.869 151.634 594.15 153.701 601.641 148.459C596.337 157.24 579.494 155.011 574.676 146.635Z" fill="#8D9FA5"/>
</g>
<g opacity="0.78">
<path d="M555.133 148.108C549.289 156.294 537.237 157.267 533.054 147.04C540.706 153.984 546.644 152.552 555.133 148.108Z" fill="#8D9FA5"/>
</g>
<path d="M552.636 205.308C565.08 208.078 578.319 207.618 590.331 203.39C594.15 201.742 597.781 199.31 601.398 196.905C599.967 198.553 598.361 200.053 596.688 201.471C585.661 210.955 565.323 211.698 552.65 205.308H552.636Z" fill="#8D9FA5"/>
<path opacity="0.6" d="M533.58 181.058C533.58 181.058 536.806 192.663 560.343 193.271C594.407 194.149 600.291 173.425 600.291 173.425C600.291 173.425 588.954 186.313 564.999 189.002C547.144 191.015 533.58 181.058 533.58 181.058Z" fill="#8D9FA5"/>
<path opacity="0.6" d="M526.306 163.104C526.306 163.104 538.317 169.683 561.233 169.088C587.686 168.399 597.821 162.982 597.821 162.982C597.821 162.982 578.454 164.563 561.018 164.927C543.581 165.292 526.306 163.104 526.306 163.104Z" fill="#8D9FA5"/>
<path d="M531.65 127.64C540.058 129.059 548.129 129.613 556.537 129.113L556.874 130.099C548.736 133.301 539.019 132.207 531.65 127.627V127.64Z" fill="#8D9FA5"/>
<path d="M571.814 128.586C581.329 128.397 590.722 127.019 600.021 124.884C591.789 130.14 581.127 132.085 571.612 129.667L571.814 128.586Z" fill="#8D9FA5"/>
<path d="M540.558 130.842C537.926 129.64 535.726 126.992 535.631 124.033C536.441 125.222 537.264 126.262 538.155 127.222C539.059 128.167 540.099 128.937 541.178 129.667L540.558 130.829V130.842Z" fill="#8D9FA5"/>
<path d="M545.767 131.085C543.378 129.829 541.894 127.248 541.597 124.614C543.324 126.478 544.836 128.221 546.536 130.018L545.767 131.085Z" fill="#8D9FA5"/>
<path d="M581.464 128.748C582.611 126.789 584.217 125.425 586.093 124.114C585.918 125.303 585.364 126.33 584.757 127.262C584.123 128.181 583.394 129.032 582.436 129.64L581.477 128.735L581.464 128.748Z" fill="#8D9FA5"/>
<path d="M587.794 128.154C588.374 126.843 589.346 125.938 590.277 124.911C591.195 123.898 592.126 122.912 593.044 121.777C592.936 123.25 592.369 124.641 591.667 125.911C590.952 127.167 590.088 128.383 588.752 129.072L587.807 128.154H587.794Z" fill="#8D9FA5"/>
<path d="M593.745 126.668C595.581 124.547 597.551 122.628 599.333 120.48C599.13 123.412 597.241 126.452 594.528 127.721L593.732 126.668H593.745Z" fill="#8D9FA5"/>
<path d="M537.116 130.194C534.336 129.37 531.502 127.357 530.84 124.398C531.812 125.438 532.784 126.316 533.944 127.1C535.038 127.816 536.293 128.437 537.494 128.924L537.116 130.194Z" fill="#8D9FA5"/>
</g>
<g opacity="0.94">
<g opacity="0.74">
<path d="M771.408 235.867C755.86 240.082 741.041 258.266 745.09 266.98C747.317 271.776 757.331 256.145 757.331 256.145C757.331 256.145 746.372 273.816 751.204 280.409C755.644 286.475 762.433 263.819 762.433 263.819L771.408 235.867Z" fill="#C7D3D6"/>
<path d="M761.866 271.817C761.866 271.817 759.841 264.062 755.037 263.738C744.996 263.062 749.895 293 756.211 295.189C762.527 297.377 764.565 292.865 764.565 292.865L761.866 271.817Z" fill="#ACBCC4"/>
<g opacity="0.78">
<path d="M751.582 271.965C751.514 270.02 752.715 267.683 754.969 267.399C758.343 267.493 760.705 270.29 762.5 272.735L760.449 274.492C758.708 273.127 757.007 271.047 755.091 270.101C753.809 269.993 752.823 271.101 751.582 271.979V271.965Z" fill="#8D9FA5"/>
</g>
</g>
<path d="M643.505 666.14C643.505 666.14 637.662 593.822 650.577 565.114C663.493 536.406 706.964 503.064 710.54 497.633C714.117 492.202 721.904 469.086 728.369 438.784C735.332 406.171 757.79 369.182 757.79 369.182C757.79 369.182 732.485 357.198 709.555 363.656C695.452 367.628 672.171 379.544 661.954 400.349C657.055 410.332 634.584 398.147 640.793 386.204C650.564 367.425 672.211 341.189 705.992 337.177C733.983 333.854 764.713 347.647 772.649 349.268C780.585 350.889 788.669 348.35 788.669 348.35C788.669 348.35 776.711 345.594 767.48 334.543C761.15 326.977 763.296 316.021 763.296 316.021C763.296 316.021 779.546 327.747 801.989 325.626C824.433 323.505 830.655 308.942 825.931 302.795C820.493 295.729 806.821 304.767 789.384 304.483C779.923 304.335 762.109 297.553 762.109 297.553C762.109 297.553 756.44 279.017 759.706 261.617C762.972 244.216 772.082 215.197 797.198 208.496C832.491 199.094 855.11 222.614 859.955 261.576C865.259 304.267 836.485 352.943 836.485 352.943C836.485 352.943 854.921 357.685 873.6 368.83C900.767 385.042 922.55 425.382 913.102 455.144C903.655 484.906 878.013 490.81 866.555 491.121C855.096 491.432 837.417 475.693 853.45 469.965C869.483 464.25 887.757 457.063 888.27 442.121C888.972 421.721 867.675 392.108 857.296 395.755C842.896 400.808 834.151 498.132 834.029 535.527C833.746 624.368 877.432 674.408 875.948 674.381C874.463 674.354 822.112 676.988 822.112 676.988C822.112 676.988 796.335 640.62 791.314 613.114C786.28 585.608 792.083 548.186 781.745 541.04C771.407 533.893 748.748 524.855 731.662 537.459C709.002 554.171 694.912 571.153 687.529 595.957C680.147 620.761 692.442 668.72 692.442 668.72L643.492 666.127L643.505 666.14Z" fill="url(#paint5_linear_114_51)"/>
<path opacity="0.5" d="M764.943 297.026C764.943 297.026 764.47 305.429 768.749 306.402C773.027 307.374 776.765 300.525 776.765 300.525C776.765 300.525 778.614 308.969 783.878 309.658C789.155 310.347 789.263 303.132 789.263 303.132C789.263 303.132 794.067 312.535 801.018 311.738C807.968 310.954 807.482 299.822 807.482 299.822C807.482 299.822 811.95 309.509 816.579 308.996C821.208 308.482 821.073 296.742 821.073 296.742L764.916 297.026H764.943Z" fill="#ACBCC4"/>
<path d="M641.292 384.893C641.292 384.893 621.088 394.04 619.307 404.658C618.254 410.913 624.233 411.521 624.233 411.521C624.233 411.521 624.152 417.249 627.621 419.573C631.102 421.897 633.14 419.803 633.14 419.803C633.14 419.803 632.843 425.774 636.987 426.463C647.797 428.287 651.158 414.561 651.158 414.561C651.158 414.561 652.102 423.315 654.883 428.3C657.663 433.285 664.249 437.514 667.906 434.393C671.564 431.273 663.007 426.044 662.035 419.695C661.064 413.345 664.505 415.196 664.1 408.198C663.507 397.944 667.191 391.432 667.191 391.432L641.292 384.866V384.893Z" fill="#ACBCC4"/>
<path d="M858.997 468.654C845.042 472.248 840.224 469.789 823.88 471.207C803.704 472.964 793.851 480.799 796.213 485.352C798.575 489.905 815.067 481.84 820.978 481.232C826.89 480.624 832.437 481.421 832.437 481.421C832.437 481.421 825.378 485.825 825.594 493.472C825.959 506.103 833.665 504.725 833.665 504.725C833.665 504.725 835.001 513.088 842.64 513.223C850.278 513.358 850.022 508.13 850.022 508.13C850.022 508.13 852.046 511.993 857.971 510.345C863.896 508.711 866.055 502.104 863.72 501.132C859.199 499.24 857.08 503.807 855.016 502.374C852.951 500.942 853.315 498.092 853.315 498.092C853.315 498.092 860.589 498.902 864.125 495.836C867.648 492.769 869.875 484.461 869.875 484.461L859.024 468.641" fill="url(#paint6_linear_114_51)"/>
<path d="M773.688 286.042C780.441 286.042 785.916 280.562 785.916 273.803C785.916 267.043 780.441 261.563 773.688 261.563C766.935 261.563 761.461 267.043 761.461 273.803C761.461 280.562 766.935 286.042 773.688 286.042Z" fill="#FAFFFF"/>
<path d="M828.829 276.443C828.946 269.333 823.198 263.474 815.991 263.355C808.785 263.237 802.848 268.905 802.731 276.014C802.615 283.124 808.363 288.983 815.569 289.102C822.776 289.22 828.713 283.552 828.829 276.443Z" fill="#FAFFFF"/>
<path d="M787.427 258.185C787.427 258.185 770.098 296.175 779.276 304.186C790.072 313.629 798.481 292.946 798.481 292.946" fill="#ACBCC4"/>
<path d="M787.427 258.185C784.944 266.696 771.556 300.282 782.65 304.227C789.128 307.185 794.715 297.337 798.467 292.946C797.279 300.741 790.153 311.589 781.057 307.604C772.109 303.484 774.889 291.906 776.752 284.367C779.222 275.235 782.852 266.453 787.414 258.185H787.427Z" fill="#8D9FA5"/>
<path d="M762.149 256.767C762.149 256.767 772.838 266.156 790.208 268.736C807.577 271.317 839.347 262.373 839.347 262.373" fill="#ACBCC4"/>
<path d="M762.595 256.267C770.962 261.495 780.288 264.954 789.978 266.399C799.695 267.696 809.574 266.224 819.345 264.967C825.945 264.021 832.545 262.887 839.171 261.752L839.536 263.049C833.179 265.44 826.66 267.25 820.02 268.723C802.475 272.668 785.74 273.519 769.855 263.643C766.913 261.819 764.12 259.82 761.69 257.294L762.581 256.28L762.595 256.267Z" fill="#8D9FA5"/>
<path d="M769.747 282.583C771.74 282.212 772.944 279.694 772.436 276.957C771.928 274.221 769.9 272.304 767.907 272.675C765.914 273.046 764.71 275.564 765.218 278.3C765.726 281.037 767.754 282.954 769.747 282.583Z" fill="#ACBCC4"/>
<path d="M813.131 286.309C815.212 285.598 816.108 282.698 815.131 279.831C814.154 276.964 811.675 275.215 809.594 275.926C807.513 276.636 806.618 279.536 807.594 282.404C808.571 285.271 811.05 287.019 813.131 286.309Z" fill="#ACBCC4"/>
<path opacity="0.5" d="M768.128 322.627C768.128 322.627 770.368 314.251 773.364 314.291C776.361 314.332 780.652 327.342 780.652 327.342C780.652 327.342 783.23 316.264 787.441 316.331C791.652 316.399 795.633 329.395 795.633 329.395C795.633 329.395 797.644 316.507 803.65 316.304C809.655 316.102 813.677 327.288 813.677 327.288C813.677 327.288 812.638 317.047 815.054 316.183C817.469 315.318 823.084 320.519 823.084 320.519C823.084 320.519 798.899 330.341 790.207 329.301C781.516 328.261 768.101 322.627 768.101 322.627H768.128Z" fill="#ACBCC4"/>
<path d="M803.258 289.285C808.009 291.122 812.921 292.757 817.942 292.406C822.814 291.825 827.915 290.311 832.248 287.664C829.049 292.149 823.57 294.418 818.144 295.094C812.597 295.432 807.131 293.108 803.258 289.285Z" fill="#8D9FA5"/>
<path d="M777.643 289.15C774.242 294.459 766.279 292.446 763.148 287.866C768.249 288.825 772.42 290.757 777.643 289.15Z" fill="#8D9FA5"/>
<path d="M768.573 252.998C777.427 255.254 786.388 257.402 795.484 257.537C803.407 257.645 814.932 256.645 822.976 256.132C814.068 258.861 804.77 260.198 795.471 260.239C786.064 259.982 776.86 257.334 768.587 252.998H768.573Z" fill="#8D9FA5"/>
<g opacity="0.69">
<path d="M772.568 247.107C780.477 247.621 788.642 249.215 796.47 250.093C804.365 250.606 812.489 249.958 820.479 250.093C812.516 251.998 804.5 253.16 796.24 252.754C788.048 251.836 780.274 249.863 772.555 247.094L772.568 247.107Z" fill="#8D9FA5"/>
</g>
<g opacity="0.88">
<path d="M782.866 346.485C787.927 348.417 793.406 348.309 798.737 348.417C807.617 348.282 816.687 346.89 824.352 342.054C816.039 351.632 792.839 354.483 782.866 346.485Z" fill="#8D9FA5"/>
</g>
<path d="M841.911 249.404C841.911 249.404 841.438 292.297 846.945 295.134C852.451 297.971 853.221 273.451 853.221 273.451C853.221 273.451 859.388 289.528 863.167 291.298C866.946 293.067 862.398 267.385 862.398 267.385C862.398 267.385 864.881 278.693 871.103 279.112C879.052 279.639 864.922 258.415 864.922 258.415C864.922 258.415 874.787 274.221 878.958 272.884C883.128 271.546 877.23 261.522 871.143 251.511C864.463 240.528 852.019 237.137 852.019 237.137C852.019 237.137 843.301 248.728 841.911 249.404Z" fill="#C7D3D6"/>
<path d="M856.136 285.016C856.136 285.016 864.881 273.559 871.845 278.761C878.809 283.962 870.172 314.372 860.117 311.927C854.111 310.468 852.586 305.037 852.586 305.037L856.149 285.016H856.136Z" fill="#ACBCC4"/>
<path d="M802.057 286.529C802.057 286.529 810.573 287.731 818.023 286.704C825.473 285.678 831.532 284.651 831.532 284.651C831.532 284.651 823.178 289.974 818.522 290.568C811.558 291.46 802.044 286.529 802.044 286.529H802.057Z" fill="#ACBCC4"/>
<g opacity="0.6">
<path d="M778.641 240.082C788.547 243.298 803.636 242.649 814.028 243.217C802.313 244.378 789.56 245.297 778.641 240.082Z" fill="#8D9FA5"/>
</g>
<g opacity="0.66">
<path d="M818.347 294.81C831.465 294.121 837.93 304.578 832.45 316.277C832.504 313.71 832.477 311.225 832.207 308.833C831.762 300.687 825.311 297.229 818.333 294.81H818.347Z" fill="#8D9FA5"/>
</g>
<g opacity="0.69">
<path d="M871.535 288.596C870.239 286.853 869.119 285.11 867.135 285.353C863.936 286.218 861.48 289.366 858.943 291.473L859.024 289.893C861.008 292.878 862.587 297.512 859.55 300.376C858.659 301.268 857.31 301.849 856.136 301.511C857.674 300.781 858.349 299.471 858.808 298.039C859.24 295.756 857.769 293.365 856.756 291.352L856.203 290.771L856.824 289.771C859.226 286.299 862.492 282.651 867.067 282.408C870.199 282.449 871.994 285.826 871.521 288.582L871.535 288.596Z" fill="#8D9FA5"/>
</g>
</g>
<path d="M551.368 407.901C574.203 414.223 598.941 417.209 622.168 411.724C629.01 410.076 636.771 407.117 641.94 402.591C642.358 402.213 643.1 401.524 643.357 401.092C643.775 400.686 643.951 400.078 644.288 399.579C644.409 399.268 644.652 398.498 644.787 398.201C644.841 397.876 645.044 396.971 645.111 396.647L645.206 395.499C646.15 375.531 620.157 340.149 602.882 331.138L611.736 315.885C619.536 321.316 625.475 328.423 631.143 335.745C643.208 351.673 667.15 389.068 652.858 408.319C636.474 427.517 596.728 429.26 573.434 427.76C564.796 427.368 556.294 426.206 547.724 425.18L551.341 407.914L551.368 407.901Z" fill="black"/>
<path d="M376.175 465.452C358.442 488.635 337.28 517.6 305.78 521.167C301.259 521.761 296.157 521.167 292.163 519.046C278.383 511.683 270.002 495.498 263.294 482.326C258.301 471.829 253.685 461.48 250.676 450.159L266.803 447.606C267.87 457.617 271.352 467.668 274.982 477.084C279.247 487.298 289.747 510.156 302.312 510.116C316.415 509.602 328.669 500.929 338.265 490.81C347.739 480.84 355.621 469.019 362.423 456.63L376.162 465.452H376.175Z" fill="black"/>
<path d="M362.423 490.135C346.822 548.105 333.231 565.235 339.898 623.3C345.836 675.097 388.335 724.637 410.388 717.855C439.35 708.952 442.994 630.758 470.972 637.202C514.631 647.253 552.569 720.652 589.386 718.923C611.155 717.896 624.314 637.756 622.546 590.796C620.494 536.284 606.121 501.956 572.583 450.416C538.924 398.687 473.536 352.754 409.011 339.69C344.487 326.626 283.485 338.96 273.538 353.091C264.172 366.398 311.961 381.205 350.169 422.815C364.785 438.73 369.495 463.804 362.409 490.135H362.423Z" fill="white"/>
<path d="M364.893 490.797C358.712 517.478 348.536 543.687 344.109 570.545C342.084 583.906 342.125 597.429 343.151 610.912C344.109 624.314 346.201 637.607 350.857 650.253C357.834 668.977 367.686 687.202 381.466 701.846C389.685 710.06 402.925 721.3 414.383 713.168C419.511 709.614 423.182 703.859 426.232 697.969C435.706 679.704 438.676 657.115 451.659 640.147C457.854 632.528 466.019 629.637 475.479 633.001C489.745 637.378 501.257 646.362 512.027 656.143C522.405 665.681 531.798 675.894 541.381 685.716C553.648 697.807 568.211 713.775 585.918 716.005C594.015 717.626 598.712 709.236 601.856 702.738C607.39 690.498 610.251 676.961 612.505 663.695C617.93 630.15 619.968 595.808 615.137 562.061C609.792 521.288 590.088 484.447 568.076 450.267C537.831 404.915 492.106 369.641 440.943 350.822C408.782 339.014 374.03 334.934 339.898 336.474C324.755 337.055 281.528 341.986 274.442 355.658C273.754 357.725 275.67 360.508 277.951 362.751C282.729 367.412 288.586 371.195 294.119 375.045C299.815 378.909 305.578 382.745 311.246 386.758C322.583 394.742 333.568 403.361 343.596 413.061C348.616 418.019 353.758 422.937 357.591 428.935C369.387 447.092 370.264 470.424 364.866 490.824L364.893 490.797ZM359.967 489.473C365.271 470.248 364.758 448.457 353.934 431.286C350.371 425.571 345.404 420.843 340.667 416.101C325.984 401.686 308.992 389.798 291.92 378.301C286.143 374.288 280.299 370.519 275.184 365.534C273.214 363.535 271.109 361.062 270.528 358.05C269.152 349.201 281.878 344.31 288.343 341.662C304.808 335.731 322.394 333.529 339.709 332.543C374.38 330.976 409.605 335.15 442.266 347.215C487.761 364.521 529.464 392.378 561.341 429.503C570.424 440.108 578.157 451.875 585.594 463.655C600.588 487.23 613.787 512.507 620.575 539.891C630.805 580.92 628.848 624.071 620.238 665.194C618.726 672.03 616.972 678.826 614.894 685.54C611.628 695.659 608.011 706.034 601.33 714.64C595.527 722.165 588.765 722.922 579.885 720.787C562.448 715.951 549.181 702.779 536.131 691.106C517.061 673.881 497.141 651.09 472.51 643.025C467.152 641.093 463.495 642.228 459.541 646.848C455.519 651.549 452.469 657.602 449.648 663.316C442.144 678.461 436.098 695.821 425.288 709.709C417.392 719.652 407.216 724.029 395.097 718.315C370.494 706.386 351.599 678.434 342.53 653.252C335.093 633.244 333.487 611.615 334 590.404C334.877 555.279 350.735 522.653 359.967 489.473Z" fill="black"/>
<path d="M365.608 473.423C365.608 473.423 387.445 495.147 445.694 490.905C514.874 485.866 556.996 434.947 556.996 434.947C556.996 434.947 520.61 386.731 469.028 360.846C410.752 331.598 362.639 331.679 324.742 336.164C277.425 341.77 273.417 351.795 273.241 358.671C273.066 365.548 292.999 375.18 305.119 385.164C317.238 395.148 353.057 417.709 363.206 440.324C371.317 458.4 365.622 473.423 365.622 473.423H365.608Z" fill="black"/>
<path d="M380.44 493.89C380.643 514.817 407.648 540.567 449.527 534.555C489.11 528.881 513.565 500.402 506.196 478.098C497.869 452.888 466.14 439.838 430.956 446.106C395.772 452.388 380.292 478.935 380.44 493.89Z" fill="#E51727"/>
<path d="M381.844 493.877C382.073 500.659 385.123 507.171 389.361 512.52C402.574 528.948 425.193 534.487 445.464 532.191C465.654 529.894 486.681 521.356 498.787 504.415C502.62 498.889 505.319 492.445 505.252 485.825C505.252 479.057 502.215 472.667 498.342 467.249C485.547 450.132 462.402 444.485 441.874 445.715C427.798 446.458 413.533 450.267 402.182 458.9C391.318 467.182 382.087 479.84 381.817 493.89L381.844 493.877ZM379.037 493.904C379.212 486.379 382.249 479.408 386.23 473.234C402.668 448.457 435.288 440.311 463.373 444.688C477.72 446.998 492.066 453.253 501.311 464.98C511.838 478.138 512.378 493.31 503.011 507.265C482.173 537.189 434.654 547.227 403.181 529.232C390.576 521.869 379.293 509.251 379.037 493.89V493.904Z" fill="black"/>
<path opacity="0.97" d="M400.711 489.067C409.875 509.278 471.107 490.27 458.097 470.397C445.086 450.524 391.291 468.276 400.711 489.067Z" fill="white"/>
<path opacity="0.1" d="M345.243 639.823C345.243 639.823 373.463 685 399.024 677.069C416.637 671.598 436.692 619.774 458.407 619.41C493.659 618.829 521.838 667.518 560.221 665.113C597.767 662.763 597.7 586.081 592.504 539.716C588.603 504.982 548.682 435.325 548.682 435.325L556.807 427.841C556.807 427.841 608.24 478.894 619.82 557.643C629.928 626.421 612.991 715.748 588.05 719.044C548.52 724.286 508.545 631.879 464.17 634.946C445.829 636.216 432.832 718.815 411.144 717.923C362.72 715.923 345.27 639.809 345.27 639.809L345.243 639.823Z" fill="black"/>
<path opacity="0.1" d="M386.81 515.303C386.81 515.303 413.276 523.882 441.82 517.384C490.217 506.346 493.74 458.008 493.74 458.008C493.74 458.008 507.978 467.181 515.414 484.677C522.851 502.172 507.276 543.079 458.893 549.713C401.724 557.562 386.81 515.303 386.81 515.303Z" fill="black"/>
<g opacity="0.66">
<path d="M470.175 378.368C470.175 378.368 499.57 388.487 494.603 399.741C490.217 409.684 470.175 378.368 470.175 378.368Z" fill="#B5F1F7"/>
<path d="M528.694 446.295C528.694 446.295 551.381 464.196 542.838 473.734C536.576 480.718 528.694 446.295 528.694 446.295Z" fill="#9FE2ED"/>
<path d="M601.762 462.25C601.762 462.25 629.699 469.789 627.863 483.177C626.554 492.756 601.762 462.25 601.762 462.25Z" fill="#9FE2ED"/>
<path d="M530.233 376.558C530.233 376.558 551.192 370.114 555.835 378.814C561.314 389.109 530.233 376.558 530.233 376.558Z" fill="#9FE2ED"/>
<path d="M473.509 407.104C473.509 407.104 490.541 415.574 488.274 423.829C485.588 433.583 473.509 407.104 473.509 407.104Z" fill="#9FE2ED"/>
<path d="M335.431 437.879C335.431 437.879 314.849 452.686 324.067 460.616C329.857 465.587 335.431 437.879 335.431 437.879Z" fill="#9FE2ED"/>
<path d="M372.828 521.653C372.828 521.653 359.494 542.242 369.198 545.606C376.688 548.2 372.828 521.653 372.828 521.653Z" fill="#9FE2ED"/>
<path d="M384.624 423.221C384.624 423.221 399.402 441.31 389.55 449.524C383.139 454.874 384.624 423.221 384.624 423.221Z" fill="#A2EAF2"/>
<path d="M535.726 535.568C535.726 535.568 536.832 568.397 544.485 561.331C551.597 554.752 535.726 535.568 535.726 535.568Z" fill="#9FE2ED"/>
<path d="M329.115 536.23C329.115 536.23 313.635 551.726 319.587 555.887C325.538 560.048 329.115 536.23 329.115 536.23Z" fill="#9FE2ED"/>
<path d="M416.906 518.965C416.906 518.965 403.262 546.335 415.219 549.591C427.177 552.847 416.906 518.965 416.906 518.965Z" fill="#9FE2ED"/>
</g>
<path d="M469.784 378.058C470.081 377.733 470.54 377.963 470.877 378.058C479.177 381.016 487.761 384.38 493.807 391.108C494.792 392.337 495.67 393.783 496.061 395.458C496.979 399.025 494.657 404.132 490.325 402.497C488.665 401.902 487.396 400.957 486.182 399.984C481.539 395.999 477.963 391.162 474.521 386.204C472.956 383.961 471.417 381.476 470.041 379.098C469.865 378.787 469.568 378.368 469.784 378.031V378.058ZM470.567 378.679C470.742 378.585 470.715 378.274 470.675 378.206C470.81 378.395 471.107 378.787 471.255 378.99C476.303 385.623 481.377 392.743 487.639 398.228C489.245 399.43 492.107 401.97 493.456 399.511C494.01 398.444 494.212 397.16 493.942 395.945C491.594 388.541 480.702 383.813 474.089 380.57C472.983 380.098 471.255 379.328 470.148 378.895C470.162 378.895 470.014 378.855 470.202 378.895C470.351 378.909 470.54 378.787 470.58 378.679H470.567Z" fill="#406D77"/>
<path d="M528.694 446.295C535.591 451.51 546.536 460.616 545.672 470.181C545.173 472.639 543.864 475.612 540.935 475.774C533.755 474.706 529.396 452.672 528.694 446.295ZM528.694 446.295C530.638 451.618 532.406 456.955 534.39 462.169C535.915 465.858 537.237 469.978 539.896 472.896C540.76 473.612 541.151 473.828 541.988 473.004C548.574 465.331 534.106 451.578 528.694 446.295Z" fill="#558F99"/>
<path d="M601.762 462.25C611.52 464.669 630.428 470.991 628.849 483.758C628.714 484.839 627.647 486.122 626.446 486.136C619.212 485.893 605.581 468.411 601.762 462.25ZM601.762 462.25C606.175 466.425 610.346 470.775 614.597 474.99C616.729 477.098 618.875 479.178 621.142 481.043C622.654 482.191 624.435 483.758 626.244 483.92C626.622 483.88 626.608 483.677 626.743 483.285C628.241 472.41 610.089 465.385 601.749 462.25H601.762Z" fill="#558F99"/>
<path d="M530.233 376.558C537.467 374.126 548.763 370.952 555.322 376.423C556.807 377.896 558.534 380.652 556.969 382.664C552.38 387.082 535.199 379.341 530.233 376.558ZM530.233 376.558C534.943 377.72 539.545 379.057 544.161 380.206C547.467 380.922 550.99 382.003 554.296 381.624C554.796 381.557 555.12 381.368 555.241 381.232C555.39 381.097 555.376 380.733 555.309 380.489C552.69 372.248 536.832 375.383 530.233 376.558Z" fill="#558F99"/>
<path d="M473.509 407.104C479.852 409.954 492.565 416.939 488.598 425.572C488.247 426.247 487.491 426.882 486.681 426.95C481.107 426.95 474.98 411.873 473.509 407.104ZM473.509 407.104C476.937 412.319 479.812 417.858 483.631 422.708C484.427 423.599 485.372 424.842 486.452 424.977C486.627 424.977 486.816 424.761 486.924 424.558C490.15 417.763 478.381 410.36 473.509 407.104Z" fill="#406D77"/>
<path d="M335.431 437.879C330.95 442.08 318.25 453.294 324.486 459.454C325.201 460.116 325.376 460.278 326.159 459.805C328.48 457.684 329.601 454.172 330.829 451.2C332.489 446.849 333.879 442.364 335.431 437.892V437.879ZM335.431 437.879C334.999 443.053 331.882 462.994 324.945 462.305C322.677 461.548 321.49 459.697 320.842 457.549C319.384 449.362 329.479 441.824 335.431 437.879Z" fill="#558F99"/>
<g opacity="0.69">
<path d="M372.828 521.653C370.453 526.409 362.099 541.742 369.36 544.66C370.251 544.998 370.75 544.863 371.276 544.201C372.855 541.607 372.748 538.081 372.923 535.014C373.031 530.597 372.869 526.138 372.842 521.64L372.828 521.653ZM372.828 521.653C374.219 526.692 377.269 544.552 370.872 546.646C368.82 547.011 366.755 545.66 365.73 543.904C362.558 537.162 369.131 527.138 372.828 521.653Z" fill="#558F99"/>
</g>
<path d="M384.624 423.221C390.927 429.786 398.997 442.756 390.198 450.443C389.496 450.997 388.47 451.47 387.472 451.118C382.046 448.93 384.044 428.462 384.624 423.221ZM384.624 423.221C385.029 430.529 385.11 437.919 386.473 445.08C386.81 446.404 387.175 448.295 388.146 448.997C396.581 443.553 388.457 429.746 384.624 423.234V423.221Z" fill="#406D77"/>
<g opacity="0.72">
<path d="M535.726 535.568C536.698 540.526 537.359 545.471 538.236 550.334C538.951 553.766 539.41 557.603 541.354 560.467C541.975 561.21 542.325 561.412 543.189 560.98C549.87 556.076 539.113 540.729 535.726 535.568ZM535.726 535.568C540.733 541.323 548.817 551.158 546.941 559.264C546.239 561.426 544.309 563.79 541.691 563.331C535.24 560.885 534.997 541.58 535.726 535.568Z" fill="#558F99"/>
</g>
<path d="M329.115 536.23C326.631 539.351 324.229 542.512 322.178 545.849C320.842 548.2 319.222 550.78 319.371 553.442C319.479 554.576 320.707 555.738 321.746 554.793C323.622 552.955 324.432 550.037 325.363 547.511C326.618 543.823 327.725 540.026 329.101 536.23H329.115ZM329.115 536.23C329.574 540.905 326.766 560.953 319.168 557.008C312.245 551.875 324.998 539.783 329.115 536.23Z" fill="#558F99"/>
<path d="M416.907 518.965C414.329 525.895 408.337 540.472 412.871 546.93C414.099 548.429 417.352 549.605 418.621 547.7C420.537 544.309 419.768 539.77 419.498 535.892C418.877 530.272 417.838 524.652 416.907 518.951V518.965ZM416.907 518.965C419.592 524.747 427.73 551.267 416.137 550.888C402.574 548.173 412.844 526.395 416.907 518.965Z" fill="#558F99"/>
<g opacity="0.48">
<path d="M288.64 383.894C292.608 389.46 297.48 394.729 304.201 395.836C309.168 396.944 315.092 398.809 318.223 403.456C320.275 406.266 320.599 409.657 322.934 412.062C326.82 414.156 331.571 414.777 335.485 417.006C336.092 417.452 336.578 418.182 336.983 418.803C338.913 421.708 339.358 425.355 341.545 427.909C343.772 430.408 346.417 432.61 349.561 434.056C346.174 433.259 343.11 431.3 340.505 428.935C337.874 426.45 337.172 422.761 335.161 420.046C334.851 419.627 334.554 419.235 334.162 418.911C330.114 416.858 325.552 416.398 321.49 414.169C318.615 411.94 317.9 407.779 316.01 404.996C312.177 399.146 304.538 398.957 298.681 395.863C294.12 393.107 290.921 388.582 288.64 383.921V383.894Z" fill="black"/>
</g>
<g opacity="0.48">
<path d="M617.687 509.238C619.685 515.398 620.71 522.126 624.354 527.543C625.569 529.273 627.027 531.11 628.052 533.177C630.05 537.324 631.453 541.702 631.723 546.295C632.007 550.902 631.21 555.252 631.885 559.332C632.978 563.425 635.516 567.37 636.636 571.558C637.877 580.596 631.777 588.81 633.559 597.821C634.031 602.171 634.908 606.481 635.988 610.764C634.449 606.63 633.316 602.347 632.479 597.983C632.182 596.416 631.939 594.619 631.804 593.012C631.737 586.122 635.057 579.65 634.382 572.76C634.274 571.558 633.707 570.45 633.208 569.221C631.885 566.087 630.171 563.169 629.307 559.805C628.228 552.847 630.077 546.741 628.039 540.243C627.013 535.933 625.259 532.312 622.762 528.597C619.455 522.693 618.875 515.776 617.687 509.265V509.238Z" fill="black"/>
</g>
<g opacity="0.48">
<path d="M327.09 566.897C328.804 571.937 329.304 577.395 329.088 582.717C328.912 587.973 325.309 592.539 326.443 597.848C326.996 601.915 329.398 606.481 329.142 611.034C328.872 614.465 327.414 617.829 327.59 621.18C328.359 627.246 332.327 632.568 332.597 638.81C332.921 642.377 332.826 645.97 332.219 649.456C332.178 644.214 331.652 638.959 329.87 634.055C328.305 629.934 325.646 626.07 325.079 621.545C324.567 617.438 326.604 613.695 326.456 609.71C325.97 604.279 322.542 598.362 324.175 592.512C324.985 589.013 326.982 586.054 327.36 582.569C327.981 577.368 327.981 572.112 327.117 566.897H327.09Z" fill="black"/>
</g>
<g opacity="0.48">
<path d="M603.773 340.676C606.607 344.094 609.117 347.796 612.559 350.619C615.838 353.132 619.82 355.456 622.397 358.914C624.071 361.143 624.651 363.994 625.569 366.169C626.244 368.29 627.715 369.682 629.146 371.289C632.142 374.694 634.922 378.287 637.257 382.178C634.031 379.003 630.832 375.856 627.607 372.762L626.379 371.613C623.167 369.114 622.424 364.237 620.629 361.143C618.241 357.455 614.354 355.28 611.115 352.254C607.741 348.985 605.662 344.864 603.759 340.676H603.773Z" fill="black"/>
</g>
<g opacity="0.48">
<path d="M632.749 325.032C632.749 324.951 632.749 324.856 632.843 324.789C632.938 324.735 633.046 324.789 633.113 324.829C635.907 327.504 637.648 331.179 639.996 334.218C641.548 336.461 644.018 337.285 646.123 339.068C649.632 341.784 651.144 346.553 651.4 350.646C651.63 353.2 651.63 355.604 653.276 357.604C654.72 359.576 657.082 361.224 658.486 363.967C659.606 366.574 659.755 369.438 660.011 372.208C660.2 374.923 660.213 377.639 660.065 380.341C659.754 377.652 659.377 374.977 658.904 372.343C658.378 369.911 658 366.98 656.799 364.886C655.544 362.859 653.209 361.427 651.306 359.171C649.214 356.996 648.931 353.659 648.688 350.903C648.418 346.972 647.46 343.419 644.571 340.825C642.655 339.068 639.861 337.65 638.525 335.164C637.297 333.07 635.88 330.098 634.787 327.923C634.233 326.896 633.802 325.775 633.046 324.883C632.992 324.829 632.911 324.775 632.857 324.802C632.789 324.829 632.762 324.924 632.749 325.005V325.032Z" fill="black"/>
</g>
<g opacity="0.48">
<path d="M249.475 474.923C253.712 478.125 258.422 482.596 258.476 488.311C258.665 490.945 258.895 493.175 260.528 495.282C262.66 498.673 266.885 500.767 268.518 504.496C269.786 507.184 270.407 510.143 271.919 512.602C276.237 516.965 281.649 520.127 287.587 522.18C281.19 521.505 274.685 518.64 269.989 514.047C268.18 511.453 267.438 508.346 266.129 505.604C265.589 504.334 264.887 503.712 263.983 502.834C262.134 501.078 259.907 499.159 258.396 496.714C255.669 493.161 256.857 488.622 255.98 484.717C254.617 481.097 252.066 477.881 249.488 474.936L249.475 474.923Z" fill="black"/>
</g>
<g opacity="0.48">
<path d="M273.619 457.563C276.872 459.873 279.746 462.886 281.474 466.763C283.215 470.762 282.837 474.99 283.714 478.516C284.092 480.408 284.888 481.651 286.184 483.069C287.749 484.893 289.841 486.636 291.096 488.919C292.581 492.134 293.58 495.66 293.539 499.2C292.797 496.309 291.65 493.634 290.219 491.067C288.87 488.446 286.427 487.014 284.335 484.812C279.341 480.597 281.15 472.653 279.544 467.492C278.383 463.953 276.116 460.643 273.619 457.563Z" fill="black"/>
</g>
<g opacity="0.35">
<path d="M312.852 415.291C316.132 421.41 322.488 421.181 328.089 423.64C331.558 425.409 334.081 429.192 334.513 433.015C333.231 430.867 331.571 429.165 329.803 427.638C328.116 426.193 326.065 425.571 323.703 424.95C318.979 423.937 313.135 420.803 312.839 415.304L312.852 415.291Z" fill="black"/>
</g>
<g opacity="0.35">
<path d="M288.127 473.653C286.994 468.668 286.643 463.196 283.512 459.143C283.269 458.887 281.703 457.347 281.42 457.063C277.789 453.388 273.606 449.092 276.588 443.648C277.317 442.162 278.181 440.77 279.233 439.541C278.694 441.067 278.181 442.567 277.843 444.08C276.912 447.268 277.87 449.525 280.097 451.794C281.703 453.591 283.768 455.509 285.428 457.32C288.978 461.886 288.816 468.249 288.127 473.653Z" fill="black"/>
</g>
<g opacity="0.35">
<path d="M598.995 348.904C601.317 352.929 603.449 356.672 607.376 359.13C609.711 360.711 612.883 362.684 614.921 364.656C618.416 367.979 619.482 373.046 621.021 377.463C618.052 373.964 616.662 369.519 613.193 366.561C609.725 363.535 605.163 361.603 602.396 357.712C600.547 355.01 599.468 351.997 598.982 348.904H598.995Z" fill="black"/>
</g>
<g opacity="0.35">
<path d="M626.73 512.548C628.403 516.249 629.901 519.951 632.493 522.829C636.055 526.517 639.403 530.718 640.455 535.906C641.548 541.526 639.079 546.795 639.362 552.32C638.525 550.672 638.539 548.713 638.458 546.903L638.444 541.513C638.903 534.163 634.072 528.597 629.942 523.099C627.998 519.775 627.108 516.182 626.73 512.548Z" fill="black"/>
</g>
<g opacity="0.35">
<path d="M319.128 582.825C318.385 588.027 316.631 593.133 318.007 598.24C318.939 601.753 320.639 604.9 321.071 608.697C321.341 612.169 318.696 616.181 317.427 619.275C316.725 620.882 316.051 622.504 315.956 624.327C315.065 620.747 316.712 617.032 317.684 613.668C319.128 609.98 318.439 607.616 317.103 604.117C316.253 601.55 315.2 598.808 315.16 595.957C315.281 591.296 317.076 586.865 319.141 582.825H319.128Z" fill="black"/>
</g>
<g opacity="0.35">
<path d="M485.939 658.048C488.517 658.656 491.067 659.656 493.294 661.304C496.682 663.695 498.288 667.478 501.203 670.126C503.025 671.99 505.049 672.544 507.681 672.922C510.407 673.395 513.147 674.489 515.455 676.029C519.112 678.231 521.15 682.609 522.351 686.351C523.201 688.823 524.227 690.917 526.292 692.592C528.208 694.295 530.476 695.646 532.892 696.74C530.273 696.226 527.763 695.159 525.469 693.646C519.665 690.161 519.895 681.568 514.011 678.272C511.878 676.935 509.638 676.029 507.155 675.53C505.306 675.192 502.701 674.705 501.135 673.26C497.262 670.463 495.791 665.424 492.444 662.317C490.622 660.534 488.328 659.21 485.939 658.048Z" fill="black"/>
</g>
<g opacity="0.32">
<path d="M208.635 409.441C211.173 411.427 213.427 413.845 216.112 415.345C218.893 416.723 222.118 417.614 225.074 418.979C217.745 420.586 210.525 416.939 208.635 409.454V409.441Z" fill="black"/>
</g>
<g opacity="0.32">
<path d="M533.904 288.204C537.521 293.23 540.328 298.917 544.512 303.403C549.114 307.604 554.175 311.387 558.548 315.913C552.744 313.062 547.521 309.658 542.622 305.362C538.115 300.376 535.712 294.473 533.89 288.204H533.904Z" fill="black"/>
</g>
<g opacity="0.32">
<path d="M609.158 264.4C610.723 271.249 610.656 278.815 607.43 285.178C606.958 278.166 606.998 271.141 609.158 264.4Z" fill="black"/>
</g>
<g opacity="0.32">
<path d="M271.959 370.317C274.955 375.991 276.98 382.043 277.776 388.46C278.208 394.891 277.776 401.159 276.386 407.428C275.576 401.295 275.589 394.837 275.063 388.73C274.415 382.597 272.836 376.504 271.959 370.317Z" fill="black"/>
</g>
<g opacity="0.35">
<path d="M439.04 702.738C439.337 695.375 441.091 686.905 447.084 682.109C448.744 680.474 449.864 678.583 450.647 676.367C452.361 671.652 451.983 666.437 455.046 662.114C458.312 658.224 461.943 654.981 465.668 651.563C464.21 653.563 462.685 655.522 461.174 657.467C459.932 659.115 457.8 661.574 456.76 663.222C455.667 665.168 455.154 667.478 454.776 669.855C454.169 674.908 452.874 680.407 448.919 683.946C442.886 688.445 441.091 695.835 439.054 702.738H439.04Z" fill="black"/>
</g>
<path d="M584.892 462.521C584.892 462.521 575.391 441.351 576.889 435.569C578.36 429.908 593.381 427.895 593.381 427.895L576.174 413.669C576.174 413.669 553.23 409.995 527.736 395.431C512.459 386.704 555.079 424.288 558.777 428.746C567.604 439.419 584.892 462.507 584.892 462.507V462.521Z" fill="black"/>
<path d="M349.372 478.922C349.372 478.922 357.996 465.993 360.844 456.117C363.692 446.242 360.884 434.731 360.884 434.731C360.884 434.731 365.568 453.564 365.891 460.873C366.215 468.181 349.359 478.922 349.359 478.922H349.372Z" fill="black"/>
<path d="M613.881 336.907C598.253 329.922 593.583 341.851 579.413 340.217C566.51 340.581 563.973 355.361 554.121 353.551C544.269 351.741 552.258 337.38 562.502 332.908C572.745 328.436 584.635 332.638 584.716 329.828C584.878 324.356 567.077 316.318 558.318 308.685C547.71 299.431 529.288 275.897 540.395 271.857C554.242 266.818 556.847 290.703 562.313 297.31C567.779 303.916 578.238 309.144 580.6 307.955C582.962 306.766 571.409 293.716 567.131 281.368C563.676 271.411 559.101 247.08 567.212 248.877C579.143 251.539 579.156 272.087 579.763 280.585C580.371 289.069 588.873 302.092 592.369 301.133C595.864 300.174 590.884 284.867 591.06 279.409C591.235 273.951 592.18 254.213 599.616 258.118C608.618 262.833 601.506 276.288 601.101 286.38C600.817 293.486 605.23 299.201 608.915 303.051C613.22 307.564 616.77 309.063 618.875 317.142C621.007 325.302 630.63 344.405 613.868 336.92L613.881 336.907Z" fill="black"/>
<path d="M266.911 452.389C266.439 433.286 275.454 437.636 283.822 423.91C291.353 414.034 303.958 420.181 308.115 411.494C312.272 402.808 296.927 401.146 287.79 406.685C278.653 412.224 273.686 424.734 271.379 423.464C267.708 421.748 272.161 406.658 270.933 395.661C269.705 384.664 262.89 349.174 252.93 359.171C242.969 369.168 258.166 384.61 260.082 392.513C262.012 400.416 261.432 408.792 259.205 409.981C256.978 411.17 254.792 397.39 247.855 387.244C242.268 379.057 224.318 364.278 221.133 371.614C215.222 384.461 234.089 391.527 240.162 396.688C246.236 401.835 250.203 415.439 247.504 417.641C244.805 419.844 236.032 407.266 231.808 404.402C227.57 401.538 212.117 391.405 210.889 399.363C209.945 411.535 223.562 410.846 231.43 416.088C236.964 419.776 238.813 426.639 239.663 431.638C240.648 437.487 242.106 441.797 247.707 447.268C253.361 452.794 267.343 469.978 266.911 452.416V452.389Z" fill="black"/>
<g opacity="0.42">
<path d="M372.208 324.41C379.172 326.383 386.27 328.179 393.477 328.733C397.877 328.855 402.074 327.842 406.582 328.017C411.144 328.044 415.53 329.868 419.39 332.232C423.101 334.232 427.11 335.772 431.28 336.366C437.029 337.244 443.075 336.164 448.838 337.96C451.807 338.879 454.547 340.298 456.976 342.162C459.406 344.013 461.39 346.147 463.697 347.593C468.502 350.646 474.467 351.011 480.041 352.024C482.943 352.524 486.033 353.416 488.409 355.212C493.267 358.549 497.68 362.481 501.432 366.966C497.289 362.859 492.741 359.171 487.774 356.226C481.458 352.389 473.536 353.997 466.68 351.484C459.527 349.309 455.316 342.257 448.082 340.514C442.563 338.879 436.651 339.973 430.888 339.001C424.883 338.231 419.565 335.286 414.437 332.3C407.905 328.774 400.482 330.746 393.383 330.314C386.082 329.341 379.023 327.085 372.221 324.41H372.208Z" fill="black"/>
</g>
<g opacity="0.42">
<path d="M419.619 322.343C425.301 324.883 431.361 327.234 437.596 327.328C440.673 327.423 443.791 326.991 447.097 327.004C448.757 327.031 450.444 327.139 452.199 327.639C455.478 329.031 457.408 331.814 460.026 333.962C463.562 337.636 467.422 337.393 472.497 337.191C475.803 337.042 479.056 338.515 481.877 340.163C484.67 341.797 487.221 343.837 489.299 346.256C486.897 344.162 484.184 342.473 481.364 341.135C478.57 339.839 475.722 338.758 472.564 339.15C467.233 339.879 462.388 340.082 458.299 335.934C456.018 334.083 453.953 331.503 451.402 330.22C450.093 329.828 448.568 329.666 447.057 329.639C442.455 329.612 437.245 330.044 432.602 328.679C427.946 327.328 423.533 325.14 419.619 322.33V322.343Z" fill="black"/>
</g>
<rect y="21.5588" width="940" height="700.335" fill="url(#paint7_linear_114_51)"/>
<defs>
<linearGradient id="paint0_linear_114_51" x1="185.628" y1="667.003" x2="195.812" y2="185.352" gradientUnits="userSpaceOnUse">
<stop offset="0.02" stop-color="#ACBCC4" stop-opacity="0"/>
<stop offset="0.08" stop-color="#ACBCC4" stop-opacity="0.21"/>
<stop offset="0.18" stop-color="#ACBCC4" stop-opacity="0.49"/>
<stop offset="0.26" stop-color="#ACBCC4" stop-opacity="0.71"/>
<stop offset="0.34" stop-color="#ACBCC4" stop-opacity="0.87"/>
<stop offset="0.4" stop-color="#ACBCC4" stop-opacity="0.97"/>
<stop offset="0.45" stop-color="#ACBCC4"/>
</linearGradient>
<linearGradient id="paint1_linear_114_51" x1="343.862" y1="616.859" x2="335.811" y2="48.0059" gradientUnits="userSpaceOnUse">
<stop stop-color="#ACBCC4" stop-opacity="0"/>
<stop offset="0.07" stop-color="#ACBCC4" stop-opacity="0.21"/>
<stop offset="0.18" stop-color="#ACBCC4" stop-opacity="0.49"/>
<stop offset="0.28" stop-color="#ACBCC4" stop-opacity="0.71"/>
<stop offset="0.37" stop-color="#ACBCC4" stop-opacity="0.87"/>
<stop offset="0.45" stop-color="#ACBCC4" stop-opacity="0.97"/>
<stop offset="0.5" stop-color="#ACBCC4"/>
</linearGradient>
<linearGradient id="paint2_linear_114_51" x1="225.725" y1="104.836" x2="276.45" y2="107.013" gradientUnits="userSpaceOnUse">
<stop stop-color="#CCD8DE"/>
<stop offset="0.33" stop-color="#C6D2D9"/>
<stop offset="0.78" stop-color="#B5C4CB"/>
<stop offset="0.97" stop-color="#ACBCC4"/>
</linearGradient>
<linearGradient id="paint3_linear_114_51" x1="547.356" y1="660.035" x2="540.003" y2="75.5272" gradientUnits="userSpaceOnUse">
<stop stop-color="#ACBCC4" stop-opacity="0"/>
<stop offset="0.09" stop-color="#ACBCC4" stop-opacity="0.21"/>
<stop offset="0.22" stop-color="#ACBCC4" stop-opacity="0.49"/>
<stop offset="0.34" stop-color="#ACBCC4" stop-opacity="0.71"/>
<stop offset="0.45" stop-color="#ACBCC4" stop-opacity="0.87"/>
<stop offset="0.54" stop-color="#ACBCC4" stop-opacity="0.97"/>
<stop offset="0.6" stop-color="#ACBCC4"/>
</linearGradient>
<linearGradient id="paint4_linear_114_51" x1="580.212" y1="277.643" x2="579.282" y2="203.683" gradientUnits="userSpaceOnUse">
<stop stop-color="white"/>
<stop offset="0.12" stop-color="white" stop-opacity="0.98"/>
<stop offset="0.24" stop-color="white" stop-opacity="0.93"/>
<stop offset="0.37" stop-color="white" stop-opacity="0.85"/>
<stop offset="0.5" stop-color="white" stop-opacity="0.73"/>
<stop offset="0.63" stop-color="white" stop-opacity="0.58"/>
<stop offset="0.76" stop-color="white" stop-opacity="0.4"/>
<stop offset="0.9" stop-color="white" stop-opacity="0.19"/>
<stop offset="1" stop-color="white" stop-opacity="0"/>
</linearGradient>
<linearGradient id="paint5_linear_114_51" x1="773.248" y1="676.246" x2="780.973" y2="205.953" gradientUnits="userSpaceOnUse">
<stop offset="0.03" stop-color="#ACBCC4" stop-opacity="0"/>
<stop offset="0.13" stop-color="#ACBCC4" stop-opacity="0.26"/>
<stop offset="0.26" stop-color="#ACBCC4" stop-opacity="0.58"/>
<stop offset="0.37" stop-color="#ACBCC4" stop-opacity="0.81"/>
<stop offset="0.45" stop-color="#ACBCC4" stop-opacity="0.95"/>
<stop offset="0.5" stop-color="#ACBCC4"/>
</linearGradient>
<linearGradient id="paint6_linear_114_51" x1="795.737" y1="490.074" x2="869.712" y2="491.287" gradientUnits="userSpaceOnUse">
<stop stop-color="#CCD8DE"/>
<stop offset="0.33" stop-color="#C6D2D9"/>
<stop offset="0.78" stop-color="#B5C4CB"/>
<stop offset="0.97" stop-color="#ACBCC4"/>
</linearGradient>
<linearGradient id="paint7_linear_114_51" x1="470" y1="21.5588" x2="470" y2="721.894" gradientUnits="userSpaceOnUse">
<stop/>
<stop offset="1" stop-opacity="0"/>
</linearGradient>
</defs>
</svg>
