<svg width="131" height="211" viewBox="0 0 131 211" fill="none" xmlns="http://www.w3.org/2000/svg">
<path d="M8.30115 195.249C5.87018 195.806 3.43919 196.384 0.997631 196.888C0.716931 196.946 0.208483 196.681 0.0601884 196.421C-0.0722174 196.182 0.0285661 195.657 0.21923 195.418C0.579374 194.983 1.05059 194.617 1.52725 194.31C2.66065 193.583 3.81007 192.867 4.98584 192.209C11.0712 188.83 16.6427 184.698 22.1613 180.492C27.9131 176.105 32.5579 170.764 35.9952 164.383C37.1868 162.176 38.3997 159.986 39.6019 157.784C40.4811 156.177 41.9112 155.238 43.5159 154.506C44.5487 154.034 45.9733 154.533 46.4446 155.583C46.6777 156.108 46.9265 156.639 47.043 157.195C47.4138 158.919 47.3503 160.649 46.8736 162.351C45.2424 168.149 42.9226 173.612 39.3741 178.535C37.4251 181.235 35.0418 183.431 32.399 185.388C32.2719 185.483 32.1766 185.727 32.1872 185.892C32.2137 186.321 32.5051 186.534 32.9553 186.454C39.6126 185.234 46.0634 183.335 52.2547 180.587C58.4195 177.85 64.6213 175.198 70.4631 171.793C71.7924 171.018 73.1376 170.239 74.3504 169.3C80.7695 164.324 86.6908 158.835 91.6904 152.385C93.6977 149.796 95.7897 147.271 97.9241 144.789C103.379 138.445 107.606 131.358 110.857 123.667C111.843 121.333 112.457 118.915 112.791 116.421C113.384 112.019 114.289 107.691 115.423 103.394C116.355 99.8562 116.853 96.2069 117.541 92.6106C117.944 90.526 118.187 88.399 118.781 86.3674C121.058 78.5807 120.613 70.7197 119.511 62.8482C118.844 58.0743 117.891 53.3429 117.192 48.5744C116.742 45.4926 115.942 42.5328 114.771 39.6631C112.664 34.4862 110.73 29.2296 107.6 24.53C106.753 23.257 106.271 21.7452 105.508 20.4086C103.692 17.226 101.854 14.0593 99.4545 11.2587C98.5806 10.2402 97.7226 9.16882 97.0712 8.00188C96.5204 7.01528 96.1338 5.88011 95.9326 4.7609C95.4135 1.92311 98.1677 -0.569915 100.991 0.114338C101.732 0.294684 102.468 0.554558 103.167 0.872815C106.742 2.49062 109.75 4.83517 112.155 7.95409C116.185 13.1841 119.586 18.7907 121.561 25.1187C123.69 31.9241 125.544 38.8197 127.53 45.6728C130.734 56.7429 131.094 68.0994 130.983 79.5036C130.978 79.8908 130.978 80.2781 130.925 80.66C129.77 88.6748 128.812 96.7267 126.879 104.609C126.693 105.357 126.423 106.089 126.296 106.847C125.237 113.17 122.832 119.084 120.687 125.068C119.972 127.051 118.961 128.94 117.997 130.828C116.508 133.74 114.692 136.488 113.569 139.596C113.246 140.492 112.79 141.41 112.165 142.115C109.719 144.884 108.193 148.258 106.08 151.239C104.862 152.963 103.538 154.649 102.044 156.135C97.532 160.617 92.9348 165.014 88.3218 169.385C87.3526 170.303 86.1506 170.971 85.0807 171.782C82.6392 173.639 79.9008 175.188 78.5662 178.19C78.3438 178.689 77.862 179.107 77.4224 179.473C74.001 182.311 70.5106 185.038 66.2101 186.47C62.1955 187.807 58.234 189.308 53.9387 189.626C51.0417 189.838 48.2454 190.65 45.7032 192.124C43.9819 193.121 42.1707 193.514 40.1846 193.488C38.4633 193.466 36.7314 193.689 35.0207 193.923C33.3048 194.156 31.6152 194.575 29.9045 194.851C24.5712 195.715 19.2379 196.421 13.8622 195.031C11.9608 194.538 10.0384 194.686 8.16358 195.312C8.19006 195.307 8.30115 195.249 8.30115 195.249Z" fill="#FFF94F"/>
<path d="M8.19001 195.307C18.6607 196.835 29.1736 198.161 39.5966 199.959C49.294 201.63 58.3452 200.102 67.0258 195.705C67.5395 195.445 68.0904 195.238 68.567 194.914C70.8391 193.376 72.9524 194.029 75.0285 195.339C75.5582 195.673 75.9394 196.84 75.6163 197.413C75.145 198.24 74.7477 199.206 74.0433 199.784C71.0721 202.218 68.207 204.823 64.5367 206.239C63.2868 206.722 62.1005 207.385 60.8929 207.968C56.121 210.286 51.1266 211.506 45.8039 210.801C42.7532 210.398 39.7078 209.92 36.6942 209.31C34.0355 208.774 31.3929 208.355 28.6759 208.589C26.3403 208.79 24.0681 208.361 21.8278 207.783C19.2221 207.109 16.6269 206.393 14.0371 205.656C12.9143 205.337 11.8179 204.871 11.1717 203.836C10.2025 202.282 8.85216 201.317 7.11499 200.797C6.58007 200.638 6.11384 200.245 5.62129 199.953C5.00163 199.587 4.81116 198.436 5.29312 197.911C5.67975 197.492 6.06612 197.063 6.49512 196.686C7.07241 196.182 7.69738 195.726 8.30115 195.249L8.19001 195.307ZM70.0235 196.585L70.0341 196.601C70.0341 196.596 70.0235 196.585 70.0235 196.585Z" fill="#FFF94F"/>
</svg>
