<svg width="271" height="158" viewBox="0 0 271 158" fill="none" xmlns="http://www.w3.org/2000/svg">
<path d="M196.335 113.046C194.271 112.756 192.602 113.584 191.153 114.942C190.579 115.48 190.665 116.182 190.972 116.852L190.972 116.788C190.452 116.82 189.909 116.965 189.407 116.87C183.922 115.838 178.441 114.774 172.97 113.684C172.495 113.589 172.065 113.231 171.667 113.023C171.581 112.548 171.771 112.331 172.219 112.326C173.436 112.313 174.653 112.317 175.866 112.308L175.807 112.303C178.631 113.797 181.7 114.204 184.822 114.349C185.727 114.394 186.596 114.077 186.94 112.512C187.017 112.172 187.103 111.842 187.189 111.502L187.185 111.57C186.067 110.95 184.895 110.575 183.605 110.797C182.501 110.987 181.514 110.715 180.541 110.176C179.609 109.661 178.604 109.28 177.631 108.841C176.31 108.244 174.957 107.977 173.486 108.108C169.879 108.43 166.399 107.864 163.014 106.57C161.855 106.126 160.611 105.923 159.412 105.601C157.004 104.95 154.637 104.266 152.501 102.863C150.243 101.384 147.546 100.913 145.002 100.134C143.124 99.5597 141.251 99.0619 139.649 97.831C139.097 97.4056 138.413 97.039 137.739 96.9168C135.232 96.4643 133.119 95.1655 130.91 94.0251C128.706 92.8892 126.335 92.0745 124.068 91.0473C120.995 89.6579 117.736 88.6624 114.935 86.6847C114.225 86.1824 113.338 85.8565 112.487 85.6574C108.459 84.707 104.821 82.9059 101.372 80.6704C100.78 80.2857 100.119 79.996 99.4897 79.6657C95.729 77.6699 91.7873 76.0272 88.1715 73.7419C86.6781 72.8006 84.9539 72.2348 83.3609 71.4564C82.2476 70.9134 81.0665 70.4292 80.0935 69.6825C77.5004 67.6958 74.5407 66.5373 71.4906 65.5236C71.3503 65.4738 71.1602 65.5823 70.9928 65.6231C71.0697 65.9172 71.047 66.3563 71.2416 66.4875C73.1378 67.8044 75.0883 69.0399 76.9845 70.3568C78.1521 71.1623 79.2518 72.0628 80.3787 72.9181L80.3831 72.8684C80.6637 73.149 80.9442 73.4296 81.2248 73.7102L81.1796 73.7102C83.2704 74.199 85.3431 74.6786 86.7958 76.4933C87.1035 76.8825 87.6692 77.2491 88.1398 77.2853C90.2306 77.4482 91.733 78.5072 93.154 79.9644C93.6926 80.521 94.7651 80.6703 95.6249 80.797C99.4716 81.3491 102.671 83.1277 105.436 85.7842L105.386 85.7796C106.875 85.6574 108.147 86.2231 109.269 87.1282C109.98 87.703 110.36 88.4994 110.328 89.4362C110.297 90.2191 109.708 90.6536 109.161 91.0926L109.247 91.088C108.188 90.8074 108.188 90.8074 108.441 91.9026L108.459 91.8211C107.45 91.8528 106.436 91.889 105.427 91.9207C104.554 91.1468 103.594 90.5404 102.395 90.4001C102.273 90.3051 102.155 90.1784 102.015 90.1196C101.906 90.0743 101.766 90.115 101.644 90.1196C101.897 90.1829 102.146 90.2508 102.4 90.3141C103.264 91.1061 104.223 91.7216 105.427 91.8483C106.387 92.518 107.35 93.1833 108.296 93.8667C109.106 94.4505 109.903 95.0569 110.704 95.6587L110.708 95.5637C107.423 95.2832 104.617 93.663 101.721 92.3144C98.4941 90.8074 95.3082 89.1964 92.0724 87.7166C91.1221 87.2821 90.0134 86.8612 89.0132 86.9291C87.3026 87.0468 85.8635 86.4947 84.4244 85.7706C82.5146 84.8022 80.5914 83.8653 78.7223 82.8199C77.1656 81.951 75.5364 81.1274 74.2149 79.9689C72.7034 78.6474 71.1692 77.6021 69.2142 77.05C68.0512 76.7196 66.9696 75.991 65.9242 75.3167C62.0323 72.7914 58.1087 70.3161 54.3208 67.6415C51.1213 65.3833 48.0803 62.8942 44.9984 60.4641C43.9892 59.6721 42.9982 59.0521 41.636 59.0747C40.1471 59.0973 38.8573 58.414 37.8028 57.4048C36.6488 56.2961 35.5763 55.1059 34.4902 53.9293C34.4132 53.8433 34.4902 53.6125 34.4947 53.4451C34.8251 53.3319 35.1554 53.2097 35.4994 53.0921C35.4089 52.0693 34.5219 51.671 33.8838 51.1325C30.8789 48.6072 27.8514 46.1137 24.8012 43.6519C23.697 42.7558 22.4977 41.9729 21.3437 41.1357C20.3073 40.38 19.1805 39.9863 17.8636 39.9546C17.0083 39.932 15.9809 39.8008 15.3338 39.3165C12.0528 36.8683 8.56826 34.6688 5.85749 31.5145C3.75768 29.0708 1.75287 26.5773 0.155367 22.9343C0.187049 22.5315 0.331836 21.4635 0.327312 20.4C0.327313 19.2867 0.630566 18.3227 1.25056 17.395C1.74383 16.6664 2.20994 15.8745 2.47242 15.0418C3.14671 12.9555 4.34591 11.2223 5.69903 9.54337C7.37346 7.46165 8.89863 5.26673 10.5912 3.20311C11.2564 2.39305 12.1343 1.73233 12.9987 1.11234C13.5961 0.686944 14.3971 0.646258 15.0487 0.963041C16.9947 1.89529 18.7279 3.15789 20.1489 4.79612C24.955 10.3353 30.4037 15.2228 35.7392 20.2234C37.3005 21.6852 38.8075 23.2103 40.6947 24.2828C41.3101 24.6358 41.9075 25.0612 42.3962 25.5681C46.2429 29.5686 50.8589 32.6731 54.9363 36.4156C58.8871 40.0405 63.4443 42.887 67.8702 45.892C72.1468 48.7928 76.4822 51.6077 80.8493 54.3728C82.9491 55.7033 85.0218 57.1062 87.3569 58.0565C88.5019 58.5227 89.5065 59.301 90.5927 59.9165C93.0681 61.3239 95.539 62.7268 98.123 63.9532C101.825 65.7091 105.368 67.7863 108.975 69.7368C109.604 70.0762 110.161 70.6148 110.822 70.7958C114.99 71.9317 118.646 74.2396 122.583 75.905C125.991 77.3486 129.53 78.6882 132.453 81.1229C132.965 81.5528 133.73 81.7383 134.408 81.8922C138.269 82.7566 141.916 84.1323 145.328 86.1507C145.79 86.4222 146.27 86.6576 146.767 86.8567C151.248 88.6216 155.728 90.3775 160.217 92.1243C160.882 92.3823 161.552 92.7263 162.24 92.7806C164.951 92.9933 167.408 94.1019 169.974 94.8215C172.391 95.5003 174.753 96.2426 176.989 97.383C178.595 98.2021 180.301 98.6139 182.111 98.7587C183.7 98.8899 185.329 99.089 186.836 99.5642C193.136 101.546 199.566 102.936 206.069 104.035C207.843 104.334 209.038 103.474 209.296 101.56C209.341 101.234 209.287 100.763 209.074 100.56C207.938 99.442 206.784 98.3243 205.54 97.3242C204.155 96.2109 202.657 95.2379 201.227 94.1789C200.345 93.5227 199.394 93.0249 198.277 93.129C194.697 93.4503 192.154 91.5315 189.877 89.1828C187.515 86.739 185.492 84.0192 183.822 81.0459C183.297 80.1137 182.781 79.1724 182.306 78.2175C181.577 76.7648 180.718 75.5068 179.238 74.6243C177.437 73.5473 176.794 71.6194 176.459 69.6463C176.305 68.7502 176.572 67.8678 177.224 67.1799C177.713 66.664 178.491 66.2838 178.713 65.6819C179.808 62.7132 181.772 60.5319 184.329 58.7625C184.881 58.3823 185.144 57.6039 185.605 57.0609C187.343 54.9973 189.33 53.2278 191.733 51.9471C192.66 51.4538 193.982 51.6168 194.674 52.4449C195.584 53.5356 196.688 54.5764 197.218 55.8481C199.901 62.2879 204.517 67.2025 209.459 71.8909C211.011 73.3617 212.545 74.8596 214.111 76.3168C214.89 77.0409 215.65 77.8374 216.55 78.385C218.877 79.7788 220.854 81.5211 222.66 83.535C223.723 84.7252 224.927 85.8294 226.23 86.7526C229.136 88.8252 232.127 90.7667 235.1 92.7353C235.689 93.1244 236.34 93.4503 237.01 93.6947C239.535 94.6179 241.934 95.7764 244.219 97.1838C245.604 98.0346 247.156 98.4555 248.767 98.6456C251.655 98.9895 254.27 100.076 256.75 101.551C259.357 103.099 262.009 104.556 264.607 106.113C265.67 106.751 266.607 107.597 267.657 108.258C270.598 110.104 271.684 112.611 270.422 116.191C269.779 116.96 269.037 117.965 268.177 118.861C266.308 120.802 264.733 122.956 263.462 125.314C262.665 126.79 261.543 127.858 260.117 128.668C258.099 129.808 256.099 130.976 254.08 132.116C253.46 132.464 252.763 132.7 252.184 133.098C250.396 134.343 248.446 135.171 246.319 135.605C243.097 136.266 240.287 137.818 237.82 139.913C235.462 141.918 232.792 143.213 229.941 144.335C226.457 145.702 223.072 147.313 219.687 148.915C215.808 150.747 211.862 152.386 207.776 153.675C206.585 154.051 205.391 154.476 204.164 154.644C202.544 154.861 201.028 155.282 199.584 156.038C199.114 156.282 198.575 156.386 198.082 156.599C194.018 158.337 190.411 157.237 187.044 154.793C186.04 154.06 185.107 153.236 184.139 152.449L184.139 152.53C184.84 151.766 185.533 151.001 186.302 150.168C185.718 149.738 185.279 149.453 184.881 149.118C184.429 148.738 184.361 148.209 184.56 147.693C184.682 147.371 184.89 147.055 185.134 146.81C188.474 143.452 192.461 141.258 197.055 140.113C198.946 139.642 200.815 139.058 202.702 138.547C206.137 137.628 209.432 136.343 212.717 134.967C218.94 132.347 224.954 129.301 231.005 126.328C233.263 125.219 235.367 123.948 237.132 122.155L237.132 122.246C235.109 120.531 232.987 119.024 230.507 117.938C227.697 116.711 224.855 115.897 221.795 115.978C219.329 116.046 216.849 115.603 214.392 116.132H214.446C211.043 114.919 207.509 114.679 203.942 114.688C202.856 114.688 201.838 114.611 200.847 114.091C199.399 113.331 197.806 113.15 196.195 113.104L196.335 113.046ZM203.847 108.484C204.363 108.484 204.884 108.479 205.4 108.479C206.558 109.185 207.794 109.489 209.147 109.24C209.663 109.24 210.183 109.235 210.699 109.235C212.731 110.724 215.089 111.371 217.523 111.769C217.863 111.828 218.22 111.779 218.569 111.792C219.116 111.815 219.836 111.231 219.628 110.923C219.442 110.656 219.234 110.294 218.962 110.213C216.265 109.407 213.541 108.792 210.699 109.29C210.183 109.29 209.663 109.294 209.147 109.294C207.984 108.602 206.748 108.307 205.4 108.534C204.884 108.534 204.363 108.538 203.847 108.538C203.341 108.538 202.834 108.538 202.336 108.538C201.829 108.538 201.322 108.538 200.824 108.538L200.824 108.484C201.331 108.484 201.838 108.484 202.336 108.484C202.834 108.484 203.341 108.484 203.847 108.484ZM96.3084 87.282L96.3083 87.3364C95.4214 86.5851 94.4981 85.8973 93.2762 85.8068C93.0318 85.5805 92.8011 85.3315 92.5386 85.1324C92.1403 84.8247 91.8959 84.9153 91.9412 85.3316C91.9502 85.4493 92.163 85.6076 92.3033 85.6393C92.6246 85.7072 92.9549 85.7027 93.2853 85.7344C94.127 86.5671 95.1046 87.1463 96.3084 87.282ZM218.243 103.139C218.492 103.352 218.736 103.569 218.99 103.777C219.37 104.094 219.605 104.049 219.578 103.66C219.569 103.56 219.347 103.429 219.198 103.388C218.886 103.302 218.56 103.266 218.238 103.216C215.003 100.361 212.039 97.1884 208.346 94.8804C210.821 94.3871 212.867 95.1202 214.614 96.9304C216.342 98.7225 218.333 100.18 220.574 101.279C220.976 101.474 221.9 101.049 221.881 100.65C221.868 100.32 221.732 99.9851 221.596 99.6774C221.533 99.5326 221.37 99.4059 221.225 99.3063C215.926 95.7357 210.35 92.5407 205.725 88.0333C205.35 87.6667 204.866 87.3997 204.422 87.1101C202.449 85.8339 200.811 84.241 199.625 82.1954C198.349 79.987 196.444 78.3985 194.357 77.0092C194.24 76.9277 194.018 76.9323 193.873 76.9775C193.498 77.0997 193.348 77.412 193.538 77.8012C193.928 78.5977 194.403 79.3534 194.747 80.168C194.973 80.693 194.783 81.227 194.299 81.5574C194.009 81.7565 193.651 81.8515 193.335 82.0054C192.574 82.3855 192.411 83.1096 192.927 83.7703C193.366 84.3269 193.81 84.8972 194.339 85.3542C196.629 87.3273 198.928 89.2913 200.969 91.5315C202.069 92.7398 203.503 93.4775 205.029 94.016C205.291 94.1065 205.748 93.9481 205.983 93.749C206.726 93.1335 207.251 93.4322 207.753 94.0431C207.979 94.3147 208.205 94.5953 208.427 94.8713C208.138 95.7945 208.368 96.5865 209.043 97.2517C211.695 99.8675 214.939 101.546 218.243 103.139ZM46.2157 47.752C46.0935 47.847 45.9035 47.9285 45.8718 48.0416C45.8356 48.1774 45.8945 48.4172 45.9986 48.4941C46.8313 49.1186 47.6774 49.7296 48.5463 50.318C48.6459 50.3813 48.9084 50.327 49.0125 50.232C49.103 50.1505 49.171 49.8834 49.1076 49.7929C48.388 48.7838 47.5326 47.9285 46.2157 47.752ZM57.7648 56.9296L57.4932 56.9568L57.7285 57.1921L57.7648 56.9296Z" fill="#FFF94F"/>
<path d="M122.828 98.6229C121.805 98.6319 120.782 98.6501 119.759 98.6591L119.841 98.6591C119.004 98.0844 118.184 97.4734 117.311 96.944C116.727 96.5865 116.225 96.7267 115.673 97.5232C115.329 98.021 114.999 98.2609 114.437 98.1432C112.831 97.8129 111.79 96.6544 110.704 95.5683L110.699 95.6633C111.188 95.5004 111.871 95.4868 112.12 95.1474C112.505 94.6269 111.926 94.2558 111.5 93.9572C110.482 93.2467 109.459 92.5316 108.446 91.8166L108.428 91.898C108.699 91.6265 108.966 91.3504 109.233 91.0834L109.147 91.088C110.197 91.7397 111.261 92.3778 112.301 93.0475C113.446 93.7761 114.523 93.749 115.804 93.2195C117.904 92.3506 119.963 92.5633 121.728 94.1834C122.538 94.9301 123.448 95.3239 124.606 95.3148C125.466 95.3058 126.335 95.5954 127.186 95.8035C128.421 96.0977 128.887 96.9711 128.847 98.1794C128.842 98.3559 128.865 98.5324 128.869 98.7089L128.887 98.6365C127.851 98.641 126.815 98.6456 125.783 98.6456L125.923 98.6863C125.122 98.4193 124.326 98.1568 123.525 97.8898L123.633 97.9079C122.76 97.1159 121.782 96.5276 120.565 96.4598C120.447 96.3693 120.334 96.2561 120.198 96.2018C120.094 96.161 119.968 96.1973 119.845 96.2018C120.085 96.2606 120.325 96.3194 120.569 96.3828C121.321 97.1612 122.076 97.9441 122.828 98.7225L122.828 98.6229Z" fill="#FFF94F"/>
<path d="M128.878 98.7089C130.281 98.5641 131.684 98.3016 133.087 98.2926C135.472 98.279 137.64 99.0076 139.341 100.763C140.5 101.949 141.826 102.723 143.496 102.918C144.007 102.976 144.564 103.18 144.962 103.497C146.727 104.873 148.94 104.895 150.931 105.565C151.193 105.656 151.393 106.054 151.533 106.348C151.714 106.719 150.972 107.28 150.456 107.19C149.931 107.099 149.401 107.049 148.894 106.905C148.044 106.651 147.229 106.28 146.374 106.067C145.347 105.809 144.292 105.669 143.251 105.479L143.351 105.488C141.898 104.66 140.414 103.945 138.685 103.945L138.794 103.981C138.083 103.461 137.296 103.171 136.404 103.185L136.522 103.23C134.979 101.859 133.232 100.972 131.123 100.917L131.2 100.949C130.435 100.175 129.666 99.4058 128.901 98.632L128.878 98.7089Z" fill="#FFF94F"/>
<path d="M125.154 100.931C124.375 100.162 123.601 99.3968 122.828 98.6229L122.828 98.7225C123.095 98.4555 123.366 98.184 123.633 97.917L123.525 97.8989C124.326 98.1659 125.122 98.4283 125.923 98.6953L125.783 98.6546C127.34 99.9941 128.996 101.116 131.191 100.967C131.191 100.967 131.114 100.935 131.109 100.94C132.603 102.433 134.522 102.913 136.508 103.253L136.391 103.207C137.115 103.687 137.888 104.026 138.78 104.004L138.671 103.968C139.445 104.75 140.215 105.529 140.993 106.307L140.997 106.212C137.97 106.008 135.169 105.063 132.476 103.691C130.123 102.497 127.711 101.442 125.095 100.944L125.154 100.931Z" fill="#FFF94F"/>
<path d="M190.977 116.856C191.995 116.833 193.009 116.797 194.032 116.797C194.176 116.797 194.412 116.942 194.443 117.055C194.538 117.44 194.312 117.639 193.873 117.671C192.792 117.748 191.877 117.313 190.981 116.788C190.977 116.793 190.977 116.856 190.977 116.856Z" fill="#FFF94F"/>
<path d="M159.163 109.235C158.638 109.154 158.108 109.095 157.592 108.986C157.439 108.95 157.203 108.796 157.194 108.679C157.153 108.267 157.439 108.126 157.864 108.38C158.317 108.651 158.733 108.995 159.167 109.303L159.163 109.235Z" fill="#FFF94F"/>
<path d="M143.247 105.484C143.45 105.95 143.726 106.534 143.215 106.828C142.866 107.031 142.278 106.85 141.803 106.8C141.654 106.787 141.513 106.638 141.378 106.529C141.242 106.429 141.12 106.307 140.997 106.194L140.993 106.289C141.776 106.022 142.559 105.755 143.342 105.488L143.247 105.484Z" fill="#FFF94F"/>
<path d="M204.893 118.245C204.757 118.291 204.603 118.39 204.499 118.358C204.413 118.327 204.381 118.132 204.332 118.01C204.467 117.965 204.617 117.861 204.725 117.897C204.807 117.924 204.834 118.123 204.893 118.245Z" fill="#FFF94F"/>
<path d="M119.759 98.6591C119.891 99.08 120.425 99.4964 119.777 99.9172C119.75 99.9353 119.465 99.6955 119.488 99.6185C119.569 99.2927 119.719 98.9805 119.841 98.6591L119.759 98.6591Z" fill="#FFF94F"/>
<path d="M214.46 119.096C214.025 119.078 213.545 119.35 213.188 118.874C213.315 118.829 213.464 118.725 213.564 118.761C213.871 118.861 214.161 119.015 214.46 119.15V119.096Z" fill="#FFF94F"/>
<path d="M220.383 119.644C220.338 119.526 220.293 119.399 220.248 119.282C220.374 119.246 220.578 119.132 220.623 119.178C220.908 119.481 220.818 119.653 220.383 119.644Z" fill="#FFF94F"/>
<path d="M147.822 108.556C148.071 108.606 148.32 108.656 148.569 108.706C148.446 108.728 148.306 108.796 148.197 108.76C148.057 108.71 147.944 108.579 147.826 108.479L147.822 108.556Z" fill="#FFF94F"/>
<path d="M98.6027 92.6358C98.7657 92.6539 98.9286 92.6629 99.0915 92.681C98.9286 92.6448 98.7657 92.6176 98.6027 92.5814V92.6358Z" fill="#FFF94F"/>
<path d="M147.831 108.484C147.564 108.434 147.292 108.38 147.03 108.326C147.166 108.298 147.315 108.212 147.428 108.253C147.582 108.307 147.7 108.452 147.826 108.561C147.822 108.556 147.831 108.484 147.831 108.484Z" fill="#FFF94F"/>
<path d="M125.095 100.926C125.077 101.08 125.059 101.234 125.036 101.383C125.072 101.23 125.113 101.08 125.149 100.926C125.154 100.931 125.095 100.926 125.095 100.926Z" fill="#FFF94F"/>
<path d="M80.3831 72.9137C80.6501 73.1807 80.9126 73.4432 81.1796 73.7102L81.2248 73.7102C80.9442 73.4296 80.6637 73.149 80.3831 72.8684L80.3831 72.9137Z" fill="#FFF94F"/>
<path d="M175.871 112.313L175.817 112.312C175.812 112.308 175.871 112.313 175.871 112.313Z" fill="#FFF94F"/>
<path d="M214.455 119.146V119.092C214.46 119.096 214.455 119.146 214.455 119.146Z" fill="#FFF94F"/>
<path d="M199.48 85.0284C199.44 85.3226 199.489 85.7073 199.322 85.8928C199.064 86.1779 198.634 86.0829 198.494 85.7163C198.403 85.4719 198.453 85.042 198.62 84.8565C198.887 84.5714 199.245 84.6936 199.48 85.0284Z" fill="#FFF94F"/>
<path d="M201.426 88.6125C201.381 88.4858 201.336 88.3591 201.286 88.2369C201.417 88.1962 201.571 88.0966 201.666 88.1373C201.748 88.1735 201.766 88.3727 201.811 88.4904C201.684 88.5356 201.553 88.5763 201.426 88.6125Z" fill="#FFF94F"/>
</svg>
