<svg width="272" height="158" viewBox="0 0 272 158" fill="none" xmlns="http://www.w3.org/2000/svg">
<path d="M75.1716 113.046C77.2353 112.756 78.9052 113.584 80.3534 114.942C80.9281 115.48 80.8421 116.182 80.5343 116.852L80.5343 116.788C81.0548 116.82 81.5978 116.965 82.1001 116.87C87.585 115.838 93.0654 114.774 98.5367 113.684C99.0119 113.589 99.4418 113.231 99.84 113.023C99.926 112.548 99.7359 112.331 99.2879 112.326C98.0705 112.313 96.8532 112.317 95.6404 112.308L95.6992 112.303C92.8753 113.797 89.807 114.204 86.6844 114.349C85.7793 114.394 84.9105 114.077 84.5666 112.512C84.4896 112.172 84.4036 111.842 84.3176 111.502L84.3222 111.57C85.4399 110.95 86.6121 110.575 87.9018 110.797C89.006 110.987 89.9926 110.715 90.9656 110.176C91.8978 109.661 92.9025 109.28 93.8754 108.841C95.1969 108.244 96.55 107.977 98.0208 108.108C101.628 108.43 105.108 107.864 108.493 106.57C109.651 106.126 110.896 105.923 112.095 105.601C114.503 104.95 116.869 104.266 119.005 102.863C121.264 101.384 123.961 100.913 126.504 100.134C128.382 99.5597 130.256 99.0619 131.858 97.831C132.41 97.4056 133.093 97.039 133.768 96.9168C136.275 96.4643 138.388 95.1655 140.597 94.0251C142.8 92.8892 145.172 92.0745 147.439 91.0473C150.512 89.6579 153.77 88.6624 156.572 86.6847C157.282 86.1824 158.169 85.8565 159.02 85.6574C163.047 84.707 166.686 82.9059 170.134 80.6704C170.727 80.2857 171.388 79.996 172.017 79.6657C175.778 77.6699 179.719 76.0272 183.335 73.7419C184.829 72.8006 186.553 72.2348 188.146 71.4564C189.259 70.9134 190.44 70.4292 191.413 69.6825C194.006 67.6958 196.966 66.5373 200.016 65.5236C200.156 65.4738 200.347 65.5823 200.514 65.6231C200.437 65.9172 200.46 66.3563 200.265 66.4875C198.369 67.8044 196.418 69.0399 194.522 70.3568C193.355 71.1623 192.255 72.0628 191.128 72.9181L191.124 72.8684C190.843 73.149 190.562 73.4296 190.282 73.7102L190.327 73.7102C188.236 74.199 186.164 74.6786 184.711 76.4933C184.403 76.8825 183.838 77.2491 183.367 77.2853C181.276 77.4482 179.774 78.5072 178.353 79.9644C177.814 80.521 176.742 80.6703 175.882 80.797C172.035 81.3491 168.836 83.1277 166.07 85.7842L166.12 85.7796C164.631 85.6574 163.36 86.2231 162.237 87.1282C161.527 87.703 161.147 88.4994 161.178 89.4362C161.21 90.2191 161.798 90.6536 162.346 91.0926L162.26 91.088C163.319 90.8074 163.319 90.8074 163.066 91.9026L163.047 91.8211C164.057 91.8528 165.07 91.889 166.08 91.9207C166.953 91.1468 167.912 90.5404 169.112 90.4001C169.234 90.3051 169.351 90.1784 169.492 90.1196C169.6 90.0743 169.741 90.115 169.863 90.1196C169.609 90.1829 169.361 90.2508 169.107 90.3141C168.243 91.1061 167.283 91.7216 166.08 91.8483C165.12 92.518 164.156 93.1833 163.21 93.8667C162.4 94.4505 161.604 95.0569 160.803 95.6587L160.798 95.5637C164.084 95.2832 166.89 93.663 169.786 92.3144C173.013 90.8074 176.199 89.1964 179.434 87.7166C180.385 87.2821 181.493 86.8612 182.493 86.9291C184.204 87.0468 185.643 86.4947 187.082 85.7706C188.992 84.8022 190.915 83.8653 192.784 82.8199C194.341 81.951 195.97 81.1274 197.292 79.9689C198.803 78.6474 200.337 77.6021 202.292 77.05C203.456 76.7196 204.537 75.991 205.583 75.3167C209.474 72.7914 213.398 70.3161 217.186 67.6415C220.385 65.3833 223.426 62.8942 226.508 60.4641C227.517 59.6721 228.509 59.0521 229.871 59.0747C231.36 59.0973 232.649 58.414 233.704 57.4048C234.858 56.2961 235.93 55.1059 237.017 53.9293C237.093 53.8433 237.017 53.6125 237.012 53.4451C236.682 53.3319 236.351 53.2097 236.007 53.0921C236.098 52.0693 236.985 51.671 237.623 51.1325C240.628 48.6072 243.655 46.1137 246.706 43.6519C247.81 42.7558 249.009 41.9729 250.163 41.1357C251.199 40.38 252.326 39.9863 253.643 39.9546C254.498 39.932 255.526 39.8008 256.173 39.3165C259.454 36.8683 262.938 34.6688 265.649 31.5145C267.749 29.0708 269.754 26.5773 271.351 22.9343C271.32 22.5315 271.175 21.4635 271.179 20.4C271.179 19.2867 270.876 18.3227 270.256 17.395C269.763 16.6664 269.297 15.8745 269.034 15.0418C268.36 12.9555 267.161 11.2223 265.808 9.54337C264.133 7.46165 262.608 5.26673 260.916 3.20311C260.25 2.39305 259.372 1.73233 258.508 1.11234C257.911 0.686944 257.11 0.646258 256.458 0.963041C254.512 1.89529 252.779 3.15789 251.358 4.79612C246.552 10.3353 241.103 15.2228 235.767 20.2234C234.206 21.6852 232.699 23.2103 230.812 24.2828C230.197 24.6358 229.599 25.0612 229.11 25.5681C225.264 29.5686 220.648 32.6731 216.57 36.4156C212.62 40.0405 208.062 42.887 203.637 45.892C199.36 48.7928 195.025 51.6077 190.657 54.3728C188.558 55.7033 186.485 57.1062 184.15 58.0565C183.005 58.5227 182 59.301 180.914 59.9165C178.439 61.3239 175.968 62.7268 173.384 63.9532C169.682 65.7091 166.138 67.7863 162.532 69.7368C161.903 70.0762 161.346 70.6148 160.685 70.7958C156.517 71.9317 152.861 74.2396 148.923 75.905C145.516 77.3486 141.977 78.6882 139.053 81.1229C138.542 81.5528 137.777 81.7383 137.098 81.8922C133.238 82.7566 129.591 84.1323 126.178 86.1507C125.717 86.4222 125.237 86.6576 124.739 86.8567C120.259 88.6216 115.779 90.3775 111.29 92.1243C110.624 92.3823 109.954 92.7263 109.267 92.7806C106.556 92.9933 104.099 94.1019 101.533 94.8215C99.116 95.5003 96.7537 96.2426 94.5181 97.383C92.9115 98.2021 91.2054 98.6139 89.3953 98.7587C87.8068 98.8899 86.1776 99.089 84.6706 99.5642C78.3712 101.546 71.9404 102.936 65.4373 104.035C63.6633 104.334 62.4686 103.474 62.2106 101.56C62.1654 101.234 62.2197 100.763 62.4324 100.56C63.5683 99.442 64.7223 98.3243 65.9668 97.3242C67.3516 96.2109 68.8495 95.2379 70.2796 94.1789C71.162 93.5227 72.1124 93.0249 73.2302 93.129C76.8098 93.4503 79.3532 91.5315 81.6295 89.1828C83.9918 86.739 86.0147 84.0192 87.6846 81.0459C88.2095 80.1137 88.7255 79.1724 89.2006 78.2175C89.9292 76.7648 90.7891 75.5068 92.2689 74.6243C94.0701 73.5473 94.7126 71.6194 95.0475 69.6463C95.2014 68.7502 94.9344 67.8678 94.2828 67.1799C93.794 66.664 93.0156 66.2838 92.7939 65.6819C91.6987 62.7132 89.7347 60.5319 87.1778 58.7625C86.6257 58.3823 86.3631 57.6039 85.9015 57.0609C84.1638 54.9973 82.1771 53.2278 79.7741 51.9471C78.8464 51.4538 77.5249 51.6168 76.8325 52.4449C75.9228 53.5356 74.8187 54.5764 74.2892 55.8481C71.6056 62.2879 66.9896 67.2025 62.0477 71.8909C60.4955 73.3617 58.9613 74.8596 57.3955 76.3168C56.6171 77.0409 55.8569 77.8374 54.9563 78.385C52.6302 79.7788 50.6526 81.5211 48.8469 83.535C47.7835 84.7252 46.5797 85.8294 45.2763 86.7526C42.371 88.8252 39.3796 90.7667 36.4063 92.7353C35.818 93.1244 35.1664 93.4503 34.4966 93.6947C31.9714 94.6179 29.5729 95.7764 27.2875 97.1838C25.9027 98.0346 24.3505 98.4555 22.7394 98.6456C19.8521 98.9895 17.2364 100.076 14.7564 101.551C12.1498 103.099 9.49784 104.556 6.90021 106.113C5.83672 106.751 4.89995 107.597 3.85004 108.258C0.908462 110.104 -0.177694 112.611 1.08492 116.191C1.72754 116.96 2.46976 117.965 3.32959 118.861C5.19861 120.802 6.77346 122.956 8.04512 125.314C8.8416 126.79 9.96398 127.858 11.3895 128.668C13.4079 129.808 15.4081 130.976 17.4265 132.116C18.0465 132.464 18.7434 132.7 19.3227 133.098C21.1103 134.343 23.0607 135.171 25.1877 135.605C28.4098 136.266 31.2201 137.818 33.6865 139.913C36.0443 141.918 38.7143 143.213 41.5654 144.335C45.05 145.702 48.4351 147.313 51.8202 148.915C55.6985 150.747 59.6447 152.386 63.7312 153.675C64.9214 154.051 66.1162 154.476 67.3426 154.644C68.9627 154.861 70.4787 155.282 71.9223 156.038C72.393 156.282 72.9315 156.386 73.4248 156.599C77.4887 158.337 81.0955 157.237 84.4625 154.793C85.4671 154.06 86.3993 153.236 87.3678 152.449L87.3678 152.53C86.6663 151.766 85.9739 151.001 85.2046 150.168C85.7884 149.738 86.2274 149.453 86.6256 149.118C87.0782 148.738 87.1461 148.209 86.947 147.693C86.8248 147.371 86.6166 147.055 86.3722 146.81C83.0324 143.452 79.0454 141.258 74.452 140.113C72.5604 139.642 70.6914 139.058 68.8043 138.547C65.3694 137.628 62.0749 136.343 58.7894 134.967C52.5668 132.347 46.5525 129.301 40.5019 126.328C38.2437 125.219 36.1393 123.948 34.3744 122.155L34.3744 122.246C36.3973 120.531 38.5197 119.024 40.9997 117.938C43.81 116.711 46.652 115.897 49.7113 115.978C52.1777 116.046 54.6577 115.603 57.115 116.132H57.0606C60.4638 114.919 63.9982 114.679 67.5643 114.688C68.6504 114.688 69.6687 114.611 70.6598 114.091C72.1079 113.331 73.7008 113.15 75.3119 113.104L75.1716 113.046ZM67.6594 108.484C67.1435 108.484 66.623 108.479 66.1071 108.479C64.9486 109.185 63.7131 109.489 62.36 109.24C61.8441 109.24 61.3237 109.235 60.8078 109.235C58.7758 110.724 56.4181 111.371 53.9834 111.769C53.6439 111.828 53.2864 111.779 52.9379 111.792C52.3904 111.815 51.6708 111.231 51.879 110.923C52.0645 110.656 52.2727 110.294 52.5442 110.213C55.2414 109.407 57.9657 108.792 60.8077 109.29C61.3236 109.29 61.8441 109.294 62.36 109.294C63.5231 108.602 64.7585 108.307 66.1071 108.534C66.623 108.534 67.1434 108.538 67.6593 108.538C68.1661 108.538 68.673 108.538 69.1708 108.538C69.6777 108.538 70.1846 108.538 70.6824 108.538L70.6823 108.484C70.1755 108.484 69.6686 108.484 69.1709 108.484C68.673 108.484 68.1662 108.484 67.6594 108.484ZM175.198 87.282L175.198 87.3364C176.085 86.5851 177.009 85.8973 178.231 85.8068C178.475 85.5805 178.706 85.3315 178.968 85.1324C179.366 84.8247 179.611 84.9153 179.566 85.3316C179.556 85.4493 179.344 85.6076 179.203 85.6393C178.882 85.7072 178.552 85.7027 178.221 85.7344C177.38 86.5671 176.402 87.1463 175.198 87.282ZM53.2638 103.139C53.0149 103.352 52.7705 103.569 52.517 103.777C52.1369 104.094 51.9016 104.049 51.9288 103.66C51.9378 103.56 52.1595 103.429 52.3089 103.388C52.6211 103.302 52.947 103.266 53.2683 103.216C56.504 100.361 59.4682 97.1884 63.161 94.8804C60.6855 94.3871 58.64 95.1202 56.8932 96.9304C55.1645 98.7225 53.1732 100.18 50.9331 101.279C50.5304 101.474 49.6072 101.049 49.6253 100.65C49.6389 100.32 49.7747 99.9851 49.9104 99.6774C49.9738 99.5326 50.1367 99.4059 50.2815 99.3063C55.5808 95.7357 61.1562 92.5407 65.7813 88.0333C66.1569 87.6667 66.6411 87.3997 67.0846 87.1101C69.0577 85.8339 70.6959 84.241 71.8816 82.1954C73.1578 79.987 75.063 78.3985 77.1493 77.0092C77.2669 76.9277 77.4887 76.9323 77.6335 76.9775C78.0091 77.0997 78.1584 77.412 77.9684 77.8012C77.5792 78.5977 77.104 79.3534 76.7601 80.168C76.5338 80.693 76.7239 81.227 77.2081 81.5574C77.4977 81.7565 77.8553 81.8515 78.172 82.0054C78.9323 82.3855 79.0952 83.1096 78.5793 83.7703C78.1404 84.3269 77.6968 84.8972 77.1673 85.3542C74.8774 87.3273 72.5785 89.2913 70.5375 91.5315C69.4379 92.7398 68.0032 93.4775 66.4781 94.016C66.2157 94.1065 65.7586 93.9481 65.5233 93.749C64.7811 93.1335 64.2562 93.4322 63.7539 94.0431C63.5276 94.3147 63.3013 94.5953 63.0796 94.8713C63.3692 95.7945 63.1383 96.5865 62.4641 97.2517C59.8121 99.8675 56.5674 101.546 53.2638 103.139ZM225.291 47.752C225.413 47.847 225.603 47.9285 225.635 48.0416C225.671 48.1774 225.612 48.4172 225.508 48.4941C224.675 49.1186 223.829 49.7296 222.96 50.318C222.861 50.3813 222.598 50.327 222.494 50.232C222.404 50.1505 222.336 49.8834 222.399 49.7929C223.119 48.7838 223.974 47.9285 225.291 47.752ZM213.742 56.9296L214.013 56.9568L213.778 57.1921L213.742 56.9296Z" fill="#EB539F"/>
<path d="M148.679 98.6229C149.702 98.6319 150.725 98.6501 151.747 98.6591L151.666 98.6591C152.503 98.0844 153.322 97.4734 154.196 96.944C154.779 96.5865 155.282 96.7267 155.834 97.5232C156.178 98.021 156.508 98.2609 157.069 98.1432C158.676 97.8129 159.717 96.6544 160.803 95.5683L160.807 95.6633C160.319 95.5004 159.635 95.4868 159.386 95.1474C159.002 94.6269 159.581 94.2558 160.006 93.9572C161.025 93.2467 162.047 92.5316 163.061 91.8166L163.079 91.898C162.808 91.6265 162.541 91.3504 162.274 91.0834L162.36 91.088C161.31 91.7397 160.246 92.3778 159.205 93.0475C158.06 93.7761 156.983 93.749 155.703 93.2195C153.603 92.3506 151.544 92.5633 149.779 94.1834C148.969 94.9301 148.059 95.3239 146.901 95.3148C146.041 95.3058 145.172 95.5954 144.321 95.8035C143.086 96.0977 142.619 96.9711 142.66 98.1794C142.665 98.3559 142.642 98.5324 142.638 98.7089L142.619 98.6365C143.656 98.641 144.692 98.6456 145.724 98.6456L145.584 98.6863C146.385 98.4193 147.181 98.1568 147.982 97.8898L147.873 97.9079C148.747 97.1159 149.724 96.5276 150.942 96.4598C151.059 96.3693 151.173 96.2561 151.308 96.2018C151.412 96.161 151.539 96.1973 151.661 96.2018C151.422 96.2606 151.182 96.3194 150.937 96.3828C150.186 97.1612 149.43 97.9441 148.679 98.7225L148.679 98.6229Z" fill="#EB539F"/>
<path d="M142.629 98.7089C141.226 98.5641 139.823 98.3016 138.42 98.2926C136.035 98.279 133.867 99.0076 132.166 100.763C131.007 101.949 129.681 102.723 128.011 102.918C127.5 102.976 126.943 103.18 126.545 103.497C124.78 104.873 122.567 104.895 120.576 105.565C120.313 105.656 120.114 106.054 119.974 106.348C119.793 106.719 120.535 107.28 121.051 107.19C121.576 107.099 122.105 107.049 122.612 106.905C123.463 106.651 124.278 106.28 125.133 106.067C126.16 105.809 127.215 105.669 128.256 105.479L128.156 105.488C129.609 104.66 131.093 103.945 132.822 103.945L132.713 103.981C133.424 103.461 134.211 103.171 135.103 103.185L134.985 103.23C136.528 101.859 138.275 100.972 140.384 100.917L140.307 100.949C141.072 100.175 141.841 99.4058 142.606 98.632L142.629 98.7089Z" fill="#EB539F"/>
<path d="M146.353 100.931C147.131 100.162 147.905 99.3968 148.679 98.6229L148.679 98.7225C148.412 98.4555 148.141 98.184 147.873 97.917L147.982 97.8989C147.181 98.1659 146.385 98.4283 145.584 98.6953L145.724 98.6546C144.167 99.9941 142.511 101.116 140.316 100.967C140.316 100.967 140.393 100.935 140.397 100.94C138.904 102.433 136.985 102.913 134.999 103.253L135.116 103.207C134.392 103.687 133.618 104.026 132.727 104.004L132.835 103.968C132.062 104.75 131.292 105.529 130.514 106.307L130.509 106.212C133.537 106.008 136.338 105.063 139.031 103.691C141.384 102.497 143.796 101.442 146.412 100.944L146.353 100.931Z" fill="#EB539F"/>
<path d="M80.5298 116.856C79.5116 116.833 78.4979 116.797 77.4752 116.797C77.3304 116.797 77.095 116.942 77.0633 117.055C76.9682 117.44 77.1946 117.639 77.6336 117.671C78.7151 117.748 79.6292 117.313 80.5253 116.788C80.5298 116.793 80.5298 116.856 80.5298 116.856Z" fill="#EB539F"/>
<path d="M112.344 109.235C112.869 109.154 113.398 109.095 113.914 108.986C114.068 108.95 114.303 108.796 114.313 108.679C114.353 108.267 114.068 108.126 113.643 108.38C113.19 108.651 112.774 108.995 112.339 109.303L112.344 109.235Z" fill="#EB539F"/>
<path d="M128.26 105.484C128.056 105.95 127.78 106.534 128.292 106.828C128.64 107.031 129.229 106.85 129.704 106.8C129.853 106.787 129.993 106.638 130.129 106.529C130.265 106.429 130.387 106.307 130.509 106.194L130.514 106.289C129.731 106.022 128.948 105.755 128.165 105.488L128.26 105.484Z" fill="#EB539F"/>
<path d="M66.6139 118.245C66.7497 118.291 66.9036 118.39 67.0076 118.358C67.0936 118.327 67.1253 118.132 67.1751 118.01C67.0393 117.965 66.89 117.861 66.7814 117.897C66.6999 117.924 66.6728 118.123 66.6139 118.245Z" fill="#EB539F"/>
<path d="M151.747 98.6591C151.616 99.08 151.082 99.4964 151.729 99.9172C151.756 99.9353 152.042 99.6955 152.019 99.6185C151.937 99.2927 151.788 98.9805 151.666 98.6591L151.747 98.6591Z" fill="#EB539F"/>
<path d="M57.0471 119.096C57.4815 119.078 57.9612 119.35 58.3188 118.874C58.192 118.829 58.0427 118.725 57.9432 118.761C57.6354 118.861 57.3458 119.015 57.0471 119.15V119.096Z" fill="#EB539F"/>
<path d="M51.1232 119.644C51.1685 119.526 51.2137 119.399 51.259 119.282C51.1323 119.246 50.9287 119.132 50.8834 119.178C50.5983 119.481 50.6888 119.653 51.1232 119.644Z" fill="#EB539F"/>
<path d="M123.685 108.556C123.436 108.606 123.187 108.656 122.938 108.706C123.06 108.728 123.201 108.796 123.309 108.76C123.45 108.71 123.563 108.579 123.68 108.479L123.685 108.556Z" fill="#EB539F"/>
<path d="M172.904 92.6358C172.741 92.6539 172.578 92.6629 172.415 92.681C172.578 92.6448 172.741 92.6176 172.904 92.5814V92.6358Z" fill="#EB539F"/>
<path d="M123.676 108.484C123.943 108.434 124.214 108.38 124.477 108.326C124.341 108.298 124.192 108.212 124.079 108.253C123.925 108.307 123.807 108.452 123.68 108.561C123.685 108.556 123.676 108.484 123.676 108.484Z" fill="#EB539F"/>
<path d="M146.412 100.926C146.43 101.08 146.448 101.234 146.471 101.383C146.434 101.23 146.394 101.08 146.357 100.926C146.353 100.931 146.412 100.926 146.412 100.926Z" fill="#EB539F"/>
<path d="M191.124 72.9137C190.857 73.1807 190.594 73.4432 190.327 73.7102L190.282 73.7102C190.562 73.4296 190.843 73.149 191.124 72.8684L191.124 72.9137Z" fill="#EB539F"/>
<path d="M95.6359 112.313L95.6902 112.312C95.6947 112.308 95.6359 112.313 95.6359 112.313Z" fill="#EB539F"/>
<path d="M57.0516 119.146V119.092C57.0471 119.096 57.0516 119.146 57.0516 119.146Z" fill="#EB539F"/>
<path d="M72.0265 85.0284C72.0672 85.3226 72.0174 85.7073 72.1849 85.8928C72.4428 86.1779 72.8727 86.0829 73.013 85.7163C73.1035 85.4719 73.0538 85.042 72.8863 84.8565C72.6193 84.5714 72.2618 84.6936 72.0265 85.0284Z" fill="#EB539F"/>
<path d="M70.0805 88.6125C70.1257 88.4858 70.171 88.3591 70.2207 88.2369C70.0895 88.1962 69.9357 88.0966 69.8406 88.1373C69.7592 88.1735 69.7411 88.3727 69.6958 88.4904C69.8225 88.5356 69.9538 88.5763 70.0805 88.6125Z" fill="#EB539F"/>
</svg>
