<svg width="196" height="103" viewBox="0 0 196 103" fill="none" xmlns="http://www.w3.org/2000/svg">
<path d="M8.05739 81.4332C8.32727 81.2873 8.74579 81.1711 8.84358 80.9881C9.58673 79.5588 10.4316 78.1542 10.7249 76.6309C10.9244 75.6071 11.4368 74.5809 12.0587 73.619C13.2439 71.7915 14.4329 69.9518 15.931 68.2208C18.5007 65.2509 20.4017 62.1005 22.5334 59.0094C23.1944 58.0499 23.8945 57.1003 24.5125 56.131C25.416 54.7115 26.7068 53.4578 28.2322 52.2758C31.373 49.8425 34.3496 47.3301 37.0758 44.7039C37.5804 44.2168 38.0067 43.69 38.5934 43.2474C45.6808 37.9035 52.3145 32.2951 60.6809 27.6857C63.4462 26.1624 66.4032 24.7505 69.4541 23.4596C74.9613 21.1327 80.5624 18.8898 86.2104 16.7062C89.187 15.5564 92.3278 14.5697 95.4451 13.5707C98.891 12.4678 102.423 11.4737 105.869 10.3683C112.596 8.20949 119.492 6.28315 126.494 4.51506C128.199 4.08479 129.947 3.68915 131.727 3.42208C140.684 2.09168 149.672 0.850288 158.837 0.249382C163.976 -0.0869217 169.131 -0.173462 174.216 0.570869C176.004 0.832993 177.799 1.11738 179.52 1.51057C183.686 2.45767 187.613 3.73856 191.469 5.10605C193.89 5.96413 195.103 7.3811 195.873 8.96867C196.636 10.5389 193.808 12.3169 191.258 11.9039C190.554 11.7902 189.846 11.6221 189.224 11.3921C187.163 10.628 185.176 9.78226 183.091 9.04287C180.529 8.13286 177.928 7.25993 175.292 6.43895C172.444 5.55367 169.37 5.11352 166.217 5.09868C161.989 5.0789 157.741 5.06649 153.533 5.30141C147.114 5.65997 140.778 6.41672 134.512 7.38854C129.314 8.19469 124.288 9.31732 119.351 10.6106C107.95 13.5954 96.7163 16.8027 86.2143 20.9373C81.5285 22.782 76.9209 24.7084 72.3368 26.6545C67.1151 28.8702 62.5075 31.5384 58.3419 34.5133C55.0485 36.865 51.8178 39.2537 48.4462 41.5609C44.6756 44.1401 41.5309 46.9938 38.5895 49.9562C36.7316 51.8282 34.9011 53.715 32.9063 55.5301C27.8254 60.1568 24.1722 65.2261 21.223 70.5057C20.5542 71.7026 20.2295 72.981 19.8658 74.2372C19.4707 75.6072 19.2126 76.9944 18.9192 78.3767C18.8997 78.4707 19.0796 78.6686 19.1656 78.6686C19.4981 78.6686 19.9362 78.6784 20.1396 78.5548C21.1996 77.9143 22.1344 77.1922 23.2256 76.5765C25.3221 75.392 27.7628 74.5982 30.5438 74.2842C31.0288 74.2298 31.6625 74.3361 32.0849 74.5068C32.5816 74.7095 32.5112 75.0953 32.2844 75.4316C32.0653 75.7531 31.8933 76.0893 31.6273 76.391C30.2818 77.9143 29.0301 79.4747 27.5321 80.9362C23.2296 85.1425 19.2478 89.4601 15.8488 93.9854C14.5072 95.7708 13.2595 97.5834 12.0861 99.4158C11.3155 100.618 10.3064 101.703 8.94524 102.665C8.19424 103.194 6.70403 103.081 6.12515 102.435C5.7653 102.032 5.3194 101.636 5.13948 101.199C4.35329 99.2872 3.47716 97.3782 2.95695 95.4345C1.7366 90.8473 0.801758 86.233 0.140732 81.5964C-0.0587463 80.1943 -0.0821381 78.8145 0.30899 77.4272C0.7901 75.711 1.62711 74.0468 1.94392 72.3034C2.11211 71.3662 3.26202 70.6639 4.65839 70.246C4.92046 70.1669 5.32724 70.2411 5.64798 70.298C5.77313 70.3202 5.89436 70.4784 5.91783 70.5848C5.96869 70.8123 6.02736 71.0546 5.96477 71.2772C4.97128 74.7046 6.26207 77.9712 7.70535 81.228C7.74838 81.3071 7.93614 81.364 8.05739 81.4332Z" fill="white"/>
</svg>
