<svg width="211" height="131" viewBox="0 0 211 131" fill="none" xmlns="http://www.w3.org/2000/svg">
<path d="M195.249 122.699C195.806 125.13 196.384 127.561 196.888 130.002C196.946 130.283 196.681 130.792 196.421 130.94C196.182 131.072 195.657 130.971 195.418 130.781C194.983 130.421 194.617 129.949 194.31 129.473C193.583 128.339 192.867 127.19 192.209 126.014C188.83 119.929 184.698 114.357 180.492 108.839C176.105 103.087 170.764 98.4421 164.383 95.0048C162.176 93.8132 159.986 92.6003 157.784 91.3981C156.177 90.5189 155.238 89.0888 154.506 87.4841C154.034 86.4513 154.533 85.0267 155.583 84.5554C156.108 84.3223 156.639 84.0735 157.195 83.957C158.919 83.5862 160.649 83.6497 162.351 84.1264C168.149 85.7576 173.612 88.0774 178.535 91.6259C181.235 93.5749 183.431 95.9582 185.388 98.601C185.483 98.7281 185.727 98.8234 185.892 98.8128C186.321 98.7863 186.534 98.4949 186.454 98.0447C185.234 91.3874 183.335 84.9366 180.587 78.7453C177.85 72.5805 175.198 66.3787 171.793 60.5369C171.018 59.2076 170.239 57.8624 169.3 56.6496C164.324 50.2305 158.835 44.3092 152.385 39.3096C149.796 37.3023 147.271 35.2103 144.789 33.0759C138.445 27.6208 131.358 23.3944 123.667 20.1426C121.333 19.1575 118.915 18.5432 116.421 18.2095C112.019 17.6163 107.691 16.7105 103.394 15.5772C99.8562 14.645 96.2069 14.1472 92.6106 13.4587C90.526 13.0561 88.399 12.8126 86.3674 12.2194C78.5807 9.94204 70.7197 10.387 62.8482 11.4886C58.0743 12.1559 53.3429 13.1092 48.5744 13.8083C45.4926 14.2585 42.5328 15.0581 39.6631 16.2286C34.4862 18.3365 29.2296 20.2696 24.53 23.3997C23.257 24.2471 21.7452 24.7292 20.4085 25.4918C17.226 27.3084 14.0593 29.1463 11.2587 31.5455C10.2402 32.4194 9.16882 33.2774 8.00187 33.9288C7.01528 34.4796 5.8801 34.8662 4.7609 35.0674C1.9231 35.5865 -0.569919 32.8323 0.114334 30.0094C0.29468 29.2679 0.554554 28.5318 0.872811 27.8327C2.49062 24.2578 4.83517 21.2496 7.95409 18.8451C13.1841 14.8147 18.7907 11.4144 25.1187 9.4389C31.9241 7.30982 38.8197 5.45613 45.6728 3.47005C56.7429 0.265821 68.0994 -0.0943328 79.5036 0.016888C79.8908 0.0221828 80.2781 0.0221065 80.66 0.0750697C88.6748 1.22966 96.7266 2.18835 104.609 4.12146C105.357 4.30683 106.089 4.57699 106.847 4.7041C113.17 5.76335 119.084 8.16776 125.068 10.3127C127.051 11.0277 128.94 12.0393 130.828 13.0033C133.74 14.4915 136.488 16.308 139.596 17.4308C140.492 17.7539 141.41 18.2096 142.115 18.8345C144.884 21.2814 148.258 22.8066 151.239 24.9198C152.963 26.1379 154.649 27.462 156.135 28.9556C160.617 33.4679 165.014 38.0652 169.385 42.6782C170.303 43.6474 170.971 44.8494 171.782 45.9193C173.639 48.3608 175.188 51.0991 178.19 52.4338C178.689 52.6562 179.107 53.138 179.473 53.5776C182.311 56.999 185.038 60.4894 186.47 64.7899C187.807 68.8045 189.308 72.766 189.626 77.0613C189.838 79.9583 190.65 82.7546 192.124 85.2968C193.121 87.0181 193.514 88.8293 193.488 90.8154C193.466 92.5367 193.689 94.2686 193.922 95.9793C194.156 97.6952 194.575 99.3848 194.851 101.095C195.715 106.429 196.421 111.762 195.031 117.138C194.538 119.039 194.686 120.962 195.312 122.836C195.307 122.81 195.249 122.699 195.249 122.699Z" fill="#FFF94F"/>
<path d="M195.307 122.81C196.835 112.339 198.161 101.826 199.959 91.4034C201.63 81.706 200.102 72.6548 195.705 63.9742C195.445 63.4605 195.238 62.9096 194.914 62.433C193.376 60.1609 194.029 58.0476 195.339 55.9714C195.673 55.4418 196.84 55.0606 197.413 55.3836C198.24 55.855 199.206 56.2523 199.784 56.9567C202.218 59.9279 204.823 62.793 206.239 66.4633C206.722 67.7132 207.385 68.8995 207.968 70.1071C210.286 74.879 211.506 79.8734 210.801 85.1961C210.398 88.2468 209.92 91.2922 209.31 94.3058C208.774 96.9645 208.355 99.6071 208.589 102.324C208.79 104.66 208.361 106.932 207.783 109.172C207.109 111.778 206.393 114.373 205.656 116.963C205.337 118.086 204.871 119.182 203.836 119.828C202.282 120.797 201.317 122.148 200.797 123.885C200.638 124.42 200.245 124.886 199.953 125.379C199.587 125.998 198.436 126.189 197.911 125.707C197.492 125.32 197.063 124.934 196.686 124.505C196.182 123.928 195.726 123.303 195.249 122.699L195.307 122.81ZM196.585 60.9765L196.601 60.9659C196.596 60.9659 196.585 60.9765 196.585 60.9765Z" fill="#FFF94F"/>
</svg>
