<svg width="1526" height="433" viewBox="0 0 1526 433" fill="none" xmlns="http://www.w3.org/2000/svg">
<path d="M65.5 112.273C68.3 87.1876 23 73.879 0 70.3604V0H1526V96.4394C1526 232.423 1360.5 155.117 1350.5 106.995C1340.5 58.8731 1133 43.0394 1177 238.012C1221 432.984 988 424.291 944 389.829C900 355.368 1043.5 261.917 861.5 261.917C679.5 261.917 937.5 106.995 721.5 106.995C505.5 106.995 517.5 171.883 450 223.109C382.5 274.336 249.5 263.159 224 171.883C198.5 80.6057 132.36 96.3616 118 119.414C97.5 152.323 183.5 306.935 118 306.935C52.5 306.935 62 143.63 65.5 112.273Z" fill="black"/>
<path d="M261.5 169.709C279.333 199.824 328.5 251.672 382.5 218.141M820 203.86C815.333 220.729 818.4 252.727 868 245.773M977.5 342.638C966.833 369.752 974.1 415.846 1088.5 383.309M80.5 227.766C85.5 250.326 99.8 294.64 117 291.411M1375 91.1611C1381.67 105.96 1404.5 138.104 1442.5 148.287" stroke="#FFB4D9" stroke-width="5" stroke-linecap="round"/>
<path d="M64.5 81.8474C71.8333 85.159 85.4 98.4263 81 125.002M136.5 88.6776C151.5 83.5032 186.4 79.4879 206 104.822M714.5 78.7426C756.5 71.0845 820.5 75.3275 840 115.378M1171.5 92.7137C1183.5 78.5357 1221.2 51.8563 1276 58.5624" stroke="#CA1771" stroke-width="5" stroke-linecap="round"/>
<path d="M60 288.928C70.5 309.936 105.1 344.874 159.5 316.559M141.5 132.143C171 120.345 193.5 141.146 210.5 196.099M394 267.195C428.667 264.919 506.4 242.048 540 168.778M696.5 135.558C726 128.314 781.1 124.816 765.5 168.778M859.5 288.928C883 285.306 926.1 287.872 910.5 327.115C891 376.169 877.5 424.291 993 430.5M1230 242.669C1237.5 279.821 1238 361.763 1180 392.313M1267.5 106.995C1283 106.271 1319.2 112.708 1340 144.251C1366 183.68 1419 202.929 1464.5 196.099" stroke="#171717" stroke-width="5" stroke-linecap="round"/>
</svg>
