<svg width="1611" height="433" viewBox="0 0 1611 433" fill="none" xmlns="http://www.w3.org/2000/svg">
<path d="M150.5 112.273C153.3 87.1876 66.9998 101.72 26.9998 70.3603C-13.0002 39.001 -2 -0.000976562 26.9998 0C55.9996 0.000976612 1611 0 1611 0V96.4394C1611 232.423 1445.5 155.117 1435.5 106.995C1425.5 58.8731 1218 43.0394 1262 238.012C1306 432.984 1073 424.291 1029 389.829C985 355.368 1128.5 261.918 946.5 261.918C764.5 261.918 1022.5 106.995 806.5 106.995C590.5 106.995 602.5 171.883 535 223.109C467.5 274.336 334.5 263.159 309 171.883C283.5 80.6057 217.36 96.3616 203 119.414C182.5 152.323 268.5 306.935 203 306.935C137.5 306.935 147 143.63 150.5 112.273Z" fill="white"/>
<path d="M346.5 169.709C364.333 199.824 413.5 251.672 467.5 218.141M905 203.86C900.333 220.729 903.4 252.727 953 245.773M1062.5 342.638C1051.83 369.752 1059.1 415.846 1173.5 383.309M165.5 227.766C170.5 250.326 184.8 294.64 202 291.411M1460 91.1611C1466.67 105.96 1489.5 138.104 1527.5 148.287" stroke="#FDEEF6" stroke-width="5" stroke-linecap="round"/>
<path d="M149.5 81.8474C156.833 85.159 170.4 98.4263 166 125.002M221.5 88.6776C236.5 83.5032 271.4 79.4879 291 104.822M799.5 78.7426C841.5 71.0845 905.5 75.3275 925 115.378M1256.5 92.7137C1268.5 78.5357 1306.2 51.8563 1361 58.5624" stroke="#EB539F" stroke-width="5" stroke-linecap="round"/>
<path d="M145 288.928C155.5 309.936 190.1 344.874 244.5 316.559M226.5 132.143C256 120.345 278.5 141.146 295.5 196.099M479 267.195C513.667 264.919 591.4 242.048 625 168.778M781.5 135.558C811 128.314 866.1 124.816 850.5 168.778M944.5 288.928C968 285.306 1011.1 287.872 995.5 327.115C976 376.169 962.5 424.291 1078 430.5M1315 242.669C1322.5 279.821 1323 361.763 1265 392.313M1352.5 106.995C1368 106.271 1404.2 112.708 1425 144.251C1451 183.68 1504 202.929 1549.5 196.099" stroke="white" stroke-width="5" stroke-linecap="round"/>
</svg>
