<svg width="177" height="176" viewBox="0 0 177 176" fill="none" xmlns="http://www.w3.org/2000/svg">
<mask id="path-1-inside-1_114_831" fill="white">
<path d="M88.9923 5.43044C88.9923 2.51974 91.354 0.143724 94.2595 0.317744C106.909 1.07534 119.267 4.55461 130.479 10.5415C143.243 17.3571 154.127 27.2122 162.168 39.2338C170.209 51.2555 175.158 65.0726 176.576 79.4613C177.995 93.85 175.839 108.366 170.301 121.724C164.762 135.082 156.012 146.869 144.824 156.041C133.636 165.213 120.357 171.488 106.162 174.308C91.9669 177.129 77.2948 176.409 63.445 172.212C51.2818 168.526 40.0825 162.258 30.6033 153.861C28.423 151.93 28.433 148.577 30.4937 146.518L54.1521 122.884C56.2098 120.828 59.5267 120.857 61.8152 122.652C66.0975 126.012 70.9792 128.558 76.2186 130.145C83.1435 132.244 90.4796 132.604 97.577 131.194C104.674 129.783 111.314 126.646 116.908 122.06C122.502 117.474 126.877 111.58 129.647 104.901C132.416 98.2225 133.494 90.9644 132.784 83.7701C132.075 76.5757 129.601 69.6672 125.58 63.6563C121.56 57.6455 116.118 52.718 109.736 49.3102C104.908 46.7323 99.6548 45.0842 94.2501 44.4344C91.3602 44.087 88.9923 41.7599 88.9923 38.8492V5.43044Z"/>
</mask>
<path d="M88.9923 5.43044C88.9923 2.51974 91.354 0.143724 94.2595 0.317744C106.909 1.07534 119.267 4.55461 130.479 10.5415C143.243 17.3571 154.127 27.2122 162.168 39.2338C170.209 51.2555 175.158 65.0726 176.576 79.4613C177.995 93.85 175.839 108.366 170.301 121.724C164.762 135.082 156.012 146.869 144.824 156.041C133.636 165.213 120.357 171.488 106.162 174.308C91.9669 177.129 77.2948 176.409 63.445 172.212C51.2818 168.526 40.0825 162.258 30.6033 153.861C28.423 151.93 28.433 148.577 30.4937 146.518L54.1521 122.884C56.2098 120.828 59.5267 120.857 61.8152 122.652C66.0975 126.012 70.9792 128.558 76.2186 130.145C83.1435 132.244 90.4796 132.604 97.577 131.194C104.674 129.783 111.314 126.646 116.908 122.06C122.502 117.474 126.877 111.58 129.647 104.901C132.416 98.2225 133.494 90.9644 132.784 83.7701C132.075 76.5757 129.601 69.6672 125.58 63.6563C121.56 57.6455 116.118 52.718 109.736 49.3102C104.908 46.7323 99.6548 45.0842 94.2501 44.4344C91.3602 44.087 88.9923 41.7599 88.9923 38.8492V5.43044Z" fill="url(#paint0_linear_114_831)" stroke="white" stroke-width="4.21623" mask="url(#path-1-inside-1_114_831)"/>
<g opacity="0.5">
<mask id="path-2-inside-2_114_831" fill="white">
<path d="M6.44452 82.471C3.54024 82.2736 1.32971 79.7556 1.70131 76.8684C3.44759 63.3007 8.34003 50.3252 15.988 38.9781C17.6137 36.5661 20.9329 36.1323 23.245 37.8972L49.8317 58.191C52.147 59.9583 52.5587 63.2556 51.0789 65.7643C48.506 70.1262 46.7065 74.9001 45.7603 79.874C45.2164 82.7331 42.7343 84.9375 39.8306 84.7401L6.44452 82.471Z"/>
</mask>
<path d="M6.44452 82.471C3.54024 82.2736 1.32971 79.7556 1.70131 76.8684C3.44759 63.3007 8.34003 50.3252 15.988 38.9781C17.6137 36.5661 20.9329 36.1323 23.245 37.8972L49.8317 58.191C52.147 59.9583 52.5587 63.2556 51.0789 65.7643C48.506 70.1262 46.7065 74.9001 45.7603 79.874C45.2164 82.7331 42.7343 84.9375 39.8306 84.7401L6.44452 82.471Z" fill="#EB539F" stroke="white" stroke-width="4.21623" mask="url(#path-2-inside-2_114_831)"/>
</g>
<g opacity="0.5">
<mask id="path-3-inside-3_114_831" fill="white">
<path d="M25.123 35.5492C22.8735 33.6989 22.5401 30.3625 24.5241 28.2299C31.946 20.2518 40.7985 13.7091 50.6389 8.94955C60.4819 4.18876 71.1127 1.30906 81.9834 0.441693C84.8848 0.210186 87.2931 2.53886 87.3509 5.44889L88.0138 38.8611C88.0716 41.7713 85.7502 44.1449 82.8677 44.5496C78.3473 45.1841 73.9425 46.5189 69.8147 48.5154C65.6861 50.5123 61.9054 53.1369 58.6031 56.2866C56.4984 58.2941 53.1997 58.6427 50.9533 56.795L25.123 35.5492Z"/>
</mask>
<path d="M25.123 35.5492C22.8735 33.6989 22.5401 30.3625 24.5241 28.2299C31.946 20.2518 40.7985 13.7091 50.6389 8.94955C60.4819 4.18876 71.1127 1.30906 81.9834 0.441693C84.8848 0.210186 87.2931 2.53886 87.3509 5.44889L88.0138 38.8611C88.0716 41.7713 85.7502 44.1449 82.8677 44.5496C78.3473 45.1841 73.9425 46.5189 69.8147 48.5154C65.6861 50.5123 61.9054 53.1369 58.6031 56.2866C56.4984 58.2941 53.1997 58.6427 50.9533 56.795L25.123 35.5492Z" fill="black" fill-opacity="0.4" stroke="white" stroke-width="4.21623" mask="url(#path-3-inside-3_114_831)"/>
</g>
<g opacity="0.8">
<mask id="path-4-inside-4_114_831" fill="white">
<path d="M30.4841 146.528C28.4264 148.584 25.0791 148.594 23.1481 146.419C16.0015 138.369 10.3844 129.066 6.59073 118.964C2.79784 108.865 0.903022 98.1687 0.985024 87.412C1.00719 84.5016 3.53698 82.3059 6.44076 82.5022L39.8277 84.7586C42.7321 84.9549 44.8942 87.4748 45.0467 90.3818C45.2819 94.8663 46.2042 99.2989 47.7905 103.523C49.3765 107.746 51.5999 111.69 54.3748 115.222C56.1743 117.512 56.2032 120.835 54.1425 122.894L30.4841 146.528Z"/>
</mask>
<path d="M30.4841 146.528C28.4264 148.584 25.0791 148.594 23.1481 146.419C16.0015 138.369 10.3844 129.066 6.59073 118.964C2.79784 108.865 0.903022 98.1687 0.985024 87.412C1.00719 84.5016 3.53698 82.3059 6.44076 82.5022L39.8277 84.7586C42.7321 84.9549 44.8942 87.4748 45.0467 90.3818C45.2819 94.8663 46.2042 99.2989 47.7905 103.523C49.3765 107.746 51.5999 111.69 54.3748 115.222C56.1743 117.512 56.2032 120.835 54.1425 122.894L30.4841 146.528Z" fill="url(#paint1_linear_114_831)" stroke="white" stroke-width="4.21623" mask="url(#path-4-inside-4_114_831)"/>
</g>
<defs>
<linearGradient id="paint0_linear_114_831" x1="120.32" y1="89.0474" x2="94.8742" y2="-344.432" gradientUnits="userSpaceOnUse">
<stop stop-color="#1B59F8"/>
<stop offset="1" stop-color="#1B59F8" stop-opacity="0"/>
</linearGradient>
<linearGradient id="paint1_linear_114_831" x1="57.6622" y1="87.1127" x2="83.1083" y2="520.592" gradientUnits="userSpaceOnUse">
<stop stop-color="#FF3B7E"/>
<stop offset="1" stop-color="#1B59F8" stop-opacity="0.46"/>
</linearGradient>
</defs>
</svg>
