<svg width="376" height="352" viewBox="0 0 376 352" fill="none" xmlns="http://www.w3.org/2000/svg">
<path d="M279.686 267.854C279.553 268.665 279.42 269.467 279.286 270.279C279.21 270.765 279.382 271.119 279.848 271.224C280.029 271.262 280.296 271.214 280.429 271.099C281.038 270.565 281.733 270.069 282.171 269.41C284.008 266.68 286.264 264.332 288.511 261.946C290.463 259.874 292.347 257.669 293.88 255.283C296.346 251.427 299.582 248.325 303 245.423C306.579 242.388 310.521 239.82 314.11 236.766C316.604 234.637 319.764 233.511 322.868 232.48C324.829 231.831 326.571 230.876 328.341 229.855C332.568 227.411 336.738 224.739 341.555 223.555C343.488 223.078 344.658 221.799 345.848 220.233C347.61 220.415 349.428 220.768 351.236 220.749C353.055 220.72 354.873 220.272 356.691 220.09C357.7 219.985 358.738 219.976 359.747 220.033C365.278 220.348 369.476 222.849 372.037 227.85C372.78 229.301 373.437 230.819 373.903 232.375C375.74 238.541 376.102 244.841 375.35 251.207C375.179 252.62 374.827 254.023 374.436 255.398C372.408 262.509 369.629 269.324 365.925 275.729C361.832 282.811 357.605 289.808 352.636 296.337C351.893 297.31 351.189 298.322 350.561 299.372C348.124 303.458 345.23 307.094 341.098 309.595C340.603 309.901 340.279 310.492 339.87 310.95C339.451 311.37 339.042 311.781 338.623 312.201C337.795 311.38 336.967 310.559 336.138 309.738C335.729 309.318 335.31 308.898 334.901 308.488C335.738 306.417 336.576 304.345 337.414 302.274L337.338 302.36C338.299 301.386 339.423 300.527 340.184 299.42C341.622 297.33 342.878 295.106 344.154 292.901C344.439 292.404 344.525 291.793 344.706 291.23C348.543 288.787 350.703 284.93 353.102 281.275C353.198 281.131 353.198 280.883 353.179 280.702C353.15 280.521 353.074 280.32 352.95 280.196C352.826 280.081 352.579 279.976 352.436 280.024C350.551 280.654 349.228 282.391 347.162 282.668C348.733 280.501 349.761 278.039 350.799 275.595C351.179 274.688 351.408 273.61 351.332 272.636C351.16 270.718 351.446 268.914 352.455 267.339C354.235 264.551 353.807 260.915 356.015 258.309C356.253 258.032 356.263 257.536 356.32 257.135C356.815 253.909 357.367 250.682 357.758 247.437C358.024 245.213 358.148 242.951 358.167 240.708C358.176 239.505 357.957 238.255 357.586 237.1C356.986 235.219 355.654 234.007 353.645 233.682C350.979 233.243 348.39 233.663 345.772 234.236C337.699 236.002 330.331 239.581 323.22 243.552C316.632 247.227 310.54 251.723 304.818 256.715C300.972 260.075 296.974 263.234 293.471 266.976C292.919 267.568 292.262 268.093 291.586 268.532C289.33 270.011 287.616 272.035 285.826 274.001L285.874 274.049C285.855 272.808 285.836 271.567 285.807 270.317L285.865 270.374C285.122 271.061 284.322 271.701 283.656 272.455C282.58 273.677 281.657 275.042 280.533 276.225C279.858 276.951 279.01 277.657 278.106 277.991C276.992 278.402 276.335 277.294 275.555 276.693C275.021 276.282 274.412 276.349 273.822 276.588C273.441 276.741 273.079 276.951 272.689 277.056C271.747 277.313 270.976 277.065 270.519 276.387C268.358 273.152 266.311 269.887 265.911 265.831C265.749 264.227 265.131 262.662 264.683 261.087C264.093 259.034 262.846 257.412 261.094 256.266C259.561 255.264 257.905 254.443 256.268 253.613C248.747 249.795 240.922 250.052 232.992 251.895C232.792 251.942 232.601 252.028 232.411 252.086C230.583 252.706 229.241 253.928 228.375 255.627C227.918 256.534 227.528 257.488 227.242 258.462C225.186 265.516 225.281 272.598 227.223 279.652C227.937 282.229 229.117 284.625 230.698 286.792C234.439 291.937 238.609 296.69 243.663 300.594C252.412 307.371 261.818 313.041 271.937 317.537C276.04 319.36 280.172 321.126 284.17 323.13C289.453 325.784 294.766 328.409 299.744 331.635C300.934 332.408 302.239 333.009 303.514 333.639C304.314 334.031 305.713 333.687 306.342 333.009C306.894 332.408 307.446 331.797 307.941 331.158C311.311 326.795 314.614 322.376 318.032 318.052C320.05 315.484 322.258 313.003 325.019 311.275C326.599 310.292 328.103 309.366 329.274 307.906C329.389 307.762 329.969 307.925 330.303 308.039C330.436 308.087 330.569 308.383 330.55 308.555C330.407 309.767 330.226 310.97 330.055 312.182C329.503 312.344 328.951 312.497 328.408 312.688C328.246 312.745 328.085 312.907 327.999 313.07C327.932 313.203 327.97 313.404 327.961 313.575C328.284 313.547 328.713 313.633 328.913 313.461C329.341 313.089 329.646 312.583 329.998 312.125C331.645 310.893 333.282 309.662 334.929 308.44C335.348 308.851 335.767 309.271 336.186 309.681C335.396 310.817 334.596 311.943 333.806 313.079C333.473 313.566 333.149 314.062 332.825 314.559C332.473 315.103 332.644 316.057 333.149 316.105C333.692 316.162 334.444 316.191 334.796 315.876C336.119 314.702 337.328 313.385 338.575 312.125C338.994 311.705 339.403 311.294 339.822 310.874C340.346 311.829 340.394 312.802 339.88 313.757C338.528 316.258 336.757 318.463 334.853 320.534C334.187 321.259 333.33 321.842 332.483 322.376C331.302 323.13 330.055 323.779 328.827 324.466L328.77 324.409C329.732 325.707 329.874 327.015 328.713 328.256C327.323 329.735 325.952 331.215 325.086 333.086C324.181 335.033 322.687 336.283 320.669 336.999C320.126 337.19 319.679 337.658 319.06 338.087C318.936 338.822 318.85 339.615 318.66 340.388C318.47 341.161 318.393 342.115 317.889 342.64C315.909 344.731 314.824 347.403 313.177 349.704C312.71 350.353 312.139 350.935 311.558 351.498C310.682 352.357 308.997 352.061 308.436 350.973C308.255 350.62 308.131 350.219 308.036 349.837C307.617 348.196 306.846 348.291 305.97 349.036C305.513 349.427 305.056 349.837 304.571 350.191C303.971 350.63 303.609 350.353 302.981 349.045L303.029 349.083C301.21 348.902 299.363 348.845 297.64 347.919C297.193 346.153 296.679 344.387 294.756 343.576C291.576 340.302 287.578 338.183 283.808 335.739C281.914 334.508 279.962 333.42 277.725 332.904C275.916 332.484 274.365 331.473 272.756 330.566C269.376 328.657 265.921 326.862 262.446 325.125C261.37 324.581 260.142 324.142 258.962 324.056C256.401 323.875 254.231 322.796 252.127 321.517C249.851 320.133 247.595 318.768 245.082 317.823C243.759 317.327 242.521 316.525 241.379 315.685C238.904 313.881 236.571 311.867 233.811 310.464C233.268 310.187 232.783 309.776 232.345 309.356C227.813 304.918 223.491 300.289 219.779 295.125C218.808 293.779 218.122 292.357 218.446 290.552C218.75 288.873 217.989 287.336 217.351 285.828C215.809 282.21 214.952 278.43 214.724 274.507C214.686 273.925 214.847 273.285 215.076 272.751C215.161 272.55 215.856 272.379 216.056 272.512C218.189 273.963 219.255 276.149 220.14 278.487C220.264 278.812 220.673 279.041 220.987 279.27C221.025 279.299 221.406 279.031 221.387 278.955C220.978 277.17 220.569 275.385 220.093 273.619C219.883 272.846 219.522 272.102 219.293 271.519C219.541 269.257 220.807 267.482 220.702 265.353C220.616 263.645 220.416 262.27 218.655 261.287C217.294 260.523 217.246 258.863 217.599 257.393C218.103 255.331 219.255 253.584 220.94 252.362C223.082 250.816 225.357 249.413 227.68 248.134C229.46 247.151 231.421 246.482 233.287 245.652C235.41 244.698 237.59 244.497 239.875 244.927C245.729 246.015 251.498 247.332 256.639 250.549C256.81 250.654 257.01 250.759 257.201 250.778C257.581 250.806 258.067 250.892 258.314 250.701C258.486 250.568 258.438 249.976 258.314 249.661C258.086 249.098 257.648 248.621 257.448 248.048C257.324 247.714 257.429 247.256 257.543 246.883C257.677 246.444 258.629 246.091 259.133 246.292C260.076 246.664 261.113 246.931 261.894 247.532C265.15 250.043 268.11 252.878 270.281 256.409C272.527 260.075 274.907 263.673 276.135 267.864C276.469 268.99 277.344 269.171 278.629 268.475C278.991 268.284 279.353 268.083 279.705 267.892C279.743 267.902 279.686 267.854 279.686 267.854ZM322.668 320.792C322.382 321.04 322.078 321.269 321.821 321.536C321.735 321.622 321.792 321.842 321.782 321.994C322.449 321.842 322.43 321.221 322.63 320.753L322.668 320.792ZM267.349 256.467C267.434 256.324 267.663 256.114 267.615 256.018C266.606 253.765 264.902 252.162 262.798 250.95C262.713 250.902 262.417 251.055 262.332 251.179C262.237 251.312 262.189 251.589 262.265 251.723C263.398 253.66 265.016 255.121 266.777 256.448C266.901 256.543 267.149 256.467 267.349 256.467ZM221.254 257.469C221.425 257.517 221.654 257.66 221.759 257.603C221.911 257.517 222.082 257.278 222.063 257.116C222.016 256.514 221.711 256.429 221.321 256.887C221.216 257.011 221.273 257.269 221.254 257.469Z" fill="#EB539F"/>
<path d="M217.104 266.642C217.532 266.68 217.751 266.928 217.675 267.367C217.589 267.806 217.294 267.978 216.894 267.825C216.761 267.768 216.637 267.568 216.589 267.415C216.475 266.976 216.666 266.709 217.104 266.642Z" fill="#EB539F"/>
<path d="M279.743 267.902C280.153 267.081 280.552 266.26 280.962 265.43L280.905 265.372C280.495 266.193 280.096 267.024 279.686 267.845C279.686 267.854 279.743 267.902 279.743 267.902Z" fill="#EB539F"/>
<path d="M347.229 282.582C347.181 284.634 346.791 286.582 345.82 288.433C345.353 289.321 345.115 290.323 344.773 291.268C343.373 292.061 341.974 292.872 340.565 293.636C340.422 293.712 340.079 293.674 339.994 293.559C339.775 293.263 339.613 292.91 339.508 292.557C339.461 292.395 339.556 292.137 339.661 291.984C341.936 288.653 343.84 285.016 347.229 282.582Z" fill="#EB539F"/>
<path d="M337.423 302.264C335.929 302.856 334.539 303.849 332.806 303.572C332.635 303.543 332.435 303.381 332.33 303.228C332.235 303.076 332.149 302.808 332.216 302.665C333.111 300.756 334.539 299.372 336.424 298.456C336.881 298.236 337.795 298.78 337.738 299.334C337.642 300.346 337.481 301.348 337.347 302.35L337.423 302.264Z" fill="#EB539F"/>
<path d="M285.826 273.982L285.874 274.03C285.874 274.039 285.826 273.982 285.826 273.982Z" fill="#EB539F"/>
<path d="M85.3374 250.472C85.568 251.131 85.7946 251.782 86.0251 252.44C86.1663 252.834 86.4368 253.027 86.8255 252.917C86.9751 252.872 87.1535 252.729 87.2059 252.59C87.4408 251.945 87.7546 251.295 87.8119 250.627C88.0663 247.85 88.7865 245.189 89.484 242.503C90.0904 240.171 90.5932 237.766 90.7611 235.369C91.0241 231.499 92.1654 227.88 93.5221 224.336C94.9446 220.628 96.8252 217.122 98.247 213.395C99.2327 210.801 101.12 208.685 103.003 206.662C104.194 205.386 105.099 203.971 105.997 202.494C108.14 198.965 110.148 195.288 113.24 192.459C114.48 191.322 114.829 189.896 115.076 188.249C116.456 187.672 117.948 187.2 119.282 186.455C120.619 185.698 121.785 184.629 123.06 183.759C123.766 183.273 124.532 182.846 125.303 182.481C129.534 180.48 133.663 180.646 137.593 183.337C138.733 184.118 139.837 184.983 140.814 185.954C144.681 189.805 147.507 194.353 149.534 199.4C149.981 200.522 150.289 201.709 150.558 202.891C151.941 209.009 152.646 215.21 152.5 221.479C152.34 228.41 152.046 235.331 151.011 242.204C150.855 243.23 150.744 244.268 150.704 245.305C150.555 249.333 149.885 253.213 147.836 256.746C147.593 257.174 147.593 257.745 147.475 258.252C147.335 258.734 147.198 259.206 147.058 259.688C146.11 259.411 145.163 259.134 144.215 258.857C143.741 258.71 143.26 258.566 142.79 258.426C142.57 256.544 142.35 254.663 142.131 252.781L142.109 252.875C142.427 251.761 142.911 250.667 143.027 249.535C143.244 247.396 143.273 245.231 143.324 243.073C143.334 242.588 143.15 242.098 143.055 241.605C144.909 238.234 144.946 234.487 145.241 230.794C145.253 230.649 145.153 230.464 145.065 230.336C144.97 230.213 144.832 230.094 144.69 230.052C144.552 230.017 144.325 230.038 144.239 230.132C143.097 231.363 142.82 233.192 141.401 234.233C141.686 231.984 141.449 229.734 141.226 227.494C141.14 226.664 140.872 225.768 140.42 225.074C139.514 223.714 138.993 222.254 139.102 220.673C139.291 217.877 137.497 215.341 138.077 212.506C138.141 212.204 137.947 211.83 137.826 211.508C136.883 208.905 135.983 206.278 134.955 203.702C134.249 201.937 133.423 200.202 132.526 198.523C132.045 197.623 131.375 196.78 130.63 196.07C129.422 194.911 127.941 194.547 126.32 195.117C124.164 195.867 122.414 197.227 120.705 198.712C115.434 203.291 111.422 208.936 107.76 214.769C104.366 220.17 101.672 225.982 99.4555 232.014C97.9671 236.072 96.2844 240.042 95.2052 244.246C95.0359 244.91 94.7619 245.567 94.4388 246.167C93.3661 248.181 92.9167 250.381 92.3876 252.57L92.4423 252.586C91.9244 251.669 91.4064 250.753 90.8775 249.833L90.9431 249.852C90.6714 250.664 90.3379 251.464 90.1498 252.295C89.848 253.64 89.7173 255.031 89.3647 256.366C89.1579 257.18 88.8162 258.049 88.2811 258.663C87.6216 259.419 86.6849 258.86 85.8617 258.727C85.2996 258.637 84.8748 258.933 84.5339 259.35C84.3135 259.617 84.1305 259.92 83.8836 260.156C83.2892 260.729 82.6165 260.856 82.0024 260.536C79.0857 258.998 76.2422 257.394 74.2985 254.533C73.5274 253.404 72.4328 252.487 71.4614 251.495C70.1904 250.205 68.6065 249.5 66.8422 249.354C65.2985 249.227 63.7365 249.285 62.1848 249.328C55.0564 249.524 49.3569 252.879 44.2231 257.457C44.0942 257.573 43.9878 257.714 43.8698 257.834C42.766 259.035 42.2665 260.488 42.3138 262.104C42.3431 262.964 42.4412 263.833 42.6247 264.674C43.9636 270.761 46.9099 275.999 51.2144 280.469C52.7904 282.101 54.6388 283.408 56.6907 284.384C61.5547 286.704 66.5773 288.561 71.9119 289.426C81.1526 290.938 90.431 291.361 99.7622 290.619C103.546 290.319 107.327 289.965 111.107 289.842C116.103 289.683 121.109 289.491 126.112 289.883C127.308 289.978 128.52 289.898 129.722 289.852C130.474 289.82 131.372 288.999 131.563 288.24C131.729 287.569 131.89 286.89 131.997 286.214C132.726 281.602 133.382 276.974 134.161 272.371C134.615 269.642 135.246 266.9 136.592 264.497C137.365 263.126 138.105 261.828 138.38 260.267C138.407 260.114 138.903 260 139.197 259.951C139.315 259.932 139.534 260.099 139.59 260.235C139.976 261.195 140.33 262.165 140.695 263.137C140.352 263.481 140.004 263.818 139.679 264.18C139.583 264.288 139.528 264.474 139.531 264.63C139.536 264.756 139.645 264.89 139.708 265.022C139.936 264.87 140.289 264.761 140.368 264.552C140.534 264.101 140.555 263.601 140.63 263.117C141.351 261.534 142.066 259.955 142.792 258.379C143.269 258.516 143.75 258.659 144.227 258.796C144.102 259.961 143.967 261.124 143.842 262.289C143.792 262.787 143.754 263.287 143.715 263.788C143.675 264.336 144.19 264.978 144.583 264.809C145.009 264.632 145.578 264.35 145.712 263.973C146.216 262.563 146.578 261.093 146.992 259.65C147.132 259.168 147.269 258.697 147.409 258.215C148.185 258.714 148.616 259.42 148.622 260.339C148.635 262.749 148.217 265.107 147.645 267.42C147.446 268.23 147.047 269.01 146.635 269.751C146.066 270.79 145.404 271.777 144.772 272.786L144.707 272.766C145.947 273.345 146.584 274.261 146.226 275.655C145.796 277.319 145.38 278.976 145.497 280.72C145.617 282.536 145.016 284.072 143.81 285.421C143.485 285.782 143.343 286.312 143.058 286.882C143.265 287.48 143.523 288.104 143.696 288.757C143.869 289.41 144.2 290.152 144.039 290.747C143.419 293.105 143.699 295.535 143.411 297.915C143.329 298.587 143.142 299.252 142.94 299.906C142.639 300.9 141.269 301.361 140.41 300.777C140.133 300.587 139.878 300.338 139.653 300.092C138.675 299.038 138.142 299.421 137.795 300.33C137.615 300.806 137.443 301.297 137.226 301.756C136.959 302.326 136.579 302.266 135.582 301.545L135.632 301.555C134.21 302.154 132.817 302.858 131.163 302.865C130.114 301.73 129.016 300.623 127.26 300.795C123.572 299.641 119.746 299.679 115.958 299.382C114.053 299.231 112.164 299.209 110.295 299.729C108.783 300.147 107.221 300.021 105.66 299.996C102.378 299.939 99.0862 299.999 95.8035 300.11C94.7847 300.139 93.6957 300.308 92.7852 300.722C90.8122 301.622 88.7644 301.695 86.6846 301.593C84.435 301.481 82.2072 301.377 79.9594 301.688C78.7764 301.854 77.533 301.756 76.3446 301.592C73.7763 301.249 71.2286 300.691 68.6112 300.762C68.0964 300.775 67.5696 300.665 67.0742 300.529C61.911 299.054 56.8257 297.352 51.9752 295.006C50.7085 294.396 49.6226 293.613 49.1301 292.138C48.674 290.764 47.4852 289.926 46.3998 289.061C43.787 286.989 41.6168 284.519 39.8544 281.689C39.5898 281.27 39.4501 280.728 39.4025 280.238C39.3847 280.054 39.8304 279.645 40.0329 279.664C42.2037 279.883 43.882 281.08 45.4882 282.464C45.7118 282.656 46.1084 282.661 46.4344 282.705C46.4743 282.711 46.6483 282.358 46.6032 282.309C45.5748 281.144 44.5464 279.98 43.4763 278.857C43.0071 278.366 42.4366 277.957 42.0307 277.616C41.2957 275.83 41.514 273.996 40.572 272.452C39.8148 271.214 39.1083 270.271 37.4028 270.25C36.083 270.231 35.3735 269.013 35.0379 267.776C34.575 266.036 34.7201 264.269 35.4739 262.677C36.4347 260.659 37.5525 258.694 38.756 256.802C39.6772 255.35 40.8606 254.06 41.9074 252.687C43.0944 251.118 44.63 250.087 46.499 249.484C51.2833 247.928 56.0972 246.577 61.2162 246.896C61.386 246.904 61.5768 246.902 61.7257 246.839C62.0198 246.707 62.4149 246.574 62.521 246.332C62.5938 246.163 62.3182 245.742 62.0986 245.557C61.7004 245.23 61.1817 245.051 60.8009 244.705C60.5735 244.506 60.4652 244.123 60.3988 243.799C60.3193 243.418 60.882 242.77 61.3376 242.716C62.1878 242.612 63.0661 242.392 63.8892 242.524C67.3234 243.078 70.6703 243.994 73.7142 245.748C76.8688 247.57 80.0953 249.289 82.7075 251.915C83.412 252.619 84.1351 252.4 84.8055 251.362C84.9963 251.073 85.1833 250.778 85.367 250.493C85.3992 250.485 85.3374 250.472 85.3374 250.472ZM138.712 272.538C138.601 272.838 138.468 273.132 138.386 273.435C138.357 273.533 138.489 273.674 138.544 273.792C138.976 273.408 138.71 272.954 138.668 272.525L138.712 272.538ZM71.5628 246.975C71.5682 246.834 71.6524 246.585 71.5783 246.533C69.9152 245.263 68.0002 244.757 65.9475 244.704C65.8645 244.704 65.7077 244.937 65.6945 245.064C65.6781 245.202 65.7552 245.427 65.8659 245.496C67.4929 246.482 69.2863 246.916 71.1313 247.192C71.2618 247.213 71.4145 247.056 71.5628 246.975ZM37.7802 266.355C37.9267 266.321 38.1543 266.336 38.2087 266.251C38.2868 266.125 38.3171 265.878 38.2371 265.765C37.9576 265.336 37.6967 265.395 37.5933 265.894C37.566 266.029 37.7129 266.198 37.7802 266.355Z" fill="#EB539F"/>
<path d="M38.4262 274.867C38.7594 274.722 39.0225 274.818 39.1443 275.176C39.259 275.538 39.11 275.785 38.7514 275.833C38.6293 275.844 38.4561 275.745 38.3588 275.651C38.0958 275.37 38.1285 275.094 38.4262 274.867Z" fill="#EB539F"/>
<path d="M85.3992 250.485C85.3695 249.708 85.3326 248.934 85.2991 248.15L85.2336 248.131C85.2633 248.908 85.3039 249.688 85.3335 250.465C85.3374 250.472 85.3992 250.485 85.3992 250.485Z" fill="#EB539F"/>
<path d="M141.415 234.142C142.213 235.691 142.714 237.299 142.746 239.071C142.76 239.921 142.991 240.764 143.12 241.607C142.404 242.763 141.696 243.933 140.961 245.071C140.886 245.186 140.616 245.296 140.506 245.245C140.223 245.113 139.96 244.916 139.739 244.695C139.638 244.593 139.604 244.363 139.619 244.206C139.954 240.805 139.89 237.326 141.415 234.142Z" fill="#EB539F"/>
<path d="M142.134 252.77C141.266 253.815 140.638 255.116 139.24 255.61C139.102 255.658 138.887 255.618 138.748 255.547C138.615 255.471 138.443 255.307 138.434 255.173C138.323 253.389 138.82 251.781 139.846 250.336C140.096 249.988 140.995 250.024 141.177 250.46C141.517 251.252 141.804 252.064 142.112 252.865L142.134 252.77Z" fill="#EB539F"/>
<path d="M92.3799 252.556L92.4346 252.572C92.4385 252.579 92.3799 252.556 92.3799 252.556Z" fill="#EB539F"/>
<path d="M214.03 109.587C213.812 110.07 213.596 110.548 213.378 111.031C213.249 111.321 213.297 111.569 213.568 111.712C213.674 111.766 213.848 111.781 213.949 111.731C214.416 111.5 214.93 111.306 215.311 110.969C216.905 109.574 218.696 108.487 220.487 107.374C222.042 106.409 223.578 105.349 224.926 104.118C227.098 102.126 229.622 100.732 232.225 99.4929C234.95 98.1974 237.822 97.2533 240.556 95.9475C242.457 95.0364 244.605 94.8601 246.7 94.7337C248.024 94.6553 249.263 94.3503 250.531 94.0085C253.559 93.189 256.59 92.2175 259.774 92.2806C261.051 92.3044 261.99 91.7025 262.989 90.9254C264.051 91.3309 265.119 91.8528 266.243 92.1413C267.375 92.4255 268.577 92.4482 269.735 92.6373C270.378 92.7395 271.022 92.9059 271.638 93.1092C275.015 94.224 277.2 96.4786 277.953 100.018C278.171 101.045 278.325 102.099 278.355 103.145C278.465 107.29 277.638 111.273 276.11 115.112C275.768 115.963 275.315 116.778 274.844 117.569C272.4 121.66 269.54 125.442 266.176 128.815C262.457 132.545 258.669 136.2 254.5 139.439C253.877 139.922 253.271 140.435 252.707 140.985C250.514 143.124 248.114 144.907 245.135 145.778C244.777 145.886 244.478 146.201 244.148 146.418C243.818 146.61 243.496 146.798 243.166 146.99C242.79 146.341 242.413 145.692 242.037 145.044C241.853 144.714 241.664 144.383 241.478 144.06C242.343 142.909 243.208 141.758 244.073 140.608L244.011 140.649C244.77 140.202 245.61 139.854 246.266 139.291C247.506 138.228 248.656 137.052 249.815 135.891C250.075 135.629 250.23 135.263 250.436 134.943C253.222 134.058 255.205 132.016 257.302 130.138C257.385 130.065 257.426 129.91 257.445 129.794C257.457 129.677 257.443 129.539 257.387 129.441C257.33 129.35 257.194 129.243 257.097 129.249C255.824 129.328 254.714 130.19 253.387 130.019C254.722 128.931 255.77 127.568 256.821 126.219C257.209 125.718 257.53 125.084 257.645 124.465C257.859 123.242 258.337 122.166 259.226 121.353C260.794 119.914 261.135 117.578 262.939 116.322C263.133 116.19 263.222 115.882 263.324 115.642C264.169 113.715 265.05 111.798 265.833 109.842C266.369 108.502 266.823 107.114 267.209 105.72C267.416 104.973 267.489 104.158 267.451 103.377C267.393 102.107 266.769 101.13 265.578 100.595C263.999 99.8786 262.324 99.71 260.606 99.6317C255.307 99.3904 250.142 100.395 245.071 101.687C240.375 102.881 235.848 104.668 231.468 106.826C228.523 108.279 225.518 109.582 222.722 111.33C222.281 111.607 221.786 111.825 221.294 111.986C219.648 112.532 218.249 113.508 216.811 114.435L216.833 114.472C217.028 113.697 217.223 112.921 217.414 112.138L217.44 112.183C216.865 112.487 216.262 112.753 215.724 113.111C214.853 113.694 214.053 114.39 213.159 114.94C212.619 115.28 211.976 115.579 211.359 115.637C210.6 115.707 210.378 114.909 209.994 114.405C209.732 114.061 209.344 114.001 208.938 114.052C208.676 114.083 208.417 114.154 208.158 114.155C207.53 114.159 207.094 113.876 206.924 113.378C206.124 111.004 205.4 108.632 205.829 106.039C205.996 105.014 205.874 103.936 205.859 102.882C205.836 101.506 205.333 100.288 204.439 99.284C203.656 98.4053 202.766 97.619 201.889 96.83C197.864 93.2035 192.97 92.0642 187.747 91.8941C187.615 91.8906 187.483 91.9124 187.355 91.9165C186.119 91.9992 185.083 92.537 184.263 93.451C183.828 93.9397 183.427 94.4693 183.087 95.0281C180.636 99.0787 179.513 103.504 179.54 108.219C179.553 109.943 179.885 111.63 180.503 113.242C181.964 117.067 183.755 120.719 186.238 123.99C190.53 129.663 195.415 134.755 200.938 139.236C203.177 141.052 205.443 142.838 207.588 144.75C210.42 147.28 213.275 149.797 215.823 152.633C216.432 153.312 217.14 153.903 217.826 154.507C218.256 154.884 219.181 154.902 219.683 154.584C220.126 154.302 220.57 154.013 220.984 153.697C223.8 151.541 226.586 149.338 229.426 147.213C231.105 145.949 232.888 144.771 234.888 144.154C236.031 143.804 237.118 143.477 238.088 142.762C238.182 142.692 238.515 142.89 238.703 143.016C238.777 143.068 238.811 143.275 238.77 143.379C238.479 144.11 238.167 144.828 237.858 145.555C237.489 145.564 237.121 145.568 236.753 145.596C236.643 145.605 236.516 145.679 236.435 145.766C236.372 145.838 236.362 145.969 236.327 146.075C236.533 146.111 236.784 146.235 236.937 146.161C237.264 146.001 237.538 145.736 237.832 145.51C239.059 145.017 240.279 144.522 241.504 144.035C241.695 144.36 241.885 144.691 242.076 145.016C241.397 145.592 240.713 146.16 240.034 146.736C239.746 146.984 239.462 147.24 239.179 147.495C238.87 147.775 238.817 148.398 239.122 148.511C239.448 148.637 239.91 148.78 240.181 148.642C241.197 148.131 242.166 147.512 243.149 146.934C243.479 146.742 243.801 146.555 244.131 146.363C244.296 147.044 244.163 147.658 243.686 148.167C242.43 149.5 240.965 150.579 239.439 151.552C238.905 151.893 238.277 152.113 237.662 152.306C236.805 152.579 235.923 152.776 235.047 153L235.022 152.955C235.401 153.923 235.271 154.761 234.344 155.341C233.236 156.031 232.139 156.724 231.29 157.745C230.405 158.808 229.27 159.338 227.899 159.449C227.531 159.477 227.175 159.694 226.72 159.859C226.521 160.296 226.336 160.775 226.088 161.225C225.841 161.675 225.635 162.256 225.235 162.499C223.658 163.472 222.54 164.956 221.135 166.115C220.738 166.441 220.286 166.709 219.832 166.963C219.146 167.353 218.151 166.889 217.984 166.118C217.931 165.868 217.921 165.598 217.926 165.344C217.94 164.252 217.446 164.184 216.779 164.502C216.431 164.669 216.079 164.849 215.719 164.988C215.274 165.162 215.096 164.93 214.925 164.011L214.948 164.043C213.851 163.628 212.716 163.285 211.802 162.423C211.819 161.249 211.795 160.064 210.738 159.239C209.314 156.673 207.189 154.689 205.259 152.541C204.291 151.46 203.262 150.458 201.962 149.766C200.91 149.204 200.117 148.316 199.271 147.484C197.495 145.734 195.652 144.043 193.788 142.384C193.212 141.867 192.524 141.389 191.807 141.14C190.249 140.601 189.084 139.569 187.993 138.423C186.814 137.184 185.643 135.959 184.242 134.953C183.505 134.424 182.872 133.72 182.304 133.007C181.07 131.472 179.96 129.831 178.483 128.499C178.193 128.236 177.96 127.9 177.759 127.566C175.691 124.049 173.784 120.449 172.344 116.617C171.967 115.618 171.779 114.618 172.28 113.549C172.75 112.553 172.534 111.47 172.39 110.425C172.038 107.916 172.137 105.42 172.65 102.94C172.724 102.571 172.931 102.199 173.161 101.904C173.248 101.794 173.708 101.802 173.809 101.919C174.889 103.176 175.185 104.715 175.344 106.318C175.366 106.54 175.582 106.751 175.738 106.946C175.757 106.97 176.038 106.867 176.039 106.816C176.083 105.637 176.127 104.457 176.127 103.279C176.126 102.762 176.026 102.239 175.981 101.838C176.512 100.471 177.593 99.5757 177.883 98.2329C178.115 97.1548 178.221 96.2657 177.293 95.361C176.577 94.6594 176.824 93.6174 177.288 92.7606C177.945 91.5607 178.95 90.6643 180.198 90.1835C181.784 89.5764 183.429 89.0806 185.082 88.67C186.349 88.3536 187.677 88.2633 188.972 88.0561C190.447 87.8144 191.832 88.0517 193.177 88.6986C196.624 90.3486 199.981 92.1271 202.631 94.9839C202.719 95.0777 202.826 95.1763 202.941 95.2198C203.172 95.3008 203.459 95.435 203.644 95.3573C203.772 95.3025 203.842 94.9261 203.817 94.7094C203.77 94.3208 203.578 93.9509 203.549 93.5611C203.528 93.3325 203.67 93.0646 203.803 92.8518C203.959 92.6006 204.608 92.5388 204.887 92.7474C205.409 93.1357 206.008 93.4745 206.391 93.9786C207.991 96.0825 209.353 98.3394 210.109 100.899C210.89 103.554 211.765 106.19 211.828 109.004C211.846 109.76 212.359 110.019 213.272 109.798C213.528 109.739 213.786 109.675 214.036 109.614C214.058 109.627 214.03 109.587 214.03 109.587ZM231.842 149.689C231.624 149.796 231.397 149.888 231.193 150.012C231.126 150.051 231.124 150.197 231.093 150.291C231.531 150.306 231.623 149.917 231.825 149.659L231.842 149.689ZM208.282 100.448C208.359 100.373 208.536 100.28 208.522 100.213C208.273 98.6424 207.484 97.3608 206.382 96.2565C206.337 96.2126 206.128 96.2587 206.055 96.3217C205.973 96.3891 205.897 96.5535 205.922 96.6494C206.301 98.0441 207.061 99.2222 207.931 100.341C207.992 100.421 208.158 100.414 208.282 100.448ZM179.541 93.4153C179.639 93.4735 179.757 93.6006 179.832 93.5824C179.94 93.5542 180.086 93.434 180.102 93.3298C180.172 92.9475 179.998 92.8434 179.68 93.0639C179.594 93.1237 179.586 93.2937 179.541 93.4153Z" fill="#EB539F"/>
<path d="M175.438 98.4375C175.697 98.5325 175.791 98.7233 175.671 98.9841C175.544 99.2432 175.333 99.3012 175.11 99.1397C175.037 99.0819 174.994 98.9366 174.99 98.8336C174.992 98.5412 175.155 98.4064 175.438 98.4375Z" fill="#EB539F"/>
<path d="M214.058 109.627C214.449 109.183 214.833 108.739 215.226 108.29L215.2 108.245C214.809 108.688 214.423 109.138 214.032 109.581C214.03 109.587 214.058 109.627 214.058 109.627Z" fill="#EB539F"/>
<path d="M253.443 129.977C253.071 131.247 252.504 132.394 251.593 133.386C251.156 133.861 250.841 134.446 250.471 134.977C249.471 135.238 248.468 135.511 247.468 135.753C247.366 135.776 247.16 135.696 247.126 135.61C247.04 135.389 246.998 135.143 246.992 134.905C246.99 134.796 247.092 134.652 247.182 134.574C249.149 132.878 250.936 130.93 253.443 129.977Z" fill="#EB539F"/>
<path d="M244.08 140.603C243.055 140.724 242.028 141.111 241 140.651C240.899 140.605 240.802 140.47 240.762 140.358C240.729 140.247 240.72 140.066 240.786 139.988C241.659 138.948 242.775 138.324 244.096 138.066C244.416 138.005 244.892 138.496 244.764 138.831C244.536 139.445 244.269 140.042 244.019 140.644L244.08 140.603Z" fill="#EB539F"/>
<path d="M216.814 114.423L216.836 114.461C216.834 114.467 216.814 114.423 216.814 114.423Z" fill="#EB539F"/>
<path d="M116.216 32.6854C116.347 32.9344 116.475 33.1809 116.605 33.43C116.684 33.5787 116.803 33.6403 116.951 33.5738C117.008 33.5473 117.071 33.4798 117.084 33.4213C117.14 33.1508 117.228 32.8733 117.212 32.6038C117.152 31.4823 117.285 30.3796 117.408 29.2685C117.515 28.3038 117.576 27.3162 117.504 26.3508C117.385 24.793 117.63 23.2841 117.965 21.793C118.318 20.2324 118.864 18.7259 119.215 17.1582C119.458 16.067 120.088 15.114 120.721 14.1987C121.122 13.621 121.401 13.0044 121.673 12.3637C122.323 10.8328 122.911 9.25096 123.979 7.94418C124.408 7.41927 124.464 6.83051 124.467 6.15956C124.984 5.84972 125.551 5.57523 126.04 5.20087C126.529 4.82195 126.932 4.32818 127.39 3.9075C127.643 3.67284 127.924 3.45846 128.21 3.26818C129.781 2.22552 131.436 2.05258 133.159 2.89776C133.659 3.14298 134.149 3.42397 134.594 3.75425C136.359 5.06554 137.749 6.71452 138.849 8.60909C139.092 9.03039 139.284 9.48599 139.459 9.94153C140.365 12.3 141.005 14.7312 141.31 17.2385C141.647 20.0107 141.931 22.7867 141.916 25.5864C141.914 26.0042 141.929 26.4246 141.974 26.84C142.148 28.4546 142.105 30.0397 141.493 31.5668C141.421 31.7514 141.454 31.9793 141.437 32.1881C141.409 32.3885 141.381 32.5843 141.353 32.7846C140.96 32.7291 140.566 32.6737 140.172 32.6182C139.975 32.5869 139.774 32.5575 139.579 32.5288C139.382 31.7914 139.186 31.054 138.989 30.3166L138.986 30.3556C139.048 29.8931 139.178 29.429 139.158 28.9707C139.121 28.1057 139.007 27.2411 138.903 26.3777C138.879 26.1837 138.777 25.9991 138.711 25.8082C139.254 24.357 139.052 22.8614 138.956 21.3721C138.952 21.3135 138.901 21.2456 138.859 21.1999C138.814 21.1561 138.752 21.1169 138.693 21.1082C138.636 21.1021 138.547 21.1239 138.518 21.1661C138.134 21.7231 138.13 22.4682 137.624 22.9655C137.608 22.0524 137.383 21.1691 137.164 20.2891C137.082 19.9634 136.923 19.6218 136.703 19.3711C136.263 18.8814 135.971 18.3298 135.923 17.6931C135.836 16.5676 134.974 15.6605 135.041 14.4971C135.049 14.3729 134.95 14.2352 134.883 14.1139C134.357 13.1306 133.846 12.1356 133.286 11.1684C132.903 10.5058 132.473 9.86194 132.018 9.24463C131.774 8.91378 131.458 8.61654 131.121 8.37646C130.572 7.98463 129.961 7.92511 129.347 8.2463C128.531 8.67023 127.913 9.31354 127.317 10.0045C125.481 12.1349 124.209 14.6176 123.087 17.1548C122.047 19.5042 121.31 21.9771 120.775 24.51C120.417 26.2137 119.976 27.8937 119.789 29.6319C119.76 29.9065 119.689 30.1841 119.595 30.4421C119.284 31.3072 119.232 32.2103 119.148 33.1133L119.171 33.1166C118.912 32.7811 118.652 32.4457 118.388 32.1096L118.415 32.1136C118.354 32.4531 118.267 32.7912 118.24 33.1334C118.198 33.687 118.226 34.2488 118.163 34.8017C118.128 35.138 118.042 35.5041 117.864 35.7801C117.645 36.1196 117.239 35.9509 116.904 35.9457C116.674 35.9423 116.522 36.0849 116.41 36.2706C116.338 36.3901 116.282 36.5214 116.198 36.6297C115.994 36.8926 115.733 36.9821 115.47 36.89C114.218 36.4461 112.992 35.9711 112.051 34.9433C111.678 34.5378 111.189 34.236 110.744 33.8966C110.163 33.4559 109.491 33.2666 108.779 33.3109C108.156 33.3496 107.537 33.4632 106.921 33.5702C104.091 34.061 102.013 35.7285 100.232 37.8507C100.187 37.9045 100.153 37.9669 100.113 38.0214C99.7425 38.5641 99.6275 39.1722 99.74 39.8136C99.8015 40.1549 99.8909 40.4956 100.013 40.8201C100.899 43.1688 102.377 45.0862 104.351 46.6189C105.074 47.1779 105.887 47.5922 106.761 47.8622C108.834 48.5056 110.944 48.9546 113.121 48.9906C116.892 49.0584 120.615 48.6894 124.292 47.8536C125.782 47.5148 127.269 47.1545 128.769 46.8866C130.751 46.534 132.735 46.1677 134.752 46.0339C135.235 46.0024 135.713 45.9007 136.19 45.8127C136.488 45.7565 136.798 45.3769 136.83 45.0634C136.857 44.7862 136.882 44.5065 136.886 44.2306C136.909 42.3499 136.903 40.4671 136.947 38.5871C136.97 37.4731 137.062 36.3437 137.46 35.3078C137.689 34.7164 137.908 34.1562 137.928 33.5179C137.929 33.4554 138.121 33.3813 138.235 33.3446C138.281 33.3304 138.378 33.3841 138.408 33.435C138.618 33.7957 138.815 34.1615 139.017 34.528C138.9 34.685 138.781 34.8395 138.672 35.0024C138.64 35.0511 138.629 35.1285 138.639 35.1904C138.648 35.2405 138.7 35.2876 138.732 35.3365C138.815 35.2626 138.949 35.1987 138.968 35.1109C139.008 34.9217 138.988 34.7212 138.99 34.524C139.185 33.8511 139.379 33.1802 139.577 32.51C139.775 32.5367 139.975 32.5661 140.173 32.5929C140.191 33.0648 140.204 33.536 140.222 34.0079C140.231 34.209 140.245 34.4107 140.258 34.6125C140.274 34.8332 140.516 35.0593 140.663 34.9694C140.823 34.8743 141.033 34.7286 141.065 34.5706C141.184 33.9795 141.244 33.3725 141.325 32.7735C141.353 32.5731 141.38 32.3773 141.408 32.177C141.746 32.3311 141.959 32.5877 142.014 32.9536C142.159 33.9134 142.129 34.8778 142.035 35.8328C142.003 36.1672 141.889 36.5013 141.768 36.8203C141.601 37.2675 141.394 37.6995 141.201 38.1381L141.174 38.134C141.701 38.2928 142.008 38.6213 141.947 39.1977C141.871 39.8859 141.801 40.5703 141.949 41.2587C142.102 41.9758 141.952 42.6228 141.549 43.2304C141.44 43.3934 141.414 43.6126 141.334 43.8564C141.451 44.0826 141.59 44.3168 141.697 44.5671C141.803 44.8174 141.978 45.0939 141.948 45.3405C141.838 46.3163 142.09 47.2686 142.113 48.2338C142.12 48.5065 142.083 48.7823 142.041 49.0548C141.978 49.4685 141.459 49.7315 141.083 49.5485C140.961 49.4889 140.846 49.4045 140.741 49.3195C140.291 48.956 140.1 49.1395 140.014 49.5219C139.97 49.7221 139.93 49.9276 139.87 50.1233C139.797 50.3658 139.642 50.3639 139.203 50.1345L139.223 50.1352C138.691 50.4567 138.177 50.818 137.518 50.9165C137.034 50.5249 136.532 50.1469 135.842 50.3175C134.305 50.071 132.782 50.3076 131.255 50.4087C130.487 50.4586 129.732 50.5593 129.018 50.8749C128.439 51.1292 127.809 51.1692 127.185 51.2496C125.874 51.4172 124.565 51.6317 123.263 51.8658C122.859 51.9366 122.434 52.0671 122.095 52.2845C121.361 52.7576 120.549 52.9056 119.714 52.9852C118.811 53.071 117.917 53.1582 117.039 53.4127C116.577 53.547 116.075 53.5803 115.592 53.5838C114.549 53.5955 113.501 53.5208 112.461 53.7005C112.257 53.7355 112.041 53.7224 111.835 53.6969C109.692 53.4079 107.566 53.024 105.497 52.3695C104.956 52.1996 104.478 51.9506 104.196 51.3912C103.935 50.8696 103.413 50.6047 102.93 50.3225C101.768 49.6479 100.76 48.7891 99.8938 47.7629C99.764 47.6114 99.677 47.4035 99.6296 47.2107C99.6118 47.1384 99.7658 46.9496 99.8476 46.9453C100.726 46.9069 101.464 47.2871 102.184 47.7459C102.285 47.8094 102.443 47.7885 102.576 47.7871C102.592 47.7871 102.641 47.6363 102.62 47.6193C102.143 47.2147 101.665 46.8101 101.174 46.4244C100.958 46.2557 100.707 46.1259 100.525 46.0133C100.129 45.3441 100.11 44.6002 99.6449 44.0395C99.2713 43.5897 98.9351 43.2546 98.2541 43.3452C97.7269 43.4142 97.3735 42.9697 97.1681 42.4958C96.8828 41.829 96.8383 41.1163 97.0466 40.4383C97.3128 39.5782 97.6445 38.7302 98.0147 37.9064C98.2979 37.2742 98.6948 36.6912 99.0326 36.0833C99.4149 35.389 99.9673 34.8893 100.677 34.5405C102.494 33.6432 104.335 32.826 106.394 32.6565C106.462 32.6503 106.538 32.6382 106.594 32.6046C106.704 32.5347 106.853 32.4591 106.882 32.3564C106.901 32.2848 106.767 32.1327 106.668 32.0718C106.491 31.9645 106.274 31.9233 106.102 31.8075C106 31.7414 105.934 31.5947 105.889 31.4696C105.835 31.3223 106.022 31.0315 106.2 30.9833C106.533 30.8928 106.871 30.7541 107.206 30.7592C108.608 30.7813 109.995 30.9523 111.31 31.4752C112.673 32.019 114.058 32.5174 115.252 33.4127C115.573 33.6527 115.849 33.5236 116.056 33.0707C116.115 32.9447 116.173 32.816 116.229 32.6919C116.242 32.6868 116.216 32.6854 116.216 32.6854ZM138.771 38.3901C138.744 38.5163 138.708 38.6411 138.693 38.7666C138.687 38.8076 138.747 38.856 138.776 38.8997C138.926 38.722 138.794 38.5562 138.752 38.3875L138.771 38.3901ZM110.523 32.0892C110.517 32.0326 110.536 31.9285 110.504 31.9121C109.767 31.502 108.975 31.4113 108.153 31.5091C108.12 31.5136 108.071 31.6156 108.073 31.667C108.075 31.723 108.118 31.8084 108.167 31.8294C108.872 32.1281 109.612 32.1972 110.364 32.2006C110.417 32.2014 110.469 32.13 110.523 32.0892ZM98.1789 41.7707C98.2354 41.7488 98.3269 41.7413 98.3437 41.7043C98.3676 41.6497 98.3653 41.5494 98.3269 41.5089C98.1906 41.3542 98.0901 41.3929 98.0777 41.5979C98.0747 41.6532 98.143 41.712 98.1789 41.7707Z" fill="#EB539F"/>
<path d="M98.9294 45.1263C99.0538 45.0493 99.1643 45.0725 99.2336 45.2081C99.3002 45.3457 99.2552 45.4529 99.115 45.4927C99.067 45.5042 98.9922 45.4747 98.9479 45.4426C98.8268 45.3459 98.8239 45.2339 98.9294 45.1263Z" fill="#EB539F"/>
<path d="M116.242 32.6867C116.185 32.3787 116.126 32.0727 116.067 31.762L116.039 31.758C116.096 32.066 116.158 32.3747 116.215 32.6828C116.216 32.6854 116.242 32.6867 116.242 32.6867Z" fill="#EB539F"/>
<path d="M137.625 22.9284C138.032 23.4994 138.325 24.1115 138.441 24.8161C138.496 25.1541 138.636 25.4767 138.737 25.8051C138.518 26.3074 138.303 26.8148 138.076 27.3112C138.053 27.3612 137.952 27.4207 137.905 27.4069C137.785 27.3707 137.668 27.3071 137.567 27.2319C137.521 27.1972 137.494 27.1073 137.492 27.0442C137.428 25.6688 137.201 24.2857 137.625 22.9284Z" fill="#EB539F"/>
<path d="M138.99 30.3121C138.704 30.779 138.529 31.3341 138.001 31.612C137.948 31.6391 137.861 31.6355 137.801 31.6151C137.744 31.5928 137.665 31.5372 137.654 31.4845C137.507 30.7798 137.612 30.1099 137.937 29.4746C138.016 29.3213 138.377 29.2835 138.475 29.4466C138.656 29.7427 138.818 30.0498 138.987 30.3511L138.99 30.3121Z" fill="#EB539F"/>
<path d="M119.144 33.108L119.167 33.1114C119.169 33.114 119.144 33.108 119.144 33.108Z" fill="#EB539F"/>
<path d="M31.833 129.03C31.7891 129.418 31.7449 129.802 31.701 130.19C31.6764 130.423 31.7658 130.587 31.9887 130.626C32.0751 130.64 32.2 130.611 32.2603 130.553C32.5357 130.285 32.8524 130.033 33.0439 129.71C33.8481 128.371 34.8593 127.204 35.865 126.018C36.7387 124.989 37.5776 123.898 38.2459 122.729C39.3205 120.841 40.7774 119.292 42.3244 117.835C43.9448 116.31 45.7471 114.998 47.3716 113.464C48.5004 112.395 49.9677 111.787 51.4102 111.224C52.3218 110.87 53.1228 110.376 53.9357 109.85C55.8759 108.591 57.7839 107.224 60.0328 106.55C60.9349 106.278 61.4583 105.643 61.9839 104.872C62.8205 104.917 63.6882 105.042 64.5427 104.991C65.4014 104.934 66.2502 104.679 67.1053 104.55C67.5798 104.477 68.07 104.448 68.5483 104.451C71.1699 104.471 73.2131 105.56 74.5411 107.875C74.9262 108.546 75.2724 109.251 75.5295 109.979C76.5429 112.864 76.8622 115.846 76.6565 118.886C76.6087 119.561 76.4753 120.235 76.3232 120.897C75.5321 124.32 74.3785 127.621 72.7789 130.748C71.0108 134.207 69.1777 137.627 66.9825 140.843C66.6545 141.323 66.3454 141.82 66.0731 142.333C65.0174 144.33 63.7351 146.124 61.8412 147.408C61.6144 147.565 61.4753 147.853 61.2926 148.08C61.1045 148.29 60.9207 148.494 60.7326 148.703C60.3218 148.333 59.9111 147.963 59.5004 147.592C59.297 147.402 59.0891 147.213 58.886 147.028C59.2332 146.025 59.5804 145.022 59.9276 144.019L59.8937 144.061C60.3252 143.577 60.8359 143.142 61.1699 142.599C61.8001 141.573 62.3417 140.487 62.8927 139.411C63.016 139.168 63.0422 138.876 63.1144 138.605C64.8702 137.355 65.8008 135.474 66.8486 133.682C66.8902 133.612 66.8844 133.494 66.8712 133.408C66.8534 133.323 66.8127 133.229 66.7513 133.173C66.6901 133.122 66.5706 133.078 66.5043 133.104C65.6282 133.447 65.0436 134.303 64.0737 134.482C64.7652 133.417 65.1932 132.224 65.6262 131.039C65.7848 130.6 65.8674 130.083 65.8085 129.622C65.6824 128.715 65.7749 127.852 66.2148 127.081C66.9906 125.716 66.7026 123.999 67.6851 122.71C67.7911 122.573 67.784 122.338 67.8015 122.146C67.9596 120.603 68.1447 119.058 68.2528 117.508C68.3264 116.446 68.3317 115.369 68.2879 114.304C68.2641 113.733 68.1311 113.144 67.9285 112.604C67.6008 111.726 66.9424 111.182 65.9853 111.075C64.7152 110.928 63.5012 111.189 62.2773 111.522C58.5033 112.549 55.105 114.421 51.8373 116.473C48.8101 118.372 46.0362 120.649 43.4495 123.153C41.7107 124.838 39.8953 126.432 38.3276 128.29C38.0805 128.584 37.7824 128.849 37.4733 129.073C36.4417 129.828 35.6794 130.829 34.8798 131.805L34.9034 131.826C34.8652 131.237 34.827 130.649 34.7841 130.056L34.8124 130.082C34.4776 130.425 34.1147 130.748 33.8175 131.121C33.3378 131.726 32.9334 132.396 32.4304 132.984C32.128 133.345 31.7441 133.7 31.3245 133.88C30.8077 134.101 30.4713 133.59 30.0882 133.323C29.8265 133.141 29.5401 133.187 29.2667 133.314C29.0904 133.395 28.9243 133.503 28.7423 133.562C28.303 133.707 27.9326 133.607 27.7007 133.296C26.6032 131.81 25.5591 130.309 25.2747 128.392C25.1604 127.634 24.8311 126.906 24.5826 126.169C24.2553 125.208 23.6277 124.467 22.7729 123.964C22.0249 123.524 21.2226 123.173 20.4292 122.817C16.7848 121.181 13.0923 121.487 9.38757 122.547C9.2942 122.574 9.20618 122.62 9.11754 122.651C8.26824 122.989 7.66257 123.6 7.29309 124.427C7.09845 124.868 6.93646 125.33 6.82438 125.799C6.01846 129.196 6.23009 132.557 7.31395 135.86C7.71205 137.067 8.32642 138.177 9.12431 139.168C11.0137 141.523 13.0962 143.682 15.5773 145.417C19.8717 148.43 24.4506 150.901 29.3393 152.798C31.3215 153.568 33.3159 154.309 35.2528 155.167C37.8124 156.303 40.3849 157.425 42.8141 158.84C43.3947 159.179 44.0253 159.434 44.643 159.704C45.0302 159.871 45.6835 159.675 45.9645 159.338C46.2113 159.04 46.4579 158.737 46.6768 158.422C48.167 156.272 49.6244 154.096 51.138 151.963C52.0314 150.697 53.0169 149.467 54.281 148.582C55.0048 148.079 55.6939 147.604 56.213 146.883C56.2636 146.812 56.542 146.876 56.7021 146.922C56.7663 146.942 56.8362 147.079 56.8313 147.161C56.7923 147.74 56.7351 148.315 56.6826 148.895C56.4255 148.985 56.1681 149.07 55.9161 149.174C55.841 149.205 55.7683 149.285 55.7317 149.364C55.7033 149.429 55.726 149.524 55.7255 149.606C55.8779 149.584 56.0824 149.615 56.1728 149.529C56.3665 149.342 56.4985 149.095 56.6542 148.869C57.4037 148.246 58.1487 147.623 58.8984 147.004C59.106 147.189 59.3138 147.379 59.5214 147.564C59.1747 148.122 58.8232 148.675 58.4765 149.233C58.3305 149.472 58.1893 149.715 58.048 149.958C57.8943 150.225 57.9977 150.674 58.2373 150.685C58.4951 150.699 58.8512 150.695 59.0103 150.538C59.6081 149.949 60.1485 149.295 60.7083 148.668C60.8964 148.459 61.0802 148.254 61.2683 148.045C61.5382 148.486 61.5837 148.947 61.3632 149.412C60.7831 150.631 59.998 151.72 59.1469 152.748C58.849 153.108 58.4577 153.404 58.0699 153.678C57.5297 154.063 56.9555 154.401 56.3912 154.756L56.3629 154.73C56.8479 155.324 56.9462 155.941 56.4264 156.558C55.8043 157.292 55.1912 158.027 54.8257 158.935C54.4441 159.881 53.7672 160.51 52.8301 160.897C52.5781 161 52.3776 161.233 52.0952 161.451C52.054 161.803 52.0322 162.181 51.9604 162.553C51.8886 162.924 51.875 163.379 51.6489 163.64C50.7622 164.679 50.3122 165.973 49.5879 167.104C49.3827 167.423 49.1265 167.713 48.8652 167.994C48.4715 168.422 47.6681 168.321 47.377 167.818C47.2832 167.654 47.2154 167.467 47.1614 167.288C46.9248 166.518 46.5625 166.582 46.1661 166.956C45.9593 167.152 45.753 167.358 45.5318 167.537C45.2587 167.759 45.0812 167.636 44.7535 167.03L44.7769 167.047C43.9132 167.004 43.0389 167.02 42.2027 166.62C41.9497 165.793 41.6652 164.966 40.7372 164.626C39.1573 163.146 37.2177 162.234 35.3784 161.162C34.4541 160.622 33.5061 160.151 32.4366 159.959C31.5718 159.802 30.8146 159.358 30.0329 158.965C28.3907 158.138 26.7151 157.367 25.0319 156.623C24.5107 156.39 23.9199 156.211 23.36 156.197C22.1454 156.171 21.0941 155.71 20.0697 155.152C18.9617 154.548 17.8632 153.953 16.6531 153.563C16.016 153.359 15.4122 153.007 14.8525 152.635C13.6402 151.837 12.4905 150.935 11.1526 150.334C10.8896 150.215 10.6505 150.031 10.4336 149.842C8.18745 147.841 6.03579 145.745 4.15949 143.38C3.66888 142.764 3.31139 142.105 3.42193 141.241C3.52638 140.436 3.13031 139.724 2.79336 139.023C1.97933 137.342 1.48544 135.567 1.28515 133.71C1.25345 133.435 1.31484 133.127 1.41025 132.868C1.44603 132.771 1.77046 132.673 1.86809 132.732C2.91011 133.371 3.4655 134.384 3.93897 135.473C4.0051 135.624 4.20392 135.723 4.35779 135.825C4.37646 135.837 4.55023 135.702 4.53943 135.666C4.30396 134.828 4.06844 133.99 3.80191 133.163C3.68473 132.801 3.49631 132.456 3.37462 132.185C3.43838 131.105 3.99503 130.232 3.89545 129.224C3.81476 128.415 3.68786 127.767 2.83233 127.342C2.17094 127.011 2.10942 126.224 2.24132 125.518C2.43128 124.527 2.93462 123.671 3.70228 123.051C4.67828 122.267 5.72056 121.548 6.78834 120.886C7.60661 120.377 8.51784 120.014 9.3802 119.576C10.3611 119.074 11.3868 118.927 12.4767 119.078C15.2695 119.457 18.0272 119.947 20.5326 121.354C20.6161 121.4 20.713 121.445 20.8034 121.45C20.9841 121.454 21.2156 121.484 21.3281 121.387C21.406 121.32 21.3696 121.04 21.3036 120.893C21.1824 120.631 20.9641 120.415 20.8562 120.148C20.7898 119.992 20.8286 119.772 20.8738 119.593C20.9265 119.381 21.3681 119.191 21.6113 119.275C22.0655 119.429 22.5623 119.532 22.9454 119.799C24.5433 120.915 26.0092 122.191 27.1182 123.817C28.2663 125.504 29.4759 127.157 30.1549 129.118C30.3389 129.645 30.7571 129.71 31.3481 129.349C31.5146 129.25 31.6809 129.147 31.8429 129.048C31.8611 129.051 31.833 129.03 31.833 129.03ZM53.3936 153.155C53.2645 153.28 53.1259 153.396 53.0107 153.529C52.9722 153.571 53.0044 153.674 53.0035 153.747C53.3148 153.659 53.2912 153.365 53.3747 153.138L53.3936 153.155ZM25.7338 123.913C25.7709 123.843 25.874 123.738 25.8492 123.694C25.3193 122.648 24.4761 121.926 23.4532 121.4C23.4116 121.38 23.2757 121.459 23.2381 121.52C23.1963 121.586 23.1803 121.718 23.2194 121.78C23.8004 122.673 24.5997 123.328 25.4633 123.917C25.524 123.96 25.6393 123.918 25.7338 123.913ZM3.97084 125.468C4.05295 125.487 4.16432 125.55 4.21247 125.52C4.28244 125.476 4.35785 125.358 4.34503 125.282C4.30838 124.997 4.16237 124.964 3.98867 125.19C3.94209 125.252 3.97512 125.373 3.97084 125.468Z" fill="#EB539F"/>
<path d="M2.22495 129.92C2.42833 129.929 2.53759 130.041 2.51192 130.251C2.48176 130.462 2.3464 130.55 2.15383 130.487C2.08949 130.463 2.02625 130.371 2.00016 130.3C1.93583 130.094 2.01955 129.962 2.22495 129.92Z" fill="#EB539F"/>
<path d="M31.8611 129.051C32.0353 128.652 32.2049 128.253 32.3788 127.849L32.3506 127.823C32.1764 128.223 32.0069 128.626 31.8328 129.025C31.833 129.03 31.8611 129.051 31.8611 129.051Z" fill="#EB539F"/>
<path d="M64.1033 134.44C64.1291 135.416 63.9904 136.349 63.575 137.251C63.3754 137.683 63.2865 138.165 63.1467 138.621C62.504 139.03 61.8617 139.448 61.2137 139.844C61.148 139.883 60.9851 139.873 60.9419 139.821C60.8315 139.686 60.7467 139.522 60.6888 139.356C60.6625 139.281 60.7015 139.156 60.7474 139.081C61.7444 137.446 62.5587 135.675 64.1033 134.44Z" fill="#EB539F"/>
<path d="M59.9318 144.014C59.2393 144.33 58.6058 144.834 57.7804 144.743C57.6988 144.733 57.6005 144.661 57.5474 144.591C57.4988 144.521 57.4519 144.396 57.4801 144.326C57.8581 143.399 58.5004 142.708 59.3698 142.229C59.5806 142.114 60.0254 142.351 60.0114 142.615C59.9902 143.098 59.9373 143.578 59.8979 144.057L59.9318 144.014Z" fill="#EB539F"/>
<path d="M34.8793 131.795L34.903 131.817C34.9032 131.822 34.8793 131.795 34.8793 131.795Z" fill="#EB539F"/>
</svg>
