<svg width="81" height="265" viewBox="0 0 81 265" fill="none" xmlns="http://www.w3.org/2000/svg">
<path d="M12.3658 111.619C13.4889 111.32 14.6181 111.034 15.7412 110.709C16.5517 110.48 17.0813 109.895 17.0047 109.373C16.9026 108.68 16.5519 108.107 15.9584 107.777C15.5372 107.541 14.9885 107.535 14.5609 107.312C14.3184 107.185 14.0121 106.797 14.044 106.581C14.2035 105.614 14.4333 104.653 14.7332 103.724C14.8098 103.495 15.2308 103.279 15.5244 103.228C17.0687 102.961 17.8089 101.981 18.0514 100.531C18.1598 99.8945 18.2108 99.2456 18.2938 98.5904C16.7942 97.5979 15.4351 96.6692 14.044 95.7913C13.4824 95.435 12.7995 95.1868 12.8251 94.3852C12.857 93.3292 13.3738 92.4831 14.2225 91.8788C14.6948 91.5416 16.1305 92.1968 16.2454 92.8076C16.3028 93.1193 16.1689 93.4692 16.2136 93.7873C16.2583 94.0736 16.3604 94.468 16.571 94.5889C16.8007 94.7225 17.3877 94.7224 17.4643 94.5825C18.1344 93.3801 19.1427 93.1193 20.4126 93.2847C20.8657 93.3419 21.4271 93.3738 21.6122 92.6867C19.8829 91.4589 17.592 91.1472 16.1179 89.4677C14.6694 89.1115 13.2142 88.7679 11.7784 88.3799C11.102 88.1954 10.63 87.7502 10.4258 87.0568L10.3492 87.1267C11.3191 87.1776 11.855 86.7196 12.0975 85.7844C12.2762 85.091 12.7675 84.6902 13.5333 84.6648C14.3565 84.6393 15.1863 84.6075 15.9967 84.4866C16.1946 84.4548 16.3667 84.0667 16.4816 83.8186C16.5199 83.7296 16.3924 83.4559 16.2903 83.4241C15.0331 83.0552 13.7823 82.6544 12.506 82.3809C11.7083 82.2091 10.8597 82.2854 10.0429 82.1645C9.77486 82.1264 9.43005 81.8529 9.34709 81.6112C9.26414 81.3694 9.37923 80.905 9.57705 80.765C10.3811 80.1988 11.2489 79.7217 12.0913 79.2128C12.2508 79.2255 12.4039 79.2383 12.5571 79.251C12.4231 79.251 12.2892 79.251 12.1551 79.251C11.9956 79.2128 11.785 79.2254 11.6765 79.13C10.9554 78.4811 10.3364 77.667 9.52595 77.1771C8.70275 76.6809 7.68183 76.5091 6.75654 76.1719C6.08011 75.9238 5.76091 74.6132 6.29694 74.0216C7.49664 72.6857 8.4347 71.1016 10.1258 70.2301C10.8788 69.842 11.3126 69.0914 11.3254 68.1944C11.3318 67.6791 11.1787 67.1893 10.6555 66.9985C10.3811 66.8967 10.011 66.9158 9.72381 67.0049C9.42388 67.0939 9.14945 67.3164 8.88781 67.5073C8.62617 67.6918 8.38997 67.9146 8.14747 68.1118C7.36257 68.1372 7.59225 67.5201 7.45824 67.0938C7.31785 66.6422 7.1203 66.1269 6.78209 65.8406C6.15671 65.3126 5.33962 65.0073 4.74616 64.4602C4.459 64.193 4.35704 63.5631 4.42086 63.1306C4.55487 62.2463 5.17388 61.6673 6.04175 61.4701C6.51397 61.3619 7.03091 61.4384 7.52866 61.432C7.50951 61.731 7.49017 62.0236 7.48379 62.3226C7.47741 62.4689 7.47744 62.6279 7.52211 62.7615C7.55402 62.857 7.6688 62.927 7.75175 63.0097C7.78366 62.768 7.87946 62.5134 7.82841 62.2971C7.76459 62.0172 7.58586 61.7628 7.45824 61.5019C7.80283 59.4408 8.00721 59.2373 9.71103 59.2118C10.3492 59.1991 10.9809 59.1927 11.6254 59.18C12.2763 59.5808 12.9207 59.9689 13.6545 59.3581L13.6994 59.4153C12.9847 59.358 12.27 59.2944 11.5553 59.2372C10.5535 57.6086 8.88147 56.8262 7.3308 55.8783C6.06091 55.1022 4.79095 54.3006 3.59764 53.4099C3.10627 53.041 2.72337 52.4366 2.45535 51.8577C1.91293 50.6808 2.13616 49.9683 3.12527 49.2876C3.67406 48.9123 4.26761 48.5942 4.79726 48.1998C5.40349 47.7481 5.64604 47.0865 5.1802 46.4694C4.4272 45.4707 5.19942 45.0126 5.73546 44.421C5.8248 44.3192 5.78643 44.1092 5.81834 43.8484C5.1802 43.3776 4.52304 42.8814 3.85937 42.3979C2.94684 41.7363 2.02774 41.0811 1.1152 40.4195C1.0131 38.95 0.88551 37.4805 0.834459 36.0046C0.828078 35.7374 1.08974 35.3239 1.33861 35.203C2.22562 34.7577 3.15731 34.4204 4.06347 34.0197C4.19747 33.9624 4.38252 33.7715 4.36976 33.657C4.32509 33.2499 4.05075 33.1099 3.63596 33.1544C3.13822 33.2053 2.63419 33.269 2.14283 33.2245C1.41535 33.1672 0.847397 32.7409 0.694244 32.0475C0.483659 31.0869 0.25388 30.0818 0.324075 29.1149C0.521897 26.4493 0.521885 23.8029 0.151766 21.1501C-0.077963 19.5024 -0.0653499 17.8293 0.317532 16.1816C0.470684 15.52 0.700625 14.8901 1.33238 14.553C2.11091 14.1395 2.67862 13.5415 2.8573 12.6891C3.24018 10.8569 4.5165 9.88358 6.09908 9.20289C9.91514 7.55522 13.7185 5.863 17.6622 4.56522C19.5383 3.94814 21.5739 3.80187 23.5522 3.50288C24.018 3.4329 24.6241 3.47734 24.9942 3.72544C27.1766 5.2077 29.4358 4.73703 31.7267 4.13267C33.5007 3.66191 35.2938 3.26743 37.0615 2.79667C37.7124 2.6249 38.3376 2.53582 39.0204 2.61852C39.4735 2.67578 40.0862 2.59947 40.4117 2.33228C41.6624 1.30169 42.977 1.15546 44.5851 1.30814C46.206 1.46082 47.8908 1.06002 49.5372 0.811914C51.0049 0.595618 52.4214 0.0739008 53.9593 0.589194C54.5208 0.773682 55.2483 0.468416 55.8992 0.36663C56.5565 0.264843 57.2075 0.0930665 57.8647 0.0358117C61.0618 -0.250462 63.391 1.16177 64.2717 4.91514C65.331 9.44463 66.2946 13.9996 67.5645 18.4718C69.4343 25.0816 70.1935 31.844 70.9082 38.6319C71.2911 42.2707 71.6165 45.9159 71.9866 49.5484C72.3248 52.8437 72.7206 56.1391 73.0333 59.4408C73.0971 60.0833 72.9182 60.745 72.8416 61.4002C72.7842 61.8773 72.4908 62.4435 72.6631 62.8125C74.3988 66.5913 74.1818 70.5991 74.0478 74.5751C73.9904 76.2864 74.5648 77.8514 74.7626 79.4927C74.9604 81.1467 74.2522 82.788 74.7436 84.4484C75.3626 86.535 75.4582 88.6662 75.3178 90.8355C75.254 91.8089 75.4708 92.8076 75.6559 93.7809C75.8537 94.7924 75.7771 95.7531 75.4836 96.7264C75.2666 97.4326 74.8071 97.8525 74.1179 98.0051C73.7988 98.0751 73.4545 98.0559 73.1227 98.0559C72.0761 98.0559 71.8016 98.9085 71.3868 99.6019L71.2463 99.7036L71.3996 99.5828C72.3632 99.1502 73.2501 99.0611 74.2201 99.71C74.9603 100.213 75.522 100.785 75.6497 101.638C75.9177 103.438 76.1985 105.251 76.275 107.07C76.3708 109.221 76.4538 111.403 76.1794 113.521C75.9816 115.048 76.1666 116.479 76.2878 117.962C76.3963 119.266 76.1217 120.602 76.2557 121.899C76.3387 122.701 76.8366 123.477 76.4601 124.298C76.358 124.52 75.9176 124.775 75.6942 124.724C74.6668 124.495 74.201 123.91 74.284 123.032C74.3286 122.542 74.4689 122.065 74.5136 121.575C74.5264 121.46 74.3478 121.225 74.2457 121.219C73.9457 121.2 73.5309 121.155 73.3586 121.327C72.6056 122.071 72.2993 123.178 72.4525 124.062C72.6694 125.316 72.6441 126.283 71.6741 127.167C71.6039 127.23 71.8271 127.867 71.9994 127.911C72.963 128.147 73.952 128.293 74.9283 128.458C76.345 128.7 76.9513 130.526 76.0834 131.983C76.0132 132.097 75.7899 132.123 75.6304 132.193C75.3623 132.084 75.1071 131.938 74.8327 131.875C74.4243 131.779 74.2648 131.957 74.4563 132.262C74.501 132.339 74.7242 132.345 74.8582 132.326C75.1454 132.282 75.4262 132.199 75.707 132.135C75.2986 133.528 76.7088 134.648 76.3769 135.959C76.0898 137.085 75.8729 138.192 75.8154 139.356C75.7197 141.201 75.8473 142.976 76.6832 144.674C78.4828 148.332 78.9042 152.257 78.8531 156.189C78.5468 156.494 78.3554 156.857 78.081 156.933C76.173 157.486 75.1007 158.886 74.2201 160.527C73.9776 160.979 73.3269 160.922 72.9887 160.451C72.7015 160.05 72.4525 159.618 72.1845 159.198L72.2611 159.134C71.9357 159.503 71.5018 159.827 71.3039 160.254C70.9849 160.928 71.4762 161.52 71.7825 162.073C72.0123 162.493 72.3311 162.9 72.7076 163.187C73.2245 163.587 73.8372 163.854 74.4052 164.198C75.7708 165.025 76.1218 165.897 75.7453 167.493C75.5986 168.13 74.5328 168.518 74.2329 167.983C73.5245 166.711 72.5928 166.482 71.3357 167.004L71.4124 166.959C70.1871 165.979 70.5254 164.109 69.23 163.167C69.1024 163.072 68.9491 163.002 68.7959 162.957C68.4003 162.843 68.1197 162.989 68.0176 163.384C67.8963 163.861 67.7941 164.351 67.7303 164.834C67.5772 165.973 67.4432 167.118 67.3411 167.996C66.3329 169.262 65.4904 170.267 64.6992 171.317C63.742 172.595 62.4274 173.295 60.8959 173.378C59.0772 173.473 57.2777 173.645 55.4717 173.893C54.0232 174.097 52.4598 174.001 51.0303 173.664C48.4714 173.06 45.772 173.111 43.3216 171.985C42.7345 171.711 42.0389 171.667 41.3944 171.52L41.4583 171.482C40.5266 171.807 39.6142 172.188 38.6633 172.436C36.934 172.882 35.3961 172.576 34.2092 171.119C33.9986 170.865 33.7752 170.623 33.5327 170.407C32.9201 169.866 32.3839 170.159 31.7841 170.515C31.2672 170.827 30.8716 170.464 30.6355 170C30.0229 168.785 30.2206 167.996 31.3182 167.582C32.0712 167.302 32.9264 167.277 33.6539 166.953C34.2218 166.704 34.6429 165.865 35.1726 165.82C36.8828 165.674 38.1782 164.529 39.7735 164.16C40.6733 163.95 41.018 163.155 41.4327 162.448L41.4773 162.506C40.3797 162.442 39.2694 162.41 38.4589 161.482C37.9612 160.915 37.3488 160.966 36.7617 161.253C36.0215 161.609 35.2748 161.698 34.4771 161.545L34.5535 161.622C33.5707 160.623 33.5709 160.623 32.4477 161.367L32.5434 161.291C32.135 161.609 31.7332 161.927 31.3248 162.239L31.3693 162.188C30.1888 161.399 29.1103 160.425 27.4766 160.712C26.6152 160.858 25.977 160.305 25.5878 159.522C25.9962 159.198 26.3983 158.88 26.8067 158.562C27.1832 158.282 27.5597 157.995 27.9362 157.715L27.9873 157.779C27.6108 158.065 27.2343 158.345 26.8578 158.631C26.4494 158.956 26.0409 159.274 25.6389 159.598C24.2477 158.492 23.9668 157.951 24.6751 156.901C25.4218 155.801 26.0793 154.783 25.7411 153.371C25.3582 151.761 25.9453 151.487 27.6299 151.666L27.7829 151.825L27.6489 151.678C27.4065 150.26 26.0473 149.617 25.2943 148.262C25.2879 147.327 25.2687 146.182 25.2687 145.03C25.2687 144.038 25.326 143.046 25.3005 142.053C25.275 141.258 24.1966 140.793 24.605 139.757C25.5622 139.286 26.6025 138.796 27.6172 138.255C27.8852 138.115 28.2042 137.804 28.217 137.549C28.2297 137.333 27.898 136.983 27.6427 136.875C27.0365 136.62 26.2578 136.576 26.0153 135.87C25.5431 134.515 24.5668 133.707 23.3543 133.064C23.131 132.943 23.0482 132.561 22.8822 132.269C23.7437 131.073 25.492 130.787 26.0536 129.292C26.1238 129.101 25.9068 128.668 25.6962 128.535C24.7199 127.911 23.7883 128.535 22.8311 128.7C22.5823 128.745 22.129 128.484 22.0269 128.255C21.8419 127.841 21.7654 127.332 21.8101 126.887C21.8356 126.607 22.1165 126.257 22.3781 126.117C23.3991 125.583 24.4773 125.144 25.4984 124.609C25.7408 124.482 25.9706 124.107 25.9897 123.833C26.0089 123.579 25.7473 123.083 25.5878 123.07C22.8885 122.86 20.5657 121.613 18.1536 120.551C16.6539 119.889 15.9265 118.623 14.9501 117.554C14.2162 116.753 14.6246 115.601 15.6711 115.188C16.1306 115.003 16.6412 114.921 17.0496 114.666C17.2729 114.526 17.3624 114.132 17.4453 113.833C17.4708 113.75 17.273 113.508 17.1518 113.496C16.335 113.394 15.5116 113.279 14.6884 113.26C13.5206 113.235 12.9207 112.491 12.4038 111.6L12.3658 111.619ZM65.3756 123.986L65.3563 124.037L65.2672 124.139L65.3756 123.986ZM14.4522 53.4099L14.4777 53.4227L14.3437 53.518L14.4522 53.4099ZM21.3377 95.5749L21.4143 95.6958L21.2869 95.5686C21.2422 95.435 21.2166 95.2886 21.1336 95.1804C21.0826 95.1041 20.9548 95.0787 20.8591 95.0341C21.0186 95.2123 21.1782 95.3968 21.3377 95.5749ZM16.1052 80.8667L16.0223 80.7013L16.1818 80.8032C16.3733 81.0132 16.2711 81.7637 16.8901 81.1848C16.6284 81.083 16.3668 80.9749 16.1052 80.8667ZM73.1545 143.096C73.3714 142.899 73.6265 142.734 73.7988 142.505C74.0413 142.174 73.9648 141.932 73.6521 141.92C73.5946 141.92 73.5118 142.161 73.4608 142.295C73.3587 142.568 73.2692 142.855 73.1735 143.135L73.0267 143.23C73.0331 143.23 73.1545 143.096 73.1545 143.096ZM4.12734 39.1536C3.84656 39.039 3.57196 38.8673 3.2848 38.8291C2.85725 38.7719 2.7042 39.0008 2.9084 39.3507C2.96583 39.4524 3.20186 39.5542 3.29758 39.5161C3.56559 39.4079 3.80836 39.2298 4.05723 39.0771C4.26782 38.9117 4.47824 38.7463 4.68883 38.5745C4.58672 38.5109 4.49118 38.4474 4.38908 38.3838C4.29974 38.6446 4.2103 38.8991 4.12734 39.1536ZM19.1809 106.542C19.7871 106.555 20.3868 106.581 20.9931 106.568C21.4462 106.562 21.5613 106.332 21.2869 106.021C21.2039 105.925 20.9741 105.855 20.8656 105.9C20.3105 106.116 19.7745 106.377 19.2257 106.606C18.9513 106.466 18.6768 106.32 18.396 106.199C18.262 106.142 18.0897 106.11 17.9557 106.142C17.8408 106.167 17.7514 106.307 17.6556 106.39C17.8662 106.517 18.0768 106.74 18.2938 106.752C18.5809 106.778 18.8809 106.625 19.1809 106.542ZM59.0198 43.7594C58.7007 43.4349 58.3944 43.0977 58.0626 42.786C57.8648 42.6015 57.6221 42.4488 57.4052 42.2898C57.2903 42.5443 57.0542 42.8114 57.0733 43.0532C57.1435 43.8357 57.2648 44.6182 57.469 45.3753C57.5265 45.5852 57.9284 45.7697 58.2028 45.8333C58.6304 45.9414 59.2688 45.5151 59.256 45.1271C59.2369 44.6627 59.0834 44.1983 58.9877 43.7403L59.1217 43.6385L59.0198 43.7594ZM63.8442 161.303C63.6336 161.323 63.4228 161.342 63.2123 161.354C63.0974 162.111 62.9699 162.868 62.8742 163.625C62.8614 163.727 63.0721 163.956 63.0976 163.944C63.3401 163.835 63.7356 163.708 63.7547 163.549C63.8441 162.811 63.825 162.054 63.8442 161.303ZM14.4587 51.0052C14.8416 50.8144 15.3265 50.6935 15.62 50.3882C15.8625 50.1464 15.633 49.7711 15.2246 49.7329C14.6311 49.6756 14.1586 50.0128 14.1331 50.4835C14.1331 50.6044 14.2928 50.738 14.4587 51.0052ZM34.6046 12.3328C34.5344 12.4536 34.3812 12.5936 34.4067 12.6891C34.4386 12.7972 34.6237 12.8545 34.7386 12.9372C34.8087 12.8164 34.9557 12.6764 34.9302 12.581C34.9047 12.4792 34.7194 12.4155 34.6046 12.3328ZM29.0274 134.228C29.0849 134.349 29.1423 134.578 29.1997 134.578C29.4933 134.585 29.7805 134.527 30.0741 134.495C30.0039 134.387 29.9462 134.184 29.8696 134.177C29.5889 134.152 29.3082 134.203 29.0274 134.228ZM4.92501 17.8612C5.28237 17.9884 5.50568 17.8865 5.52482 17.5684C5.5312 17.4793 5.37172 17.333 5.25685 17.2885C4.91226 17.1486 4.67619 17.263 4.65704 17.5811C4.65704 17.6638 4.83567 17.7657 4.92501 17.8612ZM21.242 99.9644L21.2804 100.168L21.5676 100.098L21.242 99.9644ZM72.0633 108.056C71.9293 108.088 71.706 108.088 71.6741 108.165C71.5337 108.508 71.7124 108.686 72.1272 108.597C72.2293 108.578 72.3058 108.419 72.3951 108.324C72.2803 108.241 72.1718 108.145 72.0633 108.056ZM37.9037 170.712L38.1081 170.541L37.7507 170.49L37.9037 170.712ZM10.9552 49.3131L10.6044 49.4275L10.9172 49.6184L10.9552 49.3131ZM73.7415 129.711L73.8181 129.412L73.4863 129.489L73.7415 129.711ZM27.7256 141.939L27.6489 142.308L28.0574 142.199L27.7256 141.939ZM27.8022 144.171L27.515 143.936L27.4255 144.248L27.8022 144.171ZM56.8181 164.58L57.1054 164.242L56.7097 164.147L56.8181 164.58ZM65.3245 166.902C65.2288 166.806 65.1395 166.654 65.031 166.628C64.9225 166.609 64.7885 166.717 64.6608 166.774C64.7566 166.87 64.8395 167.023 64.9544 167.048C65.0628 167.067 65.1969 166.959 65.3245 166.902Z" fill="#EB539F"/>
<path d="M50.2773 264.267C49.9327 263.911 49.6008 263.522 49.2307 263.198C48.7265 262.753 48.1525 262.333 47.4378 262.581C46.3083 262.969 45.217 263.147 44.0365 262.689C43.4366 262.454 42.7153 262.377 42.0644 262.434C38.7142 262.74 35.4344 262.059 32.1225 261.824C30.725 261.722 29.4804 261.379 28.3828 260.609C27.0236 259.661 25.7346 258.592 24.4583 257.53C23.8011 256.982 23.667 255.138 24.1966 254.273C24.3561 254.012 24.7136 253.872 24.988 253.681C25.8368 253.108 25.6901 252.3 24.6372 251.766C24.2033 251.55 23.6479 251.556 23.2204 251.321C23.0034 251.2 22.7993 250.755 22.844 250.5C22.9525 249.858 23.1885 249.228 23.4055 248.604C23.6097 248.006 24.3755 247.656 25.0264 247.879C25.6517 248.095 26.2515 248.369 26.8641 248.611C27.4831 248.852 28.0957 249.126 28.7274 249.31C29.2635 249.463 29.672 249.164 29.9719 248.738C30.2655 248.312 30.4378 247.828 30.157 247.364C30.0039 247.109 29.6719 246.848 29.3911 246.817C28.7466 246.747 28.0895 246.823 27.4833 246.836C26.4622 244.965 26.1877 243.025 26.4366 241.002C25.5241 240.29 24.7774 239.628 23.9542 239.087C23.1757 238.578 22.8886 237.93 22.8312 237.026C22.8057 236.587 22.4228 236.167 22.1931 235.747C21.74 234.927 21.7399 234.933 22.5184 234.163C23.5777 233.114 23.616 232.783 22.8374 231.682C21.976 230.461 21.0506 229.278 20.2594 228.012C19.6978 227.115 19.5831 226.02 20.317 225.206C21.5167 223.877 21.8868 222.305 22.0463 220.626C22.4164 216.777 23.8457 213.214 25.0581 209.601C25.4729 208.354 26.2834 207.241 26.8513 206.038C27.917 203.774 29.6529 202.622 32.097 201.891C36.2448 200.65 40.4437 199.651 44.6235 198.576C45.753 198.284 46.857 197.889 47.9609 197.514C50.1944 196.763 52.5236 196.585 54.8465 196.42C55.6633 196.362 56.3078 196.979 56.5057 197.921C56.7418 199.06 56.9521 200.205 57.2201 201.337C57.3988 202.107 58.3944 202.629 59.1984 202.419C59.5175 202.336 59.8302 202.209 60.1429 202.094C63.6143 200.866 67.2263 200.313 70.851 199.766C72.191 199.562 73.4863 199.582 74.82 199.632C78.2404 199.76 78.5149 199.881 78.7638 203.303C78.9105 205.275 78.6617 207.273 78.617 208.443C78.298 210.015 77.5193 210.142 77.0662 210.6C76.6642 211.007 76.7346 211.446 77.0856 211.872C77.3919 212.248 77.9854 212.706 77.9215 213.017C77.6344 214.341 78.3298 215.187 79.0317 216.122C79.4593 216.688 79.3062 217.413 78.9616 218.011C78.3299 219.099 78.3808 220.142 78.7828 221.332C80.225 225.601 80.8056 230.035 80.9907 234.52C81.0418 235.836 80.8886 237.172 80.3781 238.438C80.0718 239.202 79.8165 240.016 80.0335 240.868C80.4483 242.497 79.5232 243.28 78.2151 243.941C77.5259 244.291 77.6726 245.023 78.4703 245.474C78.7574 245.64 79.1021 245.71 79.3701 245.901C79.6318 246.085 79.8995 246.327 80.0335 246.6C80.1739 246.88 80.1867 247.23 80.193 247.555C80.2122 248.045 79.7082 248.369 79.1084 248.051C77.7492 247.319 76.4155 247.612 75.2668 248.235C72.325 249.838 69.0194 250.538 66.0011 252.09C65.8096 252.269 65.5159 252.459 65.3436 252.727C63.3462 255.787 63.3463 255.787 63.2251 259.616C63.1996 260.443 63.1676 261.264 63.1357 262.155C63.493 262.46 63.8695 262.772 64.2269 263.096C64.3417 263.198 64.4758 263.351 64.4886 263.484C64.5141 263.834 64.2782 264.012 63.8698 264.025C63.372 264.044 62.8678 264.069 62.3701 264.076C61.783 264.082 61.3938 263.726 61.3172 263.217C61.1768 262.244 61.2021 261.245 61.0617 260.265C61.0234 260.004 60.6854 259.718 60.4174 259.565C59.9388 259.292 59.5047 259.413 59.1601 259.884C58.8729 260.278 58.5285 260.634 58.1967 261.028C57.0097 260.399 55.9184 259.591 54.5208 260.392C53.7742 260.819 53.1746 261.315 52.7981 262.11C52.2812 263.217 51.496 264.031 50.1879 264.165L50.2773 264.267ZM29.4612 244.934L29.3721 245.29L29.7803 245.195L29.4612 244.934Z" fill="#EB539F"/>
<path d="M71.3484 167.004C71.6866 168.104 71.7121 169.173 70.991 170.146C70.9208 170.242 70.6912 170.292 70.5635 170.254C70.4359 170.216 70.2638 170.057 70.251 169.936C70.2127 169.631 70.1552 169.268 70.2828 169.014C70.6146 168.308 71.0357 167.646 71.4313 166.965C71.4249 166.959 71.3484 167.004 71.3484 167.004Z" fill="#EB539F"/>
<path d="M25.2943 244.228C25.1667 244.457 25.0455 244.698 24.8924 244.914C24.8796 244.933 24.5541 244.819 24.5477 244.755C24.5414 244.488 24.5796 244.208 24.6562 243.954C24.6753 243.897 24.9305 243.846 25.0326 243.89C25.1474 243.947 25.2113 244.113 25.2943 244.228Z" fill="#EB539F"/>
<path d="M34.4899 161.558C34.4324 161.908 34.3812 162.264 34.3238 162.614L34.4005 162.557C33.7368 162.48 33.0668 162.404 32.4032 162.328L32.4349 162.404C32.4796 162.042 32.518 161.679 32.5627 161.31L32.467 161.386C33.169 161.469 33.8708 161.552 34.5728 161.641L34.4899 161.558Z" fill="#EB539F"/>
<path d="M32.4032 162.328C32.0203 162.639 31.682 162.595 31.3821 162.213L31.3375 162.264C31.7013 162.309 32.065 162.36 32.4287 162.404L32.4032 162.328Z" fill="#EB539F"/>
<path d="M50.2071 264.171L50.1114 264.311L50.2773 264.267L50.2071 264.171Z" fill="#EB539F"/>
</svg>
