<svg width="131" height="211" viewBox="0 0 131 211" fill="none" xmlns="http://www.w3.org/2000/svg">
<path d="M122.699 195.249C125.13 195.806 127.561 196.384 130.002 196.888C130.283 196.946 130.792 196.681 130.94 196.421C131.072 196.182 130.971 195.657 130.781 195.418C130.421 194.983 129.949 194.617 129.473 194.31C128.339 193.583 127.19 192.867 126.014 192.209C119.929 188.83 114.357 184.698 108.839 180.492C103.087 176.105 98.4421 170.764 95.0048 164.383C93.8132 162.176 92.6003 159.986 91.3981 157.784C90.5189 156.177 89.0888 155.238 87.4841 154.506C86.4513 154.034 85.0268 154.533 84.5554 155.583C84.3224 156.108 84.0735 156.639 83.957 157.195C83.5862 158.919 83.6497 160.649 84.1264 162.351C85.7576 168.149 88.0774 173.612 91.6259 178.535C93.5749 181.235 95.9582 183.431 98.601 185.388C98.7281 185.483 98.8234 185.727 98.8128 185.892C98.7863 186.321 98.4949 186.534 98.0447 186.454C91.3874 185.234 84.9366 183.335 78.7453 180.587C72.5805 177.85 66.3787 175.198 60.5369 171.793C59.2076 171.018 57.8624 170.239 56.6496 169.3C50.2306 164.325 44.3092 158.835 39.3096 152.385C37.3023 149.796 35.2103 147.271 33.0759 144.789C27.6208 138.445 23.3945 131.358 20.1426 123.667C19.1575 121.333 18.5432 118.915 18.2095 116.422C17.6163 112.019 16.7106 107.691 15.5772 103.394C14.645 99.8562 14.1472 96.2069 13.4587 92.6106C13.0562 90.526 12.8126 88.399 12.2194 86.3674C9.94206 78.5808 10.387 70.7197 11.4886 62.8482C12.1559 58.0743 13.1092 53.3429 13.8083 48.5744C14.2585 45.4926 15.0581 42.5328 16.2286 39.6632C18.3365 34.4862 20.2696 29.2296 23.3997 24.53C24.2471 23.257 24.7292 21.7452 25.4918 20.4086C27.3084 17.226 29.1463 14.0593 31.5455 11.2587C32.4194 10.2402 33.2774 9.16882 33.9288 8.00188C34.4796 7.01528 34.8662 5.88011 35.0674 4.7609C35.5865 1.92311 32.8323 -0.569915 30.0094 0.114338C29.2679 0.294684 28.5318 0.554558 27.8327 0.872816C24.2578 2.49062 21.2496 4.83517 18.8452 7.95409C14.8147 13.1841 11.4144 18.7907 9.43892 25.1187C7.30983 31.9241 5.45615 38.8197 3.47006 45.6728C0.265843 56.7429 -0.0943137 68.0994 0.0169071 79.5036C0.0222033 79.8908 0.0221266 80.2781 0.0750888 80.66C1.22967 88.6748 2.18836 96.7267 4.12148 104.609C4.30685 105.357 4.57701 106.089 4.70412 106.847C5.76337 113.17 8.16778 119.084 10.3128 125.068C11.0277 127.051 12.0394 128.94 13.0033 130.828C14.4915 133.74 16.3081 136.488 17.4309 139.596C17.7539 140.492 18.2096 141.41 18.8346 142.115C21.2814 144.884 22.8066 148.258 24.9198 151.239C26.1379 152.963 27.462 154.649 28.9556 156.135C33.468 160.617 38.0652 165.014 42.6782 169.385C43.6474 170.303 44.8495 170.971 45.9193 171.782C48.3609 173.639 51.0992 175.188 52.4338 178.19C52.6563 178.689 53.138 179.108 53.5776 179.474C56.999 182.311 60.4894 185.038 64.79 186.47C68.8045 187.807 72.766 189.308 77.0613 189.626C79.9583 189.838 82.7546 190.65 85.2968 192.124C87.0181 193.122 88.8294 193.514 90.8154 193.488C92.5367 193.466 94.2686 193.689 95.9793 193.923C97.6952 194.156 99.3848 194.575 101.096 194.851C106.429 195.715 111.762 196.421 117.138 195.031C119.039 194.538 120.962 194.686 122.836 195.312C122.81 195.307 122.699 195.249 122.699 195.249Z" fill="#FFF94F"/>
<path d="M122.81 195.307C112.339 196.835 101.826 198.161 91.4034 199.959C81.7061 201.63 72.6548 200.102 63.9743 195.705C63.4605 195.445 62.9096 195.238 62.433 194.914C60.1609 193.376 58.0476 194.029 55.9715 195.339C55.4418 195.673 55.0606 196.84 55.3837 197.413C55.855 198.24 56.2524 199.206 56.9568 199.784C59.9279 202.218 62.793 204.823 66.4633 206.239C67.7132 206.722 68.8995 207.385 70.1071 207.968C74.879 210.286 79.8734 211.506 85.1961 210.801C88.2468 210.398 91.2922 209.92 94.3058 209.31C96.9645 208.774 99.6071 208.356 102.324 208.589C104.66 208.79 106.932 208.361 109.172 207.783C111.778 207.109 114.373 206.393 116.963 205.656C118.086 205.337 119.182 204.871 119.828 203.836C120.797 202.282 122.148 201.317 123.885 200.797C124.42 200.638 124.886 200.245 125.379 199.953C125.998 199.587 126.189 198.436 125.707 197.911C125.32 197.492 124.934 197.063 124.505 196.686C123.928 196.182 123.303 195.726 122.699 195.249L122.81 195.307ZM60.9765 196.585L60.9659 196.601C60.9659 196.596 60.9765 196.585 60.9765 196.585Z" fill="#FFF94F"/>
</svg>
