<svg width="260" height="228" viewBox="0 0 260 228" fill="none" xmlns="http://www.w3.org/2000/svg">
<path d="M167.123 123.248C165.414 126.698 165.408 126.685 162.048 128.183C160.294 128.963 158.502 129.642 156.704 130.314C154.784 131.031 152.659 131.325 150.963 132.522C149.363 133.655 147.468 134.134 145.856 135.165C143.091 136.938 140.326 138.717 137.747 140.758C137.094 141.27 136.48 141.872 135.616 141.911C134.502 141.955 133.9 142.519 133.459 143.498C133.254 143.952 132.761 144.381 132.294 144.579C130.892 145.194 129.638 145.968 128.531 147.043C128.051 147.511 127.411 147.856 126.79 148.106C124.729 148.938 122.976 150.224 121.209 151.543C118.905 153.264 116.531 154.935 114.041 156.368C111.481 157.84 109.427 159.792 107.596 162.038C107.251 162.461 106.976 162.947 106.636 163.376C105.836 164.375 103.987 164.343 103.456 163.235C102.86 161.987 102.041 160.97 101.017 160.074C100.352 159.485 100.377 159.453 99.5004 160.208C99.078 160.567 98.566 160.586 98.4444 160.24C97.2732 156.893 95.8331 153.623 95.3595 150.064C95.3083 149.661 95.2699 149.232 95.1099 148.867C95.0459 148.72 94.6812 148.65 94.4444 148.643C93.4332 148.599 93.0811 148.394 92.9531 147.709C92.4795 145.143 92.07 142.57 91.974 139.958C91.8204 135.702 91.5004 131.466 90.5212 127.299C90.2396 126.109 90.2844 124.848 90.1372 123.619C90.022 122.627 89.542 121.808 88.7868 121.149C88.6844 121.059 88.5756 120.976 88.4604 120.899C85.7404 119.19 84.902 116.439 84.5884 113.52C84.3836 111.613 84.3132 109.706 83.7884 107.837C83.6092 107.21 83.7499 106.493 83.7627 105.815C83.7819 104.995 83.7372 104.163 83.8716 103.363C84.0316 102.416 83.462 101.815 83.078 101.104C82.8732 100.727 83.0844 100.33 83.5644 100.17C83.9548 100.042 84.3708 99.9906 84.7612 99.869C85.2028 99.7282 85.2987 99.2545 84.9659 98.8961C84.7803 98.6977 84.5756 98.5121 84.3708 98.3329C82.8988 97.0273 83.1483 96.1378 84.4923 94.9538C85.3371 94.2114 86.0668 93.4881 86.3036 92.3105C86.47 91.4977 87.0268 90.8193 87.7436 90.3713C88.6908 89.7761 89.4588 89.0017 90.1116 88.1121C90.854 87.0945 91.9035 86.8961 93.0427 87.0433C93.8491 87.1457 94.6555 87.3378 95.4427 87.5682C96.3643 87.837 97.3307 88.0738 98.1499 88.5346C100.838 90.0578 103.878 90.2882 106.771 91.069C110.489 92.0738 114.355 92.1954 118.086 93.181C120.448 93.8018 122.969 93.8401 125.427 94.0513C127.891 94.2689 130.316 94.5825 132.704 95.3057C133.868 95.6577 135.136 95.7025 136.364 95.8241C138.822 96.0609 141.292 96.0993 143.692 96.8033C144.601 97.0721 145.587 97.1042 146.547 97.1682C151.5 97.4882 156.3 98.7041 161.107 99.7985C164.441 100.554 167.705 101.642 170.963 102.704C173.068 103.389 174.956 104.522 176.473 106.186C176.723 106.461 176.864 107.146 176.64 107.325C176.448 107.478 176.172 107.542 175.923 107.613C175.795 107.651 175.616 107.568 175.52 107.632C175.321 107.766 174.995 107.978 175.008 108.138C175.052 108.81 175.174 109.488 175.321 110.147C175.526 111.071 175.506 112.02 174.946 112.783C174.466 113.436 174.05 114.072 174.163 114.979C174.252 115.702 173.715 116.253 173.222 116.739C171.654 118.256 170.432 120.093 168.627 121.398C167.987 121.866 167.584 122.659 167.072 123.299L167.123 123.248ZM99.4436 157.068C99.4451 157.07 99.4486 157.071 99.4465 157.069C99.4451 157.068 99.4426 157.066 99.4436 157.068ZM98.4123 151.971C98.4746 152.809 99.1636 152.872 99.0817 152.036C99.0804 152.023 99.0792 152.01 99.078 151.997C99.046 151.671 98.8283 151.536 98.5723 151.651C98.4891 151.69 98.4059 151.862 98.4123 151.971ZM94.1703 144.444C94.3222 144.605 94.721 144.707 94.7644 144.49C94.8156 144.131 94.8796 143.76 94.822 143.408C94.8164 143.379 94.8062 143.351 94.7922 143.324C94.6436 143.031 94.0021 143.035 93.9899 143.363C93.9696 143.739 93.9011 144.159 94.1703 144.444Z" fill="white"/>
<path d="M15.2734 78.1942C15.2923 78.2043 15.3156 78.1938 15.3205 78.173C15.4283 77.7107 15.4703 77.2097 15.6692 76.7933C17.0951 73.8327 18.8276 71.0958 21.4222 68.9974C21.4259 68.9944 21.4263 68.9888 21.4229 68.9853C21.9498 69.696 21.9722 69.7263 22.4279 69.054C22.4366 69.0411 22.42 69.026 22.4085 69.0366C22.7797 68.6654 23.1445 68.3004 23.5157 67.9292L23.4388 68.0061C23.7828 67.6621 24.1213 67.3237 24.4644 66.9805C24.4742 66.9708 24.4896 66.9834 24.482 66.9949C24.8294 66.3062 25.1769 65.6236 25.5244 64.9354C25.5283 64.9276 25.5176 64.9208 25.5123 64.9277C25.8469 64.5807 26.1877 64.2337 26.5227 63.8867C26.5403 63.8685 26.6067 63.8909 26.5813 63.8909L26.082 63.923L25.6235 63.9172C25.5931 63.9168 25.564 63.9052 25.5417 63.8845C25.5114 63.8565 25.4971 63.815 25.5044 63.7744C25.7492 62.3984 26.5641 61.3412 27.5029 60.3645C29.0325 58.7709 30.5747 57.1902 32.1107 55.603C32.5843 55.1166 33.1347 54.6813 33.5123 54.1245C36.6547 49.5549 41.1604 46.4445 45.3588 43.0141C48.2516 40.6461 51.0611 38.1693 54.0051 35.8781C56.0147 34.3165 58.1909 32.9789 60.3029 31.5517C61.2885 30.8861 62.2803 30.2333 63.2979 29.6189C65.1795 28.4733 67.0422 27.2701 68.9941 26.2397C72.0022 24.6525 75.0482 23.1484 78.1266 21.702C79.6456 20.9903 81.2655 20.4805 82.836 19.8843C82.8521 19.8782 82.8571 19.858 82.8458 19.845C82.8351 19.8327 82.8155 19.8341 82.8064 19.8477C82.052 20.9778 80.9717 21.7134 79.7907 22.3292C77.7299 23.4044 75.6756 24.4797 73.6148 25.5549C71.3596 26.7373 69.0818 28.1844 66.8325 29.378C65.9764 29.8324 65.1782 30.387 64.4499 31.0632C63.7324 31.7294 62.9216 32.2824 62.0179 32.6589C61.8899 32.7165 61.7235 32.915 61.7363 33.0366C61.7619 33.4462 62.0565 33.5485 62.4085 33.2285C63.1282 32.5719 63.8977 31.9794 64.8223 31.6728C66.6491 31.0668 68.3661 30.2691 69.769 28.9205C70.326 28.3851 70.9891 27.9531 71.7458 27.7978C72.9533 27.55 74.1608 27.3021 75.3683 27.0543C75.5501 27.017 75.7204 27.1559 75.7204 27.3415C75.7204 27.5639 75.7204 27.7855 75.7204 28.0094C75.7204 28.0247 75.7019 28.0324 75.6911 28.0215C75.6833 28.0137 75.6853 28.0003 75.6947 27.9945C76.16 27.7107 76.3411 27.5974 76.2365 27.442C76.0208 27.1216 75.8437 26.757 76.1015 26.4693C77.0504 25.4106 78.307 24.9679 79.7817 24.9661C79.785 24.9661 79.7867 24.9621 79.7844 24.9598C79.782 24.9574 79.778 24.9591 79.7781 24.9625C79.7843 25.2955 79.7965 25.6345 79.803 25.9678C79.8032 25.9772 79.7914 25.9814 79.7856 25.9741C79.7816 25.9692 79.7833 25.9619 79.789 25.9592C80.4646 25.6336 81.1345 25.302 81.8098 24.9761C81.8202 24.971 81.8255 24.9899 81.8141 24.9922C81.8105 24.9929 81.8153 24.9907 81.8186 24.989C82.5138 24.6351 83.2028 24.2812 83.8979 23.9335C83.9005 23.9322 83.9027 23.9357 83.9005 23.9375C83.8983 23.9393 83.9003 23.9427 83.9029 23.9417C85.6254 23.2207 87.3417 22.4935 89.0707 21.7917C91.1187 20.9533 93.1668 20.0957 95.2404 19.3341C96.5204 18.8605 97.6467 19.0205 97.5635 19.5005C97.4163 20.3197 96.6804 20.4797 96.0788 20.7293C91.17 22.7453 86.5493 25.2797 82.1142 28.1917C79.407 29.9709 76.5396 31.5005 73.762 33.1645C71.2724 34.6557 68.8084 36.1788 66.3316 37.6892C66.1844 37.7788 66.0371 37.8686 65.9091 37.9774C60.8019 42.4958 54.8628 46.0156 50.1332 50.9756C47.4324 53.8044 44.5652 56.4989 42.2804 59.7053C41.0772 61.3949 39.49 62.6941 37.8132 63.8845C36.8276 64.5821 35.8419 65.3244 35.4579 66.502C34.9651 68.0124 34.0244 69.1901 33.026 70.3677C32.3668 71.1421 31.7971 72.0062 31.2723 72.8766C30.4787 74.2014 29.6724 75.4876 28.386 76.4156C27.522 77.0428 27.1187 77.9517 26.8563 78.9884C26.6515 79.7949 26.2804 80.5821 25.8388 81.2925C23.7652 84.6333 22.0051 88.134 20.5267 91.7756C20.0787 92.8828 19.6117 93.9901 19.0101 95.0141C17.4357 97.6893 16.4755 100.601 15.6307 103.558C13.9795 109.325 13.1091 115.232 12.5651 121.177C12.3219 123.878 12.3475 126.662 12.6867 129.35C13.5059 135.776 14.2227 142.227 15.9763 148.499C16.3411 149.811 16.6419 151.168 17.2179 152.39C19.4771 157.165 21.7875 161.913 24.9235 166.214C29.2563 172.16 34.0053 177.728 39.3685 182.777C41.3589 184.653 43.4579 186.374 45.6851 187.968C48.0403 189.651 50.3573 191.398 52.5716 193.267C56.6292 196.697 60.9363 199.744 65.6595 202.169C70.2163 204.505 74.805 206.771 79.4066 209.017C80.6291 209.613 81.9157 210.086 83.2085 210.528C86.6005 211.686 89.9923 212.844 93.4163 213.894C95.2019 214.444 97.0516 214.822 98.8948 215.161C102.588 215.84 106.287 216.448 109.992 217.049C111.336 217.267 112.693 217.459 114.056 217.517C116.277 217.613 118.472 217.804 120.668 218.188C122.172 218.451 123.727 218.489 125.256 218.477C127.669 218.457 130.018 218.662 132.264 219.641C132.879 219.91 133.57 220.038 134.242 220.153C135.964 220.441 137.647 220.313 139.215 219.462C140.636 218.694 142.153 218.541 143.689 218.931C146.101 219.539 148.418 219.366 150.696 218.393C151.989 217.843 153.346 217.792 154.722 217.977C155.772 218.125 156.751 217.894 157.666 217.35C159.458 216.288 161.448 215.859 163.458 215.405C167.618 214.47 171.759 213.44 175.893 212.384C177.212 212.045 178.479 211.52 179.765 211.072C181.051 210.63 182.312 210.029 183.637 209.76C188.047 208.87 192.028 206.924 195.976 204.921C203.752 200.966 211.017 196.224 217.769 190.662C221.468 187.616 224.937 184.352 228.303 180.96C233.525 175.686 237.749 169.715 240.623 162.873C244.725 153.107 248.181 143.117 250.21 132.678C250.997 128.633 251.036 124.531 251.151 120.454C251.272 116.032 250.863 111.59 250.779 107.161C250.632 99.7693 249.276 92.6014 247.24 85.5102C245.013 77.7278 241.57 70.5213 237.256 63.7117C235.983 61.7021 234.472 59.8397 233.026 57.9453C232.092 56.7293 231.074 55.5773 230.082 54.4061C229.532 53.7533 229.026 53.0557 228.399 52.4797C222.741 47.2957 217.154 42.0476 210.005 38.8092C203.477 35.8524 197.007 32.7486 190.268 30.3166C185.941 28.755 181.493 27.5006 177.052 26.2974C171.125 24.691 165.173 23.1422 159.176 21.811C153.852 20.627 148.45 19.8205 143.093 18.7645C138.888 17.9389 134.652 17.5869 130.37 17.7405C130.184 17.7477 129.997 17.7432 129.809 17.7319C128.985 17.682 128.463 16.8676 129.289 16.8381C135.785 16.5565 142.255 16.7741 148.642 18.0733C151.17 18.5853 153.711 18.8093 156.271 18.7709C158.684 18.7389 161.033 19.0525 163.343 19.7181C164.655 20.0957 165.98 20.4157 167.304 20.7485C169.314 21.2477 171.292 21.5805 173.282 20.5245C174.364 19.9485 175.599 19.9933 176.789 20.2941C178.44 20.7101 180.104 21.1069 181.736 21.5933C184.68 22.4701 187.618 23.3533 190.53 24.3261C191.983 24.8125 193.371 25.4845 194.779 26.0925C197.947 27.459 201.203 28.3541 204.695 28.0021C204.703 28.0013 204.708 28.0108 204.702 28.0165C204.696 28.0229 204.703 28.0333 204.712 28.03C206.27 27.4298 206.42 27.4132 207.099 28.4925C207.531 29.1804 207.908 29.85 208.737 30.0713C208.758 30.0771 208.775 30.0537 208.764 30.0349C209.596 31.3725 210.831 32.2494 212.284 32.7038C215.848 33.8238 218.908 35.7822 221.864 37.9902C223.183 38.9777 224.553 39.9587 226.226 40.3212C226.231 40.3223 226.234 40.3154 226.23 40.312C226.225 40.3082 226.219 40.3153 226.223 40.3198C226.577 40.6734 226.925 41.0216 227.279 41.3756C227.262 41.3628 227.241 41.3827 227.253 41.3999C227.794 42.1987 228.407 42.9264 229.272 43.3952C229.277 43.398 229.282 43.3915 229.278 43.3875C229.274 43.3834 229.267 43.3886 229.27 43.3936C230.301 45.1156 231.903 46.2671 233.404 47.5197C233.399 47.5151 233.392 47.5211 233.395 47.5265C234.542 49.2344 235.942 50.6566 237.871 51.4877C239.17 52.0445 240.111 53.0046 240.866 54.163C241.519 55.155 242.171 56.1533 242.792 57.1581C243.419 58.1693 243.893 59.2957 244.636 60.2045C248.348 64.7485 250.325 70.2269 252.859 75.3981C253.455 76.6077 253.916 77.9133 254.242 79.2253C255.669 84.9917 257.033 90.7838 258.409 96.563C258.524 97.0558 258.626 97.5613 258.677 98.0669C258.748 98.7389 258.824 99.4236 258.786 100.096C258.716 101.459 257.935 100.505 257.429 100.493C257.327 100.486 257.135 100.704 257.116 100.838C256.86 102.707 257.084 104.557 257.359 106.413C257.563 107.778 257.689 109.154 257.819 110.53C257.908 111.473 257.703 112.409 257.314 113.273C257.25 113.414 257.244 113.6 257.276 113.747C257.314 113.936 257.628 113.911 257.73 113.747C257.802 113.63 257.861 113.512 257.877 113.388C257.985 112.583 258.666 111.785 259.273 112.327C259.509 112.538 259.673 112.843 259.739 113.26C259.874 114.099 259.9 114.95 259.944 115.801C260.066 118.092 259.771 120.23 257.845 121.817C257.608 122.009 257.429 122.412 257.429 122.72C257.436 123.193 257.545 123.705 257.756 124.128C257.89 124.39 258.281 124.544 258.569 124.71C259.753 125.408 259.612 126.528 258.997 127.302C258.684 127.699 258.281 128.019 257.916 128.377C257.932 128.361 257.961 128.375 257.958 128.398C257.924 128.715 257.933 129.045 257.826 129.331C256.45 133.184 255.823 137.196 255.247 141.222C254.523 146.297 252.584 151.033 251.189 155.929C250.728 157.555 250.12 159.148 249.57 160.748C248.245 164.608 246.383 168.236 244.463 171.814C243.823 173.004 243.215 174.201 242.594 175.405C242.445 175.698 242.176 175.929 241.905 176.161C241.669 176.363 241.37 176.487 241.058 176.482C240.881 176.48 240.704 176.477 240.529 176.473C240.524 176.473 240.518 176.471 240.515 176.466C240.504 176.454 240.513 176.435 240.53 176.435C240.747 176.435 240.964 176.432 241.182 176.43C241.388 176.429 241.543 176.619 241.488 176.818C241.178 177.932 240.574 178.854 239.556 179.491C239.532 179.506 239.528 179.539 239.548 179.558C239.172 179.558 238.803 179.558 238.428 179.558C238.426 179.558 238.424 179.555 238.426 179.553C238.428 179.551 238.425 179.547 238.422 179.549C237.074 180.563 235.731 181.582 234.382 182.596C234.376 182.6 234.377 182.608 234.383 182.612C234.392 182.617 234.388 182.63 234.378 182.63C234.035 182.63 233.687 182.63 233.344 182.63C233.326 182.63 233.317 182.608 233.33 182.595C233.343 182.582 233.365 182.591 233.365 182.61C233.365 182.954 233.365 183.298 233.359 183.643C233.359 183.651 233.349 183.653 233.345 183.646C233.343 183.641 233.336 183.64 233.332 183.645C232.862 184.308 232.473 185.052 231.899 185.619C230.146 187.366 228.585 189.222 227.516 191.494C227.253 192.051 226.619 192.428 226.152 192.889C226.165 192.878 226.185 192.892 226.179 192.908C226.073 193.199 226.005 193.522 225.832 193.766C223.618 196.96 220.732 199.405 217.295 201.184C216.335 201.677 215.356 201.51 214.543 200.736C214.3 200.505 214.088 200.256 213.864 200.013C213.884 200.032 213.875 200.066 213.848 200.074C212.7 200.383 211.63 200.892 210.837 201.779C209.57 203.2 208.04 204.236 206.364 205.088C205.909 205.318 205.48 205.6 205.071 205.894C200.316 209.267 194.978 211.443 189.589 213.517C187.688 214.246 185.807 215.027 183.887 215.718C181.813 216.467 179.727 217.171 177.621 217.83C176.322 218.24 175.023 218.636 173.929 219.481C173.938 219.471 173.928 219.455 173.915 219.459C172.844 219.798 171.755 220.096 170.709 220.505C170.197 220.704 170.095 221.235 170.338 221.747C170.476 222.036 170.682 222.288 170.859 222.557C170.864 222.564 170.874 222.563 170.878 222.556C170.882 222.548 170.874 222.538 170.865 222.541C169.347 222.995 168.813 224.846 167.183 225.133C165.845 225.369 164.495 225.574 163.164 225.837C155.432 227.341 147.618 227.757 139.765 227.725C135.842 227.705 131.925 227.66 128.002 227.641C125.103 227.628 122.217 227.571 119.356 226.95C118.037 226.662 116.642 226.739 115.285 226.624C113.25 226.451 111.221 226.24 109.186 226.067C105.436 225.753 101.813 224.908 98.1779 223.936C94.2355 222.886 90.1651 222.317 86.1523 221.504C83.6435 220.992 81.1603 220.416 79.0163 218.873C77.8899 218.061 76.5588 217.709 75.202 217.485C73.1668 217.145 71.2661 216.429 69.3973 215.558C68.3221 215.059 67.2021 214.624 66.0629 214.291C63.5669 213.568 61.3205 212.422 59.3173 210.758C58.5365 210.105 57.6853 209.504 56.7957 209.017C50.7797 205.734 45.2883 201.657 40.0595 197.299C34.4467 192.614 28.9235 187.763 23.9379 182.38C19.1827 177.248 14.8435 171.776 10.9395 165.965C6.51706 159.373 3.53493 152.173 1.92853 144.403C1.75573 143.571 1.4483 142.7 1.5379 141.888C2.0883 136.896 0.737951 132.07 0.309151 127.168C0.200351 125.971 0.168376 124.8 0.334776 123.609C0.539576 122.092 0.776501 120.563 0.782901 119.04C0.814901 111.942 2.68988 105.229 4.87228 98.5725C5.34987 97.1206 5.90363 95.6878 7.06285 94.608C7.07194 94.5995 7.07125 94.5849 7.06132 94.5774C7.04815 94.5676 7.02937 94.577 7.02953 94.5935C7.04008 95.7113 7.05494 96.8332 7.06693 97.9524C7.07184 98.4099 6.8802 98.8423 6.59014 99.1961C5.94008 99.9889 5.54411 100.865 5.31298 101.797C4.83782 103.711 4.25864 105.675 3.81576 107.597C3.73949 107.928 3.67436 108.262 3.61165 108.595C3.24045 110.585 3.1317 112.633 2.7029 114.611C1.6661 119.475 2.02439 124.384 2.10759 129.286C2.11399 129.747 2.42765 130.214 2.65165 130.656C2.70285 130.758 2.97164 130.822 3.11884 130.79C3.25964 130.758 3.45808 130.598 3.47728 130.47C3.54768 129.977 3.66921 129.459 3.57321 128.985C2.70281 124.781 2.83094 120.601 3.54134 116.371C4.00485 113.595 4.30722 110.795 4.61622 107.995C4.84801 105.896 5.74522 103.927 6.38843 101.915C7.05865 99.8184 7.71209 97.6923 8.62842 95.6909C9.3568 94.0999 9.95318 92.4479 10.6451 90.8413C10.9575 90.1124 11.0004 89.2722 11.1493 88.4777C11.1527 88.4596 11.1275 88.4507 11.1188 88.4669C11.4772 87.7501 11.8358 87.0334 12.1942 86.323L12.1429 86.4189C12.5013 85.7021 12.8595 84.9917 13.2179 84.2749L13.1667 84.371C13.5251 83.6606 13.8836 82.9437 14.242 82.2333L14.1973 82.323C14.5557 81.6126 14.9076 80.9021 15.266 80.1853C15.2547 80.2064 15.2792 80.2281 15.2987 80.2142C16.3295 79.4776 16.947 78.4713 17.2446 77.2555C17.2615 77.1867 17.285 77.1197 17.3165 77.0562C17.609 76.4656 17.9015 75.875 18.194 75.2844C18.2554 75.1605 18.3365 75.0475 18.4342 74.9498C18.7255 74.6586 19.0176 74.3674 19.314 74.0763C19.3229 74.0675 19.3372 74.0676 19.346 74.0765C19.3548 74.0853 19.3548 74.0997 19.346 74.1085C19.0541 74.4004 18.7622 74.6923 18.4703 74.9881C18.374 75.0857 18.2946 75.1985 18.2345 75.3217C17.9819 75.84 17.7263 76.3587 17.4732 76.8804C17.3742 77.0845 17.2072 77.2479 17.0009 77.3424C16.425 77.6061 15.8522 77.8728 15.2753 78.1355C15.2506 78.1467 15.2495 78.1815 15.2734 78.1942ZM28.5943 68.9685C28.5877 68.9624 28.59 68.9543 28.5964 68.948C28.9379 68.6125 29.2732 68.2709 29.6148 67.9356C30.9204 66.374 32.2516 64.8317 33.5317 63.2509C33.954 62.7326 34.2677 62.118 34.5942 61.5356C34.6646 61.4076 34.6581 61.1774 34.5813 61.043C34.3957 60.7038 34.0053 60.5886 33.7429 60.8766C32.4949 62.2526 31.2661 63.6541 30.0757 65.0877C29.4415 65.8557 29.315 66.7507 29.557 67.6861C29.6021 67.8606 29.561 68.0487 29.4343 68.1769C29.1722 68.4422 28.9092 68.7052 28.6426 68.9719C28.6329 68.9816 28.6044 68.9778 28.5943 68.9685ZM45.9839 46.6758C45.9811 46.5172 46.0436 46.3623 46.1571 46.2515C46.4388 45.9765 46.7233 45.7015 47.0037 45.4265C47.0143 45.4161 47.0314 45.4162 47.0419 45.4267C47.0526 45.4374 47.0525 45.4547 47.0418 45.4653C46.7029 45.7984 46.3698 46.1374 46.0307 46.4702C45.6787 46.8158 45.3268 47.1549 44.9748 47.5005C43.81 48.8509 43.8101 48.8509 44.7445 50.2205C44.863 50.3898 44.785 50.6249 44.5831 50.6693C40.9824 51.4617 38.6996 53.8615 37.0835 57.0813C36.8915 57.4589 37.0389 57.7661 37.4229 57.8749C37.5701 57.9133 37.8004 57.8941 37.9091 57.8045C39.6126 56.3926 41.2971 54.9645 42.7791 53.3401C44.3241 51.6468 46.4374 50.4506 48.0276 48.7997C48.5793 48.2246 49.1169 47.6373 49.6506 47.0469C50.6221 45.9723 51.7875 45.0921 52.827 44.0832C53.2012 43.72 53.543 43.3243 53.844 42.8872C54.0807 42.5436 54.3261 42.2039 54.6185 41.9062C55.0091 41.5085 55.4655 41.1819 55.9664 40.9375C56.4024 40.7248 56.8378 40.5113 57.2757 40.3005C58.8053 39.5133 60.2835 38.6429 61.3523 37.2349C61.6925 36.8946 62.0329 36.5544 62.3731 36.2142C62.382 36.2053 62.3963 36.2053 62.4052 36.2141C62.4141 36.223 62.4141 36.2374 62.4052 36.2463C62.1661 36.4854 61.9268 36.7246 61.6876 36.9638C61.4935 37.1578 61.2302 37.2669 60.9557 37.2669C60.1685 37.2669 59.3807 37.2669 58.5895 37.2669C58.4223 37.2669 58.2868 37.1313 58.2865 36.964C58.2862 36.7227 58.2851 36.4813 58.2809 36.24C58.2807 36.2295 58.2935 36.2241 58.3009 36.2315C58.3065 36.2372 58.3049 36.2467 58.2978 36.2502C57.699 36.5496 57.1003 36.8489 56.5015 37.1438C56.3532 37.2169 56.2182 37.3145 56.1017 37.4319C55.8194 37.7166 55.5341 37.9984 55.2532 38.2845C54.5758 38.962 53.7006 39.3876 52.8244 39.775C52.0507 40.1171 51.3591 40.6021 50.7795 41.2797C50.3187 41.8173 50.0308 42.4062 50.2804 43.1166C50.7388 44.4277 50.1073 45.8784 48.8148 46.3869C48.1325 46.6561 47.4537 46.9286 46.7733 47.1997C46.3987 47.3489 45.9911 47.0791 45.9839 46.6758ZM65.4781 34.1669C65.4636 34.1524 65.4677 34.128 65.4861 34.1191C66.1544 33.7939 66.8168 33.4629 67.4853 33.1379C67.4919 33.1347 67.4998 33.136 67.505 33.1412C67.5134 33.1495 67.5111 33.1636 67.5005 33.1688C66.8358 33.5014 66.1771 33.8399 65.5124 34.1725C65.5009 34.1782 65.4871 34.1759 65.4781 34.1669ZM14.2781 89.4811C14.2795 89.4831 14.2793 89.4858 14.2776 89.4877C13.0251 90.9015 12.3919 92.6154 11.9123 94.3997C11.8035 94.7965 11.9381 95.078 12.3029 95.1421C12.4373 95.1676 12.6611 95.0844 12.7379 94.9692C13.9401 93.3345 14.9969 91.6556 14.2685 89.4864C14.2665 89.4803 14.2746 89.4758 14.2781 89.4811ZM252.191 83.6003C251.927 83.4453 251.716 83.2175 251.554 82.9566C251.739 83.1905 251.848 83.4721 251.881 83.7683C252.07 85.4562 252.482 87.0797 253.557 88.4605C253.692 88.6333 254.095 88.6333 254.376 88.6397C254.447 88.6397 254.588 88.3838 254.594 88.243C254.677 86.8414 254.101 85.6189 253.372 84.5053C253.125 84.1158 252.647 83.8668 252.191 83.6003ZM25.5346 71.0408C25.5402 71.0474 25.5396 71.0572 25.5334 71.0631C22.4416 74.0434 20.2302 77.6299 18.4276 81.491C18.3636 81.6318 18.3765 81.8366 18.4213 81.9902C18.4661 82.1374 18.5748 82.3165 18.7092 82.3741C18.8372 82.4381 19.1061 82.4445 19.1829 82.3549C19.8037 81.6765 24.8084 74.227 25.026 73.4974C25.2659 72.7083 25.3562 71.8694 25.506 71.0483C25.5085 71.0347 25.5257 71.0302 25.5346 71.0408ZM154.66 225.446C154.701 225.446 154.735 225.413 154.735 225.371C154.735 225.328 154.77 225.294 154.813 225.296C155.626 225.338 156.444 225.451 157.25 225.395C160.476 225.164 163.599 224.588 166.044 222.201C166.236 222.016 166.338 221.517 166.223 221.299C166.101 221.075 165.653 220.87 165.372 220.902C163.036 221.171 160.712 221.491 158.383 221.805C158.05 221.849 157.711 221.92 157.41 222.054C155.42 222.924 153.429 223.814 151.452 224.717C151.368 224.755 151.317 225.017 151.362 225.133C151.42 225.261 151.599 225.42 151.727 225.427C152.706 225.452 153.686 225.446 154.66 225.446ZM141.921 225.789C141.585 225.424 141.042 225.311 140.563 225.439C140.224 225.53 139.877 225.626 139.535 225.734C139.303 225.804 139.369 226.193 139.554 226.349C139.657 226.434 139.758 226.499 139.855 226.496C140.482 226.47 141.116 226.336 141.736 226.208C141.806 226.191 141.899 226.07 141.952 225.977C141.991 225.909 141.975 225.846 141.921 225.789ZM10.9002 138.511C10.8483 138.326 10.4894 138.332 10.4595 138.521C10.4339 138.649 10.4469 138.88 10.5301 138.925C10.8245 139.097 10.9781 138.931 10.9013 138.515C10.901 138.513 10.9006 138.512 10.9002 138.511ZM176.048 22.6188C176.121 22.6233 176.194 22.6053 176.251 22.5604C176.385 22.4561 176.404 22.2312 176.263 22.1366C176.227 22.1121 176.189 22.0937 176.149 22.0861C175.688 22.0029 175.509 22.1885 175.708 22.5405C175.752 22.61 175.909 22.6102 176.048 22.6188ZM8.53254 104.308C8.5601 104.4 8.68269 104.416 8.73295 104.335C8.77481 104.267 8.73389 104.179 8.65523 104.167C8.57475 104.154 8.50904 104.23 8.53254 104.308ZM149.992 223.02C149.919 222.995 149.848 223.059 149.865 223.134C149.88 223.2 149.957 223.23 150.013 223.193C150.081 223.149 150.068 223.046 149.992 223.02ZM183.695 24.5034C183.762 24.5266 183.828 24.4672 183.812 24.3981C183.799 24.3377 183.73 24.3088 183.677 24.3414C183.612 24.3814 183.623 24.4785 183.695 24.5034Z" fill="white"/>
<path d="M8.11705 91.5036C8.13016 91.5118 8.14748 91.5055 8.15229 91.4908C8.51829 90.3731 8.76778 89.2002 9.26906 88.1469C10.4467 85.6957 11.7458 83.302 13.0066 80.8892C13.5591 79.8285 14.2882 78.9066 15.2876 78.2233C15.2984 78.2159 15.2981 78.1999 15.2871 78.1929C15.275 78.1854 15.2594 78.1941 15.2594 78.2083C15.2596 78.8697 15.2654 79.531 15.2659 80.1869C15.2659 80.2116 15.2989 80.2199 15.3106 80.1981C14.9522 80.9085 14.6003 81.6188 14.2419 82.3356L14.2866 82.2461C13.9282 82.9565 13.57 83.6733 13.2116 84.3838L13.2628 84.2877C12.9044 85.0045 12.5459 85.7149 12.1875 86.4317L12.2387 86.3356C11.8804 87.0524 11.5218 87.7693 11.1634 88.4797C11.1723 88.4632 11.1508 88.4472 11.1375 88.4604C10.1275 89.4643 9.12317 90.4624 8.11288 91.4665C8.10199 91.4773 8.10403 91.4954 8.11705 91.5036Z" fill="white"/>
<path d="M175.029 220.557C176.693 220.313 178.351 220.051 180.021 219.859C180.2 219.84 180.463 220.224 180.623 220.467C180.674 220.544 180.565 220.825 180.456 220.889C178.389 222.08 176.149 222.79 173.826 223.257C172.782 223.467 171.833 223.12 170.954 222.575C170.946 222.57 170.936 222.573 170.932 222.582C170.926 222.592 170.934 222.605 170.946 222.605C172.668 222.611 174.055 221.938 175.067 220.525L175.029 220.557Z" fill="white"/>
<path d="M226.197 40.2748C226.211 40.2877 226.233 40.2717 226.225 40.2543C225.954 39.6728 225.668 39.0962 225.429 38.502C225.384 38.3932 225.474 38.1692 225.576 38.0668C225.672 37.958 225.877 37.862 226.005 37.8876C226.331 37.9516 226.664 38.0348 226.952 38.2012C228.188 38.8958 228.968 39.9457 229.284 41.3318C229.286 41.3401 229.296 41.3436 229.303 41.3381C229.311 41.3313 229.306 41.3181 229.295 41.3181C228.64 41.3179 227.984 41.3123 227.329 41.3117C227.291 41.3117 227.275 41.3589 227.304 41.382C226.933 41.0108 226.568 40.646 226.197 40.2748Z" fill="white"/>
<path d="M194.446 214.355C193.147 215.52 191.701 216.352 189.896 216.275C189.666 216.262 189.448 215.929 189.25 215.718C189.231 215.699 189.41 215.424 189.544 215.353C191.069 214.531 192.749 214.478 194.426 214.402C194.45 214.401 194.462 214.373 194.446 214.355Z" fill="white"/>
<path d="M103.119 1.75969C102.44 1.44439 102.636 0.117137 103.377 0.00909201C103.385 0.00797459 103.393 0.00697358 103.4 0.00609163C104.111 -0.0771084 104.636 0.710067 104.316 1.26047C104.047 1.71487 103.58 1.96449 103.119 1.75969Z" fill="white"/>
<path d="M181.94 52.1479C181.643 51.6014 181.643 50.6325 182.248 50.4892C182.492 50.4316 182.965 50.5981 183.061 50.7965C183.247 51.1997 183.343 51.6989 183.304 52.1469C183.26 52.6141 182.402 52.8124 182.114 52.422C182.049 52.3356 181.992 52.2434 181.94 52.1479Z" fill="white"/>
<path d="M191.445 21.8492C191.426 21.8731 191.443 21.9079 191.473 21.9088C193.689 21.9737 195.681 22.6962 197.493 23.9478C197.504 23.9553 197.519 23.9531 197.527 23.9426C197.539 23.9265 197.528 23.9028 197.508 23.9022C195.279 23.8298 193.109 23.5836 191.445 21.8492Z" fill="white"/>
<path d="M21.4356 68.9737C21.4356 68.9752 21.4378 68.9754 21.4381 68.9739C21.8368 67.1493 22.8918 65.8089 24.5141 64.8956L24.4947 64.8702C24.4947 65.5646 24.4886 66.259 24.4884 66.9534C24.4884 66.962 24.4995 66.9653 24.5043 66.9582C24.51 66.9495 24.4983 66.9399 24.491 66.9473C24.1409 67.2975 23.7963 67.6425 23.4516 67.9933L23.5284 67.9166C23.1572 68.2878 22.7924 68.6525 22.4212 69.0238C22.4504 68.9968 22.4308 68.9482 22.3912 68.9491C22.0721 68.9559 21.757 68.9667 21.4368 68.9725C21.4362 68.9725 21.4356 68.973 21.4356 68.9737Z" fill="white"/>
<path d="M208.81 30.0735C208.815 30.0802 208.82 30.076 208.827 30.0713C209.489 29.6204 210.196 29.2241 211.016 29.5485C211.123 29.5924 211.204 29.701 211.277 29.8274C211.401 30.0424 211.357 30.4918 211.112 30.451C210.348 30.3319 209.589 30.182 208.825 30.0376C208.81 30.0348 208.801 30.0614 208.81 30.0735Z" fill="white"/>
<path d="M87.3618 18.0797C87.3234 18.0797 87.1956 17.8045 87.234 17.7021C87.4004 17.2605 88.1875 16.9021 88.3155 17.1773C88.7443 18.1181 87.9378 18.0477 87.3618 18.0797Z" fill="white"/>
<path d="M234.42 183.672C234.415 183.675 234.415 183.683 234.421 183.686C234.757 183.847 235.274 183.835 235.197 184.411C235.193 184.444 235.175 184.469 235.142 184.475C235.051 184.489 234.86 184.497 234.831 184.448C234.672 184.207 234.558 183.935 234.432 183.675C234.429 183.671 234.424 183.669 234.42 183.672Z" fill="white"/>
<path d="M212.679 202.869C212.741 202.82 212.832 202.862 212.835 202.94C212.837 203.01 212.766 203.06 212.701 203.032C212.634 203.004 212.622 202.914 212.679 202.869Z" fill="white"/>
<path d="M7.08998 94.5865C7.10396 94.5988 7.12598 94.5893 7.1267 94.5707C7.17008 93.4623 7.41987 92.4227 8.12304 91.5363C8.12993 91.5276 8.12756 91.5147 8.11793 91.5092C8.10604 91.5024 8.09118 91.5108 8.09082 91.5245C8.06141 92.6387 7.80039 93.6716 7.08747 94.556C7.08003 94.5652 7.08109 94.5787 7.08998 94.5865Z" fill="white"/>
<path d="M187.469 20.7866C187.396 20.7754 187.363 20.6895 187.41 20.6327C187.455 20.5777 187.542 20.5902 187.57 20.6557C187.6 20.7241 187.542 20.7979 187.469 20.7866Z" fill="white"/>
<path d="M253.87 156.006C253.883 156.018 253.905 156.01 253.906 155.992C253.923 155.707 253.937 155.421 253.973 155.136C253.992 154.995 254.05 154.758 254.133 154.739C254.472 154.649 254.581 154.861 254.37 155.251C254.232 155.508 254.038 155.735 253.868 155.979C253.862 155.987 253.863 155.998 253.87 156.006Z" fill="white"/>
<path d="M229.294 41.3386C229.288 41.3443 229.289 41.354 229.296 41.3578C230.185 41.8253 230.814 42.5516 231.317 43.3981C231.333 43.3849 231.323 43.3597 231.303 43.3597C230.637 43.36 229.971 43.3659 229.299 43.3661C229.286 43.3661 229.279 43.3823 229.288 43.3917C229.298 43.4012 229.314 43.3945 229.314 43.3811C229.314 42.705 229.314 42.0231 229.314 41.3471C229.314 41.3364 229.301 41.331 229.294 41.3386Z" fill="white"/>
<path d="M194.465 214.379C194.476 214.394 194.497 214.396 194.511 214.384C194.541 214.358 194.508 214.315 194.475 214.336C194.465 214.342 194.456 214.349 194.446 214.355L194.465 214.379Z" fill="white"/>
<path d="M245.676 175.46C245.689 175.472 245.71 175.466 245.714 175.449C245.75 175.308 245.791 175.167 245.826 175.02C245.776 175.157 245.727 175.299 245.672 175.435C245.668 175.444 245.67 175.453 245.676 175.46Z" fill="white"/>
<path d="M233.389 45.452C233.386 45.4561 233.386 45.4616 233.389 45.4656C233.893 46.1379 233.888 46.81 233.387 47.476C233.382 47.4826 233.382 47.492 233.388 47.4979C233.398 47.5083 233.416 47.5009 233.416 47.4862C233.416 46.8084 233.416 46.1362 233.41 45.4584C233.41 45.4469 233.395 45.4425 233.389 45.452Z" fill="white"/>
<path d="M197.531 23.9466C197.523 23.9563 197.531 23.9664 197.542 23.9716C197.654 24.0208 197.766 24.0717 197.879 24.1223C197.931 24.1455 197.906 24.2341 197.858 24.2045C197.756 24.142 197.678 24.0341 197.595 23.939C197.584 23.9262 197.542 23.9336 197.531 23.9466Z" fill="white"/>
<path d="M79.799 24.9552C79.8016 24.9579 79.8057 24.9586 79.8091 24.9569C80.492 24.6186 81.175 24.2803 81.8516 23.942L81.8259 23.9102C81.8198 24.2554 81.8195 24.6007 81.8138 24.946C81.8135 24.9615 81.8316 24.9702 81.8435 24.9604C81.8568 24.9495 81.849 24.928 81.8318 24.9281C81.1581 24.934 80.4787 24.9342 79.8051 24.9403C79.7974 24.9403 79.7935 24.9497 79.799 24.9552Z" fill="white"/>
<path d="M81.8516 23.942C82.8732 23.2397 82.8754 23.2381 83.8794 23.9371C83.8835 23.94 83.8892 23.9399 83.8932 23.9368C83.9016 23.9302 83.8969 23.9166 83.8861 23.9166C83.1994 23.9166 82.5127 23.9165 81.8259 23.9102L81.8516 23.942Z" fill="white"/>
<path d="M191.445 21.8492C191.328 21.7997 191.211 21.7482 191.093 21.6969C191.049 21.6773 191.07 21.5932 191.112 21.6189C191.2 21.6757 191.271 21.7659 191.343 21.8491C191.375 21.8865 191.445 21.8492 191.445 21.8492Z" fill="white"/>
<path d="M82.8749 19.8516C82.8768 19.8541 82.8777 19.8513 82.8804 19.8498C82.98 19.7934 83.0796 19.7387 83.1782 19.6839C83.2053 19.6688 83.2377 19.7141 83.2084 19.7245C83.1117 19.7621 83.0013 19.7727 82.8927 19.7902C82.8852 19.7914 82.8704 19.8456 82.8749 19.8516Z" fill="white"/>
<path d="M173.999 219.494C173.988 219.505 173.988 219.522 173.999 219.532C174.344 219.872 174.69 220.217 175.029 220.557L175.067 220.525C174.722 220.179 174.376 219.84 174.037 219.494C174.026 219.484 174.009 219.483 173.999 219.494Z" fill="white"/>
<path d="M234.413 183.675C234.418 183.67 234.416 183.66 234.409 183.66C234.073 183.661 233.738 183.667 233.403 183.667C233.397 183.667 233.394 183.673 233.396 183.678C233.4 183.685 233.41 183.682 233.41 183.674C233.41 183.33 233.41 182.986 233.415 182.642C233.416 182.624 233.394 182.614 233.381 182.627C233.368 182.64 233.377 182.662 233.395 182.662C233.733 182.662 234.071 182.662 234.414 182.662C234.425 182.662 234.421 182.648 234.421 182.637C234.421 182.981 234.421 183.326 234.415 183.67C234.415 183.672 234.412 183.676 234.413 183.675Z" fill="white"/>
<path d="M239.548 179.558C239.198 179.558 238.848 179.558 238.498 179.564C238.494 179.564 238.49 179.566 238.487 179.569C238.477 179.579 238.484 179.597 238.498 179.597C238.844 179.597 239.186 179.597 239.532 179.597C239.552 179.597 239.562 179.572 239.548 179.558Z" fill="white"/>
<path d="M245.698 175.486C245.697 175.484 245.695 175.485 245.697 175.487C245.698 175.487 245.698 175.488 245.699 175.487C245.699 175.487 245.698 175.487 245.698 175.486Z" fill="white"/>
<path d="M102.319 14.6941C102.335 14.7105 102.334 14.7133 102.32 14.6953C102.319 14.6945 102.319 14.6941 102.319 14.6941Z" fill="white"/>
<path d="M231.317 43.3981C231.652 43.7393 231.987 44.0741 232.322 44.4151C232.329 44.4228 232.341 44.4241 232.35 44.4181C232.362 44.4103 232.364 44.3935 232.354 44.3834C232.034 44.0571 231.714 43.7307 231.393 43.3988C231.373 43.3773 231.338 43.377 231.317 43.3981Z" fill="white"/>
<path d="M232.367 44.4097C232.354 44.4195 232.352 44.4392 232.364 44.451C232.702 44.7827 233.034 45.1144 233.371 45.4402C233.382 45.4503 233.399 45.4494 233.408 45.4383C233.416 45.4282 233.416 45.4134 233.406 45.4042C233.072 45.0755 232.737 44.7411 232.402 44.4124C232.393 44.4033 232.378 44.4021 232.367 44.4097Z" fill="white"/>
<path d="M24.5141 64.8956C24.8225 64.563 25.1308 64.2247 25.4392 63.8915C25.469 63.8593 25.5192 63.8574 25.5514 63.8872C25.5673 63.9019 25.5765 63.9224 25.5768 63.944C25.5807 64.2561 25.5579 64.568 25.5183 64.8748C25.5167 64.8876 25.5331 64.8945 25.5411 64.8843C25.5476 64.876 25.5417 64.8638 25.5311 64.8638C25.1875 64.8641 24.838 64.8702 24.4947 64.8702L24.5141 64.8956Z" fill="white"/>
<path d="M55.4538 41.2351C55.3084 41.3069 55.1764 41.4025 55.0631 41.5185C54.5727 42.0206 53.6609 42.2145 53.2823 41.6236C53.1095 41.354 53.2101 41.09 53.4742 40.5438C53.8937 39.6792 54.5353 38.932 55.2148 38.2525C55.4397 38.0234 55.6645 37.7942 55.8893 37.5651C56.1087 37.3416 56.4087 37.2155 56.722 37.2157C57.5138 37.2161 58.0686 37.9917 57.8183 38.743C57.7221 39.0317 57.6258 39.3204 57.5296 39.6091C57.3753 40.0721 57.0426 40.4545 56.6046 40.6696C56.221 40.8581 55.8374 41.0458 55.4538 41.2351Z" fill="white"/>
</svg>
