<svg width="405" height="305" viewBox="0 0 405 305" fill="none" xmlns="http://www.w3.org/2000/svg">
<path d="M375.937 188.332C374.735 189.196 373.454 189.842 371.947 190.005C370.961 190.111 370.116 190.575 369.297 191.151C368.162 191.949 367.102 192.817 366.175 193.85C365.468 194.636 364.693 195.362 364.031 196.181C363.031 197.417 361.957 198.615 361.302 200.143C361.288 199.682 361.296 199.219 361.249 198.763C361.235 198.633 361.077 198.502 360.955 198.406C360.758 198.248 360.345 198.331 360.311 198.522C360.178 199.311 359.875 200.085 360.172 200.908C360.21 201.013 360.086 201.279 359.986 201.312C359.29 201.548 359.62 202.073 359.624 202.504C359.085 202.627 358.505 202.665 358.425 203.422C358.402 203.641 358.242 203.87 358.086 204.043C358.016 204.123 357.702 204.126 357.676 204.077C357.458 203.645 357.209 203.209 357.112 202.743C357 202.192 356.946 201.603 357.011 201.047C357.197 199.434 357.447 197.832 357.687 196.227C357.759 195.747 357.899 195.277 358 194.797C358.181 193.923 358.25 193.009 358.563 192.184C358.962 191.125 359.538 190.132 360.07 189.13C360.567 188.196 361.103 187.283 361.989 186.644C362.12 186.548 362.262 186.453 362.358 186.327C364.229 183.888 366.842 182.38 369.352 180.746C369.629 180.567 369.984 180.409 370.266 180.604C370.808 180.982 371.335 180.88 371.885 180.703C372.501 180.506 373.143 180.354 373.731 180.089C375.535 179.276 377.471 179.038 379.385 178.72C380.18 178.588 380.997 178.609 381.8 178.529C381.894 178.519 381.978 178.298 382.042 178.164C382.051 178.142 381.945 178.029 381.881 178.015C381.725 177.98 381.561 177.975 381.401 177.971C381.191 177.964 381.079 177.885 381.119 177.723C381.131 177.666 381.23 177.598 381.294 177.594C382.918 177.532 384.533 177.599 386.122 177.968C386.596 178.078 387.082 178.31 387.544 178.268C388.681 178.171 389.596 178.498 390.407 179.292C390.61 179.491 391.003 179.586 391.305 179.575C392.708 179.515 393.654 180.339 394.298 181.363C394.914 182.345 395.67 183.161 396.44 183.99C397.108 184.712 397.552 185.538 397.902 186.477C398.764 188.786 399.18 191.158 399.259 193.605C399.288 194.497 399.329 195.392 399.418 196.282C399.734 199.448 399.002 204.502 397.844 207.287C396.941 209.464 396.021 211.626 395.28 213.864C395.026 214.627 394.645 215.367 394.221 216.056C392.765 218.406 391.596 220.906 390.343 223.363C390.196 223.651 390.029 223.944 389.806 224.173C388.267 225.729 386.92 227.488 385.055 228.696C384.647 228.96 384.246 229.236 383.818 229.467C380.316 231.353 376.726 233.067 373.088 234.673C371.535 235.36 369.888 235.837 368.259 236.337C367.45 236.585 366.798 236.879 366.388 237.713C366.113 238.269 365.574 238.717 365.095 239.152C364.134 240.021 363.171 240.858 362.491 242.007C362.086 242.691 361.474 243.256 361.018 243.933C359.687 245.907 358.761 248.061 358.057 250.323C357.911 250.788 357.799 251.261 357.702 251.739C357.385 253.33 357.086 254.93 356.779 256.523C356.747 256.684 356.691 256.838 356.669 256.998C356.517 258.038 356.437 259.097 356.209 260.121C355.98 261.144 355.589 262.131 355.301 263.142C354.968 264.317 354.823 265.528 354.702 266.742C354.633 267.432 354.124 267.795 353.568 267.798C353.244 267.799 352.916 267.774 352.597 267.812C351.474 267.948 351.471 267.958 351.631 266.902C351.68 266.587 351.39 266.355 351.012 266.349C350.617 266.341 350.511 266.711 350.248 266.876C350.057 266.881 349.975 266.779 349.976 266.567C349.969 266.002 350.054 265.409 349.919 264.876C349.652 263.822 349.731 262.794 349.859 261.737C349.996 260.611 349.993 259.466 350.153 258.343C350.42 256.496 350.685 254.64 351.101 252.822C351.59 250.685 352.201 248.574 352.831 246.472C353.157 245.387 353.627 244.343 354.053 243.289C355.396 239.972 356.897 236.733 358.935 233.776C360.045 232.165 361.32 230.689 362.729 229.341C363.254 228.841 363.885 228.454 364.485 228.04C365.084 227.627 365.722 227.27 366.319 226.852C367.276 226.183 368.357 225.796 369.494 225.742C370.146 225.712 370.536 225.556 370.88 225.018C371.033 224.777 371.396 224.589 371.691 224.538C373.244 224.271 374.61 223.595 375.927 222.764C376.329 222.509 376.801 222.336 377.267 222.211C378.064 221.995 378.828 221.781 379.277 220.986C379.389 220.79 379.64 220.667 379.844 220.539C381.223 219.683 382.576 218.781 383.999 218.001C386.183 216.797 387.82 215.003 389.427 213.169C389.796 212.751 390.056 212.225 390.305 211.718C391.656 208.957 392.064 205.992 392.133 202.964C392.191 200.423 391.677 197.958 391.092 195.509C390.767 194.147 390.067 192.991 389.097 191.939C387.216 189.9 384.79 189.098 382.184 188.702C380.581 188.46 378.964 188.298 377.331 188.459C376.858 188.504 376.368 188.405 375.885 188.37C375.944 187.569 375.88 187.51 375.189 187.684C375.039 187.721 374.892 187.784 374.758 187.861C374.701 187.891 374.654 187.988 374.65 188.054C374.648 188.116 374.708 188.235 374.752 188.239C375.149 188.279 375.544 188.304 375.937 188.332ZM380.576 184.042C379.905 183.933 379.232 183.795 378.554 183.987C377.65 183.804 376.769 183.797 375.952 184.311C374.855 184.034 373.929 184.445 373.046 185.036C373.004 185.063 372.981 185.173 373.003 185.225C373.025 185.284 373.115 185.371 373.159 185.362C373.855 185.221 374.561 185.107 375.231 184.889C375.505 184.8 375.699 184.482 375.932 184.27C376.309 184.332 376.685 184.426 377.066 184.447C377.61 184.477 378.134 184.385 378.536 183.95C379.208 184.042 379.877 184.313 380.559 183.999C380.636 184.016 380.714 184.051 380.79 184.044C380.848 184.038 380.898 183.981 380.95 183.946C380.824 183.982 380.7 184.012 380.576 184.042ZM362.925 195.529C362.412 195.789 362.089 196.182 362.11 196.786C362.11 196.839 362.215 196.93 362.262 196.925C362.32 196.92 362.401 196.843 362.425 196.779C362.591 196.355 362.742 195.923 362.899 195.494C363.017 195.409 363.144 195.33 363.251 195.232C363.302 195.186 363.337 195.107 363.348 195.04C363.355 194.986 363.316 194.922 363.301 194.862C363.21 194.94 363.084 195.001 363.033 195.1C362.963 195.229 362.956 195.386 362.925 195.529ZM382.06 182.429C382.593 182.555 383.112 182.796 383.681 182.681C383.74 182.668 383.843 182.562 383.83 182.531C383.785 182.399 383.733 182.209 383.634 182.172C383.065 181.959 382.555 182.157 382.074 182.468C381.929 182.419 381.788 182.367 381.64 182.328C381.568 182.308 381.487 182.297 381.419 182.314C381.367 182.325 381.328 182.392 381.285 182.433C381.404 182.49 381.524 182.592 381.638 182.587C381.783 182.584 381.921 182.487 382.06 182.429Z" fill="#EB539F"/>
<path d="M342.2 285.556C342.296 285.264 342.456 284.719 342.664 284.194C342.852 283.713 343.242 283.416 343.724 283.27C345.329 282.781 346.88 282.795 348.449 283.529C349.898 284.21 350.732 285.327 351.029 286.819C351.169 287.529 351.269 288.218 351.572 288.898C352.007 289.874 351.709 290.818 351.068 291.622C350.718 292.06 350.281 292.443 349.834 292.785C349.264 293.22 348.553 293.445 348.135 294.111C347.983 294.352 347.619 294.515 347.321 294.604C346.347 294.889 345.595 295.466 344.965 296.241C344.865 296.366 344.722 296.454 344.593 296.553C344.189 296.867 343.385 296.768 343.042 296.356C342.888 296.17 342.723 295.985 342.608 295.771C341.87 294.39 341.4 292.926 341.492 291.349C341.575 289.899 341.751 288.453 341.909 287.01C341.955 286.603 342.067 286.21 342.2 285.556Z" fill="#EB539F"/>
<path d="M210.26 68.0551C209.718 70.0279 208.902 71.8344 207.424 73.3178C206.457 74.2865 205.951 75.5185 205.571 76.8489C205.043 78.692 204.658 80.5438 204.558 82.4594C204.481 83.9175 204.278 85.3697 204.277 86.825C204.275 89.0206 204.161 91.2405 204.783 93.4526C204.368 92.9685 203.975 92.4642 203.529 92.0144C203.401 91.8865 203.117 91.8839 202.902 91.8866C202.554 91.8872 202.182 92.3346 202.312 92.5698C202.853 93.533 203.2 94.6281 204.233 95.2546C204.365 95.3344 204.463 95.728 204.384 95.8505C203.841 96.7085 204.652 96.986 205.03 97.4453C204.557 98.0458 203.967 98.5904 204.538 99.4729C204.703 99.7288 204.729 100.113 204.713 100.434C204.706 100.581 204.372 100.858 204.302 100.827C203.692 100.553 203.046 100.299 202.538 99.8825C201.938 99.3877 201.37 98.8019 200.956 98.1475C199.757 96.2535 198.635 94.3147 197.5 92.3816C197.16 91.8022 196.903 91.1762 196.594 90.573C196.031 89.4763 195.311 88.4332 194.931 87.2756C194.442 85.7911 194.198 84.2234 193.901 82.6848C193.624 81.2502 193.408 79.8036 193.805 78.3478C193.863 78.1318 193.932 77.9058 193.927 77.6869C193.82 73.442 195.32 69.5536 196.599 65.6192C196.74 65.1862 196.985 64.7076 197.457 64.6727C198.368 64.6079 198.846 64.0412 199.284 63.3739C199.774 62.6269 200.333 61.9064 200.735 61.1111C201.968 58.6721 203.841 56.7359 205.622 54.7324C206.362 53.9003 207.259 53.2145 208.052 52.4311C208.144 52.3387 208.043 52.029 207.995 51.8291C207.986 51.7971 207.773 51.7682 207.694 51.8087C207.496 51.9067 207.315 52.0435 207.139 52.1783C206.908 52.3527 206.718 52.3648 206.621 52.1563C206.584 52.0852 206.631 51.9254 206.697 51.8654C208.389 50.3899 210.181 49.0599 212.21 48.0775C212.814 47.7838 213.539 47.6115 213.998 47.166C215.137 46.0748 216.404 45.631 217.965 45.7815C218.356 45.8186 218.861 45.5793 219.176 45.3058C220.63 44.0232 222.363 44.0871 223.944 44.6297C225.458 45.1503 226.979 45.3702 228.526 45.5936C229.87 45.7887 231.064 46.2923 232.255 46.9976C235.186 48.7302 237.692 50.9184 239.901 53.4799C240.706 54.4132 241.527 55.3389 242.395 56.2185C245.483 59.3465 249.083 65.4134 250.256 69.4114C251.175 72.5353 252.062 75.6576 253.209 78.7059C253.599 79.7462 253.831 80.8717 253.974 81.9804C254.448 85.7693 255.362 89.4713 256.148 93.1989C256.239 93.6364 256.315 94.0963 256.274 94.536C255.971 97.5441 256.049 100.604 255.095 103.521C254.885 104.159 254.693 104.804 254.434 105.423C252.307 110.489 249.937 115.447 247.421 120.332C246.348 122.416 244.992 124.36 243.676 126.311C243.022 127.28 242.576 128.161 242.86 129.413C243.046 130.251 242.856 131.199 242.719 132.082C242.44 133.85 242.132 135.586 242.398 137.411C242.556 138.497 242.389 139.636 242.487 140.759C242.77 144.036 243.645 147.154 244.851 150.197C245.098 150.822 245.387 151.429 245.699 152.026C246.739 154.011 247.806 155.99 248.859 157.969C248.964 158.17 249.038 158.383 249.153 158.574C249.893 159.824 250.726 161.032 251.369 162.33C252.012 163.628 252.448 165.028 253.016 166.365C253.678 167.916 254.573 169.344 255.497 170.754C256.022 171.554 255.79 172.387 255.194 172.873C254.847 173.155 254.474 173.413 254.163 173.731C253.074 174.852 253.079 174.865 252.335 173.591C252.115 173.211 251.602 173.212 251.19 173.534C250.758 173.869 250.965 174.358 250.827 174.764C250.625 174.936 250.449 174.896 250.266 174.669C249.768 174.067 249.344 173.355 248.737 172.9C247.536 171.999 246.727 170.825 245.948 169.578C245.117 168.25 244.121 167.022 243.318 165.676C242.001 163.459 240.675 161.235 239.545 158.92C238.215 156.199 237.04 153.4 235.892 150.594C235.3 149.145 234.9 147.616 234.443 146.112C233.007 141.382 231.809 136.599 231.431 131.651C231.227 128.956 231.316 126.264 231.661 123.592C231.79 122.599 232.132 121.635 232.418 120.67C232.704 119.706 233.079 118.768 233.358 117.801C233.805 116.251 234.632 114.897 235.806 113.852C236.481 113.254 236.765 112.748 236.668 111.871C236.623 111.48 236.85 110.962 237.123 110.651C238.56 109.016 239.441 107.104 240.135 105.069C240.347 104.445 240.704 103.85 241.096 103.311C241.765 102.387 242.4 101.493 242.192 100.249C242.143 99.942 242.306 99.592 242.413 99.2773C243.153 97.1602 243.825 95.0167 244.676 92.9426C245.978 89.7538 246.181 86.4046 246.316 83.0395C246.349 82.2692 246.172 81.4787 245.999 80.7177C245.055 76.5768 242.92 73.0366 240.366 69.7231C238.223 66.9419 235.531 64.7386 232.776 62.6145C231.245 61.4329 229.49 60.7981 227.534 60.5094C223.742 59.9502 220.439 61.195 217.295 63.0319C215.362 64.1619 213.484 65.391 211.868 66.9816C211.4 67.4414 210.786 67.7599 210.237 68.1424C209.606 67.2297 209.485 67.222 208.894 68.0084C208.764 68.1791 208.661 68.3739 208.584 68.5723C208.549 68.6548 208.582 68.7994 208.636 68.8734C208.687 68.9431 208.854 69.0181 208.906 68.9848C209.368 68.6824 209.813 68.3666 210.26 68.0551ZM211.522 59.4194C210.707 59.8841 209.863 60.3202 209.301 61.1143C208.171 61.7031 207.218 62.46 206.786 63.7208C205.367 64.3761 204.728 65.6209 204.292 67.0224C204.27 67.0886 204.342 67.2266 204.409 67.2634C204.485 67.3069 204.657 67.3233 204.697 67.2747C205.322 66.5193 205.981 65.7845 206.513 64.968C206.73 64.6353 206.663 64.1253 206.728 63.6951C207.188 63.4346 207.673 63.2089 208.101 62.9008C208.712 62.4602 209.196 61.9064 209.25 61.0908C210.051 60.6065 211.006 60.3166 211.467 59.3874C211.564 59.3393 211.679 59.3089 211.753 59.2346C211.811 59.1784 211.815 59.0735 211.84 58.9905C211.737 59.1392 211.629 59.2792 211.522 59.4194ZM202.523 87.0841C202.198 87.8093 202.191 88.5115 202.738 89.1426C202.784 89.1995 202.977 89.2062 203.023 89.16C203.08 89.1038 203.1 88.9512 203.07 88.8615C202.881 88.2618 202.668 87.6673 202.465 87.0689C202.518 86.8758 202.585 86.6811 202.615 86.4827C202.63 86.3888 202.6 86.2738 202.553 86.1917C202.514 86.1268 202.417 86.0928 202.348 86.0412C202.317 86.2039 202.235 86.3788 202.266 86.5296C202.304 86.729 202.432 86.9032 202.523 87.0841ZM211.717 56.3978C212.398 56.0699 213.166 55.8784 213.677 55.2607C213.731 55.1959 213.748 54.9928 213.707 54.9699C213.544 54.8676 213.324 54.708 213.185 54.7542C212.389 55.02 212.013 55.6755 211.766 56.4274C211.567 56.5002 211.371 56.5668 211.178 56.6525C211.083 56.6944 210.986 56.7529 210.928 56.8301C210.881 56.8868 210.897 56.9927 210.887 57.0743C211.064 57.032 211.282 57.038 211.4 56.9341C211.553 56.8046 211.618 56.5804 211.717 56.3978Z" fill="#EB539F"/>
<path d="M258.391 201.824C258.241 201.428 257.94 200.703 257.707 199.958C257.492 199.277 257.652 198.62 258.044 198.045C259.345 196.127 261.024 194.796 263.347 194.223C265.496 193.696 267.362 194.174 268.975 195.519C269.742 196.16 270.448 196.814 271.364 197.281C272.679 197.952 273.177 199.227 273.186 200.647C273.191 201.421 273.054 202.212 272.87 202.967C272.635 203.93 272.066 204.788 272.195 205.867C272.241 206.258 271.991 206.749 271.748 207.104C270.949 208.255 270.641 209.528 270.637 210.907C270.637 211.128 270.56 211.348 270.508 211.566C270.346 212.255 269.397 212.845 268.67 212.7C268.343 212.635 268.005 212.579 267.696 212.449C265.704 211.605 263.929 210.44 262.658 208.664C261.489 207.035 260.423 205.328 259.34 203.639C259.036 203.162 258.816 202.643 258.391 201.824Z" fill="#EB539F"/>
<path d="M128.665 196.281C128.293 197.633 127.734 198.871 126.721 199.888C126.058 200.552 125.711 201.397 125.451 202.309C125.089 203.572 124.825 204.842 124.756 206.155C124.703 207.154 124.564 208.15 124.563 209.147C124.562 210.653 124.484 212.174 124.911 213.691C124.626 213.359 124.357 213.013 124.051 212.705C123.963 212.617 123.768 212.615 123.621 212.617C123.382 212.618 123.128 212.924 123.217 213.085C123.587 213.746 123.825 214.496 124.533 214.926C124.624 214.981 124.691 215.25 124.637 215.334C124.264 215.923 124.82 216.113 125.08 216.428C124.755 216.839 124.351 217.213 124.743 217.818C124.856 217.993 124.874 218.256 124.862 218.476C124.858 218.577 124.628 218.767 124.58 218.746C124.163 218.558 123.72 218.384 123.371 218.098C122.96 217.759 122.571 217.358 122.287 216.909C121.465 215.611 120.696 214.282 119.918 212.956C119.685 212.559 119.509 212.13 119.297 211.717C118.911 210.965 118.418 210.25 118.157 209.456C117.822 208.439 117.655 207.364 117.451 206.309C117.261 205.326 117.113 204.334 117.385 203.336C117.425 203.188 117.472 203.033 117.469 202.883C117.396 199.973 118.424 197.308 119.3 194.611C119.397 194.314 119.565 193.986 119.889 193.962C120.513 193.918 120.841 193.529 121.141 193.072C121.477 192.56 121.86 192.066 122.135 191.521C122.981 189.849 124.265 188.521 125.486 187.148C125.993 186.578 126.608 186.108 127.151 185.571C127.215 185.507 127.145 185.295 127.112 185.158C127.106 185.136 126.96 185.116 126.906 185.144C126.77 185.211 126.646 185.305 126.525 185.397C126.367 185.517 126.237 185.525 126.17 185.382C126.145 185.333 126.177 185.224 126.222 185.183C127.382 184.171 128.611 183.26 130.002 182.586C130.416 182.385 130.912 182.267 131.227 181.961C132.008 181.213 132.876 180.909 133.946 181.012C134.214 181.038 134.561 180.874 134.777 180.686C135.773 179.807 136.961 179.851 138.045 180.223C139.083 180.58 140.125 180.73 141.186 180.883C142.108 181.017 142.926 181.362 143.742 181.846C145.751 183.034 147.469 184.534 148.984 186.289C149.535 186.929 150.099 187.564 150.693 188.167C152.81 190.311 155.278 194.47 156.082 197.211C156.712 199.352 157.32 201.492 158.106 203.582C158.374 204.295 158.533 205.066 158.631 205.826C158.956 208.424 159.582 210.961 160.121 213.517C160.183 213.817 160.235 214.132 160.207 214.433C159.999 216.495 160.053 218.593 159.399 220.592C159.255 221.029 159.124 221.472 158.946 221.896C157.488 225.369 155.863 228.768 154.138 232.116C153.403 233.545 152.474 234.877 151.571 236.215C151.123 236.879 150.817 237.483 151.012 238.341C151.14 238.915 151.009 239.565 150.915 240.171C150.724 241.383 150.513 242.573 150.695 243.824C150.804 244.569 150.689 245.349 150.756 246.119C150.95 248.366 151.55 250.503 152.377 252.588C152.546 253.017 152.745 253.433 152.958 253.842C153.671 255.203 154.403 256.559 155.124 257.916C155.196 258.054 155.247 258.2 155.326 258.331C155.833 259.188 156.404 260.016 156.845 260.906C157.285 261.796 157.585 262.755 157.974 263.672C158.428 264.735 159.042 265.714 159.675 266.68C160.034 267.229 159.876 267.8 159.467 268.133C159.229 268.326 158.973 268.503 158.76 268.721C158.013 269.489 158.017 269.498 157.507 268.625C157.356 268.365 157.004 268.366 156.722 268.586C156.426 268.816 156.568 269.151 156.473 269.429C156.335 269.547 156.214 269.52 156.089 269.364C155.747 268.951 155.457 268.464 155.04 268.152C154.217 267.534 153.663 266.729 153.129 265.874C152.559 264.964 151.876 264.122 151.326 263.199C150.423 261.68 149.514 260.155 148.74 258.568C147.828 256.703 147.022 254.784 146.236 252.861C145.83 251.867 145.555 250.819 145.242 249.788C144.258 246.546 143.436 243.267 143.178 239.876C143.037 238.028 143.099 236.183 143.335 234.351C143.424 233.67 143.658 233.01 143.854 232.348C144.05 231.687 144.307 231.044 144.499 230.381C144.805 229.319 145.372 228.391 146.177 227.674C146.639 227.265 146.834 226.918 146.767 226.316C146.737 226.048 146.892 225.693 147.079 225.48C148.064 224.36 148.669 223.048 149.144 221.653C149.289 221.226 149.534 220.818 149.803 220.448C150.261 219.815 150.697 219.203 150.554 218.35C150.521 218.139 150.632 217.899 150.706 217.683C151.213 216.232 151.673 214.763 152.257 213.341C153.149 211.155 153.288 208.859 153.381 206.552C153.404 206.024 153.283 205.483 153.164 204.961C152.517 202.122 151.053 199.696 149.303 197.424C147.834 195.518 145.988 194.007 144.099 192.551C143.05 191.741 141.847 191.306 140.506 191.108C137.907 190.725 135.642 191.578 133.487 192.837C132.162 193.612 130.875 194.455 129.767 195.545C129.446 195.86 129.026 196.078 128.649 196.341C128.217 195.715 128.133 195.71 127.728 196.249C127.639 196.366 127.569 196.499 127.516 196.635C127.492 196.692 127.515 196.791 127.551 196.842C127.587 196.889 127.701 196.941 127.737 196.918C128.053 196.711 128.358 196.494 128.665 196.281ZM129.53 190.361C128.971 190.68 128.393 190.978 128.008 191.523C127.233 191.927 126.579 192.445 126.284 193.31C125.311 193.759 124.873 194.612 124.574 195.573C124.559 195.618 124.608 195.713 124.654 195.738C124.706 195.768 124.824 195.779 124.851 195.746C125.28 195.228 125.732 194.724 126.096 194.165C126.245 193.936 126.199 193.587 126.244 193.292C126.559 193.113 126.892 192.959 127.185 192.747C127.604 192.445 127.935 192.066 127.972 191.507C128.522 191.175 129.176 190.976 129.492 190.339C129.559 190.306 129.637 190.285 129.689 190.234C129.728 190.196 129.731 190.124 129.748 190.067C129.677 190.169 129.604 190.265 129.53 190.361ZM123.361 209.325C123.138 209.822 123.133 210.304 123.508 210.736C123.54 210.775 123.672 210.78 123.704 210.748C123.743 210.71 123.756 210.605 123.736 210.543C123.607 210.132 123.461 209.725 123.321 209.315C123.357 209.182 123.404 209.049 123.425 208.913C123.435 208.848 123.414 208.77 123.382 208.713C123.355 208.669 123.288 208.646 123.241 208.61C123.22 208.722 123.164 208.842 123.185 208.945C123.211 209.082 123.299 209.201 123.361 209.325ZM129.663 188.29C130.13 188.065 130.657 187.934 131.007 187.51C131.044 187.466 131.056 187.327 131.028 187.311C130.916 187.241 130.765 187.131 130.67 187.163C130.125 187.345 129.866 187.795 129.697 188.31C129.561 188.36 129.426 188.406 129.294 188.464C129.229 188.493 129.163 188.533 129.123 188.586C129.091 188.625 129.102 188.698 129.095 188.753C129.216 188.724 129.365 188.729 129.446 188.657C129.551 188.569 129.596 188.415 129.663 188.29Z" fill="#EB539F"/>
<path d="M161.658 287.979C161.556 287.707 161.349 287.21 161.189 286.7C161.042 286.233 161.152 285.782 161.421 285.388C162.312 284.073 163.463 283.161 165.056 282.768C166.529 282.407 167.808 282.734 168.914 283.657C169.44 284.096 169.924 284.544 170.551 284.865C171.453 285.325 171.794 286.198 171.8 287.172C171.804 287.703 171.71 288.245 171.584 288.762C171.422 289.422 171.033 290.011 171.121 290.75C171.152 291.018 170.981 291.355 170.814 291.598C170.267 292.387 170.056 293.26 170.053 294.205C170.053 294.357 170 294.507 169.965 294.657C169.854 295.129 169.203 295.534 168.705 295.434C168.48 295.389 168.249 295.351 168.037 295.262C166.671 294.684 165.454 293.885 164.584 292.668C163.782 291.551 163.051 290.381 162.309 289.223C162.101 288.896 161.95 288.54 161.658 287.979Z" fill="#EB539F"/>
<path d="M13.2361 121.932C12.953 122.891 12.5375 123.766 11.8016 124.478C11.3202 124.942 11.0616 125.539 10.8635 126.186C10.5887 127.082 10.3833 127.983 10.3167 128.918C10.2656 129.63 10.1531 130.338 10.139 131.049C10.118 132.122 10.0418 133.206 10.3253 134.292C10.127 134.052 9.93956 133.802 9.72575 133.578C9.66406 133.514 9.52544 133.51 9.4206 133.51C9.2501 133.507 9.0645 133.722 9.12589 133.838C9.38102 134.314 9.54058 134.852 10.0395 135.168C10.1037 135.208 10.1478 135.401 10.108 135.46C9.83447 135.875 10.2283 136.018 10.4089 136.246C10.1723 136.535 9.87881 136.795 10.1498 137.232C10.228 137.359 10.2374 137.546 10.2263 137.703C10.2217 137.775 10.0557 137.907 10.0218 137.891C9.72646 137.752 9.41307 137.622 9.16844 137.414C8.88005 137.166 8.60787 136.875 8.41181 136.551C7.84302 135.615 7.3126 134.657 6.77585 133.702C6.61543 133.415 6.49548 133.107 6.35018 132.81C6.08489 132.268 5.74299 131.752 5.56794 131.183C5.34261 130.453 5.238 129.685 5.1068 128.93C4.98466 128.226 4.89268 127.518 5.09984 126.81C5.13028 126.705 5.16608 126.595 5.1658 126.488C5.15284 124.413 5.92158 122.526 6.58283 120.616C6.65605 120.405 6.77995 120.174 7.01111 120.161C7.45683 120.138 7.69555 119.865 7.91585 119.543C8.16227 119.183 8.44172 118.836 8.64551 118.451C9.27088 117.27 10.2039 116.342 11.0929 115.379C11.4621 114.979 11.9069 114.652 12.3013 114.277C12.3473 114.233 12.3007 114.08 12.2792 113.982C12.2751 113.966 12.1713 113.95 12.132 113.969C12.0344 114.015 11.9448 114.081 11.8574 114.145C11.743 114.228 11.6502 114.232 11.6044 114.129C11.5872 114.094 11.6117 114.017 11.6444 113.988C12.4848 113.282 13.3731 112.649 14.3736 112.188C14.6715 112.05 15.027 111.972 15.2557 111.759C15.8221 111.236 16.4452 111.031 17.2067 111.119C17.3975 111.141 17.6464 111.028 17.803 110.898C18.5254 110.284 19.3716 110.332 20.1391 110.611C20.8745 110.88 21.6153 111.001 22.3692 111.125C23.0245 111.232 23.6032 111.49 24.1787 111.845C25.5947 112.719 26.7992 113.811 27.8553 115.083C28.2398 115.547 28.6327 116.007 29.0487 116.445C30.5285 118.002 32.2319 121 32.7682 122.964C33.1883 124.499 33.5931 126.033 34.1255 127.533C34.3063 128.045 34.4094 128.597 34.4689 129.141C34.6657 130.996 35.0778 132.814 35.4276 134.643C35.4682 134.857 35.501 135.083 35.4768 135.297C35.3008 136.764 35.3111 138.26 34.8175 139.677C34.7091 139.987 34.6096 140.3 34.4771 140.6C33.3909 143.056 32.1869 145.457 30.9124 147.821C30.3691 148.83 29.6885 149.767 29.0271 150.708C28.6987 151.176 28.4727 151.602 28.5996 152.217C28.6831 152.627 28.5812 153.089 28.5061 153.519C28.3538 154.381 28.1871 155.226 28.3 156.121C28.3674 156.653 28.2751 157.208 28.3126 157.757C28.4208 159.362 28.8194 160.893 29.3807 162.391C29.4955 162.699 29.6316 162.998 29.7781 163.293C30.268 164.273 30.7715 165.249 31.2677 166.226C31.3169 166.325 31.3512 166.43 31.4057 166.524C31.7555 167.142 32.1518 167.74 32.4539 168.381C32.756 169.021 32.9563 169.709 33.2212 170.367C33.5307 171.132 33.955 171.837 34.3932 172.535C34.6422 172.931 34.5215 173.336 34.2258 173.567C34.0536 173.702 33.8688 173.825 33.714 173.977C33.1712 174.515 33.1739 174.521 32.8218 173.892C32.7177 173.704 32.4671 173.7 32.2628 173.854C32.0489 174.014 32.1454 174.254 32.074 174.451C31.9741 174.533 31.8882 174.512 31.8008 174.4C31.5631 174.101 31.3626 173.749 31.0699 173.521C30.4913 173.07 30.1073 172.489 29.7379 171.872C29.3443 171.215 28.8685 170.606 28.4889 169.941C27.8655 168.846 27.2384 167.747 26.7075 166.605C26.0827 165.263 25.5341 163.884 24.9993 162.502C24.7235 161.789 24.5418 161.038 24.3324 160.299C23.6744 157.974 23.1331 155.626 22.9944 153.205C22.9192 151.886 22.9877 150.571 23.1809 149.269C23.2533 148.785 23.4295 148.317 23.5781 147.848C23.7266 147.379 23.9184 146.924 24.064 146.454C24.2967 145.701 24.7132 145.047 25.2966 144.547C25.6318 144.261 25.7752 144.017 25.7361 143.587C25.7176 143.396 25.8335 143.145 25.9697 142.995C26.6867 142.21 27.1353 141.283 27.4932 140.295C27.6022 139.992 27.7823 139.705 27.979 139.445C28.3142 139 28.633 138.569 28.5429 137.959C28.5217 137.808 28.6047 137.639 28.6598 137.486C29.0408 136.458 29.3889 135.417 29.8241 134.412C30.4895 132.865 30.6198 131.231 30.7167 129.587C30.74 129.211 30.6611 128.823 30.5835 128.45C30.1605 126.418 29.1497 124.668 27.9325 123.025C26.911 121.646 25.6156 120.545 24.2889 119.481C23.5518 118.89 22.6999 118.563 21.7467 118.404C19.8992 118.096 18.2733 118.674 16.72 119.542C15.7652 120.077 14.836 120.66 14.032 121.422C13.7987 121.643 13.4959 121.793 13.224 121.975C12.9242 121.523 12.8649 121.518 12.5689 121.897C12.504 121.979 12.4516 122.073 12.4125 122.169C12.3945 122.209 12.4094 122.28 12.4348 122.317C12.4593 122.352 12.5402 122.39 12.5659 122.374C12.7942 122.23 13.0147 122.08 13.2361 121.932ZM13.9326 117.724C13.5297 117.943 13.1134 118.149 12.8316 118.532C12.2738 118.809 11.8011 119.17 11.5786 119.782C10.879 120.089 10.5553 120.692 10.3293 121.372C10.318 121.405 10.3516 121.473 10.3843 121.491C10.421 121.513 10.5046 121.523 10.5247 121.499C10.8371 121.136 11.1663 120.783 11.4334 120.389C11.5425 120.228 11.5144 119.979 11.5506 119.769C11.7775 119.646 12.0168 119.54 12.2289 119.393C12.5314 119.184 12.7727 118.918 12.8066 118.52C13.2029 118.29 13.6722 118.157 13.9059 117.708C13.9536 117.685 14.01 117.671 14.0473 117.636C14.0757 117.609 14.079 117.557 14.0919 117.517C14.04 117.589 13.9863 117.656 13.9326 117.724ZM9.27941 131.159C9.11378 131.511 9.104 131.854 9.36549 132.167C9.38732 132.196 9.48158 132.201 9.5046 132.178C9.53308 132.152 9.5441 132.077 9.53049 132.033C9.44363 131.738 9.34523 131.446 9.25113 131.151C9.27879 131.058 9.31374 130.963 9.33027 130.866C9.33837 130.821 9.3245 130.764 9.30245 130.724C9.28395 130.692 9.23675 130.674 9.20346 130.648C9.18703 130.727 9.14554 130.812 9.15927 130.886C9.17558 130.984 9.23684 131.07 9.27941 131.159ZM14.0556 116.249C14.3915 116.095 14.7684 116.009 15.0241 115.712C15.0508 115.68 15.0613 115.581 15.0415 115.57C14.9625 115.518 14.8566 115.438 14.7884 115.459C14.397 115.582 14.2068 115.899 14.0794 116.264C13.9816 116.298 13.8849 116.328 13.7898 116.369C13.7433 116.388 13.6953 116.416 13.6662 116.453C13.6428 116.48 13.6497 116.532 13.6441 116.572C13.7306 116.553 13.8372 116.558 13.8959 116.508C13.9719 116.446 14.0057 116.337 14.0556 116.249Z" fill="#EB539F"/>
<path d="M35.5206 187.744C35.4509 187.55 35.3104 187.193 35.2035 186.826C35.1048 186.492 35.1892 186.172 35.3861 185.895C36.0392 184.969 36.872 184.334 38.0126 184.076C39.0675 183.838 39.9748 184.089 40.7509 184.761C41.1199 185.082 41.4587 185.407 41.902 185.644C42.5381 185.984 42.7701 186.612 42.7613 187.306C42.7564 187.684 42.6821 188.069 42.5854 188.437C42.4615 188.905 42.1756 189.319 42.2289 189.848C42.2474 190.039 42.1209 190.277 41.9988 190.448C41.5979 191.003 41.4356 191.622 41.4208 192.296C41.419 192.404 41.3791 192.511 41.3517 192.617C41.2663 192.952 40.7969 193.232 40.443 193.154C40.2839 193.119 40.1192 193.089 39.9693 193.022C39.0038 192.592 38.147 192.006 37.5427 191.127C36.9861 190.319 36.4812 189.475 35.9675 188.64C35.8234 188.404 35.7207 188.149 35.5206 187.744Z" fill="#EB539F"/>
<path d="M367.647 12.5558C366.739 13.2091 365.77 13.6973 364.632 13.8206C363.887 13.9006 363.248 14.251 362.629 14.6865C361.771 15.2894 360.971 15.9451 360.27 16.7259C359.736 17.3199 359.151 17.8681 358.65 18.487C357.895 19.4209 357.083 20.3264 356.588 21.4815C356.577 21.1328 356.583 20.7831 356.548 20.4384C356.538 20.3397 356.418 20.2412 356.325 20.1686C356.177 20.0489 355.865 20.1117 355.839 20.2565C355.738 20.8521 355.51 21.4374 355.734 22.059C355.763 22.1386 355.669 22.3397 355.594 22.3646C355.067 22.5429 355.317 22.9398 355.32 23.2653C354.913 23.3583 354.474 23.3872 354.414 23.9591C354.396 24.1247 354.276 24.2972 354.158 24.428C354.105 24.4883 353.867 24.4912 353.848 24.454C353.683 24.1278 353.495 23.798 353.422 23.4458C353.337 23.0292 353.297 22.5847 353.345 22.164C353.486 20.9457 353.675 19.735 353.856 18.5223C353.911 18.1591 354.017 17.8043 354.092 17.4415C354.23 16.7811 354.282 16.0899 354.518 15.4667C354.82 14.6668 355.255 13.9159 355.657 13.1589C356.033 12.4532 356.438 11.7635 357.107 11.2802C357.206 11.2083 357.313 11.1359 357.386 11.0411C358.8 9.19798 360.774 8.0587 362.671 6.82394C362.88 6.68838 363.149 6.56872 363.362 6.71626C363.771 7.00173 364.17 6.9248 364.585 6.79142C365.051 6.64203 365.536 6.52726 365.98 6.32702C367.344 5.71309 368.806 5.5328 370.253 5.29244C370.853 5.19267 371.471 5.20914 372.077 5.14812C372.149 5.14057 372.212 4.97393 372.26 4.87249C372.267 4.85578 372.187 4.77028 372.139 4.76014C372.021 4.73387 371.897 4.72992 371.776 4.72666C371.618 4.72155 371.533 4.66156 371.563 4.53924C371.572 4.49637 371.647 4.44462 371.695 4.44168C372.922 4.3953 374.142 4.44543 375.343 4.72467C375.701 4.80728 376.069 4.98291 376.418 4.95128C377.277 4.87824 377.969 5.12475 378.581 5.72528C378.735 5.87558 379.032 5.94724 379.26 5.93917C380.32 5.89314 381.035 6.51593 381.522 7.29018C381.987 8.03228 382.558 8.64832 383.14 9.27514C383.645 9.82028 383.98 10.4449 384.245 11.1544C384.896 12.8989 385.211 14.6915 385.271 16.5409C385.292 17.2146 385.324 17.8909 385.391 18.5635C385.629 20.9557 385.076 24.775 384.201 26.8795C383.519 28.5247 382.823 30.1583 382.264 31.8498C382.072 32.4264 381.784 32.9852 381.464 33.506C380.363 35.2814 379.48 37.1707 378.533 39.0272C378.422 39.2448 378.296 39.4665 378.127 39.6396C376.964 40.8154 375.946 42.1445 374.537 43.0575C374.229 43.2569 373.926 43.4657 373.602 43.6399C370.956 45.0648 368.243 46.3603 365.494 47.5741C364.321 48.0926 363.076 48.4535 361.845 48.8315C361.234 49.019 360.741 49.2409 360.431 49.8711C360.223 50.2915 359.816 50.6295 359.454 50.9583C358.728 51.6152 358 52.2478 357.486 53.1158C357.18 53.6325 356.718 54.0594 356.373 54.5712C355.367 56.0632 354.668 57.6905 354.136 59.3999C354.026 59.7509 353.941 60.1086 353.868 60.4696C353.628 61.672 353.402 62.8808 353.17 64.0852C353.146 64.2063 353.104 64.3228 353.087 64.4435C352.972 65.2296 352.912 66.0303 352.739 66.8036C352.567 67.5769 352.271 68.3226 352.053 69.0865C351.802 69.9744 351.692 70.8896 351.601 71.807C351.549 72.328 351.164 72.6028 350.744 72.6046C350.499 72.6055 350.251 72.5871 350.01 72.6155C349.161 72.718 349.159 72.7254 349.28 71.9276C349.317 71.6901 349.098 71.5144 348.812 71.5097C348.514 71.5041 348.433 71.7833 348.235 71.9084C348.091 71.9122 348.029 71.8346 348.029 71.675C348.024 71.2478 348.088 70.7994 347.986 70.3969C347.785 69.6005 347.844 68.8234 347.941 68.0246C348.044 67.1741 348.042 66.3087 348.163 65.4604C348.365 64.0641 348.565 62.6622 348.88 61.2884C349.249 59.6737 349.711 58.0785 350.187 56.4898C350.433 55.6697 350.788 54.8814 351.111 54.0844C352.125 51.5782 353.259 49.1307 354.799 46.8957C355.638 45.6783 356.601 44.5634 357.666 43.5449C358.063 43.1668 358.54 42.8742 358.993 42.5619C359.446 42.2496 359.928 41.9795 360.379 41.6641C361.102 41.158 361.919 40.866 362.778 40.8247C363.271 40.8023 363.566 40.6845 363.826 40.2779C363.941 40.0959 364.216 39.9539 364.439 39.9152C365.612 39.7133 366.645 39.2024 367.639 38.5749C367.943 38.3823 368.3 38.2517 368.652 38.1572C369.254 37.9938 369.832 37.832 370.171 37.231C370.256 37.0834 370.445 36.9905 370.599 36.8933C371.642 36.2467 372.664 35.5654 373.739 34.9753C375.389 34.0656 376.627 32.7103 377.841 31.3246C378.119 31.0081 378.316 30.6111 378.504 30.2277C379.525 28.1412 379.834 25.9007 379.886 23.613C379.93 21.693 379.541 19.8299 379.099 17.9791C378.853 16.9502 378.325 16.0767 377.591 15.2816C376.17 13.7406 374.336 13.1348 372.367 12.836C371.156 12.6526 369.935 12.5301 368.701 12.6518C368.343 12.6864 367.973 12.6111 367.607 12.5851C367.653 11.9799 367.604 11.9348 367.082 12.0664C366.968 12.0945 366.857 12.1419 366.756 12.2C366.713 12.223 366.678 12.296 366.675 12.3458C366.673 12.3932 366.718 12.4825 366.752 12.4861C367.052 12.516 367.35 12.5347 367.647 12.5558ZM371.152 9.3147C370.646 9.23212 370.137 9.12771 369.625 9.27259C368.941 9.13471 368.276 9.12928 367.659 9.51742C366.829 9.30856 366.13 9.61866 365.463 10.0652C365.43 10.0859 365.413 10.1691 365.43 10.2081C365.447 10.2526 365.514 10.3186 365.548 10.3116C366.074 10.205 366.607 10.1191 367.114 9.95417C367.32 9.88714 367.467 9.64705 367.643 9.48663C367.928 9.53375 368.212 9.60453 368.5 9.62053C368.911 9.64292 369.307 9.57341 369.611 9.2449C370.118 9.31441 370.624 9.51919 371.14 9.2821C371.198 9.2949 371.257 9.32143 371.314 9.31552C371.358 9.31126 371.396 9.26827 371.435 9.24148C371.34 9.26921 371.246 9.29194 371.152 9.3147ZM357.814 17.9944C357.427 18.1912 357.183 18.4877 357.198 18.9443C357.198 18.9842 357.278 19.0534 357.314 19.0496C357.357 19.0454 357.418 18.9872 357.437 18.9389C357.562 18.6187 357.676 18.2926 357.795 17.9679C357.884 17.9039 357.98 17.8444 358.061 17.7703C358.099 17.7354 358.126 17.676 358.134 17.625C358.14 17.584 358.11 17.5361 358.098 17.4904C358.029 17.5491 357.935 17.5955 357.896 17.6703C357.843 17.7679 357.838 17.8863 357.814 17.9944ZM372.274 8.09577C372.676 8.19034 373.069 8.37266 373.499 8.28565C373.544 8.27642 373.621 8.19609 373.612 8.17224C373.577 8.07254 373.538 7.92911 373.464 7.90106C373.033 7.74057 372.648 7.89005 372.284 8.12529C372.175 8.08794 372.068 8.04873 371.957 8.01883C371.902 8.00421 371.841 7.99577 371.789 8.00863C371.75 8.01671 371.721 8.06732 371.688 8.09858C371.778 8.14121 371.869 8.21873 371.955 8.21517C372.064 8.21262 372.169 8.13954 372.274 8.09577Z" fill="#EB539F"/>
<path d="M342.154 86.0236C342.226 85.8035 342.347 85.3915 342.504 84.9945C342.646 84.6309 342.941 84.4064 343.305 84.2964C344.518 83.9269 345.69 83.9376 346.875 84.4921C347.971 85.0065 348.601 85.8511 348.825 86.9782C348.931 87.5149 349.007 88.0354 349.236 88.5492C349.565 89.2865 349.339 90.0004 348.854 90.6077C348.59 90.9387 348.26 91.2281 347.923 91.4862C347.492 91.8151 346.954 91.9851 346.639 92.4886C346.523 92.6706 346.248 92.7938 346.023 92.8612C345.288 93.0765 344.719 93.5123 344.243 94.0979C344.167 94.192 344.059 94.2588 343.962 94.3338C343.656 94.5713 343.049 94.4964 342.79 94.1848C342.673 94.0444 342.549 93.9046 342.462 93.743C341.904 92.6995 341.549 91.5932 341.619 90.4012C341.681 89.3056 341.814 88.213 341.934 87.1221C341.968 86.8147 342.053 86.5182 342.154 86.0236Z" fill="#EB539F"/>
</svg>
