<svg width="81" height="265" viewBox="0 0 81 265" fill="none" xmlns="http://www.w3.org/2000/svg">
<path d="M68.6342 111.619C67.5111 111.32 66.3819 111.034 65.2588 110.709C64.4483 110.48 63.9187 109.895 63.9953 109.373C64.0974 108.68 64.4481 108.107 65.0416 107.777C65.4628 107.541 66.0115 107.535 66.4391 107.312C66.6816 107.185 66.9879 106.797 66.956 106.581C66.7965 105.614 66.5667 104.653 66.2668 103.724C66.1902 103.495 65.7692 103.279 65.4756 103.228C63.9313 102.961 63.1911 101.981 62.9486 100.531C62.8402 99.8945 62.7892 99.2456 62.7062 98.5904C64.2058 97.5979 65.5649 96.6692 66.956 95.7913C67.5176 95.435 68.2005 95.1868 68.1749 94.3852C68.143 93.3292 67.6262 92.4831 66.7775 91.8788C66.3052 91.5416 64.8695 92.1968 64.7546 92.8076C64.6972 93.1193 64.8311 93.4692 64.7864 93.7873C64.7417 94.0736 64.6396 94.468 64.429 94.5889C64.1993 94.7225 63.6123 94.7224 63.5357 94.5825C62.8656 93.3801 61.8573 93.1193 60.5874 93.2847C60.1343 93.3419 59.5729 93.3738 59.3878 92.6867C61.1171 91.4589 63.408 91.1472 64.8821 89.4677C66.3306 89.1115 67.7858 88.7679 69.2216 88.3799C69.898 88.1954 70.37 87.7502 70.5742 87.0568L70.6508 87.1267C69.6809 87.1776 69.145 86.7196 68.9025 85.7844C68.7238 85.091 68.2325 84.6902 67.4667 84.6648C66.6435 84.6393 65.8137 84.6075 65.0033 84.4866C64.8054 84.4548 64.6333 84.0667 64.5184 83.8186C64.4801 83.7296 64.6076 83.4559 64.7097 83.4241C65.9669 83.0552 67.2177 82.6544 68.494 82.3809C69.2917 82.2091 70.1403 82.2854 70.9571 82.1645C71.2251 82.1264 71.5699 81.8529 71.6529 81.6112C71.7359 81.3694 71.6208 80.905 71.423 80.765C70.6189 80.1988 69.7511 79.7217 68.9087 79.2128C68.7492 79.2255 68.5961 79.2383 68.4429 79.251C68.5769 79.251 68.7108 79.251 68.8449 79.251C69.0044 79.2128 69.215 79.2254 69.3235 79.13C70.0446 78.4811 70.6636 77.667 71.4741 77.1771C72.2972 76.6809 73.3182 76.5091 74.2435 76.1719C74.9199 75.9238 75.2391 74.6132 74.7031 74.0216C73.5034 72.6857 72.5653 71.1016 70.8742 70.2301C70.1212 69.842 69.6874 69.0914 69.6746 68.1944C69.6682 67.6791 69.8213 67.1893 70.3445 66.9985C70.6189 66.8967 70.989 66.9158 71.2762 67.0049C71.5761 67.0939 71.8506 67.3164 72.1122 67.5073C72.3738 67.6918 72.61 67.9146 72.8525 68.1118C73.6374 68.1372 73.4078 67.5201 73.5418 67.0938C73.6822 66.6422 73.8797 66.1269 74.2179 65.8406C74.8433 65.3126 75.6604 65.0073 76.2538 64.4602C76.541 64.193 76.643 63.5631 76.5791 63.1306C76.4451 62.2463 75.8261 61.6673 74.9583 61.4701C74.486 61.3619 73.9691 61.4384 73.4713 61.432C73.4905 61.731 73.5098 62.0236 73.5162 62.3226C73.5226 62.4689 73.5226 62.6279 73.4779 62.7615C73.446 62.857 73.3312 62.927 73.2482 63.0097C73.2163 62.768 73.1205 62.5134 73.1716 62.2971C73.2354 62.0172 73.4141 61.7628 73.5418 61.5019C73.1972 59.4408 72.9928 59.2373 71.289 59.2118C70.6508 59.1991 70.0191 59.1927 69.3746 59.18C68.7237 59.5808 68.0793 59.9689 67.3455 59.3581L67.3006 59.4153C68.0153 59.358 68.73 59.2944 69.4447 59.2372C70.4465 57.6086 72.1185 56.8262 73.6692 55.8783C74.9391 55.1022 76.209 54.3006 77.4024 53.4099C77.8937 53.041 78.2766 52.4366 78.5447 51.8577C79.0871 50.6808 78.8638 49.9683 77.8747 49.2876C77.3259 48.9123 76.7324 48.5942 76.2027 48.1998C75.5965 47.7481 75.354 47.0865 75.8198 46.4694C76.5728 45.4707 75.8006 45.0126 75.2645 44.421C75.1752 44.3192 75.2136 44.1092 75.1817 43.8484C75.8198 43.3776 76.477 42.8814 77.1406 42.3979C78.0532 41.7363 78.9723 41.0811 79.8848 40.4195C79.9869 38.95 80.1145 37.4805 80.1655 36.0046C80.1719 35.7374 79.9103 35.3239 79.6614 35.203C78.7744 34.7577 77.8427 34.4204 76.9365 34.0197C76.8025 33.9624 76.6175 33.7715 76.6302 33.657C76.6749 33.2499 76.9492 33.1099 77.364 33.1544C77.8618 33.2053 78.3658 33.269 78.8572 33.2245C79.5846 33.1672 80.1526 32.7409 80.3058 32.0475C80.5163 31.0869 80.7461 30.0818 80.6759 29.1149C80.4781 26.4493 80.4781 23.8029 80.8482 21.1501C81.078 19.5024 81.0653 17.8293 80.6825 16.1816C80.5293 15.52 80.2994 14.8901 79.6676 14.553C78.8891 14.1395 78.3214 13.5415 78.1427 12.6891C77.7598 10.8569 76.4835 9.88358 74.9009 9.20289C71.0849 7.55522 67.2815 5.863 63.3378 4.56522C61.4617 3.94814 59.4261 3.80187 57.4478 3.50288C56.982 3.4329 56.3759 3.47734 56.0058 3.72544C53.8234 5.2077 51.5642 4.73703 49.2733 4.13267C47.4993 3.66191 45.7062 3.26743 43.9385 2.79667C43.2876 2.6249 42.6624 2.53582 41.9796 2.61852C41.5265 2.67578 40.9138 2.59947 40.5883 2.33228C39.3376 1.30169 38.023 1.15546 36.4149 1.30814C34.794 1.46082 33.1092 1.06002 31.4628 0.811914C29.9951 0.595618 28.5786 0.0739008 27.0407 0.589194C26.4792 0.773682 25.7517 0.468416 25.1008 0.36663C24.4435 0.264843 23.7925 0.0930665 23.1353 0.0358117C19.9382 -0.250462 17.609 1.16177 16.7283 4.91514C15.669 9.44463 14.7054 13.9996 13.4355 18.4718C11.5657 25.0816 10.8065 31.844 10.0918 38.6319C9.70891 42.2707 9.38349 45.9159 9.01337 49.5484C8.67516 52.8437 8.27943 56.1391 7.96674 59.4408C7.90293 60.0833 8.08179 60.745 8.15837 61.4002C8.21581 61.8773 8.50921 62.4435 8.33691 62.8125C6.60118 66.5913 6.8182 70.5991 6.95221 74.5751C7.00964 76.2864 6.43524 77.8514 6.23742 79.4927C6.0396 81.1467 6.7478 82.788 6.25643 84.4484C5.63744 86.535 5.54178 88.6662 5.68217 90.8355C5.74598 91.8089 5.52915 92.8076 5.34409 93.7809C5.14627 94.7924 5.22286 95.7531 5.5164 96.7264C5.73337 97.4326 6.19292 97.8525 6.8821 98.0051C7.20117 98.0751 7.54549 98.0559 7.87732 98.0559C8.92386 98.0559 9.19839 98.9085 9.61319 99.6019L9.75372 99.7036L9.60041 99.5828C8.63683 99.1502 7.74986 99.0611 6.7799 99.71C6.03967 100.213 5.47795 100.785 5.35033 101.638C5.08231 103.438 4.80154 105.251 4.72497 107.07C4.62924 109.221 4.54623 111.403 4.82063 113.521C5.01845 115.048 4.83344 116.479 4.71219 117.962C4.60371 119.266 4.87829 120.602 4.74429 121.899C4.66132 122.701 4.16338 123.477 4.53988 124.298C4.64198 124.52 5.08242 124.775 5.30577 124.724C6.33317 124.495 6.79898 123.91 6.71603 123.032C6.67136 122.542 6.53105 122.065 6.48638 121.575C6.47362 121.46 6.65224 121.225 6.75435 121.219C7.05428 121.2 7.46915 121.155 7.64145 121.327C8.39445 122.071 8.7007 123.178 8.54755 124.062C8.33058 125.316 8.35593 126.283 9.3259 127.167C9.3961 127.23 9.1729 127.867 9.0006 127.911C8.03702 128.147 7.048 128.293 6.07166 128.458C4.65499 128.7 4.04873 130.526 4.9166 131.983C4.98679 132.097 5.21011 132.123 5.36964 132.193C5.63766 132.084 5.89291 131.938 6.16731 131.875C6.57572 131.779 6.73515 131.957 6.54372 132.262C6.49905 132.339 6.27577 132.345 6.14176 132.326C5.8546 132.282 5.57378 132.199 5.29299 132.135C5.7014 133.528 4.29124 134.648 4.62308 135.959C4.91023 137.085 5.12713 138.192 5.18456 139.356C5.28028 141.201 5.15274 142.976 4.31678 144.674C2.51723 148.332 2.09582 152.257 2.14687 156.189C2.45318 156.494 2.64459 156.857 2.91899 156.933C4.82702 157.486 5.89927 158.886 6.7799 160.527C7.02239 160.979 7.67309 160.922 8.0113 160.451C8.29846 160.05 8.5475 159.618 8.81551 159.198L8.73887 159.134C9.06432 159.503 9.49825 159.827 9.69607 160.254C10.0151 160.928 9.52377 161.52 9.21747 162.073C8.98774 162.493 8.66885 162.9 8.29236 163.187C7.77547 163.587 7.16276 163.854 6.59482 164.198C5.2292 165.025 4.87817 165.897 5.25467 167.493C5.40144 168.13 6.4672 168.518 6.76713 167.983C7.47546 166.711 8.40716 166.482 9.66428 167.004L9.58764 166.959C10.8129 165.979 10.4746 164.109 11.77 163.167C11.8976 163.072 12.0509 163.002 12.2041 162.957C12.5997 162.843 12.8803 162.989 12.9824 163.384C13.1037 163.861 13.2059 164.351 13.2697 164.834C13.4228 165.973 13.5568 167.118 13.6589 167.996C14.6671 169.262 15.5096 170.267 16.3008 171.317C17.258 172.595 18.5726 173.295 20.1041 173.378C21.9228 173.473 23.7223 173.645 25.5283 173.893C26.9768 174.097 28.5402 174.001 29.9697 173.664C32.5286 173.06 35.228 173.111 37.6784 171.985C38.2655 171.711 38.9611 171.667 39.6056 171.52L39.5417 171.482C40.4734 171.807 41.3858 172.188 42.3367 172.436C44.066 172.882 45.6039 172.576 46.7908 171.119C47.0014 170.865 47.2248 170.623 47.4673 170.407C48.0799 169.866 48.6161 170.159 49.2159 170.515C49.7328 170.827 50.1284 170.464 50.3645 170C50.9771 168.785 50.7794 167.996 49.6818 167.582C48.9288 167.302 48.0736 167.277 47.3461 166.953C46.7782 166.704 46.3571 165.865 45.8274 165.82C44.1172 165.674 42.8218 164.529 41.2265 164.16C40.3267 163.95 39.982 163.155 39.5673 162.448L39.5227 162.506C40.6203 162.442 41.7306 162.41 42.5411 161.482C43.0388 160.915 43.6512 160.966 44.2383 161.253C44.9785 161.609 45.7252 161.698 46.5229 161.545L46.4465 161.622C47.4293 160.623 47.4291 160.623 48.5523 161.367L48.4566 161.291C48.865 161.609 49.2668 161.927 49.6752 162.239L49.6307 162.188C50.8112 161.399 51.8897 160.425 53.5234 160.712C54.3848 160.858 55.023 160.305 55.4122 159.522C55.0038 159.198 54.6017 158.88 54.1933 158.562C53.8168 158.282 53.4403 157.995 53.0638 157.715L53.0127 157.779C53.3892 158.065 53.7657 158.345 54.1422 158.631C54.5506 158.956 54.9591 159.274 55.3611 159.598C56.7523 158.492 57.0332 157.951 56.3249 156.901C55.5782 155.801 54.9207 154.783 55.2589 153.371C55.6418 151.761 55.0547 151.487 53.3701 151.666L53.2171 151.825L53.3511 151.678C53.5935 150.26 54.9527 149.617 55.7057 148.262C55.7121 147.327 55.7313 146.182 55.7313 145.03C55.7313 144.038 55.674 143.046 55.6995 142.053C55.725 141.258 56.8034 140.793 56.395 139.757C55.4378 139.286 54.3975 138.796 53.3828 138.255C53.1148 138.115 52.7958 137.804 52.783 137.549C52.7703 137.333 53.102 136.983 53.3573 136.875C53.9635 136.62 54.7422 136.576 54.9847 135.87C55.4569 134.515 56.4332 133.707 57.6457 133.064C57.869 132.943 57.9518 132.561 58.1178 132.269C57.2563 131.073 55.508 130.787 54.9464 129.292C54.8762 129.101 55.0932 128.668 55.3038 128.535C56.2801 127.911 57.2117 128.535 58.1689 128.7C58.4177 128.745 58.871 128.484 58.9731 128.255C59.1581 127.841 59.2346 127.332 59.1899 126.887C59.1644 126.607 58.8835 126.257 58.6219 126.117C57.6009 125.583 56.5227 125.144 55.5016 124.609C55.2592 124.482 55.0294 124.107 55.0103 123.833C54.9911 123.579 55.2527 123.083 55.4122 123.07C58.1115 122.86 60.4343 121.613 62.8464 120.551C64.3461 119.889 65.0735 118.623 66.0499 117.554C66.7838 116.753 66.3754 115.601 65.3289 115.188C64.8694 115.003 64.3588 114.921 63.9504 114.666C63.7271 114.526 63.6376 114.132 63.5547 113.833C63.5292 113.75 63.727 113.508 63.8482 113.496C64.665 113.394 65.4884 113.279 66.3116 113.26C67.4794 113.235 68.0793 112.491 68.5962 111.6L68.6342 111.619ZM15.6244 123.986L15.6437 124.037L15.7328 124.139L15.6244 123.986ZM66.5478 53.4099L66.5223 53.4227L66.6563 53.518L66.5478 53.4099ZM59.6623 95.5749L59.5857 95.6958L59.7131 95.5686C59.7578 95.435 59.7834 95.2886 59.8664 95.1804C59.9174 95.1041 60.0452 95.0787 60.1409 95.0341C59.9814 95.2123 59.8218 95.3968 59.6623 95.5749ZM64.8948 80.8667L64.9777 80.7013L64.8182 80.8032C64.6267 81.0132 64.7289 81.7637 64.1099 81.1848C64.3716 81.083 64.6332 80.9749 64.8948 80.8667ZM7.84554 143.096C7.62857 142.899 7.37347 142.734 7.20117 142.505C6.95868 142.174 7.03524 141.932 7.34793 141.92C7.40536 141.92 7.48819 142.161 7.53925 142.295C7.64134 142.568 7.73081 142.855 7.82653 143.135L7.97329 143.23C7.9669 143.23 7.84554 143.096 7.84554 143.096ZM76.8727 39.1536C77.1534 39.039 77.428 38.8673 77.7152 38.8291C78.1427 38.7719 78.2958 39.0008 78.0916 39.3507C78.0342 39.4524 77.7981 39.5542 77.7024 39.5161C77.4344 39.4079 77.1916 39.2298 76.9428 39.0771C76.7322 38.9117 76.5218 38.7463 76.3112 38.5745C76.4133 38.5109 76.5088 38.4474 76.6109 38.3838C76.7003 38.6446 76.7897 38.8991 76.8727 39.1536ZM61.8191 106.542C61.2129 106.555 60.6132 106.581 60.0069 106.568C59.5538 106.562 59.4387 106.332 59.7131 106.021C59.7961 105.925 60.0259 105.855 60.1344 105.9C60.6895 106.116 61.2255 106.377 61.7743 106.606C62.0487 106.466 62.3232 106.32 62.604 106.199C62.738 106.142 62.9103 106.11 63.0443 106.142C63.1592 106.167 63.2486 106.307 63.3444 106.39C63.1338 106.517 62.9232 106.74 62.7062 106.752C62.4191 106.778 62.1191 106.625 61.8191 106.542ZM21.9802 43.7594C22.2993 43.4349 22.6056 43.0977 22.9374 42.786C23.1352 42.6015 23.3779 42.4488 23.5948 42.2898C23.7097 42.5443 23.9458 42.8114 23.9267 43.0532C23.8565 43.8357 23.7352 44.6182 23.531 45.3753C23.4735 45.5852 23.0716 45.7697 22.7972 45.8333C22.3696 45.9414 21.7312 45.5151 21.744 45.1271C21.7631 44.6627 21.9166 44.1983 22.0123 43.7403L21.8783 43.6385L21.9802 43.7594ZM17.1558 161.303C17.3664 161.323 17.5772 161.342 17.7877 161.354C17.9026 162.111 18.0301 162.868 18.1258 163.625C18.1386 163.727 17.9279 163.956 17.9024 163.944C17.6599 163.835 17.2644 163.708 17.2453 163.549C17.1559 162.811 17.175 162.054 17.1558 161.303ZM66.5413 51.0052C66.1584 50.8144 65.6735 50.6935 65.38 50.3882C65.1375 50.1464 65.367 49.7711 65.7754 49.7329C66.3689 49.6756 66.8414 50.0128 66.8669 50.4835C66.8669 50.6044 66.7072 50.738 66.5413 51.0052ZM46.3954 12.3328C46.4656 12.4536 46.6188 12.5936 46.5933 12.6891C46.5614 12.7972 46.3763 12.8545 46.2614 12.9372C46.1913 12.8164 46.0443 12.6764 46.0698 12.581C46.0953 12.4792 46.2806 12.4155 46.3954 12.3328ZM51.9726 134.228C51.9151 134.349 51.8577 134.578 51.8003 134.578C51.5067 134.585 51.2195 134.527 50.9259 134.495C50.9961 134.387 51.0538 134.184 51.1304 134.177C51.4111 134.152 51.6918 134.203 51.9726 134.228ZM76.075 17.8612C75.7176 17.9884 75.4943 17.8865 75.4752 17.5684C75.4688 17.4793 75.6283 17.333 75.7431 17.2885C76.0877 17.1486 76.3238 17.263 76.343 17.5811C76.343 17.6638 76.1643 17.7657 76.075 17.8612ZM59.758 99.9644L59.7196 100.168L59.4324 100.098L59.758 99.9644ZM8.93672 108.056C9.07073 108.088 9.29399 108.088 9.3259 108.165C9.46629 108.508 9.28764 108.686 8.87285 108.597C8.77074 108.578 8.69422 108.419 8.60488 108.324C8.71975 108.241 8.82824 108.145 8.93672 108.056ZM43.0963 170.712L42.8919 170.541L43.2493 170.49L43.0963 170.712ZM70.0448 49.3131L70.3956 49.4275L70.0828 49.6184L70.0448 49.3131ZM7.2585 129.711L7.18185 129.412L7.51369 129.489L7.2585 129.711ZM53.2744 141.939L53.3511 142.308L52.9426 142.199L53.2744 141.939ZM53.1978 144.171L53.485 143.936L53.5745 144.248L53.1978 144.171ZM24.1819 164.58L23.8946 164.242L24.2903 164.147L24.1819 164.58ZM15.6755 166.902C15.7712 166.806 15.8605 166.654 15.969 166.628C16.0775 166.609 16.2115 166.717 16.3392 166.774C16.2434 166.87 16.1605 167.023 16.0456 167.048C15.9372 167.067 15.8031 166.959 15.6755 166.902Z" fill="#EB539F"/>
<path d="M30.7227 264.267C31.0673 263.911 31.3992 263.522 31.7693 263.198C32.2735 262.753 32.8475 262.333 33.5622 262.581C34.6917 262.969 35.783 263.147 36.9635 262.689C37.5634 262.454 38.2847 262.377 38.9356 262.434C42.2858 262.74 45.5656 262.059 48.8775 261.824C50.275 261.722 51.5196 261.379 52.6172 260.609C53.9764 259.661 55.2654 258.592 56.5417 257.53C57.1989 256.982 57.333 255.138 56.8034 254.273C56.6439 254.012 56.2864 253.872 56.012 253.681C55.1632 253.108 55.3099 252.3 56.3628 251.766C56.7967 251.55 57.3521 251.556 57.7796 251.321C57.9966 251.2 58.2007 250.755 58.156 250.5C58.0475 249.858 57.8115 249.228 57.5945 248.604C57.3903 248.006 56.6245 247.656 55.9736 247.879C55.3483 248.095 54.7485 248.369 54.1359 248.611C53.5169 248.852 52.9043 249.126 52.2726 249.31C51.7365 249.463 51.328 249.164 51.0281 248.738C50.7345 248.312 50.5622 247.828 50.843 247.364C50.9961 247.109 51.3281 246.848 51.6089 246.817C52.2534 246.747 52.9105 246.823 53.5167 246.836C54.5378 244.965 54.8123 243.025 54.5634 241.002C55.4759 240.29 56.2226 239.628 57.0458 239.087C57.8243 238.578 58.1114 237.93 58.1688 237.026C58.1943 236.587 58.5772 236.167 58.8069 235.747C59.26 234.927 59.2601 234.933 58.4816 234.163C57.4223 233.114 57.384 232.783 58.1626 231.682C59.024 230.461 59.9494 229.278 60.7406 228.012C61.3022 227.115 61.4169 226.02 60.683 225.206C59.4833 223.877 59.1132 222.305 58.9537 220.626C58.5836 216.777 57.1543 213.214 55.9419 209.601C55.5271 208.354 54.7166 207.241 54.1487 206.038C53.083 203.774 51.3471 202.622 48.903 201.891C44.7552 200.65 40.5563 199.651 36.3765 198.576C35.247 198.284 34.143 197.889 33.0391 197.514C30.8056 196.763 28.4764 196.585 26.1535 196.42C25.3367 196.362 24.6922 196.979 24.4943 197.921C24.2582 199.06 24.0479 200.205 23.7799 201.337C23.6012 202.107 22.6056 202.629 21.8016 202.419C21.4825 202.336 21.1698 202.209 20.8571 202.094C17.3857 200.866 13.7737 200.313 10.149 199.766C8.80896 199.562 7.51372 199.582 6.18002 199.632C2.75961 199.76 2.4851 199.881 2.23622 203.303C2.08945 205.275 2.33831 207.273 2.38298 208.443C2.70205 210.015 3.48069 210.142 3.93376 210.6C4.33579 211.007 4.26542 211.446 3.91444 211.872C3.60814 212.248 3.01463 212.706 3.07845 213.017C3.36561 214.341 2.6702 215.187 1.96825 216.122C1.5407 216.688 1.69377 217.413 2.03836 218.011C2.67012 219.099 2.61924 220.142 2.21722 221.332C0.775032 225.601 0.194351 230.035 0.0092926 234.52C-0.0417633 235.836 0.111366 237.172 0.62188 238.438C0.928185 239.202 1.18346 240.016 0.966492 240.868C0.551704 242.497 1.47675 243.28 2.78493 243.941C3.47412 244.291 3.32741 245.023 2.52974 245.474C2.24258 245.64 1.89789 245.71 1.62987 245.901C1.36823 246.085 1.1005 246.327 0.966492 246.6C0.826103 246.88 0.813339 247.23 0.806961 247.555C0.787819 248.045 1.29176 248.369 1.8916 248.051C3.25083 247.319 4.58455 247.612 5.73319 248.235C8.675 249.838 11.9806 250.538 14.9989 252.09C15.1904 252.269 15.4841 252.459 15.6564 252.727C17.6538 255.787 17.6537 255.787 17.7749 259.616C17.8004 260.443 17.8324 261.264 17.8643 262.155C17.507 262.46 17.1305 262.772 16.7731 263.096C16.6583 263.198 16.5242 263.351 16.5114 263.484C16.4859 263.834 16.7218 264.012 17.1302 264.025C17.628 264.044 18.1322 264.069 18.6299 264.076C19.217 264.082 19.6062 263.726 19.6828 263.217C19.8232 262.244 19.7979 261.245 19.9383 260.265C19.9766 260.004 20.3146 259.718 20.5826 259.565C21.0612 259.292 21.4953 259.413 21.8399 259.884C22.1271 260.278 22.4715 260.634 22.8033 261.028C23.9903 260.399 25.0816 259.591 26.4792 260.392C27.2258 260.819 27.8254 261.315 28.2019 262.11C28.7188 263.217 29.504 264.031 30.8121 264.165L30.7227 264.267ZM51.5388 244.934L51.6279 245.29L51.2197 245.195L51.5388 244.934Z" fill="#EB539F"/>
<path d="M9.65158 167.004C9.31337 168.104 9.28788 169.173 10.009 170.146C10.0792 170.242 10.3088 170.292 10.4365 170.254C10.5641 170.216 10.7362 170.057 10.749 169.936C10.7873 169.631 10.8448 169.268 10.7172 169.014C10.3854 168.308 9.96434 167.646 9.5687 166.965C9.57508 166.959 9.65158 167.004 9.65158 167.004Z" fill="#EB539F"/>
<path d="M55.7057 244.228C55.8333 244.457 55.9545 244.698 56.1076 244.914C56.1204 244.933 56.4459 244.819 56.4523 244.755C56.4586 244.488 56.4204 244.208 56.3438 243.954C56.3247 243.897 56.0695 243.846 55.9674 243.89C55.8526 243.947 55.7887 244.113 55.7057 244.228Z" fill="#EB539F"/>
<path d="M46.5101 161.558C46.5676 161.908 46.6188 162.264 46.6762 162.614L46.5995 162.557C47.2632 162.48 47.9332 162.404 48.5968 162.328L48.5651 162.404C48.5204 162.042 48.482 161.679 48.4373 161.31L48.533 161.386C47.831 161.469 47.1292 161.552 46.4272 161.641L46.5101 161.558Z" fill="#EB539F"/>
<path d="M48.5968 162.328C48.9797 162.639 49.318 162.595 49.6179 162.213L49.6625 162.264C49.2987 162.309 48.935 162.36 48.5713 162.404L48.5968 162.328Z" fill="#EB539F"/>
<path d="M30.7929 264.171L30.8886 264.311L30.7227 264.267L30.7929 264.171Z" fill="#EB539F"/>
</svg>
