<svg width="394" height="428" viewBox="0 0 394 428" fill="none" xmlns="http://www.w3.org/2000/svg">
<path d="M41.0637 135.099C41.3668 134.022 41.4743 132.827 42.0023 131.877C46.1185 124.484 50.5767 117.317 56.5506 111.226L56.4728 111.099C56.5314 112.264 56.5898 113.439 56.6484 114.604L56.541 114.487C57.9392 113.263 59.4055 112.098 60.7254 110.795C61.7618 109.777 61.498 108.974 59.9239 107.623L60.0313 107.701C60.3148 106.898 60.413 105.968 60.892 105.321C66.4846 97.7719 72.3899 90.4867 78.9797 83.7694C91.7878 70.7167 105.749 59.0055 121.109 49.1548C144.711 34.0066 170.376 24.4888 198.534 22.4129C204.205 21.9918 209.886 21.7078 215.556 21.3064C218.402 21.1105 221.129 22.5989 223.984 21.8254C224.209 21.7666 224.453 21.4141 224.483 21.1693C224.512 20.9441 224.317 20.572 224.111 20.4643C221.794 19.2305 219.252 18.8878 216.7 18.9172C207.608 19.0151 198.505 18.5646 189.451 19.9747C186.948 20.3664 184.367 20.2782 181.815 20.3566C181.131 20.3762 180.76 19.9159 180.887 19.3088C180.936 19.0934 181.268 18.9074 181.512 18.7899C182.5 18.2905 183.751 18.0555 184.416 17.2917C185.257 16.3321 186.058 15.7837 187.281 15.9306C196.667 17.1056 206.024 16.1851 215.371 15.392L215.312 15.2941C215.947 15.2941 216.583 15.2941 217.228 15.2941L217.17 15.392C218.861 15.3528 220.552 15.3039 222.244 15.2647L222.136 15.3725C222.909 15.02 223.681 14.4031 224.463 14.3835C226.438 14.3248 228.941 12.5818 230.114 15.8719C230.232 16.195 231.053 16.4104 231.552 16.4398C234.68 16.5867 237.789 16.5279 240.859 15.7152C245.416 14.5206 249.835 15.2648 254.273 16.5769C257.832 17.6344 260.424 19.4263 260.981 23.3529C261.206 24.9392 262.213 25.8989 263.611 26.3983C267.453 27.7887 270.582 30.1387 273.163 33.2623C273.3 33.419 273.231 33.8499 273.114 34.0849C272.997 34.3102 272.694 34.6136 272.498 34.6038C271.667 34.5451 270.826 34.457 270.015 34.2513C264.53 32.8119 259.065 31.2942 253.57 29.9038C252.533 29.6394 251.302 29.3946 250.431 30.501C249.854 31.2257 251.429 32.195 253.628 32.43C254.479 32.5182 255.34 32.5083 256.171 32.6454C258.693 33.0371 261.225 33.4191 263.728 33.9282C265.987 34.3787 268.059 35.3285 269.663 37.0323C270.005 37.3946 270.112 38.0605 270.142 38.599C270.181 39.2551 268.969 39.9992 268.177 39.8719C267.903 39.8229 267.551 39.823 267.365 39.6467C265.556 37.9331 264.315 39.9209 262.564 40.4007C260.12 39.5292 257.461 38.5892 254.801 37.6394L254.89 37.7471C250.568 34.5452 245.474 33.4974 240.39 33.8499C231.61 34.4766 222.821 34.222 214.051 34.408C205.222 34.5843 196.579 35.9943 187.858 36.9637C186.733 37.091 185.628 37.3946 184.504 37.5121C175.685 38.3934 167.208 40.6847 159.201 44.3665C155.779 45.943 151.799 45.424 148.72 47.5293C145.914 49.4387 143.284 51.5831 140.223 53.1205C128.276 59.1327 117.286 66.6334 106.795 74.888C104.517 76.6799 102.034 77.9333 99.2181 78.56L99.3255 78.6971C98.69 78.0214 98.0545 78.0312 97.4288 78.6971L97.605 78.5796C96.9792 79.2063 96.3631 79.833 95.7374 80.4499L95.8453 80.2541C95.8453 80.9101 95.8453 81.5564 95.8453 82.2125L95.7178 82.0949C95.1019 84.3274 93.9093 86.2467 92.3646 87.9408C86.4494 94.4524 80.5441 100.964 74.58 107.427C73.837 108.23 72.7808 108.739 71.8617 109.375L71.9596 109.493C71.9596 106.555 73.612 104.342 75.2546 102.168C76.8971 99.9946 78.6568 97.909 80.358 95.7841C80.9642 95.177 81.5607 94.5699 82.1668 93.9628C82.7339 93.3949 83.301 92.8367 83.8583 92.2687C84.4351 91.691 85.012 91.1231 85.5888 90.5453L85.6963 90.6531C85.1194 91.2211 84.533 91.789 83.9561 92.3667C83.3891 92.9347 82.822 93.4928 82.2647 94.0607C81.6585 94.6678 81.062 95.2749 80.4558 95.882C77.7671 96.3618 75.8898 98.1146 74.169 100.024C71.6954 102.766 69.2512 105.547 66.934 108.425C65.6923 109.963 64.4998 111.608 64.2945 113.694C64.2749 113.919 64.4703 114.242 64.6659 114.399C64.8516 114.546 65.262 114.683 65.4087 114.575C67.0317 113.478 68.6256 112.333 70.229 111.197L70.1116 111.118C69.4467 113.997 67.6184 116.191 65.751 118.306C61.4295 123.211 57.8905 128.665 54.5369 134.257C53.2268 136.44 51.8967 138.663 50.215 140.543C47.5459 143.51 44.7694 146.33 44.5836 150.453C42.286 151.53 40.4966 152.313 38.7465 153.194C36.439 154.36 35.7548 156.357 36.7032 158.923C36.801 159.177 36.9671 159.432 37.1529 159.637C38.375 160.959 37.9056 162.154 36.9963 163.417C36.0088 164.788 35.1388 166.237 34.2198 167.657L34.3372 167.54C33.5648 167.882 32.8023 168.47 32.0104 168.519C29.2923 168.666 27.8549 169.988 27.6398 172.69C27.5909 173.258 27.5027 173.816 27.4245 174.374C27.356 174.619 27.2876 174.874 27.2192 175.119C27.2485 174.835 27.2877 174.56 27.317 174.276C28.1285 174.335 28.9501 174.384 29.8301 174.443C29.7127 179.691 29.5072 184.734 27.1313 189.474C25.8408 192.049 25.4887 194.928 26.2806 197.816C26.7597 199.55 26.3299 201.204 25.9192 202.869C25.3033 205.356 24.0809 207.883 24.2178 210.331C24.5111 215.305 22.8001 219.878 22.2428 224.646C22.0472 226.331 21.9493 228.074 22.1253 229.748C22.6044 234.311 22.5266 238.884 22.0279 243.408C21.4315 248.872 22.0572 254.199 22.9078 259.545C23.8953 265.733 24.8437 271.922 25.8605 278.101C26.1831 280.059 26.4176 282.096 27.1705 283.907C30.4458 291.8 32.8217 300.035 36.4783 307.79C39.6461 314.497 42.8431 321.156 46.8517 327.423C49.7751 331.996 52.5713 336.617 56.7754 340.172C56.9905 340.358 57.1766 340.573 57.3526 340.799C65.6241 351.58 76.3004 359.658 87.3877 367.168C92.3056 370.498 97.7809 373.034 103.129 375.687C106.688 377.46 110.413 378.899 114.138 380.299C117.599 381.602 121.129 382.728 124.668 383.795C133.409 386.419 142.384 388.035 151.399 389.279C154.782 389.749 158.164 389.964 161.41 391.168C162.456 391.56 163.63 391.638 164.764 391.766C173.818 392.823 182.91 393.401 192.003 392.755C195.66 392.5 199.287 391.511 202.875 390.62C206.737 389.661 210.55 388.701 214.559 388.319C218.783 387.918 222.977 386.88 227.113 385.842C232.901 384.393 238.64 382.718 244.389 381.083C254 378.351 263.2 374.473 272.215 370.272C279.939 366.679 287.281 362.263 294.78 358.199C295.778 357.66 296.657 356.838 297.713 356.446C303.56 354.282 307.872 350.091 311.578 345.391C315.342 340.622 319.956 336.921 324.659 333.269C326.488 331.839 328.189 330.429 329.333 328.402C330.887 325.641 333.048 323.437 335.257 321.195C339.08 317.318 341.574 312.451 344.184 307.712C344.918 306.38 344.907 304.98 344.712 303.56C344.448 301.65 345.123 299.858 346.804 299.3C349.874 298.292 351.321 296 352.524 293.386C353.355 291.594 354.04 289.743 354.704 288.137C353.912 286.375 352.328 285.112 353.814 283.251C354.342 282.595 354.616 281.743 354.988 280.98C355.672 279.579 355.731 277.464 358.292 278.316C358.556 278.404 359.251 277.719 359.495 277.259C361.226 273.959 362.438 270.463 362.878 266.742C363.083 264.999 363.758 263.422 364.961 262.15C367.19 259.78 368.363 256.95 368.881 253.768C369.116 252.367 369.595 251.016 369.966 249.635C370.465 247.795 370.133 246.433 368.255 245.395C366.896 244.651 366.799 243.721 367.317 242.536C368.226 240.47 368.861 238.247 371.355 237.317C371.863 237.131 372.206 235.868 372.215 235.094C372.235 233.694 372.264 232.157 371.746 230.894C370.495 227.839 370.68 224.735 371.042 221.621C371.472 217.939 372.02 214.277 372.665 210.624C373.907 203.564 374.307 196.455 373.711 189.327C373.046 181.376 372.186 173.444 371.404 165.513C371.208 163.525 370.768 161.547 370.778 159.569C370.788 154.095 369.565 148.788 368.421 143.53C366.955 136.832 364.198 130.497 360.806 124.543C357.432 118.619 354.343 112.489 350.012 107.133C348.956 105.831 348.388 104.137 347.469 102.707C345.925 100.318 344.575 97.7131 342.61 95.7155C338.64 91.6714 334.964 87.3728 330.515 83.74C324.121 78.5111 317.864 73.1254 311.079 68.3959C307.813 66.1242 304.401 64.0483 301.116 61.7961C299.483 60.6799 297.948 59.4167 296.443 58.1241C296.091 57.8206 295.856 57.0569 295.973 56.6261C296.14 56.0483 296.804 56.0385 297.401 56.4106C300.539 58.3689 303.687 60.3273 306.826 62.2759C308.517 63.3335 310.14 64.5184 311.92 65.3996C314.755 66.7901 317.356 68.4155 319.478 70.8341C320.817 72.3616 322.645 73.2332 324.738 73.3801L324.708 73.4388C323.144 71.8133 321.589 70.1683 319.996 68.5722C318.197 66.7705 316.368 65.0178 314.55 63.2356L314.452 63.3335C316.222 61.6885 316.437 60.4449 315.097 59.407C314.452 58.9076 313.826 58.3004 313.083 58.0263C311.284 57.3604 309.436 56.861 307.598 56.2931L307.725 56.4204C307.149 55.2551 306.572 54.0997 305.995 52.9345L305.926 53.003C307.627 52.9442 309.329 52.8855 311.04 52.8268C311.607 53.4143 312.183 53.9919 312.751 54.5795L312.663 54.6677C312.086 54.0899 311.519 53.5024 310.942 52.9247C310.004 51.8671 309.133 50.741 308.106 49.7814C306.865 48.6161 305.427 47.6663 304.196 46.5011C302.465 44.8756 301.517 42.8585 301.595 40.4105C301.624 39.5782 301.448 38.7361 301.36 37.8058C300.128 36.6406 298.906 35.4558 297.645 34.3199C296.804 33.5562 295.758 32.9686 295.054 32.1069C293.441 30.1388 292.209 27.818 290.41 26.0751C288.592 24.3223 286.255 23.1375 284.202 21.61C283.947 21.4239 284.064 20.6699 284.113 20.1901C284.123 20.0726 284.602 19.8767 284.807 19.9355C285.629 20.1509 286.47 20.3664 287.213 20.7385C288.992 21.6296 290.742 22.5794 292.483 23.5586C295.699 25.3799 299.053 26.8781 302.455 28.3567C315.87 34.1927 325.5 40.7141 335.551 51.8574C340.313 57.145 345.006 62.511 349.542 67.9945C355.907 75.6714 361.773 83.7302 366.691 92.4352C369.076 96.6458 371.697 100.729 374.063 104.949C375.451 107.427 376.683 110.002 377.759 112.626C379.695 117.375 381.484 122.183 383.293 126.972C383.792 128.303 384.29 129.655 384.564 131.035C386.539 141.092 388.739 151.119 390.117 161.283C390.235 162.134 390.293 162.986 390.469 163.819C391.926 170.526 392.747 177.253 392.111 184.147C391.828 187.241 391.994 190.374 393.383 193.361C393.93 194.536 393.813 196.171 393.608 197.532C393.138 200.666 393.089 203.76 393.676 206.884C393.93 208.264 394.184 209.811 393.813 211.104C392.757 214.756 393.08 218.477 393.06 222.149C393.04 227.907 391.789 233.459 390.606 239.021C390.43 239.834 389.873 240.558 389.501 241.322C389.814 239.001 389.892 236.7 388.993 233.557C387.976 236.867 388.005 239.129 389.609 241.244C389.521 242.37 389.657 243.584 389.296 244.612C387.203 250.497 386.079 256.637 384.622 262.669C382.227 272.588 379.01 282.223 375.539 291.8C374.865 293.65 374.513 295.618 373.975 297.518C372.812 301.601 371.648 305.645 369.057 309.171C367.923 310.718 367.424 312.745 366.681 314.566C366.202 315.731 366.632 316.671 367.336 317.68C368.07 318.737 367.669 319.942 366.974 320.686C365.948 321.783 364.589 322.116 363.308 322.693C361.665 323.438 360.776 324.877 360.542 326.688L360.658 326.62C359.593 327.58 359.182 328.862 358.84 330.194L358.889 330.096C357.862 331.016 357.374 332.211 357.139 333.543L357.256 333.484C356.64 334.101 356.014 334.718 355.398 335.335L355.545 335.178C354.939 336.383 354.342 337.597 353.736 338.801L353.864 338.635C353.238 339.252 352.622 339.878 351.996 340.495L352.133 340.329C348.75 343.266 346.257 346.977 343.432 350.395C342.591 351.423 342.297 352.911 341.759 354.184L341.848 354.047C340.684 355.193 339.521 356.339 338.367 357.484L338.465 357.425C337.849 358.042 337.233 358.669 336.607 359.286L336.744 359.149C336.128 359.766 335.512 360.383 334.906 361L335.043 360.862C334.427 361.479 333.811 362.096 333.195 362.713L333.332 362.576C332.716 363.193 332.099 363.81 331.493 364.427L331.66 364.299C331.044 364.926 330.418 365.543 329.802 366.17L329.958 366.013C329.333 366.64 328.707 367.257 328.091 367.883L328.257 367.717C327.632 368.343 326.996 368.98 326.37 369.607L326.556 369.421C325.93 370.047 325.305 370.674 324.679 371.301L324.825 371.144C324.2 371.761 323.584 372.388 322.958 373.004L323.007 372.897C319.781 375.217 316.593 377.577 314.784 381.288L314.911 381.2C311.362 381.641 308.654 383.766 305.867 385.714C302.602 387.986 299.425 390.415 295.651 391.805C294.908 392.079 293.979 392.03 293.187 391.874C292.747 391.785 292.238 391.227 292.072 390.767C291.906 390.307 291.935 389.445 292.229 389.22C294.673 387.31 297.225 385.528 299.679 383.629C300.021 383.364 300.226 382.591 300.099 382.17C299.962 381.719 299.385 381.377 298.955 381.053C298.74 380.897 298.427 380.818 298.154 380.799C297.587 380.769 296.99 380.681 296.462 380.828C295.367 381.122 294.262 381.445 293.255 381.935C284.573 386.165 275.744 390.062 266.701 393.421C255.525 397.572 244.233 401.352 232.608 404.084C230.672 404.535 228.706 405.093 226.751 405.132C217.922 405.308 209.348 407.913 200.509 407.844C194.34 409.039 188.082 409.176 181.835 409.078C178.149 409.019 174.473 408.608 170.796 408.324C169.946 408.255 169.115 408.011 168.264 407.981C160.012 407.785 151.868 406.601 143.704 405.553C140.575 405.151 137.584 404.701 134.641 403.516C133.115 402.899 131.326 402.743 129.654 402.743C128.598 402.743 127.543 403.418 126.487 403.781L126.633 403.663C123.651 402.909 120.679 402.145 117.697 401.421C117.521 401.382 117.169 401.626 117.081 401.822C116.993 402.008 117.051 402.439 117.188 402.527C120.043 404.437 123.201 405.396 126.633 405.504L126.487 405.386C128.97 407.404 131.922 408.275 134.973 409.019C139.93 410.224 144.838 411.536 149.658 413.289C152.816 414.434 156.258 415.061 159.621 415.335C166.69 415.913 173.71 416.637 180.652 418.155C181.649 418.371 182.871 417.519 183.771 419.027C182.734 420.212 181.659 421.455 180.544 422.738C180.984 422.973 181.473 423.472 181.776 423.374C185.345 422.238 188.904 422.023 192.658 422.562C195.718 423.002 198.886 422.65 202.005 422.728C203.696 422.767 205.427 422.845 206.864 423.962C207.06 424.118 207.217 424.422 207.246 424.677C207.275 424.892 207.167 425.245 206.991 425.352C206.532 425.646 206.023 425.979 205.505 426.047C200.734 426.723 195.963 427.369 191.182 427.957C190.37 428.055 189.432 427.996 188.689 427.673C185.179 426.165 181.483 426.322 177.797 426.273C170.425 426.165 163.063 425.852 155.73 424.872C149.238 424.001 142.912 422.601 136.703 420.495C130.798 418.498 124.776 416.814 118.782 415.09C116.886 414.542 114.901 414.307 112.955 413.925L113.013 414.033C112.398 413.416 111.782 412.789 111.166 412.172L111.332 412.319C110.159 411.742 108.996 411.174 107.822 410.606L107.617 410.429L107.881 410.576C107.822 411.164 107.763 411.761 107.714 412.349L107.773 412.251C106.013 412.623 104.4 412.143 102.836 411.409C97.1749 408.726 91.7386 405.67 86.7131 401.91C83.5258 399.531 80.3386 397.161 77.0926 394.86C73.5826 392.373 70.3657 389.661 68.381 385.695C66.8167 382.561 63.9031 380.544 61.3317 378.41C56.2574 374.199 51.8384 369.45 47.9178 364.201C46.0503 361.695 44.1533 359.208 42.3055 356.681C32.3328 343.051 24.7849 328.108 18.6938 312.402C17.8725 310.277 17.0022 308.182 16.1321 306.076C14.0691 301.073 12.2605 296.01 10.8917 290.762C9.66951 286.091 8.05617 281.518 6.61893 276.906C5.85632 274.458 5.0448 272.03 4.39951 269.562C4.04753 268.201 3.67594 266.713 3.85193 265.361C4.78076 258.448 3.26519 251.868 1.77906 245.2C0.977338 241.635 1.10448 237.866 0.840497 234.174C0.703617 232.196 0.791993 230.179 0.498679 228.22C-0.469257 221.699 0.293035 215.148 0.165932 208.617C0.126823 206.59 0.596126 204.671 1.38807 202.82C2.64932 199.882 3.0895 196.896 2.58109 193.665C1.85759 189.072 3.01106 184.597 4.30164 180.23C5.35757 176.685 6.35501 173.15 6.92208 169.478C7.48916 165.806 8.77985 162.33 10.4615 159.021C13.4142 153.185 16.044 147.231 18.2536 141.062C19.5833 137.361 21.7053 133.953 23.4749 130.409C24.6189 128.117 25.8312 125.865 26.8774 123.544C28.5492 119.833 31.0324 116.856 34.4055 114.604L34.288 114.497C33.7601 116.788 33.2322 119.089 32.714 121.38L32.6066 121.273C35.9993 117.933 38.7566 114.242 39.3236 109.307L39.431 109.424C38.2871 109.963 37.153 110.511 36.009 111.05L36.1265 111.108C36.5469 107.662 38.4143 104.763 39.7146 101.65C40.0275 100.896 40.6726 100.269 41.2299 99.6323C43.2733 97.3018 45.2288 94.893 47.4189 92.6996C49.6676 90.4377 51.2417 87.9113 52.0239 84.7877C52.3563 83.4657 53.7152 83.5539 54.8787 83.8085L54.7909 83.7204C56.1695 84.4646 57.6361 84.5527 58.7409 83.4658C60.9798 81.2919 63.1991 79.0692 65.1447 76.6408C70.131 70.3935 75.8898 64.91 81.5801 59.3383C83.4084 57.5562 85.1099 55.6468 86.9088 53.8353C88.1114 52.6406 89.3334 51.4559 90.6435 50.3788C92.8238 48.5771 95.3463 47.167 96.9791 44.7288C97.2822 44.2686 97.7517 43.8768 98.2113 43.5635C107.421 37.4239 116.152 30.5206 126.35 25.9674C128.442 25.0371 130.485 24.0678 131.834 22.1094L131.757 22.1877C136.401 21.845 140.448 20.1412 143.841 16.9196L143.743 17.0077C145.992 16.9979 148.241 16.9881 150.499 16.9783L150.401 16.8706C147.899 18.8094 144.906 19.7887 142.1 21.1204C133.369 25.282 124.766 29.6687 116.758 35.1522C110.638 39.3432 104.84 43.8573 99.9614 49.5171C98.4948 51.2111 96.6563 52.6211 94.8867 54.0116C91.5038 56.675 88.7372 59.8867 86.1756 63.3041C85.8627 63.7252 85.8333 64.3715 85.6671 64.91C84.7187 65.1059 84.1517 65.6738 83.9757 66.6334C83.0567 66.8391 82.5285 67.4363 82.2743 68.3176L82.1573 68.2099C83.0568 67.9847 83.6532 67.456 83.8683 66.5355C84.8265 66.3593 85.3933 65.7912 85.5888 64.8414C87.3194 64.3127 89.04 63.7839 90.7705 63.2551L90.6731 63.1572C89.011 66.1438 86.4883 68.3959 84.1027 70.746C82.0984 72.724 79.8301 74.3887 77.073 75.2308L77.1804 75.123C76.32 76.2491 75.6064 77.5416 74.57 78.4719C69.7108 82.8195 65.7805 88.1366 60.5302 92.1023C59.4449 92.9249 58.3496 94.188 58.0171 95.4511C57.0296 99.2112 54.4683 101.865 52.1805 104.714C48.5238 109.277 48.4554 109.229 46.8226 115.505C41.5918 118.854 38.5215 124.23 36.0186 130.056C34.6791 133.17 32.851 136.088 32.2643 139.495C32.2154 139.809 32.8803 140.494 33.3008 140.573C34.0927 140.729 35.0411 140.798 35.7646 140.504C37.0552 139.985 38.2285 139.162 39.4506 138.467L39.3628 138.516C39.6756 137.194 39.8219 135.784 41.1712 135.001C41.1418 135.03 41.0637 135.099 41.0637 135.099ZM73.6119 95.6372C74.1789 95.0595 74.7558 94.4916 75.3229 93.9138C75.8899 93.3459 76.4668 92.778 77.0338 92.21C77.6009 91.6323 78.1778 91.0448 78.7448 90.467C79.3217 89.8991 79.8986 89.3312 80.4754 88.7534C81.0523 88.2051 81.6191 87.647 82.196 87.0987C82.7533 86.5307 83.3108 85.953 83.8778 85.3851C84.4547 84.8073 85.0316 84.2296 85.6084 83.6617L85.7158 83.7694C85.139 84.3471 84.5621 84.915 83.9853 85.4928C83.428 86.0607 82.8609 86.6286 82.2938 87.1966C81.7268 87.7547 81.1499 88.3128 80.5828 88.8709C80.006 89.4487 79.4391 90.0166 78.8623 90.5943C78.2854 91.1721 77.7086 91.74 77.1317 92.3177C76.5646 92.8857 75.9878 93.4536 75.4207 94.0215C74.8536 94.5993 74.2768 95.177 73.7097 95.7547L73.6119 95.6372ZM107.764 69.9725C108.34 69.4046 108.917 68.8269 109.484 68.2589C109.914 68.0827 111.039 68.7191 110.501 67.3972C110.198 67.7204 109.895 68.0435 109.592 68.3666C109.024 68.9444 108.458 69.5318 107.891 70.1095L107.46 70.3739C107.46 70.3739 107.764 69.9725 107.764 69.9725ZM99.2964 69.9627C99.8537 69.3752 100.401 68.7876 100.959 68.2001C103.051 67.7399 105.016 67.0643 106.013 64.91C106.6 64.3029 107.186 63.686 107.773 63.0789C109.914 62.7068 111.332 61.2086 112.857 59.8573C113.464 59.2307 114.07 58.6039 114.676 57.987C115.223 57.3897 115.771 56.7925 116.309 56.1952C117.57 55.9895 118.841 55.8133 119.672 54.6579L119.78 54.7656C118.655 55.2748 117.531 55.7839 116.406 56.3029C115.859 56.8904 115.311 57.4878 114.764 58.0851C114.157 58.7117 113.551 59.3384 112.945 59.965C110.824 60.3567 109.142 61.4437 107.871 63.1866C107.284 63.7937 106.688 64.4008 106.101 65.0079C103.745 65.0765 102.308 66.5453 101.047 68.3078C100.499 68.8953 99.9415 69.4829 99.3842 70.0704C98.7781 70.6971 98.172 71.3237 97.5658 71.9504C97.6245 71.8329 97.028 72.3127 97.468 71.8329C98.0839 71.2062 98.6902 70.5894 99.2964 69.9627ZM27.3466 163.926C27.5129 163.789 27.6984 163.672 27.845 163.515C27.9526 163.398 27.9917 163.231 28.0699 163.084C27.8646 163.398 27.6594 163.721 27.4541 164.044C27.3661 164.269 27.278 164.494 27.1901 164.719C27.2389 164.455 27.2978 164.191 27.3466 163.926ZM13.7174 162.301C14.8026 161.42 15.1933 160.186 15.467 158.883C17.442 155.75 19.2023 152.538 18.8504 148.631C20.2778 148.122 21.0988 147.006 21.7148 145.713C23.7875 141.405 25.8508 137.087 27.8942 132.768C28.6177 131.241 29.3017 129.703 29.947 128.146C30.211 127.52 29.9278 127.06 29.2825 126.981C29.0478 126.952 28.6565 127.138 28.5588 127.334C25.6061 133.082 22.6243 138.82 19.8085 144.626C19.2219 145.841 19.2413 147.349 18.9774 148.719C16.3082 151.628 15.8194 155.251 15.5749 158.962C14.4701 159.833 14.0788 161.067 13.8343 162.379C13.629 162.556 13.3847 162.712 13.2381 162.928C13.1403 163.084 13.1891 163.329 13.1793 163.535C13.3553 163.143 13.5414 162.722 13.7174 162.301ZM24.0516 160.705L23.9538 160.812C23.9147 159.549 23.8855 158.296 23.8464 157.033C25.5573 157.483 27.2292 157.581 28.1873 155.75C29.4779 153.302 30.6414 150.786 31.8342 148.289C32.1275 147.672 31.2963 146.555 30.475 146.614C29.6929 146.663 28.598 146.761 28.2265 147.27C26.0755 150.218 24.8435 153.625 23.9538 157.15C23.5138 158.355 23.0935 159.549 24.0516 160.705ZM30.9247 157.248C31.0421 157.043 31.1497 156.827 31.267 156.622C31.1595 156.847 31.0519 157.072 30.9443 157.297L30.739 157.513L30.9247 157.248ZM133.36 45.9724C134.758 45.9332 135.961 45.4338 136.909 44.3763C137.115 44.2392 137.32 44.0923 137.535 43.9552C137.359 44.1315 137.183 44.3077 137.007 44.484C135.667 44.6603 134.396 44.9834 133.477 46.0801L133.36 45.9724ZM124.863 51.123C125.665 50.8978 126.477 50.7019 127.249 50.4277C127.474 50.3493 127.748 50.036 127.757 49.8304C127.767 49.1254 127.308 48.9491 126.692 49.4681C126.066 49.9968 125.528 50.6432 124.961 51.2307L124.863 51.123ZM124.805 58.0459C122.732 58.6334 120.894 59.5342 119.897 61.6101C119.515 61.8354 118.479 61.1304 118.812 62.3739C119.144 62.0802 119.467 61.7864 119.799 61.4926C122.048 61.1499 124.003 60.4057 124.717 57.9382C125 57.9479 125.294 58.0263 125.558 57.9578C125.753 57.9088 125.91 57.6737 126.086 57.5269C125.655 57.6933 125.225 57.8696 124.805 58.0459ZM132.734 415.012C133.8 415.58 134.709 416.236 135.726 416.579C138.092 417.362 140.488 418.038 142.902 418.635C143.323 418.743 143.88 418.302 144.369 418.116C143.998 417.724 143.695 417.176 143.245 416.961C140.194 415.57 136.987 414.748 133.634 414.522C133.419 414.503 133.165 414.767 132.734 415.012ZM148.407 399.012C147.967 399.012 147.654 398.924 147.429 399.031C147.009 399.218 146.627 399.521 146.236 399.776C146.617 400.138 146.941 400.706 147.38 400.814C148.417 401.078 149.512 401.147 150.587 401.225C150.792 401.244 151.223 400.902 151.203 400.823C151.076 400.373 150.949 399.717 150.626 399.57C149.903 399.237 149.052 399.159 148.407 399.012ZM327.084 361.665C326.791 362.067 326.478 362.458 326.233 362.889C326.204 362.938 326.654 363.389 326.732 363.35C327.162 363.134 327.582 362.87 327.925 362.527C328.022 362.429 327.935 361.988 327.788 361.842C327.651 361.695 327.328 361.724 327.084 361.665ZM155.212 36.7189C154.762 36.6308 154.273 36.386 153.882 36.4839C153.296 36.6406 153.227 37.1498 153.677 37.5708C153.824 37.7079 154.215 37.7764 154.351 37.6785C154.684 37.4141 154.928 37.0421 155.212 36.7189ZM390.684 216.685L390.987 216.186L390.537 216.098L390.684 216.685ZM151.36 420.202L151.663 419.908L151.056 419.898L151.36 420.202Z" fill="#FFF94F"/>
<path d="M160.57 227.633C162.017 226.184 163.865 225.87 165.801 225.821C167.502 227.349 169.154 227.075 170.787 225.684C171.227 225.224 171.461 225.224 171.452 225.694C171.452 225.714 171.08 225.724 170.885 225.733C169.154 225.802 167.433 225.87 165.703 225.929C167.433 223.932 169.78 222.972 172.185 222.081C182.549 218.242 193.196 215.501 204.146 213.983C205.535 213.787 206.923 213.542 208.302 213.278C208.438 213.249 208.644 212.876 208.595 212.73C208.527 212.504 208.302 212.299 208.096 212.162C206.708 211.271 204.802 212.778 203.345 210.987C211.577 210.066 219.634 209.469 227.739 210.184C233.107 210.654 238.357 211.721 243.47 213.395C247.225 214.629 250.94 215.971 254.675 217.273L254.606 217.185C255.252 217.185 255.897 217.185 256.552 217.185L256.493 217.293C258.312 217.586 260.13 217.89 261.685 218.987L261.587 218.879C269.897 221.826 277.485 226.105 284.632 231.236C287.154 233.048 290.088 234.331 292.414 236.338C295.817 239.276 299.718 241.665 302.368 245.484C303.473 247.08 305.037 248.441 306.601 249.626C309.123 251.516 311.02 253.973 313.132 256.245C314.716 257.949 316.114 259.633 315.664 262.208C315.586 262.688 315.958 263.295 316.241 263.765C317.708 266.155 316.055 267.369 314.481 268.632L314.618 268.505C313.572 270.228 312.213 271.452 310.14 271.893C306.845 272.598 306.757 272.872 308.371 275.888C308.625 276.358 309.075 276.73 309.437 277.151L309.329 277.024C309.602 277.582 309.671 278.473 310.57 278.199C310.874 278.111 310.991 277.435 311.196 277.024L311.079 277.151C312.487 277.592 313.993 278.434 313.924 279.873C313.807 282.36 314.609 284.221 316.222 285.974C316.769 286.571 317.004 287.442 317.346 288.128C317.151 288.764 317.053 289.332 316.809 289.831C315.743 291.986 314.374 292.387 313.005 290.967C311.245 289.146 309.524 287.286 307.755 285.474C307.237 284.936 306.699 285.004 306.435 285.592C306.337 285.807 306.367 286.179 306.484 286.395C307.755 288.568 309.075 290.713 310.346 292.877C310.453 293.053 310.414 293.455 310.277 293.611C310.121 293.787 309.622 293.964 309.544 293.885C307.256 291.496 304.528 290.458 301.233 290.987C300.979 291.026 300.696 290.869 300.031 290.713C299.571 290.057 298.848 289.215 298.329 288.245C296.834 285.484 294.81 283.173 292.591 280.98C290.185 278.61 287.917 276.093 285.6 273.645L285.453 273.724C286.519 274.057 287.633 274.292 288.631 274.762C289.628 275.232 290.508 275.947 291.456 276.534C292.336 277.082 292.884 278.267 294.194 278.022C294.272 277.797 294.477 277.503 294.399 277.366C290.762 271.109 285.013 267.173 279.039 263.52C278.179 262.992 277.26 262.179 276.038 262.786C275.422 263.09 275.969 263.932 277.583 265.303C279.274 266.732 281.337 267.79 282.295 269.964L281.836 270.522C279.264 269.954 277.211 268.358 275.08 266.987C264.716 260.299 253.482 255.52 241.642 252.387C234.534 250.497 227.152 249.557 219.712 250.419C216.045 250.84 212.379 251.31 208.703 251.594C202.406 252.084 196.383 253.67 190.576 256.079C187.955 257.166 185.306 258.096 182.588 258.958C172.821 262.062 163.376 265.968 154.625 271.364C152.474 272.686 150.597 274.487 148.642 276.123C145.816 278.502 143.069 280.97 140.214 283.31C139.598 283.81 138.688 283.976 137.906 284.231C137.105 284.495 135.931 283.731 136.029 283.016C136.225 281.606 136.479 280.216 136.714 278.806C137.33 278.199 137.936 277.582 138.552 276.975C139.109 276.407 139.666 275.839 140.224 275.271C140.8 274.713 141.387 274.145 141.974 273.587C142.531 273.009 143.088 272.431 143.646 271.853L143.743 271.961C143.186 272.539 142.629 273.117 142.072 273.685C141.495 274.252 140.908 274.811 140.331 275.379C139.774 275.946 139.207 276.505 138.65 277.073C138.034 277.68 137.428 278.297 136.812 278.904C133.751 281.097 131.864 284.25 129.968 287.384C129.088 288.823 128.452 290.419 127.523 291.819C125.891 294.277 125.206 296.813 125.92 299.77C126.272 301.229 125.548 302.786 124.013 303.07C122.175 303.413 121.188 304.833 119.741 305.636C119.535 305.753 119.085 305.763 118.978 305.636C118.665 305.244 118.215 304.715 118.274 304.314C118.479 302.933 118.812 301.572 119.203 300.231C120.963 294.277 122.859 288.392 127.064 283.574C127.758 282.771 127.963 281.528 128.384 280.49L128.315 280.539C131.239 278.933 132.949 276.133 135.051 273.714C135.658 273.087 136.254 272.461 136.86 271.824C137.427 271.246 137.985 270.669 138.552 270.091L138.65 270.189C138.092 270.767 137.525 271.344 136.968 271.922C136.361 272.549 135.756 273.185 135.159 273.812C134.27 272.529 133.986 271.148 135.159 269.954C140.762 264.265 146.931 259.29 153.716 255.09C154.645 254.512 155.75 254.238 156.659 253.866C156.923 252.338 157.158 250.977 157.402 249.606L157.226 249.753C159.582 249.263 161.929 248.764 164.285 248.294C164.52 248.245 164.999 248.402 165.019 248.509C165.087 248.979 165.126 249.498 164.98 249.939C164.813 250.438 164.451 250.86 164.168 251.32C164.148 251.956 164.119 252.593 164.099 253.229C164.07 253.494 164.011 253.768 164.031 254.032C164.07 254.532 164.011 255.099 164.236 255.491C164.549 256.03 165.556 255.775 166.299 255.031C166.759 254.561 166.827 253.934 166.319 253.729C165.605 253.445 164.774 253.445 164.002 253.317C164.021 252.622 164.051 251.927 164.07 251.232C166.329 251.32 168.587 251.418 170.855 251.506C171.325 251.741 171.784 252.005 172.263 252.221C173.006 252.544 173.319 252.358 173.055 251.78C172.987 251.633 172.576 251.604 172.322 251.594C171.794 251.574 171.266 251.604 170.748 251.623C172.342 249.645 174.326 248.382 176.859 247.844C179.274 247.334 181.561 246.443 183.175 244.397L183.077 244.514C187.868 244.524 192.649 244.642 197.439 244.524C201.419 244.426 205.261 243.633 208.458 240.97C210.981 240.999 213.503 241.077 216.026 241.028C219.389 240.96 222.762 240.832 226.126 240.627C227.436 240.549 228.892 241.146 230.378 239.922C225.578 239.677 221.09 239.432 216.612 239.236C213.767 239.119 210.991 239.423 208.536 241.068C208.106 240.695 207.618 240.372 207.266 239.932C206.19 238.58 206.19 237.19 207.402 236.211C208.253 235.525 209.26 234.899 210.306 234.605C211.362 234.311 212.555 234.478 213.679 234.409C217.365 234.213 221.051 233.968 224.737 233.812C226.556 233.733 227.915 233.028 229.137 231.638C229.948 230.708 230.623 231.001 231.923 232.343C233.556 234.017 233.918 234.282 235.365 233.156C236.861 231.99 238.327 231.746 240.107 231.873C241.661 231.99 242.434 231.413 242.052 230.855C241.749 230.404 241.407 229.866 240.958 229.66C239.657 229.092 238.327 228.495 236.949 228.221C220.005 224.901 203.091 224.294 186.274 229.102C182.999 230.042 179.626 230.668 176.35 231.599C174.17 232.216 172.077 233.126 169.946 233.919C168.352 234.517 166.817 235.447 165.175 235.702C159.436 236.593 154.391 239.266 149.248 241.655C146.94 242.722 144.77 244.142 142.678 245.601C139.647 247.716 136.733 249.998 133.771 252.221C131.248 254.12 128.902 256.284 127.425 259.055C126.066 261.601 124.502 263.805 122.351 265.773C120.503 267.467 119.242 269.807 117.697 271.834C117.081 272.637 115.947 272.275 115.008 271.002C114.842 270.776 114.793 270.473 114.686 270.208L114.598 270.297C115.419 269.425 115.537 268.338 115.791 267.212C116.984 261.885 119.144 257.038 123.231 253.19C125.284 251.261 126.907 248.852 129.049 247.05C131.2 245.239 133.966 244.152 136.088 242.311C140.243 238.718 145.279 236.739 149.972 234.135C151.956 233.038 153.99 232.01 156.053 231.08C157.91 230.247 158.507 227.858 160.668 227.447C160.893 227.515 161.108 227.584 161.333 227.653C161.078 227.701 160.824 227.662 160.57 227.633ZM148.808 268.475L148.847 268.524L148.632 268.691L148.808 268.475Z" fill="#FFF94F"/>
<path d="M147.039 153.958C147.586 156.445 148.241 158.923 148.671 161.429C149.405 165.738 147.948 169.253 144.428 171.848C140.273 174.913 135.824 177.312 130.544 177.753C129.137 177.87 127.7 178.017 126.36 178.428C124.502 178.996 122.811 180.455 120.719 179.662C117.727 178.526 115.449 176.46 113.571 173.895C111.01 170.399 109.563 166.433 108.409 162.321C108.008 160.911 108.086 159.53 108.526 158.149C109.582 154.83 111.616 152.078 113.884 149.562C115.439 147.838 117.697 147.114 120.034 147.075C121.149 147.055 122.302 147.202 123.378 147.495C125.196 147.995 126.702 147.525 128.11 146.399C128.775 145.87 129.479 145.39 130.193 144.93C131.698 143.961 133.35 143.873 135.091 144.019C139.598 144.382 143.098 146.663 146.11 149.806C146.647 150.365 146.745 151.354 147.048 152.137L147.136 152.088C147.029 152.294 146.804 152.519 146.823 152.705C146.862 153.146 147.029 153.567 147.146 153.997L147.039 153.958ZM132.382 156.651C132.343 156.426 132.305 156.015 132.265 156.015C131.777 156.005 131.297 156.054 130.808 156.093C130.848 156.318 130.877 156.729 130.926 156.729C131.405 156.739 131.894 156.68 132.382 156.651Z" fill="#FFF94F"/>
<path d="M268.382 119.676C268.558 119.157 268.587 118.462 268.939 118.178C269.282 117.904 270.103 117.845 270.475 118.071C271.433 118.648 272.166 119.637 273.153 120.117C275.979 121.498 276.341 123.828 275.999 126.57C275.705 128.891 274.767 130.937 273.467 132.837C272.01 134.962 270.67 137.126 270.592 139.819C270.553 141.15 269.331 141.591 268.558 142.384C266.73 144.284 266.691 145.439 268.226 147.574C269.203 148.945 270.201 150.315 271.051 151.765C271.267 152.137 271.13 152.94 270.846 153.322C270.582 153.684 269.927 153.811 269.419 153.939C269.184 153.997 268.862 153.821 268.617 153.684C267.336 152.94 266.016 152.538 264.608 153.302C263.328 153.997 262.311 154.967 261.744 156.338C261.421 157.121 261.079 157.914 260.805 158.717C259.964 161.224 260.521 162.497 263.151 164.249C263.611 164.553 264.1 164.847 264.511 165.199C264.687 165.356 264.872 165.738 264.794 165.914C264.599 166.394 264.354 167.109 263.973 167.236C259.837 168.558 256.161 167.961 253.208 164.484C251.184 162.095 251.116 160.127 253.149 157.669C253.873 156.798 254.812 156.054 255.33 155.084C255.672 154.438 255.721 153.361 255.418 152.705C255.007 151.804 254.117 152.019 253.316 152.528C252.866 152.822 252.309 152.95 251.8 153.145C248.818 150.864 246.667 147.926 244.819 144.685C243.323 142.071 242.512 139.642 243.969 136.675C244.693 135.207 244.673 133.375 244.947 131.916C246.257 130.614 247.117 131.711 248.075 132.073C250.021 132.798 251.791 132.288 252.182 130.477C252.837 127.461 255.017 124.964 254.773 121.615C254.665 120.186 256.142 119.157 257.413 118.492C261.304 116.445 265.029 116.396 268.363 119.696L268.617 119.921L268.382 119.676ZM254.743 160.812L254.841 160.705C254.968 161.234 255.046 161.782 255.232 162.291C255.31 162.516 255.564 162.732 255.799 162.82C256.004 162.888 256.376 162.859 256.503 162.722C256.894 162.272 256.816 161.733 256.259 161.39C255.799 161.126 255.251 161.008 254.743 160.812Z" fill="#FFF94F"/>
<path d="M196.784 2.61355C196.97 2.38834 197.127 2.01622 197.332 1.97705C209.456 -0.118432 221.599 -0.803807 233.83 1.18396C237.174 1.72252 240.644 1.47772 244.047 1.67356C246.051 1.79106 248.007 2.18265 249.532 3.66124C249.698 3.81791 249.718 4.22926 249.649 4.48385C249.59 4.70906 249.317 5.04195 249.131 5.05174C248.31 5.08112 247.439 5.18885 246.677 4.95384C241.72 3.41651 236.636 2.99539 231.493 3.05414C221.824 3.16185 212.144 3.28921 202.474 3.35775C200.568 3.36754 198.554 3.85713 196.784 2.61355Z" fill="#FFF94F"/>
<path d="M183.135 8.58663C183.8 8.09703 184.416 7.27456 185.14 7.16684C197.742 5.28679 210.404 4.42501 223.143 5.12024C223.388 5.13003 223.652 5.33569 223.838 5.52174C223.994 5.67841 224.15 5.96238 224.102 6.13864C224.033 6.38344 223.789 6.77514 223.613 6.77514C216.28 6.92202 209.006 8.02846 201.683 8.31243C195.474 8.55723 189.256 8.43977 183.038 8.47893L183.135 8.58663Z" fill="#FFF94F"/>
<path d="M328.287 374.581C326.341 374.659 324.659 373.905 323.056 372.907L323.007 373.024C323.633 372.407 324.249 371.78 324.875 371.164L324.728 371.32C325.353 370.694 325.979 370.067 326.605 369.44L326.419 369.626C327.045 368.999 327.681 368.363 328.306 367.736L328.14 367.903C328.766 367.276 329.392 366.659 330.008 366.033L329.851 366.189C330.467 365.562 331.093 364.946 331.709 364.319L331.543 364.446C332.159 364.446 332.775 364.456 333.391 364.456L333.263 364.378C333.488 367.384 333.116 370.272 331.572 372.936L331.68 372.867C330.477 373.474 329.284 374.091 328.081 374.708L328.287 374.581Z" fill="#FFF94F"/>
<path d="M119.809 282.252C119.34 279.942 118.401 277.621 119.819 275.31L119.711 275.408C120.034 274.654 120.269 273.851 120.689 273.165C121.716 271.471 122.322 271.305 124.796 272L124.923 271.873C124.923 272.519 124.923 273.175 124.923 273.822L124.815 273.733C124.649 274.556 124.698 275.496 124.287 276.172C122.967 278.326 121.765 280.588 119.663 282.135L119.809 282.252Z" fill="#FFF94F"/>
<path d="M279.391 47.0691C279.9 47.0397 280.525 46.8046 280.916 47.0103C283.908 48.6064 286.861 50.271 289.784 51.9943C290.058 52.1608 290.019 52.8952 290.058 53.375C290.058 53.4436 289.55 53.6786 289.393 53.6002C286.138 51.916 282.892 50.2122 279.665 48.4791C279.46 48.3713 279.303 48.0385 279.254 47.7839C279.196 47.5587 279.333 47.3041 279.391 47.0691Z" fill="#FFF94F"/>
<path d="M106.023 51.2405C102.513 56.019 97.7324 59.074 92.4039 61.424L92.5013 61.522C95.8744 56.5771 100.176 52.8659 106.101 51.3188L106.023 51.2405Z" fill="#FFF94F"/>
<path d="M357.198 335.296C356.679 340.28 354.753 344.441 350.344 347.163L350.471 347.301C350.715 346.272 350.95 345.234 351.204 344.206C351.527 342.914 351.859 341.631 352.182 340.338L352.045 340.505C352.671 339.888 353.287 339.261 353.913 338.644L353.786 338.811C354.832 337.822 355.301 336.549 355.594 335.188L355.447 335.344C356.073 335.344 356.689 335.354 357.315 335.354L357.198 335.296Z" fill="#FFF94F"/>
<path d="M345.221 357.612C346.99 357.073 348.77 356.534 350.54 355.996L350.432 355.898C348.633 358.287 346.863 360.696 344.996 363.036C344.771 363.32 343.901 363.418 343.569 363.203C343.256 363.007 343.002 362.194 343.158 361.832C343.803 360.343 344.615 358.914 345.358 357.474C345.358 357.484 345.221 357.612 345.221 357.612Z" fill="#FFF94F"/>
<path d="M282.09 396.818C280.486 395.555 280.222 394.615 281.073 393.558C281.826 392.618 282.784 392.216 283.938 392.255C284.182 392.265 284.593 392.373 284.652 392.539C284.808 393.009 285.052 393.714 284.837 393.979C283.977 395.026 282.96 395.947 282.002 396.916L282.09 396.818Z" fill="#FFF94F"/>
<path d="M331.582 374.649C331.738 377.46 330.437 379.31 327.827 380.202C327.446 380.329 326.849 379.957 326.41 379.702C326.253 379.614 326.146 379.144 326.224 378.948C326.879 377.479 327.593 376.03 328.277 374.571L328.081 374.689C329.284 374.698 330.486 374.708 331.689 374.728L331.582 374.649Z" fill="#FFF94F"/>
<path d="M348.653 350.698C347.372 352.941 345.367 354.821 345.221 357.621L345.358 357.484C344.761 357.474 344.165 357.465 343.559 357.455L343.676 357.572C343.08 356.397 342.493 355.222 341.896 354.057L341.809 354.194C342.669 353.587 343.578 353.048 344.38 352.373C345.661 351.286 347.147 350.875 348.76 350.757L348.653 350.698Z" fill="#FFF94F"/>
<path d="M157.402 249.655C156.601 249.626 155.779 249.714 155.016 249.528C154.606 249.43 154.176 248.911 153.99 248.49C153.696 247.834 154.313 246.629 154.997 246.571C155.75 246.502 156.639 246.561 157.275 246.913C158.125 247.383 157.861 248.294 157.578 249.077C157.49 249.332 157.343 249.567 157.226 249.802L157.402 249.655Z" fill="#FFF94F"/>
<path d="M162.477 22.2171C164.715 22.1681 166.945 22.1191 169.184 22.0702L169.076 21.9527C166.153 24.1559 162.642 24.763 159.23 25.6443L159.338 25.7324C160.414 24.5279 161.489 23.3235 162.564 22.1191L162.477 22.2171Z" fill="#FFF94F"/>
<path d="M314.824 381.298C315.391 384.588 315.234 385.166 313.152 386.116C312.79 386.282 312.184 385.949 311.724 385.773C311.636 385.734 311.597 385.215 311.714 385.068C312.77 383.766 313.856 382.503 314.951 381.22C314.951 381.21 314.824 381.298 314.824 381.298Z" fill="#FFF94F"/>
<path d="M150.46 17.0273C151.79 15.4606 153.628 14.8437 155.525 14.3835C155.691 14.3443 156.033 14.5597 156.121 14.736C156.19 14.8829 156.043 15.2256 155.877 15.3529C154.274 16.665 152.308 16.7629 150.363 16.9196C150.363 16.9098 150.46 17.0273 150.46 17.0273Z" fill="#FFF94F"/>
<path d="M240.928 408.755C239.589 410.312 237.79 410.841 235.834 410.958C235.649 410.968 235.336 410.723 235.277 410.537C235.219 410.341 235.345 409.989 235.512 409.861C237.184 408.637 239.139 408.931 241.036 408.882L240.928 408.755Z" fill="#FFF94F"/>
<path d="M183.048 8.47897C181.464 9.68338 179.762 10.359 177.768 9.68336C177.631 9.6344 177.514 9.06644 177.553 9.04686C179.342 8.09704 181.258 8.60622 183.135 8.58663L183.048 8.47897Z" fill="#FFF94F"/>
<path d="M177.983 5.13985C179.449 3.61231 181.258 3.40676 183.204 3.87677C183.331 3.90615 183.478 4.49356 183.448 4.50335C181.669 5.44338 179.753 5.05171 177.876 5.00275L177.983 5.13985Z" fill="#FFF94F"/>
<path d="M224.845 413.034C224.737 413.2 224.62 413.514 224.512 413.514C224.053 413.494 223.603 413.386 223.153 413.318C223.261 413.151 223.378 412.828 223.476 412.838C223.945 412.848 224.395 412.956 224.845 413.034Z" fill="#FFF94F"/>
<path d="M254.831 37.6002C253.844 38.0311 252.866 38.4913 251.859 38.8732C251.644 38.9516 251.213 38.883 251.086 38.7165C250.637 38.1584 250.861 37.7177 251.644 37.6785C252.729 37.6296 253.824 37.6883 254.919 37.6981C254.929 37.7079 254.831 37.6002 254.831 37.6002Z" fill="#FFF94F"/>
<path d="M198.437 235.927C198.818 235.711 199.238 235.261 199.561 235.32C200.099 235.427 200.167 235.985 199.786 236.475C199.649 236.651 199.258 236.906 199.229 236.867C198.926 236.583 198.691 236.25 198.437 235.927Z" fill="#FFF94F"/>
<path d="M169.174 22.08C170.132 21.6394 171.071 21.1791 172.048 20.7874C172.254 20.6993 172.664 20.7678 172.801 20.9245C173.261 21.4533 173.055 21.8547 172.273 21.8939C171.208 21.9526 170.152 21.9527 169.076 21.9723C169.076 21.9625 169.174 22.08 169.174 22.08Z" fill="#FFF94F"/>
<path d="M189.95 241.283C190.322 240.901 190.644 240.372 191.094 240.186C191.466 240.03 192.003 240.265 192.472 240.323C192.394 240.519 192.365 240.793 192.208 240.901C192.003 241.048 191.72 241.136 191.456 241.156C190.918 241.195 190.38 241.165 189.833 241.165L189.95 241.283Z" fill="#FFF94F"/>
<path d="M99.2479 78.5209C98.7493 80.3716 97.605 81.576 95.7376 82.0558L95.8646 82.1733C95.8646 81.5172 95.8646 80.8709 95.8646 80.2149L95.7572 80.4107C96.3829 79.784 97.0088 79.1574 97.6247 78.5405L97.4486 78.658C98.0841 78.658 98.7196 78.658 99.3453 78.658L99.2479 78.5209Z" fill="#FFF94F"/>
<path d="M56.6291 82.0362C56.7464 81.4976 56.8149 80.9394 56.9909 80.4205C57.0691 80.1952 57.3723 79.8917 57.5581 79.9015C58.2425 79.9406 58.3987 80.4204 57.8708 80.9982C57.5188 81.3898 56.991 81.6347 56.5412 81.9383C56.5412 81.9481 56.6291 82.0362 56.6291 82.0362Z" fill="#FFF94F"/>
<path d="M241.036 408.882C241.408 408.5 241.73 407.962 242.18 407.776C242.561 407.629 243.118 407.893 243.588 407.972C243.509 408.167 243.47 408.442 243.324 408.559C243.118 408.716 242.825 408.804 242.561 408.814C242.013 408.833 241.466 408.775 240.928 408.745C240.928 408.755 241.036 408.882 241.036 408.882Z" fill="#FFF94F"/>
<path d="M163.278 13.1596C163.102 13.0029 162.926 12.8364 162.75 12.6798C162.965 12.5623 163.239 12.288 163.376 12.337C164.139 12.6405 164.099 12.9539 163.278 13.1596Z" fill="#FFF94F"/>
<path d="M374.337 306.125C374.376 305.577 374.396 305.029 374.484 304.49C374.523 304.236 374.689 303.834 374.846 303.805C375.481 303.707 375.696 304.128 375.305 304.794C375.031 305.254 374.601 305.616 374.239 306.027L374.337 306.125Z" fill="#FFF94F"/>
<path d="M118.069 287.335C118.176 285.484 117.776 283.447 119.809 282.252L119.663 282.135C120.073 284.162 119.428 285.836 117.951 287.227L118.069 287.335Z" fill="#FFF94F"/>
<path d="M265.635 157.62L265.224 158.041L265.097 157.552L265.635 157.62Z" fill="#FFF94F"/>
<path d="M214.95 425.117L214.266 425.313L214.354 424.765L214.95 425.117Z" fill="#FFF94F"/>
<path d="M285.58 273.675C284.348 272.617 282.588 272.186 281.845 270.551C281.845 270.551 282.305 269.993 282.295 270.003C284.358 270.404 284.906 272.079 285.433 273.763L285.58 273.675Z" fill="#FFF94F"/>
<path d="M126.516 403.81C127.005 403.878 127.494 403.918 127.973 404.016C128.198 404.065 128.501 404.143 128.608 404.309C128.863 404.711 128.608 405.005 127.953 405.122C127.474 405.21 126.995 405.318 126.516 405.416L126.663 405.533C126.663 404.916 126.663 404.309 126.663 403.692L126.516 403.81Z" fill="#FFF94F"/>
<path d="M107.265 246.492V245.856L107.793 246.101L107.265 246.492Z" fill="#FFF94F"/>
<path d="M183.155 244.446C182.354 244.475 181.552 244.534 180.75 244.504C180.525 244.495 180.144 244.26 180.115 244.093C180.007 243.418 180.437 242.997 181.092 243.271C181.806 243.574 182.402 244.123 183.057 244.563C183.057 244.573 183.155 244.446 183.155 244.446Z" fill="#FFF94F"/>
<path d="M177.876 5.00275C177.514 5.21818 177.142 5.4336 176.78 5.64903C176.917 5.47277 177.015 5.21817 177.191 5.14963C177.426 5.0615 177.719 5.13002 177.983 5.13002C177.983 5.13982 177.876 5.00275 177.876 5.00275Z" fill="#FFF94F"/>
<path d="M266.593 11.9061C266.329 11.7984 266.065 11.7004 265.801 11.5927C266.026 11.7298 266.261 11.8767 266.486 12.0138L266.593 11.9061Z" fill="#FFF94F"/>
<path d="M266.486 12.0138C267.796 12.239 269.047 12.6013 269.917 13.7078L270.015 13.6099C268.871 13.042 267.737 12.474 266.593 11.9061L266.486 12.0138Z" fill="#FFF94F"/>
<path d="M269.917 13.7078C270.289 13.8449 270.651 13.9918 271.022 14.1289C270.866 14.0799 270.709 14.0505 270.573 13.9722C270.377 13.8645 270.201 13.7274 270.025 13.6001L269.917 13.7078Z" fill="#FFF94F"/>
<path d="M159.23 25.6541C159.064 25.938 159.338 25.6638 159.338 25.7324C159.338 25.7422 159.23 25.6541 159.23 25.6541Z" fill="#FFF94F"/>
<path d="M133.497 34.1338C133.859 33.9282 134.211 33.7324 134.573 33.5267C134.436 33.6736 134.318 33.8989 134.152 33.9674C133.927 34.0556 133.653 34.0163 133.399 34.0261L133.497 34.1338Z" fill="#FFF94F"/>
<path d="M297.469 51.123C296.169 50.9663 294.956 50.6431 294.135 49.5073L294.028 49.615C295.338 49.7423 296.511 50.1633 297.371 51.2209L297.469 51.123Z" fill="#FFF94F"/>
<path d="M299.151 53.0814C300.256 53.6003 301.351 54.1193 302.456 54.6481L302.563 54.5502C301.468 54.0312 300.363 53.5023 299.258 52.9736L299.151 53.0814Z" fill="#FFF94F"/>
<path d="M307.706 58.0066C306.601 57.4779 305.486 56.9393 304.381 56.4105L304.284 56.5182C305.457 56.4889 306.63 56.4693 307.803 56.44L307.676 56.3127C307.657 56.91 307.628 57.5072 307.608 58.1143L307.706 58.0066Z" fill="#FFF94F"/>
<path d="M34.3961 114.624C34.3472 113.155 35.1294 112.097 36.1071 111.128L35.9897 111.069C35.7452 112.381 35.7159 113.792 34.2787 114.506L34.3961 114.624Z" fill="#FFF94F"/>
<path d="M195.22 230.11L194.702 230.247L194.79 229.807L195.22 230.11Z" fill="#FFF94F"/>
<path d="M189.852 241.165C189.452 241.498 189.051 241.831 188.65 242.154C188.562 241.968 188.474 241.782 188.386 241.596C188.914 241.488 189.432 241.391 189.96 241.283C189.95 241.283 189.852 241.165 189.852 241.165Z" fill="#FFF94F"/>
<path d="M309.446 277.18C309.603 276.554 309.554 275.643 310.57 275.927C310.844 276.005 310.923 276.74 311.089 277.18L311.206 277.053C310.58 277.053 309.965 277.053 309.339 277.063L309.446 277.18Z" fill="#FFF94F"/>
<path d="M117.951 287.227C117.766 287.609 117.57 288 117.384 288.382C117.414 288.186 117.374 287.951 117.472 287.814C117.619 287.619 117.864 287.491 118.069 287.325C118.069 287.335 117.951 287.227 117.951 287.227Z" fill="#FFF94F"/>
<path d="M374.239 306.027C373.702 307.202 373.164 308.368 372.636 309.543L372.724 309.631C373.262 308.466 373.799 307.291 374.347 306.125C374.337 306.125 374.239 306.027 374.239 306.027Z" fill="#FFF94F"/>
<path d="M360.59 326.708C362.018 328.568 362.018 328.568 360.688 330.125L360.737 330.213C360.727 329.019 360.718 327.824 360.708 326.63L360.59 326.708Z" fill="#FFF94F"/>
<path d="M350.344 347.163C350.227 348.554 349.679 349.739 348.653 350.698L348.77 350.757C348.946 349.416 349.337 348.172 350.471 347.301L350.344 347.163Z" fill="#FFF94F"/>
<path d="M350.54 355.996C350.589 355.712 350.637 355.438 350.696 355.154C350.608 355.399 350.52 355.643 350.442 355.898C350.432 355.908 350.54 355.996 350.54 355.996Z" fill="#FFF94F"/>
<path d="M292.404 396.916C292.737 396.603 293.079 396.29 293.412 395.976C293.5 396.143 293.588 396.3 293.676 396.466C293.216 396.583 292.757 396.701 292.307 396.818L292.404 396.916Z" fill="#FFF94F"/>
<path d="M263.367 402.067C263.699 401.724 264.032 401.391 264.364 401.049C264.472 401.225 264.579 401.401 264.687 401.577C264.208 401.705 263.728 401.822 263.249 401.949L263.367 402.067Z" fill="#FFF94F"/>
<path d="M273.437 401.989C273.124 402.194 272.811 402.39 272.508 402.596C272.645 402.488 272.762 402.361 272.909 402.292C273.104 402.204 273.32 402.155 273.525 402.087L273.437 401.989Z" fill="#FFF94F"/>
<path d="M266.71 404.867L266.241 404.564L266.769 404.378L266.71 404.867Z" fill="#FFF94F"/>
<path d="M111.205 413.964C110.061 413.396 108.917 412.838 107.773 412.27L107.715 412.368C108.917 412.358 110.13 412.349 111.332 412.339L111.166 412.192C111.166 412.819 111.156 413.445 111.156 414.072L111.205 413.964Z" fill="#FFF94F"/>
<path d="M215.4 15.3725C215.996 15.3725 216.602 15.3725 217.199 15.3725L217.258 15.2745C216.622 15.2745 215.987 15.2745 215.341 15.2745L215.4 15.3725Z" fill="#FFF94F"/>
<path d="M114.715 44.4056L114.96 44.1119L114.598 44.2979L114.715 44.4056Z" fill="#FFF94F"/>
<path d="M114.598 44.2979L114.705 44.4056C114.715 44.4056 114.598 44.2979 114.598 44.2979Z" fill="#FFF94F"/>
<path d="M294.135 49.5171L294.028 49.6248C294.018 49.6248 294.135 49.5171 294.135 49.5171Z" fill="#FFF94F"/>
<path d="M106.101 51.3286L106.014 51.2405C106.023 51.2405 106.101 51.3286 106.101 51.3286Z" fill="#FFF94F"/>
<path d="M297.371 51.2307C297.968 51.8476 298.555 52.4645 299.151 53.0814L299.258 52.9736C298.662 52.3567 298.066 51.7496 297.469 51.1327C297.469 51.1229 297.371 51.2307 297.371 51.2307Z" fill="#FFF94F"/>
<path d="M306.073 52.9541L306.004 53.0226C305.995 53.0226 306.073 52.9541 306.073 52.9541Z" fill="#FFF94F"/>
<path d="M304.372 56.4105C303.766 55.7937 303.16 55.1671 302.553 54.5404L302.446 54.6383C303.052 55.2552 303.658 55.8819 304.274 56.5086L304.372 56.4105Z" fill="#FFF94F"/>
<path d="M307.598 58.1045L307.696 58.0066C307.706 58.0066 307.598 58.1045 307.598 58.1045Z" fill="#FFF94F"/>
<path d="M90.7418 63.2943C91.3284 62.7068 91.9248 62.1096 92.5115 61.522L92.4136 61.424C91.827 62.0115 91.2305 62.6089 90.6439 63.1964C90.6341 63.1964 90.7418 63.2943 90.7418 63.2943Z" fill="#FFF94F"/>
<path d="M312.712 61.4926C313.318 62.1095 313.914 62.7264 314.52 63.3433L314.618 63.2453C314.022 62.6284 313.426 62.0116 312.819 61.3947L312.712 61.4926Z" fill="#FFF94F"/>
<path d="M54.8398 83.8379C55.4362 83.2405 56.0327 82.6433 56.6291 82.0362L56.5412 81.9481C55.9448 82.5454 55.3483 83.1427 54.7519 83.7498L54.8398 83.8379Z" fill="#FFF94F"/>
<path d="M58.3501 109.463C58.9172 108.876 59.4744 108.288 60.0415 107.711L59.9336 107.632C59.3665 108.22 58.7897 108.807 58.2226 109.395C58.2226 109.385 58.3501 109.463 58.3501 109.463Z" fill="#FFF94F"/>
<path d="M56.5607 111.226C57.1571 110.638 57.7533 110.051 58.3595 109.463L58.2325 109.385C57.6557 109.953 57.0693 110.521 56.4924 111.089C56.4826 111.099 56.5607 111.226 56.5607 111.226Z" fill="#FFF94F"/>
<path d="M71.8915 109.346C71.3049 109.924 70.718 110.511 70.1313 111.089L70.2488 111.177C70.8256 110.609 71.4025 110.041 71.9793 109.473L71.8915 109.346Z" fill="#FFF94F"/>
<path d="M147.038 152.147C147.038 152.754 147.039 153.361 147.039 153.958L147.136 154.007C147.136 153.371 147.136 152.734 147.136 152.098L147.038 152.147Z" fill="#FFF94F"/>
<path d="M254.675 217.283C255.281 217.293 255.887 217.293 256.493 217.302L256.552 217.195C255.907 217.195 255.261 217.195 254.606 217.195L254.675 217.283Z" fill="#FFF94F"/>
<path d="M126.79 272.137L126.692 272.02C126.683 272.02 126.79 272.137 126.79 272.137Z" fill="#FFF94F"/>
<path d="M124.785 272C125.45 272.049 126.115 272.088 126.78 272.137L126.682 272.02C126.056 272.598 125.431 273.166 124.805 273.734L124.913 273.822C124.913 273.175 124.913 272.519 124.913 271.873L124.785 272Z" fill="#FFF94F"/>
<path d="M128.403 280.519L128.335 280.568C128.335 280.578 128.403 280.519 128.403 280.519Z" fill="#FFF94F"/>
<path d="M360.698 330.135C360.111 330.125 359.534 330.125 358.948 330.116L358.899 330.213C359.515 330.213 360.131 330.223 360.747 330.223L360.698 330.135Z" fill="#FFF94F"/>
<path d="M357.188 333.562C357.315 333.954 357.501 334.346 357.55 334.747C357.569 334.914 357.325 335.11 357.198 335.296L357.315 335.354C357.315 334.737 357.305 334.121 357.305 333.494L357.188 333.562Z" fill="#FFF94F"/>
<path d="M338.426 357.494C338.523 357.866 338.66 358.238 338.709 358.62C338.729 358.796 338.553 358.992 338.474 359.178L338.543 359.306C338.543 358.679 338.533 358.052 338.533 357.425L338.426 357.494Z" fill="#FFF94F"/>
<path d="M343.568 357.455L343.373 357.729L343.686 357.582L343.568 357.455Z" fill="#FFF94F"/>
<path d="M338.465 359.188C337.888 359.756 337.311 360.324 336.744 360.892L336.822 361.029C336.812 360.402 336.812 359.785 336.803 359.159L336.666 359.296C337.291 359.305 337.907 359.306 338.533 359.315L338.465 359.188Z" fill="#FFF94F"/>
<path d="M336.734 360.892C336.167 361.46 335.6 362.037 335.023 362.605L335.102 362.733C335.102 362.116 335.092 361.489 335.092 360.872L334.955 361.009C335.571 361.019 336.197 361.019 336.813 361.029L336.734 360.892Z" fill="#FFF94F"/>
<path d="M335.033 362.605C334.446 363.193 333.86 363.78 333.273 364.368L333.4 364.446C333.4 363.829 333.391 363.203 333.391 362.586L333.254 362.723C333.87 362.723 334.495 362.733 335.111 362.733L335.033 362.605Z" fill="#FFF94F"/>
<path d="M331.582 372.926C331.758 373.328 331.983 373.719 332.071 374.131C332.1 374.258 331.748 374.473 331.572 374.649L331.689 374.728C331.689 374.101 331.68 373.484 331.68 372.858L331.582 372.926Z" fill="#FFF94F"/>
<path d="M112.955 413.945C112.369 413.954 111.792 413.954 111.205 413.964L111.156 414.072C111.772 414.062 112.398 414.062 113.014 414.052L112.955 413.945Z" fill="#FFF94F"/>
</svg>
