<svg width="289" height="293" viewBox="0 0 289 293" fill="none" xmlns="http://www.w3.org/2000/svg">
<path d="M90.5457 269.091C91.8273 269.518 93.1227 269.894 94.3791 270.38C96.3926 271.154 98.451 271.532 100.603 271.42C102.353 271.327 103.947 271.618 105.61 272.387C107.306 273.174 109.296 273.548 111.183 273.655C115.215 273.892 119.264 273.956 123.303 273.886C127.726 273.815 132.149 273.656 136.565 273.227C140.619 272.838 144.553 271.985 148.435 270.837C151.391 269.966 154.322 269.013 157.23 268.021C158.868 267.467 160.457 266.764 162.061 266.111C162.772 265.819 163.444 265.409 164.166 265.162C165.975 264.532 167.821 264.005 169.62 263.344C171.505 262.654 172.319 260.595 174.058 259.717C175.071 259.206 176.172 258.859 177.233 258.431C179.337 260.475 180.282 258.067 181.348 257.149C182.657 256.024 183.627 254.569 185.592 254.44C186.069 254.408 186.607 253.906 186.931 253.482C187.415 252.848 187.932 252.335 188.668 252.036C189.2 251.817 189.807 251.666 190.227 251.306C194.02 248.007 198.594 245.817 202.497 242.67C203.717 241.685 205.043 241 206.507 240.451C207.931 239.909 209.248 239.067 210.591 238.322C211.807 237.649 212.735 236.722 213.144 235.333C213.366 234.577 213.763 233.741 214.539 233.626C216.531 233.326 217.365 231.891 218.287 230.39C220.328 227.076 223.128 224.491 226.326 222.298C227.262 221.654 228.156 220.886 228.89 220.019C233.506 214.575 237.766 208.872 241.227 202.602C242.155 200.921 243 199.184 244.354 197.767C244.745 197.356 245.123 196.872 245.338 196.349C247.116 192.056 250.037 188.397 252.043 184.23C254.551 179.013 256.783 173.675 258.555 168.181C261.219 159.918 263.105 151.461 263.889 142.783C264.083 140.661 264.029 138.571 263.61 136.463C263.199 134.395 262.964 132.284 262.757 130.186C262.332 125.776 262.075 121.35 261.121 117.009C260.75 115.316 261.55 113.465 260.832 111.965C260.081 110.396 259.475 108.795 258.857 107.187C257.343 103.235 255.852 99.2696 254.208 95.3713C252.035 90.2259 249.591 85.1998 246.623 80.4548C244.479 77.0223 242.417 73.5419 240.237 70.1373C235.327 62.4638 229.545 55.5593 222.249 50.0016C215.801 45.0927 209.188 40.4347 202.107 36.4899C197.399 33.8651 192.61 31.3684 187.454 29.6965C186.72 29.4624 185.974 29.2577 185.26 28.9679C174.766 24.6803 163.762 23.1044 152.522 22.721C151.37 22.6841 150.205 22.6766 149.059 22.5476C146.153 22.2374 143.302 22.4572 140.443 23.0359C138.758 23.3808 137.019 23.5569 135.299 23.6487C134.161 23.7141 133.05 23.4913 132.016 22.7878C130.562 21.794 129.067 22.288 127.664 23.0833L127.789 23.1218C126.403 22.6286 125.237 23.1172 124.139 23.9286L123.914 23.8074L124.172 23.8062C124.343 24.1801 124.515 24.554 124.692 24.9247L124.681 24.8423C124.159 25.0772 123.653 25.3915 123.1 25.5336C117.334 27.0295 111.753 29.0619 106.2 31.1815C102.088 32.7502 97.9318 34.2039 94.1452 36.5157C92.8453 37.3106 91.4063 37.8901 90.0272 38.5607C89.1385 38.9925 88.9983 38.9035 88.035 37.3756C86.644 37.5136 85.5504 38.3076 84.4543 39.0587C83.8267 39.4949 83.2441 40.0087 82.7027 40.5429C81.2737 41.9591 79.1161 41.9855 77.6361 43.1725C76.1649 44.3618 74.9842 45.9008 73.5912 47.2002C73.0481 47.7059 72.2889 48.0038 71.6037 48.3403C69.8595 49.1847 68.4601 50.2809 67.2449 51.9137C66.0186 53.5528 64.1873 54.8096 62.4389 55.9669C60.6627 57.1401 59.0369 58.3818 57.7673 60.1124C57.473 60.5114 56.7934 60.6525 56.2728 60.8644C56.1246 60.9278 55.8909 60.8559 55.723 60.7828C55.3055 60.61 55.1134 60.2258 55.3843 59.9142C56.2617 58.9124 57.1749 57.9344 58.1409 57.022C58.9741 56.2379 59.9574 55.6111 60.7843 54.816C61.7494 53.8893 62.7357 52.9355 63.4929 51.8406C64.1263 50.9281 64.4539 49.793 64.9137 48.759C66.5867 48.6872 68.1075 48.2748 69.5886 46.4368C67.5387 47.1104 66.1911 47.9253 64.8934 48.852C66.0668 47.0955 67.1982 45.3043 68.4345 43.5928C68.8716 42.9931 69.5196 42.5156 70.1425 42.0968C70.6411 41.7572 71.3806 41.7071 71.714 42.2463C72.6494 43.7385 73.8149 43.7603 75.1178 42.9194C76.5616 41.9897 77.9542 40.9714 79.3969 39.9759C79.254 39.2676 79.253 38.6769 79.0262 38.1945C78.4188 36.912 78.9166 35.893 79.8277 35.1158C80.8423 34.2491 81.9876 33.5066 83.1364 32.8211C85.1245 31.6438 87.1128 30.4663 89.1817 29.4418C92.4506 27.8205 95.7179 26.2223 98.6747 24.0349C99.7318 23.2546 101.033 22.5255 102.301 22.3547C104.557 22.0502 106.146 20.7706 107.789 19.4821C107.817 19.0819 107.851 18.7071 107.869 18.3276C107.921 17.2406 108.284 16.6023 108.959 16.6564C111.689 16.8538 114.274 16.2112 116.905 15.5716C120.259 14.7509 123.696 14.2665 127.089 13.6156C128.408 13.3644 129.715 13.0679 130.751 12.8537C132.261 11.8341 130.76 10.4245 131.647 9.47674C131.674 9.44645 131.247 8.74674 130.984 8.71378C126.919 8.23812 122.936 8.99326 118.961 9.66189C114.8 10.3647 110.654 11.1842 106.496 11.9298C106.127 11.995 105.729 11.9071 105.346 11.8842L105.329 11.9827C108.863 10.0014 112.675 8.87227 116.657 8.24329C124.556 7.0007 132.472 5.94067 140.457 5.35816C141.565 5.2802 142.638 4.75697 143.725 4.43936L143.697 4.52999C142.25 4.26415 140.787 4.0595 139.355 3.70388C138.679 3.53225 138.07 3.0786 137.431 2.7528L137.407 2.87752C138.251 1.47344 139.277 0.54874 141.135 0.784176C143.813 1.12233 146.508 1.16982 149.173 0.473676C149.899 0.283892 150.707 0.275641 151.461 0.365163C157.003 1.03032 162.53 1.68199 167.877 3.48002C173.168 5.25846 178.606 6.58929 183.803 8.66583C185.945 9.52077 188.036 10.4935 190.127 11.4662C191.694 12.1951 193.233 12.9915 194.771 13.7881C196.133 14.4948 197.602 15.0805 198.805 16.0118C200.975 17.6851 203.442 18.7442 205.863 19.9178C207.248 20.5888 208.666 21.1889 209.994 21.9523C218.384 26.7819 225.98 32.6686 232.93 39.3939C234.869 41.2674 236.783 43.1623 238.698 45.0574C240.892 47.2196 243.051 49.4097 244.876 51.918C245.779 53.1627 246.836 54.2893 247.862 55.4406C254.402 62.787 260.336 70.5939 265.744 78.8082C266.482 79.9337 267.265 81.0337 268.064 82.124C269.661 84.3134 271.017 86.5976 271.862 89.2135C272.45 91.0248 273.377 92.7583 274.339 94.4123C278.133 100.92 281.221 107.754 283.818 114.812C284.959 117.915 285.675 121.101 285.407 124.425C285.224 126.719 285.763 129.061 284.995 131.315L285.086 131.343C284.403 130.903 283.72 130.462 283.028 130.019C283.146 127.919 283.181 125.829 282.288 123.847C282.089 123.4 281.836 123.258 281.521 123.543C281.404 123.648 281.344 123.889 281.36 124.058C281.544 126.168 282.117 128.173 283.13 130.042C282.797 130.234 282.483 130.496 282.128 130.598C281.496 130.77 280.781 130.415 280.694 129.97C280.354 128.281 280.086 126.574 279.662 124.905C279.489 124.236 279.244 123.439 278.244 123.27C278.202 123.849 278.101 124.417 278.134 124.974C278.365 128.817 278.605 132.662 278.887 136.504C278.955 137.455 279.085 138.422 279.338 139.333C280.384 143.104 280.613 146.918 280.045 150.785C279.881 151.922 279.584 153.084 280.103 154.188C280.222 154.445 280.668 154.579 280.994 154.694C281.079 154.726 281.36 154.483 281.391 154.332C281.595 153.393 281.8 152.455 281.918 151.507C282.079 150.173 282.141 148.822 282.278 147.486C282.353 146.77 282.963 146.086 283.244 146.33C283.51 146.56 283.843 146.856 283.893 147.16C284.222 149.253 284.629 151.339 284.465 153.473C284.34 155.075 284.805 156.521 285.634 157.868L285.67 157.751C285.66 157.912 285.573 158.132 285.645 158.231C285.832 158.478 286.086 158.664 286.32 158.876L286.228 158.87C286.507 159.123 286.858 159.334 287.043 159.641C287.498 160.405 287.505 161.288 286.956 161.694C286.564 161.987 285.96 162.106 285.455 162.102C284.904 162.095 284.357 161.864 283.804 161.725C283.532 161.306 283.252 160.884 282.975 160.467L283.107 160.287C283.107 160.287 283.068 160.502 283.071 160.508C283.33 160.891 283.579 161.271 283.829 161.652C283.908 162.596 284.188 163.58 284.018 164.476C283.58 166.725 282.955 168.933 282.345 171.14C282.274 171.388 281.818 171.533 281.537 171.725C281.417 171.402 281.2 171.077 281.206 170.755C281.218 169.995 281.388 169.239 281.414 168.478C281.444 167.507 280.926 167.134 279.473 166.997C279.285 166.98 279.092 167.003 278.897 167.012L279.016 167.039C279.275 165.567 279.539 164.091 279.766 162.615C279.786 162.471 279.626 162.245 279.482 162.137C279.121 161.857 278.699 161.894 278.473 162.283C278.096 162.937 277.806 163.636 277.482 164.318C277.322 164.655 277.186 165.007 276.983 165.309C276.912 165.416 276.648 165.458 276.508 165.42C276.356 165.375 276.147 165.193 276.148 165.066C276.147 164.321 276.158 163.56 276.243 162.824C276.374 161.669 276.37 160.548 275.861 159.475L275.979 159.282L275.966 159.503C275.596 160.589 275.037 161.644 274.888 162.756C274.335 166.815 272.665 170.514 271.369 174.337C270.752 176.148 269.937 177.898 269.203 179.674C268.985 180.206 268.841 180.813 268.485 181.233C266.205 183.939 265.263 187.351 263.559 190.352C261.847 193.365 260.138 196.369 258.705 199.532C257.434 202.335 255.985 205.048 254.136 207.542C253.587 208.281 253.383 209.271 253.022 210.144L253.07 210.035C252.296 210.615 251.785 211.368 251.567 212.321L251.615 212.198C249.769 214.66 247.802 217.038 246.121 219.604C244.513 222.055 242.677 224.276 240.407 226.066C235.687 229.782 231.844 234.365 227.845 238.765C225.241 241.628 222.477 244.303 219.555 246.781C216.477 249.386 213.153 251.719 209.817 253.992C205.68 256.809 201.549 259.652 197.117 261.997C196.439 262.359 195.827 262.86 195.118 263.144C188.457 265.814 182.482 269.686 176.583 273.69C176.109 274.008 175.627 274.389 175.091 274.536C170.601 275.783 166.808 278.609 162.391 280.058C160.594 280.645 159.005 281.873 157.326 282.805C155.393 281.697 155.384 281.695 153.756 283.484C153.595 283.422 153.44 283.32 153.273 283.312C153.163 283.302 153.042 283.424 152.931 283.488C153.213 283.451 153.491 283.408 153.773 283.371C155.092 283.799 156.199 283.145 157.35 282.695C160.245 282.679 162.979 281.603 165.869 281.449C166.938 281.394 168.084 280.754 168.997 280.109C171.566 278.286 174.391 277.239 177.444 276.563C179.116 276.196 180.757 275.544 182.298 274.795C184.722 273.617 187.162 272.415 189.389 270.922C193.743 267.994 198.453 265.911 203.413 264.289C203.708 264.518 203.639 264.757 203.273 265.109C201.714 266.593 199.342 266.735 197.898 268.382C197.722 268.587 197.8 269.03 197.814 269.362C197.813 269.399 198.152 269.499 198.29 269.456C198.832 269.269 199.373 269.067 199.888 268.807C200.748 268.377 201.576 267.877 202.439 267.452C203.478 266.949 204.5 266.337 205.603 266.047C209.436 265.031 212.579 262.795 215.507 260.314C217.752 258.405 220.253 257.079 222.783 255.855C223.378 255.977 223.448 256.225 223.091 256.63C222.369 257.454 221.056 257.842 221.169 259.292C221.218 259.928 220.819 260.44 220.245 260.572C216.013 261.537 212.584 264.108 208.915 266.189C206.403 267.61 203.976 269.181 201.445 270.569C199.746 271.505 198.122 272.48 196.807 273.941C195.092 275.847 192.814 276.919 190.515 277.929C190.202 278.065 189.694 278.07 189.421 277.903C188.415 277.301 187.554 277.562 186.792 278.252C185.058 279.83 183.085 280.984 180.912 281.84C180.206 282.114 179.513 282.514 178.922 282.988C176.929 284.605 174.682 285.54 172.16 286.035C169.53 286.549 167.079 287.757 164.317 287.874C163.241 287.918 162.138 288.592 161.151 289.162C159.264 290.259 157.306 290.835 155.108 290.803C153.968 290.789 152.794 290.957 151.692 291.261C146.781 292.611 141.766 292.284 136.771 292.234C135.879 292.224 135.496 291.625 135.04 290.964C134.701 290.466 133.851 290.454 133.495 290.874C132.221 292.392 130.603 292.558 128.798 292.44C123.597 292.11 118.438 291.571 113.381 290.249C112.824 290.104 112.265 289.903 111.698 289.831C105.896 289.086 100.601 286.712 95.1917 284.728C93.5704 284.135 92.0047 283.368 90.4691 282.577C87.7376 281.161 85.1391 279.477 82.108 278.707C81.5604 278.565 81.043 278.257 80.5472 277.974C73.5577 273.932 66.5368 269.938 60.0944 265.026C57.3392 262.929 54.5999 260.808 51.8234 258.738C49.344 256.889 47.0148 254.915 45.2639 252.305C44.5207 251.197 43.6211 250.113 42.5665 249.31C39.2865 246.829 37.2907 243.244 34.5619 240.297C33.8073 239.476 33.3972 238.331 32.8854 237.304C32.106 235.736 31.2951 234.216 29.709 233.3L29.8021 233.32C29.2827 233.073 28.7772 232.773 28.2382 232.582C26.667 232.011 25.5298 230.887 25.2411 229.324C24.7733 226.786 23.562 224.662 22.2411 222.528C20.3077 219.41 18.7926 216.094 17.741 212.57C17.0342 210.207 16.3156 207.836 14.8251 205.6C14.6155 206.12 14.4985 206.417 14.3728 206.711C14.1922 207.14 13.8212 207.266 13.5345 206.885C13.0881 206.278 12.7088 205.595 12.4032 204.899C12.0215 204.034 12.2197 203.276 12.8234 202.824C13.4382 202.366 14.32 202.485 14.8643 203.146C15.7152 204.185 16.5027 205.267 17.3725 206.287C17.675 206.645 18.0992 206.547 18.3643 206.187C18.4621 206.05 18.5922 205.827 18.5448 205.706C17.5207 203.024 16.594 200.293 15.4106 197.68C13.3414 193.11 11.6939 188.401 10.5529 183.531C9.36727 178.444 7.10393 173.743 5.57359 168.788C4.66904 165.852 3.58117 162.97 2.65679 160.038C2.2325 158.701 1.58622 157.581 0.409448 156.798L0.37338 156.914C0.583335 155.396 1.05046 153.863 0.960423 152.363C0.588402 145.831 1.9828 139.35 1.38456 132.823C1.28871 131.799 1.72331 130.964 2.46806 130.283L2.33697 130.248C2.67519 130.437 2.99528 130.659 3.35075 130.801C3.93845 131.038 4.57616 130.914 4.82459 130.371C5.2177 129.516 5.58587 128.579 5.65956 127.657C5.86281 125.168 5.90473 122.668 6.00713 120.17L5.96618 120.253C6.14553 119.706 6.33042 119.156 6.50977 118.609C6.59381 118.05 6.68129 117.497 6.76533 116.939C6.91462 116.417 7.06062 115.889 7.21546 115.363L7.31155 115.389C7.16226 115.911 7.01072 116.442 6.86462 116.97C6.78058 117.529 6.69657 118.087 6.61253 118.645C6.18147 118.82 5.7559 118.992 5.33037 119.164L5.46223 119.162C5.07979 119.383 4.70286 119.6 4.32043 119.821L4.33255 119.74C3.43377 121.486 3.70378 123.451 3.26344 125.286C3.14186 125.793 2.72707 126.239 2.40355 126.677C2.32939 126.779 2.058 126.795 1.89829 126.762C1.73538 126.723 1.51333 126.607 1.45956 126.476C1.3247 126.14 1.14908 125.746 1.20079 125.413C1.89208 120.927 2.66125 116.448 3.31204 111.956C3.55628 110.293 4.48117 109.219 5.77915 108.344L5.69637 108.304C6.07327 108.086 6.45018 107.868 6.82708 107.651L6.7713 107.772C6.92356 107.203 7.07262 106.63 7.23043 106.058L7.19531 106.189C7.34758 105.621 7.4997 105.053 7.65197 104.484L7.6223 104.612C7.77457 104.044 7.92706 103.476 8.08487 102.904L8.04952 103.036C8.20179 102.467 8.35404 101.899 8.50865 101.322L8.48147 101.441C9.4341 100.736 10.1063 99.801 10.5024 98.7077C12.0034 94.5747 14.3426 90.7928 15.4228 86.4814C15.89 84.6154 16.8454 82.9554 18.0524 81.4235C18.8757 80.3791 19.6216 79.2389 20.2331 78.0582C22.2455 74.1324 24.7172 70.5032 27.278 66.9259C28.1932 65.6438 28.7706 64.2758 29.0313 62.7433L29.0078 62.8307C29.9295 62.136 30.9941 61.5731 31.7405 60.7283C35.4513 56.5315 39.666 52.9009 43.9934 49.3753C46.5411 47.2984 49.2287 45.4511 52.1017 43.8736C54.9691 42.2994 57.8198 40.6832 60.7617 39.2507C63.8763 37.7333 67.1023 36.4472 70.6594 36.4258C70.7999 36.426 70.9991 36.6434 71.0514 36.798C71.0973 36.9415 71.0381 37.1974 70.9266 37.2987C70.0491 38.1084 68.9772 38.5425 67.822 38.6921C66.2543 38.8951 64.8958 39.5761 63.4952 40.2221C57.5299 42.9715 52.0396 46.5182 46.5814 50.1203C44.3612 51.5869 42.4243 53.3776 40.6203 55.4242C40.9231 55.5007 41.0892 55.5452 41.2553 55.5897C42.2934 55.8772 42.6797 56.4819 42.1852 57.0334C41.8037 57.4606 41.4629 57.9455 41.0255 58.3015C36.2102 62.2492 32.4188 67.0617 29.0276 72.2343C27.9686 73.8433 26.8179 75.3576 26.4934 77.3556C26.3821 78.0332 25.8201 78.7493 25.2657 79.2098C23.7337 80.4859 22.7958 82.1508 21.9771 83.8945C19.7618 88.5951 17.5729 93.3028 15.3957 98.0183C14.343 100.304 13.6437 102.703 13.3699 105.211L13.3135 105.177C14.2096 105.679 14.6851 106.388 14.4104 107.448C14.085 108.715 13.7268 109.963 12.7101 110.89C12.0144 111.529 11.4437 112.242 11.228 113.187L11.2515 113.1C9.7494 117.692 8.62696 122.352 8.79398 127.237C8.8372 128.387 8.7145 129.544 8.65772 130.7C8.62066 131.468 8.57821 132.239 8.5324 133.004C8.39663 135.137 9.88871 137.069 9.32845 139.248C8.83994 141.141 9.07427 143.082 8.88747 144.986C8.55636 148.355 9.27909 151.514 10.4525 154.583C11.4935 157.308 12.2125 160.063 12.439 162.977C12.5418 164.307 12.7796 165.692 13.2892 166.92C14.9373 170.876 15.3776 175.107 16.3326 179.219C16.5924 180.348 16.8492 181.47 17.0607 182.605C17.264 183.699 18.166 184.634 17.8182 185.862C16.4035 185.844 16.1968 185.985 16.4875 186.719C16.9812 187.971 17.5623 189.195 17.9347 190.48C18.5433 192.546 19.406 194.449 20.7899 196.104C21.6734 197.16 22.266 198.341 22.4159 199.739C22.5029 200.569 22.9749 201.168 23.7675 201.427C24.762 201.755 25.3645 202.478 25.7986 203.359C26.6478 205.085 27.5898 206.781 28.2654 208.578C29.2246 211.135 30.6316 213.368 32.1769 215.609C34.1392 218.445 36.0146 221.412 37.3821 224.561C39.5043 229.44 42.8439 233.343 46.4297 237.096C47.063 237.757 48.0756 238.052 48.912 238.515L48.8159 238.489C49.6311 239.556 50.2875 240.795 51.2797 241.656C56.4891 246.186 61.7957 250.616 67.0509 255.098C68.2207 256.1 69.3911 257.065 70.867 257.624C71.5683 257.892 72.2774 258.288 72.8321 258.788C75.2854 261.015 78.2596 262.365 81.1353 263.889C84.3571 265.591 87.52 267.409 90.7056 269.176L90.5457 269.091ZM141.079 289.251L141.061 289.336C140.726 289.344 140.396 289.335 140.063 289.373C139.556 289.429 139.434 289.64 139.746 289.873C139.824 289.932 140.061 289.817 140.208 289.739C140.509 289.595 140.791 289.418 141.079 289.251ZM138.3 8.77639C138.559 9.22534 138.821 9.66549 139.08 10.1144C138.007 10.6749 136.928 11.2386 135.855 11.7991L135.881 11.703C136.576 11.8705 137.26 12.1334 137.965 12.1771C138.541 12.2142 138.924 11.764 138.985 11.1667C139.021 10.8062 138.988 10.4411 138.969 10.0753C138.744 9.67301 138.51 9.26843 138.285 8.86617C137.72 8.75676 137.159 8.62987 136.588 8.53794C136.409 8.50857 136.193 8.50723 136.034 8.57701C135.911 8.63312 135.842 8.8207 135.756 8.95207C136.062 9.08565 136.394 9.36676 136.669 9.3187C137.232 9.23047 137.758 8.96377 138.3 8.77639ZM88.4598 32.4672C86.6029 33.6797 85.1395 34.6133 83.7038 35.5826C83.2297 35.9006 82.9419 36.3625 82.963 37.0006C82.9783 37.5904 83.9711 37.697 84.9338 37.1117C87.4047 35.6186 89.8651 34.0946 92.3008 32.5406C92.7702 32.24 93.1403 31.7676 93.5251 31.346C93.6246 31.2368 93.6672 30.9905 93.6181 30.8415C93.4892 30.4134 93.1271 30.2086 92.7033 30.4089C91.1355 31.1367 89.5822 31.9152 88.4598 32.4672ZM11.7692 179.289C11.6156 179.215 11.4467 179.076 11.3015 179.094C11.1849 179.109 10.9733 179.357 10.9942 179.419C11.1282 179.741 11.3076 180.051 11.5279 180.33C11.5806 180.396 11.819 180.31 11.9784 180.292C11.9127 179.96 11.8437 179.623 11.7692 179.289ZM14.7988 180.082L14.4912 179.78L14.4539 180.163L14.7988 180.082Z" fill="#FFF94F"/>
<path d="M196.757 170.457C197.711 169.869 198.662 169.276 199.621 168.685L199.522 168.654C199.31 169.567 199.081 170.475 198.895 171.395C198.867 171.537 199.026 171.763 199.164 171.861C199.299 171.953 199.566 172.02 199.694 171.946C201.378 170.959 201.916 168.831 203.682 167.922C203.818 167.851 204.065 167.908 204.218 167.982C204.355 168.051 204.533 168.244 204.526 168.373C204.497 168.937 204.51 169.536 204.32 170.052C203.862 171.306 203.293 172.522 202.767 173.749C201.172 174.212 199.582 174.671 197.996 175.136C197.906 174.981 197.838 174.799 197.705 174.684C197.611 174.598 197.438 174.594 197.295 174.551C197.537 174.714 197.779 174.877 198.025 175.046C198.081 175.22 198.104 175.414 198.199 175.566C198.771 176.492 199.255 176.678 199.91 176.3C201.035 175.651 202.108 174.95 202.682 173.717C205.834 171.624 208.384 169.014 209.863 165.47L209.812 165.587C211.524 164.289 212.611 162.486 213.794 160.746C214.539 159.643 215.344 158.58 216.149 157.517C216.237 157.4 216.611 157.331 216.637 157.376C216.821 157.669 217.079 158 217.063 158.305C217.039 158.865 217.023 159.606 216.676 159.94C215.248 161.319 214.682 163.167 213.74 164.812C213.361 165.475 213.012 166.201 212.466 166.701C210.476 168.529 208.923 170.638 207.605 173.003C206.782 174.483 205.329 175.551 203.665 176.201C202.194 176.777 201.055 177.76 200.26 179.135L200.275 179.046C199.942 179.519 199.6 179.989 199.285 180.467C197.862 182.648 196.014 184.21 193.342 184.637C192.745 184.73 192.597 185.267 193.058 185.873C193.316 186.219 193.642 186.489 193.388 186.842C192.027 188.722 190.614 190.55 188.424 191.556C185.94 192.694 183.876 194.418 181.826 196.193C180.082 197.702 178.242 199.112 176.443 200.564C175.841 201.045 175.265 201.57 174.616 201.982C166.608 207.004 158.505 211.837 149.324 214.507C146.362 215.368 143.449 216.377 140.505 217.308C139.588 217.601 138.68 217.985 137.732 218.096C135.801 218.324 133.973 218.832 132.174 219.568C130.92 220.085 129.515 220.364 128.211 219.898C125.349 218.882 122.449 219.197 119.641 219.761C115.269 220.637 110.835 220.611 106.436 221.119C104.938 221.289 103.336 221.127 101.857 220.792C99.0428 220.155 96.273 219.389 93.555 218.342C90.9221 217.327 88.7334 216.019 87.5332 213.365C87.3047 212.854 86.9171 212.324 86.4633 212.024C84.7899 210.943 84.7539 209.102 84.2045 207.497L84.3429 206.981C85.3975 206.35 86.5219 206.595 87.6494 206.654C89.6257 206.762 91.3413 206.252 92.679 204.652C93.7063 203.423 95.1675 203.074 96.722 202.938C98.6249 202.778 100.484 202.887 102.285 203.562L102.189 203.536C102.384 203.209 102.644 202.904 102.757 202.55C103.022 201.754 103.519 201.246 104.322 201.048C104.698 200.957 105.074 200.865 105.456 200.837C113.757 200.264 121.685 197.919 129.647 195.761C132.265 195.047 134.699 193.938 137.098 192.693C141.709 190.297 146.24 187.777 150.392 184.626C151.146 184.05 151.99 183.555 152.865 183.176C153.95 182.712 154.907 182.13 155.694 181.254C157.256 179.517 159.094 178.271 161.262 177.278C163.676 176.173 165.867 174.553 168.058 173.022C171.049 170.933 173.949 168.712 176.9 166.565C178.773 165.202 180.492 163.686 181.896 161.818C183.049 160.281 184.46 159 185.887 157.696C188.708 155.107 191.355 152.307 193.211 148.878C193.395 148.543 193.509 148.152 193.734 147.852C197.022 143.537 199.171 138.579 201.555 133.774C203.772 129.308 205.541 124.614 207.49 120.016C207.867 119.133 208.194 118.227 208.492 117.309C209.071 115.548 210.292 114.4 211.898 113.584C212.274 113.352 212.645 113.123 213.015 112.894C213.015 112.894 213.109 112.929 213.106 112.923C212.691 113.178 212.285 113.434 211.873 113.694C211.79 112.552 211.621 111.401 211.65 110.261C211.69 108.73 211.867 107.194 212.025 105.662C212.268 103.268 211.887 101.071 210.184 99.2239C209.096 98.0419 208.853 96.4822 208.434 95.0393C208.967 93.3127 209.938 91.9098 211.039 90.5792C212.062 89.3307 213.205 88.4422 214.982 88.7311C216.473 88.9714 217.866 88.0935 219.503 88.5744C222.642 89.5043 224.313 91.5545 225.047 94.567C225.229 95.3045 225.162 96.0969 225.302 96.8513C225.475 97.8301 225.984 98.6598 226.812 99.2237C228.719 100.517 230.639 101.781 232.569 103.039C233.047 103.354 233.639 103.522 234.06 103.892C235.329 105.015 236.386 106.488 235.412 108.462C234.369 110.572 234.012 112.847 233.589 115.109C233.342 116.434 233.152 117.77 232.832 119.071C232.706 119.595 232.3 120.058 232.02 120.545L232.148 120.575C231.899 119.861 231.649 119.148 231.394 118.438C230.957 117.22 230.604 116.773 229.339 117.001C227.379 117.357 225.626 116.344 223.717 116.456C223.294 116.478 222.834 115.82 222.391 115.477L222.47 115.498C221.513 117.617 221.111 119.889 220.777 122.166C220.28 125.594 219.43 128.908 218.13 132.134C217.418 133.897 217.051 135.809 216.531 137.646L216.555 137.522C215.215 138.465 214.762 139.843 214.642 141.39L214.681 141.264C213.66 142.363 213.053 143.667 212.782 145.131L212.835 145.005C211.77 146.219 211.122 147.427 212.05 149.124C212.639 150.195 212.122 151.373 211.458 152.348C211.281 152.605 210.795 152.863 210.536 152.799C210.294 152.739 210.128 152.258 209.974 151.941C209.895 151.779 209.96 151.52 209.858 151.394C209.647 151.132 209.357 150.745 209.105 150.743C208.795 150.744 208.313 151.022 208.206 151.298C207.053 154.203 205.119 156.524 202.881 158.637C202.33 159.155 201.742 159.723 201.423 160.388C199.629 164.077 196.826 166.929 193.957 169.753C193.567 170.141 193.373 170.726 193.09 171.222L193.131 171.102C192.45 171.458 191.71 171.738 191.098 172.187C186.608 175.496 182.035 178.698 177.719 182.217C175.627 183.92 173.822 185.886 171.113 186.66C170.408 186.86 169.794 187.435 169.173 187.883C165.262 190.695 161.093 193.087 156.869 195.385C155.02 196.394 153.255 197.561 151.47 198.68C151.352 198.756 151.288 199.044 151.319 199.211C151.398 199.668 151.738 199.885 152.111 199.662C155.087 197.841 158.304 196.589 161.629 195.616C163.714 195.003 165.539 194.068 166.873 192.27C167.571 191.328 168.612 190.764 169.725 190.387C173.977 188.945 177.667 186.556 181.163 183.805C182.524 182.732 183.863 181.582 185.367 180.758C190.955 177.687 191.11 175.831 196.769 170.362C196.758 170.368 196.757 170.457 196.757 170.457ZM191.957 178.424C192.253 178.194 192.558 177.981 192.835 177.732C192.934 177.645 192.952 177.472 193.001 177.34C192.35 177.428 192.292 178.045 192.007 178.446C192.005 178.455 191.957 178.424 191.957 178.424ZM187.102 184.005C187.266 183.97 187.43 183.934 187.591 183.893C187.418 183.963 187.244 184.034 187.079 184.107C185.958 183.919 184.932 184.113 184.057 184.876C183.948 184.969 183.887 185.182 183.902 185.336C183.906 185.407 184.176 185.554 184.248 185.513C185.208 185.025 186.146 184.513 187.102 184.005ZM144.836 202.318C144.504 202.281 144.143 202.142 143.868 202.241C143.579 202.342 143.375 202.681 143.131 202.911C143.437 202.941 143.786 203.072 144.041 202.977C144.341 202.87 144.572 202.552 144.836 202.318ZM213.008 137.471C212.898 137.371 212.789 137.272 212.68 137.172C212.587 137.292 212.419 137.411 212.415 137.532C212.409 137.624 212.61 137.73 212.72 137.829C212.813 137.709 212.909 137.594 213.008 137.471Z" fill="#FFF94F"/>
<path d="M85.1122 150.624C84.2442 152.692 82.4345 153.64 80.5087 154.375C80.0657 154.542 79.4428 154.244 78.9074 154.162C78.9237 154.241 79.0821 153.773 79.0038 154.187C78.2411 154.236 77.4426 154.453 76.7275 154.29C75.4195 153.995 74.1339 153.548 72.8822 153.044C69.4061 151.644 67.3685 148.985 66.4183 145.432C66.1705 144.503 66.1033 143.53 65.819 142.615C65.3503 141.112 64.6088 139.84 63.0276 139.15C61.3375 138.411 60.3611 137.002 59.9601 135.193C59.6351 133.696 59.2902 132.203 58.9825 130.851C59.9193 128.736 60.8253 126.823 61.608 124.864C62.5477 122.511 63.1288 121.968 65.2216 122.009C67.7192 122.06 70.2211 122.182 72.7228 122.253C74.5671 122.311 76.0905 122.991 77.2148 124.478C77.4456 124.788 77.6897 125.083 77.9094 125.399C78.781 126.64 80.0256 126.978 81.4556 126.87C82.2206 126.812 82.9919 126.714 83.7603 126.714C84.9558 126.711 85.7947 127.409 86.2759 128.691C87.2945 131.376 87.8378 134.263 89.6202 136.633C89.835 136.916 89.9053 137.37 89.9045 137.74C89.8393 141.621 89.5546 145.48 87.2244 148.791C86.6935 149.548 85.8123 150.057 85.0927 150.679C85.088 150.697 85.1122 150.624 85.1122 150.624Z" fill="#FFF94F"/>
<path d="M149.49 74.7757C149.507 74.0119 149.524 73.2482 149.533 72.4821C149.564 70.6165 149.791 70.3305 151.748 69.7399C152.477 69.5184 153.293 69.4464 153.918 69.0563C154.711 68.5613 155.398 67.8693 156.038 67.1742C156.658 66.5062 156.439 65.6792 155.597 65.3226C155.088 65.1065 154.62 64.8077 154.208 64.5801C154.246 62.4445 155.239 60.785 156.036 59.054C156.578 57.8688 157.571 57.3105 158.742 57.1886C160.452 57.0142 162.18 56.9993 163.904 56.9647C164.629 56.9527 165.945 57.9518 166.06 58.6761C166.334 60.38 166.674 62.0312 167.378 63.6348C167.617 64.1767 167.063 65.0731 166.867 65.8074C166.551 67.002 166.629 67.9692 167.765 68.8358C168.547 69.434 167.559 70.1815 167.394 70.8681C167.252 71.4673 167.782 72.0779 168.381 71.9386C169.122 71.7623 169.891 71.6215 170.566 71.3057C171.229 70.9963 171.789 70.481 172.348 70.092C173.569 70.9018 173.928 72.4315 175.425 72.6828C176.286 72.829 176.685 73.5076 176.729 74.3394C176.965 78.4226 176.068 82.3473 174.957 86.2332C174.457 87.9922 173.319 89.3221 171.617 89.9719C170 90.588 168.425 91.253 166.92 92.1147C165.72 92.8003 164.231 92.3077 163.377 91.0859C162.832 90.3072 162.38 89.4597 161.93 88.6178C161.753 88.2844 161.686 87.887 161.603 87.5135C161.404 86.5793 161.23 85.6378 160.962 84.2919C160.158 83.4484 159.118 82.3267 158.05 81.2439C157.647 80.8408 157.208 80.3109 156.708 80.2004C153.629 79.5393 152.081 76.9083 149.926 75.0707C149.781 74.9475 149.644 74.8124 149.501 74.6804L149.49 74.7757Z" fill="#FFF94F"/>
<path d="M278.882 166.998C279.007 167.355 279.226 167.709 279.236 168.072C279.313 171.176 278.569 174.111 277.157 176.862C276.911 177.344 276.389 177.683 275.995 178.088L275.749 178.045L276.004 178.104C276.077 178.461 276.261 178.843 276.201 179.173C275.76 181.379 275.011 183.437 273.261 184.987L273.381 185.029C273.327 182.939 273.336 180.842 273.188 178.755C273.038 176.588 273.493 174.573 274.413 172.646C274.655 172.144 274.959 171.443 275.398 171.293C277.493 170.571 277.853 168.479 278.998 167.02C278.996 167.029 278.882 166.998 278.882 166.998Z" fill="#FFF94F"/>
<path d="M239.517 242.048C240.03 240.133 241.404 238.711 242.585 237.276C244.515 234.935 246.773 232.87 248.908 230.691C249.016 230.585 249.264 230.515 249.402 230.561C249.759 230.68 249.851 231.019 249.615 231.429C247.607 234.953 244.621 237.652 241.869 240.542C241.241 241.207 240.251 241.528 239.425 242.004L239.517 242.048Z" fill="#FFF94F"/>
<path d="M209.874 165.463C209.171 165.654 208.47 165.911 207.755 165.992C207.562 166.015 207.265 165.528 207.093 165.229C207.019 165.101 207.078 164.831 207.169 164.682C208.832 161.956 210.486 159.227 212.197 156.532C212.482 156.08 213.035 155.797 213.461 155.433L213.341 155.391C213.617 156.126 213.52 156.854 213.179 157.517C212.515 158.824 211.783 160.104 211.093 161.404C210.397 162.708 209.765 164.033 209.826 165.572C209.824 165.581 209.874 165.463 209.874 165.463Z" fill="#FFF94F"/>
<path d="M253.007 210.13C253.77 209.941 254.491 209.909 254.946 210.711C255.221 211.187 255.616 211.654 255.722 212.17C255.937 213.235 256.003 214.335 256.123 215.374C254.879 216.24 253.662 216.411 252.368 215.783L252.338 215.897C252.345 215.73 252.416 215.519 252.344 215.42C252.166 215.176 251.911 214.99 251.692 214.777L251.805 214.793C251.738 213.923 251.662 213.05 251.596 212.179L251.549 212.302C252.323 211.723 252.989 211.072 253.052 210.016L253.007 210.13Z" fill="#FFF94F"/>
<path d="M216.52 137.653C217.476 136.288 218.435 134.928 219.389 133.572C219.841 133.6 220.048 133.857 219.939 134.334C219.202 137.486 218.058 140.393 215.207 142.29L215.293 142.337C215.088 141.982 214.878 141.631 214.673 141.276L214.635 141.402C215.945 140.445 216.673 139.198 216.547 137.533L216.52 137.653Z" fill="#FFF94F"/>
<path d="M199.621 168.685C200.331 167.366 201.004 166.024 201.753 164.735C202.519 163.413 203.613 162.389 204.957 161.644L204.863 161.609C204.164 164.777 202.426 167.155 199.531 168.656C199.528 168.65 199.621 168.685 199.621 168.685Z" fill="#FFF94F"/>
<path d="M261.982 214.194C261.881 217.193 260.157 219.135 257.767 220.64L257.823 220.66C258.578 219.152 259.247 217.598 260.128 216.166C260.598 215.407 261.429 214.875 262.102 214.235L261.982 214.194Z" fill="#FFF94F"/>
<path d="M286.813 157.261C286.665 155.595 286.355 153.919 287.119 152.311C287.195 152.148 287.34 151.939 287.482 151.916C287.916 151.836 288.143 152.089 288.177 152.557C288.302 154.31 287.863 155.879 286.711 157.224L286.813 157.261Z" fill="#FFF94F"/>
<path d="M239.423 242.013C237.55 245.348 237.407 245.497 234.742 246.629C235.708 244.269 237.385 242.924 239.517 242.048L239.423 242.013Z" fill="#FFF94F"/>
<path d="M262.102 214.235C262.357 212.514 263.177 211.08 264.307 209.799C264.367 209.735 264.665 209.792 264.786 209.885C264.906 209.978 265.017 210.209 264.991 210.343C264.624 212.114 263.569 213.359 261.988 214.19C261.982 214.194 262.102 214.235 262.102 214.235Z" fill="#FFF94F"/>
<path d="M208.871 156.775C208.044 158.812 206.939 160.61 204.863 161.609L204.957 161.644C205.606 159.466 206.653 157.619 208.952 156.802L208.871 156.775Z" fill="#FFF94F"/>
<path d="M270.145 200.25C269.839 198.824 270.383 197.704 271.426 196.784C271.529 196.695 271.783 196.674 271.916 196.738C272.037 196.794 272.188 197.017 272.161 197.136C271.866 198.444 271.325 199.592 270.029 200.214L270.145 200.25Z" fill="#FFF94F"/>
<path d="M242.991 229.814C243.154 229.66 243.355 229.508 243.488 229.534C243.9 229.607 244.028 229.932 243.767 230.312C243.58 230.59 243.307 230.873 243.005 231.003C242.538 231.191 242.509 230.27 242.991 229.814Z" fill="#FFF94F"/>
<path d="M219.002 253.389C219.395 253.251 219.661 253.378 219.711 253.785C219.725 253.925 219.622 254.103 219.528 254.223C219.251 254.561 218.879 254.584 218.736 254.208C218.652 253.998 218.901 253.662 219.002 253.389Z" fill="#FFF94F"/>
<path d="M208.891 261.54C208.607 261.726 208.315 262.079 208.048 262.064C207.605 262.039 207.411 261.574 207.712 261.252C207.898 261.049 208.364 261.076 208.701 261.058C208.759 261.055 208.829 261.369 208.891 261.54Z" fill="#FFF94F"/>
<path d="M229.242 251.63C229.014 251.607 228.754 251.58 228.495 251.552C228.736 251.331 228.946 251.04 229.233 250.911C229.437 250.816 229.742 250.935 230.004 250.954C229.906 251.092 229.829 251.24 229.707 251.347C229.582 251.464 229.414 251.531 229.242 251.63Z" fill="#FFF94F"/>
<path d="M238.759 236.78C238.58 236.802 238.389 236.868 238.22 236.832C237.735 236.735 237.79 236.009 238.314 235.433C238.624 235.099 238.978 235.035 239.292 235.334C239.401 235.434 239.439 235.73 239.369 235.866C239.214 236.185 238.973 236.472 238.759 236.78Z" fill="#FFF94F"/>
<path d="M130.604 2.66663C130.068 2.86509 129.543 3.09431 128.994 3.25632C128.847 3.29666 128.606 3.19931 128.479 3.08081C128.357 2.97338 128.224 2.66608 128.268 2.62619C128.506 2.38539 128.849 1.99478 129.061 2.04226C129.591 2.16532 130.072 2.50065 130.572 2.75165C130.581 2.754 130.604 2.66663 130.604 2.66663Z" fill="#FFF94F"/>
<path d="M0.408216 156.783C-0.113933 156.826 -0.653927 156.953 -1.16077 156.869C-1.3983 156.829 -1.60403 156.408 -1.75294 156.125C-1.805 156.022 -1.6645 155.689 -1.57645 155.675C-1.26709 155.622 -0.841836 155.539 -0.64904 155.694C-0.248304 156.017 0.0379636 156.487 0.372419 156.9C0.369218 156.895 0.408216 156.783 0.408216 156.783Z" fill="#FFF94F"/>
<path d="M277.1 186.554C277.01 186.821 276.927 187.164 276.777 187.48C276.713 187.613 276.405 187.783 276.387 187.764C276.17 187.542 275.839 187.289 275.836 187.04C275.817 186.393 276.406 185.839 276.766 186.067C276.886 186.146 276.949 186.331 277.1 186.554Z" fill="#FFF94F"/>
<path d="M215.204 256.897C214.906 256.995 214.6 257.091 214.293 257.187C214.373 257.045 214.423 256.875 214.535 256.774C214.657 256.666 214.836 256.593 215.001 256.571C215.064 256.565 215.137 256.781 215.204 256.897Z" fill="#FFF94F"/>
<path d="M226.634 247.919C226.516 248.201 226.401 248.489 226.263 248.761C226.255 248.773 226.013 248.662 225.872 248.61C225.99 248.328 226.099 248.043 226.237 247.771C226.248 247.75 226.498 247.864 226.634 247.919Z" fill="#FFF94F"/>
<path d="M261.045 208.039C260.817 208.54 260.607 209.061 260.35 209.549C260.273 209.697 260.04 209.883 259.916 209.859C259.484 209.79 259.425 209.47 259.816 209.111C260.226 208.734 260.692 208.413 261.135 208.068C261.141 208.065 261.045 208.039 261.045 208.039Z" fill="#FFF94F"/>
<path d="M270.025 200.209C269.965 200.731 269.967 201.285 269.816 201.778C269.745 202.026 269.379 202.186 269.152 202.383C269.125 202.066 268.967 201.677 269.102 201.451C269.368 201.002 269.788 200.642 270.148 200.242C270.146 200.25 270.025 200.209 270.025 200.209Z" fill="#FFF94F"/>
<path d="M155.454 84.095C155.456 84.264 155.489 84.5775 155.449 84.5856C155.115 84.6601 154.772 84.7181 154.44 84.695C154.334 84.6899 154.15 84.3969 154.168 84.261C154.24 83.8352 154.562 83.6639 155 83.7953C155.17 83.8453 155.304 83.9892 155.454 84.095Z" fill="#FFF94F"/>
<path d="M262.788 205.888C262.828 205.355 262.815 204.808 262.933 204.296C263.047 203.802 263.393 203.698 263.682 204.019C263.768 204.117 263.752 204.407 263.665 204.539C263.368 204.998 263.021 205.42 262.692 205.862C262.695 205.867 262.788 205.888 262.788 205.888Z" fill="#FFF94F"/>
<path d="M278.355 182.098C278.446 181.565 278.464 181.007 278.649 180.509C278.728 180.286 279.138 180.19 279.4 180.031C279.478 180.178 279.604 180.32 279.614 180.477C279.626 180.639 279.58 180.866 279.466 180.976C279.082 181.36 278.67 181.709 278.264 182.069L278.355 182.098Z" fill="#FFF94F"/>
<path d="M20.2606 73.1132C20.185 73.4303 20.2036 73.885 20.0058 74.0288C19.6703 74.2669 19.2572 74.0251 19.2862 73.6019C19.304 73.3255 19.6531 73.0723 19.8519 72.8023C19.9873 72.9088 20.1228 73.0154 20.2606 73.1132Z" fill="#FFF94F"/>
<path d="M214.769 143.94C215.025 144.664 214.82 145.307 214.451 145.934C214.149 146.449 213.541 146.496 213.2 145.984C213.014 145.699 212.947 145.339 212.824 145.011L212.771 145.138C213.464 144.738 214.157 144.338 214.853 143.943L214.769 143.94Z" fill="#FFF94F"/>
<path d="M228.174 125.492C228.661 126.054 228.917 126.689 228.741 127.434C228.704 127.588 228.568 127.763 228.423 127.832C228.019 128.028 227.729 127.87 227.655 127.41C227.534 126.675 227.616 125.999 228.282 125.526L228.174 125.492Z" fill="#FFF94F"/>
<path d="M232.009 120.551C232.141 121.074 232.287 121.595 232.379 122.126C232.405 122.274 232.288 122.533 232.163 122.598C231.766 122.805 231.483 122.584 231.59 122.079C231.695 121.568 231.952 121.079 232.137 120.581L232.009 120.551Z" fill="#FFF94F"/>
<path d="M105.315 11.8946C105.006 12.0881 104.72 12.349 104.382 12.4553C104.121 12.5398 103.793 12.4333 103.494 12.414C103.569 12.2747 103.607 12.0975 103.719 12.0105C103.854 11.9106 104.058 11.8295 104.219 11.8399C104.579 11.8613 104.936 11.9432 105.295 12.002C105.298 11.9932 105.315 11.8946 105.315 11.8946Z" fill="#FFF94F"/>
<path d="M193.068 171.234C194.225 170.64 195.436 170.281 196.757 170.457L196.752 170.371C195.593 170.885 194.434 171.399 193.109 171.114L193.068 171.234Z" fill="#FFF94F"/>
<path d="M224.716 128.834C224.805 129.307 225.171 129.776 224.776 130.27C224.697 130.145 224.531 130.012 224.548 129.899C224.601 129.543 224.721 129.201 224.812 128.86C224.809 128.854 224.716 128.834 224.716 128.834Z" fill="#FFF94F"/>
<path d="M226.13 124.064C225.704 122.329 225.704 122.329 227.453 121.94L227.477 121.853C226.992 122.576 226.506 123.307 226.022 124.03C226.025 124.036 226.13 124.064 226.13 124.064Z" fill="#FFF94F"/>
<path d="M29.6985 233.269C29.8768 233.565 30.0749 233.857 30.2366 234.162C30.3142 234.31 30.4297 234.561 30.3602 234.645C30.1132 234.973 29.888 234.852 29.8222 234.328C29.7786 233.984 29.8032 233.629 29.7882 233.283C29.7914 233.289 29.6985 233.269 29.6985 233.269Z" fill="#FFF94F"/>
<path d="M128.253 24.1548C127.127 24.7528 125.914 24.8916 124.67 24.8487L124.681 24.9312C125.714 24.3273 126.747 23.7234 127.775 23.1227L127.649 23.0842C127.845 23.4739 128.037 23.8581 128.232 24.2478L128.253 24.1548Z" fill="#FFF94F"/>
<path d="M137.403 2.7688C137.073 2.86314 136.738 2.96063 136.408 3.05497C136.405 2.90892 136.411 2.76528 136.408 2.61923C136.734 2.71145 137.056 2.80683 137.379 2.89352L137.403 2.7688Z" fill="#FFF94F"/>
<path d="M128.232 24.2478C128.511 24.2053 128.789 24.1628 129.068 24.1202C128.95 24.1732 128.839 24.2745 128.727 24.2726C128.563 24.271 128.41 24.1971 128.244 24.1525C128.252 24.1549 128.232 24.2478 128.232 24.2478Z" fill="#FFF94F"/>
<path d="M-2.8735 137.313C-2.87047 137.459 -2.87287 137.609 -2.86983 137.755C-2.86092 137.617 -2.8521 137.478 -2.84639 137.335C-2.83765 137.337 -2.8735 137.313 -2.8735 137.313Z" fill="#FFF94F"/>
<path d="M224.955 140.742C224.839 140.964 224.723 141.186 224.607 141.408C224.635 141.289 224.635 141.148 224.701 141.058C224.789 140.941 224.927 140.861 225.051 140.768C225.045 140.771 224.955 140.742 224.955 140.742Z" fill="#FFF94F"/>
<path d="M213.462 155.447C213.347 154.967 213.466 154.699 213.832 154.642C213.824 154.795 213.876 154.987 213.796 155.092C213.693 155.233 213.499 155.307 213.342 155.406C213.344 155.397 213.462 155.447 213.462 155.447Z" fill="#FFF94F"/>
<path d="M200.281 179.145C200.532 179.082 200.784 179.018 201.038 178.959C200.938 179.017 200.84 179.103 200.74 179.109C200.592 179.121 200.446 179.072 200.298 179.047C200.301 179.052 200.281 179.145 200.281 179.145Z" fill="#FFF94F"/>
<path d="M272.41 188.198C272.263 188.43 272.117 188.663 271.97 188.895C272.005 188.764 272.007 188.6 272.087 188.51C272.195 188.388 272.359 188.316 272.497 188.221C272.506 188.224 272.41 188.198 272.41 188.198Z" fill="#FFF94F"/>
<path d="M264.516 195.401C264.472 195.582 264.428 195.762 264.385 195.942C264.463 195.771 264.536 195.604 264.615 195.432L264.516 195.401Z" fill="#FFF94F"/>
<path d="M268.29 194.656C268.395 194.403 268.501 194.15 268.606 193.897C268.606 194.037 268.655 194.201 268.59 194.305C268.506 194.442 268.339 194.524 268.203 194.632C268.199 194.627 268.29 194.656 268.29 194.656Z" fill="#FFF94F"/>
<path d="M266.803 196.778C267.297 196.071 267.796 195.362 268.287 194.65C268.287 194.65 268.199 194.627 268.205 194.624C267.706 195.333 267.212 196.039 266.713 196.749C266.71 196.758 266.803 196.778 266.803 196.778Z" fill="#FFF94F"/>
<path d="M262.695 205.867C262.145 206.591 261.595 207.315 261.045 208.039L261.135 208.068C261.686 207.344 262.236 206.62 262.786 205.896C262.788 205.887 262.695 205.867 262.695 205.867Z" fill="#FFF94F"/>
<path d="M252.377 215.785C251.643 216.165 250.909 216.544 250.178 216.929L250.285 216.949C250.796 216.233 251.303 215.511 251.813 214.796L251.701 214.779C251.915 215.151 252.133 215.527 252.347 215.899L252.377 215.785Z" fill="#FFF94F"/>
<path d="M247.618 223.861C247.532 223.482 247.349 223.152 247.085 222.876L247.071 222.928C248.08 222.973 248.08 222.973 247.564 223.833L247.618 223.861Z" fill="#FFF94F"/>
<path d="M29.0088 62.7046L28.9853 62.792C28.9821 62.7865 29.0088 62.7046 29.0088 62.7046Z" fill="#FFF94F"/>
<path d="M130.581 2.75385C131.104 2.91743 131.633 3.07782 132.152 3.23586L132.178 3.13974C131.653 2.9849 131.124 2.82467 130.604 2.66663L130.581 2.75385Z" fill="#FFF94F"/>
<path d="M132.152 3.23586C132.152 3.23586 132.175 3.1342 132.178 3.13974L132.152 3.23586Z" fill="#FFF94F"/>
<path d="M8.68822 97.102C8.55961 97.6345 8.42782 98.1614 8.29921 98.6939L8.39236 98.714C8.52418 98.1871 8.65263 97.6546 8.7789 97.1309C8.78124 97.1222 8.68822 97.102 8.68822 97.102Z" fill="#FFF94F"/>
<path d="M7.85644 100.294C8.0343 99.7705 8.2145 99.2379 8.39236 98.714C8.39236 98.714 8.29935 98.6938 8.3049 98.6906C8.12148 99.2177 7.93239 99.7481 7.74898 100.275L7.85644 100.294Z" fill="#FFF94F"/>
<path d="M7.74898 100.275C7.98961 100.654 8.22708 101.026 8.47325 101.402L8.50043 101.282C8.13463 101.494 7.77131 101.696 7.4055 101.907L7.49991 101.904C7.61978 101.37 7.74518 100.832 7.86505 100.297C7.85631 100.295 7.74898 100.275 7.74898 100.275Z" fill="#FFF94F"/>
<path d="M7.07585 103.487C7.21641 102.962 7.35935 102.429 7.49671 101.899L7.4023 101.902C7.6135 102.267 7.82694 102.625 8.03814 102.99L8.07321 102.859C7.7074 103.07 7.34409 103.273 6.97828 103.484L7.07585 103.487Z" fill="#FFF94F"/>
<path d="M6.64863 105.064C6.78919 104.539 6.92989 104.014 7.07044 103.49L6.97259 103.487C7.18934 103.85 7.39734 104.21 7.61408 104.573L7.64375 104.445C7.28348 104.653 6.91449 104.858 6.55422 105.066L6.64863 105.064Z" fill="#FFF94F"/>
<path d="M6.22709 106.637C6.36765 106.113 6.50822 105.588 6.65111 105.055L6.55674 105.058C6.76794 105.423 6.98134 105.781 7.19254 106.146L7.22762 106.015C6.86181 106.227 6.4985 106.429 6.13268 106.64L6.22709 106.637Z" fill="#FFF94F"/>
<path d="M5.77093 108.305C5.92406 107.751 6.07714 107.197 6.23026 106.643L6.127 106.643C6.34374 107.006 6.55175 107.366 6.76849 107.729C6.76849 107.729 6.82427 107.608 6.82107 107.602C6.44417 107.82 6.06726 108.038 5.69036 108.255L5.77093 108.305Z" fill="#FFF94F"/>
<path d="M-0.703731 113.27C-0.532263 112.735 -0.360694 112.2 -0.189228 111.665L-0.279903 111.636C-0.426 112.163 -0.574474 112.7 -0.726114 113.231L-0.703731 113.27Z" fill="#FFF94F"/>
<path d="M-0.726114 113.231L-0.737089 113.429L-0.698316 113.267L-0.726114 113.231Z" fill="#FFF94F"/>
<path d="M6.00855 120.147C5.44669 120.006 4.88719 119.856 4.32532 119.715L4.31293 119.796C4.69537 119.575 5.0723 119.357 5.45473 119.136L5.32288 119.139C5.53962 119.501 5.75082 119.867 5.96757 120.23L6.00855 120.147Z" fill="#FFF94F"/>
<path d="M2.46945 130.26L2.49484 129.92L2.34377 130.222L2.46945 130.26Z" fill="#FFF94F"/>
<path d="M-2.83751 137.337L-2.82405 137.13L-2.8735 137.313L-2.83751 137.337Z" fill="#FFF94F"/>
<path d="M149.521 74.6763L149.495 74.7725C149.49 74.7757 149.521 74.6763 149.521 74.6763Z" fill="#FFF94F"/>
<path d="M84.2221 207.502C84.0662 207.437 83.7946 207.401 83.7687 207.305C83.6582 206.896 83.8896 206.785 84.3605 206.986L84.2221 207.502Z" fill="#FFF94F"/>
<path d="M225.687 125.613C225.53 125.009 225.63 124.478 226.13 124.064L226.025 124.036C226.231 124.648 226.101 125.167 225.608 125.592L225.687 125.613Z" fill="#FFF94F"/>
<path d="M225.608 125.592C225.458 126.114 225.315 126.633 225.169 127.161L225.259 127.19C225.409 126.668 225.549 126.143 225.698 125.621C225.686 125.613 225.608 125.592 225.608 125.592Z" fill="#FFF94F"/>
<path d="M228.279 125.521L228.171 125.487C228.174 125.492 228.279 125.521 228.279 125.521Z" fill="#FFF94F"/>
<path d="M225.165 127.155C225.016 127.715 224.866 128.274 224.716 128.834L224.812 128.86C224.962 128.3 225.106 127.744 225.256 127.184L225.165 127.155Z" fill="#FFF94F"/>
<path d="M230.94 127.864C230.802 128.394 230.668 128.93 230.531 129.46L230.613 129.487C230.756 128.953 230.893 128.423 231.036 127.89C231.039 127.895 230.94 127.864 230.94 127.864Z" fill="#FFF94F"/>
<path d="M230.529 129.468L230.611 129.495C230.616 129.492 230.529 129.468 230.529 129.468Z" fill="#FFF94F"/>
<path d="M215.207 142.29C215.059 142.841 214.917 143.389 214.773 143.945L214.856 143.949C215.005 143.412 215.144 142.873 215.293 142.337L215.207 142.29Z" fill="#FFF94F"/>
<path d="M225.4 139.095C225.253 139.646 225.105 140.197 224.958 140.747L225.054 140.773C225.201 140.222 225.349 139.672 225.502 139.118C225.493 139.115 225.4 139.095 225.4 139.095Z" fill="#FFF94F"/>
<path d="M208.958 156.798C208.958 156.798 208.867 156.77 208.876 156.772C208.885 156.774 208.958 156.798 208.958 156.798Z" fill="#FFF94F"/>
<path d="M285.614 157.872C286.015 157.67 286.413 157.463 286.813 157.261C286.813 157.261 286.711 157.224 286.716 157.221C286.551 157.767 286.381 158.316 286.219 158.868L286.311 158.874C286.093 158.497 285.879 158.125 285.661 157.749L285.614 157.872Z" fill="#FFF94F"/>
<path d="M272.275 185.66C272.641 185.448 273.009 185.243 273.37 185.035L273.25 184.993C273.109 185.518 272.971 186.034 272.83 186.558L272.921 186.587C272.719 186.238 272.509 185.886 272.308 185.537L272.275 185.66Z" fill="#FFF94F"/>
<path d="M278.264 182.069L278.351 182.092C278.355 182.098 278.264 182.069 278.264 182.069Z" fill="#FFF94F"/>
<path d="M272.836 186.555C272.694 187.103 272.552 187.65 272.41 188.198L272.506 188.224C272.648 187.676 272.787 187.123 272.929 186.575L272.836 186.555Z" fill="#FFF94F"/>
<path d="M264.615 195.432L264.519 195.407C264.516 195.401 264.615 195.432 264.615 195.432Z" fill="#FFF94F"/>
<path d="M266.369 198.381C266.512 197.848 266.66 197.311 266.806 196.783L266.716 196.754C266.573 197.288 266.43 197.821 266.287 198.354L266.369 198.381Z" fill="#FFF94F"/>
<path d="M250.871 217.963C250.673 217.774 250.442 217.605 250.28 217.388C250.211 217.294 250.274 217.096 250.277 216.946L250.169 216.927C250.393 217.301 250.619 217.68 250.842 218.054L250.871 217.963Z" fill="#FFF94F"/>
<path d="M247.564 223.833L247.621 223.867C247.618 223.861 247.564 223.833 247.564 223.833Z" fill="#FFF94F"/>
<path d="M186.317 178.576C186.331 178.715 186.229 178.959 186.119 179C185.831 179.115 185.509 179.146 185.2 179.213C185.174 179.066 185.082 178.83 185.135 178.793C185.398 178.596 185.695 178.432 186 178.308C186.064 178.278 186.308 178.47 186.317 178.576Z" fill="#FFF94F"/>
</svg>
