<svg width="147" height="141" viewBox="0 0 147 141" fill="none" xmlns="http://www.w3.org/2000/svg">
<path d="M19.0786 111.206C19.5418 111.726 20.0248 112.227 20.4616 112.767C21.1631 113.63 21.987 114.328 22.9797 114.832C23.787 115.241 24.4257 115.781 24.9716 116.552C25.5275 117.339 26.3218 118.018 27.1391 118.551C28.8829 119.695 30.6795 120.765 32.5061 121.773C34.5047 122.88 36.5264 123.947 38.6143 124.893C40.5302 125.762 42.5123 126.395 44.5473 126.882C46.0959 127.254 47.6544 127.584 49.2129 127.89C50.0898 128.065 50.9831 128.16 51.8699 128.282C52.2637 128.335 52.6708 128.325 53.0579 128.401C54.0308 128.585 54.9936 128.826 55.9697 128.994C56.9922 129.172 57.8889 128.463 58.8948 128.519C59.4805 128.552 60.0629 128.681 60.6486 128.763C61.0622 130.216 62.1078 129.386 62.8225 129.251C63.6994 129.086 64.51 128.687 65.4233 129.135C65.645 129.244 66.0156 129.158 66.2704 129.053C66.6509 128.895 67.0149 128.799 67.4219 128.855C67.7164 128.895 68.0275 128.984 68.3087 128.931C70.8599 128.437 73.474 128.638 76.0351 128.239C76.8359 128.114 77.6068 128.15 78.4042 128.282C79.1818 128.407 79.9893 128.371 80.7835 128.384C81.5015 128.398 82.1565 128.223 82.6992 127.709C82.9937 127.429 83.3875 127.159 83.7647 127.307C84.7342 127.686 85.4788 127.261 86.2795 126.83C88.0498 125.878 89.9722 125.446 91.9708 125.291C92.5565 125.245 93.1554 125.133 93.708 124.935C97.1824 123.697 100.564 122.251 103.734 120.347C104.585 119.836 105.412 119.279 106.385 118.996C106.666 118.914 106.96 118.795 107.192 118.617C109.098 117.161 111.351 116.282 113.327 114.941C115.798 113.261 118.178 111.456 120.391 109.463C123.72 106.465 126.751 103.181 129.345 99.5147C129.981 98.6187 130.497 97.6733 130.854 96.6258C131.205 95.598 131.645 94.5966 132.095 93.6084C133.045 91.5331 134.074 89.494 134.769 87.3133C135.04 86.4634 135.877 85.8442 135.943 84.991C136.013 84.0983 136.155 83.2286 136.294 82.3524C136.638 80.2013 136.995 78.0503 137.267 75.8893C137.624 73.0366 137.829 70.1674 137.727 67.2884C137.654 65.2065 137.631 63.1246 137.535 61.046C137.32 56.3618 136.516 51.7961 134.686 47.4413C133.068 43.5938 131.311 39.8155 129.16 36.2348C127.73 33.8531 126.231 31.5077 124.355 29.4357C124.087 29.1425 123.806 28.8592 123.561 28.5463C119.971 23.9345 115.451 20.3999 110.517 17.3364C110.011 17.0235 109.492 16.7204 109.012 16.3679C107.791 15.4818 106.457 14.8461 105.028 14.3684C104.184 14.0884 103.36 13.7194 102.566 13.3176C102.04 13.054 101.6 12.6686 101.319 12.0889C100.925 11.2719 100.127 11.1072 99.2936 11.1006L99.3398 11.1501C98.8468 10.5736 98.1983 10.4912 97.4968 10.5703L97.4273 10.4583L97.5432 10.5242C97.5233 10.735 97.5035 10.9458 97.4869 11.1566L97.5034 11.1171C97.2089 11.0875 96.9011 11.0973 96.6166 11.0183C93.6485 10.2013 90.6242 9.67101 87.5899 9.18677C85.3431 8.82771 83.1063 8.40604 80.8132 8.46204C80.0257 8.48181 79.2316 8.36982 78.4407 8.31382C77.9311 8.27759 77.8914 8.20181 77.855 7.27287C77.1966 6.9764 76.5016 7.04887 75.8167 7.10157C75.4229 7.13451 75.0292 7.21358 74.6487 7.3124C73.6428 7.57593 72.6699 7.03239 71.7004 7.18063C70.7342 7.33216 69.8076 7.71429 68.8481 7.93499C68.4742 8.02064 68.0572 7.95805 67.6634 7.9317C66.6641 7.85922 65.7542 7.98771 64.788 8.40277C63.8152 8.81783 62.6703 8.90676 61.5883 8.97265C60.4897 9.03853 59.4408 9.17358 58.4249 9.61828C58.19 9.7204 57.8492 9.60839 57.5614 9.56886C57.4786 9.55898 57.3925 9.46677 57.3363 9.39101C57.194 9.20654 57.2073 8.98581 57.4092 8.91663C58.061 8.69593 58.7227 8.49498 59.3911 8.33687C59.9669 8.20181 60.5692 8.17548 61.1449 8.03383C61.8167 7.86913 62.5048 7.69782 63.1269 7.40464C63.6464 7.16088 64.0865 6.73921 64.5597 6.39663C65.3274 6.79521 66.1149 7.00275 67.2532 6.56463C66.1613 6.33734 65.3472 6.3538 64.5266 6.43286C65.506 5.95192 66.4757 5.44463 67.4717 4.99992C67.8224 4.8451 68.236 4.799 68.6232 4.77265C68.9342 4.74959 69.2782 4.91757 69.2882 5.24369C69.3213 6.14957 69.8375 6.45924 70.6382 6.41971C71.525 6.37688 72.4118 6.28135 73.3151 6.20888C73.4342 5.85641 73.5865 5.59285 73.6096 5.31944C73.6692 4.59144 74.1555 4.26535 74.7644 4.15335C75.4427 4.02818 76.1475 3.99194 76.8391 3.98205C78.0336 3.96888 79.2282 3.95571 80.4194 4.03147C82.3022 4.15006 84.1783 4.27852 86.0677 4.06441C86.7428 3.98864 87.5138 3.9985 88.126 4.24886C89.2146 4.69356 90.2569 4.53216 91.3257 4.38063C91.4415 4.20933 91.5539 4.05122 91.6598 3.88651C91.9642 3.41545 92.2919 3.22442 92.5798 3.42207C93.7511 4.21266 95.0747 4.59148 96.4182 4.98348C98.1322 5.48089 99.7964 6.14957 101.484 6.73263C102.139 6.95993 102.801 7.16415 103.321 7.33544C104.26 7.26956 103.953 6.25497 104.594 6.06062C104.614 6.05403 104.604 5.63241 104.495 5.55006C102.798 4.2917 100.819 3.60324 98.8667 2.87853C96.8218 2.12089 94.7537 1.41922 92.6988 0.681342C92.5168 0.615459 92.3613 0.473825 92.1959 0.365119L92.1628 0.404647C94.2573 0.431 96.2559 0.90862 98.2015 1.65309C102.06 3.13215 105.878 4.69687 109.604 6.49217C110.12 6.74252 110.736 6.78532 111.305 6.92368L111.269 6.95665C110.69 6.46583 110.087 5.99806 109.538 5.471C109.28 5.22065 109.124 4.86158 108.922 4.55193L108.879 4.60135C109.621 4.19288 110.319 4.04463 111.09 4.62769C112.202 5.46769 113.396 6.18251 114.769 6.55803C115.143 6.66015 115.507 6.86439 115.822 7.09827C118.131 8.8211 120.438 10.5341 122.367 12.7115C124.276 14.8658 126.367 16.8587 128.157 19.1218C128.895 20.054 129.58 21.0258 130.265 21.9976C130.778 22.7256 131.261 23.4766 131.744 24.2277C132.171 24.8931 132.677 25.5322 132.975 26.2569C133.515 27.5613 134.345 28.6682 135.126 29.8145C135.573 30.4701 136.052 31.1025 136.45 31.7844C138.958 36.0964 140.837 40.6752 142.21 45.4616C142.594 46.7957 142.962 48.1331 143.329 49.4705C143.752 50.999 144.153 52.5307 144.322 54.1185C144.404 54.9058 144.586 55.6799 144.748 56.4573C145.777 61.415 146.416 66.422 146.714 71.4752C146.754 72.167 146.82 72.8587 146.896 73.5505C147.045 74.9373 147.061 76.3044 146.763 77.6879C146.558 78.6465 146.525 79.6578 146.529 80.6427C146.545 84.5199 146.161 88.3608 145.499 92.1754C145.208 93.8521 144.705 95.4564 143.726 96.8695C143.051 97.8446 142.687 99.0272 141.76 99.8343L141.793 99.8705C141.602 99.4982 141.41 99.126 141.214 98.7505C141.81 97.8446 142.366 96.9223 142.478 95.8088C142.505 95.5585 142.429 95.43 142.214 95.4761C142.134 95.4926 142.045 95.5848 142.008 95.6639C141.545 96.6521 141.284 97.6931 141.254 98.7867C141.056 98.7867 140.847 98.823 140.662 98.7768C140.334 98.6912 140.106 98.3486 140.182 98.1279C140.467 97.2879 140.788 96.4578 141.029 95.6046C141.125 95.262 141.221 94.8437 140.817 94.5109C140.648 94.758 140.457 94.9853 140.328 95.2423C139.437 97.0145 138.551 98.79 137.684 100.575C137.469 101.017 137.277 101.481 137.154 101.952C136.648 103.903 135.764 105.662 134.51 107.239C134.143 107.704 133.71 108.145 133.657 108.771C133.643 108.916 133.809 109.091 133.925 109.226C133.954 109.262 134.143 109.226 134.196 109.166C134.53 108.801 134.865 108.435 135.162 108.043C135.579 107.49 135.956 106.903 136.363 106.343C136.582 106.044 137.032 105.895 137.095 106.077C137.154 106.248 137.227 106.465 137.171 106.614C136.777 107.631 136.42 108.666 135.794 109.575C135.325 110.257 135.159 111.021 135.182 111.835L135.228 111.792C135.182 111.861 135.086 111.937 135.093 111.999C135.113 112.158 135.179 112.306 135.228 112.461L135.189 112.434C135.248 112.619 135.351 112.803 135.354 112.988C135.361 113.446 135.136 113.841 134.785 113.88C134.534 113.91 134.232 113.808 134.007 113.676C133.763 113.531 133.577 113.287 133.366 113.083C133.352 112.826 133.336 112.566 133.319 112.309L133.425 112.263C133.425 112.263 133.352 112.349 133.352 112.352C133.369 112.589 133.382 112.823 133.395 113.057C133.187 113.498 133.058 114.009 132.75 114.365C131.973 115.254 131.122 116.078 130.278 116.904C130.182 116.997 129.941 116.944 129.765 116.957C129.795 116.782 129.782 116.582 129.868 116.44C130.07 116.104 130.341 115.811 130.55 115.478C130.814 115.053 130.679 114.753 130.063 114.318C129.984 114.262 129.891 114.223 129.802 114.177L129.848 114.22C130.345 113.63 130.844 113.04 131.327 112.441C131.374 112.382 131.36 112.24 131.324 112.154C131.235 111.937 131.036 111.845 130.834 111.96C130.497 112.154 130.186 112.391 129.865 112.612C129.706 112.721 129.554 112.843 129.385 112.925C129.325 112.955 129.196 112.905 129.143 112.853C129.087 112.793 129.041 112.658 129.074 112.602C129.266 112.27 129.468 111.934 129.696 111.627C130.053 111.146 130.341 110.646 130.391 110.036L130.493 109.98L130.43 110.076C129.984 110.464 129.461 110.79 129.107 111.248C127.81 112.915 126.106 114.134 124.537 115.504C123.793 116.153 122.976 116.723 122.188 117.326C121.953 117.507 121.731 117.741 121.463 117.837C119.743 118.456 118.439 119.734 116.9 120.633C115.355 121.536 113.813 122.435 112.354 123.476C111.06 124.398 109.71 125.235 108.238 125.871C107.801 126.059 107.453 126.447 107.066 126.744L107.116 126.708C106.619 126.767 106.196 126.971 105.852 127.34L105.905 127.297C104.442 127.92 102.947 128.473 101.53 129.185C100.177 129.863 98.7807 130.381 97.3016 130.595C94.2276 131.036 91.3224 132.09 88.394 133.022C86.4881 133.629 84.559 134.11 82.61 134.462C80.5585 134.831 78.4672 135.015 76.3859 135.17C73.8049 135.361 71.2207 135.566 68.6298 135.47C68.2327 135.457 67.829 135.523 67.4385 135.467C63.7656 134.943 60.0893 135.131 56.4131 135.398C56.1186 135.417 55.8043 135.463 55.5264 135.391C53.1936 134.791 50.7648 135.075 48.4122 134.584C47.4559 134.383 46.4268 134.521 45.4342 134.505C44.8551 133.513 44.8517 133.51 43.6605 133.889C43.6042 133.82 43.5612 133.734 43.4884 133.688C43.4421 133.655 43.3562 133.678 43.29 133.678C43.4257 133.734 43.5613 133.787 43.697 133.843C44.1768 134.373 44.8417 134.366 45.4737 134.462C46.7742 135.2 48.2764 135.424 49.6099 136.099C50.1029 136.35 50.7814 136.359 51.3571 136.307C52.9785 136.155 54.5139 136.415 56.0559 136.9C56.8996 137.166 57.8029 137.298 58.6864 137.361C60.0761 137.46 61.4791 137.552 62.8623 137.46C65.569 137.275 68.2162 137.558 70.8567 138.112C70.9295 138.29 70.8368 138.379 70.582 138.441C69.5 138.702 68.4014 138.155 67.3293 138.517C67.197 138.563 67.1176 138.781 67.0382 138.932C67.0282 138.949 67.1539 139.08 67.2267 139.097C67.5179 139.153 67.8124 139.202 68.1102 139.219C68.6065 139.248 69.1062 139.238 69.6026 139.271C70.1982 139.314 70.8136 139.304 71.3828 139.459C73.3615 139.993 75.3468 139.805 77.2991 139.453C78.798 139.179 80.2606 139.232 81.7099 139.337C81.9448 139.545 81.9118 139.673 81.647 139.762C81.111 139.943 80.4227 139.779 80.0984 140.454C79.9561 140.75 79.6451 140.876 79.3539 140.787C77.2097 140.128 75.0094 140.391 72.8288 140.375C71.3365 140.362 69.844 140.438 68.3517 140.405C67.3491 140.385 66.3698 140.401 65.4036 140.714C64.1429 141.123 62.8456 141.014 61.5552 140.872C61.3798 140.853 61.1515 140.724 61.0721 140.579C60.7776 140.052 60.3242 139.947 59.8047 140.059C58.6201 140.316 57.4389 140.322 56.2444 140.144C55.8573 140.085 55.4437 140.085 55.0566 140.144C53.7462 140.352 52.4987 140.19 51.2413 139.762C49.9309 139.314 48.5214 139.222 47.2541 138.563C46.761 138.306 46.0926 138.323 45.5036 138.323C44.3753 138.326 43.3495 138.079 42.3734 137.499C41.8671 137.199 41.298 136.972 40.7256 136.824C38.1777 136.162 36.0169 134.726 33.7933 133.418C33.3962 133.184 33.3796 132.818 33.3466 132.406C33.3234 132.097 32.9462 131.873 32.6781 131.968C31.7152 132.318 30.9475 131.975 30.17 131.458C27.9265 129.972 25.7559 128.404 23.8334 126.513C23.6216 126.306 23.4232 126.072 23.1882 125.894C20.7827 124.069 19.0256 121.648 17.1163 119.372C16.5439 118.69 16.0409 117.945 15.5578 117.198C14.7008 115.863 13.9728 114.444 12.8147 113.32C12.6063 113.116 12.454 112.846 12.3051 112.592C10.2205 108.992 8.1094 105.405 6.49464 101.557C5.80307 99.9133 5.12481 98.263 4.4167 96.6258C3.7847 95.1632 3.25193 93.6842 3.14273 92.07C3.09641 91.3849 2.97396 90.67 2.70924 90.0408C1.88201 88.0907 1.91509 85.9792 1.45515 83.9632C1.32941 83.4032 1.44185 82.7872 1.47825 82.1975C1.5345 81.2982 1.56431 80.4122 1.09113 79.5952L1.12765 79.6282C0.958892 79.3844 0.809977 79.1209 0.618059 78.8969C0.0621593 78.238 -0.156314 77.4442 0.118327 76.6733C0.565032 75.4216 0.57165 74.1632 0.531943 72.8719C0.472382 70.9844 0.651045 69.1166 1.09113 67.2752C1.38563 66.0399 1.67681 64.798 1.58747 63.4178C1.35916 63.5957 1.23011 63.6978 1.09776 63.7966C0.905839 63.9415 0.707297 63.902 0.677516 63.6583C0.6345 63.2729 0.641125 62.871 0.684141 62.4823C0.737084 61.998 1.02163 61.7114 1.40878 61.6653C1.80254 61.6192 2.16661 61.8992 2.2394 62.334C2.35191 63.0159 2.42468 63.7011 2.55042 64.3797C2.59344 64.6169 2.80849 64.6827 3.02026 64.5905C3.09968 64.5543 3.21553 64.4884 3.22546 64.4225C3.46039 62.9632 3.7515 61.5072 3.8971 60.038C4.15188 57.4686 4.63167 54.9453 5.37949 52.4813C6.16371 49.9086 6.36564 47.2305 6.96125 44.6282C7.3153 43.0865 7.57328 41.5218 7.91741 39.9769C8.07293 39.2719 8.07301 38.6065 7.74873 37.9543L7.70236 37.9971C8.18878 37.3745 8.79434 36.8112 9.14178 36.1194C10.6639 33.1119 12.9635 30.582 14.3831 27.5185C14.6048 27.0376 15.0151 26.7773 15.5247 26.6653L15.4751 26.6159C15.5777 26.7872 15.6637 26.9684 15.7861 27.1232C15.988 27.3802 16.3057 27.4889 16.5571 27.311C16.9542 27.031 17.3612 26.7082 17.6325 26.3162C18.3671 25.2588 19.0322 24.1552 19.7237 23.0681L19.684 23.0945C19.9057 22.8969 20.1307 22.6992 20.3524 22.5016C20.5344 22.2743 20.7165 22.0503 20.8985 21.823C21.1003 21.6286 21.3021 21.431 21.5073 21.2366L21.5436 21.2729C21.3418 21.4672 21.1367 21.6649 20.9348 21.8625C20.7529 22.0898 20.5709 22.3171 20.3889 22.5444C20.1507 22.5114 19.9157 22.4785 19.6807 22.4456L19.7404 22.4785C19.5121 22.4785 19.287 22.4785 19.0587 22.4785L19.085 22.4456C18.2313 22.9924 17.8443 23.9378 17.1726 24.6427C16.9873 24.8371 16.6861 24.9293 16.428 25.0413C16.3685 25.0677 16.2427 25.0051 16.1799 24.9491C16.117 24.8898 16.0475 24.7811 16.0574 24.7086C16.0839 24.5242 16.107 24.3035 16.2162 24.1684C17.6854 22.3468 19.1877 20.5482 20.6403 18.7133C21.1797 18.0347 21.8713 17.7943 22.6787 17.7383L22.6522 17.6988C22.8772 17.6988 23.1022 17.6988 23.3272 17.6988L23.271 17.7383C23.486 17.5242 23.7011 17.3068 23.9195 17.0927L23.8699 17.142C24.085 16.9279 24.3 16.7138 24.515 16.4997L24.4687 16.5491C24.6838 16.335 24.899 16.1209 25.1174 15.9067L25.0676 15.9562C25.2827 15.742 25.4978 15.5279 25.7161 15.3105L25.6732 15.3566C26.282 15.2875 26.8247 15.0437 27.2847 14.6583C29.0252 13.2023 31.0502 12.1185 32.6484 10.4747C33.34 9.76321 34.1969 9.26912 35.1333 8.89689C35.772 8.64324 36.4007 8.32697 36.9798 7.95803C38.8956 6.72603 40.9405 5.74441 43.0119 4.80888C43.7531 4.47288 44.3653 4.01169 44.8782 3.39569L44.8451 3.42862C45.4374 3.35615 46.0596 3.37922 46.6122 3.19475C49.3586 2.27899 52.1843 1.74533 55.0333 1.28745C56.7109 1.01733 58.3919 0.88557 60.086 0.921806C61.7769 0.958041 63.4711 0.971221 65.1586 1.08981C66.9455 1.21499 68.7224 1.47194 70.3206 2.37782C70.3835 2.41406 70.4165 2.56227 70.3999 2.64462C70.3834 2.72039 70.2907 2.81924 70.2146 2.83571C69.6124 2.97077 69.0202 2.8884 68.4643 2.65781C67.7099 2.34487 66.9256 2.29877 66.1314 2.2263C62.7497 1.91666 59.3746 2.08463 55.9995 2.28557C54.6263 2.36793 53.2961 2.6677 51.9593 3.1157C52.0751 3.2277 52.138 3.29028 52.2008 3.35287C52.5913 3.74816 52.6079 4.11712 52.244 4.23571C51.9627 4.32794 51.6847 4.45639 51.3969 4.50251C48.2203 5.02298 45.2786 6.19238 42.423 7.62532C41.5329 8.07003 40.6262 8.44888 39.9644 9.25594C39.7394 9.52935 39.3027 9.70391 38.9354 9.7665C37.9195 9.94109 37.0692 10.4418 36.2519 11.0084C34.0448 12.5336 31.8477 14.0687 29.6539 15.6103C28.5917 16.3581 27.6585 17.2474 26.8875 18.295L26.871 18.2653C27.1424 18.7199 27.1721 19.1581 26.7751 19.5599C26.3019 20.0409 25.8187 20.5053 25.1238 20.6569C24.6474 20.7623 24.2073 20.9336 23.8665 21.2992L23.8996 21.2663C22.04 22.9265 20.3326 24.7152 19.1447 26.9354C18.8667 27.4592 18.5126 27.9435 18.1883 28.4442C17.9733 28.7769 17.755 29.1096 17.5366 29.439C16.9244 30.3548 17.0931 31.5999 16.2791 32.4267C15.571 33.1449 15.174 34.0705 14.5983 34.871C13.5791 36.2875 13.086 37.8818 12.818 39.5519C12.5797 41.0343 12.1894 42.4475 11.5375 43.8046C11.2397 44.4239 10.9882 45.1025 10.8988 45.7811C10.6143 47.9684 9.71748 49.9679 9.08216 52.0465C8.90679 52.6164 8.73152 53.183 8.53299 53.743C8.34107 54.2832 8.5032 54.9321 8.03003 55.39C7.40133 55.0178 7.27221 55.0277 7.21265 55.4295C7.11007 56.1147 7.05383 56.8098 6.88838 57.4785C6.62698 58.5557 6.52116 59.6263 6.71308 60.7199C6.83551 61.4183 6.79576 62.0968 6.50126 62.759C6.32589 63.151 6.38222 63.5397 6.6701 63.8592C7.03077 64.2611 7.11341 64.7387 7.08032 65.2427C7.01415 66.231 6.99769 67.2291 6.83555 68.2041C6.60392 69.591 6.6568 70.9482 6.7693 72.3449C6.9149 74.1138 6.98763 75.919 6.78578 77.6747C6.47475 80.3957 6.96122 82.9947 7.59654 85.5905C7.70904 86.0484 8.08626 86.4404 8.34105 86.862L8.30469 86.8258C8.39403 87.511 8.36752 88.2324 8.58922 88.8714C9.75065 92.2314 10.9815 95.5717 12.176 98.9218C12.4408 99.6695 12.7154 100.401 13.2316 101.03C13.4764 101.33 13.6915 101.689 13.8106 102.054C14.3334 103.678 15.3162 105.046 16.2096 106.465C17.2122 108.053 18.1587 109.677 19.1282 111.285L19.0786 111.206ZM36.4934 133.197L36.4635 133.23C36.3113 133.148 36.1658 133.059 36.0069 132.99C35.7654 132.884 35.6563 132.947 35.7357 133.131C35.7555 133.177 35.8912 133.187 35.9772 133.19C36.1493 133.204 36.3214 133.197 36.4934 133.197ZM107.754 7.46062C107.754 7.72744 107.758 7.99099 107.758 8.25781C107.132 8.23146 106.504 8.20511 105.878 8.17875L105.915 8.14252C106.183 8.39617 106.421 8.68935 106.725 8.8903C106.974 9.055 107.261 8.95286 107.443 8.70251C107.553 8.55098 107.632 8.37969 107.718 8.21169C107.721 7.97451 107.721 7.73407 107.725 7.49689C107.5 7.30254 107.281 7.10159 107.05 6.91382C106.977 6.85453 106.881 6.79853 106.792 6.78865C106.722 6.78206 106.643 6.84791 106.57 6.88415C106.672 7.0225 106.749 7.23335 106.884 7.28276C107.159 7.38818 107.463 7.40462 107.754 7.46062ZM79.3142 5.19427C78.1693 5.25685 77.2727 5.29638 76.3793 5.35897C76.0848 5.37874 75.8365 5.51053 75.681 5.80041C75.5354 6.06723 75.9523 6.37027 76.5347 6.3571C78.027 6.32745 79.5227 6.28136 81.015 6.21547C81.3029 6.2023 81.5907 6.08699 81.872 5.99805C81.9447 5.97499 82.0275 5.87617 82.044 5.79711C82.097 5.57311 81.9878 5.38863 81.7463 5.36886C80.8562 5.2898 79.9594 5.23709 79.3142 5.19427ZM7.02071 50.9034C6.97107 50.831 6.93137 50.7255 6.86188 50.6959C6.80563 50.6728 6.64683 50.7289 6.64021 50.7618C6.61705 50.9397 6.61713 51.1242 6.6436 51.3053C6.65022 51.3482 6.77915 51.3712 6.85526 51.4041C6.91151 51.2394 6.96776 51.0714 7.02071 50.9034ZM8.17221 52.0366L8.11275 51.8225L7.9969 51.9839L8.17221 52.0366Z" fill="white"/>
<path d="M92.1329 94.5736C92.712 94.5571 93.2909 94.5373 93.8733 94.5209L93.837 94.4813C93.5061 94.8338 93.1686 95.1797 92.8477 95.542C92.798 95.598 92.8113 95.7397 92.8477 95.8188C92.8841 95.8945 92.9866 95.9933 93.0627 95.9933C94.0719 95.9867 94.8628 95.1764 95.8886 95.2258C95.968 95.2291 96.0638 95.318 96.1135 95.3905C96.1565 95.4564 96.1864 95.5882 96.15 95.6442C95.9911 95.8879 95.8421 96.158 95.6237 96.3392C95.0943 96.7806 94.5253 97.1759 93.9727 97.5877C93.1388 97.3835 92.3083 97.1792 91.4777 96.9783C91.4777 96.886 91.4943 96.7872 91.4645 96.7016C91.4446 96.639 91.3685 96.5929 91.3155 96.5369C91.3817 96.6719 91.4479 96.807 91.5141 96.9453C91.4942 97.0376 91.4546 97.1298 91.4579 97.2221C91.4744 97.7821 91.6432 97.9896 92.0337 97.9896C92.7054 97.9896 93.3672 97.9534 93.9429 97.5515C95.8952 97.4296 97.7117 96.9223 99.2901 95.7232L99.2372 95.7627C100.339 95.6244 101.292 95.1006 102.271 94.6295C102.89 94.3298 103.526 94.063 104.161 93.7962C104.23 93.7665 104.416 93.8324 104.416 93.8587C104.422 94.0366 104.452 94.2507 104.366 94.3825C104.211 94.6263 104.012 94.9524 103.77 95.0117C102.774 95.2587 102.043 95.9373 101.196 96.4282C100.855 96.6258 100.511 96.8597 100.137 96.942C98.7739 97.2451 97.533 97.7853 96.3319 98.5001C95.5808 98.9481 94.6543 99.0503 93.741 98.9119C92.9336 98.79 92.1693 98.935 91.4579 99.3435L91.4876 99.3072C91.2163 99.4324 90.9417 99.5543 90.677 99.6861C89.4759 100.292 88.2448 100.513 86.9378 100.015C86.6466 99.9035 86.4416 100.104 86.4912 100.493C86.5177 100.714 86.5938 100.918 86.3886 101.01C85.2934 101.498 84.1881 101.949 82.9472 101.834C81.5409 101.702 80.1711 101.939 78.7946 102.203C77.6232 102.427 76.4353 102.582 75.254 102.766C74.8602 102.825 74.4666 102.911 74.0695 102.927C69.1855 103.105 64.3081 103.174 59.5068 102.002C57.9583 101.623 56.3931 101.323 54.8346 100.981C54.3482 100.875 53.842 100.813 53.3887 100.618C52.4655 100.223 51.5157 99.9792 50.5197 99.8442C49.8249 99.7519 49.1235 99.5147 48.6602 98.9712C47.6411 97.782 46.2612 97.1759 44.8582 96.7049C42.6743 95.9703 40.6957 94.8173 38.5945 93.9115C37.8798 93.6018 37.2046 93.1176 36.6289 92.5872C35.5336 91.5792 34.4914 90.5251 33.545 89.359C32.6284 88.2291 31.9866 87.0827 32.1355 85.5905C32.1653 85.3039 32.1287 84.9679 32.003 84.7176C31.5331 83.8051 31.9931 82.975 32.1618 82.1185L32.3571 81.9242C32.9925 81.9143 33.4325 82.3129 33.9223 82.6291C34.7793 83.1858 35.6793 83.3999 36.6919 83.031C37.4695 82.7477 38.2138 82.9684 38.9451 83.3077C39.8385 83.726 40.6426 84.2531 41.2746 85.0173L41.2383 84.9811C41.4103 84.8856 41.6056 84.8164 41.7478 84.6879C42.0721 84.4013 42.4262 84.3025 42.8365 84.4211C43.0284 84.4771 43.2204 84.5331 43.3991 84.6188C47.2639 86.4997 51.4198 87.4945 55.5427 88.5816C56.8994 88.9373 58.2759 89.0691 59.6723 89.1317C62.3558 89.2503 65.0361 89.2931 67.7097 88.9571C68.1961 88.8945 68.7023 88.8912 69.1921 88.9472C69.7976 89.0197 70.3767 89.0065 70.9558 88.8188C72.104 88.4465 73.2489 88.3642 74.4765 88.4795C75.8431 88.6079 77.2428 88.4498 78.6193 88.3312C80.4988 88.1698 82.3715 87.926 84.2477 87.7284C85.4389 87.6032 86.6004 87.3693 87.7122 86.8983C88.6255 86.5096 89.5882 86.302 90.5644 86.0879C92.4968 85.6597 94.4061 85.0931 96.1235 84.0423C96.2922 83.9402 96.4444 83.7952 96.6231 83.7194C99.2106 82.6423 101.454 80.9853 103.764 79.4569C105.911 78.0371 107.917 76.3999 109.978 74.8517C110.375 74.5552 110.756 74.2357 111.126 73.903C111.841 73.2672 112.685 73.0696 113.614 73.119C113.843 73.1124 114.068 73.1058 114.293 73.0992C114.293 73.0992 114.326 73.1387 114.326 73.1354C114.074 73.142 113.826 73.1519 113.575 73.1618C113.833 72.6315 114.055 72.0747 114.362 71.574C114.776 70.902 115.252 70.263 115.719 69.6206C116.447 68.6159 116.844 67.5387 116.559 66.2771C116.377 65.47 116.672 64.7124 116.857 63.9613C117.542 63.3289 118.34 62.9533 119.177 62.6437C119.958 62.3505 120.699 62.2484 121.42 62.8348C122.026 63.3256 122.876 63.2926 123.485 63.9284C124.65 65.1505 124.868 66.4945 124.418 68.0263C124.309 68.4018 124.074 68.7378 123.942 69.11C123.766 69.591 123.779 70.0917 124.004 70.5562C124.524 71.6235 125.057 72.6809 125.596 73.7383C125.728 74.0018 125.95 74.2291 126.043 74.5025C126.321 75.3293 126.413 76.2583 125.467 76.8874C124.454 77.5594 123.707 78.4818 122.932 79.3811C122.479 79.9082 122.049 80.455 121.569 80.9524C121.377 81.1534 121.076 81.2555 120.825 81.4004L120.874 81.4465C120.947 81.0644 121.02 80.6823 121.089 80.3001C121.208 79.6446 121.165 79.3548 120.54 79.1308C119.571 78.7849 119.048 77.8823 118.164 77.4409C117.969 77.342 117.933 76.9303 117.823 76.6635L117.853 76.6931C116.877 77.3914 116.109 78.3006 115.371 79.2296C114.263 80.6295 113.025 81.8879 111.609 82.9914C110.835 83.5943 110.177 84.3519 109.468 85.0371L109.511 84.9877C108.668 85.0635 108.108 85.5609 107.655 86.2197L107.705 86.1736C106.964 86.4009 106.355 86.8258 105.855 87.4089L105.911 87.3661C105.12 87.6329 104.518 88.0051 104.495 88.9999C104.482 89.6291 103.946 90.0211 103.396 90.2846C103.251 90.3538 102.966 90.3439 102.867 90.2484C102.774 90.1595 102.824 89.9025 102.837 89.7214C102.844 89.6291 102.94 89.5303 102.927 89.4479C102.9 89.2766 102.87 89.0296 102.758 88.9637C102.619 88.8846 102.331 88.8846 102.212 88.9802C100.945 89.9783 99.4787 90.5152 97.9301 90.8809C97.5496 90.9698 97.1394 91.0719 96.825 91.2861C95.068 92.4686 93.0759 93.0187 91.0607 93.5392C90.7861 93.6117 90.5479 93.8225 90.2931 93.9707L90.3427 93.9279C89.9456 93.9115 89.5419 93.8456 89.1515 93.8884C86.2859 94.2079 83.4105 94.4583 80.5681 94.9162C79.1916 95.1369 77.8748 95.5486 76.4619 95.1962C76.0946 95.1039 75.671 95.2028 75.2772 95.2423C72.7988 95.4893 70.3138 95.4827 67.8288 95.4201C66.7401 95.3938 65.6482 95.4597 64.5596 95.4992C64.4868 95.5025 64.3842 95.6145 64.3544 95.6969C64.2717 95.9209 64.3677 96.1053 64.5927 96.1021C66.3961 96.0559 68.1597 96.326 69.9002 96.7477C70.9922 97.0112 72.051 97.0639 73.1132 96.606C73.6691 96.3655 74.2813 96.382 74.8769 96.5006C77.1534 96.9519 79.4234 96.8366 81.6999 96.5105C82.5867 96.382 83.4834 96.2141 84.3702 96.2338C87.6659 96.303 88.2151 95.5157 92.1626 94.534C92.156 94.534 92.1329 94.5736 92.1329 94.5736ZM87.9239 96.8894C88.1158 96.863 88.3077 96.8465 88.4963 96.807C88.5625 96.7938 88.6155 96.7213 88.6718 96.6752C88.3574 96.5468 88.1721 96.807 87.9405 96.9124C87.9372 96.9157 87.9239 96.8894 87.9239 96.8894ZM84.3073 98.1279C84.39 98.1543 84.4728 98.1806 84.5555 98.2037C84.4595 98.1905 84.3634 98.1774 84.2708 98.1675C83.8175 97.7952 83.3079 97.6173 82.7189 97.7326C82.6461 97.7458 82.5635 97.8249 82.5304 97.8973C82.5138 97.9303 82.5966 98.0653 82.6396 98.0653C83.1955 98.095 83.7481 98.1082 84.3073 98.1279ZM60.6485 95.4136C60.5095 95.3114 60.3838 95.1566 60.2349 95.1303C60.0793 95.1006 59.9007 95.1995 59.7319 95.239C59.8609 95.3312 59.9833 95.4794 60.1222 95.5025C60.2844 95.5321 60.4698 95.4498 60.6485 95.4136ZM107.936 84.0521C107.913 83.9797 107.89 83.9072 107.867 83.8348C107.794 83.8644 107.688 83.8743 107.655 83.927C107.629 83.9665 107.691 84.0653 107.715 84.1378C107.787 84.1081 107.86 84.0818 107.936 84.0521Z" fill="white"/>
<path d="M47.2706 57.0008C46.3474 57.6992 45.2918 57.6564 44.2395 57.4884C43.998 57.4488 43.7961 57.1557 43.5778 56.9811C43.5645 57.0206 43.7566 56.8526 43.6143 57.0173C43.2602 56.8427 42.8465 56.734 42.5686 56.4771C42.059 56.0093 41.5991 55.479 41.1689 54.9322C39.9744 53.4136 39.7495 51.7039 40.2425 49.8757C40.3715 49.398 40.5931 48.9468 40.7023 48.4658C40.881 47.6752 40.8778 46.9176 40.3483 46.2028C39.7825 45.4385 39.7097 44.559 39.9976 43.6498C40.2391 42.8988 40.4707 42.1444 40.6824 41.4625C41.6487 40.7609 42.5487 40.1416 43.4057 39.4696C44.4348 38.6625 44.8352 38.5703 45.7617 39.127C46.8669 39.7924 47.9555 40.4908 49.0574 41.166C49.868 41.6668 50.3744 42.3618 50.4935 43.3138C50.5167 43.5115 50.5497 43.7058 50.5663 43.9034C50.6357 44.6808 51.1056 45.1519 51.774 45.4714C52.1313 45.6427 52.502 45.7976 52.8461 45.9952C53.3822 46.3016 53.5774 46.8286 53.4616 47.5237C53.2233 48.983 52.7205 50.4094 52.9058 51.9246C52.9289 52.1058 52.8429 52.3265 52.7469 52.4912C51.7146 54.2042 50.5894 55.8512 48.6901 56.7275C48.2566 56.9284 47.7306 56.9284 47.2475 57.0206C47.2409 57.0272 47.2706 57.0008 47.2706 57.0008Z" fill="white"/>
<path d="M95.7033 39.7594C95.9085 39.4234 96.1136 39.0875 96.3155 38.7482C96.8118 37.9246 96.9871 37.8554 98.0162 38.0959C98.4 38.1848 98.7839 38.3627 99.1644 38.3496C99.6475 38.3331 100.134 38.2013 100.6 38.0564C101.05 37.918 101.166 37.4931 100.882 37.1176C100.71 36.8903 100.577 36.6366 100.452 36.4291C101.021 35.487 101.894 35.0027 102.698 34.4361C103.248 34.0474 103.837 34.0541 104.392 34.3011C105.203 34.6635 105.981 35.1016 106.762 35.5298C107.089 35.711 107.42 36.495 107.285 36.8475C106.967 37.6776 106.692 38.5011 106.593 39.3971C106.56 39.7002 106.08 39.9571 105.802 40.2338C105.352 40.6851 105.137 41.1364 105.422 41.815C105.617 42.2827 104.981 42.3618 104.73 42.6253C104.512 42.8559 104.591 43.2644 104.895 43.3566C105.273 43.4686 105.653 43.6037 106.037 43.6366C106.414 43.6696 106.798 43.5839 107.149 43.5543C107.486 44.2296 107.251 45.0037 107.857 45.5011C108.204 45.7877 108.208 46.1929 108.012 46.575C107.063 48.4559 105.647 49.9745 104.144 51.4206C103.466 52.0762 102.612 52.3759 101.682 52.2277C100.799 52.086 99.9222 51.9773 99.0255 51.974C98.3108 51.9707 97.7713 51.3679 97.7051 50.6037C97.6621 50.1162 97.6787 49.622 97.6953 49.1312C97.7019 48.9368 97.7747 48.7425 97.8342 48.5547C97.9865 48.087 98.1519 47.6225 98.3802 46.9538C98.2379 46.3707 98.0625 45.6032 97.864 44.8456C97.7879 44.5623 97.7283 44.2131 97.5331 44.0352C96.3253 42.9481 96.3121 41.3769 95.8224 40.0032C95.7893 39.911 95.7628 39.8154 95.733 39.7199L95.7033 39.7594Z" fill="white"/>
<path d="M129.799 114.167C129.762 114.358 129.769 114.572 129.679 114.737C128.912 116.14 127.82 117.257 126.476 118.12C126.241 118.271 125.92 118.288 125.639 118.367L125.54 118.285L125.639 118.377C125.58 118.555 125.563 118.772 125.451 118.904C124.683 119.774 123.816 120.498 122.631 120.739L122.674 120.788C123.19 119.843 123.737 118.91 124.21 117.942C124.703 116.937 125.427 116.157 126.337 115.534C126.576 115.373 126.893 115.139 127.128 115.185C128.253 115.402 128.955 114.562 129.845 114.206C129.842 114.21 129.799 114.167 129.799 114.167Z" fill="white"/>
<path d="M92.7716 137.489C93.4963 136.768 94.479 136.488 95.379 136.152C96.8482 135.605 98.3934 135.266 99.9122 134.844C99.9883 134.824 100.117 134.857 100.167 134.913C100.296 135.058 100.25 135.233 100.038 135.355C98.2281 136.409 96.193 136.844 94.2143 137.423C93.761 137.558 93.2348 137.446 92.7418 137.446L92.7716 137.489Z" fill="white"/>
<path d="M99.2968 95.7232C98.9328 95.6277 98.5523 95.5618 98.2115 95.4135C98.1189 95.374 98.1121 95.0808 98.1121 94.903C98.1121 94.8272 98.2082 94.7218 98.2876 94.6789C99.7369 93.8917 101.183 93.1011 102.645 92.3401C102.89 92.2117 103.211 92.2281 103.496 92.1754L103.453 92.126C103.387 92.5246 103.155 92.8244 102.831 93.0319C102.195 93.4437 101.537 93.8258 100.892 94.2277C100.243 94.6295 99.6178 95.0578 99.2472 95.7594C99.2439 95.7627 99.2968 95.7232 99.2968 95.7232Z" fill="white"/>
<path d="M107.063 126.734C107.453 126.846 107.784 127.017 107.781 127.492C107.781 127.775 107.837 128.085 107.751 128.342C107.572 128.872 107.318 129.379 107.102 129.873C106.322 129.939 105.733 129.702 105.316 129.089L105.273 129.132C105.319 129.06 105.405 128.984 105.398 128.921C105.382 128.766 105.316 128.618 105.273 128.467L105.319 128.503C105.514 128.098 105.706 127.689 105.901 127.284L105.849 127.327C106.345 127.268 106.811 127.149 107.112 126.694L107.063 126.734Z" fill="white"/>
<path d="M109.462 85.0371C110.243 84.6747 111.024 84.3157 111.801 83.9566C111.996 84.0851 112.023 84.2531 111.851 84.4376C110.706 85.6531 109.442 86.6545 107.675 86.7665L107.701 86.8093C107.701 86.5985 107.698 86.3877 107.698 86.1769L107.649 86.223C108.482 86.134 109.131 85.7651 109.505 84.991L109.462 85.0371Z" fill="white"/>
<path d="M93.8733 94.5209C94.5318 94.1157 95.1805 93.6907 95.8489 93.3086C96.5338 92.9166 97.2883 92.742 98.0824 92.7552L98.0493 92.7157C96.9176 93.9477 95.5247 94.5604 93.8404 94.4846C93.8404 94.4813 93.8733 94.5209 93.8733 94.5209Z" fill="white"/>
<path d="M110.031 130.855C109.21 132.166 107.936 132.588 106.477 132.644L106.497 132.667C107.225 132.189 107.926 131.669 108.691 131.257C109.098 131.039 109.607 131.016 110.074 130.904L110.031 130.855Z" fill="white"/>
<path d="M135.867 111.868C136.231 111.087 136.526 110.26 137.283 109.74C137.359 109.687 137.479 109.631 137.548 109.657C137.763 109.733 137.799 109.904 137.694 110.122C137.297 110.935 136.694 111.522 135.831 111.825L135.867 111.868Z" fill="white"/>
<path d="M92.7385 137.45C91.0377 138.454 90.9352 138.484 89.4495 138.303C90.4918 137.499 91.5904 137.331 92.7716 137.489L92.7385 137.45Z" fill="white"/>
<path d="M110.074 130.904C110.633 130.203 111.371 129.774 112.208 129.494C112.251 129.481 112.37 129.583 112.4 129.656C112.43 129.728 112.42 129.86 112.374 129.913C111.752 130.608 110.958 130.891 110.034 130.855C110.031 130.855 110.074 130.904 110.074 130.904Z" fill="white"/>
<path d="M101.094 91.5924C100.197 92.2874 99.2372 92.8046 98.0493 92.7157L98.0824 92.7552C98.9361 91.9514 99.8824 91.398 101.123 91.6253L101.094 91.5924Z" fill="white"/>
<path d="M117.291 126.741C117.522 126.026 118.055 125.667 118.76 125.525C118.829 125.512 118.948 125.568 118.992 125.631C119.031 125.687 119.041 125.825 118.998 125.871C118.528 126.378 117.989 126.75 117.248 126.694L117.291 126.741Z" fill="white"/>
<path d="M97.4901 132.93C97.6026 132.904 97.7317 132.887 97.7846 132.934C97.9501 133.072 97.9236 133.25 97.7085 133.352C97.553 133.428 97.3577 133.484 97.1889 133.464C96.9308 133.428 97.1559 133.009 97.4901 132.93Z" fill="white"/>
<path d="M80.6544 137.265C80.8661 137.305 80.9521 137.43 80.8694 137.624C80.8396 137.69 80.747 137.743 80.6742 137.773C80.4625 137.852 80.2904 137.766 80.3235 137.562C80.34 137.446 80.5386 137.361 80.6544 137.265Z" fill="white"/>
<path d="M74.0198 138.296C73.8444 138.306 73.6228 138.389 73.507 138.313C73.3151 138.188 73.3482 137.931 73.5666 137.865C73.7023 137.822 73.904 137.954 74.0595 138.033C74.086 138.046 74.0363 138.204 74.0198 138.296Z" fill="white"/>
<path d="M85.6938 139.117C85.5978 139.047 85.4886 138.968 85.3794 138.889C85.5448 138.853 85.7136 138.777 85.8757 138.794C85.9915 138.804 86.0975 138.935 86.21 139.011C86.1306 139.047 86.0578 139.094 85.9751 139.11C85.8891 139.13 85.7964 139.117 85.6938 139.117Z" fill="white"/>
<path d="M93.7941 134.946C93.708 134.91 93.6054 134.89 93.5393 134.831C93.3473 134.663 93.5592 134.353 93.943 134.231C94.168 134.162 94.3434 134.225 94.4062 134.439C94.4294 134.511 94.3698 134.653 94.3036 134.696C94.1514 134.798 93.9694 134.864 93.7941 134.946Z" fill="white"/>
<path d="M105.888 2.75667C105.597 2.70726 105.303 2.67429 105.015 2.60511C104.939 2.58535 104.856 2.47993 104.829 2.39428C104.803 2.31522 104.823 2.14396 104.852 2.13737C105.021 2.09126 105.276 2.00559 105.359 2.08136C105.564 2.27242 105.693 2.54583 105.852 2.7863C105.855 2.7896 105.888 2.75667 105.888 2.75667Z" fill="white"/>
<path d="M7.75183 37.9477C7.50697 37.8324 7.23235 37.75 7.0272 37.582C6.93124 37.503 6.94787 37.2625 6.95449 37.0978C6.9578 37.0385 7.10665 36.9265 7.14967 36.9429C7.30188 36.9989 7.51372 37.0714 7.56005 37.19C7.65601 37.4371 7.66261 37.7204 7.70562 37.9905C7.70562 37.9872 7.75183 37.9477 7.75183 37.9477Z" fill="white"/>
<path d="M123.945 122.425C123.836 122.521 123.71 122.653 123.561 122.755C123.498 122.798 123.316 122.794 123.313 122.781C123.273 122.626 123.191 122.429 123.253 122.317C123.412 122.023 123.819 121.928 123.922 122.122C123.955 122.188 123.935 122.287 123.945 122.425Z" fill="white"/>
<path d="M78.0469 137.852C77.8881 137.819 77.726 137.782 77.5638 137.746C77.6366 137.703 77.7028 137.641 77.7789 137.624C77.8616 137.608 77.9609 137.621 78.0403 137.654C78.0701 137.667 78.0469 137.783 78.0469 137.852Z" fill="white"/>
<path d="M85.4854 136.791C85.3596 136.886 85.2338 136.985 85.1015 137.071C85.0949 137.074 85.0154 136.962 84.9658 136.903C85.0915 136.807 85.2139 136.709 85.3463 136.623C85.3562 136.616 85.4391 136.732 85.4854 136.791Z" fill="white"/>
<path d="M111.202 127.87C110.971 128.035 110.742 128.213 110.501 128.365C110.428 128.411 110.276 128.434 110.226 128.391C110.051 128.249 110.107 128.091 110.375 128.032C110.656 127.969 110.948 127.946 111.235 127.907C111.239 127.907 111.202 127.87 111.202 127.87Z" fill="white"/>
<path d="M117.248 126.691C117.086 126.909 116.943 127.156 116.748 127.337C116.652 127.429 116.447 127.406 116.295 127.436C116.364 127.287 116.394 127.073 116.513 127.007C116.748 126.876 117.029 126.823 117.294 126.737C117.291 126.741 117.248 126.691 117.248 126.691Z" fill="white"/>
<path d="M95.9647 45.4484C95.9217 45.5242 95.8554 45.6724 95.8356 45.6658C95.6668 45.6131 95.498 45.5505 95.3557 45.455C95.3094 45.4253 95.3028 45.2474 95.3459 45.1914C95.4881 45.0202 95.6768 45.0267 95.839 45.198C95.9018 45.2639 95.925 45.3628 95.9647 45.4484Z" fill="white"/>
<path d="M112.539 127.36C112.695 127.133 112.83 126.886 113.016 126.688C113.194 126.497 113.376 126.54 113.423 126.757C113.436 126.823 113.353 126.948 113.28 126.984C113.029 127.113 112.764 127.212 112.503 127.324C112.503 127.327 112.539 127.36 112.539 127.36Z" fill="white"/>
<path d="M125.659 120.762C125.838 120.548 125.99 120.304 126.202 120.129C126.294 120.05 126.503 120.113 126.662 120.11C126.658 120.195 126.678 120.291 126.642 120.363C126.605 120.439 126.526 120.528 126.447 120.548C126.175 120.62 125.901 120.67 125.626 120.726L125.659 120.762Z" fill="white"/>
<path d="M38.2704 5.76088C38.1545 5.88277 38.0453 6.09027 37.9196 6.10344C37.7078 6.12321 37.5853 5.90913 37.7078 5.72795C37.7872 5.60936 38.0089 5.5863 38.1678 5.51712C38.2008 5.59948 38.234 5.68183 38.2704 5.76088Z" fill="white"/>
<path d="M107.053 87.3891C106.98 87.7778 106.722 88.0117 106.394 88.1962C106.126 88.3477 105.842 88.2126 105.822 87.8964C105.812 87.7218 105.875 87.5439 105.905 87.366L105.848 87.4089C106.262 87.4089 106.676 87.4089 107.089 87.4121L107.053 87.3891Z" fill="white"/>
<path d="M117.824 82.6159C117.896 82.9914 117.847 83.3406 117.575 83.6272C117.519 83.6865 117.413 83.7293 117.33 83.7227C117.099 83.7062 117.009 83.5613 117.096 83.3373C117.231 82.9783 117.443 82.6982 117.863 82.6587L117.824 82.6159Z" fill="white"/>
<path d="M120.818 81.4004C120.742 81.6672 120.672 81.9373 120.576 82.1975C120.55 82.27 120.431 82.3557 120.358 82.3524C120.126 82.3425 120.057 82.1712 120.236 81.9736C120.414 81.7726 120.656 81.6211 120.868 81.4465L120.818 81.4004Z" fill="white"/>
<path d="M92.1793 0.361808C91.9907 0.368396 91.7954 0.41123 91.6168 0.3717C91.4778 0.342053 91.3587 0.210288 91.2296 0.124641C91.2991 0.0818179 91.362 0.012643 91.4348 0.00276069C91.5209 -0.00712166 91.6334 0.00931997 91.7029 0.0554376C91.8584 0.157555 91.9972 0.286045 92.1428 0.404633C92.1461 0.401339 92.1793 0.361808 92.1793 0.361808Z" fill="white"/>
<path d="M90.2799 93.9707C90.9516 94.0036 91.5869 94.1552 92.1329 94.5736L92.1528 94.534C91.501 94.4649 90.849 94.3957 90.3295 93.9279L90.2799 93.9707Z" fill="white"/>
<path d="M115.411 83.2154C115.329 83.4493 115.372 83.7524 115.067 83.871C115.064 83.7952 115.024 83.6931 115.061 83.647C115.176 83.502 115.319 83.3801 115.448 83.2517C115.448 83.2484 115.411 83.2154 115.411 83.2154Z" fill="white"/>
<path d="M117.277 81.4531C117.536 80.5703 117.536 80.5703 118.419 80.847L118.452 80.814C118.049 81.0117 117.642 81.2126 117.238 81.4103C117.238 81.4136 117.277 81.4531 117.277 81.4531Z" fill="white"/>
<path d="M1.09444 79.5787C1.09775 79.7566 1.11091 79.9378 1.10429 80.1157C1.10098 80.2013 1.08776 80.343 1.03482 80.3627C0.839592 80.4451 0.770111 80.3331 0.875997 80.0827C0.945484 79.918 1.04807 79.7665 1.13079 79.6084C1.13079 79.6117 1.09444 79.5787 1.09444 79.5787Z" fill="white"/>
<path d="M99.2803 11.7298C98.6218 11.7068 98.0427 11.4564 97.4967 11.1171L97.4802 11.1566C98.099 11.1534 98.7177 11.1501 99.3331 11.1468L99.2869 11.0973C99.2737 11.3213 99.2604 11.5421 99.2472 11.7661L99.2803 11.7298Z" fill="white"/>
<path d="M108.906 4.55193C108.734 4.50911 108.559 4.46628 108.386 4.42345C108.423 4.35757 108.463 4.29499 108.499 4.22911C108.621 4.35429 108.74 4.47947 108.863 4.60135L108.906 4.55193Z" fill="white"/>
<path d="M99.2472 11.7661C99.3828 11.8188 99.5185 11.8715 99.6542 11.9242C99.588 11.9176 99.5118 11.9341 99.4622 11.9044C99.3894 11.8616 99.3398 11.7891 99.2769 11.7265C99.2802 11.7298 99.2472 11.7661 99.2472 11.7661Z" fill="white"/>
<path d="M11.3156 28.4244C11.2792 28.4903 11.2396 28.5562 11.2032 28.6221C11.2429 28.5628 11.2825 28.5035 11.3223 28.4409C11.3256 28.4442 11.3156 28.4244 11.3156 28.4244Z" fill="white"/>
<path d="M112.44 88.5848C112.331 88.654 112.221 88.7232 112.112 88.7924C112.155 88.7462 112.192 88.6837 112.245 88.6606C112.314 88.6309 112.397 88.6309 112.476 88.6211C112.473 88.6211 112.44 88.5848 112.44 88.5848Z" fill="white"/>
<path d="M103.493 92.182C103.565 91.9383 103.688 91.8493 103.866 91.9185C103.823 91.9844 103.797 92.0832 103.734 92.1096C103.651 92.1458 103.546 92.1293 103.45 92.1326C103.453 92.1293 103.493 92.182 103.493 92.182Z" fill="white"/>
<path d="M91.4646 99.3533C91.5936 99.3896 91.7226 99.4258 91.8517 99.4653C91.7921 99.4653 91.7259 99.4785 91.6796 99.4554C91.6101 99.4225 91.5572 99.3632 91.4977 99.3138C91.4977 99.3171 91.4646 99.3533 91.4646 99.3533Z" fill="white"/>
<path d="M121.42 121.951C121.294 122.017 121.169 122.083 121.043 122.149C121.093 122.099 121.136 122.027 121.195 122.007C121.275 121.981 121.367 121.99 121.453 121.984C121.457 121.987 121.42 121.951 121.42 121.951Z" fill="white"/>
<path d="M116.023 123.13C115.957 123.199 115.891 123.269 115.825 123.338C115.904 123.282 115.98 123.226 116.06 123.17L116.023 123.13Z" fill="white"/>
<path d="M117.906 123.769C118.019 123.684 118.131 123.598 118.244 123.512C118.207 123.575 118.187 123.661 118.131 123.69C118.058 123.73 117.962 123.723 117.873 123.736C117.873 123.733 117.906 123.769 117.906 123.769Z" fill="white"/>
<path d="M116.692 124.333C117.096 124.145 117.503 123.957 117.906 123.766C117.906 123.766 117.873 123.733 117.876 123.733C117.469 123.921 117.066 124.109 116.659 124.296C116.656 124.3 116.692 124.333 116.692 124.333Z" fill="white"/>
<path d="M112.503 127.327C112.069 127.508 111.636 127.689 111.202 127.87L111.235 127.907C111.669 127.726 112.102 127.544 112.536 127.363C112.539 127.36 112.503 127.327 112.503 127.327Z" fill="white"/>
<path d="M105.319 129.093C104.892 129.073 104.465 129.053 104.038 129.037L104.081 129.073C104.495 128.885 104.909 128.694 105.322 128.506L105.276 128.47C105.276 128.691 105.276 128.915 105.276 129.135L105.319 129.093Z" fill="white"/>
<path d="M101.1 131.468C101.16 131.277 101.163 131.082 101.117 130.891L101.097 130.911C101.537 131.191 101.537 131.191 101.084 131.441L101.1 131.468Z" fill="white"/>
<path d="M44.8781 3.37265L44.845 3.40558C44.845 3.40229 44.8781 3.37265 44.8781 3.37265Z" fill="white"/>
<path d="M105.855 2.78958C106.047 2.99711 106.242 3.20464 106.434 3.40888L106.471 3.37265C106.275 3.16841 106.08 2.9609 105.888 2.75667L105.855 2.78958Z" fill="white"/>
<path d="M106.434 3.40888C106.434 3.40888 106.471 3.36936 106.471 3.37265L106.434 3.40888Z" fill="white"/>
<path d="M26.8875 13.4757C26.6922 13.6799 26.497 13.8809 26.3018 14.0851L26.3383 14.1181C26.5335 13.9171 26.7287 13.7129 26.9206 13.5119C26.9239 13.5086 26.8875 13.4757 26.8875 13.4757Z" fill="white"/>
<path d="M25.6898 14.6846C25.9048 14.4969 26.1232 14.3058 26.3383 14.1181C26.3383 14.1181 26.3019 14.0851 26.3052 14.0851C26.0868 14.2729 25.865 14.4606 25.6466 14.6484L25.6898 14.6846Z" fill="white"/>
<path d="M25.6466 14.6484C25.6565 14.879 25.6665 15.1063 25.6797 15.3369L25.7227 15.2907C25.5043 15.2907 25.2893 15.2874 25.0709 15.2874L25.1139 15.3105C25.3058 15.103 25.5011 14.8955 25.693 14.6879C25.6897 14.6846 25.6466 14.6484 25.6466 14.6484Z" fill="white"/>
<path d="M24.515 15.9067C24.7135 15.7091 24.9154 15.5082 25.1139 15.3072L25.0709 15.2841C25.0709 15.5016 25.0742 15.7157 25.0742 15.9331L25.1238 15.8837C24.9054 15.8837 24.6904 15.8804 24.472 15.8804L24.515 15.9067Z" fill="white"/>
<path d="M23.9161 16.4997C24.1146 16.302 24.3132 16.1044 24.5118 15.9067L24.4686 15.8804C24.4719 16.0978 24.4719 16.3119 24.4752 16.5293L24.5216 16.4799C24.3065 16.4799 24.0882 16.4766 23.8731 16.4766L23.9161 16.4997Z" fill="white"/>
<path d="M23.3205 17.0927C23.519 16.895 23.7176 16.6973 23.9194 16.4964L23.8765 16.4734C23.8765 16.6908 23.8797 16.9049 23.8797 17.1223L23.9293 17.0729C23.7109 17.0729 23.4959 17.0696 23.2775 17.0696L23.3205 17.0927Z" fill="white"/>
<path d="M22.6852 17.7185C22.897 17.511 23.1087 17.3034 23.3205 17.0959L23.2741 17.0696C23.2774 17.287 23.2775 17.5011 23.2808 17.7185C23.2808 17.7185 23.337 17.679 23.337 17.6757C23.112 17.6757 22.887 17.6757 22.662 17.6757L22.6852 17.7185Z" fill="white"/>
<path d="M18.5027 18.2653C18.7178 18.071 18.9329 17.8766 19.148 17.6823L19.1149 17.646C18.913 17.8437 18.7078 18.0446 18.5027 18.2423V18.2653Z" fill="white"/>
<path d="M18.5027 18.2423L18.4465 18.3279L18.5059 18.2653L18.5027 18.2423Z" fill="white"/>
<path d="M19.7303 23.0583C19.5152 22.8508 19.3035 22.6399 19.0884 22.4324L19.0619 22.4653C19.2902 22.4653 19.5152 22.4653 19.7435 22.4653L19.6839 22.4324C19.6872 22.6498 19.6872 22.8672 19.6905 23.0846L19.7303 23.0583Z" fill="white"/>
<path d="M15.5313 26.6554L15.6305 26.5105L15.4849 26.606L15.5313 26.6554Z" fill="white"/>
<path d="M11.3256 28.4442L11.3853 28.3552L11.3156 28.4244L11.3256 28.4442Z" fill="white"/>
<path d="M95.7431 39.7232L95.7066 39.7594C95.7033 39.7594 95.7431 39.7232 95.7431 39.7232Z" fill="white"/>
<path d="M32.1684 82.1251C32.1155 82.0559 32.003 81.9703 32.0162 81.9209C32.0725 81.71 32.2049 81.7199 32.3638 81.9307L32.1684 82.1251Z" fill="white"/>
<path d="M116.679 82.0295C116.765 81.7199 116.947 81.5091 117.277 81.4531L117.238 81.4135C117.172 81.7397 116.98 81.9373 116.649 81.9999L116.679 82.0295Z" fill="white"/>
<path d="M116.649 81.9999C116.447 82.1943 116.248 82.3886 116.047 82.5863L116.08 82.6225C116.282 82.4281 116.48 82.2305 116.682 82.0361C116.679 82.0295 116.649 81.9999 116.649 81.9999Z" fill="white"/>
<path d="M117.863 82.6554L117.824 82.6126C117.824 82.6159 117.863 82.6554 117.863 82.6554Z" fill="white"/>
<path d="M116.047 82.583C115.835 82.7938 115.623 83.0046 115.411 83.2154L115.448 83.2517C115.66 83.0409 115.868 82.83 116.08 82.6192L116.047 82.583Z" fill="white"/>
<path d="M118.449 84.3848C118.25 84.5858 118.052 84.79 117.853 84.991L117.883 85.0239C118.085 84.823 118.283 84.622 118.485 84.4211C118.485 84.4244 118.449 84.3848 118.449 84.3848Z" fill="white"/>
<path d="M117.85 84.9942L117.88 85.0272C117.883 85.0272 117.85 84.9942 117.85 84.9942Z" fill="white"/>
<path d="M107.675 86.7665C107.467 86.974 107.261 87.1815 107.053 87.3924L107.089 87.4154C107.295 87.2145 107.496 87.0102 107.701 86.8093L107.675 86.7665Z" fill="white"/>
<path d="M113.065 87.9655C112.857 88.1731 112.648 88.3806 112.44 88.5881L112.476 88.6244C112.685 88.4168 112.893 88.2093 113.105 88.0018C113.102 87.9985 113.065 87.9655 113.065 87.9655Z" fill="white"/>
<path d="M101.127 91.6253C101.127 91.6253 101.094 91.5891 101.097 91.5924C101.1 91.5957 101.127 91.6253 101.127 91.6253Z" fill="white"/>
<path d="M135.172 111.831C135.404 111.845 135.635 111.854 135.867 111.868C135.867 111.868 135.831 111.825 135.834 111.825C135.619 112.026 135.4 112.227 135.185 112.431L135.225 112.457C135.225 112.233 135.225 112.013 135.225 111.789L135.172 111.831Z" fill="white"/>
<path d="M122.016 120.785C122.234 120.785 122.453 120.788 122.668 120.788L122.625 120.739C122.426 120.936 122.231 121.131 122.032 121.328L122.066 121.365C122.066 121.157 122.062 120.946 122.062 120.739L122.016 120.785Z" fill="white"/>
<path d="M125.626 120.726L125.659 120.758C125.659 120.762 125.626 120.726 125.626 120.726Z" fill="white"/>
<path d="M122.036 121.328C121.831 121.536 121.625 121.743 121.42 121.951L121.457 121.987C121.662 121.78 121.867 121.569 122.072 121.361L122.036 121.328Z" fill="white"/>
<path d="M116.06 123.17L116.023 123.134C116.023 123.13 116.06 123.17 116.06 123.17Z" fill="white"/>
<path d="M116.083 124.935C116.285 124.734 116.49 124.534 116.692 124.336L116.659 124.3C116.457 124.501 116.255 124.702 116.053 124.902L116.083 124.935Z" fill="white"/>
<path d="M104.082 129.676C104.042 129.541 103.982 129.406 103.966 129.267C103.959 129.208 104.039 129.135 104.078 129.07L104.035 129.033C104.039 129.257 104.042 129.485 104.045 129.709L104.082 129.676Z" fill="white"/>
<path d="M101.084 131.441L101.1 131.471C101.1 131.468 101.084 131.441 101.084 131.441Z" fill="white"/>
<path d="M85.3595 95.5058C85.3297 95.5716 85.2207 95.654 85.1611 95.6441C85.0023 95.6211 84.85 95.5519 84.6945 95.5025C84.721 95.43 84.7407 95.3015 84.7738 95.2982C84.9426 95.2785 85.1181 95.2818 85.2868 95.3048C85.3232 95.3081 85.3827 95.4564 85.3595 95.5058Z" fill="white"/>
</svg>
