<svg width="335" height="330" viewBox="0 0 335 330" fill="none" xmlns="http://www.w3.org/2000/svg">
<path d="M14.9134 187.27C15.2292 188.817 15.6062 190.347 15.8478 191.902C16.241 194.391 17.0607 196.694 18.4312 198.807C19.5475 200.522 20.1841 202.305 20.3777 204.437C20.5721 206.613 21.3561 208.844 22.3498 210.816C24.465 215.033 26.7658 219.167 29.196 223.212C31.8508 227.646 34.5957 232.028 37.6085 236.245C40.3706 240.119 43.5315 243.601 46.9603 246.858C49.5682 249.34 52.2441 251.748 54.9462 254.111C56.4639 255.445 58.1036 256.642 59.7006 257.883C60.4113 258.432 61.2191 258.872 61.8907 259.458C63.585 260.92 65.1962 262.481 66.9156 263.914C68.7145 265.418 71.2729 265.039 73.1777 266.286C74.2864 267.012 75.2804 267.923 76.333 268.746C75.4938 272.069 78.4818 271.619 80.0337 272.161C81.9364 272.828 83.9751 272.96 85.2538 274.872C85.5642 275.336 86.3867 275.587 87.0049 275.667C87.9289 275.787 88.7495 276.01 89.4824 276.58C90.0138 276.99 90.5217 277.517 91.1319 277.731C96.6848 279.642 101.572 282.99 107.036 285.1C108.745 285.759 110.212 286.701 111.623 287.861C113.003 288.985 114.624 289.826 116.163 290.75C117.553 291.587 119.033 291.983 120.678 291.586C121.572 291.369 122.649 291.283 123.219 292C124.687 293.84 126.626 293.846 128.682 293.903C133.227 294.031 137.478 295.355 141.565 297.309C142.763 297.88 144.062 298.336 145.368 298.572C153.572 300.063 161.831 301.041 170.195 300.88C172.438 300.837 174.689 300.677 176.914 301.219C177.558 301.375 178.268 301.475 178.924 301.387C184.306 300.678 189.713 301.495 195.1 301.091C201.844 300.582 208.548 299.721 215.141 298.305C225.057 296.173 234.715 293.142 243.952 288.866C246.212 287.823 248.295 286.548 250.183 284.893C252.036 283.269 254.034 281.797 256.036 280.363C260.249 277.357 264.577 274.512 268.411 271.01C269.907 269.646 272.248 269.375 273.345 267.773C274.494 266.096 275.76 264.548 277.026 262.982C280.141 259.143 283.281 255.319 286.264 251.378C290.201 246.174 293.859 240.766 296.925 234.991C299.145 230.817 301.463 226.698 303.634 222.504C308.529 213.054 312.137 203.171 313.498 192.544C314.698 183.153 315.548 173.741 315.403 164.273C315.308 157.977 315.037 151.673 313.717 145.481C313.525 144.602 313.296 143.727 313.172 142.835C311.381 129.714 306.547 117.66 300.37 106.065C299.734 104.878 299.061 103.695 298.522 102.46C297.139 99.3387 295.251 96.5827 292.996 94.0289C291.663 92.5252 290.469 90.869 289.371 89.1819C288.64 88.0695 288.217 86.8147 288.324 85.3574C288.481 83.3067 287.107 82.0822 285.483 81.1272L285.517 81.2765C285.207 79.5864 284.031 78.6918 282.569 78.0547L282.56 77.7561L282.712 78.0164C282.434 78.4084 282.156 78.8004 281.884 79.1961L281.961 79.1371C281.419 78.7461 280.805 78.4177 280.338 77.9409C275.457 72.9818 270.141 68.5226 264.753 64.1428C260.764 60.8987 256.866 57.5427 252.315 55.0621C250.751 54.2113 249.325 53.094 247.841 52.0905C246.885 51.4435 246.893 51.2497 247.876 49.3827C246.924 48.056 245.482 47.4133 244.082 46.7431C243.274 46.363 242.413 46.0736 241.557 45.8379C239.289 45.2195 238.002 43.052 235.937 42.248C233.874 41.4543 231.628 41.1586 229.499 40.5083C228.671 40.2543 227.926 39.6602 227.185 39.1635C225.312 37.8921 223.385 37.1166 221.024 36.8409C218.649 36.5577 216.308 35.4391 214.116 34.3461C211.891 33.2345 209.685 32.3149 207.193 32.0413C206.617 31.9766 206.078 31.3715 205.559 30.9685C205.409 30.8557 205.345 30.5772 205.321 30.3647C205.252 29.8413 205.528 29.4225 206.002 29.5146C207.528 29.8172 209.05 30.1698 210.538 30.6141C211.818 30.9991 213.026 31.6279 214.314 31.9999C215.815 32.435 217.356 32.8758 218.906 33.0023C220.199 33.1101 221.539 32.7785 222.854 32.6397C223.904 34.2904 225.209 35.5881 227.934 36.0129C226.055 34.3325 224.443 33.4452 222.748 32.6735C225.21 32.8347 227.683 32.933 230.137 33.1841C230.999 33.2761 231.861 33.6527 232.648 34.0383C233.283 34.3444 233.766 35.0633 233.415 35.7155C232.452 37.5335 233.11 38.7254 234.722 39.5524C236.506 40.4701 238.35 41.2841 240.199 42.1622C240.833 41.604 241.43 41.2579 241.785 40.7467C242.728 39.383 244.05 39.2915 245.368 39.7592C246.838 40.2795 248.258 41.0045 249.622 41.7664C251.975 43.09 254.327 44.4138 256.572 45.9085C260.122 48.2687 263.647 50.6408 267.588 52.3545C268.995 52.9682 270.492 53.8587 271.406 55.0424C273.031 57.1464 275.254 58.0067 277.518 58.9163C277.939 58.7105 278.338 58.5267 278.732 58.3226C279.862 57.7406 280.72 57.7353 281.059 58.449C282.454 61.3263 284.615 63.5663 286.798 65.8546C289.588 68.7688 292.086 71.9634 294.726 75.016C295.75 76.2029 296.814 77.3521 297.636 78.2757C299.55 79.2079 300.099 76.866 301.576 77.2092C301.622 77.2187 302.081 76.3786 301.961 76.0934C300.067 71.7022 296.976 68.1135 293.979 64.4834C290.837 60.6839 287.586 56.9682 284.403 53.1963C284.121 52.8612 283.978 52.4071 283.777 52.0065L283.668 52.0468C287.736 54.4649 291.105 57.6617 294.068 61.3232C299.939 68.5893 305.635 75.979 310.889 83.7172C311.615 84.7924 312.771 85.572 313.727 86.4869L313.619 86.5106C313.043 84.8917 312.395 83.2918 311.918 81.6353C311.697 80.8516 311.8 79.97 311.757 79.1333L311.617 79.1819C313.531 79.2164 315.065 79.7138 315.912 81.7309C317.134 84.6381 318.661 87.3927 320.922 89.6823C321.537 90.3054 322.018 91.118 322.367 91.9329C324.932 97.9286 327.501 103.901 328.805 110.361C330.096 116.752 331.927 123.032 332.861 129.503C333.247 132.169 333.485 134.853 333.722 137.537C333.9 139.547 333.993 141.569 334.086 143.591C334.166 145.382 334.431 147.21 334.192 148.971C333.767 152.144 334.136 155.258 334.363 158.394C334.493 160.187 334.714 161.972 334.718 163.761C334.732 175.07 333.213 186.194 330.469 197.153C329.706 200.209 328.907 203.253 328.108 206.297C327.202 209.78 326.247 213.243 324.776 216.555C324.044 218.196 323.521 219.923 322.956 221.634C319.344 232.542 314.912 243.105 309.76 253.374C309.053 254.779 308.397 256.213 307.761 257.659C306.478 260.553 304.959 263.259 302.806 265.642C301.317 267.294 300.105 269.245 298.994 271.185C294.626 278.824 289.516 285.94 283.892 292.691C281.419 295.657 278.614 298.243 275.094 299.914C272.667 301.068 270.612 302.981 267.884 303.521L267.907 303.629C267.954 302.681 268.001 301.732 268.045 300.774C270.239 299.666 272.373 298.481 273.857 296.419C274.193 295.957 274.19 295.619 273.716 295.467C273.542 295.409 273.263 295.489 273.102 295.604C271.074 297.023 269.381 298.774 268.082 300.89C267.693 300.666 267.244 300.501 266.934 300.201C266.39 299.663 266.332 298.731 266.731 298.384C268.242 297.054 269.812 295.785 271.253 294.381C271.829 293.816 272.492 293.102 272.079 291.992C271.469 292.287 270.835 292.517 270.291 292.876C266.538 295.354 262.788 297.842 259.065 300.372C258.144 300.997 257.241 301.693 256.467 302.48C253.263 305.742 249.538 308.201 245.293 309.886C244.047 310.384 242.698 310.762 241.884 311.932C241.694 312.202 241.819 312.732 241.893 313.128C241.91 313.233 242.32 313.375 242.491 313.318C243.56 312.977 244.629 312.636 245.657 312.202C247.1 311.585 248.504 310.859 249.936 310.218C250.703 309.876 251.752 310.092 251.67 310.52C251.592 310.924 251.488 311.433 251.209 311.661C249.284 313.217 247.411 314.847 245.155 315.927C243.462 316.737 242.271 318.052 241.393 319.677L241.532 319.645C241.363 319.729 241.089 319.77 241.031 319.9C240.89 320.233 240.851 320.599 240.773 320.96L240.725 320.863C240.633 321.293 240.624 321.772 240.421 322.138C239.914 323.045 239.025 323.568 238.294 323.25C237.768 323.024 237.295 322.483 237.004 321.97C236.69 321.408 236.604 320.72 236.421 320.079C236.687 319.559 236.95 319.029 237.209 318.505L237.469 318.534C237.469 318.534 237.229 318.62 237.225 318.626C236.988 319.111 236.749 319.586 236.509 320.061C235.601 320.693 234.768 321.551 233.763 321.902C231.232 322.772 228.633 323.43 226.043 324.102C225.751 324.175 225.338 323.798 224.98 323.626C225.236 323.317 225.439 322.907 225.768 322.725C226.544 322.293 227.408 322.023 228.193 321.605C229.193 321.069 229.268 320.326 228.557 318.776C228.465 318.576 228.329 318.394 228.206 318.202L228.248 318.339C229.889 317.741 231.536 317.146 233.162 316.514C233.32 316.449 233.454 316.156 233.48 315.946C233.552 315.418 233.268 315.013 232.742 315.011C231.861 315.012 230.984 315.127 230.105 315.198C229.671 315.232 229.235 315.3 228.811 315.271C228.661 315.262 228.465 315.019 228.421 314.856C228.378 314.675 228.441 314.358 228.569 314.285C229.322 313.848 230.098 313.415 230.893 313.071C232.138 312.53 233.269 311.871 234.058 310.729L234.322 310.735L234.091 310.851C232.775 311.111 231.382 311.161 230.17 311.661C225.74 313.472 221.023 313.943 216.398 314.864C214.205 315.299 211.959 315.495 209.734 315.791C209.068 315.881 208.369 316.091 207.736 315.976C203.667 315.249 199.665 316.288 195.633 316.318C191.585 316.346 187.547 316.372 183.511 316.769C179.932 317.12 176.341 317.24 172.738 316.826C171.67 316.701 170.549 317.073 169.455 317.218L169.593 317.203C168.555 316.759 167.494 316.682 166.402 317.018L166.555 316.994C162.986 316.565 159.431 315.963 155.853 315.762C152.434 315.567 149.115 315.006 145.978 313.756C139.461 311.151 132.58 309.94 125.792 308.464C121.375 307.503 117.054 306.268 112.84 304.759C108.407 303.167 104.105 301.167 99.8569 299.12C94.5896 296.579 89.3009 294.061 84.3394 290.946C83.5774 290.472 82.7126 290.145 82.0121 289.594C75.4193 284.415 68.0124 280.631 60.5159 277.002C59.9172 276.708 59.2499 276.444 58.7883 275.987C54.9038 272.173 49.8297 269.986 45.783 266.363C44.1398 264.888 41.9691 263.997 40.0453 262.843C40.0374 260.24 40.0344 260.23 37.2735 259.629C37.242 259.429 37.255 259.212 37.1649 259.039C37.1116 258.922 36.9173 258.871 36.7878 258.796C36.9898 259.059 37.1954 259.316 37.3973 259.579C37.7343 261.164 39.043 261.902 40.1713 262.804C41.8786 265.724 44.564 267.861 46.4071 270.695C47.0878 271.744 48.4041 272.53 49.5905 273.077C52.9352 274.611 55.6444 276.857 58.1122 279.551C59.4605 281.029 61.0784 282.308 62.7362 283.429C65.3436 285.194 67.9844 286.96 70.7956 288.341C76.3014 291.037 81.16 294.584 85.699 298.655C85.6396 299.087 85.3573 299.157 84.7877 298.992C82.375 298.281 80.8458 295.965 78.3367 295.466C78.0254 295.408 77.6233 295.745 77.296 295.953C77.2579 295.975 77.3543 296.376 77.478 296.49C77.9843 296.929 78.5044 297.359 79.0685 297.728C80.0061 298.347 80.9952 298.892 81.9291 299.517C83.0459 300.275 84.2614 300.95 85.1994 301.898C88.4658 305.182 92.5638 307.056 96.784 308.569C100.027 309.725 102.83 311.481 105.546 313.325C105.77 313.999 105.56 314.214 104.941 314.09C103.686 313.84 102.526 312.739 101.125 313.7C100.51 314.122 99.7598 314.016 99.2909 313.513C95.8428 309.795 91.2381 307.827 86.9898 305.331C84.0845 303.62 81.0782 302.082 78.1954 300.332C76.2559 299.16 74.3208 298.086 72.075 297.61C69.1445 296.988 66.7294 295.309 64.3649 293.573C64.0442 293.336 63.7432 292.825 63.7523 292.451C63.7741 291.082 63.0067 290.362 61.863 289.996C59.2534 289.162 56.9345 287.841 54.7989 286.142C54.1086 285.588 53.2994 285.121 52.4745 284.8C49.6749 283.727 47.4169 282 45.4423 279.738C43.3867 277.377 40.7331 275.604 39.0009 272.877C38.3277 271.815 37.0011 271.092 35.8485 270.426C33.6368 269.158 31.91 267.514 30.6578 265.271C30.0073 264.11 29.1516 263.02 28.1996 262.082C23.9653 257.902 21.367 252.638 18.4999 247.555C17.9883 246.647 18.3708 245.909 18.7734 245.063C19.0795 244.428 18.5955 243.561 17.9626 243.446C15.6821 243.045 14.5687 241.504 13.634 239.609C10.9299 234.154 8.46187 228.62 6.84572 222.731C6.66683 222.084 6.54394 221.4 6.2861 220.785C3.64983 214.48 2.9592 207.736 1.80632 201.105C1.45999 199.118 1.32072 197.086 1.22397 195.071C1.06098 191.48 1.24764 187.867 0.256169 184.351C0.0800286 183.714 0.0887183 183.011 0.0852023 182.344C0.0919606 172.912 0.0319299 163.475 1.23851 154.088C1.75066 150.076 2.29632 146.066 2.76863 142.048C3.19173 138.459 3.82768 134.95 5.44578 131.654C6.1327 130.254 6.70432 128.711 6.90034 127.175C7.49469 122.407 9.95566 118.294 11.3435 113.812C11.733 112.569 12.6521 111.485 13.3925 110.368C14.5231 108.663 15.587 106.955 15.5882 104.815L15.6223 104.921C15.5687 104.251 15.5763 103.565 15.455 102.908C15.1149 100.985 15.5883 99.1776 17.0005 97.9727C19.2952 96.0169 20.7362 93.5509 22.1239 90.9679C24.1494 87.1905 26.6186 83.721 29.5695 80.5987C31.5477 78.5033 33.5268 76.3912 34.9184 73.5772C34.2697 73.6689 33.9013 73.7239 33.5302 73.7686C32.9901 73.8367 32.6465 73.5347 32.8648 73.0219C33.218 72.2158 33.6871 71.4333 34.2124 70.7178C34.8655 69.8258 35.7476 69.584 36.5575 69.9307C37.3803 70.2849 37.775 71.2466 37.424 72.1835C36.8703 73.651 36.2351 75.08 35.7111 76.5558C35.5261 77.0707 35.8721 77.4431 36.3912 77.5011C36.5877 77.5196 36.8892 77.5209 36.9834 77.4027C39.0992 74.7997 41.3212 72.2667 43.2734 69.5433C46.6878 64.7807 50.4903 60.3629 54.7499 56.3645C59.2041 52.1935 62.6384 47.1575 66.7572 42.7152C69.1996 40.0849 71.4801 37.3008 73.9067 34.6528C75.0111 33.4429 75.7664 32.135 75.872 30.4866L75.7327 30.5184C77.391 29.8442 79.2153 29.4211 80.6802 28.4538C87.0718 24.2618 94.4428 21.8871 100.697 17.4692C101.677 16.7743 102.775 16.7264 103.899 17.082L103.858 16.9288C103.865 17.3814 103.827 17.8347 103.891 18.2773C103.995 19.0104 104.493 19.583 105.187 19.5174C106.282 19.4157 107.444 19.241 108.42 18.777C111.058 17.5285 113.611 16.1106 116.198 14.7552L116.091 14.7621C116.749 14.6241 117.413 14.4898 118.072 14.3518C118.686 14.1106 119.296 13.8761 119.91 13.6349C120.526 13.4809 121.145 13.3204 121.767 13.1702L121.797 13.2824C121.181 13.4364 120.556 13.5932 119.936 13.7537C119.322 13.9949 118.708 14.236 118.094 14.4772C117.666 14.1433 117.243 13.8131 116.821 13.4829L116.9 13.615C116.453 13.3571 116.013 13.1029 115.566 12.8449L115.655 12.8099C113.364 12.9203 111.534 14.3413 109.419 14.968C108.836 15.1407 108.142 14.9818 107.51 14.9103C107.364 14.8948 107.189 14.6298 107.129 14.4487C107.073 14.2611 107.061 13.9689 107.162 13.8377C107.423 13.505 107.719 13.0973 108.086 12.9552C113.028 11.0344 118.009 9.19627 122.934 7.23084C124.759 6.50634 126.386 6.81506 128.029 7.61714L128.022 7.50951C128.462 7.76371 128.903 8.01793 129.343 8.27214L129.188 8.28631C129.852 8.10843 130.52 7.92408 131.19 7.74994L131.037 7.79096C131.701 7.61308 132.364 7.43512 133.028 7.25724L132.881 7.30199C133.545 7.12411 134.209 6.94635 134.88 6.7722L134.726 6.81313C135.39 6.63524 136.054 6.45737 136.728 6.27676L136.592 6.31886C137.862 6.87074 139.2 7.00472 140.538 6.76678C145.596 5.8712 150.788 6.02873 155.781 4.60333C157.942 3.98605 160.179 3.98299 162.434 4.30927C163.972 4.53219 165.561 4.62084 167.113 4.54986C172.26 4.29271 177.376 4.67349 182.491 5.17478C184.322 5.35173 186.044 5.13684 187.746 4.50547L187.644 4.53278C188.885 5.05949 190.077 5.80777 191.367 6.06947C197.781 7.37224 203.916 9.51569 210.01 11.8344C213.6 13.1987 217.039 14.8388 220.313 16.8241C223.58 18.8056 226.88 20.7455 230.048 22.8852C233.403 25.1499 236.588 27.6625 238.687 31.2487C238.769 31.391 238.666 31.7196 238.54 31.8628C238.422 31.993 238.128 32.0826 237.96 32.029C236.629 31.6141 235.563 30.7832 234.737 29.7019C233.616 28.2345 232.134 27.2578 230.662 26.2181C224.396 21.7889 217.601 18.306 210.768 14.8879C207.988 13.4983 205.045 12.5848 201.92 11.9551C202.02 12.3061 202.072 12.5001 202.124 12.6941C202.439 13.9123 202.053 14.6563 201.206 14.4782C200.551 14.3418 199.862 14.2802 199.246 14.0456C192.439 11.4799 185.356 10.4551 178.142 10.0455C175.895 9.914 173.691 9.6343 171.48 10.473C170.73 10.7562 169.677 10.6059 168.887 10.314C166.701 9.50952 164.469 9.53303 162.227 9.72335C156.177 10.2278 150.136 10.763 144.093 11.3147C141.166 11.5846 138.331 12.2784 135.633 13.4664L135.635 13.3895C135.65 14.5896 135.211 15.4845 133.978 15.8258C132.506 16.2366 131.034 16.6036 129.502 16.1164C128.45 15.7853 127.394 15.6249 126.312 15.9585L126.415 15.9312C120.892 17.0937 115.521 18.6805 110.676 21.7026C109.538 22.4181 108.296 22.9699 107.093 23.5877C106.294 23.9987 105.49 24.4061 104.689 24.8068C102.451 25.9153 101.368 28.5533 98.8372 29.2589C96.6366 29.8705 94.8094 31.2415 92.7744 32.1645C89.1726 33.7973 86.3983 36.374 83.9785 39.354C81.83 41.9986 79.4625 44.3354 76.6467 46.2666C75.3612 47.1475 74.0989 48.1971 73.1539 49.43C70.1148 53.4079 66.0908 56.325 62.4887 59.693C61.4988 60.615 60.5129 61.5306 59.4889 62.4071C58.5003 63.2522 58.0811 64.7109 56.6355 65.0763C55.8277 63.6344 55.5639 63.5079 54.9912 64.2306C54.0129 65.4615 53.1141 66.7642 52.0314 67.8917C50.2975 69.7137 48.8755 71.6985 48.0099 74.065C47.4569 75.576 46.6091 76.8649 45.2814 77.8337C44.4934 78.4061 44.1625 79.2338 44.3632 80.1871C44.6129 81.3845 44.2325 82.4167 43.5958 83.37C42.3448 85.2377 41.1799 87.1811 39.7561 88.9145C37.729 91.3787 36.2923 94.1062 34.9274 96.9787C33.2048 100.62 31.2986 104.251 28.911 107.474C25.2145 112.471 23.217 118.129 21.5143 123.949C21.2149 124.976 21.5082 126.173 21.5282 127.29L21.4982 127.177C20.8955 128.625 20.0249 130.013 19.7335 131.52C18.1931 139.436 16.811 147.392 15.3466 155.327C15.016 157.096 14.7235 158.844 15.0196 160.663C15.1585 161.529 15.1719 162.478 14.9901 163.331C14.1701 167.114 14.5418 170.912 14.6788 174.712C14.8388 178.965 14.8479 183.227 14.9207 187.482L14.9134 187.27ZM24.034 250.172L23.9381 250.203C23.7338 249.869 23.5499 249.53 23.3176 249.214C22.9645 248.734 22.68 248.734 22.626 249.186C22.6125 249.299 22.8667 249.472 23.0314 249.576C23.3531 249.796 23.6973 249.978 24.034 250.172ZM306.17 83.5311C305.868 84.0556 305.575 84.5774 305.272 85.1019C304.078 84.3436 302.878 83.5814 301.684 82.8231L301.796 82.7929C302.033 83.5943 302.167 84.4398 302.534 85.1787C302.833 85.7829 303.512 85.9073 304.152 85.6208C304.538 85.4463 304.888 85.1994 305.247 84.9663C305.523 84.5039 305.795 84.0313 306.071 83.5688C305.851 82.9326 305.652 82.2909 305.412 81.6601C305.337 81.4613 305.212 81.2427 305.049 81.1224C304.92 81.0309 304.69 81.0707 304.506 81.0596C304.55 81.4475 304.46 81.948 304.669 82.1984C305.087 82.7159 305.664 83.0921 306.17 83.5311ZM253.09 46.9454C250.779 45.775 248.979 44.8397 247.16 43.9534C246.561 43.6595 245.926 43.6381 245.293 44.0322C244.705 44.3922 245.177 45.4589 246.331 46.0909C249.285 47.7186 252.264 49.3178 255.259 50.8742C255.838 51.1736 256.532 51.2721 257.183 51.415C257.352 51.452 257.626 51.3512 257.748 51.2145C258.105 50.834 258.101 50.348 257.651 50.0363C255.999 48.8753 254.304 47.7585 253.09 46.9454ZM59.7521 55.1171C59.7372 54.9186 59.7791 54.6666 59.6768 54.5298C59.5929 54.4209 59.2186 54.3516 59.1682 54.4089C58.9211 54.7324 58.7119 55.0951 58.5581 55.4811C58.5224 55.5728 58.7486 55.7637 58.8601 55.9144C59.1571 55.6542 59.4578 55.3876 59.7521 55.1171ZM60.7194 58.6455L60.846 58.1574L60.4361 58.3438L60.7194 58.6455Z" fill="white"/>
<path d="M176.742 237.113C177.894 237.735 179.049 238.35 180.207 238.975L180.181 238.857C179.134 239.176 178.081 239.474 177.042 239.824C176.881 239.878 176.746 240.171 176.728 240.368C176.713 240.558 176.801 240.868 176.95 240.954C178.933 242.081 181.4 241.382 183.351 242.638C183.503 242.734 183.589 243.017 183.604 243.216C183.613 243.394 183.522 243.687 183.388 243.756C182.8 244.055 182.202 244.418 181.569 244.527C180.032 244.797 178.47 244.931 176.921 245.116C175.522 243.772 174.128 242.433 172.731 241.099C172.836 240.918 172.98 240.742 173.019 240.54C173.051 240.395 172.954 240.218 172.914 240.048C172.891 240.389 172.867 240.729 172.839 241.076C172.696 241.234 172.514 241.371 172.415 241.556C171.812 242.675 171.907 243.274 172.671 243.715C173.986 244.474 175.322 245.151 176.904 245.011C180.863 246.977 184.993 248.032 189.443 247.458L189.294 247.476C191.607 248.449 194.067 248.496 196.518 248.677C198.069 248.787 199.615 248.98 201.161 249.174C201.33 249.194 201.618 249.533 201.588 249.584C201.399 249.942 201.215 250.396 200.897 250.558C200.316 250.861 199.557 251.278 199.017 251.122C196.788 250.482 194.587 250.99 192.372 250.997C191.481 251.001 190.542 251.072 189.717 250.811C186.705 249.867 183.664 249.527 180.503 249.575C178.524 249.607 176.595 248.761 174.965 247.457C173.524 246.305 171.864 245.727 170.008 245.726L170.107 245.688C169.434 245.628 168.759 245.557 168.091 245.517C165.053 245.351 162.394 244.395 160.4 241.94C159.958 241.391 159.328 241.554 158.985 242.375C158.786 242.838 158.703 243.326 158.197 243.275C155.5 242.996 152.825 242.634 150.528 241.006C147.926 239.158 144.976 238.077 141.983 237.04C139.437 236.157 136.937 235.119 134.416 234.147C133.578 233.818 132.711 233.542 131.915 233.126C122.156 227.958 112.533 222.583 104.469 214.854C101.869 212.36 99.1459 210.002 96.485 207.568C95.6528 206.811 94.7334 206.117 94.0669 205.222C92.709 203.402 91.1271 201.85 89.3314 200.46C88.0763 199.493 86.973 198.235 86.6833 196.643C86.0386 193.154 84.0262 190.404 81.8154 187.893C78.3756 183.981 75.8122 179.48 72.7286 175.325C71.6814 173.909 70.9098 172.195 70.385 170.502C69.3857 167.283 68.5425 164.033 68.014 160.672C67.5027 157.416 67.5476 154.437 69.5325 151.672C69.916 151.143 70.2258 150.441 70.2639 149.807C70.38 147.482 72.222 146.37 73.5242 144.878L74.127 144.716C75.3814 145.415 75.7902 146.695 76.3896 147.87C77.4349 149.933 78.9532 151.37 81.3532 151.789C83.1963 152.111 84.4024 153.385 85.4484 154.879C86.7218 156.71 87.6971 158.655 88.0665 160.871L88.0365 160.759C88.4816 160.765 88.9422 160.85 89.3664 160.758C90.3262 160.561 91.1312 160.767 91.7995 161.463C92.1115 161.79 92.4236 162.117 92.676 162.488C98.1042 170.551 105.108 177.202 111.942 183.996C114.193 186.228 116.737 188.043 119.398 189.743C124.515 193.008 129.711 196.12 135.324 198.48C136.347 198.907 137.341 199.472 138.236 200.136C139.339 200.962 140.487 201.591 141.833 201.876C144.502 202.441 146.836 203.573 149.108 205.186C151.636 206.983 154.554 208.253 157.382 209.575C161.243 211.382 165.185 213.018 169.08 214.749C171.553 215.849 174.092 216.702 176.802 217.032C179.03 217.299 181.149 217.979 183.303 218.661C187.57 220.003 191.949 221.046 196.502 220.921C196.948 220.911 197.411 220.798 197.846 220.851C204.132 221.657 210.402 220.934 216.657 220.539C222.47 220.175 228.252 219.222 234.043 218.508C235.156 218.374 236.263 218.176 237.366 217.94C239.486 217.498 241.362 218.063 243.125 219.21C243.579 219.455 244.027 219.697 244.475 219.938C244.475 219.938 244.495 220.053 244.498 220.047C243.999 219.775 243.502 219.514 242.999 219.25C244.106 218.499 245.171 217.655 246.342 217.019C247.914 216.165 249.571 215.447 251.213 214.712C253.778 213.559 255.777 211.89 256.652 209.089C257.212 207.297 258.648 206.141 259.863 204.874C261.921 204.404 263.908 204.567 265.897 204.904C267.758 205.21 269.324 205.847 270.07 207.814C270.698 209.463 272.4 210.359 272.87 212.297C273.762 216.015 272.664 218.903 270.045 221.406C269.405 222.021 268.564 222.416 267.883 222.998C266.994 223.745 266.452 224.744 266.365 225.911C266.17 228.596 266.013 231.276 265.868 233.964C265.828 234.632 266.004 235.329 265.875 235.971C265.48 237.91 264.607 239.841 262.042 240.008C259.298 240.185 256.788 241.154 254.252 242.047C252.767 242.57 251.304 243.159 249.801 243.595C249.198 243.773 248.492 243.634 247.836 243.634L247.881 243.781C248.457 243.112 249.033 242.443 249.602 241.771C250.579 240.617 250.824 239.999 249.855 238.852C248.35 237.076 248.351 234.712 247.123 232.846C246.854 232.431 247.25 231.581 247.339 230.933L247.363 231.025C244.661 231.295 242.127 232.214 239.629 233.207C235.871 234.706 232.021 235.781 227.997 236.35C225.798 236.661 223.65 237.406 221.487 237.953L221.627 237.904C219.89 237.1 218.231 237.446 216.596 238.229L216.746 238.194C215.038 237.804 213.364 237.951 211.725 238.533L211.883 238.512C210.033 238.143 208.432 238.194 207.258 240.123C206.518 241.345 205.024 241.51 203.65 241.408C203.287 241.379 202.741 241.038 202.655 240.738C202.575 240.459 202.964 240.01 203.195 239.669C203.313 239.495 203.613 239.409 203.68 239.232C203.823 238.866 204.045 238.346 203.899 238.09C203.717 237.777 203.154 237.452 202.812 237.505C199.2 238.035 195.722 237.435 192.277 236.404C191.431 236.149 190.512 235.886 189.654 235.952C184.874 236.291 180.352 235.122 175.818 233.868C175.198 233.7 174.493 233.846 173.826 233.849L173.972 233.821C173.213 233.34 172.498 232.755 171.685 232.398C165.715 229.788 159.805 227.032 153.723 224.721C150.779 223.599 147.735 222.921 145.37 220.632C144.756 220.036 143.815 219.751 143 219.384C137.87 217.07 133.014 214.249 128.222 211.319C126.122 210.037 123.911 208.933 121.736 207.781C121.589 207.705 121.261 207.809 121.11 207.937C120.694 208.284 120.672 208.755 121.116 209.003C124.697 210.95 127.842 213.473 130.769 216.268C132.607 218.02 134.619 219.32 137.217 219.62C138.578 219.775 139.757 220.499 140.788 221.405C144.731 224.864 149.304 227.202 154.128 229.133C156.009 229.883 157.955 230.565 159.668 231.606C166.038 235.465 168.006 234.538 176.845 237.069C176.832 237.061 176.742 237.113 176.742 237.113ZM165.878 236.909C166.283 237.074 166.677 237.259 167.091 237.394C167.236 237.443 167.422 237.361 167.584 237.334C167.115 236.726 166.457 237.028 165.884 236.974C165.874 236.976 165.878 236.909 165.878 236.909ZM157.395 235.258C157.527 235.403 157.659 235.549 157.795 235.687C157.622 235.553 157.449 235.419 157.279 235.295C156.814 234.051 156.019 233.125 154.736 232.687C154.578 232.63 154.327 232.692 154.18 232.797C154.11 232.843 154.119 233.202 154.203 233.251C155.257 233.937 156.323 234.588 157.395 235.258ZM114.179 203.194C114.023 202.836 113.953 202.39 113.692 202.17C113.421 201.936 112.959 201.928 112.584 201.815C112.732 202.142 112.803 202.572 113.049 202.774C113.332 203.016 113.789 203.063 114.179 203.194ZM219.606 234.286C219.643 234.117 219.68 233.949 219.717 233.78C219.541 233.756 219.323 233.656 219.198 233.722C219.102 233.77 219.112 234.035 219.075 234.204C219.252 234.228 219.424 234.258 219.606 234.286Z" fill="white"/>
<path d="M131.594 112.575C128.995 112.905 126.978 111.628 125.11 110.109C124.682 109.759 124.619 108.954 124.39 108.364C124.319 108.427 124.886 108.314 124.421 108.477C123.926 107.734 123.24 107.053 122.987 106.234C122.521 104.739 122.223 103.176 122.002 101.616C121.388 97.2812 122.888 93.6665 125.927 90.6299C126.722 89.8368 127.668 89.2001 128.427 88.3782C129.674 87.026 130.527 85.5331 130.303 83.5299C130.063 81.3885 130.918 79.5774 132.513 78.1155C133.838 76.9121 135.148 75.691 136.336 74.5899C139.023 74.3024 141.487 74.1018 143.926 73.7492C146.856 73.3254 147.744 73.5965 148.925 75.7375C150.333 78.294 151.671 80.8966 153.06 83.4689C154.079 85.369 154.281 87.3073 153.433 89.3131C153.254 89.7278 153.099 90.147 152.907 90.5542C152.16 92.1608 152.545 93.6175 153.49 95.0008C153.995 95.7412 154.545 96.4643 154.994 97.2416C155.695 98.4494 155.479 99.7058 154.464 100.941C152.341 103.54 149.739 105.776 148.382 108.964C148.221 109.346 147.803 109.683 147.428 109.898C143.464 112.099 139.393 114.065 134.682 113.642C133.606 113.547 132.576 112.953 131.526 112.588C131.506 112.594 131.594 112.575 131.594 112.575Z" fill="white"/>
<path d="M245.934 133.403C246.717 132.974 247.5 132.546 248.28 132.107C250.186 131.049 250.607 131.111 252.348 132.746C252.998 133.355 253.547 134.138 254.307 134.542C255.271 135.056 256.372 135.346 257.45 135.588C258.487 135.825 259.196 135.12 259.066 134.061C258.987 133.419 259.016 132.771 259.005 132.221C261.188 131.013 263.447 131.048 265.664 130.842C267.18 130.699 268.324 131.377 269.132 132.491C270.307 134.119 271.331 135.859 272.374 137.583C272.809 138.309 272.567 140.224 271.901 140.763C270.338 142.036 268.866 143.345 267.655 144.994C267.246 145.552 266.015 145.515 265.158 145.745C263.765 146.124 262.832 146.768 262.619 148.423C262.47 149.563 261.137 149 260.345 149.234C259.656 149.441 259.348 150.334 259.839 150.859C260.45 151.505 261.042 152.201 261.756 152.699C262.456 153.19 263.305 153.455 264.024 153.793C263.919 155.502 262.58 156.758 263.201 158.42C263.556 159.376 263.102 160.176 262.286 160.706C258.293 163.331 253.799 164.716 249.218 165.861C247.147 166.383 245.136 166.008 243.485 164.666C241.917 163.389 240.324 162.185 238.573 161.166C237.179 160.352 236.807 158.557 237.545 156.98C238.014 155.973 238.607 155.021 239.197 154.075C239.43 153.7 239.793 153.4 240.123 153.099C240.951 152.351 241.802 151.625 243.008 150.569C243.391 149.262 243.919 147.555 244.39 145.842C244.563 145.199 244.843 144.445 244.662 143.875C243.533 140.374 245.29 137.27 245.891 134.017C245.931 133.798 245.987 133.58 246.037 133.359L245.934 133.403Z" fill="white"/>
<path d="M228.211 318.179C227.923 318.514 227.693 318.942 227.331 319.165C224.237 321.056 220.832 322.017 217.224 322.196C216.593 322.228 215.946 321.898 215.305 321.736L215.205 321.462L215.294 321.755C214.976 322.037 214.697 322.446 214.327 322.578C211.838 323.42 209.319 323.865 206.728 322.999L206.756 323.145C208.839 321.87 210.966 320.654 212.991 319.285C215.096 317.868 217.4 317.152 219.887 316.956C220.536 316.908 221.423 316.807 221.83 317.163C223.785 318.861 226.111 318.003 228.257 318.309C228.247 318.312 228.211 318.179 228.211 318.179Z" fill="white"/>
<path d="M129.289 322.19C131.526 321.591 133.767 322.151 135.909 322.507C139.404 323.092 142.813 324.171 146.264 325.058C146.435 325.105 146.65 325.316 146.684 325.482C146.772 325.912 146.483 326.203 145.931 326.204C141.192 326.231 136.717 324.786 132.187 323.69C131.146 323.444 130.244 322.629 129.279 322.072L129.289 322.19Z" fill="white"/>
<path d="M189.456 247.466C188.852 246.867 188.182 246.308 187.683 245.631C187.547 245.449 187.867 244.865 188.068 244.515C188.154 244.366 188.462 244.268 188.666 244.273C192.395 244.363 196.122 244.443 199.848 244.599C200.473 244.624 201.082 245.018 201.699 245.236L201.67 245.091C201.089 245.799 200.295 246.127 199.425 246.169C197.715 246.26 195.993 246.267 194.274 246.328C192.549 246.386 190.839 246.521 189.317 247.481C189.307 247.484 189.456 247.466 189.456 247.466Z" fill="white"/>
<path d="M169.46 317.195C170.097 317.856 170.55 318.567 170.005 319.496C169.684 320.052 169.442 320.725 168.983 321.133C168.031 321.973 166.956 322.682 165.975 323.411C164.372 322.658 163.489 321.526 163.368 319.851L163.235 319.887C163.408 319.796 163.663 319.745 163.721 319.614C163.864 319.291 163.903 318.925 163.991 318.579L164.04 318.702C164.882 318.126 165.721 317.54 166.563 316.964L166.411 316.989C167.449 317.433 168.497 317.727 169.602 317.174L169.46 317.195Z" fill="white"/>
<path d="M221.474 237.945C223.413 238.115 225.349 238.292 227.278 238.465C227.514 238.938 227.375 239.298 226.829 239.466C223.209 240.562 219.6 241.102 216.015 239.326L216.018 239.44C216.257 239.026 216.49 238.608 216.729 238.193L216.58 238.228C218.313 238.995 220 239.003 221.61 237.903L221.474 237.945Z" fill="white"/>
<path d="M180.207 238.975C181.956 238.923 183.707 238.821 185.449 238.825C187.234 238.828 188.909 239.337 190.448 240.26L190.428 240.145C186.815 241.288 183.394 240.919 180.184 238.867C180.188 238.861 180.207 238.975 180.207 238.975Z" fill="white"/>
<path d="M170.591 328.649C167.498 330.298 164.526 329.688 161.607 328.15L161.62 328.217C163.587 328.101 165.55 327.87 167.513 327.925C168.556 327.957 169.579 328.487 170.62 328.794L170.591 328.649Z" fill="white"/>
<path d="M242.695 320.516C244.294 319.392 245.808 318.1 247.882 317.933C248.091 317.915 248.387 317.94 248.493 318.07C248.828 318.462 248.705 318.84 248.251 319.148C246.551 320.298 244.707 320.77 242.673 320.39L242.695 320.516Z" fill="white"/>
<path d="M129.269 322.075C124.801 322.128 124.566 322.071 121.865 320.036C124.817 319.634 127.157 320.545 129.289 322.19L129.269 322.075Z" fill="white"/>
<path d="M170.62 328.794C172.51 328.047 174.44 328.039 176.396 328.434C176.495 328.457 176.612 328.792 176.588 328.968C176.564 329.144 176.395 329.392 176.245 329.443C174.239 330.107 172.363 329.767 170.598 328.652C170.591 328.649 170.62 328.794 170.62 328.794Z" fill="white"/>
<path d="M197.66 241.376C195.116 241.73 192.651 241.662 190.428 240.145L190.448 240.26C193.03 239.645 195.51 239.626 197.68 241.475L197.66 241.376Z" fill="white"/>
<path d="M189.466 328.763C190.731 327.62 192.181 327.516 193.721 328.034C193.872 328.086 194.041 328.331 194.054 328.503C194.069 328.658 193.931 328.941 193.794 328.983C192.299 329.449 190.821 329.571 189.435 328.624L189.466 328.763Z" fill="white"/>
<path d="M143.696 318.56C143.946 318.635 144.217 318.748 144.269 318.899C144.435 319.358 144.182 319.677 143.645 319.635C143.255 319.608 142.809 319.498 142.501 319.268C142.037 318.905 142.952 318.337 143.696 318.56Z" fill="white"/>
<path d="M105.832 308.06C106.202 308.377 106.228 308.72 105.845 309.009C105.712 309.105 105.471 309.104 105.295 309.08C104.791 308.996 104.551 308.633 104.848 308.269C105.011 308.061 105.497 308.117 105.832 308.06Z" fill="white"/>
<path d="M91.6793 302.591C91.3249 302.413 90.7977 302.324 90.6571 302.044C90.4236 301.581 90.7801 301.114 91.2822 301.231C91.5963 301.3 91.8415 301.787 92.0561 302.118C92.093 302.174 91.8163 302.429 91.6793 302.591Z" fill="white"/>
<path d="M113.592 317.392C113.483 317.148 113.359 316.869 113.235 316.591C113.6 316.706 114.016 316.748 114.315 316.963C114.53 317.114 114.588 317.493 114.722 317.769C114.525 317.75 114.331 317.758 114.15 317.697C113.959 317.639 113.793 317.508 113.592 317.392Z" fill="white"/>
<path d="M134.176 318.347C134.048 318.178 133.87 318.023 133.808 317.832C133.623 317.285 134.389 316.916 135.278 317.11C135.797 317.228 136.069 317.549 135.949 318.041C135.912 318.21 135.635 318.421 135.457 318.43C135.043 318.459 134.612 318.383 134.176 318.347Z" fill="white"/>
<path d="M307.856 72.1764C307.343 71.7503 306.804 71.3529 306.319 70.8917C306.193 70.7669 306.151 70.4662 306.196 70.2679C306.234 70.0826 306.467 69.7683 306.533 69.789C306.915 69.889 307.511 70.0086 307.587 70.251C307.772 70.8583 307.714 71.5414 307.752 72.1936C307.754 72.2038 307.856 72.1764 307.856 72.1764Z" fill="white"/>
<path d="M75.8856 30.4771C75.5373 29.9739 75.0933 29.5017 74.8825 28.9397C74.7845 28.6759 75.0899 28.2221 75.2898 27.9058C75.3636 27.793 75.782 27.741 75.8475 27.8219C76.0817 28.104 76.4141 28.4858 76.3701 28.7712C76.2775 29.3652 75.9689 29.9296 75.7466 30.5091C75.7503 30.5026 75.8856 30.4771 75.8856 30.4771Z" fill="white"/>
<path d="M207.385 327.799C207.063 327.863 206.667 327.98 206.26 328.013C206.088 328.026 205.736 327.814 205.744 327.784C205.843 327.435 205.905 326.953 206.155 326.804C206.798 326.407 207.703 326.679 207.683 327.177C207.673 327.344 207.523 327.516 207.385 327.799Z" fill="white"/>
<path d="M100.064 306.267C99.7908 306.023 99.5147 305.768 99.2386 305.514C99.4296 305.512 99.6301 305.464 99.7977 305.517C99.9783 305.578 100.158 305.716 100.276 305.871C100.319 305.93 100.143 306.131 100.064 306.267Z" fill="white"/>
<path d="M115.824 312.586C115.469 312.631 115.111 312.684 114.755 312.702C114.738 312.701 114.71 312.391 114.68 312.219C115.034 312.173 115.386 312.117 115.742 312.098C115.769 312.097 115.8 312.417 115.824 312.586Z" fill="white"/>
<path d="M176.27 324.106C175.63 324.168 174.982 324.259 174.337 324.284C174.142 324.293 173.818 324.166 173.77 324.026C173.587 323.55 173.877 323.302 174.469 323.488C175.09 323.683 175.686 323.967 176.294 324.214C176.301 324.218 176.27 324.106 176.27 324.106Z" fill="white"/>
<path d="M189.438 328.618C188.874 328.862 188.316 329.187 187.728 329.322C187.436 329.395 187.06 329.118 186.729 329.004C187.033 328.791 187.334 328.404 187.642 328.409C188.251 328.416 188.862 328.63 189.477 328.761C189.467 328.763 189.438 328.618 189.438 328.618Z" fill="white"/>
<path d="M239.99 144.881C239.819 144.981 239.522 145.198 239.49 145.162C239.22 144.868 238.961 144.554 238.79 144.206C238.733 144.095 238.923 143.738 239.07 143.676C239.543 143.501 239.905 143.727 240.028 144.247C240.076 144.447 240.009 144.667 239.99 144.881Z" fill="white"/>
<path d="M179.466 324.612C180.028 324.341 180.574 324.009 181.161 323.83C181.727 323.656 182.035 323.946 181.878 324.425C181.83 324.57 181.526 324.723 181.342 324.712C180.704 324.68 180.074 324.575 179.436 324.5C179.432 324.506 179.466 324.612 179.466 324.612Z" fill="white"/>
<path d="M212.627 326.465C213.219 326.246 213.794 325.939 214.406 325.835C214.677 325.785 215.014 326.143 215.329 326.316C215.225 326.481 215.156 326.691 215.002 326.792C214.845 326.9 214.589 326.985 214.411 326.934C213.798 326.77 213.204 326.557 212.603 326.357L212.627 326.465Z" fill="white"/>
<path d="M172.132 1.68918C171.767 1.79792 171.318 2.0824 171.057 1.96624C170.62 1.76584 170.623 1.20667 171.068 0.988865C171.358 0.845484 171.818 1.05067 172.208 1.09413C172.179 1.29339 172.15 1.49266 172.132 1.68918Z" fill="white"/>
<path d="M214.091 239.847C213.507 240.529 212.737 240.697 211.886 240.689C211.19 240.684 210.786 240.097 211.106 239.453C211.285 239.099 211.61 238.82 211.87 238.504L211.712 238.525C212.521 238.992 213.33 239.46 214.136 239.933L214.091 239.847Z" fill="white"/>
<path d="M240.584 242.633C240.3 243.453 239.807 244.084 238.951 244.341C238.773 244.394 238.517 244.358 238.363 244.252C237.928 243.957 237.918 243.572 238.341 243.229C239.014 242.676 239.746 242.365 240.613 242.762L240.584 242.633Z" fill="white"/>
<path d="M247.823 243.627C247.371 244.065 246.929 244.518 246.446 244.921C246.312 245.033 245.981 245.067 245.842 244.979C245.4 244.697 245.459 244.282 246.033 244.096C246.611 243.903 247.255 243.878 247.868 243.774L247.823 243.627Z" fill="white"/>
<path d="M283.749 51.9813C283.372 51.7812 282.941 51.6447 282.637 51.3652C282.398 51.1499 282.315 50.7563 282.16 50.4422C282.344 50.4365 282.546 50.3716 282.699 50.4344C282.879 50.5122 283.08 50.6717 283.164 50.8408C283.353 51.2172 283.478 51.6267 283.629 52.0242C283.639 52.0215 283.749 51.9813 283.749 51.9813Z" fill="white"/>
<path d="M173.8 233.834C175.077 234.658 176.148 235.674 176.742 237.113L176.826 237.058C175.629 236.185 174.432 235.313 173.946 233.806L173.8 233.834Z" fill="white"/>
<path d="M235.183 241.086C234.756 241.453 234.496 242.097 233.766 241.986C233.846 241.833 233.884 241.588 234.007 241.538C234.398 241.384 234.815 241.305 235.213 241.199C235.217 241.192 235.183 241.086 235.183 241.086Z" fill="white"/>
<path d="M240.835 239.73C242.342 238.287 242.342 238.287 243.757 239.829L243.859 239.802C242.845 239.734 241.82 239.669 240.806 239.602C240.802 239.608 240.835 239.73 240.835 239.73Z" fill="white"/>
<path d="M15.6134 104.786C15.418 105.14 15.2381 105.511 15.0233 105.853C14.9196 106.018 14.733 106.281 14.607 106.26C14.1315 106.201 14.1226 105.903 14.614 105.53C14.9368 105.285 15.3096 105.103 15.6509 104.886C15.6471 104.892 15.6134 104.786 15.6134 104.786Z" fill="white"/>
<path d="M284.743 82.3489C283.481 81.5596 282.632 80.4133 281.948 79.1295L281.871 79.1886C283.086 79.8812 284.3 80.5736 285.508 81.2625L285.474 81.1131C285.194 81.5385 284.917 81.9573 284.637 82.3826L284.743 82.3489Z" fill="white"/>
<path d="M311.724 79.1146C311.436 78.836 311.142 78.5538 310.854 78.2752C311 78.1868 311.148 78.1086 311.294 78.0203C311.392 78.4046 311.483 78.7853 311.584 79.1632L311.724 79.1146Z" fill="white"/>
<path d="M284.637 82.3826C284.843 82.6395 285.048 82.8964 285.254 83.1532C285.132 83.0655 284.964 83.0119 284.901 82.8976C284.807 82.7312 284.792 82.5326 284.74 82.3385C284.743 82.3488 284.637 82.3826 284.637 82.3826Z" fill="white"/>
<path d="M93.6667 15.7843C93.5208 15.8727 93.3684 15.9574 93.2224 16.0458C93.3674 15.9741 93.5123 15.9023 93.661 15.8242C93.6637 15.8344 93.6667 15.7843 93.6667 15.7843Z" fill="white"/>
<path d="M223.275 248.283C222.983 248.296 222.691 248.309 222.399 248.321C222.535 248.279 222.677 248.197 222.807 248.212C222.977 248.232 223.139 248.325 223.305 248.396C223.299 248.392 223.275 248.283 223.275 248.283Z" fill="white"/>
<path d="M201.685 245.246C202.104 244.849 202.444 244.812 202.715 245.15C202.556 245.231 202.393 245.395 202.24 245.376C202.037 245.354 201.848 245.202 201.657 245.1C201.667 245.097 201.685 245.246 201.685 245.246Z" fill="white"/>
<path d="M170.01 245.753C170.221 245.97 170.433 246.187 170.64 246.41C170.524 246.343 170.379 246.294 170.315 246.196C170.216 246.053 170.18 245.877 170.12 245.713C170.116 245.719 170.01 245.753 170.01 245.753Z" fill="white"/>
<path d="M202.983 324.014C202.662 324.001 202.341 323.989 202.02 323.976C202.174 323.935 202.34 323.842 202.479 323.87C202.664 323.908 202.834 324.032 203.01 324.116C203.013 324.126 202.983 324.014 202.983 324.014Z" fill="white"/>
<path d="M191.084 320.235C190.876 320.296 190.668 320.357 190.46 320.419C190.679 320.398 190.891 320.374 191.11 320.354L191.084 320.235Z" fill="white"/>
<path d="M194.043 323.618C194.36 323.577 194.678 323.536 194.995 323.494C194.853 323.576 194.716 323.722 194.573 323.717C194.385 323.712 194.205 323.591 194.015 323.516C194.019 323.51 194.043 323.618 194.043 323.618Z" fill="white"/>
<path d="M191.028 323.354C192.031 323.441 193.04 323.531 194.047 323.612C194.047 323.612 194.019 323.51 194.026 323.513C193.016 323.423 192.013 323.336 191.004 323.245C190.994 323.248 191.028 323.354 191.028 323.354Z" fill="white"/>
<path d="M179.432 324.506C178.378 324.373 177.324 324.239 176.27 324.106L176.294 324.214C177.348 324.348 178.402 324.482 179.456 324.615C179.466 324.612 179.432 324.506 179.432 324.506Z" fill="white"/>
<path d="M163.371 319.861C162.558 319.34 161.745 318.819 160.929 318.304L160.972 318.424C161.994 318.522 163.02 318.614 164.043 318.712L163.993 318.589C163.743 319.023 163.489 319.463 163.238 319.897L163.371 319.861Z" fill="white"/>
<path d="M152.42 319.763C152.753 319.455 152.98 319.077 153.107 318.649L153.045 318.665C153.589 319.713 153.589 319.713 152.417 319.693L152.42 319.763Z" fill="white"/>
<path d="M187.772 4.46011L187.67 4.48742C187.674 4.48095 187.772 4.46011 187.772 4.46011Z" fill="white"/>
<path d="M307.755 72.2039C307.895 72.8286 308.041 73.4571 308.185 74.0754L308.297 74.0452C308.147 73.4232 308 72.7946 307.856 72.1764L307.755 72.2039Z" fill="white"/>
<path d="M308.185 74.0754C308.185 74.0754 308.301 74.0388 308.297 74.0452L308.185 74.0754Z" fill="white"/>
<path d="M141.102 3.99347C140.489 4.17436 139.879 4.34882 139.265 4.52971L139.299 4.6357C139.909 4.46129 140.523 4.28026 141.126 4.10211C141.136 4.09937 141.102 3.99347 141.102 3.99347Z" fill="white"/>
<path d="M137.387 5.01668C138.021 4.8906 138.665 4.76178 139.299 4.6357C139.299 4.6357 139.265 4.52981 139.271 4.53355C138.631 4.65589 137.984 4.77438 137.343 4.89672L137.387 5.01668Z" fill="white"/>
<path d="M137.343 4.89672C137.101 5.36119 136.863 5.81919 136.627 6.28739L136.763 6.24528C136.336 5.99856 135.919 5.74918 135.492 5.50246L135.55 5.59638C136.161 5.40528 136.778 5.21791 137.389 5.02681C137.387 5.0166 137.343 4.89672 137.343 4.89672Z" fill="white"/>
<path d="M133.701 6.09165C134.314 5.92745 134.937 5.76057 135.553 5.5899L135.496 5.49598C135.249 5.92332 135.012 6.34791 134.765 6.77525L134.919 6.73415C134.491 6.48742 134.074 6.23805 133.647 5.99132L133.701 6.09165Z" fill="white"/>
<path d="M131.856 6.58052C132.469 6.41632 133.082 6.2522 133.695 6.088L133.64 5.98749C133.4 6.41857 133.157 6.83944 132.917 7.27052L133.064 7.22577C132.643 6.98278 132.219 6.72958 131.798 6.48659L131.856 6.58052Z" fill="white"/>
<path d="M130.018 7.07322C130.631 6.90902 131.244 6.7448 131.867 6.57787L131.809 6.48402C131.562 6.91137 131.325 7.33587 131.078 7.76322L131.232 7.72212C130.804 7.47539 130.387 7.22602 129.96 6.97929L130.018 7.07322Z" fill="white"/>
<path d="M128.064 7.58567C128.714 7.417 129.364 7.24829 130.014 7.07962L129.953 6.97546C129.713 7.40655 129.47 7.82741 129.23 8.25849C129.23 8.25849 129.385 8.24431 129.388 8.23784C128.948 7.98363 128.508 7.72941 128.068 7.4752L128.064 7.58567Z" fill="white"/>
<path d="M119.259 3.93525C119.901 3.79621 120.542 3.65724 121.184 3.51821L121.16 3.40958C120.541 3.57003 119.911 3.73323 119.286 3.88996L119.259 3.93525Z" fill="white"/>
<path d="M119.286 3.88996L119.078 3.99479L119.266 3.9389L119.286 3.88996Z" fill="white"/>
<path d="M116.222 14.7432C116.037 14.0923 115.862 13.4387 115.677 12.7878L115.587 12.8226C116.034 13.0805 116.474 13.3347 116.921 13.5927L116.842 13.4606C116.602 13.8917 116.355 14.319 116.115 14.7501L116.222 14.7432Z" fill="white"/>
<path d="M103.923 17.0699L104.282 16.8972L103.889 16.9204L103.923 17.0699Z" fill="white"/>
<path d="M93.6639 15.8345L93.8815 15.727L93.6667 15.7843L93.6639 15.8345Z" fill="white"/>
<path d="M246.053 133.377L245.941 133.407C245.934 133.403 246.053 133.377 246.053 133.377Z" fill="white"/>
<path d="M73.5297 144.898C73.5046 144.702 73.3817 144.407 73.4637 144.325C73.813 143.974 74.061 144.143 74.1325 144.737L73.5297 144.898Z" fill="white"/>
<path d="M239.009 240.187C239.529 239.676 240.124 239.467 240.835 239.73L240.802 239.608C240.303 240.174 239.703 240.346 238.984 240.095L239.009 240.187Z" fill="white"/>
<path d="M238.984 240.095C238.369 240.249 237.76 240.407 237.14 240.567L237.164 240.676C237.78 240.522 238.392 240.358 239.008 240.204C239.009 240.187 238.984 240.095 238.984 240.095Z" fill="white"/>
<path d="M240.616 242.755L240.588 242.627C240.584 242.633 240.616 242.755 240.616 242.755Z" fill="white"/>
<path d="M237.144 240.561C236.49 240.736 235.837 240.911 235.183 241.086L235.213 241.199C235.867 241.024 236.514 240.845 237.168 240.669L237.144 240.561Z" fill="white"/>
<path d="M239.8 246.817C239.183 246.987 238.563 247.164 237.947 247.335L237.968 247.433C238.59 247.267 239.207 247.096 239.83 246.929C239.827 246.935 239.8 246.817 239.8 246.817Z" fill="white"/>
<path d="M237.937 247.338L237.957 247.436C237.964 247.44 237.937 247.338 237.937 247.338Z" fill="white"/>
<path d="M216.015 239.326C215.372 239.498 214.734 239.675 214.087 239.853L214.132 239.94C214.762 239.777 215.388 239.603 216.018 239.44L216.015 239.326Z" fill="white"/>
<path d="M225.202 247.773C224.558 247.945 223.915 248.117 223.272 248.29L223.302 248.402C223.945 248.23 224.588 248.057 225.238 247.889C225.236 247.878 225.202 247.773 225.202 247.773Z" fill="white"/>
<path d="M197.687 241.479C197.687 241.479 197.663 241.37 197.666 241.38C197.669 241.39 197.687 241.479 197.687 241.479Z" fill="white"/>
<path d="M241.377 319.659C241.815 319.947 242.257 320.228 242.695 320.516C242.695 320.516 242.673 320.39 242.679 320.394C242.03 320.546 241.375 320.694 240.722 320.853L240.77 320.95C241.024 320.509 241.275 320.075 241.529 319.635L241.377 319.659Z" fill="white"/>
<path d="M205.472 322.395C205.899 322.642 206.322 322.895 206.743 323.138L206.715 322.992C206.103 323.156 205.5 323.318 204.887 323.482L204.911 323.59C205.146 323.183 205.379 322.764 205.615 322.357L205.472 322.395Z" fill="white"/>
<path d="M212.603 326.357L212.63 326.459C212.627 326.465 212.603 326.357 212.603 326.357Z" fill="white"/>
<path d="M204.894 323.486C204.257 323.662 203.62 323.838 202.983 324.014L203.013 324.126C203.65 323.95 204.291 323.768 204.928 323.591L204.894 323.486Z" fill="white"/>
<path d="M191.11 320.354L191.08 320.241C191.084 320.235 191.11 320.354 191.11 320.354Z" fill="white"/>
<path d="M189.152 323.85C189.775 323.683 190.404 323.52 191.024 323.36L191 323.251C190.377 323.418 189.754 323.585 189.131 323.752L189.152 323.85Z" fill="white"/>
<path d="M160.288 319.609C160.363 319.299 160.4 318.966 160.525 318.675C160.579 318.551 160.817 318.499 160.969 318.414L160.926 318.294C160.678 318.738 160.427 319.189 160.179 319.633L160.288 319.609Z" fill="white"/>
<path d="M152.417 319.693L152.416 319.77C152.42 319.763 152.417 319.693 152.417 319.693Z" fill="white"/>
<path d="M162.43 231.293C162.297 231.389 161.99 231.427 161.885 231.341C161.6 231.116 161.38 230.808 161.132 230.535C161.266 230.422 161.451 230.192 161.519 230.223C161.872 230.375 162.211 230.58 162.516 230.816C162.583 230.863 162.531 231.222 162.43 231.293Z" fill="white"/>
</svg>
