<svg width="556" height="46" viewBox="0 0 556 46" fill="none" xmlns="http://www.w3.org/2000/svg">
<path d="M147.254 28.0921C142.556 28.5134 137.852 28.1432 133.155 28.0921C130.774 28.0666 128.502 28.2772 126.345 29.4965C124.131 30.7476 121.743 30.2497 119.51 29.4581C118.793 29.2028 118.345 28.2516 117.718 27.6899C117.027 27.0771 116.156 27.0261 115.312 27.2814C114.71 27.4666 114.089 27.7345 113.603 28.1112C112.361 29.075 110.991 29.5156 109.436 29.4965C109.014 29.4901 108.585 29.5602 108.156 29.6049C105.404 29.9177 102.863 31.7242 100.041 31.1624C97.2186 30.6071 94.4987 31.5326 91.7403 31.2901C89.9803 31.1369 88.3803 31.4434 86.7739 32.1902C84.0795 33.435 81.4106 33.4222 78.8506 31.6859C77.9226 31.054 76.8603 31.0348 75.7723 31.354C74.8379 31.6221 74.5882 32.2668 75.3178 33.1349C75.6954 33.5882 75.8555 34.0031 75.3115 34.0861C74.2747 34.2456 73.161 34.3287 72.1434 34.1372C70.9146 33.9074 69.7499 33.0456 68.5467 33.0329C67.3371 33.0201 66.1403 33.8498 64.8923 34.0605C63.4267 34.3031 61.9163 34.3094 60.4251 34.3605C57.8331 34.4499 55.2987 34.7564 53.0587 36.2118C52.1179 36.8246 51.1195 37.067 50.0187 36.7287C48.5467 36.2755 47.081 36.2117 45.609 36.7479C45.4106 36.8181 45.2058 36.8883 45.001 36.9458C42.3386 37.6352 39.5227 37.0608 36.8795 38.4587C34.4603 39.7418 31.5867 40.1503 29.0587 41.2737C26.6587 42.3334 24.1882 42.9526 21.6282 43.0931C15.6314 43.425 9.80748 44.8293 3.91948 45.7932C2.65228 45.9975 1.39787 46.1953 0.226668 45.6272C-0.0357315 39.3141 -1.16211 39.129 5.85229 37.0033C7.89389 36.3841 9.91631 35.7074 11.9451 35.0499C13.6731 34.4882 15.049 33.6201 15.209 31.571C15.241 31.1689 15.3754 30.5816 15.657 30.4156C17.7626 29.2155 19.2667 27.5622 20.0667 25.2578C20.1819 24.9323 20.6875 24.6323 21.0651 24.5302C22.0955 24.2685 23.1578 23.9811 24.2074 23.962C27.9194 23.879 31.3626 22.8131 34.729 21.3704C37.673 20.1065 40.6619 18.9383 43.5739 17.5914C47.1131 15.9572 50.7418 14.8658 54.6842 14.8147C56.6042 14.7892 58.5242 14.5402 60.4378 14.3487C64.7066 13.9211 68.9499 13.6784 73.2123 14.5848C76.4123 15.2679 79.657 14.9933 82.7098 13.9146C84.9882 13.1039 87.2538 12.7975 89.6218 12.8102C93.481 12.8294 97.2955 12.5231 101.072 11.5975C102.704 11.1953 104.489 11.0485 106.147 11.2527C108.15 11.4953 109.852 11.1634 111.689 10.3655C112.982 9.80379 114.627 9.82283 116.092 9.93773C119.721 10.225 123.331 10.5762 126.966 10.0336C127.177 10.0017 127.395 9.99525 127.606 10.008C130.153 10.2187 132.713 10.6718 135.254 10.5761C137.788 10.4803 140.271 9.49729 142.883 9.94412C143.292 10.0143 143.753 9.99529 144.156 9.89316C148.796 8.68032 153.488 8.99308 158.185 9.38885C162.064 9.7144 165.859 8.90998 169.641 8.30994C171.977 7.93971 174.275 7.6334 176.636 7.60787C178.556 7.58872 180.489 7.48018 182.396 7.26953C184.316 7.05888 186.211 6.88653 188.15 7.10994C189.2 7.23123 190.281 7.09086 191.35 7.02065C193.052 6.91213 194.78 6.51636 196.444 6.70148C197.872 6.86106 199.228 7.65891 200.745 8.22064C203.235 7.02057 205.865 6.24812 208.681 6.08215C209.942 6.01194 211.19 5.56519 212.419 5.22049C214.307 4.69067 216.169 4.39069 218.083 5.09925C218.678 5.31628 219.344 5.546 219.951 5.49493C224.643 5.10555 229.327 5.68645 234.031 5.35452C239.145 4.99705 244.291 5.02251 249.423 4.95867C254.774 4.89484 260.067 4.36505 265.296 3.2352C265.712 3.14583 266.127 2.96076 266.543 2.96715C268.79 2.99906 270.697 2.22674 272.419 0.796864C273.116 0.215977 274.14 0.19679 274.742 0.91811C276.246 2.69907 278.185 3.3055 280.399 3.48424C282.966 3.6885 285.526 3.88639 288.066 3.33104C289.769 2.96081 291.446 3.07565 293.161 3.27353C294.633 3.44589 296.169 3.54804 297.616 3.29909C299.376 2.99269 300.969 2.99901 302.576 3.87353C303.542 4.40335 304.668 4.32035 305.711 4.01395C306.953 3.6501 308.182 3.46509 309.494 3.48424C318.902 3.58637 328.31 3.65647 337.718 3.682C340.297 3.68839 342.857 3.72045 345.347 4.4673C347.849 5.22054 350.428 5.07998 352.988 5.13743C354.025 5.15658 354.102 5.24598 355.164 7.24397C357.59 7.24397 360.137 7.24397 362.748 7.24397C363.312 6.03751 361.494 6.55464 361.564 5.71841C365.289 4.25024 366.556 3.98202 368.777 4.32034C369.622 4.44801 370.454 4.65872 371.286 4.86299C373.827 5.50132 376.176 5.43749 378.748 4.38423C381.686 3.19054 384.905 2.9672 388.201 3.5034C391.542 4.04599 394.934 4.70348 398.396 3.98216C399.375 3.77789 400.515 4.12251 401.545 4.37784C408.239 6.02475 415.024 6.63754 421.91 6.28008C425.756 6.08219 429.609 6.05676 433.372 7.18662C434.825 7.62069 436.355 7.54404 437.82 7.1355C441.622 6.08225 445.436 6.21625 449.263 6.9248C449.686 7.0014 450.108 7.10995 450.531 7.11633C453.302 7.15463 456.118 6.86739 458.832 7.28231C461.552 7.69723 464.163 8.80157 466.979 8.90371C469.564 8.99946 472.06 9.54203 474.524 10.3272C477.2 11.1762 479.932 11.5018 482.755 11.3166C485.961 11.0996 489.174 11.1761 492.329 11.8975C494.044 12.2869 495.702 12.0507 497.398 11.6486C501.027 10.7932 504.617 11.0357 508.016 12.6315C509.641 13.3975 511.266 13.5954 513.001 13.3146C514.268 13.1103 515.529 12.855 516.803 12.7337C519.171 12.4975 521.526 12.5423 523.683 13.7232C525.27 14.5977 526.908 14.6679 528.656 14.3487C529.699 14.1572 530.787 14.221 531.843 14.0997C533.372 13.921 533.084 15.6764 533.827 15.9892C535.427 16.6594 537.206 16.4488 538.844 15.8615C541.98 14.7508 545.174 15.0636 548.374 15.3444C550.985 15.5742 552.828 16.9914 553.552 19.449C553.98 20.9108 554.537 22.2131 555.395 23.4514C556.003 24.3323 555.708 25.2514 554.409 26.0366C553.404 26.643 552.809 27.3261 552.687 28.5198C552.623 29.1134 552.348 29.7709 551.964 30.2305C551.401 30.9071 550.537 31.2136 549.654 31.0795C549.039 30.9901 548.393 30.7603 547.887 30.4092C545.903 29.024 543.727 28.3283 541.321 28.0921C538.358 27.8049 535.465 27.0516 532.406 27.5751C531.011 27.8176 529.475 27.2175 528.003 27.0068C527.241 26.8983 526.838 27.275 526.883 28.0666C526.979 29.7582 526.71 30.3071 525.724 30.3008C524.444 30.3008 523.139 30.3901 521.897 30.154C517.66 29.3305 513.392 29.3048 509.11 29.3814C504.604 29.458 500.143 29.3879 495.734 28.2198C494.115 27.7921 492.336 27.6707 490.659 27.792C488.067 27.9771 485.539 27.8879 483.017 27.2814C482.192 27.0836 481.334 26.9878 480.483 26.9112C478.531 26.7324 476.649 26.9175 474.921 27.9835C474.21 28.4176 473.404 28.6985 472.502 29.1198C469.129 27.6452 465.494 27.4282 461.903 26.9431C459.363 26.5984 456.828 26.2537 454.281 25.9664C453.014 25.826 451.715 25.6791 450.447 25.7685C444.783 26.177 444.783 26.2153 440.54 24.9642C439.926 24.7855 439.344 24.5045 438.748 24.2684L438.793 24.2238C437.788 24.5366 436.777 24.8366 435.772 25.1557C435.1 25.3664 434.876 25.877 434.665 26.5281C434.268 27.7665 433.871 27.8686 432.918 27.3452C431.996 26.8345 431.107 26.2282 430.134 25.8516C429.34 25.5452 428.175 25.4557 427.747 26.1898C426.319 28.6282 424.047 27.8176 422.012 27.9198C420.931 27.9708 420.95 27.907 420.611 26.0048C420.54 25.6218 420.297 25.194 419.996 24.9514C419.683 24.7025 419.209 24.5557 418.806 24.5493C417.103 24.5047 415.375 24.3515 413.705 24.5749C411.587 24.8622 409.52 25.277 407.35 24.9514C406.326 24.7982 405.238 25.1238 404.176 25.1877C403.113 25.2451 401.974 25.5005 401.001 25.2196C398.236 24.4153 395.491 24.76 392.732 25.0217C390.166 25.2707 387.638 25.2451 385.091 24.6386C383.228 24.1982 381.27 24.179 379.382 23.8216C377.436 23.4513 375.606 23.4386 373.769 24.3578C372.841 24.8238 371.721 25.1749 370.703 25.1366C365.167 24.9195 359.599 26.2026 354.089 24.6898C353.078 24.4153 351.958 24.3769 350.902 24.4663C348.105 24.7088 345.347 24.5366 342.62 23.9366C340.636 23.4961 338.819 24.2301 336.943 24.5875C336.079 24.7535 335.388 24.0577 335.369 23.03C335.363 22.8194 335.42 22.6087 335.472 22.3981C335.632 21.7406 335.638 21.0831 334.94 20.7575C334.121 20.3809 333.276 20.4639 332.502 20.9554C332.329 21.0639 332.137 21.2363 332.073 21.4214C331.427 23.2534 330.057 23.9429 328.201 24.2557C324.815 24.8239 321.481 25.4812 318.038 24.6323C316.419 24.2365 314.627 25.0982 313.059 23.9747C312.502 23.5726 311.817 23.7003 311.299 24.1471C310.063 25.2004 308.591 25.3409 307.075 25.3217C301.731 25.2451 296.387 25.1493 291.049 25.0854C288.591 25.0535 287.068 23.8024 286.256 21.5746C286.108 21.1724 286.019 20.7576 285.903 20.3426C286.07 20.3235 286.249 20.33 286.403 20.2725C286.518 20.2278 286.608 20.1065 286.71 20.0171C286.46 20.1511 286.21 20.2853 285.961 20.4193C285.526 20.4257 285.097 20.432 284.662 20.4383L284.726 20.3746C284.265 22.1364 283.254 23.362 281.507 24.0578C278.402 25.2962 275.324 25.7047 272.195 24.2238C270.966 23.6429 269.731 23.6428 268.451 24.0067C267.631 24.2365 266.793 24.4216 265.967 24.6514C264.252 25.1429 262.582 25.1175 261.001 24.2238C259.017 23.1003 256.963 23.0046 254.806 23.6174C254.198 23.7897 253.545 23.8088 252.918 23.8854C252.291 23.962 251.894 23.2981 252.156 22.5768C252.374 21.9832 252.662 21.4151 252.847 20.8214C252.892 20.6746 252.745 20.3427 252.598 20.2725C252.233 20.1002 251.791 19.8767 251.426 19.9342C250.089 20.164 249.27 21.2427 248.291 22.0533C247.273 22.8896 246.172 23.3811 244.828 23.5216C242.928 23.7194 241.02 24.0131 239.164 24.4727C237.008 25.0025 234.883 25.0153 232.86 24.2302C231.215 23.5918 229.737 23.0173 228.022 24.0578C227.638 24.294 226.825 23.8344 226.211 23.7003C225.795 23.6109 225.347 23.3938 224.969 23.4768C223.529 23.7832 222.076 24.562 220.694 24.4407C219.305 24.3131 218.083 23.2025 216.502 23.1131C213.052 22.9216 209.712 22.8704 206.576 24.7918C205.571 25.411 204.124 25.3856 202.863 25.5005C202.025 25.5771 201.142 25.4812 200.316 25.277C197.923 24.6897 195.683 25.0792 193.443 25.992C189.731 27.4985 185.884 27.2814 182.089 26.426C180.239 26.0047 178.505 25.1047 176.559 24.3578C175.446 24.6387 174.223 25.028 172.975 25.2323C171.715 25.4429 170.428 25.4812 169.148 25.5642C167.817 25.6536 166.748 26.2728 165.66 27.0005C164.457 27.8111 164.003 27.709 163.164 26.2345C162.441 24.9706 161.513 24.3259 160.124 24.3195C158.863 24.3195 157.609 24.4344 156.041 24.511C156.777 25.2898 157.276 25.8133 157.891 26.4644C155.843 27.1027 153.673 27.2239 151.996 28.7367C151.497 29.1899 150.352 29.1198 149.552 28.9985C148.739 28.8709 147.983 28.373 147.209 28.041C147.388 27.9325 147.567 27.824 147.747 27.7091C147.574 27.824 147.414 27.9581 147.254 28.0921ZM125.539 25.858C128.751 26.9878 130.601 26.726 132.425 26.7388C133.008 26.7452 133.59 26.5026 134.217 26.3621C134.038 26.1132 133.955 25.8579 133.827 25.8324C131.587 25.4366 129.353 25.4558 125.539 25.858ZM260.195 20.5214C260.111 20.1129 260.118 19.8129 260.041 19.7938C259.65 19.6852 259.241 19.6214 258.838 19.615C258.735 19.615 258.627 19.8639 258.524 19.9979C259.049 20.1639 259.567 20.3235 260.195 20.5214ZM527.247 16.7233C527.094 16.8382 526.934 16.9532 526.78 17.0681C527.139 17.151 527.497 17.2276 527.856 17.3106C527.849 17.1446 527.907 16.8829 527.83 16.8318C527.676 16.736 527.446 16.7552 527.247 16.7233Z" fill="#EB539F"/>
<path d="M157.219 28.6538C157.097 28.7432 156.976 28.9027 156.86 28.9027C156.739 28.9027 156.623 28.7368 156.508 28.6474C156.63 28.558 156.752 28.3921 156.867 28.3985C156.988 28.3921 157.104 28.558 157.219 28.6538Z" fill="#EB539F"/>
</svg>
