<svg width="658" height="594" viewBox="0 0 658 594" fill="none" xmlns="http://www.w3.org/2000/svg">
<path d="M435.836 383.981C437.863 386.376 439.667 388.973 441.937 391.083C445.484 394.391 449.558 396.298 454.727 395.121C462.043 393.437 466.562 397.273 469.704 403.38L469.988 403.137C469.988 404.984 469.988 406.83 469.988 408.677L469.644 408.21C471.407 409.975 473.15 411.72 474.914 413.486L474.63 413.344C479.717 420.202 485.858 425.681 494.27 428.096L493.966 427.792C498.181 432.641 503.411 435.99 509.37 438.283L509.086 437.999C521.307 451.432 533.813 464.5 548.163 475.742C551.73 478.542 553.919 483.128 556.736 486.882L557.041 486.598C548.265 482.844 539.347 479.374 530.733 475.255C521.45 470.79 512.024 466.793 503.268 460.99C492.77 454.009 481.622 447.698 469.907 442.706L470.211 442.402C473.292 447.292 476.372 452.183 479.453 457.073L479.757 456.769C476.656 456.059 473.109 456.079 470.535 454.496C440.295 435.929 411.251 415.84 384.861 391.834C370.572 378.827 355.918 366.246 342.805 351.981C341.183 350.215 339.197 348.754 337.454 347.09C331.616 341.449 324.32 337.817 318.017 332.926C312.402 328.564 308.511 322.07 303.403 316.977C297.728 311.336 289.357 312.675 284.715 319.635C279.75 327.042 279.933 334.875 283.885 342.545C285.324 345.345 287.878 347.577 289.925 350.053L289.621 349.667C294.506 353.766 298.457 359.184 305.45 360.24C314.145 361.559 319.719 367.24 324.178 374.302L323.935 374.038C332.549 375.073 337.88 381.364 343.899 386.538C343.757 387.289 343.879 388.242 343.453 388.75C338.751 394.371 338.893 394.249 341.69 398.125C348.804 408.007 357.479 416.347 367.248 423.429C377.058 430.531 385.51 439.094 394.59 446.988C409.73 460.137 425.479 472.576 440.984 485.32C444.085 487.877 447.47 490.149 450.186 493.071C452.294 495.344 453.531 498.408 455.152 501.107L455.435 500.782C452.476 499.727 449.213 499.159 446.598 497.535C432.958 489.053 420.857 478.522 408.352 468.498C400.265 462.004 392.543 454.861 382.125 452.102L382.591 452.467C380.828 450.701 379.065 448.916 377.281 447.15L377.727 447.536C372.092 441.185 366.275 435.077 357.762 432.56L358.229 432.987C357.377 430.288 355.615 428.522 352.919 427.67L353.385 428.096C349.858 418.336 340.778 414.095 333.481 408.088L334.028 408.575C329.59 404.496 325.07 400.539 319.071 398.875C317.409 397.09 315.746 395.304 314.064 393.519L314.45 394.066C312.666 392.281 310.882 390.495 309.099 388.709L309.585 389.176C307.801 387.39 306.018 385.605 304.254 383.819L304.761 384.184C302.998 382.419 301.235 380.633 299.471 378.868L299.957 379.314C298.174 377.549 296.41 375.763 294.627 373.998L295.033 374.444C293.29 372.841 291.546 371.258 289.823 369.655C288.242 368.032 286.662 366.408 285.081 364.785C283.479 363.162 281.878 361.538 280.277 359.915C278.534 358.17 276.811 356.445 275.068 354.7C274.156 353.523 273.406 352.163 272.332 351.209C270.69 349.769 269.494 350.175 269.514 352.042C269.514 352.549 270.386 353.32 270.994 353.523C272.392 353.969 273.893 354.132 275.352 354.416C277.095 356.161 278.838 357.906 280.581 359.631C282.182 361.254 283.763 362.878 285.365 364.501C286.966 366.104 288.546 367.727 290.148 369.33C290.006 371.035 289.863 372.76 289.701 374.464L289.925 374.079C286.702 374.282 283.418 374.911 280.277 374.545C277.196 374.18 273.69 373.49 271.339 371.684C266.252 367.768 261.812 362.999 257.009 358.677C253.421 355.451 247.483 354.943 243.47 357.683C240.167 359.935 236.659 362.188 234.045 365.17C228.187 371.826 222.877 378.949 217.304 385.848C215.297 388.344 213.635 391.57 211.02 393.031C204.19 396.867 200.582 402.711 197.805 409.671C193.245 421.136 185.158 430.247 176.827 439.054C173.382 442.686 170.585 446.399 169.795 451.412C168.964 456.647 165.822 459.873 161.262 462.349C156.803 464.764 153.925 468.944 152.992 473.814C151.351 482.499 144.885 489.439 144.581 498.53C139.23 510.279 134.224 522.19 128.448 533.716C124.475 541.65 119.692 549.118 117.057 557.722C113.895 568.071 107.267 576.309 99.7673 583.716C94.5584 588.85 88.4989 592.725 80.27 591.041C77.3513 590.453 74.0069 591.528 70.9464 592.238C56.7788 595.566 55.6433 595.181 52.1774 582.153C50.86 577.222 48.9141 573.468 44.4957 570.506C41.273 568.334 38.8206 564.865 36.4289 561.679C35.0304 559.792 34.3419 557.336 33.5312 555.063C31.3422 548.935 37.8685 542.685 32.9433 536.374C28.2208 530.327 31.8488 524.037 33.4095 517.888C33.7946 516.346 33.855 514.723 34.0983 512.978C31.889 509.934 29.5992 506.789 27.0251 503.258C32.2746 491.448 38.0503 479.922 45.0024 469.046C46.6644 466.448 49.4818 464.602 51.7519 462.41L51.448 462.146C51.4886 466.955 51.549 471.765 51.5896 476.574C47.698 478.786 47.3539 482.641 46.9688 486.476L46.7056 486.192C49.7053 483.554 51.0222 480.165 51.2452 476.249C57.2243 472.86 59.6775 466.894 62.1502 461.03C73.7842 433.575 92.512 410.686 109.659 386.781C111.017 384.894 115.151 383.839 115.901 385.158C116.57 386.355 116.955 387.898 116.894 389.277C116.813 390.82 116.002 392.321 115.638 393.884C115.273 395.426 115.07 397.009 114.786 398.592C111.584 401.027 110.429 404.517 109.882 408.311C106.294 410.828 105.483 414.582 105.301 418.62C104.044 419.594 102.727 420.507 101.552 421.562C100.964 422.09 100.457 422.8 100.173 423.53C99.9501 424.099 100.113 424.829 100.113 425.479C101.227 424.626 102.646 423.977 103.376 422.861C104.227 421.562 104.49 419.878 104.997 418.356C108.159 415.657 109.233 412.004 109.598 408.048C112.922 405.653 114.239 402.264 114.462 398.328C131.751 385.747 142.513 367.991 152.668 349.789C153.397 348.49 153.215 346.664 153.458 345.081C158.08 341.023 162.903 337.168 167.281 332.866C170.646 329.558 172.733 325.398 172.895 320.487C182.462 319.331 188.057 313.142 192.049 305.086C192.637 303.909 192.515 301.88 191.846 300.804C191.401 300.114 188.786 299.81 188.117 300.419C181.713 306.121 175.085 311.762 173.301 320.853C163.045 326.047 155.972 333.799 153.843 345.447C149.709 346.542 146.912 349.404 144.419 352.63C141.46 356.465 138.662 360.422 135.662 364.237C133.088 367.484 128.468 369.087 127.576 367.22C125.914 363.791 127.656 360.706 129.582 358.535C143.02 343.417 151.371 324.546 165.883 310.159C171.538 304.558 175.592 297.273 180.091 290.577C183.111 286.092 182.361 281.243 179.827 276.819C178.246 274.059 176.24 271.442 174.051 269.128C160.755 255.025 146.182 241.937 134.204 226.799C110.652 197.01 84.3637 169.474 62.5956 138.285C59.3324 133.598 55.6027 129.519 51.5896 125.501C48.2048 122.133 44.9011 118.237 43.0161 113.914C38.7192 104.093 32.538 95.7327 25.4239 87.9609C15.4721 77.1046 8.82351 64.1381 1.97283 51.3136C-1.3917 45.023 -0.276471 38.7729 3.97987 33.1317C4.95275 31.8533 6.08761 30.6562 7.36451 29.7025C10.8304 27.0645 12.574 23.6555 12.4524 19.313C12.27 12.4543 14.7215 6.73184 19.667 1.9835C21.8357 -0.106578 26.1131 -0.654314 28.5453 0.867589C34.1596 4.3984 38.4966 9.04505 41.3139 15.0921C42.6719 18.0141 43.6453 21.2204 45.4289 23.8381C46.645 25.6238 49.2387 27.998 50.8196 27.7342C57.3055 26.679 61.3184 31.265 66.3246 33.4971L65.8585 33.1114C68.2907 38.5903 70.5813 44.1302 73.1959 49.5076C74.8376 52.876 77.0473 55.94 80.7361 57.4619L80.4719 57.7054C80.4719 54.4181 80.4521 51.1105 80.4521 47.8232C82.1951 47.9246 83.9379 48.0464 85.7012 48.1479L85.2559 47.7015C87.0598 49.5075 88.8635 51.2933 90.6674 53.0993L90.221 52.5107C91.9438 55.9604 93.6672 59.3897 95.39 62.8393L95.0248 62.5755C96.3625 68.7037 99.7272 73.4521 104.733 77.1453L104.449 76.8612C104.936 80.4529 105.402 84.0244 105.869 87.5958C103.639 87.5755 101.429 87.5754 99.22 87.5754C97.8215 85.6883 96.4036 83.8214 95.0051 81.9342C92.7553 78.7281 89.8157 78.099 86.7552 80.3717C84.6271 81.9342 84.7088 84.6127 85.4182 86.9463C87.7896 94.7384 91.7613 101.638 96.7271 108.131C102.585 115.802 107.997 123.797 113.672 131.609C116.976 136.175 119.895 141.187 123.928 145.002C130.495 151.191 135.44 158.395 140.041 165.984C143.365 171.463 145.878 178.118 150.621 181.893C155.83 186.032 160.065 190.273 163.146 196.036C163.835 197.315 165.559 198.147 166.957 198.918C173.16 202.327 176.463 207.217 176.078 214.583C175.957 216.836 176.564 219.758 177.963 221.361C184.813 229.133 191.117 237.533 200.805 242.363C205.669 244.798 210.108 244.068 214.77 242.505C221.256 240.334 223.566 234.125 219.391 229.336C211.993 220.833 204.514 212.412 193.873 207.643C184.489 203.443 178.125 196.544 176.361 186.113C175.49 180.959 172.895 177.266 168.335 174.852C166.592 173.127 164.849 171.402 163.126 169.677C161.464 163.955 157.411 159.815 153.743 155.412C151.999 153.666 150.235 151.901 148.492 150.156C144.216 145.631 141.075 139.909 134.021 138.488C131.164 137.92 127.94 136.013 126.157 133.74C116.468 121.281 105.179 109.978 97.7811 95.8139C96.3623 93.0745 95.8765 89.8482 94.9645 86.845H97.2951C97.2951 86.845 99.5649 87.3929 99.5852 87.3726C101.592 87.3929 103.598 87.4333 105.585 87.4536C115.192 93.4397 124.009 101.313 130.109 109.795C142.351 126.78 155.121 143.338 168.944 159.085C177.963 169.352 187.184 179.437 196.467 189.482C197.318 190.395 199.184 190.537 200.623 190.72C202.427 190.943 201.778 187.229 199.569 184.531C192.455 175.866 185.563 167.019 178.266 158.496C171.476 150.542 164.16 143.054 157.289 135.14C148.777 125.339 141.399 114.828 139.392 101.516L139.129 101.78C150.662 109.511 160.491 119.089 169.186 129.823C191.096 156.974 216.149 181.122 240.937 205.533C243.734 208.293 247.341 210.505 250.949 212.108C254.658 213.772 258.955 213.974 262.664 211.763C266.819 209.287 270.812 206.487 274.683 203.605C288.952 193.013 303.2 182.38 317.348 171.645C319.901 169.717 322.151 167.303 324.198 164.827C335.244 151.434 349.25 142.303 364.796 134.876C380.058 127.591 395.441 120.388 408.433 109.044C411.98 105.94 416.643 104.032 420.899 101.78C428.054 98.0258 435.512 94.8197 442.382 90.6396C445.666 88.6509 447.916 84.9779 450.652 82.0761L450.348 82.3602C455.598 80.5948 460.928 79.0121 466.097 77.0437C471.225 75.0957 472.137 72.4376 470.617 65.5383C470.272 64.0164 469.907 62.4944 469.38 60.3231C470.921 59.1665 472.501 57.4621 474.467 56.6504C478.845 54.8241 483.446 53.5457 487.905 51.8615C496.418 48.6756 503.39 50.8264 509.086 57.7257L508.842 57.4619C512.227 55.8385 515.632 54.2357 519.017 52.6123L518.733 52.8962C520.334 52.7744 521.956 52.734 523.558 52.531C532.82 51.3541 540.542 48.0667 544.737 38.773C546.582 34.674 551.284 32.9086 555.034 34.187C566.465 38.1236 577.471 35.4249 588.314 32.7463C600.11 29.8243 612.11 28.485 624.007 26.3949C629.581 25.4209 633.289 27.8355 636.451 31.8736C637.424 33.1317 638.276 34.4915 639.553 36.3583C637.283 42.6895 634.891 49.4062 632.479 56.1634C620.521 63.5903 607.914 69.1704 594.963 73.4317C574.309 80.2295 553.736 87.3521 532.414 91.999C513.342 96.1588 495.466 103.484 478.927 113.854C474.062 116.897 468.995 118.906 463.502 120.489C449.598 124.487 436.181 130.432 421.344 130.574L421.507 130.879C419.703 129.276 417.898 129.174 416.074 130.879L416.237 130.574C408.575 131.528 402.069 134.714 396.819 140.416L397.063 140.274C394.955 141.126 392.766 141.816 390.76 142.851C386.706 144.961 387.151 147.254 392.097 150.46L391.752 150.258C391.185 150.846 390.618 151.414 390.05 152.003C377.443 164.969 364.006 176.394 344.649 177.145C332.468 181.812 321.077 187.92 311.024 196.32C307.294 199.445 303.93 202.976 300.16 206.061C295.579 209.815 292.317 213.772 292.702 220.366C292.864 223.268 290.532 226.292 289.316 229.275C288.364 231.629 287.736 234.875 289.904 235.89C295.539 238.487 294.444 246.421 300.93 248.491C306.747 246.746 312.909 244.879 319.09 243.012L318.929 242.667C317.368 245.285 315.584 247.822 314.388 250.602C314.003 251.515 315.078 253.158 315.726 254.356C315.828 254.559 317.347 254.417 317.773 253.99C321.563 250.297 325.272 246.503 329.002 242.728L328.657 243.094C338.893 240.293 348.824 237.087 356.08 228.483C358.107 226.089 361.127 224.506 363.843 222.761C367.248 220.569 371.14 219.027 374.22 216.491C391.307 202.367 411.109 193.277 431.397 185.079C439.241 181.913 445.484 177.286 449.598 169.819C452.882 163.873 458.03 160.18 464.151 157.502C471.569 154.235 478.967 150.927 486.162 147.214C493.499 143.419 501.222 141.37 509.329 140.375C505.985 143.703 502.62 147.031 499.276 150.359L498.992 150.054C508.255 150.034 515.551 145.205 522.807 140.274C522.686 140.598 524.145 139.239 523.091 140.538C518.349 140.598 513.585 140.639 508.842 140.7C516.483 133.557 526.131 130.128 535.495 126.13C539.123 124.568 539.59 122.884 538.211 116.451L538.434 116.816C538.84 113.691 539.042 110.526 539.711 107.461C540.988 101.557 544.555 97.7416 550.555 96.3009C558.216 94.4746 565.877 92.689 573.457 90.5786C576.457 89.7467 579.234 88.0827 582.112 86.784L581.829 87.0885C588.315 89.1582 594.415 87.0274 600.415 85.0996C609.535 82.1776 618.758 80.2297 628.365 80.9399C629.054 81.0008 630.128 81.6095 630.29 82.1777C630.675 83.6184 631.344 85.7086 630.676 86.5812C627.798 90.3149 624.493 93.7036 621.331 97.1938C615.616 96.7474 610.549 98.7767 605.623 101.293C603.86 102.023 602.076 102.774 600.313 103.505C600.86 103.505 601.549 103.728 601.955 103.484C603.15 102.754 604.225 101.841 605.36 101.009C610.812 100.461 616.427 100.501 621.068 96.8691C628.121 95.6719 635.155 94.3934 642.208 93.2774C644.478 92.9121 647.558 92.5673 647.984 95.4285C648.268 97.4171 646.484 99.6896 645.613 101.841C645.714 101.536 644.357 102.713 645.33 101.557C649.201 102.307 653.133 102.835 656.903 103.951C657.592 104.154 658.382 107.238 657.794 108.009C655.909 110.505 653.781 113.245 651.085 114.584C646.079 117.1 640.647 118.845 635.316 120.631C630.553 122.214 626.56 124.791 623.784 128.951C621.412 132.502 618.231 134.592 614.218 135.749C606.475 137.981 598.854 140.659 591.051 142.648C581.666 145.043 572.444 147.538 563.911 152.469C556.148 156.954 547.251 158.374 538.414 159.429C528.645 160.586 519.787 163.833 511.498 169.352C502.802 175.135 493.581 180.432 483.325 182.786C464.901 187.006 448.686 195.894 433.181 206.04C422.398 213.102 410.521 218.134 400.163 226.069C393.901 230.878 385.692 233.049 377.362 232.846L377.605 233.171C377.484 231.507 377.382 229.863 377.261 228.199L377.524 228.463C370.896 228.97 366.093 232.095 363.458 238.325C360.093 239.786 356.75 241.247 353.385 242.728C351.683 244.514 349.979 246.3 348.257 248.085L347.953 247.761C349.655 245.975 351.358 244.189 353.061 242.404C356.425 240.943 359.79 239.502 363.154 238.041C366.316 238.061 369.498 238.102 372.66 238.122L372.335 237.878C368.261 245.366 360.64 248.775 354.215 253.524C350.202 256.507 347.101 259.936 346.311 265.171C345.946 267.505 345.177 269.981 343.879 271.949C338.63 280.025 338.528 288.264 340.919 297.456C342.703 304.294 345.298 309.408 352.128 311.843C364.492 316.246 374.869 323.775 384.78 332.236C393.982 340.11 403.65 347.415 413.014 355.085C418 359.184 422.925 363.405 425.823 369.412L426.127 369.148C426.148 370.994 426.148 372.861 426.168 374.708L425.723 374.16C427.344 375.641 428.944 377.122 430.566 378.604L431.397 379.659C432.877 381.14 434.336 382.601 435.816 384.083L435.836 383.981ZM211.831 204.113L212.136 203.828C213.798 205.411 215.459 206.974 217.121 208.557C217.223 212.006 218.358 214.888 221.722 216.328C223.526 217.099 224.985 216.47 225.614 214.644C225.837 213.975 225.675 212.94 225.269 212.331C223.263 209.287 220.161 208.699 216.797 208.861C215.155 207.278 213.493 205.695 211.831 204.113ZM391.996 218.54L391.895 218.439L392.543 217.911L391.996 218.54ZM187.712 272.192C186.009 270.488 184.307 268.783 182.604 267.099C182.624 262.96 181.611 259.145 178.287 256.507C177.335 255.736 175.551 255.999 174.152 255.797C173.97 257.197 173.179 258.901 173.686 259.956C175.49 263.731 178.814 265.841 182.847 266.876C184.57 268.56 186.273 270.265 187.996 271.949C187.996 271.929 187.712 272.192 187.712 272.192ZM328.799 325.804C327.096 324.1 325.394 322.415 323.691 320.711C322.921 315.09 319.861 311.762 314.085 311.173L314.429 310.829C316.132 315.496 319.334 318.661 323.956 320.427C325.658 322.111 327.38 323.815 329.083 325.5C330.684 327.123 332.265 328.746 333.866 330.37C340.048 339.136 347.284 346.563 358.067 349.485C359.81 351.21 361.553 352.914 363.296 354.639C364.856 356.283 366.397 357.946 367.958 359.59C368.667 362.106 370.289 363.709 372.822 364.399C379.632 375.844 389.543 383.596 401.765 388.588C403.488 390.333 405.211 392.078 406.934 393.843C406.934 393.843 406.65 394.147 406.65 394.127C404.927 392.362 403.205 390.617 401.482 388.851C397.894 384.529 394.611 379.923 390.679 375.925C385.591 370.751 380.058 366.002 372.478 364.744C370.876 363.121 369.275 361.498 367.674 359.854C366.113 358.21 364.553 356.567 362.972 354.903C361.249 353.198 359.506 351.473 357.783 349.769C353.567 338.527 344.71 333.15 333.603 330.633C332.022 329.03 330.4 327.427 328.799 325.804ZM430.952 413.527C429.249 411.802 427.547 410.077 425.844 408.352C425.034 407.236 424.405 405.917 423.392 405.024C421.912 403.705 420.716 404.07 420.615 405.694C420.595 406.12 421.486 406.789 422.094 406.992C423.412 407.459 424.79 407.703 426.148 408.048C427.851 409.772 429.553 411.497 431.256 413.222C432.877 414.866 434.498 416.53 436.14 418.173C436.687 418.478 437.215 418.802 437.762 419.107C437.113 418.904 436.465 418.701 435.816 418.478C434.195 416.834 432.573 415.17 430.952 413.527ZM265.522 291.206C268.704 288 267.63 284.733 265.684 281.425C264.772 280.167 264.082 278.584 262.886 277.712C260.839 276.21 258.225 275.947 256.583 278.097C255.246 279.822 254.698 282.176 254.009 284.327C253.908 284.652 254.921 285.727 255.489 285.788C259.806 286.214 262.684 283.15 265.967 281.182C265.906 284.631 265.867 288.061 265.806 291.49L265.522 291.206ZM548.224 130.94C548.751 130.595 549.278 130.27 549.785 129.925C549.359 130.351 548.954 130.777 548.508 131.203C548.508 131.021 547.717 131.69 548.224 130.94ZM139.19 403.827L138.886 403.543C139.048 406.83 139.189 410.117 139.331 413.425C134.71 414.805 129.907 415.759 125.549 417.707C122.732 418.965 119.853 421.217 118.171 423.774C109.699 436.72 102.078 450.113 103.132 466.448C103.173 467.199 103.335 468.213 103.821 468.619C105.199 469.715 106.862 469.472 107.855 467.828C117.462 451.899 127.029 435.929 136.474 419.918C137.69 417.869 138.176 415.373 139.007 413.1C150.682 402.305 161.464 390.698 170.706 377.691C182.3 361.356 195.799 346.867 212.054 335.077L211.77 335.362C212.459 333.901 213.29 332.5 213.817 330.999C216.715 322.638 213.594 315.475 205.325 311.234C202.082 309.57 196.326 313.284 196.691 316.936C196.914 319.27 197.38 321.705 198.292 323.836C200.461 328.888 199.467 333.312 196.042 337.208C190.204 343.844 184.246 350.357 178.247 356.83C173.342 362.127 168.761 367.93 160.39 367.768C158.971 367.748 157.269 368.803 156.154 369.838C146.101 379.213 136.372 388.851 134.345 403.461L134.041 403.157C135.784 403.36 137.487 403.604 139.19 403.827ZM566.08 112.656C564.114 111.987 563.303 112.555 563.952 114.239C564.053 114.483 565.29 114.483 565.878 114.26C566.1 114.178 566.02 113.204 566.08 112.656ZM568.958 123.959C569.587 123.979 570.256 124.121 570.844 123.979C571.006 123.939 570.985 123.107 571.046 122.64C570.417 122.599 569.769 122.457 569.161 122.6C568.999 122.62 569.019 123.472 568.958 123.959ZM185.604 331.912L184.631 333.454L186.11 333.677L185.604 331.912Z" fill="#3D0E26"/>
<path d="M382.084 452.061C384.394 461.761 392.319 468.112 396.697 476.574L396.921 476.35C389.665 474.869 384.112 470.364 378.335 466.123C361.654 453.847 347.324 438.871 331.879 425.194C326.934 420.811 324.907 414.723 324.015 408.271L323.793 408.575C327.198 408.555 330.603 408.534 334.008 408.514L333.461 408.027C335.731 419.046 341.811 426.27 353.364 428.035L352.898 427.609C353.749 430.308 355.472 432.134 358.208 432.925L357.742 432.499C362.647 439.825 369.194 444.979 377.707 447.475L377.26 447.089C379.024 448.855 380.787 450.64 382.571 452.406L382.084 452.061Z" fill="#3D0E26"/>
<path d="M75.7501 23.2495C81.1212 26.8209 83.6344 32.2187 85.3369 38.1643L85.6814 37.9409C83.9991 38.0626 82.2965 38.1642 80.6143 38.2859C78.9928 35.9929 77.3919 36.2162 75.7907 38.3062C72.4667 36.5408 69.1626 34.7551 65.8386 32.9897L66.3047 33.3752C63.7915 25.7656 61.1158 18.217 58.8862 10.5263C58.1971 8.17243 59.6975 5.96083 61.9878 4.68243C63.8728 3.64754 67.2576 4.47945 68.575 6.1434C72.649 11.257 75.6885 16.7966 75.9926 23.5133L75.7501 23.2495Z" fill="#3D0E26"/>
<path d="M508.497 120.469C501.788 125.968 495.14 131.548 488.351 136.926C487.175 137.859 485.432 138.549 483.972 138.488C482.614 138.427 481.175 137.392 480 136.5C479.554 136.155 479.311 134.795 479.615 134.308C483 128.991 486.263 123.573 490.074 118.581C493.377 114.28 499.133 114.239 505.072 117.912C506.41 118.744 507.565 119.901 508.781 120.915C508.801 120.935 508.497 120.469 508.497 120.469Z" fill="#3D0E26"/>
<path d="M508.801 120.935C513.605 112.737 520.841 110.871 529.495 113.204C532.576 114.036 535.475 115.517 538.474 116.694C538.474 116.694 538.252 116.329 538.252 116.349C537.076 117.364 536.002 118.5 534.705 119.353C526.212 124.933 517.497 125.927 508.497 120.509C508.497 120.469 508.801 120.935 508.801 120.935Z" fill="#3D0E26"/>
<path d="M309.301 403.258C308.024 402.487 306.767 401.696 305.47 400.945C298.477 396.968 296.491 391.347 299.795 383.94L299.43 384.164C301.193 384.143 302.977 384.144 304.74 384.123L304.234 383.758C306.017 385.544 307.801 387.329 309.564 389.115L309.077 388.648C310.861 390.434 312.645 392.22 314.428 394.005L314.043 393.458C314.165 395.182 314.287 396.907 314.408 398.652C312.625 400.316 310.861 401.98 309.077 403.624L309.301 403.258Z" fill="#3D0E26"/>
<path d="M85.3369 38.1643C89.8365 42.6083 94.5377 46.8695 98.7535 51.5569C102.179 55.3718 100.842 58.6795 95.0046 62.4944L95.3688 62.7582C93.646 59.3085 91.9236 55.879 90.2008 52.4294L90.6461 53.0179C88.8423 51.2119 87.0386 49.4262 85.2347 47.6202C85.2347 47.6202 85.6805 48.0665 85.6602 48.0665C85.6602 44.698 85.6607 41.3296 85.681 37.9611L85.3369 38.1643Z" fill="#3D0E26"/>
<path d="M371.889 183.82C370.957 184.673 370.044 185.505 369.112 186.336C368.463 185.281 367.734 184.267 367.247 183.13C367.166 182.968 368.2 182.116 368.808 181.893C370.551 181.324 371.605 182.035 371.889 183.82Z" fill="#3D0E26"/>
<path d="M134.182 96.2199C130.392 95.5096 126.542 94.8398 124.231 91.2278C123.887 90.7002 123.765 89.7263 124.028 89.219C124.251 88.7928 125.548 88.3668 125.771 88.5697C128.548 91.1468 131.223 93.8254 133.919 96.504C133.899 96.504 134.182 96.2199 134.182 96.2199Z" fill="#3D0E26"/>
<path d="M445.787 383.616C442.463 383.738 439.139 383.859 435.815 384.001L435.835 384.022C434.356 382.54 432.897 381.079 431.417 379.598C431.417 379.598 430.586 378.543 430.586 378.563C430.241 376.98 430.444 375.479 431.214 374.058L430.93 374.383C437.741 374.545 442.24 378.259 445.463 383.9L445.787 383.616Z" fill="#3D0E26"/>
<path d="M397.063 432.459C395.218 431.363 393.13 430.531 391.671 429.07C391.022 428.421 391.489 426.452 391.752 425.154C391.833 424.748 393.11 424.2 393.597 424.362C394.874 424.829 396.921 425.519 397.063 426.392C397.428 428.461 396.86 430.673 396.657 432.844L397.063 432.459Z" fill="#3D0E26"/>
<path d="M455.131 501.086C458.293 500.782 461.049 501.655 463.238 503.968C463.725 504.475 464.191 505.307 464.13 505.956C463.947 507.925 462.712 508.453 460.928 507.377C458.334 505.815 455.901 504.09 455.415 500.762L455.131 501.086Z" fill="#3D0E26"/>
<path d="M104.713 77.064C105.605 76.0291 104.348 77.0437 104.449 76.7799L104.713 77.064Z" fill="#3D0E26"/>
<path d="M319.13 242.911C321.623 239.847 325.15 238.873 328.798 238.162L328.535 237.899C328.596 239.583 328.637 241.287 328.698 242.972L329.042 242.607C325.677 242.586 322.334 242.566 318.969 242.566L319.13 242.911Z" fill="#3D0E26"/>
<path d="M289.925 350.053C291.141 349.12 292.356 348.186 293.572 347.253C293.795 347.8 294.019 348.368 294.241 348.916C292.701 349.16 291.161 349.404 289.6 349.647C289.62 349.667 289.925 350.053 289.925 350.053Z" fill="#3D0E26"/>
<path d="M51.7513 462.349C51.9135 458.392 53.1094 454.942 56.3929 452.446L56.089 452.142C55.6026 455.957 54.508 459.467 51.4475 462.065C51.4273 462.085 51.7513 462.349 51.7513 462.349Z" fill="#3D0E26"/>
<path d="M426.188 457.215C426.756 457.499 427.303 457.783 427.871 458.067C427.384 457.722 426.897 457.377 426.411 457.032L426.188 457.215Z" fill="#3D0E26"/>
<path d="M556.716 486.882C557.506 486.923 558.297 486.963 559.087 487.004C558.418 486.862 557.729 486.699 557.04 486.578C557.02 486.578 556.716 486.882 556.716 486.882Z" fill="#3D0E26"/>
<path d="M416.723 491.001L416.439 491.306C416.439 491.285 416.723 491.001 416.723 491.001Z" fill="#3D0E26"/>
<path d="M396.697 476.553L396.921 476.33C396.941 476.35 396.697 476.553 396.697 476.553Z" fill="#3D0E26"/>
<path d="M479.453 457.032L479.757 456.748C479.757 456.728 479.453 457.032 479.453 457.032Z" fill="#3D0E26"/>
<path d="M56.3731 452.446L57.0214 451.513L56.0693 452.142L56.3731 452.446Z" fill="#3D0E26"/>
<path d="M509.349 438.262C509.288 436.375 509.227 434.488 509.166 432.601L508.903 432.824C508.944 434.529 508.984 436.233 509.025 437.958C509.065 437.978 509.349 438.262 509.349 438.262Z" fill="#3D0E26"/>
<path d="M396.657 432.844L397.792 433.656L397.063 432.459L396.657 432.844Z" fill="#3D0E26"/>
<path d="M509.166 432.621C509.166 432.621 508.903 432.865 508.903 432.844C508.923 432.844 509.166 432.621 509.166 432.621Z" fill="#3D0E26"/>
<path d="M494.27 428.096L493.965 427.771C493.945 427.792 494.27 428.096 494.27 428.096Z" fill="#3D0E26"/>
<path d="M474.71 408.534C474.69 410.137 474.649 411.74 474.629 413.323L474.913 413.465C474.934 411.7 474.934 409.935 474.954 408.149L474.71 408.534Z" fill="#3D0E26"/>
<path d="M318.929 408.21C317.449 409.711 315.909 409.407 314.368 408.332L314.003 408.534C315.746 408.534 317.489 408.514 319.232 408.514L318.929 408.21Z" fill="#3D0E26"/>
<path d="M469.684 403.38C471.346 405.105 473.028 406.81 474.69 408.534L474.933 408.169C473.17 408.19 471.386 408.19 469.622 408.21L469.968 408.677C469.968 406.83 469.968 404.983 469.968 403.137L469.684 403.38Z" fill="#3D0E26"/>
<path d="M324.015 408.271C322.313 408.25 320.631 408.25 318.929 408.23C318.929 408.23 319.232 408.514 319.212 408.514C319.09 406.769 318.969 405.024 318.867 403.279C320.509 405.044 322.151 406.81 323.793 408.555L324.015 408.271Z" fill="#3D0E26"/>
<path d="M314.368 408.332C312.666 406.647 310.983 404.943 309.28 403.258L309.058 403.604C310.821 403.502 312.605 403.38 314.368 403.279C314.247 405.024 314.125 406.769 313.983 408.514L314.368 408.332Z" fill="#3D0E26"/>
<path d="M299.795 383.961C298.154 382.358 296.512 380.734 294.87 379.131L294.545 379.334C296.349 379.314 298.133 379.314 299.937 379.294L299.45 378.847C299.45 380.633 299.451 382.419 299.43 384.204L299.795 383.961Z" fill="#3D0E26"/>
<path d="M294.87 379.111C293.208 377.427 291.566 375.722 289.904 374.038L289.681 374.424C291.465 374.403 293.228 374.403 295.011 374.383L294.607 373.937C294.586 375.722 294.566 377.508 294.545 379.294L294.87 379.111Z" fill="#3D0E26"/>
<path d="M425.864 369.33C427.566 371.014 429.249 372.678 430.951 374.363L431.234 374.038C429.41 374.058 427.587 374.079 425.763 374.099L426.208 374.647C426.188 372.8 426.188 370.933 426.167 369.087L425.864 369.33Z" fill="#3D0E26"/>
<path d="M377.382 232.765C375.7 234.449 374.038 236.133 372.356 237.817L372.68 238.061C374.322 236.417 375.963 234.753 377.625 233.11L377.382 232.765Z" fill="#3D0E26"/>
<path d="M328.798 238.142C330.42 236.478 332.021 234.835 333.643 233.171L333.42 232.948C331.799 234.591 330.157 236.235 328.535 237.878L328.798 238.142Z" fill="#3D0E26"/>
<path d="M396.799 145.265C395.117 146.909 393.435 148.533 391.773 150.176L392.117 150.379C393.779 148.715 395.441 147.051 397.103 145.367C397.083 145.387 396.799 145.265 396.799 145.265Z" fill="#3D0E26"/>
<path d="M396.84 140.314C396.819 141.958 396.819 143.602 396.799 145.265L397.103 145.367C397.103 143.642 397.103 141.897 397.083 140.172L396.84 140.314Z" fill="#3D0E26"/>
<path d="M421.365 130.493C419.662 130.493 417.959 130.493 416.257 130.493L416.095 130.797C417.898 130.797 419.702 130.797 421.526 130.797L421.365 130.493Z" fill="#3D0E26"/>
<path d="M139.392 101.414C137.649 99.6896 135.925 97.9447 134.182 96.2199L133.899 96.5039C135.642 98.2287 137.385 99.9534 139.108 101.678C139.128 101.678 139.392 101.414 139.392 101.414Z" fill="#3D0E26"/>
<path d="M95.328 81.6906C95.328 83.5169 95.3488 85.3227 95.3488 87.149C94.153 84.9778 94.1322 81.6906 95.328 81.6906Z" fill="#3D0E26"/>
<path d="M163.004 174.466C164.849 174.466 166.714 174.466 168.558 174.466C166.694 174.466 164.849 174.466 163.004 174.466Z" fill="#3D0E26"/>
<path d="M163.43 169.372C163.43 171.219 163.451 173.045 163.451 174.892C163.451 173.045 163.45 171.199 163.43 169.372Z" fill="#3D0E26"/>
<path d="M148.391 154.965C150.256 154.965 152.1 154.965 153.965 154.965C152.1 154.965 150.235 154.965 148.391 154.965Z" fill="#3D0E26"/>
<path d="M139.19 403.827L138.886 403.543C138.906 403.543 139.19 403.827 139.19 403.827Z" fill="#3D0E26"/>
<path d="M75.5874 37.9408C77.3305 37.9408 79.0737 37.9408 80.8168 37.9408C80.8168 41.3296 80.796 44.7387 80.796 48.1275C76.2762 46.1591 76.0536 41.9992 75.5874 37.9408Z" fill="#3D0E26"/>
<path d="M319.252 403.685C317.509 403.685 315.766 403.685 314.023 403.664C314.023 401.919 314.023 400.174 314.003 398.429C315.746 398.429 317.489 398.429 319.232 398.429C319.253 400.174 319.252 401.919 319.252 403.685Z" fill="#3D0E26"/>
</svg>
