<svg width="1526" height="485" viewBox="0 0 1526 485" fill="none" xmlns="http://www.w3.org/2000/svg">
<path d="M733.937 368.332C732.735 369.196 731.454 369.842 729.947 370.005C728.961 370.111 728.116 370.575 727.297 371.151C726.162 371.949 725.102 372.817 724.175 373.85C723.468 374.636 722.693 375.362 722.031 376.181C721.031 377.417 719.957 378.615 719.302 380.143C719.288 379.682 719.296 379.219 719.249 378.763C719.235 378.633 719.077 378.502 718.955 378.406C718.758 378.248 718.345 378.331 718.311 378.522C718.178 379.311 717.875 380.085 718.172 380.908C718.21 381.013 718.086 381.279 717.986 381.312C717.29 381.548 717.62 382.073 717.624 382.504C717.085 382.627 716.505 382.665 716.425 383.422C716.402 383.641 716.242 383.87 716.087 384.043C716.016 384.123 715.702 384.126 715.676 384.077C715.458 383.645 715.209 383.209 715.112 382.743C715 382.192 714.946 381.603 715.011 381.047C715.197 379.434 715.447 377.832 715.687 376.227C715.759 375.747 715.899 375.277 716 374.797C716.181 373.923 716.25 373.009 716.563 372.184C716.962 371.125 717.538 370.132 718.071 369.13C718.567 368.196 719.104 367.283 719.989 366.644C720.12 366.548 720.262 366.453 720.359 366.327C722.229 363.888 724.842 362.38 727.352 360.746C727.629 360.567 727.984 360.409 728.266 360.604C728.808 360.982 729.335 360.88 729.885 360.703C730.501 360.506 731.143 360.354 731.731 360.089C733.536 359.276 735.471 359.038 737.385 358.72C738.18 358.588 738.998 358.609 739.8 358.529C739.894 358.519 739.978 358.298 740.042 358.164C740.052 358.142 739.945 358.029 739.881 358.015C739.725 357.98 739.561 357.975 739.401 357.971C739.192 357.964 739.079 357.885 739.119 357.723C739.131 357.666 739.23 357.598 739.294 357.594C740.918 357.532 742.533 357.599 744.122 357.968C744.596 358.078 745.082 358.31 745.544 358.268C746.681 358.171 747.596 358.498 748.407 359.292C748.61 359.491 749.004 359.586 749.305 359.575C750.708 359.515 751.654 360.339 752.298 361.363C752.914 362.345 753.67 363.161 754.44 363.99C755.108 364.712 755.552 365.538 755.902 366.477C756.764 368.786 757.18 371.158 757.259 373.605C757.288 374.497 757.329 375.392 757.418 376.282C757.734 379.448 757.002 384.502 755.845 387.287C754.941 389.464 754.021 391.626 753.28 393.864C753.026 394.627 752.645 395.367 752.221 396.056C750.765 398.406 749.596 400.906 748.343 403.363C748.196 403.651 748.029 403.944 747.806 404.173C746.267 405.729 744.92 407.488 743.055 408.696C742.647 408.96 742.246 409.236 741.818 409.467C738.316 411.353 734.726 413.067 731.088 414.673C729.535 415.36 727.888 415.837 726.259 416.337C725.45 416.585 724.798 416.879 724.388 417.713C724.113 418.269 723.574 418.717 723.095 419.152C722.134 420.021 721.171 420.858 720.491 422.007C720.086 422.691 719.474 423.256 719.018 423.933C717.687 425.907 716.761 428.061 716.057 430.323C715.911 430.788 715.799 431.261 715.702 431.739C715.385 433.33 715.086 434.93 714.779 436.523C714.747 436.684 714.691 436.838 714.669 436.998C714.517 438.038 714.437 439.097 714.209 440.121C713.98 441.144 713.589 442.131 713.301 443.142C712.969 444.317 712.823 445.528 712.702 446.742C712.633 447.432 712.125 447.795 711.568 447.798C711.244 447.799 710.917 447.774 710.597 447.812C709.474 447.948 709.471 447.958 709.631 446.902C709.68 446.587 709.39 446.355 709.012 446.349C708.617 446.341 708.511 446.711 708.248 446.876C708.057 446.881 707.975 446.779 707.976 446.567C707.969 446.002 708.054 445.409 707.919 444.876C707.652 443.822 707.731 442.794 707.86 441.737C707.996 440.611 707.993 439.466 708.153 438.343C708.42 436.496 708.685 434.64 709.101 432.822C709.59 430.685 710.201 428.574 710.831 426.472C711.157 425.387 711.627 424.343 712.053 423.289C713.396 419.972 714.897 416.733 716.935 413.776C718.045 412.165 719.32 410.689 720.729 409.341C721.254 408.841 721.885 408.454 722.485 408.04C723.085 407.627 723.722 407.27 724.319 406.852C725.276 406.183 726.357 405.796 727.494 405.742C728.146 405.712 728.536 405.556 728.88 405.018C729.033 404.777 729.396 404.589 729.691 404.538C731.244 404.271 732.61 403.595 733.927 402.764C734.329 402.509 734.801 402.337 735.268 402.211C736.064 401.995 736.828 401.781 737.277 400.986C737.389 400.79 737.64 400.667 737.844 400.539C739.223 399.683 740.577 398.781 741.999 398.001C744.183 396.797 745.82 395.003 747.427 393.169C747.796 392.751 748.056 392.225 748.305 391.718C749.657 388.957 750.064 385.992 750.133 382.964C750.191 380.423 749.677 377.958 749.092 375.509C748.767 374.147 748.067 372.991 747.097 371.939C745.216 369.9 742.79 369.098 740.184 368.702C738.581 368.46 736.964 368.298 735.331 368.459C734.858 368.504 734.368 368.405 733.885 368.37C733.945 367.569 733.88 367.51 733.189 367.684C733.039 367.721 732.892 367.784 732.759 367.861C732.701 367.891 732.654 367.988 732.65 368.054C732.648 368.116 732.708 368.235 732.752 368.239C733.149 368.279 733.544 368.304 733.937 368.332ZM738.576 364.042C737.905 363.933 737.232 363.795 736.554 363.987C735.65 363.804 734.769 363.797 733.952 364.311C732.855 364.034 731.929 364.445 731.046 365.036C731.004 365.063 730.981 365.173 731.003 365.225C731.025 365.284 731.115 365.371 731.159 365.362C731.855 365.221 732.561 365.107 733.231 364.889C733.505 364.8 733.699 364.482 733.932 364.27C734.309 364.332 734.685 364.426 735.066 364.447C735.61 364.477 736.134 364.385 736.536 363.95C737.208 364.042 737.877 364.313 738.559 363.999C738.636 364.016 738.714 364.051 738.79 364.044C738.848 364.038 738.898 363.981 738.95 363.946C738.824 363.982 738.7 364.012 738.576 364.042ZM720.925 375.529C720.412 375.789 720.089 376.182 720.11 376.786C720.11 376.839 720.215 376.93 720.263 376.925C720.32 376.92 720.401 376.843 720.425 376.779C720.591 376.355 720.742 375.923 720.899 375.494C721.017 375.409 721.144 375.33 721.251 375.232C721.302 375.186 721.337 375.107 721.348 375.04C721.356 374.986 721.316 374.922 721.301 374.862C721.21 374.94 721.084 375.001 721.033 375.1C720.963 375.229 720.956 375.386 720.925 375.529ZM740.06 362.429C740.593 362.555 741.112 362.796 741.681 362.681C741.741 362.668 741.843 362.562 741.83 362.531C741.785 362.399 741.734 362.209 741.634 362.172C741.065 361.959 740.555 362.157 740.074 362.468C739.929 362.419 739.788 362.367 739.64 362.328C739.568 362.308 739.487 362.297 739.419 362.314C739.367 362.325 739.328 362.392 739.285 362.433C739.404 362.49 739.524 362.592 739.638 362.587C739.783 362.584 739.921 362.487 740.06 362.429Z" fill="#EB539F"/>
<path d="M700.2 465.556C700.296 465.264 700.456 464.719 700.664 464.194C700.852 463.713 701.242 463.416 701.724 463.27C703.329 462.781 704.88 462.795 706.449 463.529C707.898 464.21 708.732 465.327 709.029 466.819C709.169 467.529 709.269 468.218 709.572 468.898C710.007 469.874 709.709 470.818 709.068 471.622C708.718 472.06 708.281 472.443 707.835 472.785C707.264 473.22 706.553 473.445 706.135 474.111C705.983 474.352 705.619 474.515 705.321 474.604C704.348 474.889 703.595 475.466 702.965 476.241C702.865 476.366 702.722 476.454 702.593 476.553C702.189 476.867 701.385 476.768 701.042 476.356C700.888 476.17 700.723 475.985 700.608 475.771C699.87 474.39 699.4 472.926 699.492 471.349C699.575 469.899 699.751 468.453 699.909 467.01C699.955 466.603 700.067 466.21 700.2 465.556Z" fill="#EB539F"/>
<path d="M568.26 248.055C567.718 250.028 566.902 251.834 565.424 253.318C564.457 254.286 563.951 255.518 563.571 256.849C563.043 258.692 562.658 260.544 562.558 262.459C562.481 263.917 562.278 265.37 562.277 266.825C562.275 269.021 562.161 271.241 562.783 273.453C562.368 272.968 561.975 272.464 561.529 272.014C561.401 271.886 561.117 271.884 560.902 271.887C560.554 271.887 560.182 272.335 560.312 272.57C560.853 273.533 561.2 274.628 562.233 275.255C562.365 275.334 562.463 275.728 562.384 275.85C561.841 276.708 562.652 276.986 563.03 277.445C562.557 278.046 561.967 278.59 562.538 279.473C562.703 279.729 562.729 280.113 562.713 280.434C562.706 280.581 562.372 280.858 562.302 280.827C561.692 280.553 561.046 280.299 560.538 279.883C559.938 279.388 559.37 278.802 558.956 278.147C557.757 276.254 556.635 274.315 555.5 272.382C555.16 271.802 554.903 271.176 554.594 270.573C554.031 269.476 553.311 268.433 552.931 267.276C552.442 265.791 552.198 264.223 551.901 262.685C551.624 261.25 551.408 259.804 551.805 258.348C551.863 258.132 551.932 257.906 551.927 257.687C551.82 253.442 553.32 249.554 554.599 245.619C554.74 245.186 554.985 244.708 555.457 244.673C556.368 244.608 556.846 244.041 557.284 243.374C557.774 242.627 558.333 241.906 558.735 241.111C559.968 238.672 561.841 236.736 563.622 234.732C564.362 233.9 565.259 233.215 566.052 232.431C566.144 232.339 566.043 232.029 565.995 231.829C565.986 231.797 565.773 231.768 565.694 231.809C565.496 231.907 565.315 232.044 565.139 232.178C564.908 232.353 564.718 232.365 564.621 232.156C564.584 232.085 564.631 231.925 564.697 231.865C566.389 230.39 568.181 229.06 570.21 228.077C570.814 227.784 571.539 227.612 571.998 227.166C573.137 226.075 574.404 225.631 575.965 225.781C576.356 225.819 576.861 225.579 577.176 225.306C578.63 224.023 580.363 224.087 581.944 224.63C583.458 225.15 584.979 225.37 586.526 225.594C587.87 225.789 589.064 226.292 590.255 226.998C593.186 228.73 595.692 230.918 597.901 233.48C598.706 234.413 599.527 235.339 600.395 236.218C603.483 239.347 607.083 245.413 608.256 249.411C609.175 252.535 610.062 255.658 611.209 258.706C611.599 259.746 611.831 260.872 611.974 261.98C612.448 265.769 613.362 269.471 614.148 273.199C614.239 273.636 614.315 274.096 614.274 274.536C613.971 277.544 614.049 280.604 613.095 283.521C612.885 284.159 612.693 284.804 612.434 285.423C610.307 290.489 607.937 295.447 605.421 300.332C604.348 302.416 602.992 304.36 601.676 306.311C601.022 307.28 600.576 308.161 600.86 309.413C601.046 310.251 600.856 311.199 600.719 312.082C600.44 313.85 600.132 315.586 600.398 317.411C600.556 318.497 600.389 319.636 600.487 320.759C600.77 324.036 601.645 327.154 602.851 330.197C603.098 330.822 603.387 331.429 603.699 332.026C604.739 334.011 605.806 335.99 606.859 337.969C606.964 338.17 607.038 338.383 607.153 338.574C607.893 339.824 608.726 341.032 609.369 342.33C610.012 343.628 610.448 345.028 611.016 346.365C611.678 347.916 612.573 349.344 613.497 350.754C614.022 351.554 613.79 352.387 613.194 352.873C612.847 353.155 612.474 353.413 612.163 353.731C611.074 354.852 611.079 354.865 610.335 353.591C610.115 353.211 609.602 353.212 609.19 353.534C608.758 353.869 608.965 354.358 608.827 354.764C608.625 354.936 608.449 354.896 608.266 354.669C607.768 354.067 607.344 353.355 606.737 352.9C605.536 351.999 604.727 350.825 603.948 349.578C603.117 348.25 602.121 347.022 601.318 345.676C600.001 343.459 598.675 341.235 597.545 338.92C596.215 336.199 595.04 333.4 593.892 330.594C593.3 329.145 592.9 327.616 592.443 326.112C591.007 321.382 589.809 316.599 589.431 311.651C589.227 308.956 589.316 306.264 589.661 303.592C589.79 302.599 590.132 301.635 590.418 300.67C590.704 299.706 591.079 298.768 591.358 297.801C591.805 296.251 592.632 294.897 593.806 293.852C594.481 293.254 594.765 292.748 594.668 291.871C594.623 291.48 594.85 290.962 595.123 290.651C596.56 289.016 597.441 287.104 598.135 285.069C598.347 284.445 598.704 283.85 599.096 283.311C599.765 282.387 600.4 281.493 600.192 280.249C600.143 279.942 600.306 279.592 600.413 279.277C601.153 277.16 601.825 275.017 602.676 272.943C603.978 269.754 604.181 266.405 604.316 263.04C604.349 262.269 604.172 261.479 603.999 260.718C603.055 256.577 600.92 253.037 598.366 249.723C596.223 246.942 593.531 244.739 590.776 242.615C589.245 241.433 587.49 240.798 585.534 240.509C581.742 239.95 578.439 241.195 575.295 243.032C573.362 244.162 571.484 245.391 569.868 246.982C569.4 247.441 568.786 247.76 568.237 248.142C567.606 247.23 567.485 247.222 566.894 248.008C566.764 248.179 566.661 248.374 566.584 248.572C566.549 248.655 566.582 248.799 566.636 248.873C566.687 248.943 566.854 249.018 566.906 248.985C567.368 248.682 567.813 248.367 568.26 248.055ZM569.522 239.419C568.707 239.884 567.863 240.32 567.301 241.114C566.171 241.703 565.218 242.46 564.786 243.721C563.367 244.376 562.728 245.621 562.292 247.022C562.27 247.089 562.342 247.227 562.409 247.263C562.485 247.307 562.657 247.323 562.697 247.275C563.322 246.519 563.981 245.785 564.513 244.968C564.73 244.635 564.663 244.125 564.728 243.695C565.188 243.435 565.673 243.209 566.101 242.901C566.712 242.46 567.196 241.906 567.25 241.091C568.051 240.607 569.006 240.317 569.467 239.387C569.564 239.339 569.679 239.309 569.753 239.235C569.811 239.178 569.815 239.073 569.84 238.991C569.737 239.139 569.629 239.279 569.522 239.419ZM560.523 267.084C560.198 267.809 560.191 268.511 560.738 269.143C560.784 269.199 560.977 269.206 561.023 269.16C561.08 269.104 561.1 268.951 561.07 268.862C560.881 268.262 560.668 267.667 560.465 267.069C560.518 266.876 560.585 266.681 560.615 266.483C560.63 266.389 560.6 266.274 560.553 266.192C560.514 266.127 560.417 266.093 560.348 266.041C560.317 266.204 560.235 266.379 560.266 266.53C560.304 266.729 560.432 266.903 560.523 267.084ZM569.717 236.398C570.398 236.07 571.166 235.878 571.677 235.261C571.731 235.196 571.748 234.993 571.707 234.97C571.544 234.868 571.324 234.708 571.185 234.754C570.389 235.02 570.013 235.675 569.766 236.427C569.567 236.5 569.371 236.567 569.178 236.652C569.083 236.694 568.986 236.753 568.928 236.83C568.881 236.887 568.897 236.993 568.887 237.074C569.064 237.032 569.282 237.038 569.4 236.934C569.553 236.805 569.618 236.58 569.717 236.398Z" fill="#EB539F"/>
<path d="M616.391 381.824C616.241 381.428 615.94 380.703 615.707 379.958C615.492 379.277 615.652 378.62 616.044 378.045C617.345 376.127 619.024 374.796 621.347 374.223C623.496 373.696 625.362 374.174 626.975 375.519C627.742 376.16 628.448 376.814 629.364 377.281C630.679 377.952 631.177 379.227 631.186 380.647C631.191 381.421 631.054 382.212 630.87 382.967C630.635 383.93 630.066 384.788 630.195 385.867C630.241 386.258 629.991 386.749 629.748 387.104C628.949 388.255 628.641 389.528 628.637 390.907C628.637 391.128 628.56 391.348 628.508 391.566C628.346 392.255 627.397 392.845 626.67 392.7C626.343 392.635 626.005 392.579 625.696 392.449C623.704 391.605 621.929 390.44 620.658 388.664C619.489 387.035 618.423 385.328 617.34 383.639C617.036 383.162 616.816 382.643 616.391 381.824Z" fill="#EB539F"/>
<path d="M486.665 376.281C486.293 377.633 485.734 378.871 484.721 379.888C484.058 380.552 483.711 381.397 483.451 382.309C483.089 383.572 482.825 384.842 482.756 386.155C482.703 387.154 482.564 388.15 482.563 389.147C482.562 390.653 482.484 392.174 482.911 393.691C482.626 393.359 482.357 393.013 482.051 392.705C481.963 392.617 481.768 392.615 481.621 392.617C481.382 392.618 481.128 392.924 481.217 393.085C481.587 393.746 481.825 394.496 482.533 394.926C482.624 394.981 482.691 395.25 482.637 395.334C482.264 395.923 482.82 396.113 483.08 396.428C482.755 396.839 482.351 397.213 482.743 397.818C482.856 397.993 482.874 398.256 482.862 398.476C482.858 398.577 482.628 398.767 482.58 398.746C482.163 398.558 481.72 398.384 481.371 398.098C480.96 397.759 480.571 397.358 480.287 396.909C479.465 395.611 478.696 394.282 477.918 392.956C477.685 392.559 477.509 392.13 477.297 391.717C476.911 390.965 476.418 390.25 476.157 389.456C475.822 388.439 475.655 387.364 475.451 386.309C475.261 385.326 475.113 384.334 475.385 383.336C475.425 383.188 475.472 383.033 475.469 382.883C475.396 379.973 476.424 377.308 477.3 374.611C477.397 374.314 477.565 373.986 477.889 373.962C478.513 373.918 478.841 373.529 479.141 373.072C479.477 372.56 479.86 372.066 480.135 371.521C480.981 369.849 482.265 368.521 483.486 367.148C483.993 366.578 484.608 366.108 485.151 365.571C485.215 365.507 485.145 365.295 485.112 365.158C485.106 365.136 484.96 365.116 484.906 365.144C484.77 365.211 484.646 365.305 484.525 365.397C484.367 365.517 484.237 365.525 484.17 365.382C484.145 365.333 484.177 365.224 484.222 365.183C485.382 364.171 486.611 363.26 488.002 362.586C488.416 362.385 488.912 362.267 489.227 361.961C490.008 361.213 490.876 360.909 491.946 361.012C492.214 361.038 492.561 360.874 492.777 360.686C493.773 359.807 494.961 359.851 496.045 360.223C497.083 360.58 498.125 360.73 499.186 360.883C500.108 361.017 500.926 361.362 501.742 361.846C503.751 363.034 505.469 364.534 506.984 366.289C507.535 366.929 508.099 367.564 508.693 368.167C510.81 370.311 513.278 374.47 514.082 377.211C514.712 379.352 515.32 381.492 516.106 383.582C516.374 384.295 516.533 385.066 516.631 385.826C516.956 388.424 517.582 390.961 518.121 393.517C518.183 393.817 518.235 394.132 518.207 394.433C517.999 396.495 518.053 398.593 517.399 400.592C517.255 401.029 517.124 401.472 516.946 401.896C515.488 405.369 513.863 408.768 512.138 412.116C511.403 413.545 510.474 414.877 509.571 416.215C509.123 416.879 508.817 417.483 509.012 418.341C509.14 418.915 509.009 419.565 508.915 420.171C508.724 421.383 508.513 422.573 508.695 423.824C508.804 424.569 508.689 425.349 508.756 426.119C508.95 428.366 509.55 430.503 510.377 432.588C510.546 433.017 510.745 433.433 510.958 433.842C511.671 435.203 512.403 436.559 513.124 437.916C513.196 438.054 513.247 438.2 513.326 438.331C513.833 439.188 514.404 440.016 514.845 440.906C515.285 441.796 515.585 442.755 515.974 443.672C516.428 444.735 517.042 445.714 517.675 446.68C518.034 447.229 517.876 447.8 517.467 448.133C517.229 448.326 516.973 448.503 516.76 448.721C516.013 449.489 516.017 449.498 515.507 448.625C515.356 448.365 515.004 448.366 514.722 448.586C514.426 448.816 514.568 449.151 514.473 449.429C514.335 449.547 514.214 449.52 514.089 449.364C513.747 448.951 513.457 448.464 513.04 448.152C512.217 447.534 511.663 446.729 511.129 445.874C510.559 444.964 509.876 444.122 509.326 443.199C508.423 441.68 507.514 440.155 506.74 438.568C505.828 436.703 505.022 434.784 504.236 432.861C503.83 431.867 503.555 430.819 503.242 429.788C502.258 426.546 501.436 423.267 501.178 419.876C501.037 418.028 501.099 416.183 501.335 414.351C501.424 413.67 501.658 413.01 501.854 412.348C502.05 411.687 502.307 411.044 502.499 410.381C502.805 409.319 503.372 408.391 504.177 407.674C504.639 407.265 504.834 406.918 504.767 406.316C504.737 406.048 504.892 405.693 505.079 405.48C506.064 404.36 506.669 403.048 507.144 401.653C507.289 401.226 507.534 400.818 507.803 400.448C508.261 399.815 508.697 399.203 508.554 398.35C508.521 398.139 508.632 397.899 508.706 397.683C509.213 396.232 509.673 394.763 510.257 393.341C511.149 391.155 511.288 388.859 511.381 386.552C511.404 386.024 511.283 385.483 511.164 384.961C510.517 382.122 509.053 379.696 507.303 377.424C505.834 375.518 503.988 374.007 502.099 372.551C501.05 371.741 499.847 371.306 498.506 371.108C495.907 370.725 493.642 371.578 491.487 372.837C490.162 373.612 488.875 374.455 487.767 375.545C487.446 375.86 487.026 376.078 486.649 376.341C486.217 375.715 486.133 375.71 485.728 376.249C485.639 376.366 485.569 376.499 485.516 376.635C485.492 376.692 485.515 376.791 485.551 376.842C485.587 376.889 485.701 376.941 485.737 376.918C486.053 376.711 486.358 376.494 486.665 376.281ZM487.53 370.361C486.971 370.68 486.393 370.978 486.008 371.523C485.233 371.927 484.579 372.445 484.284 373.31C483.311 373.759 482.873 374.612 482.574 375.573C482.559 375.618 482.608 375.713 482.654 375.738C482.706 375.768 482.824 375.779 482.851 375.746C483.28 375.228 483.732 374.724 484.096 374.165C484.245 373.936 484.199 373.587 484.244 373.292C484.559 373.113 484.892 372.959 485.185 372.747C485.604 372.445 485.935 372.066 485.972 371.507C486.522 371.175 487.176 370.976 487.492 370.339C487.559 370.306 487.637 370.285 487.689 370.234C487.728 370.196 487.731 370.124 487.748 370.067C487.677 370.169 487.604 370.265 487.53 370.361ZM481.361 389.325C481.138 389.822 481.133 390.304 481.508 390.736C481.54 390.775 481.672 390.78 481.704 390.748C481.743 390.71 481.756 390.605 481.736 390.543C481.607 390.132 481.461 389.725 481.321 389.315C481.357 389.182 481.404 389.049 481.425 388.913C481.435 388.848 481.414 388.77 481.382 388.713C481.355 388.669 481.288 388.646 481.241 388.61C481.22 388.722 481.164 388.842 481.185 388.945C481.211 389.082 481.299 389.201 481.361 389.325ZM487.663 368.29C488.13 368.065 488.657 367.934 489.007 367.51C489.044 367.466 489.056 367.327 489.028 367.311C488.916 367.241 488.765 367.131 488.67 367.163C488.125 367.345 487.866 367.795 487.697 368.31C487.561 368.36 487.426 368.406 487.294 368.464C487.229 368.493 487.163 368.533 487.123 368.586C487.091 368.625 487.102 368.698 487.095 368.753C487.216 368.724 487.365 368.729 487.446 368.657C487.551 368.569 487.596 368.415 487.663 368.29Z" fill="#EB539F"/>
<path d="M519.658 467.979C519.556 467.707 519.349 467.21 519.189 466.7C519.042 466.233 519.152 465.782 519.421 465.388C520.312 464.073 521.463 463.161 523.056 462.768C524.529 462.407 525.808 462.734 526.914 463.657C527.44 464.096 527.924 464.544 528.551 464.865C529.453 465.325 529.794 466.198 529.8 467.172C529.804 467.703 529.71 468.245 529.584 468.762C529.422 469.422 529.033 470.011 529.121 470.75C529.152 471.018 528.981 471.355 528.814 471.598C528.267 472.387 528.056 473.26 528.053 474.205C528.053 474.357 528 474.507 527.965 474.657C527.854 475.129 527.203 475.534 526.705 475.434C526.48 475.389 526.249 475.351 526.037 475.262C524.671 474.684 523.454 473.885 522.584 472.668C521.782 471.551 521.051 470.381 520.309 469.223C520.101 468.896 519.95 468.54 519.658 467.979Z" fill="#EB539F"/>
<path d="M371.236 301.932C370.953 302.891 370.538 303.766 369.802 304.478C369.32 304.942 369.062 305.539 368.864 306.186C368.589 307.082 368.383 307.983 368.317 308.918C368.266 309.63 368.153 310.338 368.139 311.049C368.118 312.122 368.042 313.206 368.325 314.292C368.127 314.052 367.94 313.802 367.726 313.578C367.664 313.514 367.525 313.51 367.421 313.51C367.25 313.507 367.065 313.722 367.126 313.838C367.381 314.314 367.541 314.852 368.039 315.168C368.104 315.208 368.148 315.401 368.108 315.46C367.834 315.875 368.228 316.018 368.409 316.246C368.172 316.535 367.879 316.795 368.15 317.232C368.228 317.359 368.237 317.546 368.226 317.703C368.222 317.775 368.056 317.907 368.022 317.891C367.726 317.752 367.413 317.622 367.168 317.414C366.88 317.166 366.608 316.875 366.412 316.551C365.843 315.615 365.313 314.657 364.776 313.702C364.615 313.415 364.495 313.107 364.35 312.81C364.085 312.268 363.743 311.752 363.568 311.183C363.343 310.453 363.238 309.685 363.107 308.93C362.985 308.226 362.893 307.518 363.1 306.81C363.13 306.705 363.166 306.595 363.166 306.488C363.153 304.413 363.922 302.526 364.583 300.616C364.656 300.405 364.78 300.174 365.011 300.161C365.457 300.138 365.696 299.865 365.916 299.543C366.162 299.183 366.442 298.836 366.646 298.451C367.271 297.27 368.204 296.342 369.093 295.379C369.462 294.979 369.907 294.652 370.301 294.277C370.347 294.233 370.301 294.08 370.279 293.982C370.275 293.966 370.171 293.95 370.132 293.969C370.034 294.015 369.945 294.081 369.857 294.145C369.743 294.228 369.65 294.232 369.604 294.129C369.587 294.094 369.612 294.017 369.644 293.988C370.485 293.282 371.373 292.649 372.374 292.188C372.671 292.05 373.027 291.972 373.256 291.759C373.822 291.236 374.445 291.031 375.207 291.119C375.398 291.141 375.646 291.028 375.803 290.898C376.525 290.284 377.372 290.332 378.139 290.611C378.874 290.88 379.615 291.001 380.369 291.125C381.024 291.232 381.603 291.49 382.179 291.845C383.595 292.719 384.799 293.811 385.855 295.083C386.24 295.547 386.633 296.007 387.049 296.445C388.529 298.002 390.232 301 390.768 302.964C391.188 304.499 391.593 306.033 392.125 307.533C392.306 308.045 392.409 308.597 392.469 309.141C392.666 310.996 393.078 312.814 393.428 314.643C393.468 314.857 393.501 315.083 393.477 315.297C393.301 316.764 393.311 318.26 392.818 319.677C392.709 319.987 392.61 320.3 392.477 320.6C391.391 323.056 390.187 325.457 388.912 327.821C388.369 328.83 387.688 329.767 387.027 330.708C386.699 331.176 386.473 331.602 386.6 332.217C386.683 332.627 386.581 333.089 386.506 333.519C386.354 334.381 386.187 335.226 386.3 336.121C386.367 336.653 386.275 337.208 386.313 337.757C386.421 339.362 386.819 340.893 387.381 342.391C387.496 342.699 387.632 342.998 387.778 343.293C388.268 344.273 388.771 345.249 389.268 346.226C389.317 346.325 389.351 346.43 389.406 346.524C389.756 347.142 390.152 347.74 390.454 348.381C390.756 349.021 390.956 349.709 391.221 350.367C391.531 351.132 391.955 351.837 392.393 352.535C392.642 352.931 392.521 353.336 392.226 353.567C392.054 353.702 391.869 353.825 391.714 353.977C391.171 354.515 391.174 354.521 390.822 353.892C390.718 353.704 390.467 353.7 390.263 353.854C390.049 354.014 390.145 354.254 390.074 354.451C389.974 354.533 389.888 354.512 389.801 354.4C389.563 354.101 389.363 353.749 389.07 353.521C388.491 353.07 388.107 352.489 387.738 351.872C387.344 351.215 386.869 350.606 386.489 349.941C385.866 348.846 385.238 347.747 384.708 346.605C384.083 345.263 383.534 343.884 382.999 342.502C382.724 341.789 382.542 341.038 382.332 340.299C381.674 337.974 381.133 335.626 380.994 333.205C380.919 331.886 380.988 330.571 381.181 329.269C381.253 328.785 381.43 328.317 381.578 327.848C381.727 327.379 381.918 326.924 382.064 326.454C382.297 325.701 382.713 325.047 383.297 324.547C383.632 324.261 383.775 324.017 383.736 323.587C383.718 323.396 383.834 323.145 383.97 322.995C384.687 322.21 385.135 321.283 385.493 320.295C385.602 319.992 385.782 319.705 385.979 319.445C386.314 319 386.633 318.569 386.543 317.959C386.522 317.808 386.605 317.639 386.66 317.486C387.041 316.458 387.389 315.417 387.824 314.412C388.49 312.865 388.62 311.231 388.717 309.587C388.74 309.211 388.661 308.823 388.583 308.45C388.161 306.418 387.15 304.668 385.932 303.025C384.911 301.646 383.616 300.545 382.289 299.481C381.552 298.89 380.7 298.563 379.747 298.404C377.899 298.096 376.273 298.674 374.72 299.542C373.765 300.077 372.836 300.66 372.032 301.422C371.799 301.643 371.496 301.793 371.224 301.975C370.924 301.523 370.865 301.518 370.569 301.897C370.504 301.979 370.452 302.073 370.412 302.169C370.394 302.209 370.409 302.28 370.435 302.317C370.459 302.352 370.54 302.39 370.566 302.374C370.794 302.23 371.015 302.08 371.236 301.932ZM371.933 297.724C371.53 297.943 371.113 298.149 370.832 298.532C370.274 298.809 369.801 299.17 369.579 299.782C368.879 300.089 368.555 300.692 368.329 301.372C368.318 301.405 368.352 301.473 368.384 301.491C368.421 301.513 368.505 301.523 368.525 301.499C368.837 301.136 369.166 300.783 369.433 300.389C369.542 300.228 369.514 299.979 369.551 299.769C369.778 299.646 370.017 299.54 370.229 299.393C370.531 299.184 370.773 298.918 370.807 298.52C371.203 298.29 371.672 298.157 371.906 297.708C371.954 297.685 372.01 297.671 372.047 297.636C372.076 297.609 372.079 297.557 372.092 297.517C372.04 297.589 371.986 297.656 371.933 297.724ZM367.279 311.159C367.114 311.511 367.104 311.854 367.365 312.167C367.387 312.196 367.482 312.201 367.505 312.178C367.533 312.152 367.544 312.077 367.53 312.033C367.444 311.738 367.345 311.446 367.251 311.151C367.279 311.058 367.314 310.963 367.33 310.866C367.338 310.821 367.325 310.764 367.302 310.724C367.284 310.692 367.237 310.674 367.203 310.648C367.187 310.727 367.146 310.812 367.159 310.886C367.176 310.984 367.237 311.07 367.279 311.159ZM372.056 296.249C372.392 296.095 372.768 296.009 373.024 295.712C373.051 295.68 373.061 295.581 373.041 295.57C372.963 295.518 372.857 295.438 372.788 295.459C372.397 295.582 372.207 295.899 372.079 296.264C371.982 296.298 371.885 296.328 371.79 296.369C371.743 296.388 371.695 296.416 371.666 296.453C371.643 296.48 371.65 296.532 371.644 296.572C371.731 296.553 371.837 296.558 371.896 296.508C371.972 296.446 372.006 296.337 372.056 296.249Z" fill="#EB539F"/>
<path d="M393.521 367.744C393.451 367.55 393.31 367.193 393.203 366.826C393.105 366.492 393.189 366.172 393.386 365.895C394.039 364.969 394.872 364.334 396.013 364.076C397.068 363.838 397.975 364.089 398.751 364.761C399.12 365.082 399.459 365.407 399.902 365.644C400.538 365.984 400.77 366.612 400.761 367.306C400.756 367.684 400.682 368.069 400.585 368.437C400.462 368.905 400.176 369.319 400.229 369.848C400.247 370.039 400.121 370.277 399.999 370.448C399.598 371.003 399.436 371.622 399.421 372.296C399.419 372.404 399.379 372.511 399.352 372.617C399.266 372.952 398.797 373.232 398.443 373.154C398.284 373.119 398.119 373.089 397.969 373.022C397.004 372.592 396.147 372.006 395.543 371.127C394.986 370.319 394.481 369.475 393.968 368.64C393.823 368.404 393.721 368.149 393.521 367.744Z" fill="#EB539F"/>
<path d="M725.647 192.556C724.739 193.209 723.77 193.697 722.632 193.821C721.887 193.901 721.249 194.251 720.629 194.686C719.772 195.289 718.971 195.945 718.27 196.726C717.736 197.32 717.151 197.868 716.65 198.487C715.895 199.421 715.083 200.326 714.588 201.481C714.577 201.133 714.584 200.783 714.548 200.438C714.538 200.34 714.418 200.241 714.326 200.169C714.177 200.049 713.865 200.112 713.84 200.256C713.738 200.852 713.51 201.437 713.734 202.059C713.763 202.139 713.669 202.34 713.594 202.365C713.067 202.543 713.317 202.94 713.32 203.265C712.913 203.358 712.474 203.387 712.414 203.959C712.396 204.125 712.276 204.297 712.158 204.428C712.105 204.488 711.867 204.491 711.848 204.454C711.683 204.128 711.495 203.798 711.422 203.446C711.337 203.029 711.297 202.585 711.346 202.164C711.486 200.946 711.675 199.735 711.856 198.522C711.911 198.159 712.017 197.804 712.093 197.442C712.23 196.781 712.282 196.09 712.518 195.467C712.82 194.667 713.255 193.916 713.657 193.159C714.033 192.453 714.438 191.764 715.107 191.28C715.206 191.208 715.313 191.136 715.386 191.041C716.8 189.198 718.775 188.059 720.671 186.824C720.88 186.688 721.149 186.569 721.362 186.716C721.772 187.002 722.17 186.925 722.585 186.791C723.051 186.642 723.536 186.527 723.98 186.327C725.344 185.713 726.806 185.533 728.253 185.292C728.854 185.193 729.471 185.209 730.077 185.148C730.149 185.141 730.212 184.974 730.26 184.872C730.267 184.856 730.187 184.77 730.139 184.76C730.021 184.734 729.897 184.73 729.776 184.727C729.618 184.722 729.533 184.662 729.563 184.539C729.572 184.496 729.647 184.445 729.695 184.442C730.922 184.395 732.142 184.445 733.343 184.725C733.701 184.807 734.069 184.983 734.418 184.951C735.277 184.878 735.969 185.125 736.581 185.725C736.735 185.876 737.032 185.947 737.26 185.939C738.32 185.893 739.035 186.516 739.522 187.29C739.987 188.032 740.559 188.648 741.14 189.275C741.645 189.82 741.98 190.445 742.245 191.154C742.896 192.899 743.211 194.691 743.271 196.541C743.292 197.215 743.324 197.891 743.391 198.563C743.629 200.956 743.076 204.775 742.202 206.88C741.519 208.525 740.823 210.158 740.264 211.85C740.072 212.426 739.784 212.985 739.464 213.506C738.363 215.281 737.48 217.171 736.533 219.027C736.422 219.245 736.296 219.467 736.127 219.64C734.964 220.815 733.946 222.144 732.537 223.058C732.229 223.257 731.926 223.466 731.602 223.64C728.956 225.065 726.243 226.36 723.494 227.574C722.321 228.093 721.076 228.454 719.845 228.832C719.234 229.019 718.741 229.241 718.432 229.871C718.223 230.292 717.816 230.629 717.454 230.958C716.728 231.615 716.001 232.248 715.486 233.116C715.18 233.633 714.718 234.059 714.373 234.571C713.368 236.063 712.668 237.691 712.136 239.4C712.026 239.751 711.941 240.109 711.868 240.47C711.628 241.672 711.403 242.881 711.17 244.085C711.146 244.206 711.104 244.323 711.087 244.443C710.972 245.23 710.912 246.03 710.739 246.804C710.567 247.577 710.271 248.323 710.053 249.086C709.802 249.974 709.692 250.89 709.601 251.807C709.549 252.328 709.164 252.603 708.744 252.605C708.499 252.606 708.252 252.587 708.01 252.615C707.161 252.718 707.159 252.725 707.28 251.928C707.317 251.69 707.098 251.514 706.812 251.51C706.514 251.504 706.433 251.783 706.235 251.908C706.091 251.912 706.029 251.835 706.029 251.675C706.024 251.248 706.088 250.799 705.986 250.397C705.785 249.601 705.844 248.823 705.941 248.025C706.044 247.174 706.042 246.309 706.163 245.46C706.365 244.064 706.565 242.662 706.88 241.288C707.249 239.674 707.711 238.078 708.187 236.49C708.433 235.67 708.788 234.881 709.111 234.084C710.125 231.578 711.259 229.131 712.799 226.896C713.638 225.678 714.602 224.563 715.667 223.545C716.063 223.167 716.54 222.874 716.993 222.562C717.446 222.25 717.928 221.98 718.379 221.664C719.102 221.158 719.919 220.866 720.778 220.825C721.271 220.802 721.566 220.684 721.826 220.278C721.941 220.096 722.216 219.954 722.439 219.915C723.612 219.713 724.645 219.202 725.639 218.575C725.944 218.382 726.3 218.252 726.652 218.157C727.254 217.994 727.832 217.832 728.171 217.231C728.256 217.083 728.446 216.991 728.599 216.893C729.642 216.247 730.664 215.565 731.739 214.975C733.389 214.066 734.627 212.71 735.841 211.325C736.12 211.008 736.316 210.611 736.504 210.228C737.526 208.141 737.834 205.901 737.886 203.613C737.93 201.693 737.541 199.83 737.099 197.979C736.853 196.95 736.325 196.077 735.591 195.282C734.17 193.741 732.337 193.135 730.367 192.836C729.157 192.653 727.935 192.53 726.701 192.652C726.343 192.686 725.973 192.611 725.607 192.585C725.653 191.98 725.604 191.935 725.082 192.066C724.968 192.094 724.857 192.142 724.756 192.2C724.713 192.223 724.678 192.296 724.675 192.346C724.673 192.393 724.718 192.482 724.752 192.486C725.052 192.516 725.35 192.535 725.647 192.556ZM729.152 189.315C728.646 189.232 728.137 189.128 727.625 189.273C726.941 189.135 726.276 189.129 725.659 189.517C724.83 189.309 724.13 189.619 723.463 190.065C723.43 190.086 723.413 190.169 723.43 190.208C723.447 190.253 723.514 190.319 723.548 190.312C724.074 190.205 724.607 190.119 725.114 189.954C725.32 189.887 725.467 189.647 725.643 189.487C725.928 189.534 726.212 189.605 726.5 189.621C726.912 189.643 727.308 189.573 727.611 189.245C728.119 189.314 728.625 189.519 729.14 189.282C729.198 189.295 729.257 189.321 729.314 189.316C729.358 189.311 729.396 189.268 729.435 189.241C729.34 189.269 729.246 189.292 729.152 189.315ZM715.815 197.994C715.427 198.191 715.183 198.488 715.199 198.944C715.198 198.984 715.278 199.053 715.314 199.05C715.358 199.045 715.418 198.987 715.437 198.939C715.562 198.619 715.676 198.293 715.795 197.968C715.884 197.904 715.98 197.844 716.061 197.77C716.099 197.735 716.126 197.676 716.134 197.625C716.14 197.584 716.11 197.536 716.098 197.49C716.03 197.549 715.935 197.595 715.896 197.67C715.843 197.768 715.838 197.886 715.815 197.994ZM730.274 188.096C730.676 188.19 731.069 188.373 731.499 188.286C731.544 188.276 731.621 188.196 731.612 188.172C731.577 188.073 731.539 187.929 731.464 187.901C731.034 187.741 730.648 187.89 730.285 188.125C730.175 188.088 730.068 188.049 729.957 188.019C729.902 188.004 729.841 187.996 729.79 188.009C729.75 188.017 729.721 188.067 729.688 188.099C729.778 188.141 729.869 188.219 729.955 188.215C730.064 188.213 730.169 188.14 730.274 188.096Z" fill="#EB539F"/>
<path d="M700.154 266.024C700.226 265.803 700.347 265.391 700.504 264.994C700.647 264.631 700.941 264.406 701.305 264.296C702.518 263.927 703.69 263.938 704.875 264.492C705.971 265.007 706.601 265.851 706.825 266.978C706.931 267.515 707.007 268.035 707.236 268.549C707.565 269.287 707.339 270 706.854 270.608C706.59 270.939 706.26 271.228 705.923 271.486C705.492 271.815 704.954 271.985 704.639 272.489C704.523 272.671 704.248 272.794 704.023 272.861C703.288 273.077 702.719 273.512 702.243 274.098C702.167 274.192 702.059 274.259 701.962 274.334C701.656 274.571 701.049 274.496 700.79 274.185C700.673 274.044 700.549 273.905 700.462 273.743C699.904 272.699 699.549 271.593 699.619 270.401C699.681 269.306 699.814 268.213 699.934 267.122C699.968 266.815 700.053 266.518 700.154 266.024Z" fill="#EB539F"/>
<path d="M65.5 112.273C68.3 87.1876 23 73.879 0 70.3604V0H1526V96.4394C1526 232.423 1360.5 155.117 1350.5 106.995C1340.5 58.8731 1133 43.0394 1177 238.012C1221 432.984 988 424.291 944 389.829C900 355.368 1043.5 261.917 861.5 261.917C679.5 261.917 937.5 106.995 721.5 106.995C505.5 106.995 517.5 171.883 450 223.109C382.5 274.336 249.5 263.159 224 171.883C198.5 80.6057 132.36 96.3616 118 119.414C97.5 152.323 183.5 306.935 118 306.935C52.5 306.935 62 143.63 65.5 112.273Z" fill="black"/>
<path d="M261.5 169.709C279.333 199.824 328.5 251.672 382.5 218.141M820 203.86C815.333 220.729 818.4 252.727 868 245.773M977.5 342.638C966.833 369.752 974.1 415.846 1088.5 383.309M80.5 227.766C85.5 250.326 99.8 294.64 117 291.411M1375 91.1611C1381.67 105.96 1404.5 138.104 1442.5 148.287" stroke="#FFB4D9" stroke-width="5" stroke-linecap="round"/>
<path d="M64.5 81.8474C71.8333 85.159 85.4 98.4263 81 125.002M136.5 88.6776C151.5 83.5032 186.4 79.4879 206 104.822M714.5 78.7426C756.5 71.0845 820.5 75.3275 840 115.378M1171.5 92.7137C1183.5 78.5357 1221.2 51.8563 1276 58.5624" stroke="#CA1771" stroke-width="5" stroke-linecap="round"/>
<path d="M60 288.928C70.5 309.936 105.1 344.874 159.5 316.559M141.5 132.143C171 120.345 193.5 141.146 210.5 196.099M394 267.195C428.667 264.919 506.4 242.048 540 168.778M696.5 135.558C726 128.314 781.1 124.816 765.5 168.778M859.5 288.928C883 285.306 926.1 287.872 910.5 327.115C891 376.169 877.5 424.291 993 430.5M1230 242.669C1237.5 279.821 1238 361.763 1180 392.313M1267.5 106.995C1283 106.271 1319.2 112.708 1340 144.251C1366 183.68 1419 202.929 1464.5 196.099" stroke="#171717" stroke-width="5" stroke-linecap="round"/>
</svg>
