<svg width="1611" height="477" viewBox="0 0 1611 477" fill="none" xmlns="http://www.w3.org/2000/svg">
<path d="M846.686 392.855C846.553 393.666 846.42 394.468 846.286 395.28C846.21 395.766 846.382 396.12 846.848 396.225C847.029 396.263 847.296 396.215 847.429 396.1C848.038 395.566 848.733 395.07 849.171 394.411C851.008 391.681 853.264 389.333 855.511 386.947C857.463 384.875 859.347 382.67 860.88 380.284C863.346 376.428 866.582 373.326 870 370.424C873.579 367.389 877.521 364.821 881.11 361.767C883.604 359.638 886.764 358.512 889.868 357.481C891.829 356.832 893.571 355.877 895.341 354.856C899.568 352.412 903.738 349.74 908.555 348.556C910.488 348.079 911.658 346.8 912.848 345.234C914.61 345.416 916.428 345.769 918.236 345.75C920.055 345.721 921.873 345.272 923.691 345.091C924.7 344.986 925.738 344.977 926.747 345.034C932.278 345.349 936.476 347.85 939.037 352.851C939.78 354.302 940.437 355.82 940.903 357.376C942.74 363.542 943.102 369.842 942.35 376.208C942.179 377.621 941.827 379.024 941.436 380.399C939.408 387.51 936.629 394.325 932.925 400.73C928.832 407.812 924.605 414.809 919.636 421.338C918.893 422.311 918.189 423.323 917.561 424.373C915.124 428.459 912.23 432.095 908.098 434.596C907.603 434.902 907.279 435.493 906.87 435.951C906.451 436.371 906.042 436.782 905.623 437.202C904.795 436.381 903.967 435.56 903.138 434.739C902.729 434.319 902.31 433.899 901.901 433.489C902.738 431.418 903.576 429.346 904.414 427.275L904.338 427.361C905.299 426.387 906.423 425.528 907.184 424.421C908.622 422.331 909.878 420.106 911.154 417.902C911.439 417.405 911.525 416.794 911.706 416.231C915.543 413.788 917.703 409.931 920.102 406.276C920.198 406.132 920.198 405.884 920.179 405.703C920.15 405.521 920.074 405.321 919.95 405.197C919.826 405.082 919.579 404.977 919.436 405.025C917.551 405.655 916.228 407.392 914.162 407.669C915.733 405.502 916.761 403.04 917.799 400.596C918.179 399.689 918.408 398.611 918.332 397.637C918.16 395.719 918.446 393.915 919.455 392.34C921.235 389.552 920.807 385.916 923.015 383.31C923.253 383.033 923.263 382.537 923.32 382.136C923.815 378.91 924.367 375.683 924.758 372.438C925.024 370.214 925.148 367.952 925.167 365.709C925.176 364.506 924.957 363.256 924.586 362.101C923.986 360.22 922.654 359.008 920.645 358.683C917.979 358.244 915.39 358.664 912.772 359.237C904.699 361.003 897.331 364.582 890.22 368.553C883.632 372.228 877.54 376.724 871.818 381.716C867.972 385.076 863.974 388.235 860.471 391.977C859.919 392.569 859.262 393.094 858.586 393.533C856.33 395.012 854.616 397.036 852.826 399.002L852.874 399.05C852.855 397.809 852.836 396.568 852.807 395.318L852.865 395.375C852.122 396.062 851.322 396.702 850.656 397.456C849.58 398.678 848.657 400.043 847.533 401.226C846.857 401.952 846.01 402.658 845.106 402.992C843.992 403.402 843.335 402.295 842.555 401.694C842.021 401.283 841.412 401.35 840.822 401.589C840.441 401.742 840.079 401.952 839.689 402.057C838.747 402.314 837.976 402.066 837.519 401.388C835.358 398.153 833.311 394.888 832.911 390.832C832.749 389.228 832.131 387.663 831.683 386.088C831.093 384.035 829.846 382.413 828.094 381.267C826.561 380.265 824.905 379.444 823.268 378.614C815.747 374.796 807.922 375.053 799.992 376.896C799.792 376.943 799.601 377.029 799.411 377.087C797.583 377.707 796.241 378.929 795.375 380.628C794.918 381.535 794.528 382.489 794.242 383.463C792.186 390.517 792.281 397.599 794.223 404.653C794.937 407.23 796.117 409.626 797.698 411.793C801.439 416.938 805.609 421.691 810.663 425.595C819.412 432.372 828.818 438.042 838.937 442.538C843.04 444.361 847.172 446.127 851.17 448.131C856.453 450.785 861.766 453.41 866.744 456.636C867.934 457.409 869.239 458.01 870.514 458.64C871.314 459.032 872.713 458.688 873.342 458.01C873.894 457.409 874.446 456.798 874.941 456.159C878.311 451.796 881.614 447.377 885.032 443.053C887.05 440.485 889.258 438.004 892.019 436.276C893.599 435.293 895.103 434.367 896.274 432.907C896.389 432.763 896.969 432.926 897.303 433.04C897.436 433.088 897.569 433.384 897.55 433.556C897.407 434.768 897.226 435.971 897.055 437.183C896.503 437.345 895.951 437.498 895.408 437.689C895.246 437.746 895.085 437.908 894.999 438.07C894.932 438.204 894.97 438.405 894.961 438.576C895.284 438.548 895.713 438.634 895.913 438.462C896.341 438.09 896.646 437.584 896.998 437.126C898.645 435.894 900.282 434.663 901.929 433.441C902.348 433.852 902.767 434.272 903.186 434.682C902.396 435.818 901.596 436.944 900.806 438.08C900.473 438.567 900.149 439.063 899.825 439.56C899.473 440.104 899.644 441.058 900.149 441.106C900.692 441.163 901.444 441.192 901.796 440.877C903.119 439.703 904.328 438.385 905.575 437.126C905.994 436.706 906.403 436.295 906.822 435.875C907.346 436.83 907.394 437.803 906.88 438.758C905.528 441.259 903.757 443.464 901.853 445.535C901.187 446.26 900.33 446.842 899.483 447.377C898.302 448.131 897.055 448.78 895.827 449.467L895.77 449.41C896.732 450.708 896.874 452.016 895.713 453.257C894.323 454.736 892.952 456.216 892.086 458.087C891.181 460.034 889.687 461.284 887.669 462C887.126 462.191 886.679 462.659 886.06 463.088C885.936 463.823 885.85 464.616 885.66 465.389C885.47 466.162 885.393 467.116 884.889 467.641C882.909 469.732 881.824 472.404 880.177 474.705C879.71 475.354 879.139 475.936 878.558 476.499C877.682 477.358 875.997 477.062 875.436 475.974C875.255 475.621 875.131 475.22 875.036 474.838C874.617 473.197 873.846 473.292 872.97 474.037C872.513 474.428 872.056 474.838 871.571 475.192C870.971 475.631 870.609 475.354 869.981 474.046L870.029 474.084C868.21 473.903 866.363 473.846 864.64 472.92C864.193 471.154 863.679 469.388 861.756 468.577C858.576 465.303 854.578 463.184 850.808 460.74C848.914 459.509 846.962 458.421 844.725 457.905C842.916 457.485 841.365 456.474 839.756 455.567C836.376 453.658 832.921 451.863 829.446 450.126C828.37 449.582 827.142 449.143 825.962 449.057C823.401 448.876 821.231 447.797 819.127 446.518C816.851 445.134 814.595 443.769 812.082 442.824C810.759 442.328 809.521 441.526 808.379 440.686C805.904 438.882 803.571 436.868 800.811 435.465C800.268 435.188 799.783 434.777 799.345 434.357C794.813 429.919 790.491 425.29 786.779 420.126C785.808 418.78 785.122 417.357 785.446 415.553C785.75 413.874 784.989 412.337 784.351 410.829C782.809 407.211 781.952 403.431 781.724 399.508C781.686 398.926 781.847 398.286 782.076 397.752C782.161 397.551 782.856 397.379 783.056 397.513C785.189 398.964 786.255 401.15 787.14 403.488C787.264 403.813 787.673 404.042 787.987 404.271C788.025 404.3 788.406 404.032 788.387 403.956C787.978 402.171 787.569 400.386 787.093 398.62C786.883 397.847 786.522 397.103 786.293 396.52C786.541 394.258 787.807 392.483 787.702 390.354C787.616 388.646 787.416 387.271 785.655 386.288C784.294 385.524 784.246 383.864 784.599 382.394C785.103 380.332 786.255 378.585 787.94 377.363C790.082 375.817 792.357 374.414 794.68 373.135C796.46 372.152 798.421 371.483 800.287 370.653C802.41 369.699 804.59 369.498 806.875 369.928C812.729 371.016 818.498 372.333 823.639 375.55C823.81 375.655 824.01 375.76 824.201 375.779C824.581 375.807 825.067 375.893 825.314 375.702C825.486 375.569 825.438 374.977 825.314 374.662C825.086 374.099 824.648 373.622 824.448 373.049C824.324 372.715 824.429 372.257 824.543 371.884C824.677 371.445 825.629 371.092 826.133 371.293C827.076 371.665 828.113 371.932 828.894 372.533C832.15 375.044 835.11 377.879 837.281 381.41C839.527 385.076 841.907 388.674 843.135 392.865C843.469 393.991 844.344 394.172 845.629 393.476C845.991 393.285 846.353 393.084 846.705 392.893C846.743 392.903 846.686 392.855 846.686 392.855ZM889.668 445.793C889.382 446.041 889.078 446.27 888.821 446.537C888.735 446.623 888.792 446.842 888.782 446.995C889.449 446.842 889.43 446.222 889.63 445.754L889.668 445.793ZM834.349 381.468C834.434 381.325 834.663 381.115 834.615 381.019C833.606 378.766 831.902 377.163 829.798 375.951C829.713 375.903 829.417 376.056 829.332 376.18C829.237 376.313 829.189 376.59 829.265 376.724C830.398 378.661 832.016 380.122 833.777 381.449C833.901 381.544 834.149 381.468 834.349 381.468ZM788.254 382.47C788.425 382.518 788.654 382.661 788.759 382.604C788.911 382.518 789.082 382.279 789.063 382.117C789.016 381.515 788.711 381.43 788.321 381.888C788.216 382.012 788.273 382.27 788.254 382.47Z" fill="#EB539F"/>
<path d="M784.104 391.643C784.532 391.681 784.751 391.929 784.675 392.368C784.589 392.807 784.294 392.979 783.894 392.826C783.761 392.769 783.637 392.569 783.589 392.416C783.475 391.977 783.666 391.71 784.104 391.643Z" fill="#EB539F"/>
<path d="M846.743 392.903C847.153 392.082 847.552 391.261 847.962 390.431L847.905 390.373C847.495 391.194 847.096 392.025 846.686 392.846C846.686 392.855 846.743 392.903 846.743 392.903Z" fill="#EB539F"/>
<path d="M914.229 407.583C914.181 409.635 913.791 411.583 912.82 413.434C912.353 414.322 912.115 415.324 911.773 416.269C910.373 417.062 908.974 417.873 907.565 418.637C907.422 418.713 907.079 418.675 906.994 418.56C906.775 418.264 906.613 417.911 906.508 417.558C906.461 417.396 906.556 417.138 906.661 416.985C908.936 413.654 910.84 410.017 914.229 407.583Z" fill="#EB539F"/>
<path d="M904.423 427.265C902.929 427.857 901.539 428.85 899.806 428.573C899.635 428.544 899.435 428.382 899.33 428.229C899.235 428.077 899.149 427.809 899.216 427.666C900.111 425.757 901.539 424.373 903.424 423.457C903.881 423.237 904.795 423.781 904.738 424.335C904.642 425.347 904.481 426.349 904.347 427.351L904.423 427.265Z" fill="#EB539F"/>
<path d="M852.826 398.983L852.874 399.031C852.874 399.04 852.826 398.983 852.826 398.983Z" fill="#EB539F"/>
<path d="M652.337 375.473C652.568 376.131 652.795 376.783 653.025 377.441C653.166 377.835 653.437 378.028 653.825 377.918C653.975 377.873 654.154 377.73 654.206 377.591C654.441 376.946 654.755 376.296 654.812 375.628C655.066 372.851 655.786 370.19 656.484 367.504C657.09 365.172 657.593 362.767 657.761 360.37C658.024 356.5 659.165 352.881 660.522 349.337C661.945 345.629 663.825 342.123 665.247 338.396C666.233 335.802 668.12 333.686 670.003 331.663C671.194 330.387 672.099 328.971 672.997 327.495C675.14 323.966 677.148 320.289 680.24 317.46C681.48 316.323 681.829 314.897 682.076 313.25C683.456 312.673 684.948 312.201 686.282 311.456C687.619 310.699 688.785 309.63 690.06 308.76C690.766 308.274 691.532 307.847 692.303 307.482C696.534 305.481 700.663 305.647 704.593 308.338C705.733 309.119 706.837 309.984 707.814 310.955C711.681 314.806 714.507 319.354 716.534 324.401C716.981 325.523 717.289 326.71 717.558 327.892C718.941 334.01 719.646 340.211 719.5 346.48C719.34 353.411 719.046 360.332 718.011 367.205C717.855 368.231 717.744 369.269 717.704 370.306C717.555 374.334 716.885 378.214 714.836 381.747C714.593 382.175 714.593 382.746 714.475 383.253C714.335 383.735 714.198 384.207 714.058 384.689C713.11 384.412 712.163 384.135 711.215 383.858C710.741 383.711 710.26 383.567 709.79 383.427C709.57 381.545 709.35 379.664 709.131 377.782L709.109 377.876C709.427 376.762 709.911 375.668 710.027 374.536C710.244 372.397 710.273 370.232 710.324 368.074C710.334 367.589 710.15 367.099 710.055 366.606C711.909 363.235 711.946 359.488 712.241 355.795C712.253 355.65 712.153 355.465 712.065 355.337C711.97 355.214 711.832 355.095 711.69 355.053C711.552 355.018 711.325 355.039 711.239 355.133C710.097 356.364 709.82 358.193 708.401 359.234C708.686 356.985 708.449 354.735 708.226 352.495C708.14 351.665 707.872 350.769 707.42 350.075C706.514 348.715 705.993 347.255 706.102 345.674C706.291 342.878 704.497 340.342 705.077 337.507C705.141 337.205 704.947 336.831 704.826 336.509C703.883 333.906 702.983 331.279 701.955 328.703C701.249 326.938 700.423 325.203 699.526 323.524C699.045 322.624 698.375 321.781 697.63 321.071C696.422 319.912 694.941 319.548 693.32 320.118C691.164 320.868 689.414 322.228 687.705 323.713C682.434 328.292 678.422 333.937 674.76 339.77C671.366 345.171 668.672 350.983 666.456 357.015C664.967 361.073 663.284 365.043 662.205 369.247C662.036 369.911 661.762 370.568 661.439 371.168C660.366 373.182 659.917 375.382 659.388 377.571L659.442 377.587C658.924 376.67 658.406 375.754 657.877 374.834L657.943 374.853C657.671 375.665 657.338 376.465 657.15 377.296C656.848 378.641 656.717 380.032 656.365 381.367C656.158 382.181 655.816 383.05 655.281 383.664C654.622 384.42 653.685 383.861 652.862 383.728C652.3 383.638 651.875 383.934 651.534 384.351C651.313 384.618 651.13 384.921 650.884 385.157C650.289 385.73 649.616 385.857 649.002 385.537C646.086 383.999 643.242 382.395 641.299 379.534C640.527 378.404 639.433 377.488 638.461 376.496C637.19 375.205 635.607 374.501 633.842 374.355C632.298 374.228 630.737 374.286 629.185 374.329C622.056 374.525 616.357 377.88 611.223 382.458C611.094 382.574 610.988 382.715 610.87 382.835C609.766 384.036 609.267 385.489 609.314 387.105C609.343 387.965 609.441 388.834 609.625 389.675C610.964 395.762 613.91 401 618.214 405.47C619.79 407.101 621.639 408.409 623.691 409.385C628.555 411.705 633.577 413.561 638.912 414.427C648.153 415.939 657.431 416.362 666.762 415.62C670.546 415.32 674.327 414.966 678.107 414.843C683.103 414.684 688.109 414.492 693.112 414.883C694.308 414.979 695.52 414.899 696.722 414.853C697.474 414.821 698.372 414 698.563 413.241C698.729 412.57 698.89 411.891 698.997 411.215C699.726 406.603 700.382 401.975 701.161 397.372C701.615 394.643 702.246 391.901 703.592 389.498C704.365 388.127 705.105 386.829 705.38 385.268C705.407 385.115 705.903 385.001 706.197 384.952C706.315 384.933 706.534 385.1 706.59 385.236C706.976 386.196 707.33 387.166 707.695 388.138C707.352 388.482 707.004 388.819 706.679 389.181C706.583 389.289 706.528 389.475 706.531 389.631C706.536 389.757 706.645 389.891 706.708 390.023C706.936 389.871 707.289 389.762 707.368 389.553C707.534 389.102 707.555 388.602 707.63 388.118C708.351 386.535 709.066 384.956 709.792 383.38C710.269 383.516 710.75 383.66 711.227 383.797C711.102 384.962 710.967 386.125 710.842 387.29C710.792 387.788 710.754 388.288 710.715 388.789C710.675 389.337 711.19 389.979 711.583 389.81C712.009 389.633 712.578 389.351 712.712 388.974C713.216 387.564 713.578 386.094 713.992 384.651C714.132 384.169 714.269 383.698 714.409 383.216C715.185 383.715 715.616 384.421 715.622 385.34C715.635 387.75 715.217 390.108 714.645 392.421C714.446 393.231 714.047 394.011 713.635 394.752C713.066 395.791 712.404 396.778 711.772 397.787L711.707 397.767C712.947 398.346 713.584 399.262 713.226 400.656C712.796 402.32 712.38 403.977 712.497 405.721C712.617 407.537 712.016 409.073 710.81 410.422C710.485 410.783 710.343 411.313 710.058 411.883C710.265 412.481 710.523 413.105 710.696 413.758C710.869 414.411 711.2 415.153 711.039 415.748C710.419 418.106 710.699 420.536 710.411 422.916C710.329 423.588 710.142 424.253 709.94 424.907C709.639 425.901 708.269 426.362 707.41 425.778C707.133 425.588 706.878 425.339 706.653 425.093C705.675 424.039 705.142 424.422 704.795 425.331C704.615 425.807 704.443 426.298 704.226 426.757C703.959 427.327 703.579 427.267 702.582 426.546L702.632 426.556C701.21 427.155 699.817 427.859 698.163 427.866C697.114 426.731 696.016 425.624 694.26 425.796C690.572 424.642 686.746 424.68 682.958 424.383C681.053 424.232 679.164 424.21 677.295 424.73C675.783 425.148 674.221 425.022 672.66 424.997C669.378 424.94 666.086 425 662.804 425.111C661.785 425.14 660.696 425.309 659.785 425.723C657.812 426.623 655.764 426.696 653.685 426.594C651.435 426.482 649.207 426.378 646.959 426.689C645.776 426.855 644.533 426.757 643.345 426.593C640.776 426.25 638.229 425.692 635.611 425.763C635.096 425.776 634.57 425.666 634.074 425.53C628.911 424.055 623.826 422.353 618.975 420.007C617.709 419.397 616.623 418.614 616.13 417.139C615.674 415.764 614.485 414.927 613.4 414.062C610.787 411.99 608.617 409.52 606.854 406.69C606.59 406.271 606.45 405.729 606.402 405.239C606.385 405.055 606.83 404.646 607.033 404.665C609.204 404.884 610.882 406.081 612.488 407.465C612.712 407.657 613.108 407.662 613.434 407.706C613.474 407.712 613.648 407.359 613.603 407.31C612.575 406.145 611.546 404.981 610.476 403.858C610.007 403.367 609.437 402.958 609.031 402.617C608.296 400.831 608.514 398.997 607.572 397.453C606.815 396.215 606.108 395.272 604.403 395.251C603.083 395.232 602.373 394.014 602.038 392.777C601.575 391.037 601.72 389.27 602.474 387.678C603.435 385.66 604.552 383.695 605.756 381.803C606.677 380.351 607.861 379.061 608.907 377.688C610.094 376.119 611.63 375.088 613.499 374.485C618.283 372.929 623.097 371.578 628.216 371.897C628.386 371.905 628.577 371.903 628.726 371.84C629.02 371.708 629.415 371.575 629.521 371.333C629.594 371.164 629.318 370.743 629.099 370.558C628.7 370.231 628.182 370.052 627.801 369.706C627.573 369.507 627.465 369.124 627.399 368.8C627.319 368.419 627.882 367.771 628.338 367.717C629.188 367.613 630.066 367.393 630.889 367.525C634.323 368.079 637.67 368.995 640.714 370.749C643.869 372.571 647.095 374.29 649.708 376.916C650.412 377.62 651.135 377.401 651.805 376.363C651.996 376.074 652.183 375.779 652.367 375.494C652.399 375.486 652.337 375.473 652.337 375.473ZM705.712 397.539C705.601 397.839 705.468 398.133 705.386 398.436C705.357 398.534 705.489 398.675 705.544 398.793C705.976 398.409 705.71 397.955 705.668 397.526L705.712 397.539ZM638.563 371.976C638.568 371.835 638.652 371.586 638.578 371.534C636.915 370.264 635 369.758 632.947 369.705C632.865 369.705 632.708 369.938 632.695 370.065C632.678 370.203 632.755 370.428 632.866 370.497C634.493 371.483 636.286 371.917 638.131 372.193C638.262 372.214 638.414 372.057 638.563 371.976ZM604.78 391.356C604.927 391.322 605.154 391.337 605.209 391.252C605.287 391.126 605.317 390.879 605.237 390.766C604.958 390.337 604.697 390.396 604.593 390.895C604.566 391.03 604.713 391.199 604.78 391.356Z" fill="#EB539F"/>
<path d="M605.426 399.868C605.759 399.723 606.022 399.819 606.144 400.177C606.259 400.539 606.11 400.786 605.751 400.834C605.629 400.845 605.456 400.746 605.359 400.652C605.096 400.371 605.129 400.095 605.426 399.868Z" fill="#EB539F"/>
<path d="M652.399 375.486C652.37 374.709 652.333 373.935 652.299 373.151L652.234 373.132C652.263 373.909 652.304 374.689 652.334 375.466C652.337 375.473 652.399 375.486 652.399 375.486Z" fill="#EB539F"/>
<path d="M708.415 359.143C709.213 360.692 709.714 362.3 709.746 364.072C709.76 364.922 709.991 365.765 710.12 366.608C709.404 367.764 708.696 368.934 707.961 370.072C707.886 370.187 707.616 370.297 707.506 370.246C707.223 370.114 706.96 369.917 706.739 369.696C706.638 369.594 706.604 369.364 706.619 369.207C706.954 365.806 706.89 362.327 708.415 359.143Z" fill="#EB539F"/>
<path d="M709.134 377.771C708.266 378.816 707.638 380.117 706.24 380.611C706.102 380.659 705.887 380.619 705.748 380.548C705.615 380.472 705.443 380.308 705.434 380.174C705.323 378.39 705.82 376.782 706.846 375.337C707.096 374.989 707.995 375.025 708.177 375.461C708.517 376.253 708.804 377.065 709.112 377.866L709.134 377.771Z" fill="#EB539F"/>
<path d="M659.38 377.557L659.435 377.573C659.438 377.58 659.38 377.557 659.38 377.557Z" fill="#EB539F"/>
<path d="M781.03 234.588C780.812 235.071 780.596 235.549 780.378 236.032C780.249 236.322 780.297 236.57 780.568 236.713C780.674 236.767 780.847 236.782 780.949 236.732C781.416 236.501 781.93 236.307 782.311 235.97C783.905 234.575 785.696 233.488 787.487 232.375C789.042 231.41 790.578 230.35 791.926 229.119C794.098 227.127 796.622 225.733 799.225 224.494C801.95 223.198 804.822 222.254 807.556 220.949C809.457 220.037 811.605 219.861 813.7 219.735C815.024 219.656 816.263 219.351 817.531 219.009C820.559 218.19 823.59 217.218 826.774 217.282C828.051 217.305 828.99 216.703 829.989 215.926C831.051 216.332 832.119 216.854 833.243 217.142C834.375 217.427 835.577 217.449 836.735 217.638C837.378 217.741 838.022 217.907 838.638 218.11C842.015 219.225 844.2 221.48 844.953 225.019C845.171 226.046 845.325 227.1 845.355 228.146C845.465 232.291 844.638 236.274 843.109 240.113C842.768 240.964 842.315 241.779 841.844 242.57C839.4 246.661 836.54 250.443 833.176 253.816C829.457 257.546 825.669 261.201 821.5 264.44C820.877 264.923 820.271 265.436 819.707 265.986C817.514 268.125 815.114 269.908 812.135 270.779C811.777 270.887 811.478 271.202 811.148 271.419C810.818 271.611 810.496 271.799 810.166 271.991C809.79 271.342 809.413 270.693 809.037 270.045C808.853 269.715 808.664 269.384 808.478 269.061C809.343 267.91 810.208 266.759 811.073 265.609L811.011 265.65C811.77 265.203 812.61 264.855 813.266 264.292C814.506 263.229 815.656 262.053 816.815 260.892C817.075 260.63 817.23 260.264 817.436 259.944C820.222 259.059 822.205 257.017 824.302 255.139C824.385 255.066 824.426 254.911 824.445 254.795C824.457 254.678 824.443 254.54 824.387 254.442C824.33 254.35 824.194 254.244 824.097 254.25C822.824 254.329 821.714 255.191 820.387 255.02C821.722 253.932 822.77 252.569 823.821 251.22C824.209 250.719 824.53 250.085 824.645 249.466C824.859 248.243 825.337 247.167 826.226 246.354C827.794 244.915 828.135 242.579 829.939 241.323C830.133 241.191 830.222 240.883 830.324 240.643C831.169 238.716 832.05 236.799 832.833 234.843C833.369 233.503 833.823 232.115 834.209 230.721C834.416 229.974 834.489 229.159 834.451 228.378C834.393 227.108 833.769 226.131 832.578 225.596C830.999 224.88 829.324 224.711 827.606 224.633C822.307 224.391 817.142 225.396 812.071 226.688C807.375 227.881 802.848 229.669 798.468 231.827C795.523 233.28 792.518 234.583 789.722 236.331C789.281 236.608 788.786 236.826 788.294 236.987C786.648 237.533 785.249 238.509 783.811 239.436L783.833 239.473C784.028 238.698 784.223 237.922 784.414 237.138L784.44 237.184C783.865 237.488 783.262 237.754 782.724 238.112C781.853 238.695 781.053 239.391 780.159 239.941C779.619 240.281 778.976 240.58 778.359 240.638C777.6 240.708 777.378 239.91 776.994 239.406C776.732 239.062 776.344 239.002 775.938 239.053C775.676 239.084 775.417 239.155 775.158 239.156C774.53 239.16 774.094 238.877 773.924 238.379C773.124 236.005 772.4 233.633 772.829 231.04C772.996 230.015 772.874 228.937 772.859 227.882C772.836 226.507 772.333 225.289 771.439 224.285C770.656 223.406 769.766 222.62 768.889 221.831C764.864 218.204 759.97 217.065 754.747 216.895C754.615 216.892 754.483 216.913 754.355 216.917C753.119 217 752.083 217.538 751.263 218.452C750.828 218.941 750.427 219.47 750.087 220.029C747.636 224.08 746.513 228.505 746.54 233.22C746.553 234.943 746.885 236.631 747.503 238.243C748.964 242.068 750.755 245.72 753.238 248.991C757.53 254.664 762.415 259.756 767.938 264.237C770.177 266.053 772.443 267.839 774.588 269.751C777.42 272.281 780.275 274.798 782.823 277.634C783.432 278.313 784.14 278.904 784.826 279.508C785.256 279.885 786.181 279.903 786.683 279.585C787.126 279.303 787.57 279.014 787.984 278.698C790.8 276.542 793.586 274.339 796.426 272.214C798.105 270.95 799.888 269.772 801.888 269.155C803.031 268.805 804.118 268.478 805.088 267.763C805.182 267.693 805.515 267.891 805.703 268.017C805.777 268.069 805.811 268.276 805.77 268.38C805.479 269.111 805.167 269.829 804.858 270.556C804.489 270.565 804.121 270.568 803.753 270.597C803.643 270.606 803.516 270.68 803.435 270.767C803.372 270.839 803.362 270.97 803.327 271.076C803.533 271.112 803.784 271.236 803.937 271.162C804.264 271.002 804.538 270.737 804.832 270.511C806.059 270.017 807.279 269.523 808.504 269.036C808.695 269.361 808.885 269.692 809.076 270.017C808.397 270.593 807.713 271.161 807.034 271.737C806.746 271.985 806.462 272.241 806.179 272.496C805.87 272.776 805.817 273.399 806.122 273.512C806.448 273.638 806.91 273.781 807.181 273.643C808.197 273.132 809.166 272.513 810.149 271.935C810.479 271.743 810.801 271.556 811.131 271.364C811.296 272.045 811.163 272.659 810.686 273.168C809.43 274.501 807.965 275.58 806.439 276.553C805.905 276.894 805.277 277.114 804.662 277.307C803.805 277.58 802.923 277.777 802.047 278.001L802.022 277.956C802.401 278.924 802.271 279.762 801.344 280.341C800.236 281.032 799.139 281.725 798.29 282.746C797.405 283.809 796.27 284.339 794.899 284.45C794.531 284.478 794.175 284.695 793.72 284.86C793.521 285.297 793.336 285.776 793.088 286.226C792.841 286.676 792.635 287.257 792.235 287.5C790.658 288.473 789.54 289.957 788.135 291.116C787.738 291.442 787.286 291.71 786.832 291.964C786.146 292.354 785.151 291.89 784.984 291.119C784.931 290.869 784.921 290.599 784.926 290.345C784.94 289.253 784.446 289.185 783.779 289.503C783.431 289.67 783.079 289.85 782.719 289.989C782.274 290.163 782.096 289.931 781.925 289.012L781.948 289.044C780.851 288.629 779.716 288.286 778.802 287.424C778.819 286.25 778.795 285.065 777.738 284.24C776.314 281.674 774.189 279.69 772.259 277.542C771.291 276.461 770.262 275.459 768.962 274.767C767.91 274.205 767.117 273.317 766.271 272.485C764.495 270.735 762.652 269.044 760.788 267.385C760.212 266.868 759.524 266.39 758.807 266.141C757.249 265.602 756.084 264.57 754.993 263.424C753.814 262.185 752.643 260.96 751.242 259.954C750.505 259.425 749.872 258.721 749.304 258.008C748.07 256.473 746.96 254.832 745.483 253.5C745.193 253.237 744.96 252.901 744.759 252.567C742.691 249.05 740.784 245.45 739.344 241.618C738.967 240.619 738.779 239.619 739.28 238.55C739.75 237.554 739.534 236.471 739.39 235.426C739.038 232.917 739.137 230.421 739.65 227.941C739.724 227.572 739.931 227.2 740.161 226.905C740.248 226.795 740.708 226.803 740.809 226.92C741.889 228.177 742.185 229.715 742.344 231.319C742.366 231.541 742.582 231.752 742.738 231.947C742.757 231.971 743.038 231.868 743.039 231.817C743.083 230.638 743.127 229.458 743.127 228.28C743.126 227.763 743.026 227.24 742.981 226.839C743.512 225.472 744.593 224.577 744.883 223.234C745.115 222.156 745.221 221.267 744.293 220.362C743.577 219.66 743.824 218.618 744.288 217.762C744.945 216.562 745.95 215.665 747.198 215.184C748.784 214.577 750.429 214.082 752.082 213.671C753.349 213.355 754.677 213.264 755.972 213.057C757.447 212.815 758.832 213.053 760.177 213.7C763.624 215.35 766.981 217.128 769.631 219.985C769.719 220.079 769.826 220.177 769.941 220.221C770.172 220.302 770.459 220.436 770.644 220.358C770.772 220.303 770.842 219.927 770.817 219.71C770.77 219.322 770.578 218.952 770.549 218.562C770.528 218.333 770.67 218.066 770.803 217.853C770.959 217.602 771.608 217.54 771.887 217.748C772.409 218.137 773.008 218.475 773.391 218.98C774.991 221.083 776.353 223.34 777.109 225.9C777.89 228.555 778.765 231.191 778.828 234.005C778.846 234.761 779.359 235.02 780.272 234.799C780.528 234.74 780.786 234.676 781.036 234.615C781.058 234.628 781.03 234.588 781.03 234.588ZM798.842 274.69C798.624 274.797 798.397 274.889 798.193 275.013C798.126 275.052 798.124 275.198 798.093 275.291C798.531 275.307 798.623 274.918 798.825 274.66L798.842 274.69ZM775.282 225.449C775.359 225.374 775.536 225.281 775.522 225.214C775.273 223.643 774.484 222.362 773.382 221.258C773.337 221.214 773.128 221.26 773.055 221.323C772.973 221.39 772.897 221.555 772.922 221.65C773.301 223.045 774.061 224.223 774.931 225.342C774.992 225.422 775.158 225.415 775.282 225.449ZM746.541 218.416C746.639 218.474 746.757 218.602 746.832 218.583C746.94 218.555 747.086 218.435 747.102 218.331C747.172 217.948 746.998 217.844 746.68 218.065C746.594 218.125 746.586 218.295 746.541 218.416Z" fill="#EB539F"/>
<path d="M742.438 223.439C742.697 223.533 742.791 223.724 742.671 223.985C742.544 224.244 742.333 224.302 742.11 224.141C742.037 224.083 741.994 223.938 741.99 223.835C741.992 223.542 742.155 223.407 742.438 223.439Z" fill="#EB539F"/>
<path d="M781.058 234.628C781.449 234.184 781.833 233.74 782.226 233.291L782.2 233.246C781.809 233.689 781.423 234.139 781.032 234.582C781.03 234.588 781.058 234.628 781.058 234.628Z" fill="#EB539F"/>
<path d="M820.443 254.978C820.071 256.248 819.504 257.395 818.593 258.387C818.156 258.862 817.841 259.447 817.471 259.978C816.471 260.239 815.468 260.512 814.468 260.753C814.366 260.777 814.16 260.697 814.126 260.611C814.04 260.39 813.998 260.144 813.992 259.906C813.99 259.797 814.092 259.653 814.182 259.575C816.149 257.879 817.936 255.931 820.443 254.978Z" fill="#EB539F"/>
<path d="M811.08 265.604C810.055 265.725 809.028 266.112 808 265.652C807.899 265.606 807.802 265.471 807.762 265.359C807.729 265.248 807.72 265.067 807.786 264.989C808.659 263.949 809.775 263.324 811.096 263.067C811.416 263.006 811.892 263.497 811.764 263.832C811.536 264.446 811.269 265.043 811.019 265.645L811.08 265.604Z" fill="#EB539F"/>
<path d="M783.814 239.424L783.836 239.462C783.834 239.468 783.814 239.424 783.814 239.424Z" fill="#EB539F"/>
<path d="M683.216 157.686C683.347 157.935 683.475 158.182 683.605 158.431C683.684 158.58 683.803 158.641 683.951 158.575C684.008 158.548 684.071 158.481 684.084 158.422C684.14 158.152 684.228 157.874 684.212 157.605C684.152 156.483 684.285 155.381 684.408 154.27C684.515 153.305 684.576 152.317 684.504 151.352C684.385 149.794 684.63 148.285 684.965 146.794C685.318 145.233 685.864 143.727 686.215 142.159C686.458 141.068 687.088 140.115 687.721 139.2C688.122 138.622 688.401 138.005 688.673 137.365C689.323 135.834 689.911 134.252 690.979 132.945C691.408 132.42 691.464 131.831 691.467 131.161C691.984 130.851 692.551 130.576 693.04 130.202C693.529 129.823 693.932 129.329 694.39 128.908C694.643 128.674 694.924 128.459 695.21 128.269C696.781 127.226 698.436 127.054 700.159 127.899C700.659 128.144 701.149 128.425 701.594 128.755C703.359 130.067 704.749 131.715 705.849 133.61C706.092 134.031 706.284 134.487 706.459 134.943C707.365 137.301 708.005 139.732 708.31 142.239C708.647 145.012 708.931 147.788 708.916 150.587C708.914 151.005 708.929 151.426 708.974 151.841C709.148 153.456 709.105 155.041 708.493 156.568C708.421 156.752 708.454 156.98 708.437 157.189C708.409 157.389 708.381 157.585 708.353 157.786C707.96 157.73 707.566 157.675 707.172 157.619C706.975 157.588 706.774 157.559 706.579 157.53C706.382 156.792 706.186 156.055 705.989 155.318L705.986 155.357C706.048 154.894 706.178 154.43 706.158 153.972C706.121 153.107 706.007 152.242 705.903 151.379C705.879 151.185 705.777 151 705.711 150.809C706.254 149.358 706.052 147.862 705.956 146.373C705.952 146.314 705.901 146.247 705.859 146.201C705.814 146.157 705.752 146.118 705.693 146.109C705.636 146.103 705.547 146.125 705.518 146.167C705.134 146.724 705.13 147.469 704.624 147.967C704.608 147.053 704.383 146.17 704.164 145.29C704.082 144.964 703.923 144.623 703.703 144.372C703.263 143.882 702.971 143.331 702.923 142.694C702.836 141.569 701.974 140.661 702.041 139.498C702.049 139.374 701.95 139.236 701.883 139.115C701.357 138.132 700.845 137.137 700.286 136.169C699.903 135.507 699.473 134.863 699.018 134.246C698.774 133.915 698.458 133.618 698.121 133.377C697.572 132.986 696.961 132.926 696.347 133.247C695.531 133.671 694.913 134.315 694.317 135.005C692.481 137.136 691.209 139.619 690.087 142.156C689.047 144.505 688.31 146.978 687.775 149.511C687.417 151.215 686.976 152.895 686.789 154.633C686.76 154.907 686.689 155.185 686.595 155.443C686.284 156.308 686.232 157.211 686.148 158.114L686.171 158.118C685.912 157.782 685.652 157.447 685.388 157.111L685.415 157.115C685.354 157.454 685.267 157.792 685.24 158.134C685.198 158.688 685.226 159.25 685.163 159.803C685.128 160.139 685.042 160.505 684.864 160.781C684.645 161.121 684.239 160.952 683.904 160.947C683.674 160.943 683.522 161.086 683.41 161.272C683.338 161.391 683.282 161.522 683.198 161.631C682.994 161.894 682.733 161.983 682.47 161.891C681.218 161.447 679.992 160.972 679.051 159.944C678.678 159.539 678.189 159.237 677.744 158.898C677.163 158.457 676.491 158.268 675.779 158.312C675.156 158.351 674.537 158.464 673.921 158.571C671.091 159.062 669.013 160.729 667.232 162.852C667.187 162.906 667.153 162.968 667.113 163.022C666.743 163.565 666.628 164.173 666.74 164.815C666.801 165.156 666.891 165.497 667.013 165.821C667.899 168.17 669.377 170.087 671.351 171.62C672.074 172.179 672.887 172.593 673.761 172.863C675.834 173.507 677.944 173.956 680.121 173.992C683.892 174.059 687.615 173.69 691.292 172.855C692.782 172.516 694.269 172.155 695.769 171.888C697.751 171.535 699.735 171.169 701.752 171.035C702.235 171.003 702.713 170.902 703.19 170.814C703.488 170.757 703.798 170.378 703.83 170.064C703.857 169.787 703.882 169.507 703.886 169.232C703.909 167.351 703.903 165.468 703.947 163.588C703.97 162.474 704.062 161.345 704.46 160.309C704.689 159.717 704.908 159.157 704.928 158.519C704.929 158.456 705.121 158.382 705.235 158.346C705.281 158.331 705.378 158.385 705.408 158.436C705.618 158.797 705.815 159.162 706.017 159.529C705.9 159.686 705.781 159.84 705.672 160.003C705.64 160.052 705.629 160.129 705.639 160.191C705.648 160.241 705.7 160.289 705.732 160.337C705.815 160.264 705.949 160.2 705.968 160.112C706.008 159.923 705.988 159.722 705.99 159.525C706.185 158.852 706.379 158.181 706.577 157.511C706.775 157.538 706.975 157.567 707.173 157.594C707.191 158.066 707.204 158.537 707.222 159.009C707.231 159.21 707.245 159.412 707.258 159.614C707.274 159.834 707.516 160.06 707.663 159.97C707.823 159.875 708.033 159.73 708.065 159.572C708.184 158.98 708.244 158.374 708.325 157.774C708.353 157.574 708.38 157.378 708.408 157.178C708.746 157.332 708.959 157.589 709.014 157.955C709.159 158.914 709.129 159.879 709.035 160.834C709.003 161.168 708.889 161.502 708.768 161.821C708.601 162.268 708.394 162.7 708.201 163.139L708.174 163.135C708.701 163.294 709.008 163.622 708.947 164.199C708.871 164.887 708.801 165.571 708.949 166.26C709.102 166.977 708.952 167.624 708.549 168.231C708.44 168.394 708.414 168.614 708.334 168.857C708.451 169.084 708.59 169.318 708.697 169.568C708.803 169.818 708.978 170.095 708.948 170.341C708.838 171.317 709.09 172.27 709.113 173.235C709.12 173.508 709.083 173.783 709.041 174.056C708.978 174.469 708.459 174.732 708.083 174.55C707.961 174.49 707.846 174.405 707.741 174.32C707.291 173.957 707.1 174.14 707.014 174.523C706.97 174.723 706.93 174.929 706.87 175.124C706.797 175.367 706.642 175.365 706.203 175.135L706.223 175.136C705.691 175.458 705.177 175.819 704.518 175.917C704.034 175.526 703.532 175.148 702.842 175.318C701.305 175.072 699.782 175.309 698.255 175.41C697.487 175.46 696.732 175.56 696.018 175.876C695.439 176.13 694.809 176.17 694.185 176.251C692.874 176.418 691.565 176.633 690.263 176.867C689.859 176.938 689.434 177.068 689.095 177.286C688.361 177.759 687.549 177.907 686.714 177.986C685.811 178.072 684.917 178.159 684.039 178.414C683.577 178.548 683.075 178.581 682.592 178.585C681.549 178.597 680.501 178.522 679.461 178.701C679.257 178.737 679.041 178.723 678.835 178.698C676.692 178.409 674.566 178.025 672.497 177.37C671.956 177.201 671.478 176.952 671.196 176.392C670.935 175.871 670.413 175.606 669.93 175.323C668.768 174.649 667.76 173.79 666.894 172.764C666.764 172.612 666.677 172.405 666.63 172.212C666.612 172.139 666.766 171.951 666.848 171.946C667.726 171.908 668.464 172.288 669.184 172.747C669.285 172.81 669.443 172.79 669.576 172.788C669.592 172.788 669.641 172.637 669.62 172.62C669.143 172.216 668.665 171.811 668.174 171.425C667.958 171.257 667.707 171.127 667.525 171.014C667.129 170.345 667.11 169.601 666.645 169.04C666.271 168.591 665.935 168.256 665.254 168.346C664.727 168.415 664.374 167.971 664.168 167.497C663.883 166.83 663.838 166.117 664.047 165.439C664.313 164.579 664.645 163.731 665.015 162.907C665.298 162.275 665.695 161.692 666.033 161.084C666.415 160.39 666.967 159.89 667.677 159.541C669.494 158.644 671.335 157.827 673.394 157.658C673.462 157.651 673.538 157.639 673.594 157.606C673.704 157.536 673.853 157.46 673.882 157.357C673.901 157.286 673.767 157.134 673.668 157.073C673.491 156.965 673.274 156.924 673.102 156.808C673 156.742 672.934 156.596 672.889 156.471C672.835 156.323 673.022 156.032 673.2 155.984C673.533 155.894 673.871 155.755 674.206 155.76C675.608 155.782 676.995 155.953 678.31 156.476C679.673 157.02 681.058 157.518 682.252 158.414C682.573 158.654 682.849 158.525 683.056 158.072C683.115 157.946 683.173 157.817 683.229 157.693C683.242 157.688 683.216 157.686 683.216 157.686ZM705.771 163.391C705.744 163.517 705.708 163.642 705.693 163.768C705.687 163.809 705.747 163.857 705.776 163.901C705.926 163.723 705.794 163.557 705.752 163.388L705.771 163.391ZM677.523 157.09C677.517 157.034 677.536 156.929 677.504 156.913C676.767 156.503 675.975 156.412 675.153 156.51C675.12 156.515 675.071 156.617 675.073 156.668C675.075 156.724 675.118 156.809 675.167 156.83C675.872 157.129 676.612 157.198 677.364 157.202C677.417 157.202 677.469 157.131 677.523 157.09ZM665.179 166.772C665.235 166.75 665.327 166.742 665.344 166.705C665.368 166.651 665.365 166.55 665.327 166.51C665.191 166.355 665.09 166.394 665.078 166.599C665.075 166.654 665.143 166.713 665.179 166.772Z" fill="#EB539F"/>
<path d="M665.929 170.127C666.054 170.05 666.164 170.073 666.234 170.209C666.3 170.347 666.255 170.454 666.115 170.494C666.067 170.505 665.992 170.476 665.948 170.444C665.827 170.347 665.824 170.235 665.929 170.127Z" fill="#EB539F"/>
<path d="M683.242 157.688C683.185 157.38 683.126 157.074 683.067 156.763L683.039 156.759C683.096 157.067 683.158 157.376 683.215 157.684C683.216 157.686 683.242 157.688 683.242 157.688Z" fill="#EB539F"/>
<path d="M704.625 147.929C705.032 148.5 705.325 149.112 705.441 149.817C705.496 150.155 705.636 150.478 705.737 150.806C705.518 151.308 705.303 151.816 705.076 152.312C705.053 152.362 704.952 152.422 704.905 152.408C704.785 152.372 704.668 152.308 704.567 152.233C704.521 152.198 704.494 152.108 704.492 152.045C704.428 150.67 704.201 149.287 704.625 147.929Z" fill="#EB539F"/>
<path d="M705.99 155.313C705.704 155.78 705.529 156.335 705.001 156.613C704.948 156.64 704.861 156.637 704.801 156.616C704.744 156.594 704.665 156.538 704.654 156.485C704.507 155.781 704.612 155.111 704.937 154.476C705.016 154.322 705.377 154.285 705.475 154.448C705.656 154.744 705.818 155.051 705.987 155.352L705.99 155.313Z" fill="#EB539F"/>
<path d="M686.144 158.109L686.167 158.112C686.169 158.115 686.144 158.109 686.144 158.109Z" fill="#EB539F"/>
<path d="M598.833 254.031C598.789 254.419 598.745 254.803 598.701 255.191C598.676 255.424 598.766 255.588 598.989 255.627C599.075 255.641 599.2 255.612 599.26 255.554C599.536 255.286 599.852 255.034 600.044 254.711C600.848 253.372 601.859 252.205 602.865 251.019C603.739 249.99 604.578 248.899 605.246 247.73C606.321 245.842 607.777 244.293 609.324 242.836C610.945 241.311 612.747 239.999 614.372 238.465C615.5 237.396 616.968 236.788 618.41 236.225C619.322 235.871 620.123 235.377 620.936 234.851C622.876 233.592 624.784 232.225 627.033 231.551C627.935 231.279 628.458 230.644 628.984 229.873C629.821 229.918 630.688 230.043 631.543 229.992C632.401 229.935 633.25 229.68 634.105 229.551C634.58 229.478 635.07 229.449 635.548 229.452C638.17 229.472 640.213 230.561 641.541 232.876C641.926 233.547 642.272 234.252 642.529 234.98C643.543 237.864 643.862 240.847 643.657 243.887C643.609 244.562 643.475 245.236 643.323 245.898C642.532 249.321 641.379 252.622 639.779 255.749C638.011 259.208 636.178 262.628 633.983 265.844C633.654 266.324 633.345 266.821 633.073 267.334C632.017 269.331 630.735 271.125 628.841 272.409C628.614 272.566 628.475 272.854 628.293 273.081C628.105 273.291 627.921 273.495 627.733 273.704C627.322 273.334 626.911 272.964 626.5 272.593C626.297 272.403 626.089 272.214 625.886 272.029C626.233 271.026 626.58 270.023 626.928 269.02L626.894 269.062C627.325 268.577 627.836 268.143 628.17 267.6C628.8 266.574 629.342 265.488 629.893 264.412C630.016 264.169 630.042 263.877 630.114 263.606C631.87 262.356 632.801 260.474 633.849 258.683C633.89 258.612 633.884 258.495 633.871 258.409C633.853 258.324 633.813 258.23 633.751 258.174C633.69 258.123 633.571 258.079 633.504 258.105C632.628 258.448 632.044 259.304 631.074 259.483C631.765 258.418 632.193 257.225 632.626 256.04C632.785 255.601 632.867 255.084 632.809 254.623C632.682 253.716 632.775 252.853 633.215 252.082C633.991 250.717 633.703 249 634.685 247.711C634.791 247.574 634.784 247.339 634.802 247.147C634.96 245.604 635.145 244.059 635.253 242.509C635.326 241.447 635.332 240.37 635.288 239.305C635.264 238.734 635.131 238.145 634.928 237.605C634.601 236.727 633.942 236.183 632.985 236.075C631.715 235.929 630.501 236.19 629.277 236.523C625.503 237.55 622.105 239.422 618.837 241.474C615.81 243.373 613.036 245.65 610.449 248.154C608.711 249.839 606.895 251.433 605.328 253.291C605.081 253.585 604.782 253.85 604.473 254.074C603.442 254.829 602.679 255.83 601.88 256.806L601.903 256.827C601.865 256.238 601.827 255.65 601.784 255.057L601.812 255.083C601.478 255.426 601.115 255.749 600.817 256.122C600.338 256.727 599.933 257.397 599.43 257.985C599.128 258.346 598.744 258.701 598.325 258.881C597.808 259.102 597.471 258.591 597.088 258.324C596.827 258.142 596.54 258.188 596.267 258.315C596.09 258.396 595.924 258.504 595.742 258.563C595.303 258.708 594.933 258.608 594.701 258.297C593.603 256.811 592.559 255.31 592.275 253.393C592.16 252.635 591.831 251.907 591.583 251.17C591.255 250.209 590.628 249.468 589.773 248.965C589.025 248.525 588.223 248.174 587.429 247.818C583.785 246.182 580.092 246.488 576.388 247.548C576.294 247.575 576.206 247.621 576.118 247.652C575.268 247.99 574.663 248.601 574.293 249.428C574.098 249.869 573.936 250.331 573.824 250.8C573.018 254.197 573.23 257.558 574.314 260.861C574.712 262.068 575.326 263.178 576.124 264.169C578.014 266.524 580.096 268.683 582.577 270.418C586.872 273.431 591.451 275.902 596.339 277.799C598.321 278.569 600.316 279.31 602.253 280.168C604.812 281.304 607.385 282.426 609.814 283.841C610.395 284.18 611.025 284.435 611.643 284.705C612.03 284.872 612.684 284.676 612.965 284.339C613.211 284.041 613.458 283.738 613.677 283.423C615.167 281.273 616.624 279.097 618.138 276.964C619.031 275.698 620.017 274.468 621.281 273.583C622.005 273.08 622.694 272.605 623.213 271.884C623.264 271.813 623.542 271.877 623.702 271.923C623.766 271.943 623.836 272.08 623.831 272.162C623.792 272.741 623.735 273.316 623.683 273.896C623.425 273.986 623.168 274.071 622.916 274.175C622.841 274.206 622.768 274.286 622.732 274.365C622.703 274.43 622.726 274.525 622.726 274.607C622.878 274.585 623.082 274.616 623.173 274.53C623.367 274.343 623.499 274.096 623.654 273.87C624.404 273.247 625.149 272.624 625.898 272.005C626.106 272.19 626.314 272.38 626.521 272.565C626.175 273.123 625.823 273.676 625.476 274.234C625.33 274.473 625.189 274.716 625.048 274.959C624.894 275.226 624.998 275.675 625.237 275.686C625.495 275.7 625.851 275.696 626.01 275.539C626.608 274.95 627.148 274.296 627.708 273.669C627.896 273.46 628.08 273.255 628.268 273.046C628.538 273.487 628.584 273.948 628.363 274.413C627.783 275.632 626.998 276.721 626.147 277.749C625.849 278.109 625.458 278.405 625.07 278.679C624.53 279.064 623.955 279.402 623.391 279.757L623.363 279.731C623.848 280.325 623.946 280.942 623.426 281.558C622.804 282.293 622.191 283.028 621.826 283.936C621.444 284.882 620.767 285.511 619.83 285.898C619.578 286.001 619.378 286.234 619.095 286.452C619.054 286.804 619.032 287.182 618.96 287.554C618.889 287.925 618.875 288.38 618.649 288.641C617.762 289.68 617.312 290.974 616.588 292.105C616.383 292.424 616.126 292.714 615.865 292.995C615.472 293.423 614.668 293.322 614.377 292.819C614.283 292.655 614.215 292.468 614.161 292.289C613.925 291.519 613.562 291.582 613.166 291.956C612.959 292.153 612.753 292.359 612.532 292.538C612.259 292.76 612.081 292.637 611.753 292.031L611.777 292.048C610.913 292.005 610.039 292.021 609.203 291.621C608.95 290.794 608.665 289.967 607.737 289.627C606.157 288.147 604.218 287.235 602.378 286.163C601.454 285.623 600.506 285.152 599.437 284.96C598.572 284.803 597.815 284.359 597.033 283.966C595.391 283.139 593.715 282.368 592.032 281.624C591.511 281.391 590.92 281.212 590.36 281.198C589.145 281.172 588.094 280.711 587.07 280.153C585.962 279.549 584.863 278.954 583.653 278.564C583.016 278.36 582.412 278.008 581.853 277.636C580.64 276.838 579.49 275.936 578.153 275.335C577.89 275.216 577.65 275.032 577.434 274.843C575.187 272.842 573.036 270.746 571.159 268.381C570.669 267.765 570.311 267.106 570.422 266.242C570.526 265.437 570.13 264.725 569.793 264.024C568.979 262.343 568.485 260.568 568.285 258.711C568.253 258.436 568.315 258.128 568.41 257.869C568.446 257.772 568.77 257.674 568.868 257.733C569.91 258.372 570.465 259.384 570.939 260.474C571.005 260.625 571.204 260.724 571.358 260.826C571.376 260.838 571.55 260.703 571.539 260.667C571.304 259.829 571.068 258.991 570.802 258.164C570.685 257.802 570.496 257.457 570.375 257.186C570.438 256.106 570.995 255.233 570.895 254.225C570.815 253.416 570.688 252.768 569.832 252.343C569.171 252.012 569.109 251.225 569.241 250.519C569.431 249.528 569.935 248.672 570.702 248.052C571.678 247.268 572.721 246.549 573.788 245.887C574.607 245.378 575.518 245.015 576.38 244.577C577.361 244.074 578.387 243.928 579.477 244.079C582.27 244.458 585.027 244.948 587.533 246.355C587.616 246.401 587.713 246.446 587.803 246.451C587.984 246.455 588.216 246.485 588.328 246.388C588.406 246.321 588.37 246.041 588.304 245.894C588.182 245.632 587.964 245.416 587.856 245.149C587.79 244.993 587.829 244.773 587.874 244.594C587.926 244.382 588.368 244.192 588.611 244.276C589.065 244.43 589.562 244.533 589.945 244.8C591.543 245.916 593.009 247.192 594.118 248.818C595.266 250.505 596.476 252.158 597.155 254.119C597.339 254.646 597.757 254.711 598.348 254.35C598.515 254.251 598.681 254.148 598.843 254.049C598.861 254.052 598.833 254.031 598.833 254.031ZM620.394 278.156C620.264 278.281 620.126 278.397 620.011 278.53C619.972 278.572 620.004 278.675 620.003 278.748C620.315 278.66 620.291 278.366 620.375 278.139L620.394 278.156ZM592.734 248.914C592.771 248.844 592.874 248.739 592.849 248.695C592.319 247.649 591.476 246.927 590.453 246.401C590.412 246.38 590.276 246.46 590.238 246.521C590.196 246.586 590.18 246.719 590.219 246.781C590.8 247.674 591.6 248.329 592.463 248.918C592.524 248.961 592.639 248.918 592.734 248.914ZM570.971 250.469C571.053 250.488 571.164 250.551 571.212 250.521C571.282 250.477 571.358 250.359 571.345 250.283C571.308 249.998 571.162 249.965 570.989 250.191C570.942 250.253 570.975 250.374 570.971 250.469Z" fill="#EB539F"/>
<path d="M569.225 254.921C569.428 254.93 569.538 255.042 569.512 255.252C569.482 255.463 569.346 255.551 569.154 255.488C569.089 255.464 569.026 255.372 569 255.301C568.936 255.095 569.02 254.963 569.225 254.921Z" fill="#EB539F"/>
<path d="M598.861 254.052C599.035 253.653 599.205 253.254 599.379 252.85L599.351 252.824C599.176 253.224 599.007 253.627 598.833 254.026C598.833 254.031 598.861 254.052 598.861 254.052Z" fill="#EB539F"/>
<path d="M631.103 259.441C631.129 260.417 630.99 261.35 630.575 262.252C630.375 262.684 630.286 263.166 630.147 263.622C629.504 264.031 628.862 264.449 628.214 264.845C628.148 264.884 627.985 264.874 627.942 264.822C627.831 264.687 627.747 264.523 627.689 264.357C627.663 264.282 627.702 264.157 627.747 264.082C628.744 262.447 629.559 260.676 631.103 259.441Z" fill="#EB539F"/>
<path d="M626.932 269.015C626.239 269.331 625.606 269.835 624.78 269.744C624.699 269.734 624.6 269.662 624.547 269.592C624.499 269.522 624.452 269.397 624.48 269.327C624.858 268.4 625.5 267.709 626.37 267.23C626.581 267.115 627.025 267.352 627.011 267.616C626.99 268.099 626.937 268.579 626.898 269.057L626.932 269.015Z" fill="#EB539F"/>
<path d="M601.879 256.796L601.903 256.818C601.903 256.823 601.879 256.796 601.879 256.796Z" fill="#EB539F"/>
<path d="M150.5 112.273C153.3 87.1876 66.9998 101.72 26.9998 70.3603C-13.0002 39.001 -2 -0.000976562 26.9998 0C55.9996 0.000976612 1611 0 1611 0V96.4394C1611 232.423 1445.5 155.117 1435.5 106.995C1425.5 58.8731 1218 43.0394 1262 238.012C1306 432.984 1073 424.291 1029 389.829C985 355.368 1128.5 261.918 946.5 261.918C764.5 261.918 1022.5 106.995 806.5 106.995C590.5 106.995 602.5 171.883 535 223.109C467.5 274.336 334.5 263.159 309 171.883C283.5 80.6057 217.36 96.3616 203 119.414C182.5 152.323 268.5 306.935 203 306.935C137.5 306.935 147 143.63 150.5 112.273Z" fill="white"/>
<path d="M346.5 169.709C364.333 199.824 413.5 251.672 467.5 218.141M905 203.86C900.333 220.729 903.4 252.727 953 245.773M1062.5 342.638C1051.83 369.752 1059.1 415.846 1173.5 383.309M165.5 227.766C170.5 250.326 184.8 294.64 202 291.411M1460 91.1611C1466.67 105.96 1489.5 138.104 1527.5 148.287" stroke="#FDEEF6" stroke-width="5" stroke-linecap="round"/>
<path d="M149.5 81.8474C156.833 85.159 170.4 98.4263 166 125.002M221.5 88.6776C236.5 83.5032 271.4 79.4879 291 104.822M799.5 78.7426C841.5 71.0845 905.5 75.3275 925 115.378M1256.5 92.7137C1268.5 78.5357 1306.2 51.8563 1361 58.5624" stroke="#EB539F" stroke-width="5" stroke-linecap="round"/>
<path d="M145 288.928C155.5 309.936 190.1 344.874 244.5 316.559M226.5 132.143C256 120.345 278.5 141.146 295.5 196.099M479 267.195C513.667 264.919 591.4 242.048 625 168.778M781.5 135.558C811 128.314 866.1 124.816 850.5 168.778M944.5 288.928C968 285.306 1011.1 287.872 995.5 327.115C976 376.169 962.5 424.291 1078 430.5M1315 242.669C1322.5 279.821 1323 361.763 1265 392.313M1352.5 106.995C1368 106.271 1404.2 112.708 1425 144.251C1451 183.68 1504 202.929 1549.5 196.099" stroke="white" stroke-width="5" stroke-linecap="round"/>
</svg>
