<svg width="1440" height="66" viewBox="0 0 1440 66" fill="none" xmlns="http://www.w3.org/2000/svg">
<path d="M0 49.4424C1.5054 47.0398 2.67799 45.8062 3.13754 44.329C5.76802 35.774 12.3758 32.8842 20.093 31.4719C21.1388 31.2771 22.1847 30.9039 23.2305 30.8552C42.4204 30.1085 61.3091 25.6442 80.6099 26.2448C93.4137 26.6506 106.233 26.0339 119.005 27.6411C122.143 28.0307 125.392 27.6087 128.577 27.3327C139.241 26.4236 149.827 25.8714 160.412 28.5986C165.023 29.7836 169.936 29.7514 174.721 30.1086C182.232 30.6443 187.826 35.0433 192.279 40.4653C195.321 44.1665 195.749 49.4912 195.448 54.4749C195.385 55.4326 194.592 56.4553 193.895 57.2345C193.198 58.0137 192.279 58.7116 191.328 59.1174C189.379 59.9778 187.382 60.9357 185.322 61.3091C176.385 62.8999 167.464 65.1886 158.463 65.562C144.09 66.1464 129.575 66.309 115.266 65.0103C100.877 63.6954 86.5208 63.0133 72.1165 63.062C60.3744 63.1107 48.6323 63.3867 36.8902 63.5328C33.1505 63.5815 29.4107 63.5491 25.6868 63.5491C19.586 63.5653 14.1349 61.8934 9.52364 57.5753C6.79808 55.0429 3.85065 52.7215 0 49.4424Z" fill="#FFF94F"/>
<path d="M911.019 30.9853C912.778 26.44 914.601 21.3264 916.724 16.359C918.071 13.2097 920.527 10.9694 923.997 10.5636C936.753 9.11883 949.383 6.63502 962.314 6.81359C980.505 7.07333 998.713 7.00831 1016.92 7.13818C1018.47 7.15441 1020.01 7.5764 1021.88 7.8686C1019.34 11.1802 1016.08 9.57349 1013.31 9.88192C1010.12 10.2391 1006.87 9.88175 1003.69 10.109C1000.6 10.3363 997.255 9.10234 994.466 11.5211C996.209 13.3393 998.443 12.7224 1000.47 12.7549C1011.17 12.9659 1021.88 12.9985 1032.59 13.2744C1036.85 13.3881 1041.23 13.4531 1045.06 15.7582C1045.78 16.1803 1046.58 18.0147 1046.36 18.2745C1044.62 20.2225 1042.24 21.6671 1040.82 23.8099C1039.33 26.0339 1038.58 28.7774 1035.87 29.9462C1035.38 30.1572 1034.94 30.482 1034.54 30.8553C1033.23 32.0728 1033.65 34.2317 1035.35 34.7512C1037.9 35.5304 1040.48 36.1799 1043.02 36.9753C1043.43 37.1052 1043.95 37.7708 1043.94 38.1766C1043.91 39.1668 1043.92 40.4493 1043.34 41.0824C1040.66 44.0044 1037.06 45.3353 1033.3 45.6924C1027.98 46.2119 1022.62 46.423 1017.28 46.5691C1002.31 46.975 987.367 47.3644 972.408 48.8579C959.668 50.1403 946.737 49.3775 933.901 49.4425C927.071 49.4749 921.366 47.0563 917.373 41.0824C915.567 38.3877 913.554 35.8226 911.685 33.1766C911.368 32.7545 911.352 32.1541 911.019 30.9853Z" fill="#FFF94F"/>
<path d="M1382.83 19.8814C1381.54 20.823 1380.2 21.7158 1378.99 22.7548C1378.69 23.0145 1378.61 23.7936 1378.74 24.2481C1378.88 24.7027 1379.37 25.3681 1379.75 25.3844C1384 25.7253 1388.28 26.4233 1392.49 26.1473C1409.48 25.0272 1425.23 29.0372 1440 37.4786C1439.6 39.735 1437.77 39.3128 1436.45 39.329C1416.67 39.54 1396.9 39.67 1377.14 39.8323C1369.66 39.8972 1362.18 39.9133 1354.7 40.0594C1345.62 40.2542 1336.56 40.4492 1327.52 41.8615C1318.46 43.29 1309.43 42.6566 1300.49 40.3515C1296.16 39.2314 1292.5 37.3971 1289.95 33.5173C1288.76 31.6992 1287.5 29.9135 1286.1 28.2577C1281.2 22.4462 1281.66 21.4559 1285.93 15.6118C1286.86 14.3132 1287.4 12.7062 1288.1 11.2452C1291.76 3.59925 1297.64 -0.0368259 1306.05 0.0930411C1317.27 0.271608 1328.51 -0.101823 1339.72 0.0280442C1343.97 0.0767443 1348.34 0.38502 1352.42 1.48889C1365.98 5.1414 1379.78 6.29392 1393.71 6.31015C1404.47 6.31015 1414.88 8.68032 1425.25 11.2777C1426.47 11.5861 1426.75 12.8522 1426.2 14.0373C1425.99 14.4756 1425.63 15.0603 1425.23 15.1577C1423.2 15.7096 1421.14 16.4398 1419.07 16.5048C1411.59 16.7645 1404.11 16.7969 1396.63 16.8781C1391.76 16.943 1387.03 17.4624 1382.72 20.0435L1382.83 19.8814Z" fill="#FFF94F"/>
<path d="M806.481 38.4035C809.096 39.0366 811.663 39.5073 814.103 40.3352C814.896 40.6112 815.814 41.829 815.862 42.6569C815.925 43.566 815.26 44.7996 814.531 45.4327C811.6 47.9651 808.066 49.3613 804.294 49.6373C790.476 50.6438 776.817 53.2897 762.856 53.1923C747.406 53.0949 731.94 53.306 716.522 55.3027C709.692 56.1956 702.672 55.7572 695.747 55.6598C690.169 55.5787 685.4 53.3545 681.644 48.9877C679.885 46.9423 677.999 44.9944 676.193 42.9815C673.848 40.3354 673.261 37.2184 674.101 33.8419C674.751 31.1958 675.432 28.55 676.304 25.9689C678.459 19.5405 682.912 16.3263 689.567 16.2126C703.971 15.9529 718.423 15.3359 732.717 17.2839C745.457 19.0371 758.197 19.7839 771.017 19.7352C777.958 19.7027 784.883 19.7516 791.823 19.8977C794.47 19.9626 797.148 20.2548 799.762 20.7581C804.247 21.6022 807.052 24.1993 809.143 28.631C811.267 33.1439 808.446 35.303 806.481 38.4035Z" fill="#FFF94F"/>
<path d="M542.212 56.3417C532.61 56.3417 523.007 56.4066 513.404 56.3092C509.68 56.2767 505.94 55.9683 502.232 55.5625C498.413 55.1404 495.054 53.517 492.376 50.6275C490.902 49.0528 489.492 47.4133 488.098 45.7575C485.657 42.9004 482.868 40.2871 483.359 35.8553C484.041 29.7191 485.53 23.9562 490.474 19.9466C492.075 18.6317 494.151 17.5603 496.147 17.187C505.576 15.4175 514.893 14.0211 524.702 15.2386C535.763 16.6185 547.061 16.2938 558.249 16.4236C565.776 16.521 573.128 17.0246 580.101 20.3849C585.013 22.755 590.433 22.8198 595.725 23.5503C599.909 24.1185 604.029 25.2873 608.133 26.3749C610.193 26.9268 611.381 29.1508 611.112 31.602C610.938 33.2253 610.256 34.8162 610.272 36.4233C610.304 38.5499 610.684 40.6763 611.096 42.7704C611.857 46.7151 611.302 48.4196 608.703 49.2637C597.468 52.9325 585.996 55.3513 574.206 55.8383C563.541 56.2766 552.877 56.439 542.212 56.715C542.212 56.5689 542.212 56.4553 542.212 56.3417Z" fill="#FFF94F"/>
<path d="M1198.72 21.4722C1200.88 22.6735 1202.65 23.6312 1204.38 24.6864C1204.79 24.9461 1205.35 25.6442 1205.25 25.9364C1204.95 26.8779 1204.59 28.2417 1203.89 28.5501C1201.58 29.5566 1199.11 30.1732 1193.86 31.8614C1200.94 32.3322 1205.08 32.3974 1209.17 32.9818C1211.18 33.2578 1213.1 34.4265 1215 35.3031C1215.4 35.4817 1215.89 36.2284 1215.81 36.5693C1215.55 37.4784 1215.17 38.907 1214.57 39.0531C1210.96 39.9946 1207.3 40.7412 1203.62 41.3581C1178.3 45.595 1152.82 47.2346 1127.16 46.634C1120.97 46.4879 1115.71 44.4912 1111.71 39.4264C1110.03 37.2999 1108.21 35.3031 1106.47 33.2414C1104.19 30.5467 1103.33 27.7383 1105.12 24.2968C1114.01 7.15436 1113.77 6.48861 1133.39 6.65094C1136.59 6.68341 1139.86 6.35901 1142.96 6.92718C1150.5 8.30701 1157.64 7.67388 1164.86 4.86551C1169.41 3.1123 1174.37 3.55043 1178.6 6.71594C1181.77 9.08601 1185.49 9.36206 1189.17 10.0439C1195.97 11.2938 1202.72 12.7063 1209.45 14.2484C1210.04 14.3783 1210.42 15.969 1210.64 16.9268C1210.72 17.2677 1210.15 18.0632 1209.74 18.193C1206.28 19.2807 1202.77 20.2709 1198.72 21.4722Z" fill="#FFF94F"/>
<path d="M384.89 38.3548C386.855 38.9554 388.472 39.2151 389.866 39.9619C390.659 40.3839 391.577 41.6177 391.498 42.3969C391.403 43.241 390.373 44.264 389.502 44.686C388.075 45.3678 386.459 45.676 384.906 46.0331C382.815 46.5201 380.596 46.6177 378.631 47.4131C366.968 52.2182 354.735 53.1761 342.375 53.5819C337.035 53.7605 331.663 54.1823 326.386 54.9615C316.149 56.4874 306.118 55.335 296.04 53.5007C288.402 52.1046 283.807 47.2184 280.448 40.6114C279.972 39.6699 279.671 38.5174 279.671 37.4623C279.671 34.1994 279.75 30.9364 279.988 27.6735C280.147 25.3359 281.636 23.7124 283.3 22.2677C286.659 19.3456 290.589 17.6574 294.915 17.0243C297.561 16.6347 300.24 16.4559 302.918 16.4235C315.769 16.3098 328.589 16.5046 341.408 18.0468C350.964 19.1994 360.63 19.2646 370.249 19.9301C373.434 20.1574 376.65 20.4984 379.756 21.2289C381.911 21.7321 383.591 23.5337 383.908 25.7902C384.431 29.5401 384.526 33.3711 384.89 38.3548Z" fill="#FFF94F"/>
<path d="M1382.72 20.0435C1388.56 20.1247 1394.41 20.1737 1400.26 20.3036C1400.7 20.3198 1401.43 20.7419 1401.53 21.1153C1401.81 22.138 1401.11 22.8196 1399.8 22.9495C1393.87 23.5176 1388.09 23.2417 1382.83 19.8814L1382.72 20.0435Z" fill="#FFF94F"/>
</svg>
