<svg width="1030" height="44" viewBox="0 0 1030 44" fill="none" xmlns="http://www.w3.org/2000/svg">
<path d="M0 32.9616C1.07678 31.3599 1.91551 30.5375 2.24421 29.5527C4.12574 23.8493 8.85217 21.9228 14.3721 20.9813C15.1201 20.8514 15.8682 20.6026 16.6163 20.5702C30.3424 20.0723 43.853 17.0961 57.6585 17.4965C66.8167 17.7671 75.9863 17.356 85.1219 18.4274C87.3662 18.6871 89.6898 18.4058 91.968 18.2218C99.5961 17.6158 107.168 17.2476 114.739 19.0657C118.037 19.8557 121.551 19.8343 124.974 20.0724C130.347 20.4295 134.348 23.3622 137.533 26.9768C139.709 29.4443 140.015 32.9942 139.8 36.3166C139.754 36.9551 139.188 37.6368 138.689 38.1563C138.19 38.6758 137.533 39.141 136.853 39.4116C135.459 39.9852 134.03 40.6238 132.557 40.8727C126.164 41.9333 119.783 43.4591 113.345 43.708C103.065 44.0976 92.6822 44.206 82.4472 43.3402C72.1554 42.4636 61.8864 42.0089 51.5833 42.0413C43.1845 42.0738 34.7856 42.2578 26.3868 42.3552C23.7118 42.3877 21.0368 42.366 18.3732 42.366C14.0094 42.3769 10.1104 41.2623 6.81205 38.3835C4.86251 36.6953 2.75428 35.1477 0 32.9616Z" fill="#FFF94F"/>
<path d="M651.632 20.6569C652.89 17.6266 654.193 14.2176 655.712 10.906C656.676 8.8065 658.432 7.31295 660.915 7.0424C670.039 6.07922 679.073 4.42335 688.322 4.54239C701.334 4.71555 714.357 4.67221 727.38 4.75879C728.491 4.76961 729.59 5.05093 730.928 5.24573C729.114 7.45347 726.779 6.38232 724.796 6.58795C722.518 6.82604 720.194 6.58783 717.916 6.73934C715.706 6.89085 713.314 6.06823 711.319 7.68074C712.566 8.89283 714.164 8.4816 715.615 8.50324C723.266 8.64393 730.928 8.66565 738.59 8.84963C741.639 8.92538 744.767 8.96871 747.51 10.5055C748.02 10.7868 748.599 12.0098 748.44 12.183C747.193 13.4816 745.493 14.4447 744.473 15.8733C743.407 17.3559 742.875 19.1849 740.936 19.9641C740.585 20.1048 740.268 20.3213 739.984 20.5702C739.044 21.3819 739.349 22.8211 740.562 23.1674C742.387 23.6869 744.234 24.1199 746.048 24.6502C746.343 24.7368 746.717 25.1805 746.705 25.4511C746.683 26.1112 746.694 26.9662 746.275 27.3883C744.359 29.3363 741.786 30.2235 739.1 30.4616C735.292 30.8079 731.461 30.9487 727.641 31.0461C716.93 31.3166 706.242 31.5763 695.542 32.5719C686.429 33.4269 677.18 32.9183 667.999 32.9616C663.114 32.9833 659.033 31.3709 656.177 27.3883C654.885 25.5918 653.445 23.8817 652.108 22.1177C651.881 21.8363 651.87 21.4361 651.632 20.6569Z" fill="#FFF94F"/>
<path d="M989.106 13.2543C988.187 13.882 987.224 14.4772 986.362 15.1698C986.147 15.343 986.091 15.8624 986.181 16.1654C986.283 16.4684 986.634 16.9121 986.906 16.9229C989.944 17.1502 993.004 17.6155 996.019 17.4315C1008.17 16.6848 1019.44 19.3581 1030 24.9857C1029.72 26.49 1028.4 26.2085 1027.46 26.2193C1013.32 26.36 999.17 26.4467 985.036 26.5549C979.686 26.5982 974.337 26.6089 968.987 26.7063C962.492 26.8361 956.008 26.9661 949.548 27.9077C943.064 28.86 936.604 28.4378 930.211 26.901C927.117 26.1543 924.499 24.9314 922.674 22.3449C921.824 21.1328 920.917 19.9423 919.92 18.8385C916.417 14.9641 916.746 14.3039 919.795 10.4079C920.463 9.54212 920.849 8.47078 921.348 7.49678C923.966 2.3995 928.171 -0.0245506 934.19 0.0620274C942.215 0.181072 950.251 -0.0678819 958.276 0.0186961C961.313 0.0511629 964.441 0.25668 967.354 0.992593C977.057 3.4276 986.929 4.19595 996.892 4.20677C1004.59 4.20677 1012.03 5.78688 1019.45 7.51844C1020.32 7.72407 1020.52 8.56815 1020.13 9.35817C1019.98 9.65037 1019.72 10.0402 1019.44 10.1051C1017.99 10.4731 1016.51 10.9599 1015.03 11.0032C1009.68 11.1763 1004.33 11.198 998.978 11.2521C995.498 11.2954 992.109 11.6416 989.026 13.3624L989.106 13.2543Z" fill="#FFF94F"/>
<path d="M576.858 25.6024C578.728 26.0244 580.564 26.3382 582.31 26.8901C582.877 27.0741 583.534 27.886 583.568 28.4379C583.613 29.044 583.137 29.8664 582.616 30.2885C580.519 31.9768 577.991 32.9076 575.294 33.0915C565.41 33.7625 555.64 35.5265 545.654 35.4616C534.603 35.3966 523.541 35.5374 512.512 36.8685C507.627 37.4637 502.606 37.1715 497.652 37.1066C493.663 37.0524 490.251 35.5697 487.565 32.6585C486.307 31.2949 484.958 29.9963 483.666 28.6543C481.988 26.8903 481.569 24.8123 482.17 22.5612C482.634 20.7972 483.122 19.0334 483.745 17.3126C485.286 13.027 488.472 10.8842 493.232 10.8084C503.535 10.6353 513.872 10.2239 524.096 11.5226C533.209 12.6914 542.322 13.1892 551.491 13.1568C556.456 13.1351 561.409 13.1677 566.374 13.2651C568.266 13.3084 570.182 13.5032 572.052 13.8387C575.26 14.4015 577.266 16.1329 578.762 19.0873C580.281 22.0959 578.264 23.5353 576.858 25.6024Z" fill="#FFF94F"/>
<path d="M387.833 37.5611C380.964 37.5611 374.095 37.6044 367.226 37.5394C364.563 37.5178 361.888 37.3122 359.236 37.0417C356.504 36.7603 354.101 35.678 352.186 33.7517C351.131 32.7019 350.123 31.6088 349.125 30.505C347.38 28.6003 345.385 26.858 345.736 23.9036C346.224 19.8128 347.289 15.9708 350.826 13.2977C351.97 12.4211 353.455 11.7069 354.883 11.458C361.627 10.2784 368.292 9.34742 375.308 10.1591C383.219 11.079 391.301 10.8625 399.303 10.9491C404.687 11.014 409.946 11.3497 414.933 13.5899C418.447 15.17 422.323 15.2132 426.109 15.7002C429.101 16.079 432.049 16.8582 434.984 17.5833C436.458 17.9512 437.308 19.4338 437.115 21.068C436.99 22.1502 436.503 23.2108 436.514 24.2822C436.537 25.6999 436.809 27.1175 437.104 28.5136C437.648 31.1434 437.251 32.2797 435.392 32.8425C427.356 35.2883 419.15 36.9009 410.717 37.2256C403.089 37.5178 395.461 37.626 387.833 37.81C387.833 37.7126 387.833 37.6369 387.833 37.5611Z" fill="#FFF94F"/>
<path d="M857.421 14.3148C858.963 15.1157 860.232 15.7542 861.467 16.4576C861.762 16.6308 862.159 17.0961 862.091 17.2909C861.876 17.9186 861.615 18.8278 861.116 19.0334C859.461 19.7044 857.693 20.1154 853.942 21.2409C859.008 21.5548 861.966 21.5983 864.89 21.9879C866.33 22.1719 867.702 22.951 869.062 23.5354C869.345 23.6544 869.696 24.1523 869.64 24.3796C869.458 24.9856 869.186 25.938 868.756 26.0354C866.171 26.6631 863.553 27.1608 860.923 27.5721C842.811 30.3967 824.585 31.4897 806.234 31.0893C801.803 30.9919 798.04 29.6608 795.183 26.2843C793.982 24.8666 792.678 23.5354 791.431 22.1609C789.799 20.3645 789.188 18.4922 790.468 16.1979C796.827 4.76958 796.657 4.32574 810.689 4.43396C812.979 4.4556 815.314 4.23934 817.535 4.61812C822.93 5.53801 828.031 5.11592 833.199 3.24367C836.452 2.07487 840 2.36695 843.026 4.47729C845.293 6.05734 847.957 6.24137 850.586 6.69591C855.449 7.52922 860.278 8.47085 865.095 9.49896C865.514 9.58554 865.786 10.646 865.945 11.2845C866.001 11.5118 865.593 12.0421 865.298 12.1287C862.827 12.8538 860.311 13.514 857.421 14.3148Z" fill="#FFF94F"/>
<path d="M275.304 25.5699C276.709 25.9703 277.865 26.1434 278.863 26.6413C279.43 26.9226 280.087 27.7451 280.03 28.2646C279.962 28.8273 279.225 29.5093 278.602 29.7907C277.582 30.2452 276.426 30.4507 275.315 30.6888C273.819 31.0134 272.232 31.0785 270.827 31.6088C262.484 34.8121 253.734 35.4507 244.893 35.7213C241.073 35.8403 237.231 36.1215 233.457 36.641C226.135 37.6583 218.96 36.89 211.751 35.6671C206.288 34.7364 203.001 31.479 200.598 27.0743C200.258 26.4466 200.043 25.6783 200.043 24.9748C200.043 22.7996 200.099 20.6243 200.269 18.449C200.383 16.8906 201.448 15.8083 202.638 14.8451C205.041 12.8971 207.852 11.7716 210.946 11.3495C212.839 11.0898 214.755 10.9706 216.67 10.949C225.863 10.8732 235.032 11.0031 244.202 12.0312C251.036 12.7996 257.95 12.843 264.831 13.2868C267.109 13.4383 269.41 13.6656 271.631 14.1526C273.173 14.4881 274.374 15.6892 274.601 17.1934C274.975 19.6934 275.043 22.2474 275.304 25.5699Z" fill="#FFF94F"/>
<path d="M989.026 13.3624C993.208 13.4165 997.391 13.4492 1001.57 13.5357C1001.89 13.5466 1002.41 13.8279 1002.48 14.0769C1002.68 14.7587 1002.19 15.2131 1001.24 15.2996C997.006 15.6784 992.869 15.4945 989.106 13.2543L989.026 13.3624Z" fill="#FFF94F"/>
</svg>
