<svg width="780" height="34" viewBox="0 0 780 34" fill="none" xmlns="http://www.w3.org/2000/svg">
<path d="M0 25.4703C0.815424 24.2326 1.45058 23.5972 1.6995 22.8362C3.12434 18.429 6.70358 16.9404 10.8837 16.2128C11.4502 16.1124 12.0167 15.9202 12.5832 15.8951C22.9777 15.5104 33.2091 13.2106 43.6637 13.5201C50.5991 13.7291 57.5431 13.4114 64.4613 14.2393C66.1608 14.44 67.9204 14.2227 69.6457 14.0805C75.4223 13.6122 81.1561 13.3277 86.8898 14.7326C89.3876 15.3431 92.0485 15.3265 94.6407 15.5105C98.7092 15.7864 101.739 18.0526 104.151 20.8457C105.799 22.7524 106.031 25.4955 105.868 28.0628C105.833 28.5562 105.404 29.083 105.026 29.4844C104.649 29.8858 104.151 30.2454 103.636 30.4544C102.58 30.8976 101.499 31.3911 100.383 31.5835C95.5419 32.403 90.7095 33.582 85.8341 33.7744C78.0489 34.0754 70.1865 34.1592 62.4357 33.4902C54.642 32.8128 46.8654 32.4614 39.0631 32.4865C32.7028 32.5116 26.3425 32.6538 19.9822 32.729C17.9565 32.7541 15.9308 32.7374 13.9137 32.7374C10.6091 32.7458 7.65641 31.8845 5.15864 29.66C3.68229 28.3554 2.08577 27.1596 0 25.4703Z" fill="#FFF94F"/>
<path d="M493.469 15.9621C494.421 13.6206 495.409 10.9863 496.559 8.42738C497.288 6.80502 498.619 5.65092 500.498 5.44185C507.408 4.69758 514.249 3.41804 521.253 3.51003C531.107 3.64383 540.969 3.61034 550.832 3.67724C551.673 3.68561 552.505 3.90299 553.518 4.05352C552.145 5.7595 550.377 4.9318 548.874 5.09069C547.149 5.27467 545.39 5.0906 543.664 5.20767C541.991 5.32475 540.18 4.68908 538.669 5.93512C539.613 6.87173 540.824 6.55396 541.922 6.57069C547.716 6.6794 553.518 6.69618 559.321 6.83835C561.63 6.89689 563.998 6.93036 566.076 8.11786C566.462 8.33529 566.9 9.28031 566.78 9.41411C565.836 10.4176 564.548 11.1618 563.776 12.2657C562.969 13.4114 562.565 14.8247 561.097 15.4268C560.831 15.5355 560.591 15.7028 560.377 15.8952C559.664 16.5224 559.896 17.6345 560.814 17.9021C562.196 18.3035 563.595 18.6381 564.968 19.0479C565.192 19.1148 565.475 19.4577 565.466 19.6667C565.449 20.1768 565.458 20.8375 565.14 21.1637C563.69 22.6689 561.741 23.3546 559.707 23.5385C556.823 23.8061 553.922 23.9149 551.029 23.9902C542.918 24.1992 534.824 24.3998 526.721 25.1692C519.82 25.8299 512.816 25.4369 505.863 25.4704C502.164 25.4871 499.074 24.2411 496.91 21.1637C495.932 19.7755 494.842 18.4541 493.829 17.091C493.657 16.8735 493.649 16.5642 493.469 15.9621Z" fill="#FFF94F"/>
<path d="M749.031 10.242C748.336 10.727 747.606 11.1869 746.954 11.7222C746.791 11.856 746.748 12.2573 746.817 12.4915C746.894 12.7256 747.16 13.0684 747.366 13.0768C749.666 13.2524 751.984 13.612 754.267 13.4698C763.468 12.8928 772 14.9586 780 19.3071C779.785 20.4695 778.79 20.252 778.078 20.2604C767.365 20.3691 756.653 20.436 745.95 20.5197C741.898 20.5531 737.847 20.5614 733.796 20.6367C728.878 20.737 723.968 20.8375 719.075 21.565C714.165 22.3009 709.273 21.9746 704.432 20.7871C702.088 20.2101 700.106 19.2652 698.724 17.2665C698.08 16.3299 697.394 15.41 696.638 14.557C693.986 11.5632 694.235 11.053 696.544 8.04247C697.05 7.37346 697.342 6.5456 697.72 5.79296C699.702 1.85416 702.887 -0.0189709 707.445 0.0479303C713.522 0.139919 719.607 -0.0524542 725.684 0.014447C727.985 0.0395349 730.354 0.198344 732.559 0.767004C739.907 2.6486 747.383 3.24232 754.928 3.25069C760.756 3.25069 766.395 4.47168 772.009 5.80971C772.67 5.9686 772.824 6.62084 772.524 7.23131C772.412 7.45711 772.215 7.75832 772 7.80849C770.902 8.09282 769.786 8.469 768.661 8.50245C764.61 8.63626 760.559 8.65296 756.508 8.69478C753.872 8.72823 751.306 8.99579 748.971 10.3255L749.031 10.242Z" fill="#FFF94F"/>
<path d="M436.844 19.7836C438.26 20.1098 439.651 20.3523 440.973 20.7788C441.402 20.9209 441.9 21.5483 441.925 21.9748C441.96 22.4431 441.599 23.0786 441.204 23.4047C439.616 24.7093 437.702 25.4286 435.659 25.5707C428.175 26.0892 420.776 27.4523 413.214 27.4021C404.845 27.3519 396.468 27.4607 388.116 28.4893C384.417 28.9492 380.614 28.7234 376.863 28.6732C373.842 28.6314 371.258 27.4857 369.224 25.2361C368.271 24.1824 367.25 23.1789 366.271 22.142C365.001 20.7789 364.683 19.1731 365.138 17.4337C365.49 16.0706 365.859 14.7076 366.331 13.3779C367.498 10.0663 369.911 8.41051 373.516 8.35197C381.318 8.21817 389.146 7.90031 396.888 8.90383C403.789 9.807 410.69 10.1917 417.634 10.1666C421.394 10.1499 425.145 10.175 428.904 10.2503C430.338 10.2838 431.788 10.4343 433.205 10.6936C435.634 11.1284 437.153 12.4663 438.286 14.7493C439.436 17.0741 437.908 18.1864 436.844 19.7836Z" fill="#FFF94F"/>
<path d="M293.698 29.0245C288.497 29.0245 283.295 29.0579 278.094 29.0078C276.077 28.991 274.051 28.8322 272.043 28.6231C269.974 28.4057 268.154 27.5694 266.704 26.0808C265.905 25.2696 265.142 24.425 264.386 23.572C263.064 22.1002 261.554 20.7539 261.82 18.4709C262.189 15.3099 262.996 12.3411 265.674 10.2755C266.541 9.59812 267.665 9.04623 268.746 8.85389C273.854 7.94236 278.901 7.22301 284.214 7.85021C290.205 8.56103 296.325 8.39376 302.385 8.46067C306.462 8.51084 310.445 8.77024 314.221 10.5013C316.882 11.7223 319.818 11.7557 322.685 12.132C324.951 12.4247 327.182 13.0268 329.405 13.5871C330.521 13.8714 331.165 15.0171 331.019 16.2798C330.925 17.1161 330.556 17.9356 330.564 18.7635C330.581 19.859 330.787 20.9544 331.01 22.0332C331.422 24.0654 331.122 24.9434 329.714 25.3783C323.629 27.2682 317.414 28.5143 311.028 28.7652C305.252 28.991 299.475 29.0747 293.698 29.2168C293.698 29.1416 293.698 29.083 293.698 29.0245Z" fill="#FFF94F"/>
<path d="M649.309 11.0614C650.477 11.6803 651.438 12.1737 652.373 12.7172C652.597 12.851 652.897 13.2106 652.846 13.3612C652.683 13.8462 652.485 14.5488 652.107 14.7077C650.854 15.2261 649.515 15.5437 646.674 16.4135C650.511 16.656 652.751 16.6896 654.966 16.9906C656.056 17.1328 657.094 17.7349 658.124 18.1864C658.339 18.2784 658.605 18.6631 658.562 18.8388C658.425 19.3071 658.219 20.043 657.893 20.1183C655.936 20.6033 653.953 20.9879 651.961 21.3057C638.245 23.4883 624.443 24.333 610.546 24.0236C607.19 23.9483 604.341 22.9197 602.178 20.3106C601.268 19.2151 600.281 18.1864 599.336 17.1244C598.1 15.7362 597.637 14.2894 598.607 12.5165C603.423 3.68558 603.294 3.34262 613.92 3.42624C615.654 3.44297 617.422 3.27585 619.104 3.56855C623.19 4.27937 627.052 3.95321 630.966 2.50647C633.43 1.60331 636.116 1.82901 638.408 3.45973C640.125 4.68067 642.142 4.82288 644.133 5.17411C647.816 5.81803 651.472 6.54566 655.12 7.34011C655.438 7.40701 655.644 8.22647 655.764 8.71986C655.807 8.89548 655.498 9.30527 655.274 9.37217C653.403 9.93247 651.498 10.4426 649.309 11.0614Z" fill="#FFF94F"/>
<path d="M208.482 19.7585C209.547 20.0679 210.422 20.2017 211.178 20.5864C211.607 20.8039 212.104 21.4394 212.062 21.8408C212.01 22.2757 211.452 22.8027 210.98 23.0201C210.208 23.3713 209.332 23.5301 208.491 23.714C207.358 23.9649 206.156 24.0152 205.092 24.4249C198.775 26.9003 192.148 27.3937 185.453 27.6028C182.56 27.6948 179.651 27.9121 176.792 28.3135C171.248 29.0996 165.814 28.5059 160.355 27.5609C156.218 26.8418 153.729 24.3246 151.909 20.921C151.652 20.436 151.489 19.8423 151.489 19.2987C151.489 17.6179 151.531 15.9369 151.66 14.256C151.746 13.0518 152.553 12.2155 153.454 11.4712C155.274 9.96594 157.402 9.09624 159.746 8.7701C161.179 8.56939 162.63 8.47731 164.08 8.46058C171.042 8.40204 177.986 8.50239 184.93 9.29685C190.105 9.89059 195.341 9.92417 200.551 10.267C202.277 10.3841 204.019 10.5598 205.701 10.9361C206.869 11.1953 207.779 12.1234 207.95 13.2858C208.234 15.2176 208.285 17.1912 208.482 19.7585Z" fill="#FFF94F"/>
<path d="M748.971 10.3255C752.138 10.3673 755.306 10.3925 758.473 10.4594C758.713 10.4678 759.108 10.6852 759.16 10.8776C759.314 11.4044 758.937 11.7555 758.224 11.8224C755.014 12.1151 751.881 11.973 749.031 10.242L748.971 10.3255Z" fill="#FFF94F"/>
</svg>
