<svg width="375" height="606" viewBox="0 0 375 606" fill="none" xmlns="http://www.w3.org/2000/svg">
<path d="M7.20549 210.934C7.21416 205.199 7.07544 199.501 6.07009 193.823C5.61941 191.24 5.65411 188.391 6.10479 185.799C7.16214 179.788 7.30944 173.749 7.37011 167.681C7.40478 163.949 7.65615 160.293 9.35485 156.903C10.8802 153.846 10.9061 150.437 10.9841 147.056C11.0708 143.362 11.1925 139.678 11.3311 135.984C11.3398 135.766 11.8075 135.338 11.8681 135.376C12.3275 135.671 13.0557 136.003 13.125 136.43C13.3677 138.064 13.4891 139.735 13.4805 141.397C13.4805 143.4 13.2378 145.404 13.2291 147.408C13.2204 149.155 15.1445 150.057 16.6958 149.183C18.4379 148.205 20.0499 146.828 19.8939 144.654C19.4605 138.88 20.6391 133.287 21.1245 127.637C21.7572 120.24 22.078 112.834 21.948 105.427C21.7833 95.9502 22.8752 86.6253 24.1579 77.3005C24.1925 77.0631 24.5823 76.7214 24.799 76.7309C25.0503 76.7404 25.4491 77.0251 25.5184 77.272C27.8498 86.5208 28.0058 95.9406 26.8011 105.341C25.9431 112.083 25.7351 118.73 26.6191 125.463C26.9225 127.761 26.9658 130.192 26.6538 132.49C26.0038 137.19 26.0558 141.89 26.0212 146.61C25.9345 158.404 25.7958 170.197 25.6225 181.991C25.5792 184.678 25.3018 187.366 25.1024 190.053C24.7297 195.086 24.3223 200.118 23.967 205.151C23.8283 207.164 24.002 209.234 23.664 211.2C22.26 219.537 22.4418 227.969 22.1731 236.392C22.0085 241.434 21.4625 246.457 21.1245 251.5C20.9251 254.519 20.7171 257.549 20.6391 260.578C20.4917 265.971 20.4659 271.365 20.3445 276.749C20.2665 280.12 20.405 283.529 19.9544 286.843C18.2903 299.235 18.6283 311.722 18.221 324.171C18.143 326.526 18.3165 328.928 17.9438 331.235C16.6438 339.259 16.8602 347.35 16.8342 355.431C16.7909 369.921 16.5309 384.421 16.8169 398.902C17.0769 412.016 16.9295 425.167 18.0648 438.252C18.2642 440.598 18.2472 442.962 18.2472 445.327C18.3339 480.717 18.4206 516.098 18.4639 551.489C18.4726 556.199 18.3684 560.928 18.039 565.628C17.6057 571.762 16.089 577.555 12.5876 582.54C11.8075 583.651 10.88 584.553 9.61469 584.715C7.48265 584.981 5.34202 585.094 3.20132 585.237C2.32597 585.294 1.43328 584.164 1.68462 583.129C2.2393 580.831 2.42157 578.58 2.1789 576.168C1.77156 572.161 1.53761 568.107 1.58094 564.08C1.71094 551.622 1.46787 539.144 3.11456 526.743C3.55657 523.429 3.36619 520.02 3.40952 516.649C3.49619 509.907 3.40067 503.165 3.65201 496.433C3.84268 491.39 4.39725 486.453 2.46455 481.534C1.65854 479.483 1.88391 476.9 1.84924 474.545C1.7539 468.477 1.79756 462.41 1.74556 456.342C1.71956 453.313 1.86664 450.236 1.4853 447.254C0.549283 439.885 -0.0920799 432.574 1.46795 425.186C1.87529 423.278 1.39877 421.16 1.40743 419.147C1.4161 416.118 1.41605 413.089 1.57205 410.069C1.77139 406.375 2.61214 404.552 3.59149 405.207C5.25552 406.318 4.70941 408.113 4.78741 409.737C4.81341 410.354 5.05595 410.981 5.29862 411.55C5.35929 411.693 5.83608 411.731 6.07009 411.636C6.33009 411.541 6.6681 411.275 6.7201 411.019C7.30944 408.417 7.98559 405.834 8.3756 403.194C8.68761 401.086 7.30946 399.32 5.22076 399.035C4.61408 398.95 3.99885 398.883 3.39217 398.779C1.66747 398.465 0.635951 397.278 0.401946 395.455C0.150608 393.461 0.0553578 391.429 0.0553578 389.416C0.0206905 371.554 -0.0399943 353.693 0.0380072 335.831C0.0553409 331.463 0.601504 327.105 0.844175 322.737C1.14751 317.362 1.47677 311.978 1.62411 306.603C1.78011 300.878 1.9968 295.19 2.72481 289.483C3.40082 284.165 3.3834 278.733 3.50474 273.349C3.66074 266.275 3.60004 259.21 4.77006 252.193C5.21207 249.563 5.20346 246.828 5.25546 244.131C5.39413 237.057 5.59362 230.011 6.71164 222.993C7.34432 219.091 7.07549 214.97 7.20549 210.934ZM11.1314 200.688C11.3134 201.647 11.4521 202.977 11.8508 204.211C11.9981 204.648 12.7438 204.914 13.2638 205.113C13.4805 205.199 13.9309 205.009 14.0869 204.79C14.6329 204.012 15.4129 203.223 15.5342 202.34C15.8549 200.052 15.4041 197.507 16.1322 195.437C17.2242 192.303 16.895 189.635 15.6383 186.786C15.075 185.504 15.4997 184.166 16.323 183.064C17.311 181.744 18.0477 180.358 18.0043 178.554C17.9697 177.196 16.8864 175.524 15.9244 175.876C15.1444 176.161 14.3298 176.806 13.8791 177.547C13.4024 178.335 13.2377 179.418 13.125 180.396C12.579 185.03 12.0761 189.673 11.5994 194.316C11.3914 196.31 11.2961 198.314 11.1314 200.688ZM12.4576 216.138C12.3103 216.688 11.9204 217.343 12.0764 217.761C12.3277 218.436 12.9949 218.436 13.4716 217.885C13.6363 217.695 13.7143 217.296 13.6709 217.021C13.5582 216.252 13.125 215.967 12.4576 216.138ZM18.9146 158.859C18.8626 159.144 18.7065 159.486 18.7758 159.743C19.0445 160.702 19.4432 160.711 19.7466 159.771C19.8333 159.515 19.7464 159.116 19.6078 158.878C19.5298 158.764 19.1573 158.859 18.9146 158.859ZM9.3375 375.134C9.39817 374.394 9.07763 373.976 8.39295 374.052C8.21095 374.071 7.95936 374.46 7.91602 374.716C7.79469 375.457 8.15028 375.884 8.82629 375.78C9.02563 375.761 9.17283 375.362 9.3375 375.134Z" fill="#EB539F"/>
<path d="M313.63 3.88885C318.241 3.89835 322.834 3.82255 327.375 2.63558C329.447 2.09433 331.631 1.93285 333.771 1.87588C337.16 1.78092 340.523 1.54346 343.825 0.622376C347.821 -0.488625 351.755 -0.0233529 355.638 1.31555C358.862 2.42655 362.086 3.53758 365.302 4.67707C366.515 5.10438 366.879 6.26278 365.995 7.91503C365.345 9.13049 365.033 10.2037 365.05 11.647C365.085 14.2489 364.036 15.4928 362.025 15.7017C359.885 15.9296 357.727 16.2239 355.595 16.11C347.812 15.7017 340.341 17.6293 332.844 19.4905C330.158 20.1552 327.462 20.9527 324.723 21.1996C317.365 21.8738 310.111 23.2317 302.831 24.5421C295.568 25.8525 288.245 26.8022 280.93 27.8183C277.862 28.2456 274.785 28.0461 271.76 27.2865C269.334 26.6787 266.89 26.3654 264.454 27.0396C260.225 28.1981 255.935 28.255 251.627 28.16C247.597 28.0745 243.645 28.3974 239.97 30.5149C237.743 31.7969 235.282 32.0344 232.803 32.0533C230.654 32.0628 228.504 32.1197 226.346 32.1197C217.134 32.1197 207.947 32.2906 198.742 33.3351C188.984 34.4461 179.138 34.7501 169.301 34.3512C165.93 34.2088 162.541 34.4178 159.161 34.4748C150.893 34.6077 142.581 34.0853 134.417 36.1458C125.508 36.2693 116.59 36.4213 107.68 36.4973C101.535 36.5448 95.4164 36.8106 89.289 37.6082C84.1235 38.2824 78.8541 38.349 73.6366 38.2351C62.4998 37.9882 51.5796 39.5645 40.7547 42.2898C39.264 42.6696 37.7387 43.0304 36.222 43.1443C32.4866 43.4387 29.7044 41.6914 27.9017 38.083C26.9657 36.2123 27.2086 33.8955 28.5086 32.4901C28.9419 32.0153 29.358 31.4837 29.878 31.1513C32.4347 29.4801 33.986 27.3055 33.856 23.7921C33.7693 21.5701 35.1648 20.117 37.0108 19.3004C37.8602 18.9301 38.7355 18.5313 39.6282 18.3508C46.579 16.9835 53.5212 15.4832 60.5154 14.4007C64.1468 13.8404 67.8733 13.9639 71.5567 13.8879C77.3981 13.7644 83.2048 13.4795 89.0203 12.6724C94.1857 11.9602 99.438 11.9983 104.664 11.8369C108.972 11.7134 113.244 11.495 117.517 10.8113C121.148 10.232 124.858 10.1181 128.541 10.0611C138.993 9.89965 149.437 9.95679 159.889 9.75738C163.867 9.68142 167.845 9.17816 171.823 8.82682C173.661 8.66539 175.533 8.01008 177.309 8.24748C185.309 9.3205 193.248 7.76325 201.221 7.82972C205.546 7.8677 209.81 7.97199 213.788 10.27C215.764 11.4094 217.991 11.3905 220.089 10.6024C224.266 9.03561 228.452 8.99775 232.812 9.5485C237.691 10.1752 242.614 10.0327 247.502 9.00718C250.206 8.43744 252.98 8.23802 255.736 8.0481C258.509 7.85819 261.265 7.6587 263.874 6.5382C265.928 5.6551 268.034 5.51276 270.218 5.69318C276.068 6.18696 281.875 5.88311 287.638 4.52522C289.085 4.18338 290.758 4.15477 292.136 4.63905C293.142 4.99039 293.844 6.40532 294.65 7.31691C299.07 6.83263 303.343 6.33886 307.615 5.90206C309.791 5.68366 311.862 5.17096 313.708 3.84156L313.63 3.88885ZM241.99 15.5401C247.077 15.2648 250.128 15.2553 253.153 14.885C256.169 14.5241 259.159 13.8499 262.132 13.1852C262.487 13.1092 262.963 12.1596 262.903 11.7038C262.833 11.2195 262.253 10.593 261.785 10.4315C259.384 9.61491 256.957 10.0707 254.539 10.4601C252.13 10.8494 249.721 11.666 247.32 11.6375C239.65 11.5521 232.17 13.1948 224.621 14.1918C224.136 14.2583 223.651 14.7426 223.244 15.1224C222.854 15.4832 224.162 16.5373 225.176 16.8317C227.334 17.4679 229.423 17.259 231.442 16.3569C234.051 15.1984 236.686 14.752 239.485 15.3313C240.976 15.6446 242.519 15.5781 241.99 15.5401ZM236.772 25.1975C244.009 26.1375 251.298 26.3748 258.578 25.5487C259.41 25.4537 260.19 24.7417 260.97 24.2574C261.681 23.8111 261.594 22.0733 260.849 21.5985C260.338 21.2757 259.809 20.9147 259.246 20.7628C258.665 20.6014 257.989 20.4685 257.443 20.649C250.717 22.9184 243.801 23.906 236.772 25.1975ZM210.122 14.0115C207.868 14.1349 206.048 14.1918 204.237 14.3627C203.656 14.4196 203.085 14.7142 202.547 14.9895C202.331 15.1035 202.036 15.5403 202.088 15.7017C202.261 16.243 202.495 17.0594 202.859 17.1734C206.794 18.3698 210.633 16.7746 214.525 16.5372C214.724 16.5277 215.105 15.9961 215.062 15.9011C214.819 15.4073 214.533 14.6475 214.161 14.562C212.696 14.2392 211.188 14.1444 210.122 14.0115ZM279.968 11.7894C281.112 11.5425 281.753 11.5519 282.247 11.2576C282.698 11.0012 283.261 10.4411 283.287 9.97577C283.313 9.51997 282.819 8.73186 282.412 8.58943C280.115 7.78229 277.749 7.76329 275.392 8.34253C275.132 8.409 274.707 8.78871 274.733 8.93114C274.855 9.51038 275.019 10.4314 275.357 10.5454C277.039 11.1246 278.772 11.4855 279.968 11.7894ZM211.925 26.897C211.925 26.8685 211.925 26.8402 211.925 26.8117C212.835 26.8117 213.762 26.8971 214.663 26.7832C215.4 26.6882 215.66 26.0805 215.366 25.3873C215.253 25.1214 214.958 24.8744 214.707 24.7795C213.199 24.2477 211.665 24.2954 210.226 24.9601C209.836 25.1405 209.645 25.8812 209.429 26.4034C209.411 26.4414 209.853 26.8402 210.105 26.8782C210.703 26.9447 211.318 26.897 211.925 26.897ZM172.699 29.7742C173.427 29.7742 174.051 29.9166 174.579 29.7362C175.047 29.5748 175.403 29.0622 175.81 28.7013C175.472 28.2455 175.177 27.4668 174.779 27.3813C173.687 27.1534 172.525 27.1155 171.416 27.2485C171.113 27.2864 170.835 28.1506 170.67 28.6823C170.627 28.8248 170.957 29.252 171.182 29.347C171.711 29.5559 172.291 29.6603 172.699 29.7742ZM123.419 28.8152C122.838 28.8721 122.188 28.7676 121.694 29.024C121.244 29.2519 120.715 29.8218 120.637 30.3156C120.533 31.0182 121.122 31.4171 121.85 31.2841C122.422 31.1797 122.994 30.9992 123.54 30.7808C124.234 30.496 124.477 29.9261 124.147 29.2804C124.026 29.043 123.662 28.9671 123.419 28.8152ZM60.7752 33.0219C61.2519 33.2688 61.7198 33.6961 62.2051 33.7151C63.0112 33.7436 63.8259 33.5156 64.6406 33.3922C63.3665 32.6705 62.1099 32.0819 60.7752 33.0219ZM157.991 17.3825C158.251 17.4395 158.546 17.6008 158.806 17.5343C159.048 17.4774 159.239 17.1924 159.456 17.012C159.248 16.8221 159.066 16.5277 158.832 16.4612C158.58 16.3947 158.225 16.4518 158.017 16.6133C157.896 16.6987 157.991 17.1071 157.991 17.3825ZM107.645 31.3317L108.235 31.1606L107.801 30.7998L107.645 31.3317ZM280.991 18.9302L281.536 19.3004L281.615 18.7023L280.991 18.9302Z" fill="#EB539F"/>
<path d="M298.879 572.048C305.362 573.282 311.723 572.066 318.093 570.917C322.626 570.1 327.003 568.306 331.666 568.411C331.926 568.42 332.247 568.648 332.403 568.885C332.55 569.113 332.645 569.569 332.533 569.778C331.562 571.516 330.444 573.196 328.589 573.804C325.937 574.658 323.259 575.418 320.546 576.016C317.539 576.672 314.54 577.279 311.741 578.666C312.174 580.119 313.171 579.796 314.02 579.843C315.494 579.929 317.01 578.951 318.432 580.014C318.579 580.128 318.631 580.755 318.536 580.831C317.816 581.382 317.088 582.132 316.273 582.303C310.25 583.613 304.235 585.085 298.16 585.968C290.862 587.022 283.599 588.703 276.172 588.304C267.089 590.269 257.824 589.947 248.655 590.82C246.826 590.991 244.989 591.001 243.152 591.02C241.618 591.029 240.023 590.621 238.567 590.953C232.491 592.33 226.338 592.093 220.202 592.473C217.16 592.663 214.152 593.527 211.128 594.115C207.496 594.828 203.917 595.312 200.147 594.818C195.891 594.258 191.549 594.343 187.251 594.438C184.503 594.495 181.73 594.847 179.026 595.435C172.083 596.936 165.176 598.607 158.034 598.379C157.731 598.37 157.411 598.379 157.116 598.455C147.738 600.838 138.135 599.936 128.654 600.791C126.842 600.952 124.979 600.715 123.159 600.525C122.639 600.468 122.162 599.917 121.668 599.594C121.989 599.158 122.223 598.474 122.631 598.312C126.132 596.926 129.763 596.404 133.49 596.299C135.57 596.242 137.798 596.841 139.713 595.293C139.193 595.008 138.673 594.486 138.17 594.505C133.871 594.638 129.529 594.495 125.3 595.169C120.715 595.9 116.148 596.252 111.528 596.328C105.384 596.423 99.2733 596.879 93.1545 597.752C87.6944 598.531 82.1217 598.351 76.5923 598.464C70.7509 598.588 64.8659 598.066 59.0851 598.74C49.2916 599.889 39.5155 600.753 29.67 600.715C26.5239 600.706 23.7073 602.206 20.7259 602.937C19.3393 603.269 17.4236 601.674 17.4323 600.174C17.441 598.835 17.5367 597.496 17.5973 596.157C17.9787 587.164 22.8753 583.917 29.8435 582.388C31.6288 581.999 33.5183 582.17 35.3643 582.027C40.2611 581.638 45.1578 581.182 50.0633 580.802C53.1313 580.574 56.1991 580.365 59.2671 580.29C65.4119 580.138 71.5656 580.175 77.7104 579.938C81.6971 579.786 85.6665 579.245 89.6446 578.932C93.9347 578.59 98.2248 578.343 102.515 578.001C106.805 577.669 111.086 577.251 115.376 576.928C119.97 576.586 124.572 576.197 129.174 576.045C134.097 575.884 138.976 575.58 143.864 574.81C148.406 574.098 153.051 574.051 157.653 573.965C162.272 573.88 166.823 573.348 171.407 572.854C181.487 571.781 191.506 569.797 201.689 570.034C205.997 570.139 210.295 569.92 214.542 568.952C215.14 568.809 215.756 568.648 216.362 568.648C228.661 568.534 240.794 565.638 253.11 566.046C264.844 566.435 276.423 564.812 287.976 562.913C295.317 561.697 302.684 561.839 310.059 562.048C311.871 562.096 313.127 563.093 312.841 564.023C312.512 565.096 311.741 565.533 310.874 565.799C309.687 566.16 308.465 566.369 307.286 566.73C305.518 567.281 303.75 567.86 302.017 568.543C300.474 569.151 299.633 570.585 298.949 572.123C298.697 572.313 298.455 572.494 298.203 572.684C298.429 572.484 298.654 572.266 298.879 572.048ZM223.192 588.219C223.738 588.181 224.292 588.162 224.838 588.095C225.653 588 225.879 587.611 225.385 587.136C225.255 587.012 224.83 587.126 224.613 587.259C224.145 587.563 223.712 587.943 223.27 588.295L223.192 588.219ZM195.536 590.317C190.44 590.412 185.335 590.478 180.239 590.64C179.407 590.668 179.233 591.257 179.97 592.083C183.255 592.548 186.843 592.558 190.397 592.055C192.13 591.808 193.785 590.858 195.475 590.222C197.893 590.364 200.311 590.526 202.729 590.621C202.963 590.63 203.336 590.298 203.414 590.032C203.648 589.263 203.293 588.798 202.521 588.665C200.008 588.266 197.676 588.798 195.536 590.317ZM134.634 586.272C131.08 585.237 127.536 584.145 123.8 584.477C122.587 584.582 121.357 584.734 120.195 585.085C119.727 585.228 119.181 585.939 119.112 586.462C119.068 586.794 119.848 587.62 120.238 587.601C123.584 587.412 126.912 587.25 130.283 587.554C131.67 587.677 133.144 586.652 134.582 586.158C136.853 587.203 139.141 587.696 141.507 586.5C142.183 586.158 142.486 585.674 142.183 585.009C142.079 584.772 141.706 584.601 141.437 584.544C138.95 584.088 136.697 584.762 134.634 586.272ZM200.927 582.341C200.927 582.189 200.927 582.046 200.927 581.894C203.371 581.894 205.824 581.932 208.268 581.885C213.485 581.8 218.572 580.745 223.599 579.302C223.833 579.235 224.188 578.77 224.145 578.599C223.989 578.02 223.798 577.165 223.408 576.985C220.15 575.542 216.718 576.007 213.468 576.719C207.722 577.973 201.949 578.333 196.125 578.238C195.215 578.229 194.288 578.352 193.395 578.533C192.806 578.647 192.173 578.865 191.714 579.264C191.298 579.625 190.83 580.299 190.856 580.802C190.882 581.334 191.462 582.255 191.826 582.265C194.851 582.398 197.885 582.341 200.927 582.341ZM260.294 576.349C257.625 576.036 256.152 575.94 254.704 575.684C253.222 575.418 251.775 574.848 250.284 574.715C248.82 574.573 247.303 574.716 245.838 574.944C245.422 575.01 244.824 575.77 244.798 576.235C244.772 576.691 245.362 577.574 245.717 577.602C248.412 577.811 251.116 577.935 253.812 577.925C255.588 577.916 257.426 578.239 260.294 576.349ZM238.125 576.254C237.657 575.884 237.059 575.105 236.339 574.925C234.996 574.592 233.913 575.494 233.696 576.776C233.479 578.02 234.588 579.15 235.888 579.017C237.232 578.884 238.194 577.868 238.125 576.254ZM273.902 575.912C276.684 575.912 277.602 575.997 278.503 575.883C279.041 575.817 279.544 575.437 280.064 575.2C279.596 574.868 279.154 574.279 278.668 574.231C275.973 573.975 273.26 573.842 270.556 573.709C270.4 573.7 270.105 574.165 270.097 574.421C270.079 574.697 270.279 575.209 270.452 575.247C272.194 575.637 273.971 575.931 273.902 575.912ZM165.765 593.232C159.257 592.178 159.256 592.178 156.968 594.039C159.915 594.182 162.515 594.372 165.115 593.84C165.341 593.792 165.523 593.46 165.765 593.232ZM257.573 586.054C259.454 586.054 260.069 586.168 260.615 586.016C261.092 585.892 261.499 585.465 261.933 585.17C261.43 584.914 260.953 584.506 260.433 584.43C259.575 584.297 258.674 584.268 257.816 584.401C257.365 584.468 256.958 584.962 256.533 585.266C257.018 585.531 257.495 585.845 257.998 586.054C258.266 586.168 258.587 586.111 257.573 586.054ZM157.965 584.601C157.861 584.306 157.826 583.898 157.636 583.746C156.518 582.891 155.599 583.005 154.36 584.164C154.186 584.325 154.065 584.895 154.178 585.056C154.819 585.959 155.781 585.997 156.665 585.74C157.151 585.588 157.532 584.999 157.965 584.601ZM173.782 582.493C173.002 582.16 172.239 581.676 171.425 581.543C170.957 581.467 170.42 581.961 169.917 582.198C170.255 582.654 170.541 583.414 170.948 583.509C171.763 583.689 172.655 583.537 173.505 583.442C173.591 583.423 173.652 582.939 173.782 582.493ZM274.907 582.388C274.586 582.417 274.3 582.445 274.005 582.464C273.243 582.502 272.87 582.873 273.052 583.528C273.113 583.746 273.485 583.908 273.736 584.003C274.005 584.107 274.326 584.192 274.586 584.126C275.384 583.917 276.164 583.623 276.952 583.366C276.597 582.179 275.652 582.502 274.907 582.388ZM237.223 588.085C237.847 588.085 238.446 588.133 239.035 588.076C239.806 588 240.144 587.544 239.884 586.918C239.789 586.69 239.425 586.5 239.156 586.462C238.567 586.367 237.951 586.272 237.379 586.386C236.842 586.5 236.348 586.889 235.845 587.155C236.313 587.468 236.781 587.782 237.223 588.085ZM289.034 572.75C289.32 572.066 289.172 571.449 288.505 571.202C287.993 571.012 287.309 570.879 286.876 571.107C286.295 571.411 286.303 572.152 286.789 572.693C287.525 573.529 288.514 573.529 289.034 572.75ZM299.382 581.22C298.905 580.973 298.429 580.537 297.952 580.537C297.475 580.537 296.998 580.983 296.522 581.23C296.99 581.477 297.467 581.932 297.935 581.923C298.42 581.923 298.897 581.476 299.382 581.22ZM183.992 578.362C184.191 578.467 184.425 578.685 184.572 578.638C184.711 578.59 184.772 578.239 184.858 578.03C184.659 577.925 184.425 577.707 184.278 577.764C184.139 577.811 184.087 578.144 183.992 578.362ZM111.537 589.529L111.875 588.997L111.208 588.988L111.537 589.529Z" fill="#EB539F"/>
<path d="M356.8 497.002C357.97 495.692 357.632 494.296 357.64 493.024C357.753 466.075 357.84 439.117 357.918 412.168C357.944 404.087 357.571 395.996 358.793 387.963C359.088 386.007 359.07 383.908 358.776 381.943C358.082 377.233 358.117 372.58 358.663 367.851C358.932 365.544 358.559 363.151 358.62 360.805C358.672 358.773 359.079 356.77 360.232 355.108C360.526 354.681 361.28 354.329 361.74 354.424C362.216 354.529 362.875 355.155 362.953 355.659C363.785 360.634 364.253 365.648 363.794 370.719C363.395 375.096 363.621 379.445 363.933 383.832C364.21 387.83 363.855 391.885 364.054 395.901C364.253 399.928 365.051 403.925 365.103 407.942C365.189 414.333 364.877 420.733 364.747 427.124C364.704 429.478 364.669 431.843 364.721 434.198C364.886 442.278 365.206 450.36 365.258 458.44C365.371 475.96 365.258 493.48 365.44 510.999C365.527 519.479 364.643 527.816 363.291 536.106C361.922 544.462 358.776 552.173 355.586 559.845C354.928 561.431 353.74 562.732 352.206 563.055C348.913 563.758 345.559 564.194 342.222 564.603C341.867 564.65 341.087 563.777 341.052 563.292C340.757 558.269 340.497 553.236 341.546 548.251C342.794 542.345 343.843 536.381 345.195 530.513C346.408 525.243 346.919 519.916 346.911 514.503C346.902 507.087 346.876 499.681 346.98 492.264C347.041 487.554 347.362 482.854 347.483 478.153C347.544 475.808 347.604 473.434 347.379 471.108C346.989 467.053 346.911 463.046 347.769 459.048C348.419 456.01 348.315 453.009 347.032 450.17C345.481 446.742 345.195 443.095 345.186 439.354C345.178 426.554 345.16 413.744 345.065 400.944C345.021 395.503 345.862 390.213 347.032 384.962C347.552 382.617 347.838 380.367 346.382 378.221C345.229 376.521 345.16 374.441 345.152 372.409C345.134 367.015 345.212 361.631 345.169 356.238C345.134 352.05 345.975 348.271 348.644 345.061C349.753 343.732 349.788 341.985 348.93 340.361C348.471 339.487 347.916 338.68 347.405 337.835C346.165 335.803 345.672 333.562 345.767 331.122C345.992 325.073 346.244 319.014 346.4 312.966C346.608 304.885 346.763 296.813 346.876 288.732C346.98 281.326 346.954 273.948 348.081 266.57C348.783 261.955 348.532 257.169 348.688 252.459C348.913 245.745 348.297 238.994 349.407 232.318C349.476 231.882 350.378 231.179 350.698 231.293C353.142 232.119 355.352 233.686 355.812 236.506C356.878 243.096 358.299 249.639 356.826 256.514C355.994 260.388 356.141 264.537 356.089 268.573C356.028 273.634 355.76 278.639 355.136 283.671C353.888 293.718 354.243 303.84 354.737 313.934C354.902 317.305 354.936 320.629 354.737 324C354.364 330.381 354.278 336.79 354.243 343.181C354.182 352.952 354.269 362.723 354.278 372.495C354.278 375.191 354.364 377.898 354.165 380.575C353.714 386.624 353.385 392.625 354.096 398.703C354.607 403.09 353.688 407.277 352.068 411.465C349.979 416.877 349.667 422.584 352.691 427.921C353.705 429.706 354.156 431.615 354.2 433.666C354.26 436.363 354.226 439.06 354.286 441.747C354.425 447.805 354.234 453.864 355.257 459.884C355.638 462.144 355.474 464.594 355.162 466.892C354.382 472.618 354.468 478.277 355.335 483.984C355.838 487.288 355.881 490.678 356.193 494.03C356.271 494.999 356.566 495.91 356.8 497.002ZM350.195 294.791C350.005 294.563 349.823 294.326 349.632 294.098C349.45 294.335 349.138 294.554 349.104 294.819C348.974 295.769 349.346 296.13 350.022 295.721C350.187 295.617 350.143 295.114 350.195 294.791ZM352.657 266.285L352.059 266.759L352.7 267.101L352.657 266.285Z" fill="#EB539F"/>
<path d="M349.988 210.763C350.239 204.002 350.464 197.298 350.741 190.604C350.811 188.932 351.054 187.261 351.236 185.59C351.66 181.592 352.128 177.595 352.527 173.587C352.709 171.745 353.324 170.416 355.179 170.131C356.54 169.922 357.346 168.972 357.727 167.576C357.996 166.608 358.23 165.639 358.464 164.661C359.053 162.221 358.819 159.875 357.094 158.119C352.388 153.314 353.238 152.032 355.552 146.705C356.47 144.587 357.553 142.555 358.455 140.685C358.602 137.37 356.557 134.75 357.198 131.531C357.415 130.467 356.557 129.014 355.941 127.913C355.066 126.365 354.919 124.789 355.222 123.089C356.461 116.166 358.013 109.301 358.125 102.17C358.143 100.964 358.784 99.416 359.616 98.6564C361.402 97.0136 362.147 95.1144 362.502 92.6455C363.222 87.6412 363.664 82.6466 363.542 77.5854C363.386 71.1853 363.672 64.861 364.643 58.4989C365.397 53.5611 365.206 48.4525 365.466 43.4198C365.484 43.1444 365.779 42.679 365.987 42.6505C366.723 42.5461 367.079 43.0304 367.252 43.828C369.072 52.4406 369.635 61.0344 367.945 69.8179C367.191 73.7112 367.226 77.8323 367.217 81.849C367.209 88.2491 367.208 94.6208 365.926 100.926C365.527 102.882 365.518 104.933 365.38 106.937C365.293 108.276 365.388 109.633 365.258 110.972C364.669 116.983 363.742 122.965 363.49 128.986C363.256 134.702 363.022 140.362 362.268 146.05C361.61 151.007 361.705 156.106 361.636 161.148C361.549 167.538 361.601 173.92 360.362 180.225C359.92 182.504 359.972 184.906 359.833 187.252C359.712 189.265 359.807 191.316 359.486 193.291C358.42 199.938 357.961 206.632 357.935 213.365C357.935 214.352 357.736 215.388 357.415 216.309C357.224 216.859 356.661 217.287 356.184 217.647C356.011 217.78 355.491 217.657 355.326 217.458C353.515 215.236 351.738 212.976 349.988 210.763Z" fill="#EB539F"/>
<path d="M359.807 322.347C359.928 314.21 359.799 306.812 361.255 299.51C361.775 296.927 361.601 294.155 361.619 291.467C361.679 284.07 361.731 276.673 361.688 269.276C361.645 262.876 361.809 256.533 362.962 250.208C363.62 246.61 363.499 242.849 363.768 239.165C363.82 238.5 363.924 237.788 364.21 237.228C364.47 236.715 364.981 236.088 365.432 236.031C365.831 235.984 366.654 236.62 366.688 237.009C367.304 243.704 367.755 250.379 365.77 256.969C365.207 258.83 365.016 260.929 365.076 262.895C365.206 266.607 365.137 270.263 364.747 273.967C364.505 276.274 364.678 278.658 364.877 280.984C365.362 286.7 365.397 292.388 364.635 298.086C364.366 300.061 364.123 302.141 364.383 304.087C364.869 307.81 364.86 311.427 364.045 315.083C363.456 317.742 363.811 320.439 364.331 323.088C365.12 327.067 365.284 331.084 365.024 335.129C364.964 336.116 364.765 337.132 364.418 338.044C364.21 338.595 363.568 339.345 363.161 339.316C362.338 339.259 361.359 338.955 360.787 338.357C359.634 337.142 359.33 335.404 359.374 333.704C359.486 329.659 359.677 325.624 359.807 322.347Z" fill="#EB539F"/>
<path d="M46.8737 602.69C49.3091 602.604 51.7444 602.51 54.1711 602.453C59.6919 602.31 65.1953 602.073 70.6728 601.019C74.9022 600.202 79.2096 599.955 83.491 600.848C84.5571 601.066 85.5104 602.073 85.2418 602.776C84.8344 603.82 83.9938 604.095 83.1097 604.228C82.1997 604.361 81.2811 604.418 80.3624 604.456C78.8284 604.504 77.2943 604.504 75.7603 604.533C74.8416 604.552 73.9141 604.504 73.0041 604.599C68.4627 605.074 64.0514 606.735 59.328 605.624C55.1853 604.656 50.9125 604.371 46.6917 603.782C46.7524 603.412 46.813 603.051 46.8737 602.69Z" fill="#EB539F"/>
<path d="M365.059 184.242C365.232 183.112 365.345 181.079 365.883 179.19C366.437 177.234 367.841 175.885 369.592 175.107C369.748 175.031 370.251 175.353 370.285 175.562C370.45 176.531 370.684 177.538 370.588 178.487C370.207 182.076 368.647 185.457 368.977 189.189C368.994 189.388 368.561 189.815 368.344 189.815C367.763 189.815 367.027 189.844 366.628 189.493C365.189 188.23 364.851 187.119 365.059 184.242Z" fill="#EB539F"/>
<path d="M373.076 143.809C372.764 146.439 372.46 149.079 372.105 151.709C372.079 151.909 371.628 152.155 371.377 152.155C371.152 152.155 370.727 151.842 370.727 151.662C370.606 146.363 370.502 141.055 370.502 135.756C370.502 135.462 371.49 134.93 372.001 134.959C372.521 134.987 373.171 135.452 373.466 135.946C373.769 136.449 373.856 137.228 373.787 137.855C373.561 139.839 373.215 141.815 372.92 143.79C372.972 143.79 373.024 143.799 373.076 143.809Z" fill="#EB539F"/>
<path d="M110.271 600.269C106.38 601.607 102.411 602.918 98.1293 601.93C97.93 601.883 97.6697 601.475 97.6697 601.237C97.6611 600.952 97.843 600.516 98.051 600.402C101.977 598.303 106.059 597.923 110.263 599.148C110.324 599.157 110.271 599.642 110.271 600.269Z" fill="#EB539F"/>
<path d="M11.0189 120.706C11.1316 120.05 11.1664 119.367 11.3917 118.759C11.6517 118.018 12.2324 117.809 12.8564 118.142C13.099 118.275 13.4283 118.617 13.4196 118.854C13.3503 120.155 13.2723 121.456 13.0383 122.728C12.8997 123.526 12.2929 123.811 11.6863 123.488C11.4609 123.365 11.2618 122.994 11.2098 122.7C11.0884 122.035 11.0796 121.37 11.0189 120.706Z" fill="#EB539F"/>
<path d="M366.134 196.548C365.943 197.032 365.744 197.517 365.553 197.991C365.198 197.65 364.799 197.336 364.505 196.937C364.435 196.842 364.652 196.358 364.842 196.197C365.38 195.722 365.831 195.874 366.134 196.548Z" fill="#EB539F"/>
<path d="M11.9467 78.1363C12.146 78.668 12.5097 79.2092 12.4837 79.722C12.4577 80.2158 12.033 80.6811 11.7817 81.1653C11.5823 80.6336 11.2273 80.1019 11.2446 79.5796C11.2706 79.0859 11.6954 78.6111 11.9467 78.1363Z" fill="#EB539F"/>
<path d="M374.454 90.3096L375 90.851L374.333 91.0978L374.454 90.3096Z" fill="#EB539F"/>
<path d="M11.9117 101.857C11.7297 101.619 11.4523 101.41 11.3916 101.144C11.331 100.86 11.3742 100.328 11.5389 100.233C12.2062 99.8245 12.5701 100.195 12.4314 101.135C12.3881 101.391 12.0851 101.61 11.9117 101.857Z" fill="#EB539F"/>
<path d="M367.711 205.398C367.962 205.398 368.344 205.293 368.422 205.417C368.569 205.645 368.656 206.063 368.569 206.319C368.249 207.259 367.841 207.25 367.555 206.291C367.486 206.034 367.659 205.683 367.711 205.398Z" fill="#EB539F"/>
<path d="M361.298 76.8447C361.185 77.0821 361.107 77.4904 360.942 77.5379C360.327 77.7278 360.024 77.348 360.145 76.5693C360.188 76.3129 360.327 75.9236 360.492 75.8762C361.107 75.6767 361.384 76.0566 361.298 76.8447Z" fill="#EB539F"/>
<path d="M7.96815 113.812L8.49713 113.992L8.13277 114.486L7.96815 113.812Z" fill="#EB539F"/>
<path d="M372.079 102.16L371.533 101.98L371.906 101.486L372.079 102.16Z" fill="#EB539F"/>
<path d="M360.439 65.5164L360.899 65.1935L360.89 65.8581L360.439 65.5164Z" fill="#EB539F"/>
<path d="M373.353 128.426L373.57 127.742L373.917 128.293L373.353 128.426Z" fill="#EB539F"/>
</svg>
