<svg width="362" height="606" viewBox="0 0 362 606" fill="none" xmlns="http://www.w3.org/2000/svg">
<g opacity="0.2">
<path d="M355.044 395.066C355.036 400.802 355.17 406.499 356.14 412.177C356.575 414.76 356.542 417.609 356.107 420.201C355.086 426.212 354.944 432.251 354.885 438.319C354.852 442.051 354.609 445.707 352.969 449.097C351.497 452.154 351.472 455.563 351.397 458.944C351.313 462.638 351.196 466.322 351.062 470.016C351.053 470.234 350.602 470.662 350.543 470.624C350.1 470.329 349.397 469.997 349.33 469.57C349.096 467.936 348.978 466.265 348.987 464.603C348.987 462.6 349.221 460.596 349.23 458.592C349.238 456.845 347.381 455.943 345.883 456.817C344.201 457.795 342.645 459.172 342.796 461.346C343.214 467.12 342.076 472.713 341.608 478.363C340.997 485.76 340.687 493.166 340.813 500.573C340.972 510.05 339.918 519.375 338.68 528.7C338.646 528.937 338.27 529.279 338.061 529.269C337.818 529.26 337.433 528.975 337.366 528.728C335.116 519.479 334.965 510.059 336.128 500.659C336.956 493.917 337.157 487.27 336.304 480.537C336.011 478.239 335.969 475.808 336.27 473.51C336.898 468.81 336.847 464.11 336.881 459.39C336.965 447.596 337.098 435.803 337.266 424.009C337.308 421.322 337.575 418.634 337.768 415.947C338.128 410.914 338.521 405.882 338.864 400.849C338.998 398.836 338.83 396.766 339.156 394.8C340.512 386.463 340.336 378.031 340.596 369.608C340.755 364.566 341.282 359.543 341.608 354.5C341.8 351.481 342.001 348.452 342.076 345.422C342.219 340.029 342.244 334.635 342.361 329.251C342.436 325.88 342.302 322.471 342.737 319.157C344.344 306.765 344.017 294.278 344.411 281.829C344.486 279.475 344.319 277.072 344.678 274.765C345.933 266.741 345.724 258.65 345.749 250.569C345.791 236.079 346.042 221.579 345.766 207.098C345.515 193.984 345.657 180.833 344.561 167.748C344.369 165.402 344.385 163.038 344.385 160.673C344.302 125.283 344.218 89.9018 344.176 54.5112C344.168 49.8013 344.268 45.0723 344.586 40.372C345.005 34.2377 346.469 28.4453 349.849 23.46C350.602 22.349 351.497 21.4469 352.719 21.2854C354.777 21.0196 356.843 20.9058 358.91 20.7634C359.755 20.7064 360.616 21.8361 360.374 22.8712C359.838 25.1691 359.662 27.4197 359.897 29.8316C360.29 33.8388 360.516 37.8935 360.474 41.9196C360.348 54.3781 360.583 66.8557 358.993 79.2572C358.567 82.5712 358.751 85.98 358.709 89.351C358.625 96.093 358.717 102.835 358.475 109.567C358.291 114.61 357.755 119.547 359.621 124.466C360.399 126.517 360.181 129.1 360.215 131.455C360.307 137.523 360.265 143.59 360.315 149.658C360.34 152.687 360.198 155.764 360.566 158.746C361.47 166.115 362.089 173.426 360.583 180.814C360.19 182.722 360.65 184.84 360.641 186.853C360.633 189.882 360.633 192.911 360.482 195.931C360.29 199.625 359.478 201.448 358.533 200.793C356.927 199.682 357.454 197.887 357.379 196.263C357.353 195.646 357.119 195.019 356.885 194.45C356.827 194.307 356.366 194.269 356.14 194.364C355.889 194.459 355.563 194.725 355.513 194.982C354.944 197.583 354.291 200.166 353.915 202.806C353.614 204.914 354.944 206.68 356.96 206.965C357.546 207.05 358.14 207.117 358.725 207.221C360.39 207.535 361.386 208.722 361.612 210.545C361.855 212.539 361.947 214.571 361.947 216.584C361.98 234.446 362.039 252.307 361.963 270.169C361.947 274.537 361.419 278.895 361.185 283.263C360.892 288.638 360.574 294.022 360.432 299.397C360.282 305.123 360.072 310.81 359.37 316.517C358.717 321.835 358.734 327.267 358.617 332.651C358.466 339.725 358.525 346.79 357.395 353.807C356.969 356.438 356.977 359.172 356.927 361.869C356.793 368.943 356.6 375.989 355.521 383.007C354.91 386.909 355.17 391.03 355.044 395.066ZM351.255 405.312C351.079 404.353 350.945 403.023 350.56 401.789C350.418 401.352 349.698 401.086 349.196 400.887C348.987 400.801 348.552 400.991 348.401 401.21C347.874 401.988 347.121 402.777 347.004 403.66C346.695 405.948 347.13 408.493 346.427 410.563C345.373 413.697 345.691 416.365 346.904 419.214C347.448 420.496 347.038 421.834 346.243 422.936C345.289 424.256 344.578 425.642 344.62 427.446C344.653 428.804 345.699 430.476 346.628 430.124C347.381 429.839 348.167 429.194 348.602 428.453C349.062 427.665 349.221 426.582 349.33 425.604C349.857 420.97 350.343 416.327 350.803 411.684C351.003 409.69 351.096 407.686 351.255 405.312ZM349.974 389.862C350.116 389.312 350.493 388.657 350.342 388.239C350.1 387.565 349.456 387.564 348.995 388.115C348.836 388.305 348.761 388.704 348.803 388.979C348.912 389.748 349.33 390.033 349.974 389.862ZM343.741 447.141C343.791 446.856 343.942 446.514 343.875 446.258C343.616 445.298 343.231 445.289 342.938 446.229C342.854 446.485 342.938 446.884 343.072 447.122C343.147 447.236 343.507 447.141 343.741 447.141ZM352.986 230.866C352.928 231.606 353.237 232.024 353.898 231.948C354.074 231.929 354.317 231.54 354.358 231.284C354.476 230.543 354.132 230.116 353.48 230.22C353.287 230.239 353.145 230.638 352.986 230.866Z" fill="#EB539F"/>
<path d="M59.2424 602.111C54.7915 602.102 50.3575 602.177 45.9735 603.364C43.9739 603.906 41.8657 604.067 39.7992 604.124C36.5279 604.219 33.2817 604.457 30.0941 605.378C26.2372 606.489 22.439 606.023 18.6908 604.684C15.5785 603.573 12.4659 602.462 9.36197 601.323C8.19068 600.896 7.83946 599.737 8.69283 598.085C9.32031 596.869 9.62136 595.796 9.60463 594.353C9.57117 591.751 10.5837 590.507 12.5247 590.298C14.5912 590.07 16.6744 589.776 18.7325 589.89C26.2455 590.298 33.4573 588.371 40.6942 586.509C43.2878 585.845 45.8899 585.047 48.5336 584.8C55.6367 584.126 62.6392 582.768 69.6669 581.458C76.678 580.147 83.7476 579.198 90.8088 578.182C93.7705 577.754 96.7406 577.954 99.6605 578.714C102.003 579.321 104.363 579.635 106.713 578.96C110.796 577.802 114.937 577.745 119.096 577.84C122.986 577.925 126.801 577.603 130.349 575.485C132.499 574.203 134.875 573.966 137.268 573.947C139.342 573.937 141.417 573.88 143.5 573.88C152.394 573.88 161.262 573.709 170.147 572.665C179.568 571.554 189.072 571.25 198.568 571.649C201.823 571.791 205.094 571.582 208.356 571.525C216.338 571.392 224.362 571.915 232.243 569.854C240.843 569.731 249.452 569.579 258.053 569.503C263.984 569.455 269.891 569.189 275.806 568.392C280.793 567.718 285.88 567.651 290.916 567.765C301.667 568.012 312.208 566.435 322.658 563.71C324.097 563.33 325.57 562.97 327.034 562.856C330.64 562.561 333.325 564.309 335.066 567.917C335.969 569.788 335.735 572.105 334.48 573.51C334.061 573.985 333.66 574.516 333.158 574.849C330.69 576.52 329.192 578.694 329.318 582.208C329.401 584.43 328.054 585.883 326.272 586.7C325.452 587.07 324.607 587.469 323.746 587.649C317.036 589.017 310.334 590.517 303.582 591.599C300.077 592.16 296.48 592.036 292.924 592.112C287.285 592.236 281.68 592.52 276.066 593.328C271.079 594.04 266.009 594.002 260.964 594.163C256.806 594.287 252.682 594.505 248.557 595.189C245.052 595.768 241.471 595.882 237.915 595.939C227.825 596.1 217.744 596.043 207.654 596.243C203.814 596.319 199.973 596.822 196.133 597.173C194.36 597.335 192.552 597.99 190.837 597.753C183.115 596.679 175.452 598.237 167.755 598.17C163.58 598.132 159.464 598.028 155.623 595.73C153.716 594.591 151.566 594.609 149.541 595.398C145.508 596.964 141.467 597.002 137.259 596.451C132.549 595.825 127.796 595.967 123.078 596.993C120.467 597.563 117.79 597.762 115.13 597.952C112.452 598.142 109.792 598.341 107.274 599.462C105.291 600.345 103.258 600.487 101.15 600.307C95.5022 599.813 89.8971 600.117 84.3334 601.475C82.9362 601.817 81.3212 601.845 79.9909 601.361C79.0204 601.01 78.3428 599.595 77.5647 598.683C73.2979 599.167 69.1733 599.661 65.0487 600.098C62.9487 600.316 60.9493 600.829 59.1673 602.158L59.2424 602.111ZM128.399 590.46C123.488 590.735 120.543 590.745 117.623 591.115C114.712 591.476 111.825 592.15 108.955 592.815C108.612 592.891 108.153 593.84 108.211 594.296C108.278 594.78 108.838 595.407 109.29 595.568C111.607 596.385 113.95 595.929 116.285 595.54C118.61 595.151 120.936 594.334 123.254 594.362C130.658 594.448 137.878 592.805 145.165 591.808C145.634 591.742 146.102 591.257 146.495 590.878C146.872 590.517 145.609 589.463 144.63 589.168C142.547 588.532 140.53 588.741 138.581 589.643C136.063 590.802 133.519 591.248 130.817 590.669C129.378 590.355 127.889 590.422 128.399 590.46ZM133.436 580.803C126.45 579.862 119.413 579.625 112.386 580.451C111.583 580.546 110.83 581.258 110.077 581.743C109.391 582.189 109.474 583.927 110.194 584.401C110.687 584.724 111.198 585.085 111.741 585.237C112.302 585.399 112.955 585.531 113.482 585.351C119.974 583.082 126.651 582.094 133.436 580.803ZM159.162 591.989C161.338 591.865 163.095 591.808 164.843 591.637C165.404 591.58 165.956 591.286 166.474 591.01C166.683 590.896 166.968 590.46 166.918 590.298C166.751 589.757 166.525 588.941 166.173 588.827C162.375 587.63 158.669 589.225 154.912 589.463C154.72 589.472 154.351 590.004 154.393 590.099C154.628 590.593 154.904 591.352 155.263 591.438C156.677 591.761 158.133 591.856 159.162 591.989ZM91.7373 594.211C90.633 594.457 90.014 594.448 89.5371 594.742C89.102 594.999 88.5585 595.559 88.5334 596.024C88.5083 596.48 88.985 597.268 89.3782 597.411C91.5953 598.218 93.8794 598.237 96.155 597.657C96.406 597.591 96.8158 597.211 96.7907 597.069C96.6735 596.49 96.5148 595.569 96.1885 595.455C94.5654 594.875 92.8919 594.514 91.7373 594.211ZM157.422 579.103C157.422 579.131 157.422 579.16 157.422 579.188C156.544 579.188 155.648 579.103 154.778 579.217C154.067 579.312 153.816 579.919 154.1 580.613C154.209 580.879 154.494 581.126 154.736 581.221C156.192 581.752 157.673 581.705 159.062 581.04C159.438 580.86 159.622 580.119 159.831 579.597C159.848 579.559 159.422 579.16 159.179 579.122C158.602 579.055 158.008 579.103 157.422 579.103ZM195.288 576.226C194.585 576.226 193.983 576.083 193.473 576.264C193.021 576.425 192.678 576.938 192.285 577.299C192.611 577.754 192.895 578.533 193.28 578.619C194.334 578.847 195.455 578.884 196.526 578.752C196.819 578.714 197.087 577.849 197.246 577.318C197.288 577.175 196.97 576.748 196.752 576.653C196.242 576.444 195.681 576.34 195.288 576.226ZM242.86 577.185C243.42 577.128 244.047 577.232 244.524 576.976C244.959 576.748 245.47 576.178 245.545 575.684C245.646 574.982 245.077 574.583 244.374 574.716C243.822 574.82 243.269 575.001 242.742 575.219C242.073 575.504 241.839 576.074 242.157 576.72C242.274 576.957 242.625 577.033 242.86 577.185ZM303.332 572.978C302.872 572.731 302.42 572.304 301.951 572.285C301.173 572.256 300.387 572.484 299.6 572.608C300.83 573.33 302.043 573.918 303.332 572.978ZM209.486 588.618C209.235 588.561 208.951 588.399 208.7 588.466C208.465 588.523 208.281 588.808 208.072 588.988C208.273 589.178 208.448 589.472 208.674 589.539C208.917 589.605 209.26 589.548 209.461 589.387C209.578 589.301 209.486 588.893 209.486 588.618ZM258.086 574.668L257.518 574.839L257.936 575.2L258.086 574.668ZM90.7504 587.07L90.2234 586.7L90.1478 587.298L90.7504 587.07Z" fill="#EB539F"/>
<path d="M73.482 33.9525C67.2239 32.7181 61.0831 33.9339 54.9338 35.0829C50.5581 35.8995 46.333 37.6939 41.8319 37.5895C41.5809 37.58 41.2712 37.3521 41.1207 37.1147C40.9784 36.8868 40.8865 36.431 40.9952 36.2221C41.9323 34.4844 43.0118 32.8039 44.8022 32.1962C47.3623 31.3416 49.9473 30.5818 52.566 29.9836C55.4691 29.3284 58.364 28.7206 61.0664 27.3342C60.6481 25.8814 59.6856 26.204 58.8657 26.1566C57.4434 26.0711 55.9794 27.0494 54.6074 25.9859C54.4651 25.872 54.4148 25.2449 54.5069 25.169C55.2013 24.6182 55.9043 23.8682 56.6908 23.6973C62.5054 22.3869 68.3116 20.9152 74.1764 20.0321C81.2209 18.9781 88.2321 17.2974 95.4021 17.6962C104.17 15.7306 113.114 16.0535 121.965 15.1799C123.731 15.009 125.504 14.9991 127.278 14.9801C128.758 14.9706 130.298 15.3792 131.703 15.0468C137.568 13.6699 143.508 13.9073 149.432 13.5274C152.368 13.3375 155.272 12.4734 158.192 11.8847C161.697 11.1725 165.152 10.688 168.792 11.1818C172.9 11.742 177.091 11.6569 181.241 11.562C183.893 11.505 186.57 11.1534 189.181 10.5646C195.882 9.06432 202.55 7.39298 209.444 7.62088C209.737 7.63037 210.046 7.62127 210.331 7.5453C219.383 5.16187 228.653 6.064 237.806 5.20939C239.555 5.04796 241.353 5.28515 243.11 5.47507C243.612 5.53204 244.073 6.08277 244.55 6.40563C244.24 6.84243 244.014 7.52622 243.621 7.68765C240.241 9.07402 236.735 9.5964 233.138 9.70085C231.13 9.75783 228.979 9.15919 227.131 10.707C227.632 10.9919 228.135 11.5142 228.62 11.4952C232.77 11.3623 236.961 11.505 241.044 10.8308C245.47 10.0996 249.879 9.74807 254.338 9.67211C260.27 9.57715 266.168 9.12136 272.075 8.24775C277.346 7.4691 282.725 7.64952 288.063 7.53557C293.702 7.41213 299.383 7.93435 304.963 7.26016C314.417 6.11118 323.854 5.24699 333.359 5.28497C336.396 5.29447 339.115 3.79429 341.993 3.06312C343.331 2.73077 345.18 4.3262 345.172 5.82653C345.164 7.16543 345.071 8.50431 345.013 9.84321C344.645 18.8357 339.918 22.0832 333.191 23.612C331.468 24.0013 329.644 23.8303 327.862 23.9727C323.135 24.3621 318.408 24.8179 313.672 25.1977C310.711 25.4256 307.749 25.6346 304.788 25.7105C298.856 25.8625 292.915 25.8246 286.984 26.062C283.135 26.2139 279.303 26.7548 275.463 27.0681C271.322 27.41 267.18 27.6573 263.039 27.9992C258.898 28.3315 254.765 28.7492 250.623 29.0721C246.189 29.4139 241.747 29.8029 237.304 29.9549C232.552 30.1163 227.842 30.4204 223.123 31.1896C218.739 31.9018 214.255 31.9494 209.812 32.0348C205.353 32.1203 200.961 32.652 196.535 33.1458C186.805 34.2188 177.133 36.2031 167.303 35.9657C163.145 35.8613 158.995 36.0798 154.895 37.0484C154.318 37.1908 153.724 37.3521 153.138 37.3521C141.266 37.466 129.554 40.3624 117.665 39.9541C106.337 39.5648 95.1593 41.1884 84.0069 43.0875C76.9206 44.303 69.8092 44.1607 62.6894 43.9518C60.9408 43.9043 59.7277 42.9072 60.0038 41.9766C60.3218 40.9036 61.0664 40.4667 61.903 40.2008C63.0492 39.8399 64.2286 39.6311 65.3664 39.2702C67.0732 38.7195 68.78 38.1405 70.4532 37.4568C71.9425 36.8491 72.754 35.4152 73.415 33.8769C73.6576 33.687 73.8917 33.5063 74.1344 33.3164C73.9168 33.5158 73.6995 33.7341 73.482 33.9525ZM146.546 17.7815C146.019 17.8195 145.483 17.8384 144.956 17.9048C144.17 17.9998 143.952 18.3893 144.429 18.8641C144.554 18.9876 144.964 18.8737 145.173 18.7408C145.625 18.4369 146.044 18.0568 146.47 17.7055L146.546 17.7815ZM173.243 15.683C178.162 15.588 183.09 15.5217 188.009 15.3603C188.813 15.3318 188.98 14.743 188.269 13.9169C185.098 13.4516 181.634 13.4419 178.204 13.9452C176.531 14.1921 174.933 15.1418 173.301 15.778C170.967 15.6356 168.633 15.4742 166.299 15.3793C166.073 15.3698 165.713 15.7018 165.638 15.9677C165.412 16.7368 165.755 17.202 166.5 17.335C168.926 17.7338 171.176 17.2023 173.243 15.683ZM232.033 19.7279C235.464 20.763 238.886 21.8551 242.491 21.5228C243.663 21.4183 244.851 21.2662 245.972 20.9149C246.423 20.7725 246.95 20.0606 247.017 19.5383C247.059 19.206 246.306 18.3796 245.93 18.3986C242.701 18.5885 239.488 18.7502 236.233 18.4464C234.894 18.3229 233.472 19.3482 232.083 19.842C229.891 18.7975 227.683 18.3038 225.399 19.5003C224.746 19.8421 224.453 20.3262 224.746 20.9909C224.846 21.2283 225.206 21.3995 225.466 21.4565C227.867 21.9123 230.042 21.2378 232.033 19.7279ZM168.039 23.6593C168.039 23.8112 168.039 23.9539 168.039 24.1058C165.68 24.1058 163.312 24.0676 160.952 24.1151C155.916 24.2005 151.005 25.2548 146.152 26.6981C145.926 26.7646 145.583 27.2296 145.625 27.4006C145.776 27.9798 145.96 28.8346 146.336 29.015C149.482 30.4584 152.795 29.9929 155.933 29.2807C161.479 28.0273 167.052 27.6668 172.674 27.7618C173.552 27.7712 174.447 27.6477 175.309 27.4673C175.878 27.3534 176.489 27.135 176.932 26.7361C177.334 26.3753 177.786 25.701 177.761 25.1977C177.736 24.666 177.175 23.7448 176.824 23.7353C173.904 23.6024 170.975 23.6593 168.039 23.6593ZM110.729 29.6512C113.306 29.9645 114.728 30.0597 116.126 30.316C117.556 30.5819 118.953 31.1517 120.392 31.2846C121.806 31.4271 123.27 31.2844 124.684 31.0565C125.086 30.99 125.663 30.2305 125.688 29.7652C125.713 29.3094 125.144 28.4264 124.801 28.3979C122.199 28.189 119.589 28.0652 116.987 28.0747C115.272 28.0842 113.498 27.7615 110.729 29.6512ZM132.13 29.7462C132.582 30.1165 133.16 30.8951 133.854 31.0755C135.151 31.4079 136.196 30.5056 136.405 29.2237C136.615 27.9797 135.544 26.8499 134.289 26.9828C132.992 27.1157 132.063 28.1319 132.13 29.7462ZM97.5937 30.0879C94.9081 30.0879 94.0216 30.0027 93.1515 30.1167C92.6328 30.1831 92.1473 30.5627 91.6454 30.8001C92.0971 31.1325 92.5237 31.7212 92.9922 31.7687C95.5942 32.0251 98.2131 32.1578 100.823 32.2908C100.974 32.3003 101.258 31.835 101.267 31.5786C101.283 31.3032 101.091 30.7908 100.924 30.7528C99.2419 30.3635 97.5268 30.0689 97.5937 30.0879ZM201.981 12.768C208.264 13.822 208.265 13.8219 210.473 11.9607C207.629 11.8183 205.119 11.6283 202.609 12.1601C202.391 12.2076 202.215 12.5401 201.981 12.768ZM113.356 19.9463C111.541 19.9463 110.947 19.8324 110.419 19.9843C109.959 20.1078 109.566 20.5352 109.148 20.8296C109.633 21.086 110.093 21.4945 110.595 21.5705C111.423 21.7034 112.294 21.7317 113.122 21.5988C113.557 21.5323 113.95 21.0384 114.36 20.7345C113.891 20.4687 113.431 20.1552 112.946 19.9463C112.687 19.8324 112.377 19.8893 113.356 19.9463ZM209.511 21.3994C209.611 21.6938 209.645 22.102 209.829 22.254C210.908 23.1086 211.795 22.9947 212.991 21.8362C213.159 21.6748 213.276 21.1051 213.167 20.9437C212.548 20.0416 211.619 20.0034 210.766 20.2598C210.297 20.4117 209.929 21.0006 209.511 21.3994ZM194.242 23.5072C194.995 23.8396 195.732 24.3239 196.518 24.4568C196.97 24.5328 197.488 24.039 197.974 23.8016C197.647 23.3458 197.371 22.5863 196.978 22.4913C196.192 22.3109 195.33 22.4627 194.51 22.5576C194.427 22.5766 194.368 23.0609 194.242 23.5072ZM96.6235 23.612C96.9331 23.5835 97.2092 23.5549 97.4936 23.536C98.2299 23.498 98.5893 23.1275 98.4136 22.4723C98.3551 22.2539 97.9957 22.0925 97.7531 21.9975C97.4937 21.8931 97.1838 21.8077 96.9328 21.8742C96.1631 22.0831 95.4101 22.3773 94.6488 22.6337C94.9918 23.8206 95.904 23.498 96.6235 23.612ZM133.001 17.9146C132.398 17.9146 131.821 17.8669 131.252 17.9238C130.507 17.9998 130.181 18.4558 130.432 19.0825C130.524 19.3104 130.875 19.5003 131.135 19.5383C131.704 19.6333 132.298 19.7283 132.85 19.6143C133.369 19.5004 133.845 19.111 134.331 18.8451C133.879 18.5318 133.427 18.2184 133.001 17.9146ZM82.9861 33.2501C82.71 33.9338 82.8525 34.5509 83.4967 34.7978C83.9903 34.9877 84.6512 35.1207 85.0695 34.8928C85.63 34.589 85.6218 33.8484 85.1532 33.3071C84.4421 32.4715 83.488 32.4714 82.9861 33.2501ZM72.9967 24.78C73.4568 25.0268 73.9169 25.4634 74.377 25.4634C74.8372 25.4634 75.2977 25.0171 75.7578 24.7702C75.306 24.5233 74.8456 24.0675 74.3938 24.077C73.9253 24.077 73.4652 24.5236 72.9967 24.78ZM184.387 27.638C184.194 27.5335 183.969 27.3151 183.826 27.3625C183.692 27.41 183.634 27.7615 183.55 27.9704C183.743 28.0749 183.968 28.2935 184.111 28.2365C184.244 28.1891 184.295 27.8564 184.387 27.638ZM254.33 16.4712L254.003 17.003L254.648 17.0123L254.33 16.4712Z" fill="#EB539F"/>
<path d="M17.5693 108.998C16.4398 110.308 16.7664 111.704 16.758 112.976C16.6492 139.925 16.5653 166.883 16.49 193.832C16.4649 201.913 16.8249 210.004 15.6452 218.037C15.3607 219.993 15.3775 222.092 15.6619 224.057C16.3313 228.767 16.2977 233.42 15.7706 238.149C15.5112 240.456 15.8708 242.849 15.8123 245.195C15.7621 247.227 15.369 249.23 14.2562 250.892C13.9718 251.32 13.2441 251.671 12.8007 251.576C12.3406 251.471 11.7044 250.845 11.6291 250.341C10.8259 245.366 10.3744 240.352 10.8178 235.281C11.2026 230.904 10.985 226.555 10.6838 222.168C10.4161 218.17 10.759 214.115 10.5665 210.099C10.3741 206.072 9.60444 202.075 9.55424 198.058C9.47058 191.667 9.7719 185.267 9.89739 178.876C9.93923 176.522 9.97251 174.157 9.92231 171.802C9.76335 163.722 9.45411 155.64 9.40391 147.56C9.29515 130.04 9.40395 112.52 9.22825 95.0006C9.14459 86.5209 9.99795 78.1837 11.3031 69.894C12.625 61.5377 15.6617 53.8272 18.7405 46.1546C19.3764 44.5688 20.5229 43.268 22.0037 42.9452C25.183 42.2425 28.4208 41.8058 31.6418 41.3975C31.9849 41.35 32.7375 42.2235 32.771 42.7078C33.0554 47.731 33.3066 52.7636 32.2942 57.7489C31.0895 63.6552 30.0772 69.6187 28.772 75.4871C27.6007 80.7572 27.1071 86.0842 27.1155 91.4967C27.1238 98.9129 27.1489 106.32 27.0485 113.736C26.9899 118.446 26.6803 123.146 26.5632 127.847C26.5046 130.192 26.4461 132.566 26.6637 134.892C27.0401 138.947 27.1153 142.954 26.287 146.952C25.6595 149.99 25.76 152.991 26.9982 155.83C28.4958 159.258 28.7718 162.905 28.7802 166.646C28.7885 179.446 28.8054 192.256 28.8974 205.056C28.9392 210.497 28.1277 215.787 26.9982 221.038C26.4962 223.383 26.2202 225.633 27.6257 227.78C28.7384 229.479 28.8053 231.559 28.8137 233.591C28.8304 238.985 28.7551 244.369 28.7969 249.762C28.8304 253.95 28.019 257.729 25.4422 260.939C24.3713 262.268 24.3378 264.015 25.166 265.639C25.6095 266.513 26.1451 267.32 26.6387 268.165C27.8351 270.197 28.3117 272.438 28.2197 274.878C28.0022 280.927 27.7595 286.986 27.609 293.034C27.4082 301.115 27.2577 309.187 27.149 317.268C27.0486 324.674 27.0735 332.052 25.9859 339.43C25.3082 344.045 25.5507 348.831 25.4001 353.541C25.1826 360.255 25.7769 367.006 24.706 373.682C24.6391 374.118 23.7688 374.821 23.4593 374.707C21.0999 373.881 18.9666 372.314 18.5232 369.494C17.4941 362.904 16.1221 356.361 17.5444 349.486C18.3475 345.612 18.2054 341.463 18.2556 337.427C18.3142 332.366 18.5732 327.361 19.1756 322.329C20.3803 312.282 20.0373 302.16 19.5604 292.066C19.4014 288.695 19.368 285.371 19.5604 282C19.9201 275.619 20.0041 269.21 20.0375 262.819C20.0961 253.048 20.0124 243.277 20.004 233.505C20.004 230.809 19.9203 228.102 20.1127 225.425C20.5478 219.376 20.8658 213.375 20.1797 207.297C19.6861 202.91 20.5728 198.723 22.1373 194.535C24.1536 189.123 24.455 183.416 21.5352 178.079C20.5563 176.294 20.121 174.385 20.0792 172.334C20.0207 169.637 20.054 166.94 19.9955 164.253C19.8616 158.195 20.046 152.136 19.0587 146.116C18.6906 143.856 18.8495 141.406 19.1507 139.108C19.9036 133.383 19.8198 127.723 18.9832 122.016C18.4979 118.712 18.4563 115.322 18.1551 111.97C18.0798 111.001 17.7952 110.09 17.5693 108.998ZM23.9446 311.209C24.1286 311.437 24.3042 311.674 24.4883 311.902C24.664 311.665 24.9651 311.446 24.9985 311.181C25.124 310.231 24.7646 309.87 24.1121 310.279C23.9531 310.383 23.9948 310.886 23.9446 311.209ZM21.5686 339.715L22.1459 339.241L21.5266 338.899L21.5686 339.715Z" fill="#EB539F"/>
<path d="M24.1452 395.237C23.9026 401.998 23.6854 408.702 23.4177 415.396C23.3507 417.068 23.1162 418.739 22.9405 420.41C22.5306 424.408 22.079 428.405 21.6941 432.413C21.5184 434.255 20.9244 435.584 19.134 435.869C17.8204 436.078 17.0424 437.028 16.6743 438.424C16.4149 439.392 16.189 440.361 15.9631 441.339C15.3942 443.779 15.6201 446.125 17.285 447.881C21.828 452.686 21.0079 453.968 18.7741 459.295C17.8872 461.413 16.8418 463.445 15.9717 465.315C15.8294 468.629 17.8036 471.25 17.1845 474.469C16.9754 475.533 17.8038 476.986 18.3978 478.087C19.2428 479.635 19.3851 481.211 19.0923 482.911C17.8959 489.833 16.3982 496.699 16.2895 503.83C16.2727 505.036 15.6534 506.584 14.8503 507.344C13.1268 508.986 12.4072 510.886 12.0642 513.354C11.3698 518.359 10.9434 523.353 11.0605 528.415C11.2111 534.815 10.935 541.139 9.99793 547.501C9.27006 552.439 9.45395 557.547 9.20296 562.58C9.18623 562.856 8.90169 563.321 8.7009 563.349C7.98975 563.454 7.64677 562.97 7.47944 562.172C5.7225 553.559 5.17885 544.966 6.81029 536.182C7.53817 532.289 7.50457 528.168 7.51294 524.151C7.52131 517.751 7.5215 511.379 8.75973 505.074C9.14458 503.118 9.15285 501.067 9.28671 499.063C9.37038 497.724 9.27846 496.367 9.40396 495.028C9.97287 489.017 10.8681 483.035 11.1107 477.014C11.3366 471.298 11.5622 465.638 12.2901 459.95C12.926 454.993 12.8339 449.894 12.9008 444.852C12.9845 438.462 12.9345 432.08 14.1309 425.775C14.5576 423.496 14.5073 421.094 14.6411 418.748C14.7583 416.735 14.6661 414.684 14.9757 412.709C16.0048 406.062 16.4482 399.368 16.4733 392.635C16.4733 391.648 16.6658 390.612 16.9754 389.691C17.1594 389.141 17.7032 388.713 18.1633 388.353C18.3307 388.22 18.8328 388.343 18.9918 388.542C20.7404 390.764 22.4552 393.024 24.1452 395.237Z" fill="#EB539F"/>
<path d="M14.6663 283.653C14.5492 291.79 14.6744 299.188 13.2688 306.49C12.7668 309.073 12.9342 311.845 12.9175 314.533C12.8589 321.93 12.8087 329.327 12.8505 336.724C12.8923 343.124 12.7336 349.467 11.6209 355.792C10.985 359.39 11.102 363.151 10.8426 366.835C10.7924 367.5 10.6922 368.212 10.4161 368.772C10.1651 369.285 9.6714 369.912 9.23635 369.969C8.8515 370.016 8.05693 369.38 8.02347 368.991C7.42946 362.296 6.99405 355.621 8.90995 349.031C9.45376 347.17 9.63807 345.071 9.5795 343.105C9.45401 339.393 9.52084 335.737 9.89733 332.033C10.1316 329.726 9.96434 327.342 9.77192 325.016C9.3034 319.3 9.26975 313.612 10.006 307.914C10.2654 305.939 10.4996 303.859 10.2487 301.913C9.78014 298.19 9.78862 294.573 10.5751 290.917C11.144 288.258 10.8009 285.561 10.2989 282.912C9.53756 278.933 9.37877 274.917 9.62976 270.871C9.68832 269.884 9.8805 268.868 10.2152 267.956C10.416 267.405 11.0352 266.655 11.4284 266.684C12.2233 266.741 13.1684 267.045 13.7206 267.643C14.8334 268.858 15.1265 270.596 15.0847 272.296C14.9759 276.341 14.7918 280.377 14.6663 283.653Z" fill="#EB539F"/>
<path d="M316.751 3.31013C314.4 3.3956 312.049 3.49055 309.707 3.54753C304.378 3.68996 299.065 3.92713 293.777 4.98116C289.694 5.79779 285.536 6.04485 281.403 5.15225C280.374 4.93385 279.454 3.92704 279.713 3.22435C280.107 2.17982 280.918 1.90465 281.771 1.77171C282.65 1.63877 283.537 1.58157 284.424 1.54359C285.904 1.49611 287.385 1.49604 288.866 1.46755C289.753 1.44856 290.648 1.49621 291.527 1.40125C295.911 0.926462 300.169 -0.735366 304.729 0.375636C308.728 1.3442 312.853 1.62902 316.927 2.21775C316.868 2.58809 316.81 2.9493 316.751 3.31013Z" fill="#EB539F"/>
<path d="M9.59617 421.758C9.42884 422.888 9.31992 424.921 8.8012 426.81C8.26575 428.766 6.91058 430.115 5.22057 430.893C5.06997 430.969 4.58448 430.647 4.55101 430.438C4.39205 429.469 4.16649 428.462 4.25852 427.513C4.62664 423.923 6.13247 420.543 5.81455 416.811C5.79782 416.612 6.21612 416.185 6.42528 416.185C6.98583 416.185 7.69695 416.156 8.08181 416.507C9.47063 417.77 9.79696 418.881 9.59617 421.758Z" fill="#EB539F"/>
<path d="M1.85747 462.191C2.15866 459.561 2.45158 456.921 2.7946 454.291C2.8197 454.091 3.25462 453.845 3.49725 453.845C3.71477 453.845 4.12472 454.158 4.12472 454.338C4.24185 459.637 4.34205 464.945 4.34205 470.244C4.34205 470.538 3.3883 471.07 2.89468 471.041C2.3927 471.013 1.76527 470.548 1.48082 470.054C1.18799 469.551 1.10423 468.772 1.17116 468.145C1.38869 466.161 1.72334 464.185 2.0078 462.21C1.9576 462.21 1.90766 462.201 1.85747 462.191Z" fill="#EB539F"/>
<path d="M255.551 5.73153C259.308 4.39263 263.14 3.08222 267.273 4.06978C267.465 4.11726 267.716 4.52555 267.716 4.76295C267.725 5.04782 267.549 5.48451 267.348 5.59846C263.558 7.69702 259.617 8.07714 255.56 6.85219C255.501 6.8427 255.551 6.35825 255.551 5.73153Z" fill="#EB539F"/>
<path d="M351.363 485.294C351.254 485.95 351.221 486.633 351.003 487.241C350.752 487.982 350.192 488.191 349.589 487.858C349.355 487.725 349.037 487.383 349.046 487.146C349.113 485.845 349.188 484.544 349.414 483.272C349.548 482.474 350.133 482.189 350.719 482.512C350.936 482.635 351.129 483.006 351.179 483.3C351.296 483.965 351.305 484.63 351.363 485.294Z" fill="#EB539F"/>
<path d="M8.55862 409.452C8.74268 408.968 8.93504 408.483 9.1191 408.009C9.46212 408.35 9.84695 408.664 10.1314 409.063C10.1983 409.158 9.98947 409.642 9.80541 409.803C9.28669 410.278 8.85144 410.126 8.55862 409.452Z" fill="#EB539F"/>
<path d="M350.467 527.864C350.275 527.332 349.924 526.791 349.949 526.278C349.974 525.784 350.384 525.319 350.627 524.835C350.819 525.366 351.162 525.898 351.145 526.42C351.12 526.914 350.71 527.389 350.467 527.864Z" fill="#EB539F"/>
<path d="M0.526929 515.69L-5.46873e-05 515.149L0.644173 514.902L0.526929 515.69Z" fill="#EB539F"/>
<path d="M350.501 504.143C350.677 504.381 350.945 504.59 351.003 504.856C351.062 505.14 351.02 505.672 350.861 505.767C350.217 506.175 349.866 505.805 350 504.865C350.041 504.609 350.334 504.39 350.501 504.143Z" fill="#EB539F"/>
<path d="M7.03616 400.602C6.79354 400.602 6.42556 400.707 6.35027 400.583C6.20804 400.355 6.12403 399.937 6.20769 399.681C6.51725 398.741 6.91081 398.75 7.1869 399.709C7.25384 399.966 7.08636 400.317 7.03616 400.602Z" fill="#EB539F"/>
<path d="M13.2271 529.155C13.3359 528.918 13.4113 528.51 13.5703 528.462C14.1643 528.272 14.4571 528.652 14.3399 529.431C14.2981 529.687 14.1643 530.076 14.0054 530.124C13.4113 530.323 13.1435 529.943 13.2271 529.155Z" fill="#EB539F"/>
<path d="M354.308 492.188L353.797 492.008L354.149 491.514L354.308 492.188Z" fill="#EB539F"/>
<path d="M2.81952 503.84L3.3465 504.02L2.98701 504.514L2.81952 503.84Z" fill="#EB539F"/>
<path d="M14.0557 540.484L13.6121 540.807L13.6206 540.142L14.0557 540.484Z" fill="#EB539F"/>
<path d="M1.58948 477.574L1.38032 478.258L1.04575 477.707L1.58948 477.574Z" fill="#EB539F"/>
</g>
</svg>
