<svg width="606" height="277" viewBox="0 0 606 277" fill="none" xmlns="http://www.w3.org/2000/svg">
<g opacity="0.2">
<path d="M395.066 5.32245C400.801 5.32885 406.499 5.22638 412.177 4.48376C414.76 4.15086 417.609 4.1765 420.201 4.5094C426.212 5.29043 432.251 5.39924 438.319 5.44405C442.051 5.46966 445.707 5.65534 449.097 6.91011C452.154 8.03685 455.563 8.05598 458.944 8.11359C462.638 8.17761 466.322 8.26749 470.016 8.36992C470.234 8.37632 470.662 8.72179 470.624 8.7666C470.329 9.1059 469.997 9.64379 469.57 9.695C467.936 9.87425 466.265 9.96398 464.603 9.95758C462.6 9.95758 460.596 9.7783 458.592 9.7719C456.845 9.7655 455.943 11.1867 456.817 12.3327C457.795 13.6194 459.172 14.8102 461.346 14.6949C467.12 14.3748 472.713 15.2454 478.363 15.6039C485.76 16.0713 493.166 16.3083 500.573 16.2122C510.05 16.0906 519.375 16.8971 528.7 17.8446C528.937 17.8702 529.279 18.1581 529.269 18.3182C529.26 18.5038 528.975 18.7984 528.728 18.8496C519.479 20.5717 510.059 20.6869 500.659 19.7971C493.917 19.1633 487.27 19.0097 480.537 19.6626C478.239 19.8867 475.808 19.9187 473.51 19.6883C468.81 19.2081 464.11 19.2466 459.39 19.221C447.596 19.1569 435.803 19.0545 424.009 18.9265C421.322 18.8945 418.634 18.6896 415.947 18.5423C410.914 18.267 405.882 17.9661 400.849 17.7036C398.836 17.6012 396.766 17.7295 394.8 17.4798C386.463 16.4427 378.031 16.577 369.608 16.3785C364.566 16.2569 359.543 15.8536 354.5 15.6039C351.481 15.4567 348.452 15.303 345.422 15.2454C340.029 15.1366 334.635 15.1175 329.251 15.0278C325.88 14.9702 322.471 15.0725 319.157 14.7396C306.765 13.5105 294.278 13.7601 281.829 13.4592C279.474 13.4016 277.072 13.5298 274.765 13.2545C266.741 12.2942 258.65 12.4541 250.569 12.4349C236.079 12.4029 221.579 12.2108 207.098 12.422C193.984 12.6141 180.833 12.5052 167.748 13.3439C165.402 13.4911 163.038 13.4786 160.673 13.4786C125.283 13.5426 89.9018 13.6066 54.5112 13.6387C49.8013 13.6451 45.0723 13.5681 40.3719 13.3248C34.2376 13.0047 28.4452 11.8844 23.4599 9.29799C22.3489 8.72182 21.4468 8.0367 21.2853 7.10202C21.0195 5.52716 20.9057 3.94595 20.7633 2.36468C20.7063 1.71809 21.8361 1.05869 22.8711 1.24435C25.1691 1.65407 27.4196 1.78871 29.8315 1.60946C33.8387 1.30857 37.8934 1.13575 41.9196 1.16776C54.378 1.26379 66.8557 1.08424 79.2571 2.3006C82.5711 2.6271 85.98 2.48647 89.351 2.51848C96.0929 2.5825 102.835 2.51194 109.567 2.6976C114.61 2.83844 119.547 3.24808 124.466 1.82046C126.517 1.22508 129.1 1.39156 131.455 1.36595C137.523 1.29553 143.59 1.32778 149.658 1.28937C152.687 1.27016 155.764 1.37881 158.746 1.09712C166.115 0.405717 173.426 -0.0680352 180.814 1.08431C182.722 1.3852 184.84 1.0332 186.853 1.03961C189.882 1.04601 192.911 1.04597 195.931 1.16121C199.625 1.30845 201.448 1.92948 200.793 2.6529C199.682 3.88206 197.887 3.47867 196.263 3.53629C195.646 3.55549 195.019 3.73464 194.45 3.9139C194.307 3.95871 194.269 4.3109 194.364 4.48375C194.459 4.67581 194.725 4.92549 194.981 4.9639C197.583 5.39923 200.166 5.89867 202.806 6.18676C204.914 6.41723 206.68 5.39924 206.965 3.85638C207.05 3.40825 207.117 2.9538 207.221 2.50567C207.535 1.23169 208.722 0.469738 210.545 0.296887C212.539 0.111232 214.571 0.0408739 216.584 0.040874C234.446 0.0152671 252.307 -0.0295579 270.169 0.02806C274.537 0.040864 278.895 0.444296 283.263 0.62355C288.638 0.847617 294.022 1.09083 299.397 1.19966C305.122 1.31489 310.81 1.47495 316.517 2.01271C321.835 2.51206 327.267 2.4992 332.651 2.58882C339.725 2.70406 346.79 2.65922 353.807 3.52348C356.437 3.84997 359.172 3.84361 361.869 3.88202C368.943 3.98445 375.989 4.13181 383.007 4.95765C386.909 5.42499 391.03 5.22642 395.066 5.32245ZM405.312 8.22237C404.353 8.35681 403.023 8.45929 401.789 8.75378C401.352 8.86261 401.086 9.41341 400.887 9.79753C400.801 9.95758 400.991 10.2903 401.21 10.4055C401.988 10.8088 402.777 11.385 403.66 11.4746C405.948 11.7115 408.493 11.3785 410.563 11.9163C413.697 12.7229 416.365 12.4798 419.214 11.5515C420.496 11.1354 421.834 11.4491 422.936 12.0573C424.256 12.7871 425.642 13.3312 427.446 13.2992C428.804 13.2736 430.476 12.4734 430.124 11.7628C429.839 11.1866 429.194 10.5849 428.453 10.252C427.665 9.89993 426.582 9.77822 425.604 9.695C420.97 9.29168 416.327 8.92021 411.684 8.5681C409.689 8.41446 407.686 8.34401 405.312 8.22237ZM389.862 9.20204C389.312 9.09321 388.657 8.80516 388.239 8.92039C387.564 9.10605 387.564 9.59891 388.115 9.95101C388.305 10.0726 388.704 10.1303 388.979 10.0982C389.748 10.015 390.033 9.69498 389.862 9.20204ZM447.141 13.9716C446.856 13.9332 446.514 13.8178 446.257 13.8691C445.298 14.0675 445.289 14.3621 446.229 14.5861C446.485 14.6502 446.884 14.586 447.122 14.4836C447.236 14.426 447.141 14.1508 447.141 13.9716ZM230.866 6.89728C231.606 6.9421 232.024 6.70533 231.948 6.19958C231.929 6.06514 231.54 5.8793 231.284 5.84729C230.543 5.75766 230.116 6.02032 230.22 6.51967C230.239 6.66692 230.638 6.77565 230.866 6.89728Z" fill="#EB539F"/>
<path d="M602.111 231.668C602.102 235.074 602.177 238.467 603.364 241.821C603.906 243.351 604.067 244.965 604.124 246.546C604.219 249.049 604.457 251.533 605.378 253.972C606.489 256.923 606.023 259.83 604.684 262.698C603.573 265.079 602.462 267.461 601.323 269.836C600.896 270.733 599.737 271.001 598.085 270.348C596.869 269.868 595.796 269.638 594.353 269.651C591.751 269.676 590.507 268.901 590.298 267.416C590.07 265.835 589.776 264.241 589.89 262.666C590.298 256.917 588.371 251.399 586.509 245.861C585.845 243.876 585.047 241.885 584.8 239.862C584.126 234.427 582.768 229.069 581.458 223.691C580.148 218.327 579.198 212.917 578.182 207.514C577.754 205.247 577.954 202.975 578.714 200.74C579.321 198.948 579.635 197.142 578.96 195.344C577.802 192.219 577.745 189.051 577.84 185.869C577.925 182.892 577.603 179.973 575.485 177.258C574.203 175.613 573.966 173.795 573.947 171.964C573.937 170.376 573.88 168.789 573.88 167.195C573.88 160.389 573.709 153.603 572.665 146.804C571.554 139.596 571.25 132.323 571.649 125.057C571.791 122.567 571.582 120.064 571.525 117.567C571.392 111.46 571.915 105.32 569.854 99.2894C569.731 92.7082 569.579 86.1209 569.503 79.5398C569.455 75.0008 569.189 70.4809 568.392 65.9548C567.718 62.1393 567.651 58.2469 567.765 54.3929C568.012 46.1665 566.435 38.1001 563.71 30.1042C563.33 29.003 562.97 27.8763 562.856 26.756C562.561 23.9968 564.309 21.9417 567.917 20.6101C569.788 19.9187 572.105 20.0981 573.51 21.0584C573.985 21.3784 574.516 21.6858 574.849 22.0699C576.52 23.9585 578.694 25.1043 582.208 25.0083C584.43 24.9443 585.883 25.975 586.7 27.3387C587.07 27.966 587.469 28.6126 587.649 29.272C589.017 34.4064 590.517 39.5344 591.599 44.7007C592.16 47.3831 592.036 50.1357 592.112 52.8565C592.236 57.1714 592.52 61.4606 593.328 65.7563C594.04 69.5718 594.002 73.4516 594.163 77.3119C594.287 80.4937 594.505 83.6495 595.189 86.8057C595.768 89.4881 595.882 92.2282 595.939 94.949C596.1 102.67 596.043 110.384 596.243 118.105C596.319 121.043 596.822 123.982 597.173 126.92C597.335 128.277 597.99 129.66 597.753 130.973C596.679 136.881 598.237 142.746 598.17 148.635C598.132 151.83 598.028 154.98 595.73 157.918C594.591 159.378 594.609 161.023 595.398 162.572C596.964 165.658 597.002 168.75 596.451 171.97C595.825 175.575 595.967 179.211 596.993 182.822C597.563 184.819 597.762 186.868 597.952 188.903C598.142 190.952 598.341 192.988 599.462 194.915C600.345 196.432 600.487 197.988 600.307 199.601C599.813 203.922 600.117 208.211 601.475 212.469C601.817 213.538 601.845 214.774 601.361 215.791C601.01 216.534 599.595 217.053 598.683 217.648C599.167 220.913 599.661 224.069 600.098 227.225C600.316 228.832 600.829 230.362 602.158 231.726L602.111 231.668ZM590.46 178.75C590.735 182.508 590.745 184.761 591.115 186.995C591.476 189.223 592.15 191.432 592.815 193.628C592.891 193.89 593.84 194.242 594.296 194.198C594.78 194.146 595.407 193.718 595.568 193.372C596.385 191.599 595.929 189.806 595.54 188.02C595.151 186.24 594.334 184.46 594.362 182.687C594.448 177.021 592.805 171.496 591.808 165.92C591.742 165.562 591.257 165.204 590.878 164.903C590.517 164.615 589.463 165.581 589.168 166.33C588.532 167.924 588.741 169.467 589.643 170.959C590.802 172.886 591.248 174.832 590.669 176.9C590.355 178.001 590.422 179.14 590.46 178.75ZM580.803 174.896C579.862 180.241 579.625 185.626 580.451 191.003C580.546 191.618 581.258 192.194 581.743 192.77C582.189 193.295 583.927 193.231 584.401 192.681C584.724 192.303 585.085 191.912 585.237 191.496C585.399 191.067 585.531 190.568 585.351 190.164C583.082 185.197 582.094 180.088 580.803 174.896ZM591.989 155.21C591.865 153.546 591.808 152.201 591.637 150.863C591.58 150.434 591.286 150.012 591.01 149.615C590.897 149.455 590.46 149.237 590.298 149.275C589.757 149.404 588.941 149.576 588.827 149.845C587.63 152.752 589.225 155.588 589.463 158.462C589.472 158.609 590.004 158.891 590.099 158.859C590.593 158.68 591.352 158.469 591.438 158.193C591.761 157.112 591.856 155.997 591.989 155.21ZM594.211 206.803C594.458 207.648 594.448 208.122 594.742 208.487C594.999 208.82 595.559 209.236 596.024 209.255C596.48 209.274 597.268 208.909 597.411 208.608C598.218 206.912 598.237 205.164 597.657 203.423C597.591 203.231 597.211 202.917 597.069 202.936C596.49 203.026 595.569 203.147 595.455 203.397C594.875 204.639 594.514 205.92 594.211 206.803ZM579.103 156.542C579.131 156.542 579.16 156.542 579.188 156.542C579.188 157.214 579.103 157.899 579.217 158.565C579.312 159.109 579.919 159.301 580.613 159.083C580.879 159 581.126 158.782 581.221 158.597C581.752 157.483 581.705 156.35 581.04 155.287C580.86 154.999 580.119 154.858 579.597 154.698C579.559 154.685 579.16 155.012 579.122 155.197C579.055 155.639 579.103 156.094 579.103 156.542ZM576.226 127.567C576.226 128.105 576.083 128.565 576.264 128.956C576.425 129.302 576.938 129.564 577.299 129.865C577.754 129.615 578.533 129.398 578.619 129.103C578.847 128.297 578.884 127.439 578.752 126.619C578.714 126.395 577.849 126.19 577.318 126.069C577.175 126.037 576.748 126.28 576.653 126.447C576.444 126.837 576.34 127.266 576.226 127.567ZM577.185 91.1654C577.128 90.7365 577.232 90.2565 576.976 89.8916C576.748 89.5587 576.178 89.168 575.684 89.1104C574.982 89.0336 574.583 89.4689 574.716 90.0066C574.82 90.4292 575.001 90.8518 575.219 91.2551C575.504 91.7673 576.074 91.9466 576.72 91.7034C576.957 91.6138 577.033 91.3447 577.185 91.1654ZM572.978 44.8926C572.731 45.2447 572.304 45.5904 572.285 45.9489C572.256 46.5442 572.484 47.1461 572.608 47.7478C573.33 46.8068 573.918 45.8785 572.978 44.8926ZM588.618 116.703C588.561 116.895 588.399 117.112 588.466 117.304C588.523 117.484 588.808 117.625 588.988 117.785C589.178 117.631 589.472 117.497 589.539 117.324C589.605 117.138 589.548 116.876 589.387 116.722C589.301 116.632 588.893 116.703 588.618 116.703ZM574.668 79.5141L574.839 79.9493L575.2 79.6292L574.668 79.5141ZM587.07 207.558L586.7 207.962L587.298 208.019L587.07 207.558Z" fill="#EB539F"/>
<path d="M33.9524 220.772C32.718 225.561 33.9339 230.26 35.0829 234.965C35.8995 238.313 37.6938 241.546 37.5894 244.991C37.5799 245.183 37.352 245.42 37.1146 245.535C36.8867 245.644 36.431 245.714 36.2221 245.631C34.4844 244.914 32.8038 244.088 32.1961 242.718C31.3415 240.759 30.5818 238.781 29.9835 236.777C29.3284 234.555 28.7206 232.34 27.3342 230.272C25.8813 230.592 26.204 231.329 26.1565 231.956C26.071 233.045 27.0494 234.165 25.9859 235.215C25.8719 235.324 25.2449 235.362 25.1689 235.292C24.6182 234.76 23.8682 234.222 23.6973 233.621C22.3868 229.171 20.9152 224.728 20.032 220.241C18.978 214.85 17.2973 209.485 17.6961 203.999C15.7305 197.29 16.0535 190.446 15.1799 183.673C15.0089 182.322 14.999 180.965 14.98 179.608C14.9705 178.475 15.3791 177.297 15.0467 176.221C13.6699 171.734 13.9072 167.188 13.5273 162.656C13.3375 160.409 12.4733 158.187 11.8846 155.953C11.1724 153.27 10.6879 150.627 11.1817 147.842C11.7419 144.698 11.6569 141.491 11.5619 138.316C11.5049 136.286 11.1533 134.238 10.5646 132.24C9.06426 127.112 7.39294 122.01 7.62078 116.735C7.6303 116.511 7.62121 116.274 7.54522 116.056C5.1618 109.129 6.06396 102.036 5.20935 95.0323C5.04791 93.6943 5.28509 92.318 5.47497 90.9736C5.53198 90.5894 6.0827 90.2372 6.40557 89.8723C6.84234 90.1092 7.52618 90.2822 7.68756 90.5831C9.07397 93.1695 9.59631 95.8518 9.7008 98.6046C9.75775 100.141 9.15911 101.786 10.7069 103.201C10.9918 102.817 11.5142 102.433 11.4952 102.062C11.3622 98.8862 11.5049 95.6791 10.8307 92.555C10.0995 89.1684 9.74798 85.7945 9.67205 82.3823C9.57708 77.8433 9.12127 73.3298 8.24768 68.8101C7.46905 64.7769 7.64947 60.6606 7.53552 56.5762C7.41205 52.2613 7.93426 47.9143 7.26007 43.6442C6.11108 36.4101 5.24695 29.1887 5.28491 21.9162C5.29437 19.5923 3.79419 17.5118 3.06305 15.3095C2.73071 14.2852 4.32611 12.8702 5.82648 12.8766C7.16534 12.883 8.50421 12.9537 9.84314 12.9985C18.8356 13.2802 22.0831 16.8972 23.6119 22.0444C24.0013 23.3631 23.8303 24.7588 23.9727 26.1224C24.362 29.7395 24.8178 33.3566 25.1976 36.98C25.4255 39.2463 25.6345 41.5123 25.7104 43.7786C25.8624 48.3176 25.8245 52.8631 26.0619 57.402C26.2139 60.3469 26.7547 63.279 27.0681 66.2175C27.4099 69.3864 27.6572 72.5554 27.9991 75.7243C28.3314 78.8933 28.7491 82.0557 29.072 85.2247C29.4138 88.6177 29.8029 92.017 29.9548 95.4164C30.1162 99.0527 30.4203 102.657 31.1895 106.268C31.9017 109.622 31.9493 113.054 32.0348 116.453C32.1202 119.865 32.6519 123.226 33.1457 126.613C34.2187 134.058 36.2031 141.459 35.9657 148.981C35.8612 152.163 36.0798 155.338 37.0483 158.475C37.1907 158.917 37.352 159.371 37.352 159.82C37.4659 168.904 40.3624 177.867 39.954 186.964C39.5647 195.632 41.1883 204.185 43.0875 212.718C44.3029 218.141 44.1606 223.582 43.9517 229.03C43.9042 230.368 42.9071 231.297 41.9766 231.085C40.9035 230.842 40.4666 230.272 40.2007 229.632C39.8399 228.755 39.631 227.853 39.2702 226.982C38.7194 225.676 38.1405 224.37 37.4568 223.09C36.8491 221.95 35.4152 221.329 33.8769 220.823C33.6869 220.638 33.5062 220.459 33.3163 220.273C33.5157 220.439 33.7341 220.606 33.9524 220.772ZM17.7814 164.864C17.8194 165.268 17.8383 165.677 17.9048 166.081C17.9997 166.682 18.3893 166.849 18.8641 166.484C18.9875 166.388 18.8736 166.074 18.7407 165.914C18.4369 165.569 18.0568 165.248 17.7054 164.922L17.7814 164.864ZM15.6829 144.436C15.5879 140.671 15.5216 136.901 15.3602 133.136C15.3317 132.522 14.743 132.394 13.9168 132.938C13.4515 135.364 13.4418 138.015 13.9451 140.64C14.192 141.92 15.1417 143.143 15.7779 144.391C15.6356 146.177 15.4742 147.963 15.3792 149.749C15.3697 149.922 15.7017 150.198 15.9676 150.255C16.7367 150.428 17.202 150.165 17.335 149.596C17.7338 147.739 17.2022 146.017 15.6829 144.436ZM19.7279 99.4495C20.7629 96.8247 21.855 94.2064 21.5227 91.4471C21.4183 90.5509 21.2662 89.642 20.9149 88.7842C20.7724 88.4385 20.0605 88.0351 19.5383 87.9839C19.2059 87.9519 18.3796 88.528 18.3986 88.816C18.5885 91.2872 18.7502 93.7457 18.4463 96.2361C18.3229 97.2604 19.3481 98.3487 19.8419 99.4114C18.7974 101.089 18.3038 102.779 19.5002 104.526C19.842 105.026 20.3262 105.25 20.9909 105.026C21.2283 104.949 21.3994 104.674 21.4564 104.475C21.9122 102.638 21.2377 100.973 19.7279 99.4495ZM23.6592 148.418C23.8112 148.418 23.9538 148.418 24.1058 148.418C24.1058 150.223 24.0676 152.035 24.115 153.84C24.2005 157.694 25.2547 161.452 26.6981 165.165C26.7645 165.338 27.2295 165.601 27.4005 165.569C27.9797 165.453 28.8345 165.312 29.0149 165.024C30.4583 162.617 29.9928 160.082 29.2806 157.681C28.0272 153.437 27.6667 149.173 27.7617 144.871C27.7712 144.199 27.6477 143.514 27.4673 142.855C27.3533 142.419 27.1349 141.952 26.7361 141.613C26.3752 141.305 25.7009 140.96 25.1976 140.979C24.6659 140.998 23.7447 141.427 23.7353 141.696C23.6023 143.93 23.6592 146.171 23.6592 148.418ZM29.6511 192.271C29.9645 190.299 30.0596 189.211 30.316 188.141C30.5818 187.047 31.1516 185.978 31.2845 184.877C31.427 183.795 31.2844 182.674 31.0564 181.592C30.99 181.285 30.2305 180.843 29.7651 180.824C29.3094 180.805 28.4263 181.24 28.3978 181.503C28.1889 183.494 28.0652 185.491 28.0746 187.482C28.0842 188.795 27.7615 190.152 29.6511 192.271ZM29.7461 175.895C30.1165 175.549 30.895 175.107 31.0754 174.576C31.4078 173.584 30.5055 172.783 29.2236 172.623C27.9797 172.463 26.8498 173.283 26.9827 174.243C27.1157 175.235 28.1319 175.946 29.7461 175.895ZM30.0879 202.322C30.0879 204.377 30.0027 205.055 30.1166 205.721C30.1831 206.118 30.5627 206.489 30.8 206.874C31.1324 206.528 31.7211 206.201 31.7686 205.843C32.025 203.852 32.1578 201.848 32.2907 199.851C32.3002 199.735 31.8349 199.518 31.5785 199.511C31.3032 199.499 30.7907 199.646 30.7527 199.774C30.3634 201.061 30.0689 202.373 30.0879 202.322ZM12.7679 122.445C13.8219 117.638 13.8218 117.637 11.9606 115.947C11.8182 118.124 11.6283 120.045 12.16 121.965C12.2075 122.132 12.54 122.266 12.7679 122.445ZM19.9463 190.261C19.9463 191.65 19.8323 192.104 19.9842 192.508C20.1077 192.86 20.5351 193.161 20.8295 193.481C21.0859 193.11 21.4945 192.757 21.5704 192.373C21.7034 191.74 21.7317 191.074 21.5987 190.44C21.5323 190.107 21.0383 189.806 20.7345 189.492C20.4686 189.851 20.1551 190.203 19.9463 190.574C19.8323 190.773 19.8893 191.01 19.9463 190.261ZM21.3993 116.684C21.6937 116.607 22.1019 116.581 22.2539 116.44C23.1085 115.614 22.9946 114.936 21.8361 114.02C21.6747 113.892 21.105 113.803 20.9436 113.886C20.0415 114.36 20.0033 115.07 20.2597 115.723C20.4116 116.082 21.0005 116.364 21.3993 116.684ZM23.5071 128.367C23.8395 127.791 24.3238 127.227 24.4567 126.626C24.5327 126.28 24.039 125.883 23.8016 125.512C23.3458 125.762 22.5862 125.973 22.4913 126.274C22.3108 126.876 22.4626 127.535 22.5576 128.162C22.5766 128.226 23.0608 128.271 23.5071 128.367ZM23.6119 203.064C23.5834 202.827 23.5549 202.616 23.5359 202.399C23.4979 201.835 23.1275 201.56 22.4723 201.695C22.2538 201.739 22.0925 202.014 21.9975 202.2C21.893 202.398 21.8077 202.636 21.8741 202.828C22.0831 203.417 22.3772 203.993 22.6336 204.575C23.8206 204.313 23.498 203.615 23.6119 203.064ZM17.9145 175.229C17.9145 175.69 17.8668 176.132 17.9238 176.567C17.9997 177.137 18.4557 177.387 19.0825 177.194C19.3104 177.124 19.5002 176.855 19.5383 176.656C19.6332 176.221 19.7282 175.767 19.6143 175.344C19.5003 174.947 19.111 174.582 18.8451 174.211C18.5317 174.557 18.2184 174.902 17.9145 175.229ZM33.25 213.5C33.9337 213.711 34.5508 213.602 34.7977 213.109C34.9876 212.731 35.1207 212.225 34.8928 211.905C34.5889 211.476 33.8483 211.483 33.3071 211.841C32.4714 212.385 32.4714 213.115 33.25 213.5ZM24.7799 221.143C25.0268 220.791 25.4633 220.439 25.4633 220.087C25.4633 219.735 25.017 219.383 24.7701 219.031C24.5232 219.376 24.0675 219.729 24.077 220.074C24.077 220.433 24.5235 220.785 24.7799 221.143ZM27.6379 135.908C27.5334 136.056 27.315 136.229 27.3625 136.337C27.41 136.44 27.7614 136.485 27.9703 136.549C28.0748 136.401 28.2935 136.229 28.2365 136.12C28.189 136.017 27.8563 135.979 27.6379 135.908ZM16.4711 82.3885L17.0029 82.6383L17.0122 82.1453L16.4711 82.3885Z" fill="#EB539F"/>
<path d="M108.998 263.556C110.308 264.42 111.704 264.17 112.976 264.177C139.925 264.26 166.883 264.324 193.832 264.382C201.913 264.401 210.004 264.126 218.037 265.028C219.993 265.246 222.092 265.233 224.057 265.016C228.767 264.503 233.42 264.529 238.149 264.932C240.456 265.131 242.849 264.856 245.195 264.901C247.227 264.939 249.23 265.24 250.892 266.091C251.319 266.309 251.671 266.866 251.576 267.205C251.471 267.557 250.845 268.044 250.341 268.101C245.366 268.716 240.352 269.062 235.281 268.722C230.904 268.428 226.555 268.594 222.168 268.825C218.17 269.03 214.115 268.767 210.099 268.915C206.072 269.062 202.075 269.651 198.058 269.689C191.667 269.753 185.267 269.523 178.876 269.427C176.522 269.395 174.157 269.369 171.802 269.408C163.722 269.529 155.64 269.766 147.56 269.804C130.04 269.887 112.52 269.804 95.0006 269.939C86.5209 270.003 78.1837 269.35 69.8939 268.351C61.5376 267.339 53.8271 265.016 46.1546 262.66C44.5688 262.173 43.268 261.296 42.9451 260.163C42.2424 257.73 41.8058 255.253 41.3974 252.788C41.35 252.525 42.2234 251.949 42.7078 251.924C47.7309 251.706 52.7635 251.514 57.7488 252.289C63.6551 253.211 69.6186 253.985 75.487 254.984C80.7571 255.88 86.0842 256.258 91.4967 256.251C98.9129 256.245 106.319 256.226 113.736 256.303C118.446 256.347 123.146 256.584 127.847 256.674C130.192 256.719 132.566 256.764 134.892 256.597C138.947 256.309 142.954 256.252 146.952 256.885C149.99 257.365 152.991 257.289 155.83 256.341C159.258 255.195 162.905 254.984 166.646 254.978C179.446 254.971 192.256 254.958 205.056 254.888C210.497 254.856 215.786 255.477 221.038 256.341C223.383 256.725 225.633 256.937 227.779 255.861C229.479 255.01 231.559 254.958 233.591 254.952C238.985 254.939 244.369 254.997 249.762 254.965C253.95 254.939 257.729 255.56 260.939 257.532C262.268 258.351 264.015 258.377 265.639 257.743C266.513 257.404 267.32 256.994 268.165 256.616C270.197 255.701 272.438 255.336 274.878 255.406C280.927 255.573 286.986 255.759 293.034 255.874C301.115 256.027 309.187 256.143 317.268 256.226C324.674 256.303 332.052 256.283 339.43 257.116C344.045 257.634 348.831 257.449 353.541 257.564C360.255 257.73 367.006 257.276 373.682 258.095C374.118 258.146 374.821 258.812 374.707 259.049C373.881 260.854 372.314 262.487 369.494 262.826C362.904 263.614 356.361 264.663 349.486 263.575C345.612 262.961 341.463 263.069 337.427 263.031C332.366 262.986 327.361 262.788 322.329 262.327C312.282 261.405 302.16 261.668 292.066 262.032C288.695 262.154 285.371 262.18 282 262.032C275.619 261.757 269.209 261.693 262.819 261.667C253.048 261.623 243.277 261.687 233.505 261.693C230.809 261.693 228.102 261.757 225.425 261.61C219.376 261.277 213.375 261.034 207.297 261.559C202.91 261.936 198.723 261.258 194.535 260.061C189.123 258.518 183.416 258.287 178.079 260.521C176.294 261.27 174.385 261.603 172.334 261.636C169.637 261.68 166.94 261.655 164.253 261.7C158.195 261.802 152.136 261.661 146.116 262.416C143.856 262.698 141.406 262.576 139.108 262.346C133.382 261.77 127.723 261.834 122.016 262.474C118.712 262.845 115.322 262.877 111.97 263.108C111.001 263.165 110.09 263.383 108.998 263.556ZM311.209 258.678C311.437 258.537 311.674 258.403 311.902 258.262C311.665 258.127 311.446 257.897 311.181 257.871C310.231 257.775 309.87 258.05 310.279 258.55C310.383 258.671 310.886 258.639 311.209 258.678ZM339.715 260.496L339.241 260.054L338.899 260.528L339.715 260.496Z" fill="#EB539F"/>
<path d="M395.237 258.524C401.998 258.71 408.702 258.876 415.396 259.081C417.068 259.132 418.739 259.312 420.41 259.446C424.408 259.76 428.405 260.105 432.413 260.4C434.255 260.534 435.584 260.989 435.869 262.359C436.078 263.364 437.028 263.959 438.423 264.241C439.392 264.439 440.361 264.612 441.339 264.785C443.779 265.22 446.125 265.048 447.881 263.774C452.686 260.297 453.968 260.925 459.295 262.634C461.413 263.313 463.445 264.113 465.315 264.779C468.629 264.887 471.25 263.377 474.469 263.85C475.533 264.011 476.986 263.377 478.087 262.922C479.635 262.276 481.211 262.167 482.911 262.391C489.833 263.306 496.699 264.452 503.83 264.535C505.036 264.548 506.584 265.022 507.344 265.637C508.986 266.955 510.886 267.506 513.354 267.769C518.359 268.3 523.353 268.626 528.415 268.537C534.815 268.421 541.139 268.633 547.501 269.35C552.439 269.907 557.547 269.766 562.58 269.958C562.856 269.971 563.321 270.188 563.349 270.342C563.454 270.886 562.97 271.149 562.172 271.277C553.559 272.621 544.966 273.037 536.182 271.789C532.289 271.232 528.168 271.258 524.151 271.251C517.751 271.245 511.379 271.245 505.074 270.297C503.118 270.003 501.067 269.996 499.063 269.894C497.724 269.83 496.367 269.9 495.028 269.804C489.017 269.369 483.035 268.684 477.014 268.498C471.298 268.325 465.638 268.153 459.95 267.596C454.993 267.109 449.894 267.18 444.852 267.128C438.462 267.064 432.08 267.103 425.775 266.187C423.496 265.861 421.094 265.899 418.748 265.797C416.735 265.707 414.684 265.778 412.709 265.541C406.062 264.753 399.368 264.414 392.635 264.395C391.648 264.395 390.612 264.247 389.691 264.011C389.141 263.87 388.713 263.454 388.353 263.102C388.22 262.973 388.343 262.589 388.542 262.468C390.764 261.13 393.024 259.817 395.237 258.524Z" fill="#EB539F"/>
<path d="M283.653 265.777C291.79 265.867 299.188 265.771 306.49 266.847C309.073 267.231 311.845 267.103 314.533 267.116C321.93 267.16 329.327 267.199 336.724 267.167C343.124 267.135 349.467 267.256 355.792 268.108C359.39 268.594 363.151 268.505 366.835 268.703C367.5 268.742 368.212 268.818 368.772 269.03C369.285 269.222 369.912 269.599 369.969 269.932C370.016 270.227 369.38 270.835 368.991 270.86C362.296 271.315 355.621 271.648 349.031 270.182C347.17 269.766 345.071 269.625 343.105 269.67C339.393 269.766 335.737 269.715 332.033 269.427C329.726 269.247 327.342 269.375 325.016 269.523C319.3 269.881 313.612 269.907 307.914 269.343C305.939 269.145 303.859 268.966 301.913 269.158C298.19 269.516 294.573 269.51 290.917 268.908C288.258 268.473 285.561 268.735 282.912 269.119C278.933 269.702 274.916 269.823 270.871 269.631C269.884 269.587 268.868 269.439 267.956 269.183C267.405 269.03 266.655 268.556 266.684 268.255C266.741 267.647 267.045 266.924 267.643 266.501C268.858 265.65 270.596 265.425 272.296 265.457C276.341 265.541 280.376 265.681 283.653 265.777Z" fill="#EB539F"/>
<path d="M3.31006 34.624C3.39551 36.4229 3.49048 38.2218 3.54748 40.0144C3.68988 44.0924 3.92706 48.1576 4.98108 52.2036C5.79773 55.3277 6.0448 58.5095 5.15216 61.672C4.93377 62.4595 3.92694 63.1637 3.2243 62.9652C2.17975 62.6643 1.9046 62.0434 1.77166 61.3904C1.63867 60.7182 1.58148 60.0396 1.54352 59.361C1.49603 58.2279 1.49597 57.0947 1.46747 55.9616C1.44848 55.283 1.49615 54.5979 1.40118 53.9257C0.926389 50.5711 -0.735415 47.3126 0.375547 43.8236C1.34411 40.7635 1.62897 37.6073 2.21765 34.4896C2.58801 34.5344 2.94922 34.5792 3.31006 34.624Z" fill="#EB539F"/>
<path d="M421.758 269.657C422.888 269.785 424.921 269.868 426.81 270.265C428.766 270.675 430.115 271.712 430.893 273.005C430.969 273.12 430.647 273.492 430.438 273.518C429.469 273.639 428.462 273.812 427.513 273.741C423.923 273.46 420.543 272.307 416.811 272.551C416.612 272.564 416.185 272.243 416.185 272.083C416.185 271.654 416.156 271.11 416.507 270.816C417.77 269.753 418.881 269.503 421.758 269.657Z" fill="#EB539F"/>
<path d="M462.191 275.579C459.561 275.348 456.921 275.124 454.291 274.862C454.091 274.842 453.845 274.51 453.845 274.324C453.845 274.157 454.158 273.844 454.338 273.844C459.637 273.754 464.945 273.677 470.244 273.677C470.538 273.677 471.07 274.407 471.041 274.785C471.013 275.169 470.548 275.649 470.054 275.867C469.551 276.091 468.772 276.155 468.145 276.104C466.161 275.937 464.185 275.681 462.21 275.464C462.21 275.502 462.201 275.54 462.191 275.579Z" fill="#EB539F"/>
<path d="M5.73144 81.4537C4.39257 78.5793 3.08215 75.6474 4.0697 72.4848C4.11718 72.3376 4.52551 72.1454 4.76288 72.1454C5.04773 72.139 5.48443 72.2734 5.59839 72.427C7.69696 75.3271 8.07708 78.3426 6.85211 81.4475C6.84265 81.4923 6.35815 81.4537 5.73144 81.4537Z" fill="#EB539F"/>
<path d="M485.294 8.13929C485.95 8.22251 486.633 8.24823 487.241 8.41468C487.982 8.60674 488.191 9.03563 487.858 9.49656C487.725 9.67582 487.383 9.91903 487.146 9.91262C485.845 9.86141 484.544 9.80383 483.272 9.63098C482.474 9.52855 482.189 9.08038 482.512 8.63224C482.635 8.46579 483.006 8.31868 483.3 8.28026C483.965 8.19064 484.63 8.1841 485.294 8.13929Z" fill="#EB539F"/>
<path d="M409.452 270.451C408.968 270.31 408.483 270.163 408.009 270.022C408.35 269.76 408.664 269.465 409.063 269.247C409.158 269.196 409.642 269.356 409.803 269.497C410.278 269.894 410.126 270.227 409.452 270.451Z" fill="#EB539F"/>
<path d="M527.864 8.82463C527.332 8.97187 526.791 9.24052 526.278 9.22131C525.784 9.2021 525.319 8.88837 524.835 8.70272C525.366 8.55547 525.898 8.29323 526.42 8.30604C526.914 8.32524 527.389 8.63897 527.864 8.82463Z" fill="#EB539F"/>
<path d="M515.69 276.597L515.149 277L514.902 276.507L515.69 276.597Z" fill="#EB539F"/>
<path d="M504.143 8.79879C504.381 8.66435 504.59 8.45942 504.856 8.41461C505.14 8.3698 505.672 8.40176 505.767 8.52339C506.175 9.01634 505.805 9.28508 504.865 9.18265C504.609 9.15064 504.39 8.92682 504.143 8.79879Z" fill="#EB539F"/>
<path d="M400.602 271.616C400.602 271.802 400.707 272.083 400.583 272.141C400.355 272.25 399.937 272.314 399.681 272.25C398.741 272.013 398.75 271.712 399.709 271.501C399.966 271.449 400.317 271.578 400.602 271.616Z" fill="#EB539F"/>
<path d="M529.155 266.879C528.918 266.795 528.51 266.738 528.462 266.616C528.272 266.162 528.652 265.938 529.431 266.027C529.687 266.059 530.076 266.162 530.124 266.283C530.323 266.738 529.943 266.943 529.155 266.879Z" fill="#EB539F"/>
<path d="M492.188 5.8858L492.008 6.27655L491.514 6.0074L492.188 5.8858Z" fill="#EB539F"/>
<path d="M503.84 274.842L504.02 274.439L504.514 274.714L503.84 274.842Z" fill="#EB539F"/>
<path d="M540.484 266.245L540.807 266.584L540.142 266.578L540.484 266.245Z" fill="#EB539F"/>
<path d="M477.574 275.784L478.258 275.944L477.707 276.2L477.574 275.784Z" fill="#EB539F"/>
</g>
</svg>
