<svg width="714" height="231" viewBox="0 0 714 231" fill="none" xmlns="http://www.w3.org/2000/svg">
<path d="M304.972 2.0964C305.017 1.892 304.927 1.62377 305.129 1.49603C306.355 0.684837 308.504 0.665706 310.102 1.52799C310.394 1.68768 310.248 2.46048 309.91 2.58184C307.953 3.25251 305.77 2.99062 304.972 2.0964Z" fill="#FFF94F"/>
<path d="M335.898 0.576305C336.01 0.384686 336.033 0.090807 336.247 0.0333212C336.517 -0.0369392 337.079 0.00786375 337.293 0.129223C338.08 0.58911 337.866 0.921123 336.775 0.95306C336.483 0.965835 336.19 0.710439 335.898 0.576305Z" fill="#FFF94F"/>
<path d="M522.479 226.253C521.691 226.195 520.836 226.234 520.116 226.074C510.835 223.992 501.306 224.797 491.823 225.282C487.075 225.525 482.328 225.895 477.625 226.362C474.126 226.713 470.717 227.671 467.252 227.703C463.787 227.735 460.334 226.745 456.813 226.566C453.269 226.387 449.646 226.572 446.08 226.745C439.735 227.058 433.413 227.479 427.079 227.882C426.741 227.901 426.449 228.124 426.134 228.259C426.899 229.689 426.708 230.175 425.403 230.239C420.262 230.488 415.12 230.788 409.968 230.999C409.394 231.024 408.415 230.635 408.258 230.334C408.123 230.066 408.764 229.562 409.282 229.338C410.125 228.974 411.16 228.757 412.263 228.431C409.923 227.403 407.504 227.831 405.254 227.767C396.907 227.537 388.514 227.767 380.268 226.681C376.353 226.17 372.314 226.374 368.377 226.796C364.349 227.224 360.445 227.179 356.654 226.234C352.93 225.301 348.982 225.09 344.977 224.988C341.793 224.905 338.609 224.771 335.448 224.567C333.029 224.407 330.678 224.413 328.394 224.918C326.043 225.435 323.68 225.365 321.397 224.854C316.863 223.845 312.138 223.551 307.312 223.577C301.687 223.609 296.175 223.174 290.752 222.357C285.33 221.539 279.85 221.022 274.225 221.015C268.195 221.009 262.391 220.3 256.619 219.304C248.227 217.847 239.722 216.621 230.824 216.691C227.595 216.717 224.479 216.308 221.52 215.592C217.425 214.602 213.161 214.123 208.717 214.149C203.069 214.174 197.659 213.491 192.292 212.546C187.354 211.671 182.325 210.949 177.33 210.163C162.716 207.877 148.811 204.491 134.805 201.253C130.744 200.314 126.817 199.177 122.306 199.101L122.385 199.056C119.842 200.001 117.075 200.193 114.442 199.375C109.549 197.861 104.79 196.201 99.9861 194.597C99.6486 194.482 99.3673 194.31 99.0973 194.144C96.8135 192.739 96.5435 190.305 91.6947 190.203C87.8698 190.126 86.1709 187.705 82.9309 186.85C81.5135 186.479 79.8712 186.07 78.3974 186.147C73.1212 186.415 69.0825 185.036 65.4825 183.183C58.395 179.536 51.4087 175.819 44.5124 172.05C33.5212 166.033 24.8925 158.975 16.9275 151.636C15.6675 150.48 14.3629 149.343 13.1141 148.181C1.87541 137.712 -2.38859 126.47 1.29015 114.315C2.57265 110.08 3.39419 105.788 4.95794 101.592C6.02669 98.7301 7.69163 95.907 9.67162 93.2052C15.3641 85.4254 23.1151 78.3099 31.8788 71.5329C36.8513 67.6878 42.3863 64.1557 48.3038 60.764C57.855 55.2837 67.9126 50.1419 78.2063 45.1343C80.0175 44.2528 81.9863 43.4735 83.8763 42.6367C99.3225 35.8023 116.04 30.0601 132.724 24.2796C136.504 22.9702 140.531 22.0057 144.986 21.7502C146.584 21.6608 148.417 21.6609 149.317 20.8497C151.77 18.6461 155.618 18.4098 159.622 18.001C165.495 17.4006 171.334 16.602 177.06 15.6567C181.819 14.8711 186.442 14.5582 191.111 15.5993C198.75 17.2984 205.972 16.4935 213.341 14.5389C214.117 13.6 214.871 12.559 215.816 11.5817C216.862 10.5022 219.438 10.6108 220.541 11.7542C220.732 11.9458 220.811 12.1821 220.878 12.3993C221.227 13.4468 222.442 13.9194 224.208 13.9705C229.968 14.1494 235.346 13.5937 239.801 11.3071L239.711 11.3709C241.635 11.1856 243.727 11.2112 244.109 9.65911C244.267 9.02037 244.762 8.36239 245.358 7.80669C246.483 6.77194 248.913 6.7146 250.353 7.63437C250.612 7.80044 250.77 8.01756 250.961 8.22196C251.827 9.15451 253.256 9.56961 254.887 9.10334C257.857 8.26021 260.816 7.93458 264.135 8.27311C268.241 8.68828 272.111 8.18369 275.418 6.68267C279.378 4.88783 284.159 4.58111 288.884 4.15316C290.527 4.00625 292.012 4.16595 293.463 4.65139C299.246 6.58675 305.67 6.48455 312.037 6.40151C315.221 6.3568 318.393 6.10779 321.577 6.02476C322.758 5.99282 323.905 6.22906 324.592 6.88056C325.132 7.39794 323.174 8.34326 321.284 8.4774C320.89 8.50295 320.497 8.55415 320.103 8.58608C319.709 8.61163 319.304 8.65625 318.911 8.64347C307.233 8.27301 295.95 9.93373 284.497 10.7385C273.798 11.4858 263.246 12.5462 252.671 13.6959C246.011 14.4241 239.429 15.1458 232.904 16.2445C224.883 17.5986 216.603 18.448 208.436 19.5083C206.489 19.7638 204.397 19.8086 202.609 20.2429C190.515 23.2002 177.645 25.0269 165.742 28.2653C162.502 29.1467 159.138 29.8557 155.842 30.6733C152.917 31.4015 149.925 32.0594 147.135 32.928C131.014 37.9293 114.971 43.0072 100.526 49.5351C97.7248 50.7997 95.1264 52.2114 92.4264 53.5527C88.534 55.4944 84.6975 57.4746 80.7375 59.3652C76.7663 61.2559 72.6488 63.057 68.5988 64.903C67.6651 65.3309 66.6864 65.7334 65.8764 66.2316C51.7464 74.9056 38.3363 83.8605 29.6963 94.7892C25.5676 100.014 22.8789 105.424 21.934 111.115C21.6302 112.916 21.349 114.73 20.8315 116.519C19.4702 121.239 18.7841 125.966 20.1454 130.724C20.3366 131.395 20.5954 132.098 20.4041 132.749C19.3466 136.351 21.7424 139.462 24.7124 142.445C35.9736 153.789 49.3839 164.066 68.1264 171.942C81.6488 177.62 95.6437 182.832 110.46 187.29C119.955 190.152 129.922 192.547 139.901 194.846C159.183 199.286 179.163 202.454 199.503 204.9C201.843 205.181 204.172 205.507 206.501 205.839C226.65 208.701 247.091 210.706 267.577 212.622C284.52 214.213 301.597 215.152 318.618 216.365C323.759 216.736 329.058 216.455 334.132 216.966C347.541 218.32 361.244 217.771 374.643 219.131C376.983 219.367 379.424 219.342 381.809 219.342C406.165 219.336 430.521 219.304 454.877 219.278C456.475 219.278 458.095 219.323 459.659 219.176C471.887 218.013 484.375 218.416 496.57 217.132C498.527 216.928 500.53 216.819 502.521 216.787C517.382 216.551 531.805 214.711 546.25 212.987C551.324 212.38 556.319 211.556 561.37 210.885C575.837 208.963 589.528 205.852 602.815 202.135C609.261 200.333 615.763 198.577 622.007 196.558C632.796 193.071 642.876 188.932 651.876 184.103C659.436 180.053 665.758 175.282 669.853 169.796C677.807 159.148 685.007 148.34 690.385 137.163C693.028 131.676 694.985 126.138 694.974 120.422C694.974 119.291 694.974 118.148 695.244 117.024C696.673 111.103 695.233 105.277 693.512 99.4585C693.186 98.3407 692.635 97.2293 692.567 96.1051C692.286 91.551 688.585 87.859 683.657 84.4865C677.02 79.9387 671.822 74.8354 666.152 69.9171C665.5 69.3486 664.633 68.7929 664.352 68.1606C662.473 63.8619 656.713 61.4667 651.021 58.899C646.69 56.9445 641.379 55.6031 638.274 52.8183C638.106 52.665 638.129 52.352 638.286 52.1795C638.443 52.0071 638.916 51.7963 639.186 51.8218C642.831 52.122 645.857 53.2397 648.906 54.3128C649.918 54.6705 650.807 55.1367 651.752 55.5583C660.808 59.627 670.112 63.4786 677.143 68.8695C680.406 71.367 685.209 73.2192 689.293 75.3782C690.744 76.1446 692.376 76.86 693.512 77.767C702.602 85.0422 710.027 92.7198 711.906 101.803C713.211 108.1 713.886 114.411 713.998 120.747C714.043 123.507 713.334 126.164 709.948 128.38C707.405 130.041 707.124 132.072 707.428 134.154C707.529 134.831 707.698 135.508 707.979 136.166C709.543 139.928 707.934 143.441 704.627 146.616C699.092 151.943 695.38 157.653 692.635 163.581C688.933 171.571 682.285 178.757 674.59 185.668C672.475 187.565 669.831 189.302 667.12 190.957C663.317 193.282 659.233 195.453 655.262 197.689C652.945 198.992 650.256 199.924 647.072 200.384L647.151 200.429C646.285 200.429 645.407 200.429 644.541 200.429L644.62 200.391C634.573 202.134 625.663 205.079 617.383 208.694C615.786 209.39 616.067 210.227 618.317 211.319L618.238 211.275C615.257 212.763 611.769 213.625 607.832 213.906C604.761 214.124 601.701 214.373 599.057 215.394L599.147 215.343C597.921 215.784 596.515 216.123 595.525 216.698C593.837 217.675 591.79 217.962 589.562 218.084L589.63 218.122C587.965 217.368 586.3 217.381 584.623 218.122L584.759 218.064C571.461 219.093 558.423 220.875 545.283 222.376C541.413 222.817 537.632 223.187 533.594 223.04C530.129 222.912 526.585 223.43 523.075 223.711C521.061 223.87 520.892 224.49 522.355 226.291L522.479 226.253ZM93.641 42.6751L93.5514 42.6239C94.3614 42.164 95.1713 41.7042 95.97 41.2443C99.0975 40.9569 101.505 40.0691 103.159 38.5233C106.241 38.1976 108.682 37.3353 110.347 35.8023C113.509 35.5532 115.871 34.6335 117.491 33.0813C119.089 32.6278 120.686 32.1744 122.284 31.7209C123.881 31.2674 125.479 30.8138 127.076 30.3603C128.674 29.9132 130.282 29.4598 131.88 29.0127L131.97 29.0637C130.361 29.5108 128.752 29.9644 127.144 30.4115C125.546 30.865 123.949 31.3184 122.362 31.7719C120.765 32.2254 119.167 32.6726 117.559 33.1261C114.544 33.5029 112.103 34.3525 110.426 35.8535C107.378 36.2048 104.936 37.0671 103.248 38.5809C100.155 38.8811 97.7698 39.8008 96.0486 41.2827C95.2498 41.7554 94.451 42.2152 93.641 42.6751ZM635.035 199.037C635.361 198.909 635.676 198.781 636.002 198.653C635.709 198.8 635.417 198.947 635.136 199.094L635.035 199.037Z" fill="#FFF94F"/>
<path d="M393.858 5.19437C405.412 4.38957 414.074 4.45343 423.693 5.18158C426.46 5.39236 429.307 5.82033 431.939 5.19437C435.629 4.31292 438.711 4.72804 442.109 5.76917C451.649 8.70095 462.134 10.0424 472.664 11.2943C481.664 12.3674 490.281 14.028 497.369 17.5729C497.56 17.6687 497.56 18.0138 497.403 18.167C497.245 18.3203 496.739 18.4992 496.469 18.4608C495.321 18.3075 494.14 18.1541 493.082 17.8667C484.105 15.3757 474.498 13.8748 465.059 12.0927C461.673 11.454 458.163 10.9558 454.63 10.6619C446.362 9.9785 438.183 9.19915 430.072 7.99195C425.155 7.26379 419.823 7.32135 414.659 7.27025C407.493 7.20638 400.574 6.45906 393.858 5.19437Z" fill="#FFF94F"/>
<path d="M352.886 5.14958C354.157 4.39588 355.855 4.54282 357.397 4.54921C361.762 4.56837 366.127 4.66424 370.492 4.76643C370.717 4.77282 371.121 5.11774 371.065 5.24548C370.986 5.42433 370.57 5.66702 370.244 5.69256C364.687 6.17161 359.129 6.20992 353.583 5.67338C353.313 5.64783 353.122 5.33481 352.886 5.14958Z" fill="#FFF94F"/>
<path d="M614.773 45.032C614.998 44.8787 615.212 44.5913 615.448 44.5849C617.889 44.521 619.78 45.2556 621.602 46.054C621.861 46.169 622.086 46.4436 622.029 46.6096C621.872 47.1142 621.197 47.2932 620.308 47.0569C618.598 46.597 616.922 46.1051 615.257 45.5878C614.998 45.5047 614.93 45.2236 614.773 45.032Z" fill="#FFF94F"/>
<path d="M376.825 227.92C377.016 228.048 377.252 228.195 377.489 228.348C377.196 228.469 376.915 228.667 376.6 228.686C375.486 228.763 375.104 228.495 375.644 228.028C375.779 227.907 376.353 227.952 376.825 227.92Z" fill="#FFF94F"/>
<path d="M239.834 11.3134C239.137 11.2815 238.428 11.2686 237.73 11.2111C237.393 11.1856 236.842 11.1089 236.797 11.0003C236.594 10.5532 237.089 10.4255 238.012 10.7065C238.63 10.8981 239.171 11.1536 239.756 11.3836C239.744 11.3836 239.834 11.3134 239.834 11.3134Z" fill="#FFF94F"/>
<path d="M522.389 226.317C522.76 226.361 523.12 226.413 523.491 226.457C523.154 226.387 522.816 226.323 522.479 226.253L522.389 226.317Z" fill="#FFF94F"/>
<path d="M584.702 219.45C584.432 219.585 584.151 219.712 583.881 219.847C584.196 219.738 584.511 219.623 584.826 219.514L584.702 219.45Z" fill="#FFF94F"/>
<path d="M584.814 219.514C584.803 219.035 584.792 218.563 584.781 218.084L584.646 218.141C586.311 218.141 587.976 218.141 589.641 218.141C589.641 218.141 589.562 218.103 589.573 218.103C587.942 218.556 586.322 219.003 584.691 219.457C584.702 219.45 584.814 219.514 584.814 219.514Z" fill="#FFF94F"/>
<path d="M644.63 61.7158C645.013 61.7669 645.654 61.7669 645.733 61.8818C645.969 62.2459 645.53 62.1948 644.72 61.671C644.709 61.671 644.63 61.7158 644.63 61.7158Z" fill="#FFF94F"/>
<path d="M630.242 56.2737C630.602 56.3248 630.962 56.3759 631.322 56.427C630.996 56.3631 630.658 56.2928 630.332 56.2289L630.242 56.2737Z" fill="#FFF94F"/>
<path d="M83.9547 208.637C84.7984 208.637 85.6537 208.637 86.4975 208.637C86.4975 208.637 86.4071 208.579 86.4184 208.579C85.6196 208.579 84.8213 208.586 84.0338 208.586C84.0225 208.579 83.9547 208.637 83.9547 208.637Z" fill="#FFF94F"/>
<path d="M599.068 215.42L599.158 215.369C599.17 215.363 599.068 215.42 599.068 215.42Z" fill="#FFF94F"/>
<path d="M630.332 56.2289C630.332 56.2289 630.253 56.2737 630.242 56.2737L630.332 56.2289Z" fill="#FFF94F"/>
<path d="M642.201 60.3361C643.011 60.796 643.809 61.2558 644.619 61.7157L644.698 61.6709C643.888 61.2111 643.078 60.7576 642.268 60.2977C642.28 60.2977 642.201 60.3361 642.201 60.3361Z" fill="#FFF94F"/>
<path d="M647.072 200.416C646.262 200.416 645.441 200.416 644.619 200.416C644.619 200.416 644.541 200.455 644.541 200.461C645.407 200.461 646.284 200.461 647.151 200.461L647.072 200.416Z" fill="#FFF94F"/>
</svg>
