<svg width="277" height="606" viewBox="0 0 277 606" fill="none" xmlns="http://www.w3.org/2000/svg">
<path d="M5.32246 210.934C5.32886 205.199 5.22639 199.501 4.48377 193.823C4.15087 191.24 4.17651 188.391 4.5094 185.799C5.29044 179.788 5.39924 173.749 5.44406 167.681C5.46966 163.949 5.65534 160.293 6.91012 156.903C8.03685 153.846 8.05598 150.437 8.1136 147.056C8.17762 143.362 8.2675 139.678 8.36993 135.984C8.37633 135.766 8.72179 135.338 8.76661 135.376C9.10591 135.671 9.64379 136.003 9.69501 136.43C9.87426 138.064 9.96399 139.735 9.95758 141.397C9.95758 143.4 9.77831 145.404 9.7719 147.408C9.7655 149.155 11.1867 150.057 12.3327 149.183C13.6194 148.205 14.8102 146.828 14.6949 144.654C14.3748 138.88 15.2454 133.287 15.6039 127.637C16.0713 120.24 16.3083 112.834 16.2123 105.427C16.0906 95.9502 16.8971 86.6253 17.8446 77.3005C17.8702 77.0631 18.1581 76.7214 18.3182 76.7309C18.5038 76.7404 18.7984 77.0251 18.8496 77.272C20.5717 86.5208 20.6869 95.9406 19.7971 105.341C19.1633 112.083 19.0097 118.73 19.6627 125.463C19.8867 127.761 19.9188 130.192 19.6883 132.49C19.2081 137.19 19.2466 141.89 19.221 146.61C19.1569 158.404 19.0545 170.197 18.9265 181.991C18.8945 184.678 18.6896 187.366 18.5423 190.053C18.267 195.086 17.9661 200.118 17.7036 205.151C17.6012 207.164 17.7295 209.234 17.4798 211.2C16.4427 219.537 16.577 227.969 16.3786 236.392C16.2569 241.434 15.8536 246.457 15.6039 251.5C15.4567 254.519 15.303 257.549 15.2454 260.578C15.1366 265.971 15.1175 271.365 15.0278 276.749C14.9702 280.12 15.0725 283.529 14.7396 286.843C13.5105 299.235 13.7601 311.722 13.4592 324.171C13.4016 326.526 13.5298 328.928 13.2545 331.235C12.2942 339.259 12.4541 347.35 12.4349 355.431C12.4029 369.921 12.2108 384.421 12.4221 398.902C12.6141 412.016 12.5053 425.167 13.3439 438.252C13.4911 440.598 13.4786 442.962 13.4786 445.327C13.5426 480.717 13.6067 516.098 13.6387 551.489C13.6451 556.199 13.5681 560.928 13.3248 565.628C13.0047 571.762 11.8844 577.555 9.29801 582.54C8.72184 583.651 8.03673 584.553 7.10205 584.715C5.52718 584.981 3.94598 585.094 2.36471 585.237C1.71811 585.294 1.05872 584.164 1.24437 583.129C1.65409 580.831 1.78873 578.58 1.60948 576.168C1.30859 572.161 1.13578 568.107 1.16779 564.08C1.26382 551.622 1.08426 539.144 2.30062 526.743C2.62712 523.429 2.48649 520.02 2.5185 516.649C2.58252 509.907 2.51196 503.165 2.69762 496.433C2.83846 491.39 3.24811 486.453 1.82048 481.534C1.22511 479.483 1.39158 476.9 1.36597 474.545C1.29555 468.477 1.3278 462.41 1.28939 456.342C1.27018 453.313 1.37883 450.236 1.09714 447.254C0.405737 439.885 -0.0680163 432.574 1.08433 425.186C1.38521 423.278 1.03322 421.16 1.03962 419.147C1.04603 416.118 1.04599 413.089 1.16122 410.069C1.30847 406.375 1.9295 404.552 2.65292 405.207C3.88208 406.318 3.47869 408.113 3.5363 409.737C3.55551 410.354 3.73466 410.981 3.91392 411.55C3.95873 411.693 4.31092 411.731 4.48377 411.636C4.67583 411.541 4.9255 411.275 4.96391 411.019C5.39924 408.417 5.89869 405.834 6.18678 403.194C6.41725 401.086 5.39926 399.32 3.8564 399.035C3.40827 398.95 2.95382 398.883 2.50569 398.779C1.23171 398.465 0.469756 397.278 0.296904 395.455C0.111249 393.461 0.040891 391.429 0.040891 389.416C0.0152834 371.554 -0.0295424 353.693 0.0280747 335.831C0.0408785 331.463 0.444311 327.105 0.623564 322.737C0.84763 317.362 1.09084 311.978 1.19967 306.603C1.31491 300.878 1.47497 295.19 2.01273 289.483C2.51207 284.165 2.49921 278.733 2.58883 273.349C2.70407 266.275 2.65923 259.21 3.52349 252.193C3.84998 249.563 3.84362 246.828 3.88203 244.131C3.98446 237.057 4.13182 230.011 4.95766 222.993C5.425 219.091 5.22643 214.97 5.32246 210.934ZM8.22238 200.688C8.35682 201.647 8.4593 202.977 8.75379 204.211C8.86262 204.648 9.41342 204.914 9.79754 205.113C9.95758 205.199 10.2903 205.009 10.4055 204.79C10.8088 204.012 11.385 203.223 11.4746 202.34C11.7115 200.052 11.3785 197.507 11.9163 195.437C12.7229 192.303 12.4798 189.635 11.5515 186.786C11.1354 185.504 11.4491 184.166 12.0573 183.064C12.7871 181.744 13.3312 180.358 13.2992 178.554C13.2736 177.196 12.4734 175.524 11.7628 175.876C11.1866 176.161 10.5849 176.806 10.252 177.547C9.89994 178.335 9.77823 179.418 9.69501 180.396C9.29169 185.03 8.92021 189.673 8.56811 194.316C8.41446 196.31 8.34402 198.314 8.22238 200.688ZM9.20205 216.138C9.09322 216.688 8.80517 217.343 8.9204 217.761C9.10606 218.436 9.59892 218.436 9.95102 217.885C10.0727 217.695 10.1303 217.296 10.0983 217.021C10.015 216.252 9.69499 215.967 9.20205 216.138ZM13.9716 158.859C13.9332 159.144 13.8178 159.486 13.8691 159.743C14.0675 160.702 14.3621 160.711 14.5861 159.771C14.6502 159.515 14.586 159.116 14.4836 158.878C14.426 158.764 14.1508 158.859 13.9716 158.859ZM6.8973 375.134C6.94211 374.394 6.70534 373.976 6.19959 374.052C6.06515 374.071 5.87931 374.46 5.8473 374.716C5.75768 375.457 6.02034 375.884 6.51969 375.78C6.66693 375.761 6.77566 375.362 6.8973 375.134Z" fill="#EB539F"/>
<path d="M231.668 3.88885C235.074 3.89835 238.467 3.82255 241.821 2.63558C243.351 2.09433 244.965 1.93285 246.546 1.87588C249.049 1.78092 251.533 1.54346 253.972 0.622376C256.923 -0.488625 259.83 -0.0233529 262.698 1.31555C265.079 2.42655 267.461 3.53758 269.836 4.67707C270.733 5.10438 271.001 6.26278 270.348 7.91503C269.868 9.13049 269.638 10.2037 269.651 11.647C269.676 14.2489 268.901 15.4928 267.416 15.7017C265.835 15.9296 264.241 16.2239 262.666 16.11C256.917 15.7017 251.399 17.6293 245.861 19.4905C243.876 20.1552 241.885 20.9527 239.862 21.1996C234.427 21.8738 229.069 23.2317 223.691 24.5421C218.327 25.8525 212.917 26.8022 207.514 27.8183C205.247 28.2456 202.975 28.0461 200.74 27.2865C198.948 26.6787 197.142 26.3654 195.344 27.0396C192.219 28.1981 189.051 28.255 185.869 28.16C182.892 28.0745 179.973 28.3974 177.258 30.5149C175.613 31.7969 173.795 32.0344 171.964 32.0533C170.376 32.0628 168.789 32.1197 167.195 32.1197C160.389 32.1197 153.603 32.2906 146.804 33.3351C139.596 34.4461 132.323 34.7501 125.057 34.3512C122.567 34.2088 120.064 34.4178 117.567 34.4748C111.46 34.6077 105.32 34.0853 99.2894 36.1458C92.7082 36.2693 86.1209 36.4213 79.5398 36.4973C75.0008 36.5448 70.4809 36.8106 65.9548 37.6082C62.1393 38.2824 58.2469 38.349 54.3929 38.2351C46.1665 37.9882 38.1001 39.5645 30.1042 42.2898C29.003 42.6696 27.8763 43.0304 26.756 43.1443C23.9968 43.4387 21.9417 41.6914 20.6101 38.083C19.9187 36.2123 20.0981 33.8955 21.0584 32.4901C21.3784 32.0153 21.6858 31.4837 22.0699 31.1513C23.9585 29.4801 25.1043 27.3055 25.0083 23.7921C24.9443 21.5701 25.975 20.117 27.3387 19.3004C27.966 18.9301 28.6126 18.5313 29.272 18.3508C34.4064 16.9835 39.5344 15.4832 44.7007 14.4007C47.3831 13.8404 50.1357 13.9639 52.8565 13.8879C57.1714 13.7644 61.4606 13.4795 65.7563 12.6724C69.5718 11.9602 73.4516 11.9983 77.3119 11.8369C80.4937 11.7134 83.6495 11.495 86.8057 10.8113C89.4881 10.232 92.2282 10.1181 94.949 10.0611C102.67 9.89965 110.384 9.95679 118.105 9.75738C121.043 9.68142 123.982 9.17816 126.92 8.82682C128.277 8.66539 129.66 8.01008 130.973 8.24748C136.881 9.3205 142.746 7.76325 148.635 7.82972C151.83 7.8677 154.98 7.97199 157.918 10.27C159.378 11.4094 161.023 11.3905 162.572 10.6024C165.658 9.03561 168.75 8.99775 171.97 9.5485C175.575 10.1752 179.211 10.0327 182.822 9.00718C184.819 8.43744 186.868 8.23802 188.903 8.0481C190.952 7.85819 192.988 7.6587 194.915 6.5382C196.432 5.6551 197.988 5.51276 199.601 5.69318C203.922 6.18696 208.211 5.88311 212.469 4.52522C213.538 4.18338 214.774 4.15477 215.791 4.63905C216.534 4.99039 217.053 6.40532 217.648 7.31691C220.913 6.83263 224.069 6.33886 227.225 5.90206C228.832 5.68366 230.362 5.17096 231.726 3.84156L231.668 3.88885ZM178.75 15.5401C182.508 15.2648 184.761 15.2553 186.995 14.885C189.223 14.5241 191.432 13.8499 193.628 13.1852C193.89 13.1092 194.242 12.1596 194.198 11.7038C194.146 11.2195 193.718 10.593 193.372 10.4315C191.599 9.61491 189.806 10.0707 188.02 10.4601C186.24 10.8494 184.46 11.666 182.687 11.6375C177.021 11.5521 171.496 13.1948 165.92 14.1918C165.562 14.2583 165.204 14.7426 164.903 15.1224C164.615 15.4832 165.581 16.5373 166.33 16.8317C167.924 17.4679 169.467 17.259 170.959 16.3569C172.886 15.1984 174.832 14.752 176.9 15.3313C178.001 15.6446 179.14 15.5781 178.75 15.5401ZM174.896 25.1975C180.241 26.1375 185.626 26.3748 191.003 25.5487C191.618 25.4537 192.194 24.7417 192.77 24.2574C193.295 23.8111 193.231 22.0733 192.681 21.5985C192.303 21.2757 191.912 20.9147 191.496 20.7628C191.067 20.6014 190.568 20.4685 190.164 20.649C185.197 22.9184 180.088 23.906 174.896 25.1975ZM155.21 14.0115C153.546 14.1349 152.201 14.1918 150.863 14.3627C150.434 14.4196 150.012 14.7142 149.615 14.9895C149.455 15.1035 149.237 15.5403 149.275 15.7017C149.404 16.243 149.576 17.0594 149.845 17.1734C152.752 18.3698 155.588 16.7746 158.462 16.5372C158.609 16.5277 158.891 15.9961 158.859 15.9011C158.68 15.4073 158.469 14.6475 158.193 14.562C157.112 14.2392 155.997 14.1444 155.21 14.0115ZM206.803 11.7894C207.648 11.5425 208.122 11.5519 208.487 11.2576C208.82 11.0012 209.236 10.4411 209.255 9.97577C209.274 9.51997 208.909 8.73186 208.608 8.58943C206.912 7.78229 205.164 7.76329 203.423 8.34253C203.231 8.409 202.917 8.78871 202.936 8.93114C203.026 9.51038 203.147 10.4314 203.397 10.5454C204.639 11.1246 205.92 11.4855 206.803 11.7894ZM156.542 26.897C156.542 26.8685 156.542 26.8402 156.542 26.8117C157.214 26.8117 157.899 26.8971 158.565 26.7832C159.109 26.6882 159.301 26.0805 159.083 25.3873C159 25.1214 158.782 24.8744 158.597 24.7795C157.483 24.2477 156.35 24.2954 155.287 24.9601C154.999 25.1405 154.858 25.8812 154.698 26.4034C154.685 26.4414 155.012 26.8402 155.197 26.8782C155.639 26.9447 156.094 26.897 156.542 26.897ZM127.567 29.7742C128.105 29.7742 128.565 29.9166 128.956 29.7362C129.302 29.5748 129.564 29.0622 129.865 28.7013C129.615 28.2455 129.398 27.4668 129.103 27.3813C128.297 27.1534 127.439 27.1155 126.619 27.2485C126.395 27.2864 126.19 28.1506 126.069 28.6823C126.037 28.8248 126.28 29.252 126.447 29.347C126.837 29.5559 127.266 29.6603 127.567 29.7742ZM91.1654 28.8152C90.7365 28.8721 90.2565 28.7676 89.8916 29.024C89.5587 29.2519 89.168 29.8218 89.1104 30.3156C89.0336 31.0182 89.4689 31.4171 90.0066 31.2841C90.4292 31.1797 90.8518 30.9992 91.2551 30.7808C91.7673 30.496 91.9467 29.9261 91.7034 29.2804C91.6138 29.043 91.3447 28.9671 91.1654 28.8152ZM44.8926 33.0219C45.2447 33.2688 45.5904 33.6961 45.9489 33.7151C46.5442 33.7436 47.1461 33.5156 47.7478 33.3922C46.8068 32.6705 45.8785 32.0819 44.8926 33.0219ZM116.703 17.3825C116.895 17.4395 117.112 17.6008 117.304 17.5343C117.484 17.4774 117.625 17.1924 117.785 17.012C117.631 16.8221 117.497 16.5277 117.324 16.4612C117.138 16.3947 116.876 16.4518 116.722 16.6133C116.632 16.6987 116.703 17.1071 116.703 17.3825ZM79.5141 31.3317L79.9493 31.1606L79.6292 30.7998L79.5141 31.3317ZM207.558 18.9302L207.962 19.3004L208.019 18.7023L207.558 18.9302Z" fill="#EB539F"/>
<path d="M220.772 572.048C225.561 573.282 230.26 572.066 234.965 570.917C238.313 570.1 241.546 568.306 244.991 568.411C245.183 568.42 245.42 568.648 245.535 568.885C245.644 569.113 245.714 569.569 245.631 569.778C244.914 571.516 244.088 573.196 242.718 573.804C240.759 574.658 238.781 575.418 236.777 576.016C234.555 576.672 232.34 577.279 230.272 578.666C230.593 580.119 231.329 579.796 231.956 579.843C233.045 579.929 234.165 578.951 235.215 580.014C235.324 580.128 235.362 580.755 235.292 580.831C234.76 581.382 234.222 582.132 233.621 582.303C229.171 583.613 224.728 585.085 220.241 585.968C214.85 587.022 209.485 588.703 203.999 588.304C197.29 590.269 190.446 589.947 183.673 590.82C182.322 590.991 180.965 591.001 179.608 591.02C178.475 591.029 177.297 590.621 176.221 590.953C171.734 592.33 167.188 592.093 162.656 592.473C160.409 592.663 158.187 593.527 155.953 594.115C153.27 594.828 150.627 595.312 147.842 594.818C144.698 594.258 141.491 594.343 138.316 594.438C136.286 594.495 134.238 594.847 132.24 595.435C127.112 596.936 122.01 598.607 116.735 598.379C116.511 598.37 116.274 598.379 116.056 598.455C109.129 600.838 102.036 599.936 95.0323 600.791C93.6943 600.952 92.318 600.715 90.9736 600.525C90.5895 600.468 90.2372 599.917 89.8723 599.594C90.1092 599.158 90.2823 598.474 90.5832 598.312C93.1695 596.926 95.8518 596.404 98.6046 596.299C100.141 596.242 101.786 596.841 103.201 595.293C102.817 595.008 102.433 594.486 102.062 594.505C98.8862 594.638 95.6791 594.495 92.555 595.169C89.1684 595.9 85.7945 596.252 82.3823 596.328C77.8433 596.423 73.3299 596.879 68.8101 597.752C64.7769 598.531 60.6606 598.351 56.5762 598.464C52.2613 598.588 47.9143 598.066 43.6442 598.74C36.4101 599.889 29.1888 600.753 21.9162 600.715C19.5923 600.706 17.5118 602.206 15.3096 602.937C14.2853 603.269 12.8703 601.674 12.8767 600.174C12.8831 598.835 12.9538 597.496 12.9986 596.157C13.2803 587.164 16.8972 583.917 22.0444 582.388C23.3632 581.999 24.7589 582.17 26.1225 582.027C29.7395 581.638 33.3566 581.182 36.9801 580.802C39.2463 580.574 41.5124 580.365 43.7786 580.29C48.3176 580.138 52.8631 580.175 57.4021 579.938C60.3469 579.786 63.279 579.245 66.2175 578.932C69.3864 578.59 72.5554 578.343 75.7244 578.001C78.8933 577.669 82.0557 577.251 85.2247 576.928C88.6177 576.586 92.0171 576.197 95.4165 576.045C99.0527 575.884 102.657 575.58 106.268 574.81C109.622 574.098 113.054 574.051 116.453 573.965C119.865 573.88 123.226 573.348 126.613 572.854C134.058 571.781 141.459 569.797 148.981 570.034C152.163 570.139 155.338 569.92 158.475 568.952C158.917 568.809 159.372 568.648 159.82 568.648C168.904 568.534 177.867 565.638 186.964 566.046C195.632 566.435 204.185 564.812 212.718 562.913C218.141 561.697 223.582 561.839 229.03 562.048C230.368 562.096 231.297 563.093 231.085 564.023C230.842 565.096 230.272 565.533 229.632 565.799C228.755 566.16 227.853 566.369 226.982 566.73C225.676 567.281 224.37 567.86 223.09 568.543C221.95 569.151 221.329 570.585 220.823 572.123C220.638 572.313 220.459 572.494 220.273 572.684C220.439 572.484 220.606 572.266 220.772 572.048ZM164.864 588.219C165.268 588.181 165.677 588.162 166.081 588.095C166.682 588 166.849 587.611 166.484 587.136C166.388 587.012 166.074 587.126 165.914 587.259C165.569 587.563 165.248 587.943 164.922 588.295L164.864 588.219ZM144.436 590.317C140.671 590.412 136.901 590.478 133.136 590.64C132.522 590.668 132.394 591.257 132.938 592.083C135.364 592.548 138.015 592.558 140.64 592.055C141.92 591.808 143.143 590.858 144.391 590.222C146.177 590.364 147.963 590.526 149.749 590.621C149.922 590.63 150.198 590.298 150.255 590.032C150.428 589.263 150.165 588.798 149.596 588.665C147.739 588.266 146.017 588.798 144.436 590.317ZM99.4495 586.272C96.8248 585.237 94.2064 584.145 91.4472 584.477C90.5509 584.582 89.642 584.734 88.7842 585.085C88.4385 585.228 88.0352 585.939 87.9839 586.462C87.9519 586.794 88.528 587.62 88.8161 587.601C91.2872 587.412 93.7457 587.25 96.2361 587.554C97.2604 587.677 98.3487 586.652 99.4114 586.158C101.089 587.203 102.779 587.696 104.526 586.5C105.026 586.158 105.25 585.674 105.026 585.009C104.949 584.772 104.674 584.601 104.475 584.544C102.638 584.088 100.973 584.762 99.4495 586.272ZM148.418 582.341C148.418 582.189 148.418 582.046 148.418 581.894C150.223 581.894 152.035 581.932 153.84 581.885C157.694 581.8 161.452 580.745 165.165 579.302C165.338 579.235 165.601 578.77 165.569 578.599C165.453 578.02 165.312 577.165 165.024 576.985C162.617 575.542 160.082 576.007 157.682 576.719C153.437 577.973 149.173 578.333 144.871 578.238C144.199 578.229 143.514 578.352 142.855 578.533C142.419 578.647 141.952 578.865 141.613 579.264C141.305 579.625 140.96 580.299 140.979 580.802C140.998 581.334 141.427 582.255 141.696 582.265C143.93 582.398 146.171 582.341 148.418 582.341ZM192.271 576.349C190.299 576.036 189.211 575.94 188.141 575.684C187.047 575.418 185.978 574.848 184.877 574.715C183.795 574.573 182.674 574.716 181.592 574.944C181.285 575.01 180.844 575.77 180.824 576.235C180.805 576.691 181.24 577.574 181.503 577.602C183.494 577.811 185.491 577.935 187.482 577.925C188.795 577.916 190.152 578.239 192.271 576.349ZM175.895 576.254C175.549 575.884 175.107 575.105 174.576 574.925C173.584 574.592 172.783 575.494 172.623 576.776C172.463 578.02 173.283 579.15 174.243 579.017C175.235 578.884 175.946 577.868 175.895 576.254ZM202.322 575.912C204.377 575.912 205.055 575.997 205.721 575.883C206.118 575.817 206.489 575.437 206.874 575.2C206.528 574.868 206.201 574.279 205.843 574.231C203.852 573.975 201.848 573.842 199.851 573.709C199.735 573.7 199.518 574.165 199.511 574.421C199.499 574.697 199.646 575.209 199.774 575.247C201.061 575.637 202.373 575.931 202.322 575.912ZM122.445 593.232C117.638 592.178 117.637 592.178 115.947 594.039C118.124 594.182 120.045 594.372 121.965 593.84C122.132 593.792 122.266 593.46 122.445 593.232ZM190.261 586.054C191.65 586.054 192.104 586.168 192.508 586.016C192.86 585.892 193.161 585.465 193.481 585.17C193.11 584.914 192.757 584.506 192.373 584.43C191.74 584.297 191.074 584.268 190.44 584.401C190.107 584.468 189.806 584.962 189.493 585.266C189.851 585.531 190.203 585.845 190.574 586.054C190.773 586.168 191.01 586.111 190.261 586.054ZM116.684 584.601C116.607 584.306 116.581 583.898 116.44 583.746C115.614 582.891 114.936 583.005 114.02 584.164C113.892 584.325 113.803 584.895 113.886 585.056C114.36 585.959 115.07 585.997 115.723 585.74C116.082 585.588 116.364 584.999 116.684 584.601ZM128.367 582.493C127.791 582.16 127.228 581.676 126.626 581.543C126.28 581.467 125.883 581.961 125.512 582.198C125.762 582.654 125.973 583.414 126.274 583.509C126.876 583.689 127.535 583.537 128.162 583.442C128.226 583.423 128.271 582.939 128.367 582.493ZM203.064 582.388C202.827 582.417 202.616 582.445 202.399 582.464C201.835 582.502 201.56 582.873 201.695 583.528C201.739 583.746 202.014 583.908 202.2 584.003C202.398 584.107 202.636 584.192 202.828 584.126C203.417 583.917 203.993 583.623 204.575 583.366C204.313 582.179 203.615 582.502 203.064 582.388ZM175.229 588.085C175.69 588.085 176.132 588.133 176.567 588.076C177.137 588 177.387 587.544 177.194 586.918C177.124 586.69 176.855 586.5 176.657 586.462C176.221 586.367 175.767 586.272 175.344 586.386C174.947 586.5 174.582 586.889 174.211 587.155C174.557 587.468 174.902 587.782 175.229 588.085ZM213.5 572.75C213.711 572.066 213.602 571.449 213.109 571.202C212.731 571.012 212.226 570.879 211.905 571.107C211.476 571.411 211.483 572.152 211.841 572.693C212.385 573.529 213.116 573.529 213.5 572.75ZM221.143 581.22C220.791 580.973 220.439 580.537 220.087 580.537C219.735 580.537 219.383 580.983 219.031 581.23C219.376 581.477 219.729 581.932 220.074 581.923C220.433 581.923 220.785 581.476 221.143 581.22ZM135.908 578.362C136.056 578.467 136.229 578.685 136.337 578.638C136.44 578.59 136.485 578.239 136.549 578.03C136.401 577.925 136.229 577.707 136.12 577.764C136.017 577.811 135.979 578.144 135.908 578.362ZM82.3885 589.529L82.6383 588.997L82.1453 588.988L82.3885 589.529Z" fill="#EB539F"/>
<path d="M263.556 497.002C264.42 495.692 264.171 494.296 264.177 493.024C264.26 466.075 264.324 439.117 264.382 412.168C264.401 404.087 264.126 395.996 265.028 387.963C265.246 386.007 265.233 383.908 265.016 381.943C264.503 377.233 264.529 372.58 264.932 367.851C265.131 365.544 264.856 363.151 264.901 360.805C264.939 358.773 265.24 356.77 266.091 355.108C266.309 354.681 266.866 354.329 267.205 354.424C267.557 354.529 268.044 355.155 268.102 355.659C268.716 360.634 269.062 365.648 268.722 370.719C268.428 375.096 268.594 379.445 268.825 383.832C269.03 387.83 268.767 391.885 268.915 395.901C269.062 399.928 269.651 403.925 269.689 407.942C269.753 414.333 269.523 420.733 269.427 427.124C269.395 429.478 269.369 431.843 269.408 434.198C269.529 442.278 269.766 450.36 269.804 458.44C269.887 475.96 269.804 493.48 269.939 510.999C270.003 519.479 269.35 527.816 268.351 536.106C267.339 544.462 265.016 552.173 262.66 559.845C262.173 561.431 261.296 562.732 260.163 563.055C257.73 563.758 255.253 564.194 252.788 564.603C252.525 564.65 251.949 563.777 251.924 563.292C251.706 558.269 251.514 553.236 252.289 548.251C253.211 542.345 253.985 536.381 254.984 530.513C255.88 525.243 256.258 519.916 256.251 514.503C256.245 507.087 256.226 499.681 256.303 492.264C256.348 487.554 256.584 482.854 256.674 478.153C256.719 475.808 256.764 473.434 256.597 471.108C256.309 467.053 256.252 463.046 256.885 459.048C257.366 456.01 257.289 453.009 256.341 450.17C255.195 446.742 254.984 443.095 254.978 439.354C254.971 426.554 254.958 413.744 254.888 400.944C254.856 395.503 255.477 390.213 256.341 384.962C256.725 382.617 256.937 380.367 255.861 378.221C255.01 376.521 254.958 374.441 254.952 372.409C254.939 367.015 254.997 361.631 254.965 356.238C254.939 352.05 255.56 348.271 257.532 345.061C258.351 343.732 258.377 341.985 257.743 340.361C257.404 339.487 256.994 338.68 256.616 337.835C255.701 335.803 255.336 333.562 255.406 331.122C255.573 325.073 255.759 319.014 255.874 312.966C256.027 304.885 256.143 296.813 256.226 288.732C256.303 281.326 256.283 273.948 257.116 266.57C257.634 261.955 257.449 257.169 257.564 252.459C257.73 245.745 257.276 238.994 258.095 232.318C258.146 231.882 258.812 231.179 259.049 231.293C260.854 232.119 262.487 233.686 262.826 236.506C263.614 243.096 264.663 249.639 263.575 256.514C262.961 260.388 263.069 264.537 263.031 268.573C262.986 273.634 262.788 278.639 262.327 283.671C261.405 293.718 261.668 303.84 262.033 313.934C262.154 317.305 262.18 320.629 262.033 324C261.757 330.381 261.693 336.79 261.667 343.181C261.623 352.952 261.687 362.723 261.693 372.495C261.693 375.191 261.757 377.898 261.61 380.575C261.277 386.624 261.034 392.625 261.559 398.703C261.936 403.09 261.258 407.277 260.061 411.465C258.518 416.877 258.287 422.584 260.521 427.921C261.27 429.706 261.604 431.615 261.636 433.666C261.68 436.363 261.655 439.06 261.7 441.747C261.802 447.805 261.661 453.864 262.416 459.884C262.698 462.144 262.577 464.594 262.346 466.892C261.77 472.618 261.834 478.277 262.474 483.984C262.846 487.288 262.877 490.678 263.108 494.03C263.165 494.999 263.383 495.91 263.556 497.002ZM258.678 294.791C258.537 294.563 258.403 294.326 258.262 294.098C258.127 294.335 257.897 294.554 257.871 294.819C257.775 295.769 258.05 296.13 258.55 295.721C258.671 295.617 258.639 295.114 258.678 294.791ZM260.496 266.285L260.054 266.759L260.528 267.101L260.496 266.285Z" fill="#EB539F"/>
<path d="M258.524 210.763C258.71 204.002 258.876 197.298 259.081 190.604C259.132 188.932 259.312 187.261 259.446 185.59C259.76 181.592 260.105 177.595 260.4 173.587C260.534 171.745 260.989 170.416 262.359 170.131C263.364 169.922 263.959 168.972 264.241 167.576C264.439 166.608 264.612 165.639 264.785 164.661C265.22 162.221 265.048 159.875 263.774 158.119C260.297 153.314 260.925 152.032 262.634 146.705C263.313 144.587 264.113 142.555 264.779 140.685C264.887 137.37 263.377 134.75 263.85 131.531C264.011 130.467 263.377 129.014 262.922 127.913C262.276 126.365 262.167 124.789 262.391 123.089C263.306 116.166 264.452 109.301 264.535 102.17C264.548 100.964 265.022 99.416 265.637 98.6564C266.955 97.0136 267.506 95.1144 267.769 92.6455C268.3 87.6412 268.626 82.6466 268.537 77.5854C268.421 71.1853 268.633 64.861 269.35 58.4989C269.907 53.5611 269.766 48.4525 269.958 43.4198C269.971 43.1444 270.188 42.679 270.342 42.6505C270.886 42.5461 271.149 43.0304 271.277 43.828C272.621 52.4406 273.037 61.0344 271.789 69.8179C271.232 73.7112 271.258 77.8323 271.251 81.849C271.245 88.2491 271.245 94.6208 270.297 100.926C270.003 102.882 269.996 104.933 269.894 106.937C269.83 108.276 269.9 109.633 269.804 110.972C269.369 116.983 268.684 122.965 268.498 128.986C268.325 134.702 268.153 140.362 267.596 146.05C267.109 151.007 267.18 156.106 267.128 161.148C267.064 167.538 267.103 173.92 266.187 180.225C265.861 182.504 265.899 184.906 265.797 187.252C265.707 189.265 265.778 191.316 265.541 193.291C264.753 199.938 264.414 206.632 264.395 213.365C264.395 214.352 264.247 215.388 264.011 216.309C263.87 216.859 263.454 217.287 263.102 217.647C262.973 217.78 262.589 217.657 262.468 217.458C261.13 215.236 259.817 212.976 258.524 210.763Z" fill="#EB539F"/>
<path d="M265.777 322.347C265.867 314.21 265.771 306.812 266.847 299.51C267.231 296.927 267.103 294.155 267.116 291.467C267.16 284.07 267.199 276.673 267.167 269.276C267.135 262.876 267.256 256.533 268.108 250.208C268.594 246.61 268.505 242.849 268.703 239.165C268.742 238.5 268.818 237.788 269.03 237.228C269.222 236.715 269.6 236.088 269.932 236.031C270.227 235.984 270.835 236.62 270.86 237.009C271.315 243.704 271.648 250.379 270.182 256.969C269.766 258.83 269.625 260.929 269.67 262.895C269.766 266.607 269.715 270.263 269.427 273.967C269.247 276.274 269.375 278.658 269.523 280.984C269.881 286.7 269.907 292.388 269.343 298.086C269.145 300.061 268.966 302.141 269.158 304.087C269.516 307.81 269.51 311.427 268.908 315.083C268.473 317.742 268.735 320.439 269.119 323.088C269.702 327.067 269.823 331.084 269.631 335.129C269.587 336.116 269.44 337.132 269.183 338.044C269.03 338.595 268.556 339.345 268.255 339.316C267.647 339.259 266.924 338.955 266.501 338.357C265.65 337.142 265.425 335.404 265.457 333.704C265.541 329.659 265.681 325.624 265.777 322.347Z" fill="#EB539F"/>
<path d="M34.624 602.69C36.423 602.604 38.2218 602.51 40.0144 602.453C44.0924 602.31 48.1576 602.073 52.2036 601.019C55.3277 600.202 58.5095 599.955 61.6721 600.848C62.4595 601.066 63.1637 602.073 62.9653 602.776C62.6644 603.82 62.0434 604.095 61.3904 604.228C60.7182 604.361 60.0397 604.418 59.3611 604.456C58.2279 604.504 57.0947 604.504 55.9616 604.533C55.283 604.552 54.5979 604.504 53.9257 604.599C50.5711 605.074 47.3127 606.735 43.8236 605.624C40.7635 604.656 37.6073 604.371 34.4896 603.782C34.5344 603.412 34.5792 603.051 34.624 602.69Z" fill="#EB539F"/>
<path d="M269.657 184.242C269.785 183.112 269.868 181.079 270.265 179.19C270.675 177.234 271.712 175.885 273.005 175.107C273.12 175.031 273.492 175.353 273.518 175.562C273.639 176.531 273.812 177.538 273.741 178.487C273.46 182.076 272.307 185.457 272.551 189.189C272.564 189.388 272.243 189.815 272.083 189.815C271.654 189.815 271.11 189.844 270.816 189.493C269.753 188.23 269.503 187.119 269.657 184.242Z" fill="#EB539F"/>
<path d="M275.579 143.809C275.348 146.439 275.124 149.079 274.862 151.709C274.842 151.909 274.51 152.155 274.324 152.155C274.157 152.155 273.844 151.842 273.844 151.662C273.754 146.363 273.677 141.055 273.677 135.756C273.677 135.462 274.407 134.93 274.785 134.959C275.169 134.987 275.649 135.452 275.867 135.946C276.091 136.449 276.155 137.228 276.104 137.855C275.937 139.839 275.681 141.815 275.464 143.79C275.502 143.79 275.54 143.799 275.579 143.809Z" fill="#EB539F"/>
<path d="M81.4538 600.269C78.5793 601.607 75.6474 602.918 72.4849 601.93C72.3376 601.883 72.1454 601.475 72.1454 601.237C72.139 600.952 72.2734 600.516 72.427 600.402C75.3271 598.303 78.3426 597.923 81.4475 599.148C81.4923 599.157 81.4538 599.642 81.4538 600.269Z" fill="#EB539F"/>
<path d="M8.13929 120.706C8.22252 120.05 8.24824 119.367 8.41468 118.759C8.60674 118.018 9.03563 117.809 9.49657 118.142C9.67582 118.275 9.91903 118.617 9.91263 118.854C9.86141 120.155 9.80383 121.456 9.63098 122.728C9.52855 123.526 9.08038 123.811 8.63225 123.488C8.4658 123.365 8.31868 122.994 8.28027 122.7C8.19064 122.035 8.1841 121.37 8.13929 120.706Z" fill="#EB539F"/>
<path d="M270.451 196.548C270.31 197.032 270.163 197.517 270.022 197.991C269.76 197.65 269.465 197.336 269.248 196.937C269.196 196.842 269.356 196.358 269.497 196.197C269.894 195.722 270.227 195.874 270.451 196.548Z" fill="#EB539F"/>
<path d="M8.82463 78.1363C8.97188 78.668 9.24052 79.2092 9.22131 79.722C9.20211 80.2158 8.88838 80.6811 8.70272 81.1653C8.55548 80.6336 8.29324 80.1019 8.30604 79.5796C8.32525 79.0859 8.63898 78.6111 8.82463 78.1363Z" fill="#EB539F"/>
<path d="M276.597 90.3096L277 90.851L276.507 91.0978L276.597 90.3096Z" fill="#EB539F"/>
<path d="M8.79879 101.857C8.66435 101.619 8.45943 101.41 8.41461 101.144C8.3698 100.86 8.40176 100.328 8.5234 100.233C9.01634 99.8245 9.28508 100.195 9.18265 101.135C9.15064 101.391 8.92683 101.61 8.79879 101.857Z" fill="#EB539F"/>
<path d="M271.616 205.398C271.802 205.398 272.083 205.293 272.141 205.417C272.25 205.645 272.314 206.063 272.25 206.319C272.013 207.259 271.712 207.25 271.501 206.291C271.449 206.034 271.578 205.683 271.616 205.398Z" fill="#EB539F"/>
<path d="M266.879 76.8447C266.795 77.0821 266.738 77.4904 266.616 77.5379C266.162 77.7278 265.938 77.348 266.027 76.5693C266.059 76.3129 266.162 75.9236 266.283 75.8762C266.738 75.6767 266.943 76.0566 266.879 76.8447Z" fill="#EB539F"/>
<path d="M5.88581 113.812L6.27655 113.992L6.00741 114.486L5.88581 113.812Z" fill="#EB539F"/>
<path d="M274.843 102.16L274.439 101.98L274.714 101.486L274.843 102.16Z" fill="#EB539F"/>
<path d="M266.245 65.5164L266.584 65.1935L266.578 65.8581L266.245 65.5164Z" fill="#EB539F"/>
<path d="M275.784 128.426L275.944 127.742L276.2 128.293L275.784 128.426Z" fill="#EB539F"/>
</svg>
