<svg width="640" height="199" viewBox="0 0 640 199" fill="none" xmlns="http://www.w3.org/2000/svg">
<g clip-path="url(#clip0_58_41)">
<path d="M-161 -29.5C16.5 -6.5 -10.1471 191.982 89 170C105.088 166.433 126 95.4999 184 95.4999C246.163 95.4999 240 156.5 303 156.5C366 156.5 330 106.5 373.5 95.4999C417 84.4999 388 136.5 417 136.5C446 136.5 441.5 78.4999 487 78.4999C532.5 78.4999 501.5 170 571 170C617.5 170 599.381 92.3707 617.5 70.9999C637 47.9999 714 57.9999 697.5 119C681 180 791 212 817.5 156.5C844 101 826.5 84.4999 869.5 95.4999C903.9 104.3 917.167 67.4999 919.5 47.9999" stroke="#EB539F"/>
<path d="M31.5 183.5C51.6667 192.333 97.3 200.3 118.5 161.5M175.5 114.5C187.333 111.5 214.8 111.1 230 133.5M330 169C336.5 168.833 350.1 165 352.5 151M416.5 149C422.333 151.667 436.8 151.1 448 127.5C462 97.9999 470 95.9999 477 95.9999M589.5 183C594.833 184.5 606.9 180.2 612.5 151M644.5 79.4999C660.333 76.3333 691.4 78.0999 689 110.5M775.5 208.5C785 209.5 806.7 205.8 817.5 183" stroke="#2E2E2E" stroke-width="4" stroke-linecap="round"/>
</g>
<defs>
<clipPath id="clip0_58_41">
<rect width="640" height="199" fill="white"/>
</clipPath>
</defs>
</svg>
