<svg width="1642" height="340" viewBox="0 0 1642 340" fill="none" xmlns="http://www.w3.org/2000/svg">
<path d="M1 3.5C178.5 26.5 151.853 224.982 251 203C267.088 199.433 288 128.5 346 128.5C408.163 128.5 402 189.5 465 189.5C528 189.5 492 139.5 535.5 128.5C579 117.5 550 169.5 579 169.5C608 169.5 603.5 111.5 649 111.5C694.5 111.5 663.5 203 733 203C779.5 203 761.381 125.371 779.5 104C799 80.9999 876 90.9999 859.5 152C843 213 953 245 979.5 189.5C1006 134 988.5 117.5 1031.5 128.5C1065.9 137.3 1079.17 100.5 1081.5 80.9999" stroke="#EB539F"/>
<path d="M986.277 191.397C946.5 173 949.5 77.5 920 10.5L916 0.5H1641.5C1619.89 41.8518 1622.16 63.643 1625.48 95.4552L1625.5 95.6941C1672.5 373.969 1451.75 380.296 1451.75 238.496C1451.75 96.6962 1374.93 90.1824 1345.94 95.6941C1316.94 101.206 1335.26 175.363 1293.54 175.363C1251.83 175.363 1271.16 95.6941 1245.72 95.6941C1220.29 95.6941 1240 123 1208.5 123C1181 123 1192.5 101.206 1178.06 101.206C1154.13 101.206 1161.78 156.322 1134.82 156.322C1107.86 156.322 1111.93 117.24 1084.97 119.244C1058.01 121.248 1063.87 227.282 986.277 191.397Z" fill="#F8F8F8"/>
<path d="M193.5 216.5C213.667 225.333 259.3 233.3 280.5 194.5M337.5 147.5C349.333 144.5 376.8 144.1 392 166.5M492 202C498.5 201.833 512.1 198 514.5 184M578.5 182C584.333 184.667 598.8 184.1 610 160.5C624 131 632 129 639 129M751.5 216C756.833 217.5 768.9 213.2 774.5 184M806.5 112.5C822.333 109.333 853.4 111.1 851 143.5M937.5 241.5C947 242.5 968.7 238.8 979.5 216" stroke="#2E2E2E" stroke-width="4" stroke-linecap="round"/>
<path d="M1037 206.5C1046.33 205.667 1065.6 198.4 1068 176C1071 148 1075 130.5 1089 131M1181 119C1183.33 123 1192.6 131 1211 131C1229.4 131 1234.33 123 1234.5 119M1307.5 187C1312.67 188 1324.6 184.5 1331 162.5M1398.5 123C1409.5 130 1431.9 154.3 1433.5 195.5C1435.5 247 1435 302.5 1468 325M1571.5 338C1577.5 334 1590.6 323.6 1595 314" stroke="#2E2E2E" stroke-width="4" stroke-linecap="round"/>
<path d="M971 135.5C973.167 153.333 987.1 188 1025.5 184M1129.5 145C1134.67 148.333 1145.8 149.1 1149 125.5M1196 105.5C1198.83 110.167 1206.9 117.5 1216.5 109.5M1270 118C1271.5 133.167 1277.7 163.6 1290.5 164M1478 209.5C1478 265 1503.5 324 1542.5 308" stroke="#FFB4D9" stroke-width="4" stroke-linecap="round"/>
</svg>
