<svg width="1515" height="340" viewBox="0 0 1515 340" fill="none" xmlns="http://www.w3.org/2000/svg">
<path d="M1 2C43.5 116.5 24.8529 220.982 124 199C140.088 195.433 161 124.5 219 124.5C281.163 124.5 275 185.5 338 185.5C401 185.5 365 135.5 408.5 124.5C452 113.5 423 165.5 452 165.5C481 165.5 476.5 107.5 522 107.5C567.5 107.5 536.5 199 606 199C652.5 199 634.381 121.371 652.5 99.9999C672 76.9999 749 86.9999 732.5 148C716 209 826 241 852.5 185.5C879 130 861.5 113.5 904.5 124.5C938.9 133.3 952.167 96.4999 954.5 76.9999" stroke="#EB539F"/>
<path d="M859.277 191.397C819.5 173 822.5 77.5 793 10.5L789 0.5H1514.5C1492.89 41.8518 1495.16 63.643 1498.48 95.4552L1498.5 95.6941C1545.5 373.969 1324.75 380.296 1324.75 238.496C1324.75 96.6962 1247.93 90.1824 1218.94 95.6941C1189.94 101.206 1208.26 175.363 1166.54 175.363C1124.83 175.363 1144.16 95.6941 1118.72 95.6941C1093.29 95.6941 1113 123 1081.5 123C1054 123 1065.5 101.206 1051.06 101.206C1027.13 101.206 1034.78 156.322 1007.82 156.322C980.86 156.322 984.93 117.24 957.968 119.244C931.006 121.248 936.868 227.282 859.277 191.397Z" fill="#F8F8F8"/>
<path d="M66.5 216.5C86.6667 225.333 132.3 233.3 153.5 194.5M210.5 147.5C222.333 144.5 249.8 144.1 265 166.5M365 202C371.5 201.833 385.1 198 387.5 184M451.5 182C457.333 184.667 471.8 184.1 483 160.5C497 131 505 129 512 129M624.5 216C629.833 217.5 641.9 213.2 647.5 184M679.5 112.5C695.333 109.333 726.4 111.1 724 143.5M810.5 241.5C820 242.5 841.7 238.8 852.5 216" stroke="#2E2E2E" stroke-width="4" stroke-linecap="round"/>
<path d="M910 206.5C919.333 205.667 938.6 198.4 941 176C944 148 948 130.5 962 131M1054 119C1056.33 123 1065.6 131 1084 131C1102.4 131 1107.33 123 1107.5 119M1180.5 187C1185.67 188 1197.6 184.5 1204 162.5M1271.5 123C1282.5 130 1304.9 154.3 1306.5 195.5C1308.5 247 1308 302.5 1341 325M1444.5 338C1450.5 334 1463.6 323.6 1468 314" stroke="#2E2E2E" stroke-width="4" stroke-linecap="round"/>
<path d="M844 135.5C846.167 153.333 860.1 188 898.5 184M1002.5 145C1007.67 148.333 1018.8 149.1 1022 125.5M1069 105.5C1071.83 110.167 1079.9 117.5 1089.5 109.5M1143 118C1144.5 133.167 1150.7 163.6 1163.5 164M1351 209.5C1351 265 1376.5 324 1415.5 308" stroke="#FFB4D9" stroke-width="4" stroke-linecap="round"/>
</svg>
