<svg width="640" height="140" viewBox="0 0 640 140" fill="none" xmlns="http://www.w3.org/2000/svg">
<g clip-path="url(#clip0_58_41)">
<path d="M-161 -88.5C16.5 -65.5 -10.1471 132.982 89 111C105.088 107.433 126 36.4999 184 36.4999C246.163 36.4999 240 97.4999 303 97.4999C366 97.4999 330 47.4999 373.5 36.4999C417 25.4999 388 77.4999 417 77.4999C446 77.4999 441.5 19.4999 487 19.4999C532.5 19.4999 501.5 111 571 111C617.5 111 599.381 33.3707 617.5 11.9999C637 -11.0001 714 -1.00012 697.5 59.9999C681 121 791 153 817.5 97.4999C844 41.9999 826.5 25.4999 869.5 36.4999C903.9 45.2999 917.167 8.49989 919.5 -11.0001" stroke="#EB539F"/>
<path d="M31.5 124.5C51.6667 133.333 97.3 141.3 118.5 102.5M175.5 55.4998C187.333 52.4998 214.8 52.0998 230 74.4998M330 110C336.5 109.833 350.1 106 352.5 91.9999M416.5 89.9999C422.333 92.6666 436.8 92.0999 448 68.4999C462 38.9999 470 36.9999 477 36.9999M589.5 124C594.833 125.5 606.9 121.2 612.5 91.9999M644.5 20.4999C660.333 17.3333 691.4 19.0999 689 51.4999M775.5 149.5C785 150.5 806.7 146.8 817.5 124" stroke="#2E2E2E" stroke-width="4" stroke-linecap="round"/>
</g>
<defs>
<clipPath id="clip0_58_41">
<rect width="640" height="140" fill="white"/>
</clipPath>
</defs>
</svg>
