<svg width="450" height="128" viewBox="0 0 450 128" fill="none" xmlns="http://www.w3.org/2000/svg">
<g clip-path="url(#clip0_58_41)">
<path d="M-324 -86.5C-146.5 -63.5 -173.147 134.982 -74 113C-57.9123 109.433 -36.9999 38.4999 21.0001 38.4999C83.1632 38.4999 77.0001 99.4999 140 99.4999C203 99.4999 167 49.4999 210.5 38.4999C254 27.4999 225 79.4999 254 79.4999C283 79.4999 278.5 21.4999 324 21.4999C369.5 21.4999 338.5 113 408 113C454.5 113 436.381 35.3707 454.5 13.9999C474 -9.00011 551 0.999878 534.5 61.9999C518 123 628 155 654.5 99.4999C681 43.9999 663.5 27.4999 706.5 38.4999C740.9 47.2999 754.167 10.4999 756.5 -9.00011" stroke="#EB539F"/>
<path d="M-131.5 126.5C-111.333 135.333 -65.7 143.3 -44.5 104.5M12.5 57.4998C24.3333 54.4998 51.8 54.0998 67 76.4998M167 112C173.5 111.833 187.1 108 189.5 93.9999M253.5 91.9999C259.333 94.6666 273.8 94.0999 285 70.4999C299 40.9999 307 38.9999 314 38.9999M426.5 126C431.833 127.5 443.9 123.2 449.5 93.9999M481.5 22.4999C497.333 19.3333 528.4 21.0999 526 53.4999M612.5 151.5C622 152.5 643.7 148.8 654.5 126" stroke="#2E2E2E" stroke-width="4" stroke-linecap="round"/>
</g>
<defs>
<clipPath id="clip0_58_41">
<rect width="450" height="128" fill="white"/>
</clipPath>
</defs>
</svg>
