<svg width="1481" height="340" viewBox="0 0 1481 340" fill="none" xmlns="http://www.w3.org/2000/svg">
<path d="M1 172.5C24.1667 201.5 78.3 207.3 109.5 172.5C120.5 160.231 127 131.5 185 131.5C247.163 131.5 241 192.5 304 192.5C367 192.5 331 142.5 374.5 131.5C418 120.5 389 172.5 418 172.5C447 172.5 442.5 114.5 488 114.5C533.5 114.5 502.5 206 572 206C618.5 206 600.381 128.371 618.5 107C638 84 715 94 698.5 155C682 216 792 248 818.5 192.5C845 137 827.5 120.5 870.5 131.5C904.9 140.3 918.167 103.5 920.5 84" stroke="#EB539F"/>
<path d="M825.277 191.397C785.5 173 788.5 77.5 759 10.5L755 0.5H1480.5C1458.89 41.8518 1461.16 63.643 1464.48 95.4552L1464.5 95.6941C1511.5 373.969 1290.75 380.296 1290.75 238.496C1290.75 96.6962 1213.93 90.1824 1184.94 95.6941C1155.94 101.206 1174.26 175.363 1132.54 175.363C1090.83 175.363 1110.16 95.6941 1084.72 95.6941C1059.29 95.6941 1079 123 1047.5 123C1020 123 1031.5 101.206 1017.06 101.206C993.132 101.206 1000.78 156.322 973.822 156.322C946.86 156.322 950.93 117.24 923.968 119.244C897.006 121.248 902.868 227.282 825.277 191.397Z" fill="#F8F8F8"/>
<path d="M32.5 216.5C52.6667 225.333 98.3 233.3 119.5 194.5M176.5 147.5C188.333 144.5 215.8 144.1 231 166.5M331 202C337.5 201.833 351.1 198 353.5 184M417.5 182C423.333 184.667 437.8 184.1 449 160.5C463 131 471 129 478 129M590.5 216C595.833 217.5 607.9 213.2 613.5 184M645.5 112.5C661.333 109.333 692.4 111.1 690 143.5M776.5 241.5C786 242.5 807.7 238.8 818.5 216" stroke="#2E2E2E" stroke-width="4" stroke-linecap="round"/>
<path d="M876 206.5C885.333 205.667 904.6 198.4 907 176C910 148 914 130.5 928 131M1020 119C1022.33 123 1031.6 131 1050 131C1068.4 131 1073.33 123 1073.5 119M1146.5 187C1151.67 188 1163.6 184.5 1170 162.5M1237.5 123C1248.5 130 1270.9 154.3 1272.5 195.5C1274.5 247 1274 302.5 1307 325M1410.5 338C1416.5 334 1429.6 323.6 1434 314" stroke="#2E2E2E" stroke-width="4" stroke-linecap="round"/>
<path d="M810 135.5C812.167 153.333 826.1 188 864.5 184M968.5 145C973.667 148.333 984.8 149.1 988 125.5M1035 105.5C1037.83 110.167 1045.9 117.5 1055.5 109.5M1109 118C1110.5 133.167 1116.7 163.6 1129.5 164M1317 209.5C1317 265 1342.5 324 1381.5 308" stroke="#FFB4D9" stroke-width="4" stroke-linecap="round"/>
</svg>
