<svg width="1440" height="324" viewBox="0 0 1440 324" fill="none" xmlns="http://www.w3.org/2000/svg">
<g clip-path="url(#clip0_10_19)">
<path d="M-8 158.5C15.1667 187.5 69.3 193.3 100.5 158.5C111.5 146.231 118 117.5 176 117.5C238.163 117.5 232 178.5 295 178.5C358 178.5 322 128.5 365.5 117.5C409 106.5 380 158.5 409 158.5C438 158.5 433.5 100.5 479 100.5C524.5 100.5 493.5 192 563 192C609.5 192 591.381 114.371 609.5 93C629 70 706 80 689.5 141C673 202 783 234 809.5 178.5C836 123 818.5 106.5 861.5 117.5C895.9 126.3 909.167 89.5 911.5 70" stroke="#EB539F"/>
<path d="M816.277 177.397C776.5 159 779.5 63.5 750 -3.5L693.5 -14L1442 -10V96.2248C1489 374.5 1281.75 366.296 1281.75 224.496C1281.75 82.6962 1204.93 76.1824 1175.94 81.6941C1146.94 87.2057 1165.26 161.363 1123.54 161.363C1081.83 161.363 1101.16 81.6941 1075.72 81.6941C1050.29 81.6941 1070 109 1038.5 109C1011 109 1022.5 87.2057 1008.06 87.2057C984.132 87.2057 991.784 142.322 964.822 142.322C937.86 142.322 941.93 103.24 914.968 105.244C888.006 107.248 893.868 213.282 816.277 177.397Z" fill="#F8F8F8"/>
<path d="M816.277 177.397C776.5 159 779.5 63.5 750 -3.5L693.5 -14L1442 -10V96.2248C1489 374.5 1281.75 366.296 1281.75 224.496C1281.75 82.6962 1204.93 76.1824 1175.94 81.6941C1146.94 87.2057 1165.26 161.363 1123.54 161.363C1081.83 161.363 1101.16 81.6941 1075.72 81.6941C1050.29 81.6941 1070 109 1038.5 109C1011 109 1022.5 87.2057 1008.06 87.2057C984.132 87.2057 991.784 142.322 964.822 142.322C937.86 142.322 941.93 103.24 914.968 105.244C888.006 107.248 893.868 213.282 816.277 177.397Z" fill="#F8F8F8"/>
<path d="M23.5 202.5C43.6667 211.333 89.3 219.3 110.5 180.5M167.5 133.5C179.333 130.5 206.8 130.1 222 152.5M322 188C328.5 187.833 342.1 184 344.5 170M408.5 168C414.333 170.667 428.8 170.1 440 146.5C454 117 462 115 469 115M581.5 202C586.833 203.5 598.9 199.2 604.5 170M636.5 98.4999C652.333 95.3333 683.4 97.0999 681 129.5M767.5 227.5C777 228.5 798.7 224.8 809.5 202" stroke="#2E2E2E" stroke-width="4" stroke-linecap="round"/>
<path d="M867 192.5C876.333 191.667 895.6 184.4 898 162C901 134 905 116.5 919 117M1011 105C1013.33 109 1022.6 117 1041 117C1059.4 117 1064.33 109 1064.5 105M1137.5 173C1142.67 174 1154.6 170.5 1161 148.5M1228.5 109C1239.5 116 1261.9 140.3 1263.5 181.5C1265.5 233 1265 288.5 1298 311M1401.5 324C1407.5 320 1420.6 309.6 1425 300" stroke="#2E2E2E" stroke-width="4" stroke-linecap="round"/>
<path d="M801 121.5C803.167 139.333 817.1 174 855.5 170M959.5 131C964.667 134.333 975.8 135.1 979 111.5M1026 91.5C1028.83 96.1667 1036.9 103.5 1046.5 95.5M1100 104C1101.5 119.167 1107.7 149.6 1120.5 150M1308 195.5C1308 251 1333.5 310 1372.5 294" stroke="#FFB4D9" stroke-width="4" stroke-linecap="round"/>
</g>
<defs>
<clipPath id="clip0_10_19">
<rect width="1440" height="324" fill="white"/>
</clipPath>
</defs>
</svg>
