<svg width="264" height="12" viewBox="0 0 264 12" fill="none" xmlns="http://www.w3.org/2000/svg">
<path d="M177.835 2.85301C177.934 3.14457 177.852 3.39126 177.573 3.44359C176.871 3.57442 176.162 3.69404 175.45 3.7202C173.901 3.77253 172.349 3.76133 170.924 3.77628C170.545 4.07158 170.588 4.26222 170.938 4.33324C171.289 4.40426 171.651 4.41921 172.009 4.41921C185.309 4.4678 198.612 4.49771 211.912 4.56873C213.344 4.57621 214.776 4.76686 216.201 4.95002C217.873 5.16308 219.535 5.27896 221.212 4.95376C221.913 4.81919 222.647 4.67339 223.348 4.74441C229.681 5.38734 236.028 5.25279 242.372 5.27148C243.077 5.27522 243.782 5.42472 244.484 5.53312C244.537 5.5406 244.605 5.73874 244.601 5.8434C244.598 5.95181 244.541 6.12 244.463 6.1499C244.027 6.32558 243.573 6.62465 243.138 6.59849C241.823 6.51999 240.526 6.38538 239.232 6.84142C238.8 6.99468 238.282 6.88257 237.804 6.87884C234.21 6.87136 230.617 6.85265 227.024 6.85639C221.75 6.86012 216.481 6.8788 211.207 6.88627C209.411 6.89001 207.621 6.94238 205.831 7.20404C204.531 7.39468 203.205 7.41335 201.891 7.42457C192.545 7.50307 183.197 7.5442 173.851 7.62643C170.981 7.6526 168.114 7.68249 165.24 7.98153C162.391 8.28057 159.502 8.20581 156.632 8.22076C142.97 8.27683 129.309 8.28804 115.651 8.35158C109.899 8.37775 104.147 8.52728 98.3957 8.54597C92.403 8.56092 86.4139 8.46373 80.4213 8.45252C72.033 8.43757 63.6447 8.44128 55.2563 8.47492C53.7041 8.4824 52.1519 8.65809 50.5961 8.76275C49.4018 8.84125 48.2076 8.97583 47.0133 9.00573C44.2598 9.07676 41.5026 9.08797 38.7455 9.14778C37.4272 9.17768 36.0947 9.13657 34.7977 9.33842C31.7039 9.82436 28.5888 9.84679 25.4773 9.95146C24.042 10.0001 22.6138 10.172 21.1786 10.2916C17.4788 10.6056 13.818 11.2934 10.104 11.4803C9.15071 11.5289 8.20457 11.7719 7.25127 11.8242C5.46163 11.9251 3.66483 12.0036 1.87164 11.9999C0.840374 11.9999 0.149325 11.1439 0.103255 10.0038C0.0571849 8.87492 0.0288202 7.74228 0.000469382 6.61341C-0.013706 6.04523 0.29463 5.61911 0.730525 5.40604C1.37551 5.09579 2.05591 4.80425 2.75051 4.68838C3.69317 4.53138 4.66068 4.565 5.61752 4.47903C7.28667 4.33324 8.95579 4.16876 10.6249 3.99681C11.2203 3.937 11.8121 3.80991 12.4075 3.76506C16.9472 3.4249 21.4727 2.92777 25.9911 2.38576C27.6532 2.18764 29.3401 2.225 31.0163 2.17267C34.1278 2.07922 37.2464 2.13531 40.3367 1.58956C41.2758 1.42509 42.2468 1.46993 43.2072 1.43629C47.1551 1.3092 51.1029 1.29426 55.0508 0.890559C58.382 0.550401 61.7557 0.595242 65.1082 0.595242C77.5719 0.591504 90.0321 0.651332 102.496 0.662546C117.593 0.677498 132.693 0.681202 147.79 0.673726C152.702 0.669988 157.617 0.632646 162.529 0.572838C163.964 0.554148 165.396 0.404612 166.831 0.322376C167.426 0.288734 168.025 0.225172 168.621 0.258814C170.173 0.34105 171.725 0.550392 173.274 0.55413C174.698 0.557868 176.123 0.35226 177.548 0.255072C177.633 0.247596 177.814 0.415831 177.799 0.468163C177.753 0.673753 177.693 0.991494 177.562 1.04009C177.119 1.20456 176.644 1.34286 176.176 1.36155C174.741 1.4251 173.302 1.41385 171.863 1.46992C171.396 1.48861 170.917 1.58208 170.471 1.72787C170.339 1.76898 170.272 2.10539 170.233 2.32219C170.219 2.39695 170.364 2.57263 170.456 2.59506C170.917 2.69972 171.42 2.92026 171.849 2.82307C173.866 2.37451 175.854 2.59135 177.835 2.85301ZM165.35 2.52032C165.261 2.45304 165.173 2.32967 165.084 2.32594C163.06 2.28482 161.037 2.25118 159.01 2.23997C158.556 2.23623 158.099 2.32594 157.603 2.37827C157.901 3.11092 158.446 2.93895 158.872 2.96138C159.846 3.00623 160.757 3.06232 161.384 4.05663C161.519 4.2697 162.089 4.36315 162.362 4.25101C163.358 3.84731 164.315 3.33895 165.275 2.85301C165.336 2.81936 165.325 2.63246 165.35 2.52032ZM145.703 2.4119C145.419 2.4119 145.185 2.39696 144.951 2.41939C144.845 2.4306 144.682 2.47919 144.65 2.55769C144.554 2.79318 144.703 2.92776 145.015 2.98383C145.362 3.04364 145.703 3.15204 146.046 3.21558C146.344 3.27165 146.525 3.1371 146.518 2.85675C146.514 2.75956 146.415 2.62126 146.33 2.58388C146.11 2.49791 145.88 2.45676 145.703 2.4119Z" fill="#F8F8F8"/>
<path d="M195.618 0.000932675C198.609 0.000932675 201.6 -0.00280167 204.591 0.00467432C205.789 0.00841232 206.994 -0.0102996 208.11 0.542924C208.283 0.628898 208.372 0.912985 208.5 1.10362C208.4 1.17091 208.301 1.29801 208.198 1.30175C206.168 1.36156 204.137 1.4438 202.103 1.45128C196.837 1.46997 191.574 1.46248 186.308 1.44379C185.603 1.44006 184.894 1.31671 184.189 1.22326C184.093 1.21205 183.923 1.04758 183.937 0.991511C183.983 0.770969 184.054 0.412112 184.185 0.374732C184.749 0.206522 185.337 0.0457832 185.918 0.0420452C189.15 0.0121412 192.379 0.0270786 195.611 0.0270786C195.618 0.0158646 195.618 0.00840867 195.618 0.000932675Z" fill="#F8F8F8"/>
<path d="M256.079 5.70136C256.264 5.83593 256.523 5.92937 256.608 6.11253C256.693 6.29569 256.678 6.6284 256.565 6.78913C256.193 7.32367 255.651 7.47318 255.034 7.20779C254.885 7.14424 254.719 6.78537 254.761 6.62089C254.935 5.97796 255.431 5.66772 256.079 5.70136Z" fill="#F8F8F8"/>
<path d="M263.164 6.69193C262.898 6.63586 262.558 6.59098 262.239 6.48258C261.98 6.39287 261.909 6.16113 262.044 5.94059C262.093 5.85835 262.235 5.78732 262.327 5.7948C262.664 5.82097 263.004 5.86582 263.334 5.93685C263.869 6.05272 264.184 6.41529 263.883 6.51995C263.674 6.59471 263.451 6.62464 263.164 6.69193Z" fill="#F8F8F8"/>
<path d="M213.794 0.370953C214.131 0.337311 214.432 0.247579 214.709 0.303649C214.826 0.326077 215.013 0.711093 214.96 0.819495C214.787 1.17087 214.432 1.20826 214.134 1.02136C213.989 0.927911 213.94 0.662517 213.794 0.370953Z" fill="#F8F8F8"/>
<path d="M251.001 6.78164C250.877 6.58353 250.7 6.40407 250.647 6.18727C250.601 6.00037 250.629 5.72002 250.739 5.57797C250.923 5.33874 251.479 5.45088 251.604 5.76487C251.674 5.93682 251.635 6.23213 251.529 6.38165C251.409 6.5536 251.161 6.63209 250.969 6.74797L251.001 6.78164Z" fill="#F8F8F8"/>
<path d="M191.957 2.77823C192.12 2.54647 192.326 2.49043 192.524 2.66612C192.588 2.72219 192.627 2.90907 192.584 2.9801C192.443 3.23054 192.226 3.27542 192.028 3.09974C191.964 3.04367 191.978 2.88663 191.957 2.77823Z" fill="#F8F8F8"/>
<path d="M256.097 1.29797C255.991 1.27928 255.821 1.29426 255.785 1.23071C255.647 0.972792 255.768 0.830735 256.09 0.890543C256.182 0.905495 256.257 1.02138 256.338 1.08867C256.257 1.15595 256.179 1.22695 256.097 1.29797Z" fill="#F8F8F8"/>
<path d="M239.19 1.16342L238.966 1.0812L239.147 0.954074L239.19 1.16342Z" fill="#F8F8F8"/>
<path d="M259.96 1.23442L259.833 1.02138L260.091 1.02512L259.96 1.23442Z" fill="#F8F8F8"/>
<path d="M203.751 2.5764L203.981 2.50161L203.949 2.70348L203.751 2.5764Z" fill="#F8F8F8"/>
</svg>
