<svg width="1200" height="403" viewBox="0 0 1200 403" fill="none" xmlns="http://www.w3.org/2000/svg">
<path d="M766.95 258.693C765.552 256.232 764.94 253.632 766.164 250.997C767.02 249.182 768.086 247.384 769.362 245.866C776.494 237.402 774.799 228.205 771.32 219.113C770.429 216.792 768.139 214.68 765.971 213.249C750.187 202.778 734.437 192.237 718.337 182.29C712.586 178.747 706.626 175.623 701.486 171.138C699.476 169.376 697.239 167.491 694.756 166.688C686.576 164.036 680.86 158.573 676.158 151.732C674.165 148.835 671.298 147.108 668.011 145.991C664.708 144.874 661.998 142.937 660.233 139.865C662.086 139.499 664.078 139.394 665.756 138.626C666.543 138.277 666.875 136.672 667.137 135.572C667.225 135.188 666.543 134.473 666.054 134.159C663.484 132.501 660.932 133.391 660.285 136.305C660.023 137.492 660.373 138.818 660.443 140.075C655.74 138.993 651.772 136.55 647.944 133.722C642.543 129.726 637.037 125.852 631.635 121.838C625.692 117.423 618.944 117.981 612.809 122.065C609.522 124.246 606.62 127.265 604.191 130.407C595.573 141.593 587.165 152.919 578.862 164.332C575.261 169.289 571.415 173.861 565.961 176.863C565.734 175.536 565.769 174.105 565.227 172.919C564.72 171.784 563.759 170.318 562.745 170.091C561.713 169.847 559.983 170.615 559.249 171.505C554.896 176.706 551.19 182.29 549.775 189.096C548.394 190.492 546.995 191.871 545.614 193.25C544.111 194.611 542.45 195.832 541.139 197.351C539.898 198.799 540.353 199.968 542.013 200.038C542.503 200.056 543.289 199.375 543.499 198.834C544.251 196.949 544.81 194.995 545.457 193.075C546.838 191.696 548.236 190.3 549.617 188.922C555.123 184.803 560.647 180.684 566.153 176.566C563.129 190.422 554.459 200.963 545.369 211.172C543.709 213.04 540.824 213.982 538.36 214.942C536.507 215.657 534.357 215.588 532.399 216.094C529.812 216.792 528.501 220.666 529.899 222.812C535.178 230.927 542.643 236.948 549.827 243.178C556.504 248.972 563.462 254.452 570.226 260.159C578.075 266.79 586.693 272.253 595.817 276.93C600.747 279.46 604.96 282.776 608.019 287.506C610.362 291.135 609.365 296.109 605.782 298.133C598.44 302.287 590.434 304.067 582.183 303.613C574.737 303.194 567.29 302.025 559.948 300.577C556.732 299.931 553.498 298.203 550.823 296.214C545.369 292.183 540.37 287.54 535.039 283.352C529.165 278.727 523.274 274.103 517.069 269.967C514.989 268.588 511.422 267.524 509.377 268.361C500.305 272.096 492.089 269.408 483.786 266.197C482.528 265.708 481.321 265.028 480.01 264.644C474.574 263.004 466.9 267.995 466.078 273.649C465.973 274.312 465.694 275.045 465.851 275.656C468.176 284.958 464.033 293.003 460.799 301.17C459.82 303.648 458.422 306.126 456.657 308.116C446.623 319.494 439.631 332.635 433.548 346.387C431.905 350.104 430.156 353.961 427.587 357.032C421.346 364.432 416.976 372.791 413.165 381.569C411.277 385.932 406.365 387.451 403.097 384.554C397.346 379.493 391.193 375.741 383.431 374.449C380.215 373.926 377.208 371.814 374.324 370.051C373.59 369.598 373.066 367.294 373.538 366.666C375.146 364.537 377.261 362.791 379.184 360.907C382.085 358.045 385.127 355.305 387.819 352.268C389.637 350.209 390.878 347.486 389.672 344.781C388.903 343.054 387.085 341.78 385.721 340.296L385.826 340.401C389.235 335.323 392.661 330.244 396.384 324.712C398.604 323.84 401.017 322.478 403.621 321.937C413.795 319.843 420.507 313.805 424.895 304.59C426.626 300.943 428.653 297.139 431.502 294.381C445.906 280.472 454.524 262.375 466.673 246.843C469.417 243.336 469.33 239.235 467.861 235.186C464.295 225.291 458.405 217.106 449.56 211.26C441.571 205.989 433.547 200.824 428.583 192.22C427.936 191.086 426.8 189.986 425.647 189.445C415.892 184.873 408.935 178.067 406.488 167.159C406.086 165.397 404.163 163.809 402.608 162.535C398.43 159.045 394.461 155.048 389.742 152.535C378.712 146.654 369.954 138.207 361.092 129.708C355.218 124.072 348.663 119.15 342.492 113.81C336.829 108.906 331.165 103.985 325.746 98.8367C320.589 93.9503 314.699 91.2277 307.602 90.4075C301.623 89.7094 296.781 91.2975 292.918 95.6779C289.317 99.7615 285.926 104.02 282.535 108.278C265.981 129.045 250.266 150.441 234.761 171.994C231.58 176.409 228.118 180.632 224.955 185.065C223.381 187.264 222.14 189.707 220.864 192.115C219.291 195.099 219.868 199.515 222.192 201.574C225.252 204.279 228.451 206.81 231.58 209.427C251 225.622 271.924 239.583 294.159 251.625C296.554 252.916 299.019 254.121 301.256 255.656C307.182 259.67 311.273 264.661 310.713 272.514C310.381 277.226 311.045 281.991 310.958 286.72C310.888 290.228 306.5 292.828 303.511 291.258C300.504 289.67 297.656 287.785 294.666 286.162C290.611 283.963 286.8 284.87 283.164 287.314L283.322 287.122C277.815 284.958 272.414 281.537 266.75 280.961C259.163 280.193 255.021 275.621 250.546 270.787L250.686 270.944C249.217 269.478 247.766 268.03 246.298 266.564L246.455 266.703C234.411 256.721 222.385 246.704 210.271 236.791C208.191 235.098 205.831 233.632 203.419 232.481C200.167 230.945 196.689 231.224 193.595 232.934C191.235 234.226 188.875 235.831 187.11 237.821C183.054 242.393 178.981 247.018 175.59 252.079C160.05 275.254 143.007 297.348 126.348 319.704C117.416 331.693 108.203 343.507 98.624 354.991C93.7645 360.819 89.6391 366.858 86.7898 373.891C85.2865 377.625 83.1366 381.168 80.9516 384.589C77.945 389.3 74.5884 389.859 69.2219 386.351C66.8096 384.781 64.555 383.594 61.7232 384.501C59.7829 385.129 57.8076 385.758 56.0421 386.753C52.6334 388.655 49.644 388.096 46.585 385.985C41.8653 382.739 38.1246 379.161 39.2608 372.652C39.8551 369.248 36.6564 368.411 34.6287 366.753C33.7547 366.02 33.4573 364.484 33.1252 363.263C32.9679 362.669 33.1601 361.849 33.4747 361.291C39.2782 351.308 44.8895 341.186 51.095 331.466C53.2102 328.133 56.8635 325.777 59.7827 322.967C64.6772 318.273 69.8341 313.787 74.379 308.779C78.0673 304.695 81.7554 300.873 86.7198 298.308C92.6281 295.271 95.9147 290.211 96.1944 283.596C96.544 274.871 101.543 269.949 109.13 267.07C116.436 264.277 121.803 259.077 126.331 253.074C128.725 249.897 130.001 245.883 131.784 242.254L131.575 242.428C134.371 241.067 137.186 239.688 139.983 238.327L139.773 238.135C139.843 240.91 139.93 243.685 140 246.459L139.808 246.267C142.517 244.313 145.349 242.48 147.936 240.351C152.778 236.337 158.232 234.173 164.542 234.226L164.35 234.034C164.42 236.791 164.472 239.549 164.542 242.306C163.196 245.081 161.833 247.856 160.487 250.63C154.352 254.505 149.702 259.513 148.163 266.878C146.678 268.256 145.139 269.6 143.741 271.049C143.321 271.485 143.111 272.288 143.146 272.899C143.164 273.457 143.654 273.98 143.933 274.521C144.93 273.911 146.503 273.527 146.817 272.654C147.517 270.787 147.586 268.693 147.918 266.686C155.924 264.225 158.721 257.82 160.26 250.456C161.606 247.681 162.952 244.906 164.315 242.131C166.658 239.81 169.297 237.734 171.237 235.116C173.475 232.114 173.143 228.432 170.765 225.866C168.51 223.423 166.186 220.928 163.424 219.148C162.06 218.258 159.316 218.258 157.848 219.061C154.352 220.945 151.24 223.563 147.971 225.866L148.146 225.971C148.076 223.196 148.006 220.439 147.936 217.664L148.111 217.839C147.604 215.937 146.223 213.755 146.73 212.167C147.954 208.363 150.086 204.838 151.765 201.173C154.299 195.623 153.093 190.51 149.439 185.99C147.324 183.372 144.982 180.824 142.29 178.817C132.448 171.487 124.041 162.64 115.37 154.053C101.875 140.703 88.1882 127.545 74.571 114.316C73.6096 113.374 72.4912 112.571 71.3899 111.786C68.3134 109.622 65.1141 109.604 61.8803 111.419L62.0727 111.227C49.6792 103.077 40.1874 91.8211 30.2411 81.1059C27.689 78.3485 26.8322 74.0205 25.2065 70.4081L24.997 70.5651C26.4479 70.4778 27.8987 70.3905 29.3496 70.3032C30.713 71.6994 32.0587 73.0955 33.4222 74.4742C34.7857 75.8354 36.1493 77.1968 37.5128 78.5755C38.8762 79.9367 40.2399 81.2979 41.6208 82.6591C42.9843 84.0203 44.3475 85.3815 45.7109 86.7427C47.0744 88.1039 48.4381 89.4651 49.819 90.8263C51.1825 92.1875 52.5461 93.5489 53.9096 94.9101C55.273 96.2713 56.6362 97.65 57.9997 99.0112L57.8426 99.1682C56.4792 97.807 55.098 96.4458 53.7346 95.0671C52.3711 93.7059 51.0075 92.3447 49.644 90.9835C48.2806 89.6223 46.9174 88.2609 45.5539 86.8822C44.1904 85.521 42.8268 84.1598 41.4633 82.7986C40.0999 81.4374 38.7363 80.0762 37.3728 78.6975C36.0093 77.3363 34.6286 75.9752 33.2652 74.6139C31.9017 73.2353 30.5381 71.8741 29.1746 70.4954C27.7937 69.0644 26.4129 67.6332 25.0495 66.2022L25.2415 66.3941C23.8081 64.9631 22.3748 63.5321 20.9589 62.1011L21.151 62.3454C19.6826 60.8795 18.2147 59.4136 16.7638 57.9651L17.0958 58.2966C15.6275 56.8306 14.1416 55.3474 12.6733 53.8815L12.9878 54.1955C11.5194 52.7296 10.051 51.2638 8.5652 49.7804L8.79267 50.0071C9.4744 47.3893 9.71906 44.5622 10.9077 42.1888C13.8619 36.2378 18.8612 34.6323 24.4025 37.3896C32.3735 41.3511 39.6805 46.2026 45.9559 52.6423C56.4092 63.3575 67.1244 73.8284 77.6301 84.4739C90.0586 97.0565 102.365 109.761 114.776 122.361C117.153 124.77 119.636 127.161 122.415 129.08C133.672 136.846 143.514 146.2 153.46 155.519C160.382 161.994 168.038 167.788 175.87 173.163C182.18 177.491 189.469 179.428 197.265 176.88L197.056 176.653C198.472 179.393 199.888 182.15 201.304 184.89C202.632 184.89 203.961 184.89 205.289 184.89C206.67 183.512 208.069 182.133 209.45 180.737L209.607 180.894C208.226 182.29 206.845 183.669 205.464 185.065C204.031 185.065 202.597 185.082 201.164 185.082C201.251 182.272 201.339 179.463 201.444 176.636L201.164 176.915C202.632 175.432 204.118 173.966 205.604 172.482L205.324 172.831C208.138 171.435 210.953 170.039 213.767 168.643L213.418 168.486C214.921 168.486 216.424 168.486 217.927 168.486L217.56 168.73C219.029 167.264 220.515 165.781 221.983 164.315L221.703 164.664C226.301 161.68 229.08 157.509 229.954 152.099C231.02 151.313 232.349 150.738 233.118 149.725C243.956 135.537 254.986 121.489 265.019 106.707C265.754 105.625 266.226 104.351 266.82 103.165C266.82 101.786 266.82 100.425 266.82 99.0461C268.253 94.9101 269.687 90.7739 271.12 86.6554L270.998 86.8126C276.225 88.802 280.35 87.493 283.339 82.7287L283.182 82.9034C283.182 81.4026 283.182 79.9016 283.182 78.3833L283.339 78.5405C283.357 71.6821 282.063 65.1899 278.515 59.1691C274.354 52.1013 272.117 44.3704 271.015 36.2554C270.648 33.6028 269.757 31.0199 269.355 28.3498C268.603 23.3238 263.272 18.9783 267.082 13.2891C272.519 12.0152 275.455 16.9016 279.756 18.5071C283.794 20.008 284.161 20.2523 287.971 16.0988C291.153 12.6434 294.072 12.277 296.187 15.2612C299.281 19.6415 302.183 24.1614 305.015 28.7163C308.825 34.8767 310.818 35.8713 318.317 34.7544C320.31 34.4577 322.303 34.0216 324.278 33.6377L324.173 33.5154C323.841 35.4875 323.439 37.4595 323.264 39.4665C323.229 39.8679 324.208 40.7753 324.505 40.688C326.41 40.1644 328.281 39.5188 330.116 38.7509C335.116 36.6567 340.063 34.4403 345.062 32.3636C345.551 32.1716 346.723 32.4683 346.88 32.8348C347.369 33.9517 348.121 35.5398 347.684 36.36C346.443 38.7335 344.852 41.0197 343.034 42.9917C340.255 45.9759 337.021 48.5586 334.259 51.5428C332.336 53.6196 331.515 56.4643 332.704 59.1169C336.916 68.5408 343.157 76.7081 350.079 84.2123C352.719 87.0744 356.651 89.1859 360.41 90.4774C367.087 92.7461 372.331 96.8298 377.593 101.245C403.674 123.164 429.335 145.572 456.919 165.676C468.998 174.489 479.958 184.82 491.617 194.244C498.487 199.794 505.671 204.977 512.821 210.195C515.635 212.254 520.407 211.172 521.596 207.892C523.781 201.941 526.928 196.984 532.312 193.424C536.385 190.737 539.356 187.002 541.052 182.377C542.73 177.822 545.3 173.878 548.603 170.353C549.53 169.376 550.264 168.189 550.963 167.037C552.571 164.35 571.328 141.576 573.128 139.377C576.1 135.747 579.753 135.153 584.088 135.607C586.273 135.834 588.318 134.228 588.441 132.169C588.843 124.857 592.776 119.482 597.251 114.229C598.09 113.234 598.387 111.803 599.156 110.093C597.915 104.578 596.587 98.662 595.153 92.3446C583.581 77.4584 569.667 64.4746 553.323 54.3352C544.95 49.1347 538.849 42.0143 533.151 34.3356C528.204 27.6691 529.078 21.8228 535.773 14.4583C536.227 13.9522 536.821 13.5857 537.363 13.1669L537.206 12.9749C538.675 14.4408 540.125 15.8893 541.594 17.3553L541.244 17.1284C542.747 17.1284 544.251 17.1284 545.754 17.1109L545.509 17.3029C549.547 16.8142 553.603 15.8197 557.623 15.9593C566.014 16.2734 573.565 19.0306 579.631 25.2259C584.858 30.5836 590.189 35.8191 595.555 41.0197C598.964 44.3355 602.425 47.5988 606.026 50.7052C610.728 54.7714 613.875 55.2077 618.874 52.0664C622.93 49.5185 626.845 46.8658 631.618 45.8711L631.443 45.6442C629.065 48.96 626.6 52.1886 624.363 55.5917C621.182 60.4083 625.604 68.9945 631.478 69.3261C632.631 69.3959 634.274 68.6629 634.991 67.7554C637.928 64.0557 640.375 59.9545 643.434 56.3595C645.619 53.7941 648.539 51.8746 652.105 51.5256C652.734 51.4558 653.712 51.543 653.975 51.9269C654.639 52.9217 655.443 54.1605 655.356 55.2425C655.268 56.499 654.307 57.6859 653.678 58.8726C652.699 60.7399 652 62.9737 653.486 64.5269C658.275 69.5355 657.733 73.9856 652.786 78.4183C651.807 79.2908 651.038 80.5299 650.496 81.7341C649.325 84.3169 649.098 87.0918 650.776 89.4827C652.699 92.24 654.779 94.9799 657.226 97.266C660.198 100.023 663.606 102.327 666.858 104.77C672.958 109.377 678.5 114.142 676.962 123.147C676.752 124.351 679.444 126.044 680.79 127.51L680.667 127.632C687.013 123.007 693.166 123.915 699.004 128.487C710.122 137.213 719.194 147.701 725.889 160.196L725.714 160.371C732.776 155.764 739.594 155.938 746.323 161.209C748.963 163.285 751.655 165.711 754.732 166.723C766.443 170.58 776.442 177.63 787.227 183.232C789.622 184.471 791.86 186.06 794.324 187.159C808.134 193.354 811.507 194.087 824.268 184.995L824.076 184.82C823.377 189.428 822.538 194.017 822.066 198.66C821.821 201.138 825.387 203.668 827.852 202.848C830.387 202.01 832.764 200.754 835.281 199.846C838.305 198.747 840.665 200.213 840.927 203.441C841.085 205.431 840.787 207.455 840.682 209.462L840.49 209.27C846.993 212.254 851.869 208.293 857.009 205.413L856.835 205.239C855.978 207.804 855.349 210.474 854.213 212.9C850.856 220.02 852.377 223.598 857.307 227.001C874.56 238.903 890.991 252.149 910.831 259.914C912.684 260.647 914.327 261.956 916.023 263.056C919.764 265.464 919.834 269.007 915.901 272.392C914.153 273.893 913.278 275.254 914.432 277.384C914.746 277.959 915.428 278.378 915.673 278.972C916.582 281.188 915.568 283.177 913.471 283.212C910.814 283.247 907.859 283.771 905.535 282.828C899.102 280.211 892.564 279.164 885.677 279.373C878.755 279.6 872.182 277.855 866.047 274.836C855.733 269.74 845.455 264.557 835.316 259.112C830.317 256.424 825.457 255.272 819.759 256.477C814.497 257.593 809.043 257.803 803.659 258.396L803.834 258.536C802.348 258.536 800.845 258.536 799.359 258.536L799.516 258.396C795.723 259.88 791.93 261.363 788.154 262.864C784.78 264.208 782.7 262.759 783.225 259.321C783.539 257.314 784.204 255.377 784.536 253.388C784.623 252.882 783.994 251.782 783.714 251.782C782.491 251.8 781.092 251.817 780.096 252.41C778.994 253.074 777.91 254.225 777.439 255.412C773.96 263.911 767.79 269.949 760.535 275.342C753.263 280.734 749.051 288.622 745.572 296.79C745.31 297.383 746.69 298.831 747.547 299.652C747.862 299.966 749.05 299.861 749.452 299.512C751.428 297.715 753.543 295.952 755.116 293.823C758.752 288.902 761.741 283.439 767.142 280.141C768.034 279.6 770.044 279.67 770.673 280.298C771.285 280.926 771.32 283.073 770.708 283.788C761.496 294.696 753.106 306.213 743.474 316.841C731.658 329.913 720.4 343.734 712.936 360.052C711.52 363.14 709.807 366.09 708.059 369.004C704.511 374.903 701.958 381.081 700.909 387.974C700.42 391.22 699.057 394.501 697.448 397.398C694.337 402.965 688.411 404.658 683.779 400.504C677.346 394.745 668.955 393.82 661.841 389.929C659.551 388.672 657.419 386.945 655.618 385.042C654.936 384.327 654.919 382.198 655.478 381.255C656.492 379.58 657.943 377.905 659.621 376.962C665.791 373.524 670.214 368.463 673.832 362.582C681.332 350.401 691.557 340.087 698.077 327.225C705.629 319.407 711.485 310.123 719.823 302.95C727.06 296.737 733.72 289.914 739.139 281.938C743.806 275.062 749.767 269.565 757.563 266.249C761.444 264.592 764.346 261.764 766.723 258.344C766.758 258.518 766.95 258.693 766.95 258.693ZM78.4341 107.301L78.5566 107.178C79.9201 108.54 81.2837 109.918 82.6646 111.28C84.0281 112.641 85.3913 114.002 86.7548 115.363C88.1182 116.725 89.4819 118.086 90.8453 119.447L90.7403 119.552C89.3769 118.19 88.0137 116.829 86.6327 115.468C85.2692 114.107 83.9056 112.746 82.5422 111.384C81.1787 110.023 79.8151 108.662 78.4341 107.301ZM103.012 131.872L103.187 131.698C104.55 133.059 105.913 134.438 107.277 135.799C108.64 137.16 110.004 138.521 111.367 139.883L111.21 140.04C109.846 138.679 108.483 137.317 107.12 135.956C105.756 134.595 104.375 133.234 103.012 131.872ZM123.446 299.338C124.687 298.901 125.981 298.57 127.152 297.994C127.519 297.819 127.589 297.016 127.799 296.51C125.316 295.987 124.792 298.203 123.638 299.512C122.292 302.287 120.929 305.044 119.583 307.819C109.322 314.887 103.134 324.869 99.096 336.387L98.904 336.195C109.217 329.162 115.703 319.407 119.391 307.644C120.737 304.87 122.083 302.112 123.446 299.338ZM451.448 295.516C448.458 298.081 445.294 300.472 442.515 303.264C441.186 304.608 440.295 306.58 439.718 308.412C439.404 309.407 439.771 311.274 440.505 311.78C441.204 312.252 443.144 311.885 443.896 311.187C448.458 306.929 450.101 301.222 451.238 295.324L451.448 295.516ZM726.886 321.449C727.76 320.943 728.686 320.506 729.473 319.896C729.612 319.791 729.158 318.936 728.983 318.43C728.109 318.936 727.183 319.372 726.414 319.983C726.274 320.105 726.711 320.943 726.886 321.449Z" fill="#3D0E26"/>
<path d="M877.444 9.1532C882.251 8.42023 883.562 4.28425 885.782 0.898644C886.271 0.148227 888.614 -0.288088 889.436 0.218007C897.127 4.87757 902.861 11.6312 908.332 18.6118C913.786 25.575 918.943 32.7652 924.466 39.6934C927.858 43.9342 931.476 48.0178 935.339 51.8396C940.443 56.9006 946.037 56.6911 951.473 51.3684C955.354 47.564 959.007 43.5153 962.678 39.484C965.056 36.8837 964.846 36.2554 960.843 31.526C959.375 29.7808 959.514 27.5994 961.14 26.2905C963.36 24.493 965.895 23.1841 968.639 24.2661C971.104 25.2608 973.236 27.0933 975.543 28.4895C978.62 30.3568 981.889 30.8629 985.333 29.6238C993.601 26.6571 994.021 30.3045 995.087 37.3375C996.223 44.7719 993.916 50.6355 988.812 55.8187C983.096 61.63 977.449 67.5287 971.942 73.532C969.74 75.9403 969.723 80.53 971.645 83.0605C973.708 85.7481 975.806 88.453 978.148 90.8962C983.375 96.2888 988.287 101.856 992.185 108.348C994.248 111.768 997.097 114.875 1000.07 117.597C1012.13 128.609 1024.35 139.464 1036.62 150.266C1038.63 152.029 1040.94 153.792 1043.42 154.577C1048.4 156.148 1051.13 159.69 1053.86 163.757C1056.09 167.072 1059.24 169.777 1061.98 172.744L1061.81 172.587C1076.18 188.992 1091.23 204.681 1108.27 218.397C1114.63 223.511 1120.7 229.008 1126.57 234.68C1134.02 241.852 1141.73 248.24 1152.3 250.456C1158.88 251.835 1162.18 257.262 1164.94 262.881C1166.78 266.599 1164.68 271.729 1160.8 272.968C1159.51 273.387 1158.23 274.085 1156.92 274.138C1146.73 274.504 1136.52 274.679 1126.33 275.063C1116.24 275.447 1107.38 272.235 1100.21 265.377C1085.95 251.712 1069.29 240.735 1055.99 226.024C1048.72 217.961 1036.1 217.664 1027.81 222.656C1024.91 224.401 1022.39 226.809 1019.45 228.502C1015.96 230.526 1012.2 232.132 1008.56 233.912L1008.7 234.051C1010.36 229.601 1012.17 225.186 1013.58 220.649C1013.88 219.706 1013.02 217.804 1012.13 217.263C1011.2 216.687 1009.3 216.757 1008.34 217.35C1003.81 220.247 999.491 223.441 995.034 226.443C994.842 226.565 993.601 225.727 993.636 225.483C993.881 224.226 994.073 222.795 994.842 221.853C998.653 217.054 1002.73 212.481 1004.63 206.425C1006.5 200.475 1007.2 195.047 1004.56 188.695C1000.24 178.346 995.087 166.566 989.214 159.184C985.648 154.699 984.371 149.516 984.127 143.967L983.97 144.124C985.788 145.048 987.518 146.183 989.441 146.794C990.402 147.09 991.713 146.497 992.797 146.113C992.972 146.043 992.937 144.822 992.675 144.298C992.063 143.111 991.364 141.907 990.49 140.912C983.288 132.815 976.033 124.752 968.761 116.725C966.017 113.688 963.098 114.596 959.357 119.517L959.479 119.395C954.13 118.854 948.659 118.819 943.45 117.667C934.115 115.608 927.962 119.831 922.613 126.654C912.23 139.883 901.637 152.937 891.341 166.235C887.198 171.592 883.143 176.915 877.444 180.719L877.601 180.877C877.916 175.379 879.262 170.249 882.653 165.746C885.905 161.435 888.841 156.881 892.198 152.657C896.847 146.794 901.025 140.755 903 133.391C904.433 128.016 908.209 124.054 911.6 119.831C914.1 116.724 916.216 113.252 917.981 109.674C918.873 107.877 917.876 105.59 915.935 104.613C914.17 103.741 912.09 103.479 910.15 102.955L910.359 103.147C910.954 100.495 911.566 97.8419 912.125 95.1718C912.824 91.7164 912.579 88.2959 910.499 85.3815C906.147 79.2909 901.794 73.2004 897.075 67.389C889.785 58.4015 882.199 49.6408 874.734 40.7929C873.86 39.7458 873.074 38.6287 872.217 37.5816C865.33 29.17 862.48 19.7811 865.242 9.03092L865.085 9.17067C869.298 11.038 873.476 12.0502 877.601 8.96126L877.444 9.1532ZM885.643 41.8749L885.8 41.7177C887.163 43.0789 888.526 44.4577 889.89 45.8189C891.253 47.1802 892.617 48.5588 893.963 49.92C895.309 52.625 896.654 55.33 898.018 58.035C899.416 59.4137 900.798 60.7924 902.196 62.171L902.039 62.328C900.658 60.9319 899.277 59.5532 897.896 58.1571C896.55 55.4521 895.204 52.7296 893.858 50.0246C892.494 48.6634 891.113 47.3022 889.75 45.941C888.386 44.5972 887.023 43.2361 885.643 41.8749ZM984.005 123.67L984.127 123.548C984.127 123.531 984.005 123.653 984.005 123.67Z" fill="#3D0E26"/>
<path d="M1151.97 66.342C1158.53 57.5289 1168.3 52.2061 1175.78 44.3878C1176.95 43.1662 1176.01 39.7981 1174.26 39.2047C1172.98 38.7684 1171.69 38.3147 1170.36 38.1227C1168.35 37.826 1166.31 37.7389 1164.28 37.5644L1164.45 37.7738C1164.37 36.3427 1164.28 34.8941 1164.17 33.4631C1164.73 33.0791 1165.29 32.6954 1165.85 32.3114C1165.34 32.7652 1164.86 33.2013 1164.35 33.655C1163.77 31.8226 1162.92 30.0078 1162.72 28.1405C1162.62 27.0236 1163.23 25.2434 1164.1 24.7198C1169.85 21.2121 1175.94 19.2051 1182.49 22.5384C1183.54 23.0794 1184.15 24.5106 1184.96 25.5227C1184.45 25.61 1183.91 25.61 1183.45 25.7846C1183.09 25.9242 1182.83 26.2906 1182.51 26.5523C1183.26 26.1335 1184.03 25.7322 1184.78 25.3133C1189.5 26.7269 1193.24 29.5017 1196.27 33.3585C1197.53 34.964 1197.26 37.2502 1195.36 38.3845C1194.2 39.0651 1192.77 39.3269 1191.67 40.0773C1187.91 42.6078 1187.51 47.5815 1191.01 50.3912C1193.59 52.4854 1196.71 53.9338 1199.31 56.028C1200.03 56.6039 1200.22 58.7155 1199.73 59.6404C1198.8 61.3856 1197.44 63.0609 1195.87 64.2302C1191.51 67.4587 1186.85 70.286 1182.48 73.532C1177.58 77.1619 1172.51 80.6872 1168.14 84.893C1150.03 102.31 1131.84 119.639 1116.43 139.621C1111.49 146.043 1106.26 152.413 1098.76 156.235L1098.85 156.322C1098.87 155.642 1098.9 154.961 1098.9 154.28C1098.97 147.526 1098.97 147.527 1093.36 145.939C1086.21 143.932 1083.52 137.771 1087.52 132.204C1092.29 125.59 1097.14 118.976 1104.95 115.468C1109.02 113.636 1111.54 110.913 1110.89 106.009C1110.53 103.182 1111.68 100.564 1113.64 98.5924C1122.78 89.4827 1131.82 80.2508 1141.34 71.56C1144.21 68.9422 1148.55 67.9299 1152.2 66.1673C1151.94 67.4063 1151.59 68.6454 1151.5 69.9019C1151.48 70.2335 1152.57 70.9666 1152.62 70.9317C1154.72 69.1168 1152.88 67.7904 1151.97 66.342ZM1135.72 103.217C1134.34 104.578 1132.97 105.94 1131.59 107.301C1130.23 108.662 1128.86 110.023 1127.5 111.402C1126.14 112.78 1124.77 114.142 1123.43 115.52C1121.82 116.864 1121.66 117.58 1122.8 117.213C1123.13 117.108 1123.11 116.009 1123.27 115.363C1124.65 114.002 1126.01 112.658 1127.4 111.297C1128.76 109.936 1130.12 108.575 1131.5 107.213C1132.87 105.835 1134.23 104.474 1135.59 103.095L1135.72 103.217Z" fill="#3D0E26"/>
<path d="M209.729 160.406C215.463 145.205 225.479 133.321 238.397 123.723L238.205 123.513C237.138 128.103 234.936 132.099 232.052 135.782C229.167 139.464 226.982 143.495 226.091 148.12C224.71 149.516 223.329 150.895 221.93 152.291C221.948 153.635 221.948 154.978 221.965 156.322C221.913 159.097 221.843 161.889 221.79 164.664L222.07 164.315C220.602 165.781 219.116 167.264 217.648 168.73L218.015 168.486C216.512 168.486 215.008 168.486 213.505 168.486L213.855 168.643C212.439 165.833 211.023 163.023 209.589 160.196L209.729 160.406Z" fill="#3D0E26"/>
<path d="M950.949 265.9C954.882 258.379 959.322 251.136 969.583 250.456C970.177 250.421 971.156 250.683 971.331 251.101C971.838 252.183 972.589 253.667 972.205 254.539C969.093 261.503 964.093 266.825 957.154 270.106C956.105 270.595 954.322 270.507 953.344 269.914C952.365 269.321 951.997 267.75 950.949 265.9Z" fill="#3D0E26"/>
<path d="M877.409 156.27C875.101 166.2 868.773 172.901 859.997 177.473C859.281 177.84 857.638 176.706 856.589 176.007C856.222 175.763 856.135 174.611 856.379 174.088C857.236 172.29 858.04 170.371 859.298 168.852C864.175 162.936 870.678 159.324 877.653 156.444C877.635 156.462 877.409 156.27 877.409 156.27Z" fill="#3D0E26"/>
<path d="M238.397 123.723C243.519 110.529 251.472 99.4475 262.922 90.966C262.922 90.966 262.765 90.7916 262.782 90.7916C262.835 93.5838 262.904 96.3585 262.957 99.1507C258.447 102.013 255.528 106.323 252.486 110.529C248.64 115.834 244.131 120.459 238.205 123.513L238.397 123.723Z" fill="#3D0E26"/>
<path d="M21.151 66.2196C11.4843 64.3523 5.24422 58.1571 0.559491 49.9898L0.664048 49.885C3.40846 49.9374 6.13574 49.9722 8.88015 50.0245L8.65269 49.7977C10.121 51.2636 11.5894 52.7296 13.0753 54.1955L12.7607 53.8815C14.2291 55.3474 15.715 56.8306 17.1833 58.2966L16.8509 57.9651C18.3192 59.431 19.7876 60.897 21.2385 62.3454L21.0464 62.1011C21.0289 63.5496 21.0114 64.9806 21.0114 66.429L21.151 66.2196Z" fill="#3D0E26"/>
<path d="M1056.79 147.526C1055.92 144.525 1058.24 141.261 1061.67 140.86C1062.18 140.808 1062.96 141.139 1063.28 141.558C1064.59 143.303 1064.13 145.118 1063.01 146.741C1061.88 148.382 1060.29 149.446 1058.16 148.853C1057.61 148.696 1057.25 147.997 1056.79 147.526Z" fill="#3D0E26"/>
<path d="M529.358 168.678C530.441 164.21 530.966 159.428 535.493 156.741C535.913 156.497 536.804 156.619 537.258 156.915C537.695 157.212 538.185 158.015 538.08 158.469C537.801 159.725 537.556 161.226 536.717 162.046C534.357 164.35 531.717 166.357 529.165 168.486L529.358 168.678Z" fill="#3D0E26"/>
<path d="M910.185 102.99C909.293 107.685 907.563 111.943 903.56 114.857C902.633 115.52 901.217 115.503 900.029 115.8C900.029 114.648 899.522 113.007 900.099 112.449C903.385 109.22 906.933 106.236 910.394 103.182L910.185 102.99Z" fill="#3D0E26"/>
<path d="M517.051 185.03C517.121 176.549 520.495 170.562 529.358 168.678L529.165 168.468C526.124 174.716 523.117 180.999 516.824 184.803L517.051 185.03Z" fill="#3D0E26"/>
<path d="M885.835 144.123C885.223 141.558 884.191 138.888 885.957 136.515C886.568 135.677 888.3 134.996 889.209 135.276C890.013 135.52 891.096 137.719 890.799 138.155C889.295 140.249 887.373 142.029 885.59 143.914L885.835 144.123Z" fill="#3D0E26"/>
<path d="M885.589 143.897C884.977 149.411 882.111 153.442 877.409 156.252L877.636 156.444C877.933 150.72 879.699 145.973 885.834 144.106C885.834 144.123 885.589 143.897 885.589 143.897Z" fill="#3D0E26"/>
<path d="M516.824 184.82C516.125 186.688 515.67 188.712 514.621 190.37C514.184 191.086 512.524 191.068 511.405 191.243C511.318 191.26 510.863 190.126 510.916 189.567C510.986 188.957 511.3 188.136 511.772 187.84C513.468 186.793 515.286 185.937 517.051 185.013C517.051 185.03 516.824 184.82 516.824 184.82Z" fill="#3D0E26"/>
<path d="M832.344 172.639C831.243 177.822 828.516 181.906 824.146 184.908L824.338 185.082C825.317 179.829 828.131 175.798 832.466 172.761L832.344 172.639Z" fill="#3D0E26"/>
<path d="M1070.23 164.594C1071.55 163.058 1072.79 161.488 1074.2 160.039C1074.6 159.62 1075.62 159.289 1076.02 159.516C1077.44 160.266 1077.38 161.557 1075.74 162.378C1073.96 163.268 1071.95 163.739 1070.04 164.385L1070.23 164.594Z" fill="#3D0E26"/>
<path d="M1004.44 238.083C1003.77 239.95 1003.18 241.852 1002.41 243.685C1002.18 244.208 1001.43 244.889 1000.96 244.871C999.351 244.784 998.932 243.632 1000.17 242.236C1001.48 240.753 1003.09 239.549 1004.58 238.222L1004.44 238.083Z" fill="#3D0E26"/>
<path d="M140.052 238.257C140.874 232.865 143.776 228.868 148.251 225.901L148.076 225.797C147.027 231.015 144.615 235.325 139.843 238.048L140.052 238.257Z" fill="#3D0E26"/>
<path d="M197.388 176.863C198.227 171.522 200.884 167.386 205.552 164.594L205.394 164.42C205.394 167.229 205.394 170.039 205.394 172.831L205.674 172.482C204.188 173.966 202.719 175.432 201.251 176.915L201.531 176.636C200.08 176.636 198.629 176.636 197.161 176.636L197.388 176.863Z" fill="#3D0E26"/>
<path d="M1061.98 172.779C1063.33 168.625 1066.09 165.92 1070.23 164.594L1070.04 164.385C1068.05 167.875 1065.32 170.632 1061.81 172.622L1061.98 172.779Z" fill="#3D0E26"/>
<path d="M631.687 45.9409C632.701 45.1731 633.68 44.318 634.764 43.6549C635.253 43.3582 636.25 43.1488 636.564 43.428C637.735 44.4576 637.264 45.3302 635.376 45.557C634.1 45.7141 632.806 45.6617 631.53 45.714C631.495 45.714 631.687 45.9409 631.687 45.9409Z" fill="#3D0E26"/>
<path d="M1164.28 37.5644C1163.25 39.0477 1162.72 41.2115 1160.15 40.6356C1160.33 40.112 1160.36 39.2744 1160.71 39.0998C1161.9 38.5239 1163.19 38.1925 1164.47 37.7563C1164.47 37.7737 1164.28 37.5644 1164.28 37.5644Z" fill="#3D0E26"/>
<path d="M283.252 287.314C284.056 287.68 284.877 288.047 285.681 288.413C285.279 288.343 284.825 288.396 284.51 288.204C284.091 287.942 283.776 287.488 283.409 287.122L283.252 287.314Z" fill="#3D0E26"/>
<path d="M131.854 242.184C131.417 241.433 130.98 240.683 130.561 239.915C130.84 240.212 131.207 240.491 131.365 240.84C131.557 241.311 131.557 241.852 131.645 242.358C131.627 242.358 131.854 242.184 131.854 242.184Z" fill="#3D0E26"/>
<path d="M869.21 188.974C867.864 191.679 866.519 194.384 865.173 197.106L865.33 197.263C866.676 194.558 868.022 191.854 869.368 189.149L869.21 188.974Z" fill="#3D0E26"/>
<path d="M324.365 33.6377C327.11 32.2765 329.837 30.9326 332.581 29.5714L332.441 29.4318C329.714 30.793 326.987 32.1542 324.26 33.5154L324.365 33.6377Z" fill="#3D0E26"/>
<path d="M1008.6 233.929C1007.22 235.308 1005.82 236.704 1004.44 238.083L1004.58 238.222C1005.96 236.844 1007.36 235.448 1008.74 234.069L1008.6 233.929Z" fill="#3D0E26"/>
<path d="M832.466 172.761C833.847 171.4 835.211 170.039 836.592 168.678L836.452 168.538C835.089 169.917 833.726 171.278 832.362 172.657C832.345 172.639 832.466 172.761 832.466 172.761Z" fill="#3D0E26"/>
<path d="M1094.6 160.353C1093.24 161.715 1091.86 163.076 1090.49 164.437L1090.65 164.594C1092.01 163.233 1093.38 161.854 1094.74 160.493L1094.6 160.353Z" fill="#3D0E26"/>
<path d="M205.552 164.594C206.933 163.198 208.331 161.802 209.712 160.388L209.572 160.196C208.173 161.61 206.793 163.006 205.394 164.42L205.552 164.594Z" fill="#3D0E26"/>
<path d="M1098.74 156.252C1097.36 157.613 1095.98 158.992 1094.6 160.353L1094.74 160.493C1096.1 159.114 1097.47 157.736 1098.85 156.357C1098.83 156.34 1098.74 156.252 1098.74 156.252Z" fill="#3D0E26"/>
<path d="M803.764 258.518C802.383 258.518 801.002 258.518 799.604 258.518L799.446 258.658C800.932 258.658 802.435 258.658 803.921 258.658L803.764 258.518Z" fill="#3D0E26"/>
<path d="M246.473 270.822C246.49 269.46 246.525 268.099 246.543 266.721L246.385 266.581C246.385 268.047 246.385 269.496 246.368 270.961L246.473 270.822Z" fill="#3D0E26"/>
<path d="M979.878 140.057C981.242 141.419 982.623 142.78 983.986 144.141L984.143 143.984C982.78 142.623 981.417 141.244 980.053 139.883L979.878 140.057Z" fill="#3D0E26"/>
<path d="M980.071 139.883C980.071 139.883 979.896 140.057 979.878 140.057L980.071 139.883Z" fill="#3D0E26"/>
<path d="M250.616 270.787C249.235 270.787 247.854 270.804 246.473 270.804L246.368 270.944C247.836 270.944 249.305 270.944 250.756 270.927L250.616 270.787Z" fill="#3D0E26"/>
<path d="M82.5422 131.872L82.6821 131.733C82.6821 131.715 82.5422 131.872 82.5422 131.872Z" fill="#3D0E26"/>
<path d="M78.4166 127.789C79.7976 129.15 81.1787 130.511 82.5422 131.872L82.6821 131.733C81.3187 130.354 79.9551 128.976 78.6091 127.597L78.4166 127.789Z" fill="#3D0E26"/>
<path d="M861.24 201.365C862.603 200.003 863.966 198.625 865.33 197.263L865.173 197.106C863.809 198.468 862.428 199.829 861.065 201.19L861.24 201.365Z" fill="#3D0E26"/>
<path d="M963.674 123.531C962.293 122.152 960.895 120.791 959.514 119.412L959.392 119.534C960.773 120.913 962.153 122.309 963.517 123.688L963.674 123.531Z" fill="#3D0E26"/>
<path d="M857.079 205.518C858.46 204.139 859.859 202.743 861.24 201.365L861.065 201.19C859.684 202.569 858.286 203.965 856.905 205.343L857.079 205.518Z" fill="#3D0E26"/>
<path d="M451.29 336.195L451.483 336.387C451.483 336.37 451.29 336.195 451.29 336.195Z" fill="#3D0E26"/>
<path d="M262.922 90.966C264.285 89.5874 265.649 88.2087 267.012 86.8475L266.925 86.6728C265.544 88.0515 264.163 89.4302 262.782 90.8088L262.922 90.966Z" fill="#3D0E26"/>
<path d="M267.012 86.8475C268.376 86.8301 269.739 86.83 271.103 86.8126L271.225 86.6554C269.792 86.6554 268.358 86.6728 266.942 86.6728L267.012 86.8475Z" fill="#3D0E26"/>
<path d="M283.444 82.7114C283.444 81.3153 283.444 79.9192 283.444 78.5405C283.444 78.5405 283.287 78.3658 283.287 78.3833C283.287 79.8841 283.287 81.3851 283.287 82.8859L283.444 82.7114Z" fill="#3D0E26"/>
<path d="M385.774 340.314C384.393 341.675 383.03 343.036 381.649 344.398L381.788 344.537C383.152 343.158 384.515 341.797 385.879 340.419L385.774 340.314Z" fill="#3D0E26"/>
<path d="M25.294 70.3731C23.9131 68.9944 22.5319 67.6158 21.151 66.2196L21.0114 66.4116C22.4623 66.3941 23.8956 66.3766 25.3465 66.3766L25.154 66.1847C25.1366 67.6332 25.119 69.0816 25.1015 70.5127L25.294 70.3731Z" fill="#3D0E26"/>
<path d="M0.576988 49.9898L0 49.3266L0.681546 49.885L0.576988 49.9898Z" fill="#3D0E26"/>
<path d="M873.301 184.89C871.937 186.251 870.574 187.613 869.193 188.974L869.368 189.149C870.731 187.787 872.095 186.426 873.458 185.047L873.301 184.89Z" fill="#3D0E26"/>
<path d="M332.581 29.5888L332.441 29.4493C332.459 29.4493 332.581 29.5888 332.581 29.5888Z" fill="#3D0E26"/>
<path d="M873.476 185.047C874.857 183.669 876.237 182.272 877.618 180.894L877.461 180.737C876.08 182.115 874.699 183.494 873.301 184.89L873.476 185.047Z" fill="#3D0E26"/>
<path d="M225.881 152.343C225.881 150.877 225.899 149.411 225.899 147.945C227.349 149.394 228.818 150.86 230.269 152.308C228.818 152.326 227.349 152.326 225.881 152.343Z" fill="#3D0E26"/>
<path d="M267.1 98.9238C267.1 100.39 267.082 101.856 267.082 103.322C265.614 101.873 264.163 100.407 262.695 98.9413C264.163 98.9239 265.631 98.9238 267.1 98.9238Z" fill="#3D0E26"/>
<path d="M221.773 152.099C223.241 152.099 224.71 152.116 226.178 152.116C224.727 153.582 223.259 155.031 221.808 156.497C221.79 155.031 221.79 153.565 221.773 152.099Z" fill="#3D0E26"/>
</svg>
