<svg width="2077" height="698" viewBox="0 0 2077 698" fill="none" xmlns="http://www.w3.org/2000/svg">
<path d="M1327.46 448.265C1325.04 444.001 1323.98 439.495 1326.1 434.929C1327.58 431.784 1329.43 428.669 1331.64 426.038C1343.98 411.372 1341.05 395.435 1335.03 379.68C1333.48 375.658 1329.52 371.999 1325.77 369.519C1298.45 351.375 1271.19 333.11 1243.32 315.873C1233.37 309.734 1223.05 304.321 1214.16 296.55C1210.68 293.495 1206.8 290.23 1202.51 288.839C1188.35 284.242 1178.45 274.777 1170.32 262.923C1166.87 257.903 1161.9 254.909 1156.22 252.973C1150.5 251.038 1145.81 247.682 1142.75 242.359C1145.96 241.724 1149.41 241.543 1152.31 240.212C1153.67 239.607 1154.25 236.825 1154.7 234.92C1154.85 234.255 1153.68 233.015 1152.83 232.471C1148.38 229.598 1143.96 231.14 1142.84 236.19C1142.39 238.247 1143 240.545 1143.12 242.722C1134.98 240.847 1128.11 236.614 1121.48 231.715C1112.13 224.79 1102.6 218.076 1093.26 211.121C1082.97 203.47 1071.29 204.438 1060.67 211.514C1054.98 215.294 1049.96 220.526 1045.75 225.969C1030.84 245.353 1016.28 264.979 1001.91 284.756C995.68 293.344 989.024 301.267 979.585 306.468C979.191 304.17 979.251 301.691 978.313 299.634C977.436 297.669 975.772 295.128 974.017 294.735C972.232 294.312 969.237 295.643 967.966 297.185C960.433 306.196 954.019 315.873 951.568 327.667C949.178 330.086 946.757 332.475 944.367 334.864C941.765 337.223 938.891 339.34 936.622 341.97C934.474 344.48 935.26 346.507 938.135 346.628C938.982 346.658 940.343 345.478 940.706 344.541C942.007 341.275 942.975 337.888 944.095 334.562C946.485 332.173 948.905 329.754 951.295 327.365C960.826 320.228 970.387 313.091 979.917 305.954C974.683 329.965 959.676 348.23 943.943 365.921C941.069 369.156 936.077 370.789 931.811 372.452C928.604 373.692 924.883 373.571 921.494 374.448C917.016 375.658 914.747 382.371 917.167 386.091C926.304 400.152 939.224 410.585 951.659 421.381C963.216 431.421 975.258 440.916 986.967 450.805C1000.55 462.296 1015.47 471.761 1031.26 479.865C1039.79 484.25 1047.09 489.996 1052.38 498.191C1056.43 504.481 1054.71 513.1 1048.51 516.607C1035.8 523.805 1021.94 526.889 1007.66 526.103C994.773 525.377 981.884 523.351 969.177 520.841C963.61 519.722 958.012 516.728 953.383 513.281C943.943 506.296 935.291 498.252 926.063 490.994C915.897 482.98 905.701 474.967 894.96 467.8C891.359 465.411 885.187 463.566 881.647 465.018C865.944 471.489 851.725 466.832 837.353 461.268C835.175 460.421 833.087 459.242 830.818 458.577C821.408 455.734 808.126 464.382 806.704 474.18C806.522 475.329 806.039 476.6 806.311 477.658C810.335 493.776 803.164 507.717 797.567 521.869C795.872 526.163 793.452 530.457 790.396 533.905C773.03 553.621 760.928 576.392 750.399 600.221C747.555 606.663 744.529 613.346 740.081 618.668C729.28 631.49 721.716 645.975 715.12 661.186C711.853 668.746 703.351 671.377 697.693 666.357C687.739 657.587 677.089 651.085 663.656 648.848C658.088 647.94 652.885 644.281 647.892 641.227C646.622 640.441 645.714 636.449 646.531 635.361C649.315 631.671 652.975 628.647 656.304 625.381C661.326 620.422 666.59 615.674 671.25 610.412C674.396 606.844 676.545 602.126 674.457 597.439C673.126 594.445 669.979 592.238 667.619 589.668L667.801 589.849C673.701 581.049 679.631 572.249 686.075 562.663C689.918 561.151 694.093 558.792 698.601 557.855C716.21 554.226 727.828 543.763 735.422 527.796C738.418 521.476 741.927 514.884 746.858 510.106C771.789 486.004 786.705 454.645 807.733 427.731C812.483 421.653 812.332 414.547 809.79 407.531C803.618 390.385 793.422 376.202 778.113 366.072C764.286 356.939 750.398 347.988 741.806 333.08C740.686 331.114 738.72 329.209 736.723 328.272C719.841 320.349 707.799 308.555 703.563 289.655C702.867 286.601 699.539 283.849 696.846 281.641C689.615 275.593 682.747 268.668 674.578 264.314C655.487 254.123 640.329 239.486 624.99 224.76C614.824 214.992 603.477 206.464 592.797 197.211C582.994 188.713 573.191 180.186 563.812 171.265C554.887 162.798 544.691 158.08 532.407 156.659C522.06 155.449 513.679 158.201 506.993 165.791C500.76 172.867 494.89 180.246 489.02 187.624C460.368 223.61 433.169 260.685 406.332 298.031C400.826 305.682 394.835 313 389.359 320.681C386.636 324.491 384.487 328.725 382.279 332.898C379.556 338.069 380.554 345.72 384.578 349.289C389.873 353.976 395.41 358.361 400.826 362.897C434.44 390.96 470.656 415.152 509.141 436.017C513.286 438.255 517.552 440.342 521.425 443.003C531.681 449.958 538.761 458.607 537.793 472.215C537.218 480.379 538.367 488.635 538.216 496.83C538.095 502.908 530.501 507.415 525.327 504.693C520.123 501.941 515.192 498.675 510.018 495.863C502.999 492.052 496.403 493.625 490.11 497.859L490.383 497.526C480.852 493.776 471.502 487.849 461.7 486.851C448.569 485.521 441.399 477.597 433.653 469.221L433.895 469.493C431.353 466.953 428.842 464.443 426.301 461.903L426.573 462.145C405.727 444.847 384.911 427.49 363.944 410.313C360.344 407.38 356.259 404.84 352.084 402.844C346.456 400.183 340.436 400.667 335.08 403.63C330.996 405.868 326.912 408.65 323.856 412.098C316.836 420.02 309.787 428.034 303.917 436.804C277.02 476.962 247.521 515.246 218.687 553.984C203.227 574.759 187.282 595.232 170.702 615.13C162.291 625.23 155.15 635.693 150.219 647.88C147.617 654.351 143.896 660.49 140.114 666.417C134.91 674.582 129.1 675.55 119.812 669.471C115.636 666.75 111.734 664.693 106.833 666.266C103.474 667.355 100.055 668.443 96.9995 670.167C91.0997 673.463 85.9255 672.495 80.6308 668.836C72.4618 663.212 65.9873 657.012 67.9539 645.733C68.9826 639.836 63.4461 638.384 59.9365 635.512C58.4237 634.241 57.909 631.58 57.3342 629.464C57.0619 628.435 57.3945 627.014 57.9391 626.047C67.984 608.749 77.6962 591.21 88.437 574.366C92.0979 568.59 98.4212 564.508 103.474 559.639C111.945 551.504 120.871 543.733 128.738 535.054C135.122 527.978 141.505 521.355 150.097 516.91C160.324 511.648 166.012 502.878 166.496 491.417C167.102 476.297 175.754 467.769 188.885 462.78C201.532 457.941 210.821 448.93 218.657 438.527C222.802 433.024 225.01 426.068 228.096 419.778L227.734 420.081C232.575 417.722 237.446 415.333 242.287 412.974L241.923 412.642C242.044 417.45 242.196 422.258 242.317 427.066L241.984 426.734C246.674 423.347 251.575 420.172 256.053 416.482C264.433 409.527 273.873 405.777 284.795 405.868L284.463 405.535C284.584 410.313 284.674 415.091 284.795 419.869C282.466 424.677 280.106 429.486 277.777 434.294C267.157 441.007 259.109 449.686 256.446 462.447C253.875 464.836 251.212 467.165 248.792 469.675C248.065 470.431 247.702 471.822 247.763 472.88C247.793 473.848 248.641 474.755 249.125 475.692C250.849 474.634 253.572 473.969 254.117 472.457C255.327 469.221 255.447 465.592 256.022 462.115C269.879 457.851 274.72 446.753 277.383 433.991C279.713 429.183 282.042 424.375 284.402 419.567C288.457 415.545 293.025 411.946 296.383 407.41C300.256 402.209 299.681 395.828 295.566 391.383C291.664 387.149 287.64 382.825 282.859 379.74C280.499 378.198 275.749 378.198 273.208 379.589C267.157 382.855 261.771 387.391 256.113 391.383L256.416 391.564C256.295 386.756 256.174 381.978 256.053 377.17L256.355 377.472C255.478 374.176 253.088 370.396 253.965 367.644C256.083 361.052 259.775 354.944 262.679 348.593C267.066 338.977 264.978 330.116 258.655 322.284C254.994 317.748 250.939 313.333 246.28 309.855C229.246 297.155 214.694 281.823 199.687 266.945C176.329 243.811 152.639 221.01 129.07 198.088C127.406 196.455 125.47 195.064 123.564 193.703C118.239 189.953 112.702 189.923 107.104 193.068L107.438 192.735C85.9864 178.613 69.5577 159.108 52.3423 140.541C47.925 135.763 46.4421 128.263 43.6283 122.003L43.2656 122.276C45.7768 122.124 48.288 121.973 50.7992 121.822C53.1592 124.241 55.4883 126.66 57.8483 129.049C60.2082 131.408 62.5684 133.767 64.9283 136.156C67.2883 138.515 69.6485 140.873 72.0387 143.232C74.3986 145.591 76.7581 147.949 79.118 150.308C81.478 152.667 83.8382 155.026 86.2284 157.384C88.5883 159.743 90.9485 162.102 93.3084 164.461C95.6684 166.82 98.0278 169.208 100.388 171.567L100.116 171.839C97.756 169.48 95.3655 167.122 93.0056 164.733C90.6457 162.374 88.2855 160.015 85.9255 157.657C83.5656 155.298 81.2061 152.939 78.8462 150.55C76.4863 148.191 74.1261 145.833 71.7661 143.474C69.4062 141.115 67.046 138.757 64.6861 136.368C62.3261 134.009 59.9364 131.65 57.5764 129.291C55.2165 126.903 52.8563 124.544 50.4964 122.155C48.1062 119.675 45.7164 117.195 43.3565 114.715L43.6889 115.048C41.2079 112.568 38.7271 110.089 36.2764 107.609L36.6088 108.033C34.0673 105.492 31.5266 102.952 29.0154 100.442L29.59 101.017C27.0486 98.4764 24.4768 95.9063 21.9353 93.3661L22.4797 93.9103C19.9382 91.3701 17.3967 88.8302 14.8249 86.2598L15.2186 86.6525C16.3986 82.1165 16.8221 77.2177 18.8794 73.105C23.9926 62.7931 32.6456 60.011 42.2367 64.789C56.0332 71.6535 68.6803 80.0602 79.542 91.2188C97.6348 109.786 116.181 127.93 134.365 146.377C155.876 168.18 177.176 190.195 198.658 212.029C202.773 216.202 207.069 220.344 211.88 223.671C231.364 237.128 248.398 253.337 265.614 269.485C277.595 280.704 290.846 290.744 304.401 300.058C315.323 307.557 327.94 310.914 341.434 306.499L341.071 306.106C343.522 310.853 345.972 315.631 348.423 320.379C350.722 320.379 353.022 320.379 355.321 320.379C357.711 317.99 360.132 315.601 362.522 313.182L362.794 313.454C360.404 315.873 358.014 318.262 355.624 320.681C353.143 320.681 350.662 320.711 348.181 320.711C348.333 315.843 348.484 310.974 348.665 306.075L348.181 306.559C350.723 303.989 353.294 301.449 355.866 298.878L355.382 299.483C360.253 297.064 365.124 294.645 369.995 292.225L369.391 291.953C371.993 291.953 374.594 291.953 377.196 291.953L376.561 292.376C379.102 289.836 381.674 287.266 384.215 284.726L383.732 285.331C391.689 280.16 396.499 272.932 398.012 263.557C399.858 262.197 402.157 261.199 403.488 259.445C422.246 234.86 441.338 210.517 458.704 184.903C459.975 183.028 460.792 180.821 461.821 178.764C461.821 176.375 461.821 174.017 461.821 171.628C464.302 164.461 466.783 157.294 469.263 150.157L469.052 150.429C478.099 153.877 485.239 151.608 490.413 143.353L490.14 143.656C490.14 141.055 490.14 138.454 490.14 135.823L490.413 136.096C490.443 124.211 488.204 112.961 482.062 102.529C474.861 90.2814 470.989 76.8853 469.082 62.8236C468.447 58.2271 466.904 53.7515 466.208 49.1248C464.907 40.4156 455.679 32.8858 462.275 23.0275C471.684 20.82 476.767 29.2872 484.21 32.0693C491.199 34.6699 491.835 35.0933 498.43 27.8961C503.937 21.9086 508.989 21.2736 512.65 26.4446C518.005 34.0349 523.028 41.867 527.929 49.7597C534.525 60.4345 537.974 62.158 550.953 60.2227C554.403 59.7086 557.852 58.9529 561.271 58.2876L561.089 58.0757C560.515 61.4929 559.819 64.9101 559.516 68.3877C559.456 69.0833 561.15 70.6556 561.664 70.5044C564.962 69.5972 568.199 68.4783 571.376 67.1478C580.029 63.519 588.592 59.6784 597.245 56.0798C598.092 55.7471 600.119 56.2613 600.391 56.8963C601.239 58.8317 602.539 61.5836 601.783 63.0049C599.635 67.1176 596.882 71.0792 593.735 74.4963C588.925 79.6674 583.327 84.1426 578.547 89.3137C575.219 92.9123 573.797 97.8417 575.854 102.438C583.146 118.768 593.947 132.92 605.928 145.924C610.497 150.883 617.304 154.542 623.809 156.78C635.367 160.711 644.444 167.787 653.551 175.438C698.692 213.42 743.107 252.248 790.85 287.084C811.757 302.356 830.727 320.258 850.908 336.588C862.798 346.204 875.233 355.185 887.607 364.227C892.478 367.795 900.738 365.921 902.796 360.236C906.578 349.924 912.024 341.335 921.343 335.166C928.392 330.509 933.536 324.038 936.47 316.024C939.375 308.132 943.823 301.297 949.541 295.189C951.145 293.496 952.415 291.439 953.625 289.443C956.409 284.786 988.873 245.323 991.989 241.513C997.132 235.223 1003.46 234.194 1010.96 234.981C1014.74 235.374 1018.28 232.592 1018.49 229.023C1019.19 216.353 1026 207.039 1033.74 197.936C1035.19 196.213 1035.71 193.733 1037.04 190.77C1034.89 181.214 1032.59 170.962 1030.11 160.015C1010.08 134.22 985.999 111.722 957.71 94.1524C943.218 85.1408 932.658 72.8026 922.795 59.4969C914.233 47.9452 915.745 37.8147 927.333 25.0533C928.12 24.1764 929.148 23.5414 930.086 22.8156L929.814 22.483C932.356 25.0232 934.867 27.5331 937.409 30.0733L936.803 29.6802C939.405 29.6802 942.007 29.6801 944.609 29.6499L944.186 29.9825C951.175 29.1358 958.194 27.4124 965.153 27.6543C979.675 28.1986 992.746 32.9764 1003.24 43.7117C1012.29 52.9954 1021.52 62.0676 1030.81 71.0791C1036.71 76.8248 1042.7 82.4795 1048.93 87.8622C1057.07 94.9082 1062.52 95.6643 1071.17 90.221C1078.19 85.806 1084.96 81.2093 1093.22 79.4856L1092.92 79.0925C1088.81 84.8381 1084.54 90.4328 1080.67 96.3296C1075.16 104.676 1082.82 119.554 1092.98 120.129C1094.98 120.25 1097.82 118.979 1099.06 117.407C1104.15 110.996 1108.38 103.889 1113.68 97.66C1117.46 93.2147 1122.51 89.8886 1128.68 89.2838C1129.77 89.1628 1131.47 89.314 1131.92 89.9793C1133.07 91.7029 1134.46 93.8497 1134.31 95.7246C1134.16 97.9019 1132.5 99.9584 1131.41 102.015C1129.71 105.25 1128.5 109.121 1131.07 111.813C1139.36 120.491 1138.43 128.203 1129.86 135.884C1128.17 137.396 1126.84 139.543 1125.9 141.629C1123.87 146.105 1123.48 150.913 1126.38 155.056C1129.71 159.834 1133.31 164.582 1137.55 168.543C1142.69 173.321 1148.59 177.313 1154.22 181.546C1164.78 189.53 1174.37 197.785 1171.71 213.389C1171.34 215.476 1176 218.409 1178.33 220.949L1178.12 221.161C1189.1 213.147 1199.75 214.72 1209.86 222.643C1229.1 237.763 1244.8 255.937 1256.39 277.589L1256.09 277.892C1268.31 269.908 1280.11 270.211 1291.76 279.343C1296.33 282.942 1300.99 287.145 1306.31 288.899C1326.59 295.582 1343.89 307.799 1362.56 317.506C1366.7 319.653 1370.58 322.405 1374.84 324.31C1398.75 335.045 1404.58 336.316 1426.67 320.561L1426.34 320.258C1425.13 328.241 1423.68 336.195 1422.86 344.238C1422.44 348.533 1428.61 352.917 1432.87 351.496C1437.26 350.045 1441.38 347.867 1445.73 346.295C1450.97 344.39 1455.05 346.93 1455.5 352.524C1455.78 355.972 1455.26 359.48 1455.08 362.957L1454.75 362.624C1466 367.795 1474.44 360.931 1483.34 355.941L1483.04 355.639C1481.56 360.084 1480.47 364.711 1478.5 368.914C1472.69 381.252 1475.32 387.452 1483.85 393.348C1513.72 413.972 1542.16 436.924 1576.5 450.381C1579.7 451.651 1582.55 453.92 1585.48 455.825C1591.96 459.998 1592.08 466.137 1585.27 472.003C1582.25 474.604 1580.73 476.962 1582.73 480.652C1583.27 481.65 1584.45 482.376 1584.88 483.404C1586.45 487.244 1584.7 490.691 1581.07 490.752C1576.47 490.812 1571.35 491.72 1567.33 490.087C1556.2 485.551 1544.88 483.736 1532.96 484.099C1520.98 484.492 1509.6 481.468 1498.98 476.237C1481.13 467.407 1463.34 458.425 1445.79 448.99C1437.14 444.333 1428.73 442.338 1418.87 444.424C1409.76 446.359 1400.32 446.722 1391 447.75L1391.3 447.993C1388.73 447.993 1386.13 447.993 1383.56 447.993L1383.83 447.75C1377.26 450.321 1370.7 452.891 1364.16 455.492C1358.32 457.821 1354.72 455.311 1355.63 449.353C1356.18 445.876 1357.33 442.519 1357.9 439.072C1358.05 438.195 1356.96 436.29 1356.48 436.29C1354.36 436.32 1351.94 436.35 1350.22 437.378C1348.31 438.527 1346.43 440.523 1345.62 442.579C1339.6 457.306 1328.92 467.77 1316.36 477.114C1303.77 486.458 1296.48 500.126 1290.46 514.279C1290.01 515.307 1292.4 517.817 1293.88 519.238C1294.42 519.783 1296.48 519.601 1297.18 518.996C1300.6 515.882 1304.26 512.827 1306.98 509.138C1313.27 500.61 1318.45 491.145 1327.8 485.43C1329.34 484.492 1332.82 484.613 1333.91 485.702C1334.97 486.791 1335.03 490.51 1333.97 491.75C1318.02 510.65 1303.5 530.608 1286.83 549.025C1266.38 571.675 1246.89 595.625 1233.97 623.899C1231.52 629.252 1228.56 634.362 1225.53 639.413C1219.39 649.634 1214.97 660.339 1213.16 672.284C1212.31 677.908 1209.95 683.594 1207.17 688.613C1201.78 698.26 1191.52 701.193 1183.51 693.996C1172.37 684.017 1157.85 682.414 1145.54 675.671C1141.57 673.493 1137.88 670.5 1134.77 667.203C1133.59 665.964 1133.56 662.274 1134.52 660.641C1136.28 657.738 1138.79 654.835 1141.69 653.202C1152.37 647.245 1160.03 638.475 1166.29 628.284C1179.27 607.177 1196.97 589.305 1208.26 567.018C1221.33 553.47 1231.46 537.382 1245.89 524.954C1258.42 514.188 1269.95 502.364 1279.33 488.544C1287.41 476.63 1297.72 467.104 1311.22 461.359C1317.93 458.486 1322.95 453.587 1327.07 447.66C1327.13 447.962 1327.46 448.265 1327.46 448.265ZM135.756 185.931L135.968 185.719C138.328 188.078 140.689 190.467 143.079 192.826C145.439 195.185 147.798 197.543 150.158 199.902C152.518 202.261 154.878 204.62 157.238 206.978L157.056 207.16C154.696 204.801 152.337 202.442 149.947 200.083C147.587 197.725 145.227 195.366 142.867 193.007C140.507 190.649 138.147 188.29 135.756 185.931ZM178.296 228.509L178.599 228.207C180.959 230.566 183.318 232.955 185.678 235.313C188.038 237.672 190.398 240.031 192.758 242.389L192.486 242.662C190.126 240.303 187.766 237.944 185.406 235.585C183.046 233.227 180.656 230.868 178.296 228.509ZM213.664 518.694C215.813 517.938 218.052 517.363 220.079 516.366C220.714 516.063 220.835 514.672 221.198 513.795C216.902 512.888 215.994 516.728 213.998 518.996C211.668 523.805 209.308 528.583 206.978 533.391C189.218 545.638 178.508 562.935 171.519 582.894L171.186 582.561C189.037 570.375 200.262 553.47 206.646 533.088C208.975 528.28 211.305 523.502 213.664 518.694ZM781.38 512.071C776.207 516.517 770.73 520.66 765.919 525.498C763.62 527.827 762.077 531.244 761.079 534.419C760.534 536.143 761.17 539.378 762.44 540.255C763.651 541.071 767.009 540.437 768.31 539.227C776.206 531.848 779.05 521.96 781.017 511.739L781.38 512.071ZM1258.12 557.008C1259.63 556.131 1261.23 555.375 1262.6 554.317C1262.84 554.135 1262.05 552.654 1261.75 551.777C1260.24 552.654 1258.63 553.41 1257.3 554.468C1257.06 554.68 1257.82 556.131 1258.12 557.008Z" fill="#3D0E26"/>
<path d="M1518.71 15.8607C1527.03 14.5906 1529.3 7.42377 1533.14 1.55717C1533.99 0.256848 1538.04 -0.499201 1539.46 0.377764C1552.78 8.45189 1562.7 20.1546 1572.17 32.2506C1581.61 44.3165 1590.54 56.7757 1600.1 68.781C1605.97 76.1294 1612.23 83.2054 1618.92 89.828C1627.75 98.5977 1637.43 98.2347 1646.84 89.0115C1653.56 82.4191 1659.88 75.4036 1666.24 68.4181C1670.35 63.9124 1669.99 62.8235 1663.06 54.6284C1660.52 51.6044 1660.76 47.8244 1663.57 45.5564C1667.42 42.4417 1671.8 40.1735 1676.55 42.0484C1680.82 43.7721 1684.51 46.9475 1688.5 49.3667C1693.83 52.6024 1699.49 53.4794 1705.45 51.3324C1719.76 46.1915 1720.48 52.5119 1722.33 64.6987C1724.3 77.581 1720.3 87.7416 1711.47 96.7229C1701.57 106.793 1691.8 117.014 1682.27 127.417C1678.46 131.59 1678.43 139.543 1681.76 143.928C1685.33 148.585 1688.96 153.272 1693.01 157.506C1702.06 166.85 1710.56 176.496 1717.31 187.746C1720.88 193.673 1725.81 199.056 1730.95 203.773C1751.83 222.855 1772.98 241.664 1794.22 260.383C1797.7 263.437 1801.69 266.491 1805.99 267.852C1814.61 270.573 1819.33 276.712 1824.05 283.758C1827.92 289.504 1833.37 294.191 1838.12 299.332L1837.81 299.06C1862.68 327.486 1888.73 354.672 1918.23 378.44C1929.25 387.301 1939.75 396.826 1949.91 406.654C1962.8 419.083 1976.14 430.151 1994.45 433.992C2005.82 436.38 2011.54 445.785 2016.32 455.522C2019.5 461.964 2015.87 470.854 2009.15 473.001C2006.91 473.727 2004.7 474.937 2002.44 475.027C1984.8 475.662 1967.13 475.965 1949.49 476.63C1932.03 477.295 1916.69 471.731 1904.29 459.847C1879.6 436.169 1850.76 417.148 1827.74 391.655C1815.15 377.684 1793.31 377.17 1778.97 385.819C1773.94 388.843 1769.59 393.016 1764.51 395.949C1758.45 399.457 1751.95 402.239 1745.66 405.324L1745.9 405.566C1748.77 397.854 1751.89 390.204 1754.34 382.341C1754.85 380.708 1753.37 377.412 1751.83 376.475C1750.22 375.477 1746.93 375.597 1745.26 376.626C1737.43 381.646 1729.95 387.18 1722.24 392.381C1721.9 392.593 1719.76 391.141 1719.82 390.718C1720.24 388.54 1720.57 386.061 1721.91 384.428C1728.5 376.112 1735.55 368.189 1738.85 357.695C1742.09 347.383 1743.3 337.979 1738.73 326.972C1731.25 309.039 1722.33 288.627 1712.16 275.835C1705.99 268.064 1703.78 259.082 1703.36 249.466L1703.09 249.738C1706.23 251.341 1709.23 253.306 1712.56 254.365C1714.22 254.879 1716.49 253.851 1718.37 253.185C1718.67 253.065 1718.61 250.948 1718.15 250.04C1717.1 247.984 1715.89 245.898 1714.37 244.174C1701.91 230.143 1689.35 216.172 1676.76 202.261C1672.01 196.999 1666.96 198.572 1660.49 207.099L1660.7 206.888C1651.44 205.95 1641.97 205.89 1632.95 203.894C1616.8 200.326 1606.15 207.644 1596.89 219.468C1578.92 242.39 1560.58 265.009 1542.76 288.052C1535.59 297.336 1528.57 306.559 1518.71 313.152L1518.98 313.424C1519.53 303.898 1521.86 295.008 1527.73 287.206C1533.35 279.736 1538.44 271.844 1544.25 264.526C1552.29 254.365 1559.52 243.902 1562.94 231.14C1565.42 221.826 1571.96 214.962 1577.83 207.644C1582.15 202.261 1585.82 196.243 1588.87 190.044C1590.42 186.929 1588.69 182.968 1585.33 181.274C1582.28 179.762 1578.68 179.309 1575.32 178.402L1575.68 178.734C1576.71 174.138 1577.77 169.541 1578.74 164.914C1579.95 158.927 1579.52 153 1575.92 147.95C1568.39 137.396 1560.86 126.842 1552.69 116.772C1540.07 101.198 1526.94 86.0179 1514.02 70.6861C1512.51 68.8717 1511.15 66.9361 1509.66 65.1217C1497.74 50.5459 1492.81 34.2768 1497.59 15.6488L1497.32 15.891C1504.61 19.1267 1511.84 20.8806 1518.98 15.5281L1518.71 15.8607ZM1532.9 72.561L1533.17 72.2886C1535.53 74.6473 1537.89 77.0366 1540.25 79.3953C1542.61 81.7541 1544.97 84.143 1547.3 86.5017C1549.63 91.1889 1551.96 95.8762 1554.32 100.563C1556.74 102.952 1559.13 105.341 1561.55 107.73L1561.28 108.002C1558.89 105.583 1556.5 103.194 1554.11 100.775C1551.78 96.0877 1549.45 91.3702 1547.12 86.6829C1544.76 84.3242 1542.37 81.9656 1540.01 79.6068C1537.65 77.2784 1535.29 74.9198 1532.9 72.561ZM1703.15 214.297L1703.36 214.085C1703.36 214.055 1703.15 214.266 1703.15 214.297Z" fill="#3D0E26"/>
<path d="M1993.87 114.958C2005.22 99.6865 2022.13 90.463 2035.08 76.9154C2037.11 74.7986 2035.47 68.9623 2032.45 67.9341C2030.24 67.1781 2028 66.3919 2025.7 66.0593C2022.22 65.5452 2018.68 65.3941 2015.17 65.0917L2015.48 65.4546C2015.32 62.9749 2015.17 60.4647 2014.99 57.985C2015.96 57.3197 2016.93 56.6547 2017.9 55.9894C2017.02 56.7757 2016.17 57.5314 2015.29 58.3176C2014.3 55.1424 2012.81 51.9977 2012.48 48.762C2012.3 46.8266 2013.36 43.7419 2014.87 42.8347C2024.82 36.7564 2035.35 33.2788 2046.7 39.0546C2048.51 39.9921 2049.57 42.472 2050.97 44.226C2050.09 44.3772 2049.15 44.3772 2048.36 44.6796C2047.73 44.9216 2047.27 45.5564 2046.73 46.01C2048.03 45.2843 2049.36 44.5889 2050.66 43.8631C2058.83 46.3125 2065.31 51.1207 2070.54 57.8038C2072.72 60.5859 2072.26 64.5473 2068.97 66.5129C2066.97 67.6923 2064.49 68.1458 2062.58 69.4462C2056.08 73.831 2055.38 82.4495 2061.43 87.3182C2065.91 90.947 2071.3 93.4569 2075.8 97.0857C2077.05 98.0836 2077.38 101.743 2076.53 103.345C2074.93 106.369 2072.57 109.272 2069.84 111.298C2062.31 116.893 2054.23 121.792 2046.67 127.417C2038.2 133.707 2029.42 139.815 2021.86 147.103C1990.51 177.283 1959.02 207.311 1932.36 241.936C1923.8 253.065 1914.75 264.102 1901.77 270.725L1901.93 270.876C1901.96 269.696 1902.02 268.517 1902.02 267.338C1902.14 255.635 1902.14 255.635 1892.42 252.883C1880.05 249.405 1875.39 238.731 1882.32 229.084C1890.58 217.623 1898.96 206.162 1912.49 200.084C1919.53 196.908 1923.89 192.191 1922.77 183.694C1922.14 178.795 1924.13 174.259 1927.52 170.842C1943.35 155.056 1958.99 139.059 1975.48 124C1980.44 119.463 1987.94 117.709 1994.27 114.655C1993.81 116.802 1993.21 118.949 1993.06 121.126C1993.03 121.701 1994.9 122.971 1994.99 122.911C1998.62 119.766 1995.45 117.468 1993.87 114.958ZM1965.74 178.855C1963.35 181.214 1960.98 183.573 1958.59 185.931C1956.23 188.29 1953.87 190.649 1951.51 193.038C1949.15 195.427 1946.79 197.785 1944.46 200.174C1941.68 202.503 1941.41 203.743 1943.38 203.108C1943.95 202.926 1943.92 201.021 1944.19 199.902C1946.58 197.544 1948.94 195.215 1951.33 192.856C1953.69 190.498 1956.05 188.139 1958.44 185.78C1960.8 183.391 1963.16 181.032 1965.52 178.643L1965.74 178.855Z" fill="#3D0E26"/>
<path d="M363.006 277.952C372.93 251.613 390.266 231.019 412.625 214.387L412.293 214.024C410.447 221.978 406.635 228.902 401.643 235.283C396.651 241.664 392.869 248.649 391.326 256.663C388.936 259.082 386.545 261.471 384.125 263.89C384.155 266.219 384.155 268.547 384.185 270.876C384.094 275.684 383.973 280.522 383.882 285.331L384.367 284.726C381.825 287.266 379.254 289.836 376.712 292.376L377.347 291.953C374.745 291.953 372.143 291.953 369.541 291.953L370.147 292.225C367.696 287.357 365.245 282.488 362.764 277.589L363.006 277.952Z" fill="#3D0E26"/>
<path d="M1645.93 460.754C1652.74 447.72 1660.43 435.171 1678.19 433.991C1679.21 433.931 1680.91 434.384 1681.21 435.11C1682.09 436.985 1683.39 439.555 1682.72 441.067C1677.34 453.133 1668.68 462.357 1656.67 468.042C1654.86 468.888 1651.77 468.737 1650.08 467.709C1648.38 466.681 1647.75 463.959 1645.93 460.754Z" fill="#3D0E26"/>
<path d="M1518.65 270.785C1514.65 287.992 1503.7 299.604 1488.51 307.527C1487.27 308.162 1484.43 306.196 1482.61 304.987C1481.98 304.563 1481.83 302.568 1482.25 301.66C1483.73 298.546 1485.12 295.219 1487.3 292.588C1495.74 282.337 1507 276.077 1519.07 271.088C1519.04 271.118 1518.65 270.785 1518.65 270.785Z" fill="#3D0E26"/>
<path d="M412.625 214.387C421.49 191.526 435.256 172.323 455.074 157.626C455.074 157.626 454.802 157.324 454.832 157.324C454.923 162.163 455.044 166.971 455.134 171.809C447.328 176.768 442.276 184.238 437.011 191.526C430.355 200.719 422.549 208.732 412.293 214.024L412.625 214.387Z" fill="#3D0E26"/>
<path d="M36.6088 114.746C19.8775 111.51 9.07688 100.775 0.968385 86.6226L1.14936 86.441C5.89948 86.5317 10.6199 86.5921 15.3701 86.6828L14.9764 86.2897C17.5178 88.8298 20.0594 91.3701 22.6311 93.9103L22.0867 93.3661C24.6282 95.9063 27.2 98.4764 29.7415 101.017L29.166 100.442C31.7075 102.982 34.249 105.523 36.7602 108.033L36.4278 107.609C36.3976 110.119 36.3673 112.599 36.3673 115.109L36.6088 114.746Z" fill="#3D0E26"/>
<path d="M1829.13 255.634C1827.62 250.433 1831.64 244.778 1837.57 244.083C1838.45 243.992 1839.81 244.567 1840.35 245.293C1842.62 248.317 1841.84 251.461 1839.9 254.274C1837.93 257.116 1835.18 258.961 1831.49 257.933C1830.55 257.661 1829.92 256.451 1829.13 255.634Z" fill="#3D0E26"/>
<path d="M916.23 292.286C918.106 284.544 919.013 276.259 926.849 271.602C927.576 271.178 929.118 271.39 929.905 271.904C930.661 272.418 931.509 273.809 931.327 274.595C930.843 276.773 930.419 279.373 928.967 280.795C924.883 284.786 920.314 288.264 915.897 291.953L916.23 292.286Z" fill="#3D0E26"/>
<path d="M1575.38 178.462C1573.84 186.597 1570.84 193.975 1563.91 199.025C1562.31 200.174 1559.86 200.144 1557.8 200.658C1557.8 198.662 1556.92 195.82 1557.92 194.852C1563.61 189.257 1569.75 184.087 1575.74 178.795L1575.38 178.462Z" fill="#3D0E26"/>
<path d="M894.93 320.621C895.051 305.924 900.89 295.552 916.23 292.286L915.897 291.923C910.632 302.749 905.428 313.636 894.536 320.228L894.93 320.621Z" fill="#3D0E26"/>
<path d="M1533.23 249.738C1532.17 245.293 1530.39 240.666 1533.44 236.553C1534.5 235.102 1537.5 233.922 1539.07 234.406C1540.46 234.83 1542.34 238.64 1541.82 239.396C1539.22 243.024 1535.89 246.109 1532.81 249.375L1533.23 249.738Z" fill="#3D0E26"/>
<path d="M1532.81 249.345C1531.75 258.901 1526.79 265.886 1518.65 270.755L1519.04 271.088C1519.56 261.169 1522.61 252.943 1533.23 249.708C1533.23 249.738 1532.81 249.345 1532.81 249.345Z" fill="#3D0E26"/>
<path d="M894.536 320.258C893.326 323.494 892.539 327.002 890.724 329.874C889.967 331.114 887.093 331.084 885.157 331.386C885.006 331.417 884.219 329.451 884.31 328.483C884.431 327.425 884.975 326.004 885.792 325.49C888.727 323.675 891.874 322.193 894.93 320.591C894.93 320.621 894.536 320.258 894.536 320.258Z" fill="#3D0E26"/>
<path d="M1440.65 299.15C1438.74 308.132 1434.02 315.208 1426.46 320.409L1426.79 320.711C1428.49 311.609 1433.36 304.624 1440.86 299.362L1440.65 299.15Z" fill="#3D0E26"/>
<path d="M1852.4 285.21C1854.67 282.548 1856.81 279.827 1859.26 277.317C1859.96 276.591 1861.72 276.016 1862.41 276.41C1864.86 277.71 1864.77 279.948 1861.93 281.369C1858.84 282.911 1855.36 283.728 1852.06 284.847L1852.4 285.21Z" fill="#3D0E26"/>
<path d="M1738.52 412.551C1737.37 415.787 1736.34 419.083 1735.01 422.258C1734.61 423.165 1733.31 424.345 1732.49 424.314C1729.71 424.163 1728.98 422.167 1731.13 419.748C1733.4 417.178 1736.19 415.091 1738.76 412.793L1738.52 412.551Z" fill="#3D0E26"/>
<path d="M242.407 412.854C243.829 403.509 248.852 396.584 256.598 391.443L256.295 391.262C254.479 400.304 250.304 407.773 242.045 412.49L242.407 412.854Z" fill="#3D0E26"/>
<path d="M341.646 306.468C343.098 297.215 347.697 290.048 355.776 285.21L355.503 284.907C355.503 289.776 355.503 294.644 355.503 299.483L355.987 298.878C353.415 301.449 350.873 303.989 348.332 306.559L348.817 306.075C346.305 306.075 343.794 306.075 341.253 306.075L341.646 306.468Z" fill="#3D0E26"/>
<path d="M1838.12 299.392C1840.45 292.195 1845.23 287.508 1852.4 285.21L1852.06 284.847C1848.62 290.895 1843.9 295.673 1837.81 299.12L1838.12 299.392Z" fill="#3D0E26"/>
<path d="M1093.35 79.6067C1095.1 78.2761 1096.79 76.7946 1098.67 75.6454C1099.52 75.1313 1101.24 74.7684 1101.79 75.2523C1103.81 77.0365 1103 78.5484 1099.73 78.9415C1097.52 79.2137 1095.28 79.1228 1093.07 79.2136C1093.01 79.2136 1093.35 79.6067 1093.35 79.6067Z" fill="#3D0E26"/>
<path d="M2015.17 65.0917C2013.39 67.6622 2012.48 71.4115 2008.03 70.4136C2008.34 69.5064 2008.4 68.0548 2009 67.7524C2011.06 66.7545 2013.3 66.1803 2015.5 65.4243C2015.5 65.4545 2015.17 65.0917 2015.17 65.0917Z" fill="#3D0E26"/>
<path d="M490.261 497.859C491.653 498.494 493.075 499.129 494.467 499.764C493.771 499.643 492.984 499.734 492.44 499.401C491.714 498.947 491.169 498.161 490.533 497.526L490.261 497.859Z" fill="#3D0E26"/>
<path d="M228.218 419.658C227.461 418.357 226.705 417.057 225.979 415.726C226.463 416.24 227.098 416.724 227.37 417.329C227.703 418.146 227.704 419.083 227.855 419.96C227.825 419.96 228.218 419.658 228.218 419.658Z" fill="#3D0E26"/>
<path d="M1504.46 327.455C1502.13 332.142 1499.8 336.83 1497.47 341.547L1497.74 341.819C1500.07 337.132 1502.4 332.445 1504.73 327.758L1504.46 327.455Z" fill="#3D0E26"/>
<path d="M561.423 58.2876C566.173 55.9289 570.892 53.6002 575.643 51.2414L575.4 50.9996C570.68 53.3584 565.961 55.717 561.241 58.0757L561.423 58.2876Z" fill="#3D0E26"/>
<path d="M1745.72 405.354C1743.33 407.743 1740.91 410.162 1738.52 412.551L1738.76 412.793C1741.15 410.404 1743.57 407.985 1745.96 405.596L1745.72 405.354Z" fill="#3D0E26"/>
<path d="M1440.86 299.362C1443.25 297.003 1445.61 294.644 1448 292.286L1447.76 292.044C1445.4 294.433 1443.04 296.792 1440.68 299.181C1440.65 299.15 1440.86 299.362 1440.86 299.362Z" fill="#3D0E26"/>
<path d="M1894.57 277.861C1892.21 280.22 1889.82 282.579 1887.46 284.938L1887.74 285.21C1890.1 282.851 1892.46 280.462 1894.81 278.103L1894.57 277.861Z" fill="#3D0E26"/>
<path d="M355.776 285.21C358.166 282.79 360.586 280.371 362.976 277.922L362.734 277.589C360.313 280.038 357.923 282.458 355.503 284.907L355.776 285.21Z" fill="#3D0E26"/>
<path d="M1901.74 270.755C1899.35 273.113 1896.96 275.503 1894.57 277.861L1894.81 278.103C1897.17 275.714 1899.54 273.325 1901.93 270.936C1901.9 270.906 1901.74 270.755 1901.74 270.755Z" fill="#3D0E26"/>
<path d="M1391.18 447.962C1388.79 447.962 1386.4 447.962 1383.98 447.962L1383.71 448.204C1386.28 448.204 1388.88 448.204 1391.45 448.204L1391.18 447.962Z" fill="#3D0E26"/>
<path d="M426.604 469.281C426.634 466.923 426.694 464.564 426.725 462.175L426.452 461.933C426.452 464.473 426.452 466.983 426.422 469.524L426.604 469.281Z" fill="#3D0E26"/>
<path d="M1696.01 242.692C1698.37 245.051 1700.76 247.409 1703.12 249.768L1703.39 249.496C1701.03 247.137 1698.67 244.748 1696.31 242.389L1696.01 242.692Z" fill="#3D0E26"/>
<path d="M1696.34 242.389C1696.34 242.389 1696.04 242.692 1696.01 242.692L1696.34 242.389Z" fill="#3D0E26"/>
<path d="M433.774 469.221C431.384 469.221 428.994 469.251 426.604 469.251L426.422 469.493C428.963 469.493 431.505 469.493 434.016 469.463L433.774 469.221Z" fill="#3D0E26"/>
<path d="M142.867 228.509L143.109 228.268C143.109 228.237 142.867 228.509 142.867 228.509Z" fill="#3D0E26"/>
<path d="M135.726 221.433C138.116 223.792 140.507 226.151 142.867 228.509L143.109 228.268C140.749 225.879 138.389 223.49 136.059 221.101L135.726 221.433Z" fill="#3D0E26"/>
<path d="M1490.66 348.926C1493.02 346.567 1495.38 344.178 1497.74 341.819L1497.47 341.547C1495.11 343.906 1492.72 346.264 1490.36 348.623L1490.66 348.926Z" fill="#3D0E26"/>
<path d="M1667.96 214.054C1665.57 211.665 1663.15 209.307 1660.76 206.918L1660.55 207.13C1662.94 209.519 1665.33 211.938 1667.69 214.327L1667.96 214.054Z" fill="#3D0E26"/>
<path d="M1483.46 356.123C1485.85 353.734 1488.27 351.315 1490.66 348.926L1490.36 348.623C1487.97 351.012 1485.55 353.431 1483.16 355.82L1483.46 356.123Z" fill="#3D0E26"/>
<path d="M781.108 582.561L781.441 582.894C781.441 582.864 781.108 582.561 781.108 582.561Z" fill="#3D0E26"/>
<path d="M455.074 157.626C457.434 155.238 459.794 152.849 462.154 150.49L462.002 150.187C459.612 152.576 457.222 154.965 454.832 157.354L455.074 157.626Z" fill="#3D0E26"/>
<path d="M462.154 150.49C464.514 150.46 466.874 150.46 469.234 150.429L469.445 150.157C466.964 150.157 464.483 150.187 462.033 150.187L462.154 150.49Z" fill="#3D0E26"/>
<path d="M490.594 143.323C490.594 140.904 490.594 138.484 490.594 136.095C490.594 136.095 490.322 135.793 490.322 135.823C490.322 138.424 490.322 141.025 490.322 143.625L490.594 143.323Z" fill="#3D0E26"/>
<path d="M667.71 589.698C665.32 592.057 662.96 594.415 660.57 596.774L660.812 597.016C663.172 594.627 665.532 592.268 667.892 589.879L667.71 589.698Z" fill="#3D0E26"/>
<path d="M43.7797 121.943C41.3895 119.554 38.999 117.165 36.6088 114.746L36.3673 115.078C38.8785 115.048 41.3594 115.018 43.8706 115.018L43.5374 114.685C43.5072 117.195 43.4768 119.705 43.4466 122.185L43.7797 121.943Z" fill="#3D0E26"/>
<path d="M0.99867 86.6226L0 85.4735L1.17964 86.441L0.99867 86.6226Z" fill="#3D0E26"/>
<path d="M1511.54 320.379C1509.18 322.738 1506.82 325.096 1504.43 327.455L1504.73 327.758C1507.09 325.399 1509.45 323.04 1511.81 320.651L1511.54 320.379Z" fill="#3D0E26"/>
<path d="M575.643 51.2717L575.4 51.0299C575.43 51.0299 575.643 51.2717 575.643 51.2717Z" fill="#3D0E26"/>
<path d="M1511.84 320.651C1514.23 318.262 1516.62 315.843 1519.01 313.454L1518.74 313.182C1516.35 315.571 1513.96 317.96 1511.54 320.379L1511.84 320.651Z" fill="#3D0E26"/>
<path d="M390.962 263.981C390.962 261.441 390.993 258.901 390.993 256.361C393.504 258.871 396.045 261.411 398.557 263.921C396.045 263.951 393.504 263.951 390.962 263.981Z" fill="#3D0E26"/>
<path d="M462.305 171.416C462.305 173.956 462.275 176.496 462.275 179.036C459.733 176.526 457.222 173.986 454.681 171.446C457.222 171.416 459.764 171.416 462.305 171.416Z" fill="#3D0E26"/>
<path d="M383.852 263.557C386.394 263.557 388.935 263.588 391.477 263.588C388.965 266.128 386.424 268.638 383.913 271.178C383.882 268.638 383.882 266.098 383.852 263.557Z" fill="#3D0E26"/>
</svg>
